<svg id="_001-chile" data-name="001-chile" xmlns="http://www.w3.org/2000/svg" width="82.082" height="82.083" viewBox="0 0 82.082 82.083">
  <path id="Trazado_2373" data-name="Trazado 2373" d="M253.837,41.042H277.88A41.041,41.041,0,0,0,236.838,0C248.171,0,253.837,20.521,253.837,41.042Z" transform="translate(-195.798)" fill="#efecec"/>
  <path id="Trazado_2374" data-name="Trazado 2374" d="M246.159,236.842c0,20.521-9.322,41.042-9.322,41.042a41.042,41.042,0,0,0,41.042-41.042Z" transform="translate(-195.797 -195.8)" fill="#db2f2a"/>
  <path id="Trazado_2375" data-name="Trazado 2375" d="M0,41.042h58.04C58.043,20.521,52.377,0,41.043,0A41.04,41.04,0,0,0,0,41.042Z" transform="translate(-0.003)" fill="#f3f4f5"/>
  <path id="Trazado_2376" data-name="Trazado 2376" d="M58.043,236.842H0a41.042,41.042,0,0,0,41.04,41.042C52.377,277.884,58.043,257.364,58.043,236.842Z" transform="translate(-0.003 -195.8)" fill="#e13e3e"/>
  <path id="Trazado_2377" data-name="Trazado 2377" d="M30.709,7.584A41.057,41.057,0,0,0,0,47.311H30.709Z" transform="translate(-0.003 -6.27)" fill="#3757a6"/>
  <path id="Trazado_2378" data-name="Trazado 2378" d="M57.991,89.428l2.143,6.6h6.938L61.459,100.1l2.144,6.6-5.613-4.077L52.379,106.7l2.144-6.6L48.91,96.026h6.938Z" transform="translate(-40.435 -73.931)" fill="#fff"/>
</svg>
