<svg id="_003-colombia" data-name="003-colombia" xmlns="http://www.w3.org/2000/svg" width="84.429" height="84.429" viewBox="0 0 84.429 84.429">
  <path id="Trazado_2379" data-name="Trazado 2379" d="M249.066,40.41H279A42.211,42.211,0,0,0,236.835,0C248.159,0,248.743,19.922,249.066,40.41Z" transform="translate(-194.621 -0.002)" fill="#fbd015"/>
  <path id="Trazado_2380" data-name="Trazado 2380" d="M305.456,248.867h24.755a42.016,42.016,0,0,0,5.229-20.354c0-.605-.02-1.207-.045-1.807h-28A103.412,103.412,0,0,1,305.456,248.867Z" transform="translate(-251.011 -186.298)" fill="#21428c"/>
  <g id="Grupo_1565" data-name="Grupo 1565" transform="translate(40.538 62.569)">
    <path id="Trazado_2381" data-name="Trazado 2381" d="M227.762,473.493c-.108,0-.217-.008-.325-.012C227.544,473.485,227.653,473.49,227.762,473.493Z" transform="translate(-227.437 -451.657)" fill="#cd202a"/>
    <path id="Trazado_2382" data-name="Trazado 2382" d="M236.835,372.9a42.2,42.2,0,0,0,36.986-21.859H248.177C245.584,363.531,244.6,372.9,236.835,372.9Z" transform="translate(-235.16 -351.04)" fill="#cd202a"/>
  </g>
  <path id="Trazado_2383" data-name="Trazado 2383" d="M230.609,473.571c-.453,0-.9-.009-1.35-.023C229.709,473.562,230.16,473.571,230.609,473.571Z" transform="translate(-188.396 -389.143)" fill="#fff"/>
  <path id="Trazado_2384" data-name="Trazado 2384" d="M.254,40.41H59.892C59.57,19.922,53.747,0,42.422,0A42.211,42.211,0,0,0,.254,40.41Z" transform="translate(-0.209 -0.002)" fill="#fcd73e"/>
  <path id="Trazado_2385" data-name="Trazado 2385" d="M59.684,226.706H.045c-.025.6-.045,1.2-.045,1.807a42.017,42.017,0,0,0,5.229,20.354H57.747A103.358,103.358,0,0,0,59.684,226.706Z" transform="translate(0 -186.298)" fill="#1d4f95"/>
  <path id="Trazado_2386" data-name="Trazado 2386" d="M64.642,372.863c.108,0,.217.009.325.012.449.014.9.023,1.35.023,7.764,0,12.94-9.368,15.532-21.859H29.333A42.207,42.207,0,0,0,64.642,372.863Z" transform="translate(-24.105 -288.47)" fill="#d11f3e"/>
</svg>
