<svg id="_36_Multicolor_Flag_mc_36_flag_ecuador" data-name="36 Multicolor / Flag / mc_36_flag_ecuador" xmlns="http://www.w3.org/2000/svg" width="84.428" height="84.428" viewBox="0 0 84.428 84.428">
  <g id="mc_36_flag_Ecuador" transform="translate(0)">
    <path id="Path" d="M0,42.214a42.214,42.214,0,0,1,84.428,0l-42.214,3.67Z" fill="#ffda44"/>
    <path id="Path_2" d="M2.41,28.579a42.22,42.22,0,0,0,73.124,0L38.972,25.826Z" transform="translate(3.242 34.742)" fill="#d80027"/>
    <path id="Path_3" d="M78.776,39.107A42.006,42.006,0,0,0,84.428,18H0A41.982,41.982,0,0,0,5.652,39.107Z" transform="translate(0 24.214)" fill="#0052b4"/>
    <path id="Oval" d="M26.423,41.106A14.684,14.684,0,1,0,11.739,26.423,14.683,14.683,0,0,0,26.423,41.106Z" transform="translate(15.792 15.792)" fill="#ffda44"/>
    <path id="Path_4" d="M23.264,35.6a9.193,9.193,0,0,1-9.177-9.177V20.916a9.177,9.177,0,1,1,18.354,0v5.507A9.193,9.193,0,0,1,23.264,35.6Z" transform="translate(18.95 15.792)" fill="#338af3"/>
    <path id="Path_5" d="M41.1,10.715H30.089a3.67,3.67,0,0,0-7.341,0H11.74a3.777,3.777,0,0,0,3.792,3.67H15.41a3.67,3.67,0,0,0,3.67,3.67,3.67,3.67,0,0,0,3.67,3.67h7.341a3.67,3.67,0,0,0,3.67-3.67,3.67,3.67,0,0,0,3.67-3.67H37.31a3.776,3.776,0,0,0,3.792-3.67Z" transform="translate(15.793 9.477)" fill="#3d3d3d"/>
  </g>
</svg>
