<svg id="_36_Multicolor_Flag_mc_36_flag_mexico" data-name="36 Multicolor / Flag / mc_36_flag_mexico" xmlns="http://www.w3.org/2000/svg" width="84.428" height="84.428" viewBox="0 0 84.428 84.428">
  <g id="mc_36_flag_Mexico" transform="translate(0)">
    <path id="Oval" d="M42.214,84.428A42.214,42.214,0,1,0,0,42.214,42.214,42.214,0,0,0,42.214,84.428Z" fill="#f0f0f0"/>
    <path id="Path" d="M49.686,39.812A42.219,42.219,0,0,0,25.826,1.786V77.837a42.219,42.219,0,0,0,23.86-38.026Z" transform="translate(34.742 2.402)" fill="#d80027"/>
    <path id="Shape" d="M23.86,77.837a42.23,42.23,0,0,1,0-76.051ZM42.214,50.825A11.013,11.013,0,0,1,31.2,39.812h-.019v-3.67H53.227v3.67A11.012,11.012,0,0,1,42.214,50.825Z" transform="translate(0 2.402)" fill="#6da544" fill-rule="evenodd"/>
    <path id="Path_2" d="M41.1,16.975H30.089a3.67,3.67,0,1,0-7.341,0H11.74a3.777,3.777,0,0,0,3.792,3.67H15.41a3.67,3.67,0,0,0,3.67,3.67,3.67,3.67,0,0,0,3.67,3.67h7.341a3.67,3.67,0,0,0,3.67-3.67,3.67,3.67,0,0,0,3.67-3.67H37.31A3.776,3.776,0,0,0,41.1,16.975Z" transform="translate(15.793 17.898)" fill="#ff9811"/>
  </g>
</svg>
