<svg id="_36_Multicolor_Flag_mc_36_flag_uruguay" data-name="36 Multicolor / Flag / mc_36_flag_uruguay" xmlns="http://www.w3.org/2000/svg" width="84.428" height="84.428" viewBox="0 0 84.428 84.428">
  <g id="mc_36_flag_Uruguay" transform="translate(0 0)">
    <path id="Oval" d="M42.214,84.428A42.214,42.214,0,1,0,0,42.214,42.214,42.214,0,0,0,42.214,84.428Z" transform="translate(0 0)" fill="#f0f0f0"/>
    <path id="Shape" d="M42.214,9.177V0A42.027,42.027,0,0,1,68.493,9.177ZM68.471,75.252H15.936A42.446,42.446,0,0,1,6.2,64.238H78.211A42.424,42.424,0,0,1,68.471,75.252ZM42.214,31.2h40.76a41.98,41.98,0,0,0-4.742-11.013H42.214ZM1.454,53.227A42.261,42.261,0,0,1,0,42.214H84.428a42.3,42.3,0,0,1-1.454,11.013Z" transform="translate(0 0)" fill="#338af3" fill-rule="evenodd"/>
    <path id="Path" d="M30.127,17.418l-5.155,2.425,2.744,5-5.6-1.072-.708,5.652-3.9-4.16-3.9,4.16L12.9,23.766,7.3,24.836l2.744-5L4.892,17.415l5.155-2.423L7.3,10l5.6,1.072.711-5.652,3.9,4.182,3.9-4.16.708,5.652,5.6-1.072-2.744,5Z" transform="translate(6.581 7.287)" fill="#ffda44"/>
  </g>
</svg>
