<svg xmlns="http://www.w3.org/2000/svg" xmlns:xlink="http://www.w3.org/1999/xlink" width="509.941" height="507.148" viewBox="0 0 509.941 507.148">
  <defs>
    <linearGradient id="linear-gradient" y1="0.5" x2="1" y2="0.5" gradientUnits="objectBoundingBox">
      <stop offset="0" stop-color="#aa80f9"/>
      <stop offset="0.996" stop-color="#6165d7"/>
    </linearGradient>
    <linearGradient id="linear-gradient-2" y1="0.5" x2="1" y2="0.5" gradientUnits="objectBoundingBox">
      <stop offset="0" stop-color="#a737d5"/>
      <stop offset="1" stop-color="#49e1ef"/>
    </linearGradient>
    <linearGradient id="linear-gradient-3" x1="0" y1="0.5" x2="1" y2="0.5" xlink:href="#linear-gradient"/>
    <linearGradient id="linear-gradient-4" x1="0" y1="0.5" x2="1" y2="0.5" xlink:href="#linear-gradient"/>
    <linearGradient id="linear-gradient-5" x1="0" y1="0.5" x2="1" y2="0.5" xlink:href="#linear-gradient-2"/>
    <linearGradient id="linear-gradient-6" x1="0" y1="0.5" x2="1" y2="0.5" xlink:href="#linear-gradient"/>
    <linearGradient id="linear-gradient-7" x1="0" y1="0.5" x2="1" y2="0.5" xlink:href="#linear-gradient-2"/>
    <linearGradient id="linear-gradient-8" y1="0.5" x2="1" y2="0.5" gradientUnits="objectBoundingBox">
      <stop offset="0" stop-color="#a56ffb"/>
      <stop offset="1" stop-color="#85fff1"/>
    </linearGradient>
    <linearGradient id="linear-gradient-9" x1="0" y1="0.5" x2="1" y2="0.5" xlink:href="#linear-gradient-2"/>
    <clipPath id="clip-path">
      <path id="Trazado_2099" data-name="Trazado 2099" d="M2099.647,1993.664c-33.731,7.152-69.583-7.445-89.632-32.743-8.158-10.3-41.578-46.224-44.487-59.943-10.061-47.45,56.23-80.3,103.7-90.363,47.45-10.061,100.5,22.426,110.558,69.876,4.481,21.182-14.707,64.279-24.219,81.949C2143.768,1984.353,2125.933,1988.084,2099.647,1993.664Z" transform="translate(-1964.506 -1808.781)"/>
    </clipPath>
    <linearGradient id="linear-gradient-10" x1="-11.226" y1="-0.339" x2="-12.274" y2="0.95" gradientUnits="objectBoundingBox">
      <stop offset="0" stop-color="#febbba"/>
      <stop offset="1" stop-color="#ff928e"/>
    </linearGradient>
    <linearGradient id="linear-gradient-11" x1="2.139" y1="-1.069" x2="1.519" y2="-0.421" gradientUnits="objectBoundingBox">
      <stop offset="0" stop-color="#09005d"/>
      <stop offset="1" stop-color="#1a0f91"/>
    </linearGradient>
    <linearGradient id="linear-gradient-12" x1="0.847" y1="0.14" x2="0.107" y2="1.142" xlink:href="#linear-gradient-2"/>
    <linearGradient id="linear-gradient-13" x1="4.261" y1="-1.088" x2="4.451" y2="-2.009" xlink:href="#linear-gradient-10"/>
    <linearGradient id="linear-gradient-14" x1="2.882" y1="-1.762" x2="4.166" y2="-0.623" xlink:href="#linear-gradient-10"/>
    <linearGradient id="linear-gradient-15" x1="5.37" y1="-4.05" x2="3.526" y2="-2.093" xlink:href="#linear-gradient-11"/>
    <linearGradient id="linear-gradient-16" x1="6.307" y1="-8.503" x2="9.738" y2="-4.409" xlink:href="#linear-gradient-10"/>
    <linearGradient id="linear-gradient-17" x1="-22.293" y1="1.047" x2="-19.159" y2="-1.146" xlink:href="#linear-gradient-10"/>
    <linearGradient id="linear-gradient-18" x1="0" y1="0.5" x2="1" y2="0.5" xlink:href="#linear-gradient-2"/>
    <clipPath id="clip-path-2">
      <path id="Trazado_2118" data-name="Trazado 2118" d="M801.319,2159.537c-34.865,7.39-71.925-7.7-92.668-33.859-8.433-10.646-34.554-45.859-37.554-60.035-10.408-49.06,49.7-84.912,98.759-95.321s103.9,23.158,114.308,72.217c4.646,21.9-3.549,67.242-13.39,85.5C858.573,2150.72,828.483,2153.775,801.319,2159.537Z" transform="translate(-669.909 -1968.425)"/>
    </clipPath>
    <linearGradient id="linear-gradient-19" x1="-31.219" y1="0.501" x2="-29.494" y2="0.501" gradientUnits="objectBoundingBox">
      <stop offset="0" stop-color="#a22b25"/>
      <stop offset="1" stop-color="#c0423c"/>
    </linearGradient>
    <linearGradient id="linear-gradient-20" x1="2.281" y1="-1.017" x2="1.535" y2="-0.346" gradientUnits="objectBoundingBox">
      <stop offset="0" stop-color="#4f52ff"/>
      <stop offset="1" stop-color="#4042e2"/>
    </linearGradient>
    <linearGradient id="linear-gradient-21" x1="0.205" y1="0.873" x2="1.655" y2="-1.427" xlink:href="#linear-gradient-2"/>
    <linearGradient id="linear-gradient-22" x1="13.734" y1="0.372" x2="13.71" y2="-0.739" xlink:href="#linear-gradient-19"/>
    <linearGradient id="linear-gradient-23" x1="-8.265" y1="-95.303" x2="-7.523" y2="-94.18" xlink:href="#linear-gradient-19"/>
    <linearGradient id="linear-gradient-24" x1="59.333" y1="3.772" x2="60.214" y2="4.602" xlink:href="#linear-gradient-11"/>
    <linearGradient id="linear-gradient-25" x1="-33.965" y1="-378.754" x2="-31.043" y2="-374.309" xlink:href="#linear-gradient-19"/>
    <linearGradient id="linear-gradient-26" x1="0.222" y1="0.803" x2="2.798" y2="-1.962" xlink:href="#linear-gradient-2"/>
    <linearGradient id="linear-gradient-27" x1="6.634" y1="-0.394" x2="7.069" y2="1.886" xlink:href="#linear-gradient-19"/>
    <linearGradient id="linear-gradient-28" x1="13.077" y1="-3.766" x2="14.054" y2="2.657" xlink:href="#linear-gradient-19"/>
    <linearGradient id="linear-gradient-29" x1="-61.535" y1="0.5" x2="-60.535" y2="0.5" xlink:href="#linear-gradient-19"/>
    <linearGradient id="linear-gradient-30" x1="0" y1="0.5" x2="1" y2="0.5" xlink:href="#linear-gradient-2"/>
    <clipPath id="clip-path-3">
      <path id="Trazado_2130" data-name="Trazado 2130" d="M1502.121,782.827c32.341,6.293,166.4,6.677,185.958-17.963,7.957-10.024-55.992-36.054-53.157-49.425,9.8-46.224-19.1-82.681-65.321-92.485s-94.15,9.988-103.954,56.212c-4.372,20.615-9.274,58.59,0,75.8C1477.152,776.315,1476.438,777.833,1502.121,782.827Z" transform="translate(-1460.373 -620.503)"/>
    </clipPath>
    <linearGradient id="linear-gradient-31" x1="1.056" y1="0.069" x2="-0.027" y2="1.029" xlink:href="#linear-gradient-2"/>
    <linearGradient id="linear-gradient-32" x1="14.34" y1="5.758" x2="15.339" y2="5.758" xlink:href="#linear-gradient-10"/>
    <linearGradient id="linear-gradient-33" x1="0" y1="0.5" x2="1" y2="0.5" xlink:href="#linear-gradient-2"/>
    <linearGradient id="linear-gradient-34" x1="-34.783" y1="0.5" x2="-33.783" y2="0.5" xlink:href="#linear-gradient-10"/>
    <linearGradient id="linear-gradient-35" x1="-16.853" y1="0.5" x2="-15.853" y2="0.5" xlink:href="#linear-gradient-10"/>
    <linearGradient id="linear-gradient-36" x1="3.89" y1="-0.557" x2="0.972" y2="0.329" xlink:href="#linear-gradient-2"/>
    <linearGradient id="linear-gradient-37" x1="-114.75" y1="0.412" x2="-105.67" y2="1.041" xlink:href="#linear-gradient-2"/>
    <linearGradient id="linear-gradient-38" x1="83.698" y1="0.175" x2="82.381" y2="1.493" xlink:href="#linear-gradient-10"/>
    <linearGradient id="linear-gradient-39" x1="-22.415" y1="-0.149" x2="-22.88" y2="1.601" xlink:href="#linear-gradient-11"/>
    <linearGradient id="linear-gradient-40" x1="276.418" y1="2.701" x2="279.867" y2="0.456" xlink:href="#linear-gradient-10"/>
  </defs>
  <g id="ilus_essocial_home" transform="translate(-459.561 -460.728)">
    <path id="Trazado_2077" data-name="Trazado 2077" d="M911.976,896.973c-13.28,13.682-25.152,21.731-34.243,27.8-88.68,59.212-190.056,42.145-221.39,36.31-50.56-9.421-93.253-16.042-129.929-49.188-83.339-75.291-79.278-232.347-15.6-329.643,7.555-11.542,71.138-105.784,172.733-119.064,2.488-.329,4.335-.512,5.963-.677,15.713-1.665,113.1-10.445,192.525,56.084a237.189,237.189,0,0,1,46.627,52.9C990.669,667.3,990.87,815.664,911.976,896.973Z" transform="translate(-3.836 -0.402)" fill="#fff"/>
    <g id="Grupo_1261" data-name="Grupo 1261" transform="translate(809.545 471.189)">
      <path id="Trazado_2078" data-name="Trazado 2078" d="M2799.7,1748.983l-4.5-1.976,16.408-37.407,4.5,1.975Z" transform="translate(-2718.648 -1491.616)" fill="url(#linear-gradient)"/>
      <g id="Grupo_1259" data-name="Grupo 1259" transform="translate(57.038 126.295)">
        <path id="Trazado_2079" data-name="Trazado 2079" d="M2688.587,1265.392l1.025,5.981a4.76,4.76,0,0,0,3.933,3.9l4.756.787a4.005,4.005,0,0,1,2.945,2.231,42.652,42.652,0,0,0,5.177,8.213,3.981,3.981,0,0,1,.732,3.622l-1.354,4.628a4.77,4.77,0,0,0,1.829,5.232l4.957,3.512a4.782,4.782,0,0,0,5.543-.018l3.914-2.817a4.014,4.014,0,0,1,3.658-.512,43.239,43.239,0,0,0,9.475,2.158,4,4,0,0,1,3.073,2.03l2.323,4.226a4.781,4.781,0,0,0,4.994,2.415l5.982-1.024a4.759,4.759,0,0,0,3.9-3.933l.787-4.756a4.008,4.008,0,0,1,2.232-2.945,42.631,42.631,0,0,0,8.213-5.177,3.981,3.981,0,0,1,3.622-.732l4.628,1.354a4.77,4.77,0,0,0,5.231-1.829l3.512-4.957a4.782,4.782,0,0,0-.019-5.542l-2.817-3.915a4.015,4.015,0,0,1-.512-3.659,43.2,43.2,0,0,0,2.158-9.475,4,4,0,0,1,2.031-3.073l4.225-2.323a4.78,4.78,0,0,0,2.415-4.994l-1.024-5.981a4.76,4.76,0,0,0-3.933-3.9l-4.756-.787a4.008,4.008,0,0,1-2.945-2.232,42.668,42.668,0,0,0-5.177-8.213,3.979,3.979,0,0,1-.732-3.622l1.354-4.628a4.771,4.771,0,0,0-1.829-5.231l-4.957-3.512a4.782,4.782,0,0,0-5.542.018l-3.915,2.817a4.015,4.015,0,0,1-3.658.512,43.232,43.232,0,0,0-9.475-2.159,4,4,0,0,1-3.073-2.03l-2.323-4.226a4.781,4.781,0,0,0-4.994-2.415l-5.981,1.024a4.759,4.759,0,0,0-3.9,3.933l-.787,4.756a4.006,4.006,0,0,1-2.231,2.945,42.647,42.647,0,0,0-8.213,5.177,3.981,3.981,0,0,1-3.622.731l-4.628-1.353a4.77,4.77,0,0,0-5.231,1.829l-3.512,4.957a4.782,4.782,0,0,0,.018,5.542l2.817,3.915a4.014,4.014,0,0,1,.512,3.658,43.218,43.218,0,0,0-2.159,9.475,4,4,0,0,1-2.03,3.073L2691,1260.4A4.781,4.781,0,0,0,2688.587,1265.392Zm16.006-3.256a35.358,35.358,0,1,1,37.682,32.871A35.36,35.36,0,0,1,2704.593,1262.136Z" transform="translate(-2688.517 -1208.347)" fill="url(#linear-gradient-2)"/>
      </g>
      <path id="Trazado_2080" data-name="Trazado 2080" d="M2802.251,969.118,2787.8,903.961l4.792-1.061,14.451,65.157Z" transform="translate(-2712.601 -832.478)" fill="url(#linear-gradient-3)"/>
      <path id="Trazado_2081" data-name="Trazado 2081" d="M2377.249,788.289l-.549-4.884,47.8-5.3.548,4.884Z" transform="translate(-2376.7 -730.507)" fill="url(#linear-gradient-4)"/>
      <g id="Grupo_1260" data-name="Grupo 1260" transform="translate(40.85)">
        <path id="Trazado_2082" data-name="Trazado 2082" d="M2600.07,560.06l.75,4.427a3.558,3.558,0,0,0,2.908,2.89l3.512.585a2.958,2.958,0,0,1,2.176,1.646,30.966,30.966,0,0,0,3.823,6.073,2.941,2.941,0,0,1,.549,2.671l-1.006,3.421a3.491,3.491,0,0,0,1.354,3.86l3.658,2.6a3.516,3.516,0,0,0,4.1-.018l2.89-2.085a2.918,2.918,0,0,1,2.708-.366,31.168,31.168,0,0,0,7.006,1.591,2.959,2.959,0,0,1,2.269,1.5l1.719,3.128a3.5,3.5,0,0,0,3.676,1.774l4.427-.75a3.559,3.559,0,0,0,2.89-2.909l.585-3.512a2.96,2.96,0,0,1,1.646-2.177,30.944,30.944,0,0,0,6.073-3.823,2.941,2.941,0,0,1,2.67-.549l3.421,1.006a3.491,3.491,0,0,0,3.86-1.354l2.6-3.658a3.517,3.517,0,0,0-.018-4.1l-2.085-2.89a2.916,2.916,0,0,1-.366-2.707,31.141,31.141,0,0,0,1.591-7.006,2.958,2.958,0,0,1,1.5-2.268l3.128-1.719a3.5,3.5,0,0,0,1.774-3.677l-.75-4.427a3.559,3.559,0,0,0-2.908-2.89l-3.512-.585a2.959,2.959,0,0,1-2.177-1.646,30.942,30.942,0,0,0-3.823-6.073,2.941,2.941,0,0,1-.548-2.671l1.005-3.421a3.49,3.49,0,0,0-1.354-3.86l-3.658-2.6a3.516,3.516,0,0,0-4.1.018l-2.89,2.085a2.918,2.918,0,0,1-2.708.366,31.168,31.168,0,0,0-7.006-1.591,2.96,2.96,0,0,1-2.269-1.5l-1.719-3.128a3.5,3.5,0,0,0-3.677-1.774l-4.427.75a3.558,3.558,0,0,0-2.89,2.908l-.585,3.512a2.959,2.959,0,0,1-1.646,2.177,30.938,30.938,0,0,0-6.073,3.823,2.942,2.942,0,0,1-2.671.549l-3.421-1.006a3.491,3.491,0,0,0-3.86,1.354l-2.6,3.658a3.517,3.517,0,0,0,.019,4.1l2.085,2.909a2.92,2.92,0,0,1,.366,2.707,31.105,31.105,0,0,0-1.592,7.006,2.958,2.958,0,0,1-1.5,2.268l-3.128,1.719A3.463,3.463,0,0,0,2600.07,560.06Zm11.834-2.414a26.127,26.127,0,1,1,27.841,24.292A26.115,26.115,0,0,1,2611.9,557.645Z" transform="translate(-2600.018 -517.918)" fill="url(#linear-gradient-5)"/>
      </g>
    </g>
    <g id="Grupo_1264" data-name="Grupo 1264" transform="translate(477.657 460.728)">
      <path id="Trazado_2083" data-name="Trazado 2083" d="M1231.359,877.127,1171.8,859.219l1.409-4.719,59.578,17.908Z" transform="translate(-1060.314 -782.47)" fill="url(#linear-gradient-6)"/>
      <g id="Grupo_1263" data-name="Grupo 1263" transform="translate(0 0)">
        <g id="Grupo_1262" data-name="Grupo 1262">
          <path id="Trazado_2084" data-name="Trazado 2084" d="M564.646,501.295l-2.085,7.134a5.849,5.849,0,0,0,2.232,6.4l4.811,3.4a4.916,4.916,0,0,1,2.049,4.024,51.88,51.88,0,0,0,1.3,11.817,4.893,4.893,0,0,1-1.134,4.372l-3.969,4.372a5.839,5.839,0,0,0-.787,6.732l3.567,6.512a5.838,5.838,0,0,0,6.11,2.945L582.554,558a4.849,4.849,0,0,1,4.3,1.408,51.738,51.738,0,0,0,9.274,7.445,4.858,4.858,0,0,1,2.286,3.878l.293,5.89a5.856,5.856,0,0,0,4.189,5.323l7.134,2.085a5.849,5.849,0,0,0,6.4-2.232l3.4-4.811a4.916,4.916,0,0,1,4.024-2.049,51.886,51.886,0,0,0,11.817-1.3,4.893,4.893,0,0,1,4.372,1.134l4.372,3.969a5.839,5.839,0,0,0,6.732.787l6.512-3.567a5.838,5.838,0,0,0,2.945-6.11l-1.006-5.817a4.85,4.85,0,0,1,1.409-4.3,51.733,51.733,0,0,0,7.445-9.274,4.858,4.858,0,0,1,3.878-2.287l5.89-.293a5.856,5.856,0,0,0,5.323-4.189l2.085-7.134a5.849,5.849,0,0,0-2.232-6.4l-4.811-3.4a4.916,4.916,0,0,1-2.049-4.024,51.884,51.884,0,0,0-1.3-11.817,4.892,4.892,0,0,1,1.134-4.372l3.969-4.372a5.839,5.839,0,0,0,.786-6.732l-3.567-6.512a5.838,5.838,0,0,0-6.11-2.945l-5.817,1.006a4.85,4.85,0,0,1-4.3-1.409,51.731,51.731,0,0,0-9.274-7.445,4.858,4.858,0,0,1-2.286-3.878l-.293-5.89a5.856,5.856,0,0,0-4.189-5.323l-7.116-2.085a5.849,5.849,0,0,0-6.4,2.232l-3.4,4.811a4.916,4.916,0,0,1-4.024,2.049,51.877,51.877,0,0,0-11.817,1.3,4.892,4.892,0,0,1-4.372-1.134l-4.372-3.969a5.839,5.839,0,0,0-6.732-.787l-6.512,3.567a5.838,5.838,0,0,0-2.945,6.11l1.006,5.817a4.85,4.85,0,0,1-1.408,4.3,51.73,51.73,0,0,0-7.445,9.274,4.858,4.858,0,0,1-3.878,2.286l-5.89.293A5.812,5.812,0,0,0,564.646,501.295Zm19.371,4.975a43.255,43.255,0,1,1,23.871,56.322A43.252,43.252,0,0,1,584.017,506.27Z" transform="translate(-562.328 -460.728)" fill="url(#linear-gradient-7)"/>
        </g>
      </g>
    </g>
    <path id="Trazado_2089" data-name="Trazado 2089" d="M1103.5,1231.674,1277.422,918l101.1,276.175Zm172.331-293.04-156.471,282.175,247.42-33.731Z" transform="translate(-526.851 -373.627)" fill="url(#linear-gradient-8)"/>
    <g id="Grupo_1272" data-name="Grupo 1272" transform="translate(734.146 696.341)">
      <circle id="Elipse_191" data-name="Elipse 191" cx="91.827" cy="91.827" r="91.827" transform="translate(28.919 24.936)" fill="#fff"/>
      <g id="Grupo_1269" data-name="Grupo 1269" transform="translate(0.16)">
        <g id="Grupo_1268" data-name="Grupo 1268">
          <path id="Trazado_2090" data-name="Trazado 2090" d="M1966.262,1851.934l-.86,13.792a10.865,10.865,0,0,0,6.658,10.7l10.134,4.225a9.015,9.015,0,0,1,5.341,6.457,96.171,96.171,0,0,0,7.171,20.89,9.081,9.081,0,0,1-.256,8.4l-5.415,9.549a10.859,10.859,0,0,0,1.3,12.53l9.146,10.372a10.859,10.859,0,0,0,12.274,2.854l10.152-4.189a9.1,9.1,0,0,1,8.36.787,97.346,97.346,0,0,0,19.829,9.731,9.057,9.057,0,0,1,5.744,6.109l2.927,10.573a10.841,10.841,0,0,0,9.768,7.939l13.792.86a10.866,10.866,0,0,0,10.7-6.658l4.226-10.134a9.014,9.014,0,0,1,6.457-5.341,96.164,96.164,0,0,0,20.89-7.17,9.08,9.08,0,0,1,8.4.256l9.549,5.415a10.858,10.858,0,0,0,12.53-1.3l10.353-9.146a10.858,10.858,0,0,0,2.854-12.274l-4.189-10.152a9.1,9.1,0,0,1,.786-8.36,97.343,97.343,0,0,0,9.731-19.828,9.056,9.056,0,0,1,6.11-5.744l10.573-2.927a10.84,10.84,0,0,0,7.939-9.768l.86-13.792a10.866,10.866,0,0,0-6.659-10.7l-10.134-4.226a9.017,9.017,0,0,1-5.341-6.457,96.158,96.158,0,0,0-7.171-20.89,9.081,9.081,0,0,1,.256-8.4l5.415-9.549a10.859,10.859,0,0,0-1.3-12.53l-9.146-10.372a10.859,10.859,0,0,0-12.274-2.854l-10.152,4.189a9.1,9.1,0,0,1-8.359-.786,97.335,97.335,0,0,0-19.829-9.732,9.056,9.056,0,0,1-5.744-6.109l-2.927-10.573a10.84,10.84,0,0,0-9.768-7.939l-13.792-.86a10.866,10.866,0,0,0-10.7,6.658l-4.225,10.134a9.015,9.015,0,0,1-6.457,5.341,96.186,96.186,0,0,0-20.89,7.171,9.079,9.079,0,0,1-8.4-.256l-9.549-5.414a10.858,10.858,0,0,0-12.53,1.3l-10.371,9.146a10.858,10.858,0,0,0-2.854,12.274l4.189,10.152a9.1,9.1,0,0,1-.787,8.359,97.333,97.333,0,0,0-9.731,19.829,9.057,9.057,0,0,1-6.11,5.744l-10.573,2.927A10.822,10.822,0,0,0,1966.262,1851.934Zm37.133,1.134a80.4,80.4,0,1,1,66.218,92.43A80.4,80.4,0,0,1,2003.4,1853.068Z" transform="translate(-1965.38 -1748.781)" fill="url(#linear-gradient-9)"/>
        </g>
      </g>
      <g id="Grupo_1271" data-name="Grupo 1271" transform="translate(0 10.975)">
        <g id="Grupo_1270" data-name="Grupo 1270" clip-path="url(#clip-path)">
          <path id="Trazado_2091" data-name="Trazado 2091" d="M2086.343,2154.568a1.307,1.307,0,0,1,2.433-.055c1.7,4.061,5.451,11.048,11.707,12.9.311.092.622.183.914.293a3.069,3.069,0,0,0-.714-2.689c-2.195-2.579.64-6.86.64-6.86a8.617,8.617,0,0,0,3.494,5.177c2.451,1.555,4.024,5.524,2.945,9.073-1.646,12.878-4.372,29.981,15.878,39.694,20.249,9.695,42.255-28.426,42.255-28.426l-7.884,43.169s-18.347,17.451-44.487-.567c-26.157-18.018-14.4-50.5-14.4-50.5S2080.288,2170.793,2086.343,2154.568Z" transform="translate(-2063.076 -2090.616)" fill="url(#linear-gradient-10)"/>
          <path id="Trazado_2092" data-name="Trazado 2092" d="M2488.344,1886.681s-8.487-23.67,20.213-20.725c0,0,13.262-3.915,15.548,8.78,0,0,9.457,4.646,4.445,16.518,0,0,24.676-13.28,38.834,8.03s5.341,35.121-5.14,39.749c0,0,9.384,3.329,6.458,13.847-2.927,10.536-23.176,20.231-37.207,9.64,0,0-34.957,9.164-37.408-16.024,0,0-17.871-8.6-3.128-31.536C2505.758,1892.022,2488.344,1886.681,2488.344,1886.681Z" transform="translate(-2389.897 -1855.032)" fill="url(#linear-gradient-11)"/>
          <path id="Trazado_2093" data-name="Trazado 2093" d="M2460.038,2277.486c5.4-2.378,21.329-7.537,38.651,4.829a9.664,9.664,0,0,1,3.969,9.237c-2.232,15.878-7.536,62.614,4.573,81.016,0,0-14.634,20.872-35.084,8.1,0,0-12.877-35.213-25.774-49.773-8.908-10.042,6.8-42.785,10.829-50.706A5.823,5.823,0,0,1,2460.038,2277.486Z" transform="translate(-2356.03 -2189.205)" fill="url(#linear-gradient-12)"/>
          <path id="Trazado_2094" data-name="Trazado 2094" d="M2548.982,2114s11.231,22.408,13.152,32.67a17.847,17.847,0,0,1-18.146-.622s-3.841-23.3-5.689-27.329Z" transform="translate(-2433.341 -2058.169)" fill="url(#linear-gradient-13)"/>
          <path id="Trazado_2095" data-name="Trazado 2095" d="M2470.693,1942.526s-17.872,33.072-3.805,40.243c14.067,7.189,26.8-16.317,26.8-16.317s2.944-17.231-3.019-22.207C2484.687,1939.27,2470.693,1942.526,2470.693,1942.526Z" transform="translate(-2370.581 -1917.206)" fill="url(#linear-gradient-14)"/>
          <path id="Trazado_2096" data-name="Trazado 2096" d="M2514.664,1895.793s-9.658,3.6-10.5,8.287c-.823,4.683,15.219,6.914,19.591,6.567l5.8,17.743s8.213-18.4,2.854-27.768C2527.066,1891.257,2514.664,1895.793,2514.664,1895.793Z" transform="translate(-2405.424 -1878.979)" fill="url(#linear-gradient-15)"/>
          <path id="Trazado_2097" data-name="Trazado 2097" d="M2613,2038.921s7.207-10.829,11.36-4.884-6.2,12.11-10.372,9.457Z" transform="translate(-2494.376 -1991.376)" fill="url(#linear-gradient-16)"/>
          <path id="Trazado_2098" data-name="Trazado 2098" d="M2703.955,2327.574s29.249,18.677,39.6,47.926-34.518,38.139-34.518,38.139-7.006-6.091-13.993-2.725-2.067-11.909,6.475-12.933c8.542-1.042,5.433,6.219,16.829-.768,11.085-6.8,16.3-24.2-16.865-45.4a13.71,13.71,0,0,1-4.646-4.9C2689.157,2332.952,2692.577,2322.744,2703.955,2327.574Z" transform="translate(-2558.698 -2231.683)" fill="url(#linear-gradient-17)"/>
        </g>
      </g>
    </g>
    <g id="Grupo_1279" data-name="Grupo 1279" transform="translate(489.192 725.261)">
      <circle id="Elipse_192" data-name="Elipse 192" cx="98.32" cy="98.32" r="98.32" transform="translate(22.996 21.35)" fill="#fff"/>
      <g id="Grupo_1273" data-name="Grupo 1273" transform="translate(0 0)">
        <path id="Trazado_2100" data-name="Trazado 2100" d="M626.3,2013.439l-.9,14.25a11.218,11.218,0,0,0,6.878,11.049l10.463,4.354a9.337,9.337,0,0,1,5.524,6.677,99.445,99.445,0,0,0,7.408,21.6,9.372,9.372,0,0,1-.274,8.67l-5.6,9.878a11.216,11.216,0,0,0,1.335,12.951l9.439,10.719a11.2,11.2,0,0,0,12.676,2.945l10.5-4.317a9.342,9.342,0,0,1,8.634.823A101.12,101.12,0,0,0,712.9,2123.1a9.335,9.335,0,0,1,5.927,6.329l3.018,10.939a11.232,11.232,0,0,0,10.1,8.213l14.25.9a11.218,11.218,0,0,0,11.048-6.878l4.354-10.463a9.337,9.337,0,0,1,6.677-5.524,99.434,99.434,0,0,0,21.6-7.409,9.374,9.374,0,0,1,8.671.274l9.878,5.6a11.216,11.216,0,0,0,12.951-1.335l10.719-9.439a11.2,11.2,0,0,0,2.945-12.676l-4.317-10.5a9.341,9.341,0,0,1,.823-8.634,101.131,101.131,0,0,0,10.061-20.505,9.335,9.335,0,0,1,6.329-5.927l10.939-3.018a11.233,11.233,0,0,0,8.213-10.1l.9-14.25a11.218,11.218,0,0,0-6.878-11.049l-10.463-4.354a9.337,9.337,0,0,1-5.524-6.677,99.424,99.424,0,0,0-7.408-21.6,9.373,9.373,0,0,1,.275-8.671l5.6-9.878a11.216,11.216,0,0,0-1.335-12.951l-9.439-10.719a11.2,11.2,0,0,0-12.676-2.945l-10.5,4.317a9.342,9.342,0,0,1-8.634-.823,101.149,101.149,0,0,0-20.505-10.061,9.335,9.335,0,0,1-5.927-6.329l-3.018-10.939a11.233,11.233,0,0,0-10.1-8.213l-14.25-.9a11.218,11.218,0,0,0-11.049,6.878l-4.354,10.463a9.338,9.338,0,0,1-6.677,5.524,99.446,99.446,0,0,0-21.6,7.408,9.373,9.373,0,0,1-8.671-.274l-9.878-5.6a11.216,11.216,0,0,0-12.951,1.336l-10.719,9.438a11.2,11.2,0,0,0-2.945,12.677l4.317,10.5a9.341,9.341,0,0,1-.823,8.634,101.138,101.138,0,0,0-10.061,20.505,9.335,9.335,0,0,1-6.329,5.927l-10.939,3.018A11.167,11.167,0,0,0,626.3,2013.439Zm38.4,1.171a83.113,83.113,0,1,1,68.468,95.54A83.133,83.133,0,0,1,664.7,2014.61Z" transform="translate(-625.384 -1906.884)" fill="url(#linear-gradient-18)"/>
      </g>
      <g id="Grupo_1278" data-name="Grupo 1278" transform="translate(8.145 11.257)">
        <g id="Grupo_1277" data-name="Grupo 1277" clip-path="url(#clip-path-2)">
          <path id="Trazado_2101" data-name="Trazado 2101" d="M1543.986,2807.9c4.829,3.9,10.646,5.378,17.451,1.866l3.091,6.987s-3.091,15.475-18.621,16.865a19.084,19.084,0,0,1-4.573-.165C1534.127,2822.26,1539.468,2812.967,1543.986,2807.9Z" transform="translate(-1379.048 -2654.342)" fill="url(#linear-gradient-19)"/>
          <path id="Trazado_2102" data-name="Trazado 2102" d="M1431.9,2665.958l7.408-44.157c.293.457,6.293,24.511,18.146,34.06-4.518,5.049-9.859,14.341-2.652,25.573C1442.253,2679.475,1431.9,2665.958,1431.9,2665.958Z" transform="translate(-1292.516 -2502.283)" fill="url(#linear-gradient-20)"/>
          <path id="Trazado_2103" data-name="Trazado 2103" d="M1098.49,2474.752s27.31-9.11,62.541-4.061c3.677.531,13.189,20.377,11.78,34.17-2.4,23.359-15.146,62.541-15.6,62.669-14.689,3.9-63.108.6-63.108.6Z" transform="translate(-1016.506 -2377.57)" fill="url(#linear-gradient-21)"/>
          <path id="Trazado_2104" data-name="Trazado 2104" d="M1265.3,2287.439l1.518,23.652a5.176,5.176,0,0,0,3.567,4.665c4.592,1.354,13.28,3,21.8-.421a3.375,3.375,0,0,0,1.829-4.152L1282.751,2275Z" transform="translate(-1156.39 -2218.921)" fill="url(#linear-gradient-22)"/>
          <g id="Grupo_1274" data-name="Grupo 1274" transform="translate(89.174 14.281)">
            <path id="Trazado_2105" data-name="Trazado 2105" d="M1249.115,2144.2s12.695,12.8,16.28,20.707,7.372,12.476-1.354,17.744-18.4,3.658-25.792-2.744c0,0-11.506-9.823-11.981-15.475S1249.115,2144.2,1249.115,2144.2Z" transform="translate(-1213.666 -2126.327)" fill="url(#linear-gradient-23)"/>
            <path id="Trazado_2106" data-name="Trazado 2106" d="M1182.941,2093.05l1.189-.458s-8.744-8.1-5.158-11.505c3.6-3.421,19.207-13.463,20.524-20.89,1.28-7.17-4.774-13.445-10.3-13.7a.691.691,0,0,0-.7.6l-.11.9a.684.684,0,0,1-1.225.329.678.678,0,0,0-1.207.274c-.421,2.232-2.323,6.33-9.86,10.994-10.7,6.6-16.518,14.231-13.609,22.28a.678.678,0,0,1-.786.9c-1.061-.183-2.506.091-3.732,2.341-2.14,3.9,1.848,10.3,10.994,13.28a.669.669,0,0,1,.366,1.024c-.933,1.317-2.067,3.988,3.8,4.7,6,.732,8.835-.714,9.841-1.427a.667.667,0,0,0,.219-.842l-3.183-6.9a.672.672,0,0,1,.366-.915Z" transform="translate(-1157.406 -2046.495)" fill="url(#linear-gradient-24)"/>
            <path id="Trazado_2107" data-name="Trazado 2107" d="M1255.277,2283.315s-6.384-8.853-9.713-4.372c-3.348,4.481,6.567,10.134,10.262,9.128Z" transform="translate(-1228.883 -2235.389)" fill="url(#linear-gradient-25)"/>
          </g>
          <g id="Grupo_1275" data-name="Grupo 1275" transform="translate(53.616 97.182)">
            <path id="Trazado_2108" data-name="Trazado 2108" d="M991.605,2567.729c-1.482-10.427,9.329-25.774,13.792-31.591a9.647,9.647,0,0,0,2.012-5.8c.128-14.78-6.073-24.255-16.006-30.64,0,0-36.072,42.036-26.89,74.357a26.745,26.745,0,0,0,4.482,9.055C970.423,2570.949,984.508,2568.3,991.605,2567.729Z" transform="translate(-963.017 -2499.7)" fill="url(#linear-gradient-26)"/>
            <path id="Trazado_2109" data-name="Trazado 2109" d="M1116.872,2724.487l-1.372-.164c1.17-10.225,10.134-22.865,13.957-27.823l1.1.842C1126.8,2702.225,1117.988,2714.609,1116.872,2724.487Z" transform="translate(-1087.608 -2660.501)" fill="#7d97f4"/>
            <path id="Trazado_2110" data-name="Trazado 2110" d="M1018.5,2873.045a9.582,9.582,0,0,1-.274-1.445c-7.1.567-21.182,3.22-22.627,15.4,16.1,21.292,60.474,13.609,60.474,13.609v-8.287S1022,2886,1018.5,2873.045Z" transform="translate(-989.64 -2803.572)" fill="url(#linear-gradient-27)"/>
          </g>
          <path id="Trazado_2111" data-name="Trazado 2111" d="M1302.9,2978.554s2.414-16.554,18.091-9.969c11.8,4.939,10.646,9.073,10.646,9.073Z" transform="translate(-1187.112 -2784.369)" fill="url(#linear-gradient-28)"/>
          <g id="Grupo_1276" data-name="Grupo 1276" transform="translate(151.413 111.781)">
            <path id="Trazado_2112" data-name="Trazado 2112" d="M1544.865,2622.561l-7.9,48.127a2.2,2.2,0,0,1-1.555,1.756c-3,.841-10.61,2.469-18.091-.092a2.993,2.993,0,0,1-1.957-2.341L1507,2621.5Z" transform="translate(-1505.291 -2613.819)" fill="#91b3fa"/>
            <path id="Trazado_2113" data-name="Trazado 2113" d="M1553.934,2585.013l-1.811-4.024a1.205,1.205,0,0,0-.969-.695c-3.512-.293-19.646-1.555-30.219-.092a1.846,1.846,0,0,0-1.427,1.1l-1.408,3.365Z" transform="translate(-1514.361 -2579.509)" fill="#7d97f4"/>
            <path id="Trazado_2114" data-name="Trazado 2114" d="M1538.641,2604.217l.329,3.311a1.429,1.429,0,0,1-1.335,1.592c-6.109.42-29.523,1.774-39.036-1.263a1.376,1.376,0,0,1-.9-1.646l.439-1.7a2.152,2.152,0,0,1,2.085-1.609l37.078.109A1.336,1.336,0,0,1,1538.641,2604.217Z" transform="translate(-1497.659 -2598.622)" fill="#91b3fa"/>
            <path id="Trazado_2115" data-name="Trazado 2115" d="M1547.412,2686.589s-21.676,3.475-33.713,0l-.183-1.061-.64.676a1.441,1.441,0,0,0-.366,1.226l3.531,19.207s15.182,3.64,28.865.238l3.421-19.444a1.874,1.874,0,0,0-.347-1.519l-.384-.512Z" transform="translate(-1509.777 -2666.03)" fill="#7d97f4"/>
            <path id="Trazado_2116" data-name="Trazado 2116" d="M1540.584,2719.713a.422.422,0,0,1-.4-.42l.329-17.56a.412.412,0,1,1,.823.018l-.329,17.56a.41.41,0,0,1-.421.4Zm-4.152-.055a.422.422,0,0,1-.4-.42l.329-17.378a.41.41,0,0,1,.421-.4.422.422,0,0,1,.4.42l-.329,17.377a.41.41,0,0,1-.421.4Zm8.3-.183a.423.423,0,0,1-.4-.421l.329-17.6a.389.389,0,0,1,.421-.4.41.41,0,0,1,.4.421l-.329,17.6a.41.41,0,0,1-.421.4Zm-13.225-.11a.422.422,0,0,1-.4-.421l.311-17.1a.449.449,0,0,1,.421-.4.422.422,0,0,1,.4.42l-.311,17.1a.435.435,0,0,1-.421.4Zm16.5-.292a.423.423,0,0,1-.4-.421l.384-17.523a.4.4,0,0,1,.421-.4.422.422,0,0,1,.4.42l-.384,17.524a.4.4,0,0,1-.421.4Zm-21.255-.7-1.244-16.975a.41.41,0,0,1,.384-.439.4.4,0,0,1,.439.384l1.244,16.975a.409.409,0,0,1-.384.439h-.036A.4.4,0,0,1,1526.755,2718.378Zm23.688.256a.4.4,0,0,1-.366-.439l1.482-17.524a.437.437,0,0,1,.439-.384.4.4,0,0,1,.366.439l-1.482,17.524a.415.415,0,0,1-.4.384Zm-26.926-.823-2.14-17.176a.414.414,0,0,1,.823-.092l2.14,17.177a.4.4,0,0,1-.366.457h-.055A.448.448,0,0,1,1523.517,2717.811Z" transform="translate(-1517.035 -2678.1)" fill="#fff"/>
          </g>
          <path id="Trazado_2117" data-name="Trazado 2117" d="M1653.04,2743.916s-6.677-4.116-11.1-1.006c-4.207,2.963,2.652,20.834,5.122,22.59C1649.546,2767.256,1657.978,2753.373,1653.04,2743.916Z" transform="translate(-1463.04 -2600.29)" fill="url(#linear-gradient-29)"/>
        </g>
      </g>
    </g>
    <g id="Grupo_1286" data-name="Grupo 1286" transform="translate(615.516 463.371)">
      <circle id="Elipse_193" data-name="Elipse 193" cx="91.827" cy="91.827" r="91.827" transform="translate(22.485 22.887)" fill="#fff"/>
      <g id="Grupo_1281" data-name="Grupo 1281" transform="translate(0)">
        <g id="Grupo_1280" data-name="Grupo 1280">
          <path id="Trazado_2119" data-name="Trazado 2119" d="M1536,566.094l-10.3-2.835a8.862,8.862,0,0,1-5.963-5.6,94.668,94.668,0,0,0-9.475-19.316,8.868,8.868,0,0,1-.768-8.14l4.079-9.9a10.55,10.55,0,0,0-2.78-11.945l-10.1-8.908a10.553,10.553,0,0,0-12.2-1.262l-9.292,5.286a8.849,8.849,0,0,1-8.177.256,95.919,95.919,0,0,0-20.359-6.988,8.857,8.857,0,0,1-6.292-5.213l-4.116-9.859a10.552,10.552,0,0,0-10.408-6.475l-13.426.841a10.565,10.565,0,0,0-9.53,7.738l-2.835,10.3a8.862,8.862,0,0,1-5.6,5.963,94.67,94.67,0,0,0-19.317,9.475,8.867,8.867,0,0,1-8.14.768l-9.9-4.079a10.55,10.55,0,0,0-11.945,2.78l-8.908,10.1a10.553,10.553,0,0,0-1.262,12.2l5.286,9.292a8.849,8.849,0,0,1,.256,8.177,95.919,95.919,0,0,0-6.988,20.359,8.858,8.858,0,0,1-5.213,6.292l-9.859,4.116A10.552,10.552,0,0,0,1316,589.929l.842,13.426a10.565,10.565,0,0,0,7.737,9.53l10.3,2.835a8.862,8.862,0,0,1,5.963,5.6,94.669,94.669,0,0,0,9.475,19.317,8.867,8.867,0,0,1,.768,8.14l-4.079,9.9a10.55,10.55,0,0,0,2.781,11.945l10.1,8.908a10.553,10.553,0,0,0,12.2,1.262l9.292-5.286a8.849,8.849,0,0,1,8.176-.256,95.924,95.924,0,0,0,20.359,6.988,8.858,8.858,0,0,1,6.292,5.213l4.116,9.859a10.552,10.552,0,0,0,10.408,6.475l13.427-.841a10.565,10.565,0,0,0,9.53-7.737l2.835-10.3a8.862,8.862,0,0,1,5.6-5.963,94.679,94.679,0,0,0,19.317-9.475,8.868,8.868,0,0,1,8.14-.768l9.9,4.079a10.55,10.55,0,0,0,11.945-2.781l8.908-10.1a10.554,10.554,0,0,0,1.262-12.2L1516.3,638.4a8.85,8.85,0,0,1-.256-8.177,95.924,95.924,0,0,0,6.988-20.359,8.857,8.857,0,0,1,5.213-6.292l9.859-4.116a10.552,10.552,0,0,0,6.475-10.408l-.841-13.427A10.551,10.551,0,0,0,1536,566.094Zm-92.943,100.643a78.314,78.314,0,1,1,64.5-90.034A78.322,78.322,0,0,1,1443.058,666.738Z" transform="translate(-1315.979 -475.178)" fill="url(#linear-gradient-30)"/>
        </g>
      </g>
      <g id="Grupo_1285" data-name="Grupo 1285" transform="translate(26.413 26.583)">
        <g id="Grupo_1284" data-name="Grupo 1284" clip-path="url(#clip-path-3)">
          <path id="Trazado_2120" data-name="Trazado 2120" d="M1926.334,1018.1s33.84,61.205,82.333,65.632l2.579,7.3s-66.821,13.042-101.046-42Z" transform="translate(-1827.917 -945.371)" fill="url(#linear-gradient-31)"/>
          <path id="Trazado_2121" data-name="Trazado 2121" d="M2441.015,1359.017a4.688,4.688,0,0,1,4.024-6.786h.512c5.707.219,11.487-.659,13.627-2.122a1.512,1.512,0,0,1,2.159.384c.585.952.128,2.579-5.286,4.939,0,0,11.963,4.665,21.6.092,9.384-4.464-4.171,19.17-32.743,7.829a6.251,6.251,0,0,1-3.293-3.055Z" transform="translate(-2261.235 -1216.412)" fill="url(#linear-gradient-32)"/>
          <path id="Trazado_2122" data-name="Trazado 2122" d="M1681.554,1084.306s31.371-85.955,6.677-105.473c0,0-37.023-5.982-63.931,4.244l3.073,78.821C1627.355,1061.88,1647.11,1096.616,1681.554,1084.306Z" transform="translate(-1594.314 -911.866)" fill="url(#linear-gradient-33)"/>
          <path id="Trazado_2123" data-name="Trazado 2123" d="M1783.525,792.909s-4.811,11.689-6.037,20.871a6.211,6.211,0,0,1-5.122,5.268c-5.744.951-15.274,1.482-21.073-3.8a4.351,4.351,0,0,1-1.134-4.665c2.4-6.677,14.8-34.517,21.566-38.779Z" transform="translate(-1696.943 -744.124)" fill="url(#linear-gradient-34)"/>
          <g id="Grupo_1282" data-name="Grupo 1282" transform="translate(9.577 71.193)">
            <path id="Trazado_2124" data-name="Trazado 2124" d="M1586.435,1356.8v.146c-.11,14.542,19.554,15.932,19.554,15.932s5.616-9.347,12.841-9.658c7.207-.311,17.231,11.451,17.231,11.451l-16.005,2.561s-30.53,18.31-51.456-3.439C1572.276,1360.239,1581.093,1357.294,1586.435,1356.8Z" transform="translate(-1558.38 -1293.308)" fill="url(#linear-gradient-35)"/>
            <path id="Trazado_2125" data-name="Trazado 2125" d="M1533.12,1009.7c19.829,7.024,16.957,22.609,16.957,22.609s-9.146,26.3-9.311,40.883c-5.323.494-14.14,3.439-17.835,16.993-.494-.512-.988-1.043-1.482-1.61C1496.463,1059.6,1533.12,1009.7,1533.12,1009.7Z" transform="translate(-1512.73 -1009.7)" fill="url(#linear-gradient-36)"/>
            <path id="Trazado_2126" data-name="Trazado 2126" d="M1662.665,1185.982a.773.773,0,0,0,.768-.768c.128-11.341,5.78-29.926,8.195-37.407a.769.769,0,1,0-1.463-.476c-2.451,7.536-8.14,26.322-8.268,37.865a.755.755,0,0,0,.769.787Z" transform="translate(-1634.61 -1121.722)" fill="url(#linear-gradient-37)"/>
          </g>
          <g id="Grupo_1283" data-name="Grupo 1283" transform="translate(65.194 -0.669)">
            <path id="Trazado_2127" data-name="Trazado 2127" d="M1902.693,692.691c0,.585-12.987,36.767-12.987,36.767l-20.506-7.847,7.207-36.127S1902.693,682.96,1902.693,692.691Z" transform="translate(-1859.611 -672.688)" fill="url(#linear-gradient-38)"/>
            <path id="Trazado_2128" data-name="Trazado 2128" d="M1840.436,638.44l-5.287,18.713a2.442,2.442,0,0,0-.11.732c0,1.518.384,6.786,5.726,6.073,4.847-.64,9.292-1.171,12.128.165a2.747,2.747,0,0,1,1.408,3.384,118.457,118.457,0,0,1-7.39,16.664,2.713,2.713,0,0,1-3.494,1.116c-3.86-1.756-11.872-5.671-17.579-10.335a2.751,2.751,0,0,1-.969-2.616c.9-4.793,3.567-19.353,3.695-23.524.11-3.915-4.28-6.915-6.219-8.03a2.676,2.676,0,0,1-1.262-1.683c-.6-2.524-1.116-8.232,6.165-9.494a2.724,2.724,0,0,0,2.213-3.238c-.622-3.018-.421-7.463,5.3-9.091,5.817-1.665,9.475,1.848,11.341,4.536a2.708,2.708,0,0,0,3.366.9,2.127,2.127,0,0,1,2.415.439,2.669,2.669,0,0,0,3.915-.6c1.7-2.506,4.774-4.994,10.006-3.311,9.256,3,8.817,13.682,5.433,19.481-3.4,5.8-13.262,1.994-17.927-1.866-3.549-2.927-8.945-1.171-11.341-.165A2.722,2.722,0,0,0,1840.436,638.44Z" transform="translate(-1820.036 -616.845)" fill="url(#linear-gradient-39)"/>
            <path id="Trazado_2129" data-name="Trazado 2129" d="M1824.484,760.652s4.445-10.5.823-13.756-8.689-2.14-8.524,5.963C1817,762.939,1824.484,760.652,1824.484,760.652Z" transform="translate(-1816.779 -721.716)" fill="url(#linear-gradient-40)"/>
          </g>
        </g>
      </g>
    </g>
  </g>
</svg>
