<svg xmlns="http://www.w3.org/2000/svg" xmlns:xlink="http://www.w3.org/1999/xlink" width="513.533" height="511.345" viewBox="0 0 513.533 511.345">
  <defs>
    <linearGradient id="linear-gradient" x1="0.5" x2="0.5" y2="1" gradientUnits="objectBoundingBox">
      <stop offset="0" stop-color="#b37cff"/>
      <stop offset="1" stop-color="#f895e7"/>
    </linearGradient>
    <linearGradient id="linear-gradient-2" x1="0.845" y1="1.456" x2="0.188" y2="-0.243" gradientUnits="objectBoundingBox">
      <stop offset="0" stop-color="#311944"/>
      <stop offset="1" stop-color="#a03976"/>
    </linearGradient>
    <linearGradient id="linear-gradient-3" x1="0" y1="0.5" x2="1" y2="0.5" xlink:href="#linear-gradient-2"/>
    <linearGradient id="linear-gradient-4" x1="0" y1="0.5" x2="1" y2="0.5" xlink:href="#linear-gradient-2"/>
    <linearGradient id="linear-gradient-5" x1="0.664" y1="0.185" x2="0.119" y2="1.028" gradientUnits="objectBoundingBox">
      <stop offset="0" stop-color="#ff9085"/>
      <stop offset="1" stop-color="#fb6fbb"/>
    </linearGradient>
    <linearGradient id="linear-gradient-6" x1="0.522" y1="3.123" x2="0.562" y2="7.667" gradientUnits="objectBoundingBox">
      <stop offset="0" stop-color="#ffc444"/>
      <stop offset="1" stop-color="#f36f56"/>
    </linearGradient>
    <linearGradient id="linear-gradient-7" x1="14.518" y1="-6.412" x2="14.145" y2="-6.062" gradientUnits="objectBoundingBox">
      <stop offset="0" stop-color="#aa80f9"/>
      <stop offset="1" stop-color="#6165d7"/>
    </linearGradient>
    <linearGradient id="linear-gradient-8" x1="15.077" y1="-5.391" x2="15.857" y2="-6.296" xlink:href="#linear-gradient-7"/>
    <linearGradient id="linear-gradient-9" x1="159.842" y1="-5.585" x2="161.23" y2="-5.63" gradientUnits="objectBoundingBox">
      <stop offset="0" stop-color="#444b8c"/>
      <stop offset="1" stop-color="#3e4177"/>
    </linearGradient>
    <linearGradient id="linear-gradient-10" x1="15.848" y1="-5.994" x2="15.444" y2="-5.723" xlink:href="#linear-gradient-7"/>
    <linearGradient id="linear-gradient-11" x1="27.226" y1="-10.731" x2="28.13" y2="-10.731" gradientUnits="objectBoundingBox">
      <stop offset="0" stop-color="#6165d7"/>
      <stop offset="1" stop-color="#aa80f9"/>
    </linearGradient>
    <linearGradient id="linear-gradient-12" x1="0.199" y1="1.415" x2="1.261" y2="-1.204" xlink:href="#linear-gradient-6"/>
    <linearGradient id="linear-gradient-13" x1="-22.246" y1="-11.016" x2="-18.637" y2="-12.993" xlink:href="#linear-gradient-6"/>
    <linearGradient id="linear-gradient-14" x1="1.235" y1="-0.072" x2="0.317" y2="0.788" xlink:href="#linear-gradient-5"/>
    <linearGradient id="linear-gradient-15" x1="1.182" y1="-0.233" x2="0.064" y2="0.94" xlink:href="#linear-gradient-5"/>
    <linearGradient id="linear-gradient-16" x1="12.707" y1="-3.826" x2="13.094" y2="-4.898" xlink:href="#linear-gradient-7"/>
    <linearGradient id="linear-gradient-17" x1="15.194" y1="-8.806" x2="15.095" y2="-8.161" xlink:href="#linear-gradient-7"/>
    <linearGradient id="linear-gradient-18" x1="15.196" y1="-10.6" x2="15.097" y2="-9.836" xlink:href="#linear-gradient-7"/>
    <linearGradient id="linear-gradient-19" x1="14.57" y1="-5.284" x2="15.474" y2="-5.284" xlink:href="#linear-gradient-7"/>
    <linearGradient id="linear-gradient-20" x1="14.741" y1="-5.18" x2="14.015" y2="-4.941" xlink:href="#linear-gradient-7"/>
    <linearGradient id="linear-gradient-21" x1="13.494" y1="-5.683" x2="14.417" y2="-5.683" xlink:href="#linear-gradient-7"/>
    <linearGradient id="linear-gradient-22" x1="21.992" y1="-8.137" x2="22.897" y2="-8.137" xlink:href="#linear-gradient-7"/>
    <linearGradient id="linear-gradient-23" x1="0.196" y1="0.386" x2="1.222" y2="0.951" xlink:href="#linear-gradient-6"/>
    <linearGradient id="linear-gradient-24" x1="0" y1="0.5" x2="1" y2="0.5" xlink:href="#linear-gradient-6"/>
    <linearGradient id="linear-gradient-25" x1="0.537" y1="0.486" x2="2.152" y2="1.096" xlink:href="#linear-gradient-6"/>
    <linearGradient id="linear-gradient-26" x1="0.933" y1="0.5" x2="0.942" y2="0.5" xlink:href="#linear-gradient-6"/>
    <linearGradient id="linear-gradient-27" x1="0.775" y1="0.928" x2="0.14" y2="-0.379" xlink:href="#linear-gradient-2"/>
    <linearGradient id="linear-gradient-28" x1="7.758" y1="-1.327" x2="7.359" y2="-0.983" xlink:href="#linear-gradient-7"/>
    <linearGradient id="linear-gradient-29" x1="7.917" y1="-0.671" x2="8.765" y2="-1.556" xlink:href="#linear-gradient-7"/>
    <linearGradient id="linear-gradient-30" x1="78.51" y1="-1.028" x2="79.899" y2="-1.073" xlink:href="#linear-gradient-9"/>
    <linearGradient id="linear-gradient-31" x1="4.676" y1="-3.045" x2="4.453" y2="-2.515" xlink:href="#linear-gradient-7"/>
    <linearGradient id="linear-gradient-32" x1="14.047" y1="-2.057" x2="15.03" y2="-2.057" xlink:href="#linear-gradient-11"/>
    <linearGradient id="linear-gradient-33" x1="20.563" y1="-17.238" x2="20.563" y2="-17.247" xlink:href="#linear-gradient-2"/>
    <linearGradient id="linear-gradient-34" x1="-40.134" y1="-14.758" x2="-40.134" y2="-14.77" xlink:href="#linear-gradient-6"/>
    <linearGradient id="linear-gradient-35" x1="27.902" y1="-20.677" x2="27.902" y2="-20.688" xlink:href="#linear-gradient-2"/>
    <linearGradient id="linear-gradient-36" x1="103.82" y1="-251.499" x2="103.82" y2="-251.626" xlink:href="#linear-gradient-6"/>
    <linearGradient id="linear-gradient-37" x1="2.788" y1="-3.414" x2="3.098" y2="-4.445" xlink:href="#linear-gradient-7"/>
    <linearGradient id="linear-gradient-38" x1="3.325" y1="-8.671" x2="3.248" y2="-7.998" xlink:href="#linear-gradient-7"/>
    <linearGradient id="linear-gradient-39" x1="4.06" y1="-2.03" x2="4.557" y2="-2.03" xlink:href="#linear-gradient-7"/>
    <linearGradient id="linear-gradient-40" x1="7.738" y1="-0.668" x2="6.949" y2="-0.435" xlink:href="#linear-gradient-7"/>
    <linearGradient id="linear-gradient-41" x1="6.876" y1="-0.858" x2="7.861" y2="-0.858" xlink:href="#linear-gradient-7"/>
    <linearGradient id="linear-gradient-42" x1="11.402" y1="-1.362" x2="12.385" y2="-1.362" xlink:href="#linear-gradient-7"/>
    <linearGradient id="linear-gradient-43" y1="0.5" x2="1" y2="0.5" gradientUnits="objectBoundingBox">
      <stop offset="0" stop-color="#444b8c"/>
      <stop offset="1" stop-color="#26264f"/>
    </linearGradient>
    <linearGradient id="linear-gradient-44" x1="0.309" y1="1.352" x2="0.635" y2="0.214" xlink:href="#linear-gradient-2"/>
    <linearGradient id="linear-gradient-45" x1="0.322" y1="1.354" x2="0.675" y2="0.195" xlink:href="#linear-gradient-2"/>
    <linearGradient id="linear-gradient-46" x1="0.052" y1="1.329" x2="0.603" y2="0.087" xlink:href="#linear-gradient-2"/>
    <linearGradient id="linear-gradient-47" x1="0" y1="0.5" x2="1" y2="0.5" xlink:href="#linear-gradient-6"/>
    <linearGradient id="linear-gradient-49" x1="-7.953" y1="1.066" x2="-8.339" y2="1.413" xlink:href="#linear-gradient-7"/>
    <linearGradient id="linear-gradient-50" x1="-9.225" y1="1.519" x2="-8.411" y2="0.625" xlink:href="#linear-gradient-7"/>
    <linearGradient id="linear-gradient-51" x1="-90.87" y1="1.136" x2="-89.481" y2="1.091" xlink:href="#linear-gradient-9"/>
    <linearGradient id="linear-gradient-52" x1="-8.415" y1="0.901" x2="-8.838" y2="1.169" xlink:href="#linear-gradient-7"/>
    <linearGradient id="linear-gradient-53" x1="-17.479" y1="1.94" x2="-16.534" y2="1.94" xlink:href="#linear-gradient-11"/>
    <linearGradient id="linear-gradient-54" x1="0.839" y1="1.659" x2="0.375" y2="0.139" gradientUnits="objectBoundingBox">
      <stop offset="0" stop-color="#311944"/>
      <stop offset="1" stop-color="#6b3976"/>
    </linearGradient>
    <linearGradient id="linear-gradient-55" x1="25.623" y1="-14.093" x2="25.59" y2="-10.942" xlink:href="#linear-gradient-6"/>
    <linearGradient id="linear-gradient-56" x1="-3.318" y1="-0.483" x2="-3.008" y2="-1.424" xlink:href="#linear-gradient-7"/>
    <linearGradient id="linear-gradient-57" x1="-3.594" y1="-2.855" x2="-3.671" y2="-2.264" xlink:href="#linear-gradient-7"/>
    <linearGradient id="linear-gradient-58" x1="-3.594" y1="-3.459" x2="-3.671" y2="-2.774" xlink:href="#linear-gradient-7"/>
    <linearGradient id="linear-gradient-59" x1="-9.423" y1="1.059" x2="-8.479" y2="1.059" xlink:href="#linear-gradient-7"/>
    <linearGradient id="linear-gradient-60" x1="-9.241" y1="1.139" x2="-9.999" y2="1.375" xlink:href="#linear-gradient-7"/>
    <linearGradient id="linear-gradient-61" x1="-8.683" y1="1.075" x2="-7.729" y2="1.075" xlink:href="#linear-gradient-7"/>
    <linearGradient id="linear-gradient-62" x1="-14.288" y1="1.25" x2="-13.343" y2="1.25" xlink:href="#linear-gradient-7"/>
    <linearGradient id="linear-gradient-63" x1="-2.54" y1="0.186" x2="-3.061" y2="1.002" xlink:href="#linear-gradient-7"/>
    <linearGradient id="linear-gradient-64" x1="-3.288" y1="0.5" x2="-2.288" y2="0.5" xlink:href="#linear-gradient-7"/>
    <linearGradient id="linear-gradient-65" x1="-9.676" y1="-0.031" x2="-10.593" y2="1.058" xlink:href="#linear-gradient-7"/>
    <linearGradient id="linear-gradient-66" x1="-10.913" y1="0.126" x2="-11.576" y2="1.57" xlink:href="#linear-gradient-7"/>
    <linearGradient id="linear-gradient-67" x1="-4.255" y1="0.5" x2="-3.255" y2="0.5" xlink:href="#linear-gradient-7"/>
    <linearGradient id="linear-gradient-68" x1="-3.617" y1="0.186" x2="-4.138" y2="1.002" xlink:href="#linear-gradient-7"/>
    <linearGradient id="linear-gradient-69" x1="-4.386" y1="0.5" x2="-3.386" y2="0.5" xlink:href="#linear-gradient-7"/>
    <linearGradient id="linear-gradient-70" x1="-13.359" y1="-0.031" x2="-14.276" y2="1.058" xlink:href="#linear-gradient-7"/>
    <linearGradient id="linear-gradient-71" x1="-14.594" y1="0.126" x2="-15.257" y2="1.57" xlink:href="#linear-gradient-7"/>
    <linearGradient id="linear-gradient-72" x1="-1.062" y1="0.5" x2="-0.062" y2="0.5" xlink:href="#linear-gradient-7"/>
    <linearGradient id="linear-gradient-73" x1="-0.396" y1="0.186" x2="-0.917" y2="1.002" xlink:href="#linear-gradient-7"/>
    <linearGradient id="linear-gradient-74" x1="-1.103" y1="0.5" x2="-0.103" y2="0.5" xlink:href="#linear-gradient-7"/>
    <linearGradient id="linear-gradient-75" x1="-2.343" y1="-0.031" x2="-3.26" y2="1.058" xlink:href="#linear-gradient-7"/>
    <linearGradient id="linear-gradient-76" x1="-3.585" y1="0.126" x2="-4.248" y2="1.57" xlink:href="#linear-gradient-7"/>
  </defs>
  <g id="como_funcionaTRC" data-name="como funcionaTRC" transform="translate(0.001 0.004)" style="mix-blend-mode: normal;isolation: isolate">
    <g id="b" transform="translate(-0.001 -0.004)">
      <g id="c">
        <g id="Grupo_1726" data-name="Grupo 1726">
          <path id="Trazado_3146" data-name="Trazado 3146" d="M177.652,11.139c-26.232-8-62.857-19.157-78.033-2.518-23.714,26,25.432,97.426,6.193,113.331-16.23,13.417-55.864-33.559-80.037-22.516-38.283,17.488-41.744,182.306,44.116,289.473,87.919,109.735,275.117,166.041,375.3,81.85,74.872-62.921,69.15-177.426,67.571-209.033C506.109,128.64,416.868,10.087,378.305,19.954c-22.808,5.835-14.641,53.205-44.48,63.978-34.9,12.6-65.558-45.176-156.176-72.792Z" transform="translate(0.001 0.004)" opacity="0.419" fill="url(#linear-gradient)"/>
          <g id="Grupo_1707" data-name="Grupo 1707" transform="translate(211.12 15.587)">
            <path id="Trazado_3147" data-name="Trazado 3147" d="M1328.478,198.152c6.784-4.025,12.36-12.528,11.334-20.147-.882-6.542-5.837-6.547-8.815-14.69-3.711-10.147,2.476-14.257-.84-23.925-2.641-7.7-10.088-15.366-18.049-15.95-9.02-.663-11.876,8.264-18.5,7.133-9.8-1.675-6.845-21.763-21.694-34.534-11.076-9.526-29.046-12.389-36.616-5.758-5.431,4.757-3.4,12.552-7.555,13.852-6.054,1.89-11.31-14.33-22.7-17.974-15.532-4.969-42.164,13.54-47.814,36.024-8.22,32.7,28.369,72.187,57.924,73.035,19,.544,27.37-15.092,49.529-10.494,11,2.283,12.329,6.837,31.9,12.172,22.768,6.207,29.863,2.469,31.9,1.26Z" transform="translate(-1156.047 -85.345)" fill="url(#linear-gradient-2)"/>
            <path id="Trazado_3148" data-name="Trazado 3148" d="M1309.582,184.7c-10.26-7.294-24.718,9.763-40.716,4.2-15.359-5.344-11.074-24.21-26.864-37.357-24.3-20.231-62.357,1.216-70.516-11.334-3.254-5.006-1.467-14.99,14.184-35.372-12.475,5.974-24.817,18.794-28.456,33.272-8.22,32.7,28.369,72.187,57.924,73.035,19,.544,27.37-15.092,49.529-10.493,11,2.283,12.329,6.837,31.9,12.172,14.411,3.928,22.538,3.872,27.081,3a14.964,14.964,0,0,1-3.576-2.575c-8.455-8.287-1.983-22.492-10.494-28.542Z" transform="translate(-1156.039 -101.272)" fill="url(#linear-gradient-3)"/>
            <path id="Trazado_3149" data-name="Trazado 3149" d="M1736.846,1384.216s-4.514,3.188-1.74,6.152,22.291,10.744,24.5,8.585-2.975-22.116-22.753-14.736Z" transform="translate(-1628.618 -1145.681)" fill="url(#linear-gradient-4)"/>
            <path id="Trazado_3150" data-name="Trazado 3150" d="M1667.211,844.493a23.508,23.508,0,0,1-6.876-8.163c-5.893-11.995-1.485-23.363,1.569-39.339,5.789-30.286-3.53-32.918,3.463-44.388,12.121-19.882,46.943-23.164,70.1-17.172a78.36,78.36,0,0,1,24.886,11.606c9.7,6.578,27.028,18.093,29.921,36.534,4.834,30.832-26.831,58.721-34.766,55.4-1.766-.74-2.3-3-2.938-5.877-4.177-18.818,12.38-31.2,8.815-41.554-1.64-4.765-8.008-10.439-31.061-12.172-7.82,11.3-14.942,26.172-11.752,41.554,2.507,12.1,8.667,8.708,6.536,15.5-4.031,12.855-40.4,21.754-57.893,8.07Z" transform="translate(-1565.866 -614.507)" fill="url(#linear-gradient-5)"/>
            <path id="Trazado_3151" data-name="Trazado 3151" d="M1724.15,1357.582s7.734-7.566,14.418-5.884c4.248,1.068,7.226,6.589,8.833,10.47a1.869,1.869,0,0,1-2.478,2.423,32.315,32.315,0,0,1-4.675-2.507c-3.831-2.535-11.691,1.382-16.1-4.5Z" transform="translate(-1620.4 -1120.233)" fill="url(#linear-gradient-6)"/>
            <g id="Grupo_1702" data-name="Grupo 1702" transform="translate(170.136 104.578)">
              <path id="Trazado_3152" data-name="Trazado 3152" d="M2107.038,664.172l.754.212c3.108.873,4.674,4.982,3.494,9.179l-.066.236c-1.18,4.195-4.655,6.889-7.763,6.016l-.754-.212c-1.569-.44-1.868-4.251-.672-8.512s3.439-7.356,5.008-6.916Z" transform="translate(-2098.808 -663.01)" fill="url(#linear-gradient-7)"/>
              <path id="Trazado_3153" data-name="Trazado 3153" d="M2092.741,666.524c-1.311,4.662-.555,8.954,1.761,9.6s5.318-2.584,6.627-7.248.433-8.989-1.883-9.639-5.2,2.619-6.505,7.281Z" transform="translate(-2091.29 -658.945)" fill="url(#linear-gradient-8)"/>
              <rect id="Rectángulo_689" data-name="Rectángulo 689" width="0.919" height="17.541" transform="translate(7.21 0.059) rotate(15.69)" fill="url(#linear-gradient-9)"/>
              <path id="Trazado_3154" data-name="Trazado 3154" d="M2088.289,665.334c-1.311,4.662-.495,8.97,1.823,9.622s5.256-2.6,6.567-7.265.495-8.97-1.823-9.622S2089.6,660.672,2088.289,665.334Z" transform="translate(-2087.664 -657.987)" fill="url(#linear-gradient-10)"/>
              <path id="Trazado_3155" data-name="Trazado 3155" d="M2100.049,683.288c-.712,2.535-.269,4.878.99,5.232s2.858-1.415,3.571-3.95.268-4.878-.99-5.232S2100.761,680.753,2100.049,683.288Z" transform="translate(-2097.51 -675.402)" opacity="0.6" fill="url(#linear-gradient-11)"/>
            </g>
            <path id="Trazado_3156" data-name="Trazado 3156" d="M1953.591,699.622c-2.6-1.638-6.169-5.541-3.483-14.031l-6.1-5.921s-4.345,8.881-11.752,14.243a19.128,19.128,0,0,1-7.583,3.05,3.411,3.411,0,0,0-1.2,6.185c5.347,3.561,12.747,7.825,18.038,8.222,6.355.477,10.769-4.788,12.9-8.107a2.634,2.634,0,0,0-.816-3.643Z" transform="translate(-1782.073 -571.132)" fill="url(#linear-gradient-12)"/>
            <path id="Trazado_3157" data-name="Trazado 3157" d="M2014.5,643.17s.272,7.853,7.763,9.728c6.71,1.68,12.906-14.389,9.71-18.865a9.12,9.12,0,0,0-6.322-3.121c-1.748-.066-7.789,1.79-9,7.632-1.092-1.315-2.531-1.766-3.285-1.295-.959.6-.594,2.539-.513,2.977a5.509,5.509,0,0,0,1.649,2.942Z" transform="translate(-1856.27 -531.278)" fill="url(#linear-gradient-13)"/>
            <path id="Trazado_3158" data-name="Trazado 3158" d="M1467.96,867.422c-.124.778-2.737,2.982-2.737,2.982s-54.9-14.469-57.751-48.167,57.318-60.326,73.7-67.587-9.443,46.682-9.443,46.682-18.973,5.345-25.722,17.683,21.957,48.406,21.957,48.406Z" transform="translate(-1361.474 -631.87)" fill="url(#linear-gradient-14)"/>
            <path id="Trazado_3159" data-name="Trazado 3159" d="M1699.366,981.618c-8.333-9.538-1.519-21.082-11.962-35.259-6.392-8.675-11.447-7.75-17.945-17a43.629,43.629,0,0,1-6.487-14.268c.729,6,2.117,14.288-1.068,30.953-3.053,15.974-7.462,27.344-1.569,39.339a23.562,23.562,0,0,0,6.876,8.163c15.455,12.09,45.645,6.551,55.247-3.771-12.924-.148-19.486-4.029-23.091-8.156Z" transform="translate(-1565.866 -763.559)" fill="url(#linear-gradient-15)"/>
            <g id="Grupo_1704" data-name="Grupo 1704" transform="translate(160.097 92.603)">
              <path id="Trazado_3160" data-name="Trazado 3160" d="M2033.45,606.824l-.76-.223.727-2.517c1.253-4.341,5.07-7.108,8.693-6.3l3.877.864a6.77,6.77,0,0,1,4.651,3.939,10.144,10.144,0,0,1,.448,7.013l-.566,2.016-.762-.214.566-2.016a9.073,9.073,0,0,0-.4-6.275,6.058,6.058,0,0,0-4.162-3.525l-3.877-.866c-3.212-.716-6.6,1.737-7.707,5.585l-.727,2.516Z" transform="translate(-2032.69 -596.69)" fill="url(#linear-gradient-16)"/>
              <g id="Grupo_1703" data-name="Grupo 1703" transform="translate(3.158)">
                <path id="Trazado_3161" data-name="Trazado 3161" d="M2064.25,600.466a1.1,1.1,0,0,1-.716-.69,5.476,5.476,0,0,0-3.85-3.526l-3.877-.866a5.009,5.009,0,0,0-4.047.942,1.045,1.045,0,0,1-1.627-.418,1.675,1.675,0,0,1,.524-1.976,7.211,7.211,0,0,1,5.829-1.359l3.877.864a7.65,7.65,0,0,1,5.385,4.933,1.677,1.677,0,0,1-.625,1.947,1.076,1.076,0,0,1-.873.148Z" transform="translate(-2049.997 -592.417)" fill="url(#linear-gradient-17)"/>
                <path id="Trazado_3162" data-name="Trazado 3162" d="M2063.42,602.794c-2.529-1.784-2.288-2.7-3.736-3.185-2.708-.9-4.7,1.93-7.258.763a4.068,4.068,0,0,1-1.4-1.092c-.13.084-.259.172-.387.265a1.678,1.678,0,0,0-.524,1.976,1.045,1.045,0,0,0,1.627.418,5,5,0,0,1,4.047-.942l3.877.866a5.473,5.473,0,0,1,3.85,3.526,1.1,1.1,0,0,0,.716.69,1.075,1.075,0,0,0,.873-.148,1.681,1.681,0,0,0,.687-1.75,15.941,15.941,0,0,1-2.374-1.386Z" transform="translate(-2049.984 -598.027)" fill="url(#linear-gradient-18)"/>
              </g>
            </g>
            <g id="Grupo_1706" data-name="Grupo 1706" transform="translate(150.678 98.857)">
              <g id="Grupo_1705" data-name="Grupo 1705">
                <path id="Trazado_3163" data-name="Trazado 3163" d="M2011.126,637.754c-1.324,4.715-4.3,8-6.64,7.345s-3.167-5.013-1.843-9.728,4.3-8,6.64-7.345S2012.45,633.038,2011.126,637.754Z" transform="translate(-1998.195 -627.708)" fill="url(#linear-gradient-19)"/>
                <path id="Trazado_3164" data-name="Trazado 3164" d="M2006.569,636.474c-1.324,4.715-4.3,8-6.64,7.345s-3.167-5.013-1.841-9.728,4.3-8,6.64-7.345,3.167,5.013,1.843,9.728Z" transform="translate(-1994.471 -626.662)" fill="url(#linear-gradient-20)"/>
                <path id="Trazado_3165" data-name="Trazado 3165" d="M1990.191,627.958l-.763-.214c-3.143-.884-6.656,1.839-7.849,6.081l-.068.237c-1.193,4.242.389,8.4,3.532,9.279l.763.214c1.585.446,3.851-2.685,5.062-6.993s.906-8.16-.679-8.605Z" transform="translate(-1981.113 -627.411)" fill="url(#linear-gradient-21)"/>
              </g>
              <path id="Trazado_3166" data-name="Trazado 3166" d="M1987.406,641.439c-.873,3.108-2.838,5.276-4.385,4.841s-2.095-3.309-1.222-6.417,2.838-5.276,4.385-4.841S1988.279,638.331,1987.406,641.439Z" transform="translate(-1981.334 -633.45)" fill="url(#linear-gradient-22)"/>
            </g>
          </g>
          <g id="Grupo_1714" data-name="Grupo 1714" transform="translate(153 272.567)">
            <path id="Trazado_3167" data-name="Trazado 3167" d="M1192.7,1874.492c7.511-5.219,23.447-17.921,30.536-39.666,11.239-34.47-5.017-75.5-36.833-94.758-37.708-22.821-78.484-3.68-83.424-1.26-28.21,13.824-40.007,38.289-46.591,51.943-11.564,23.98-27.487,75.4-4.093,95.386,13.693,11.7,35.332,7.918,60.764,3.475,25.732-4.5,32.332-12.835,33.994-15.123,6.321-8.7,3.36-15.434,5.957-30.548,4.2-24.466,19.632-51.469,31.356-50.612,9.551.7,16.443,19.871,17.694,33.027,2.135,22.432-11.023,38.955-14.528,43.1l5.167,5.033Z" transform="translate(-1003.285 -1685.808)" fill="url(#linear-gradient-23)"/>
            <path id="Trazado_3168" data-name="Trazado 3168" d="M1132.18,2048.825c-10.251-16.217,22.1-44.88,13.536-57.611-6.041-8.983-29.631-5.836-45.647,2.519-28.9,15.074-36.583,48.892-39.352,61.073a114.868,114.868,0,0,0-2.8,28.5,31.229,31.229,0,0,0,8.777,12.74c13.693,11.7,35.332,7.918,60.764,3.475,25.732-4.5,32.332-12.835,33.994-15.123.166-.228.321-.453.473-.677-.062-8.468-2.007-16.378-7.4-21.988-8.015-8.34-17.47-5.183-22.351-12.908Z" transform="translate(-1017.689 -1895.715)" fill="url(#linear-gradient-24)"/>
            <path id="Trazado_3169" data-name="Trazado 3169" d="M951.721,1920.285s-54.53,4.31-43.51-36.086,48.1-71.152,48.1-71.152l-18.827-30.317s-88.11,40.61-98.989,106.089,107.147,42.738,107.147,42.738l6.076-11.273Z" transform="translate(-837.791 -1729.729)" fill="url(#linear-gradient-25)"/>
            <path id="Trazado_3170" data-name="Trazado 3170" d="M1462.413,2526.382s-3.315-11.091-8.472-13.629-19.572,3.74-19.572,3.74-6.467,9.027-6.076,11.273,12.013,2.767,16.091-1.384,9.659-4.724,12.066-1.16,5.964,1.16,5.964,1.16Z" transform="translate(-1320.44 -2325.938)" fill="url(#linear-gradient-26)"/>
            <path id="Trazado_3171" data-name="Trazado 3171" d="M1454.44,2515.207l24.548,12.446,96.368-30.067-.259-4.988-30.337-2.058-89.005,18.556Z" transform="translate(-1341.826 -2308.276)" fill="url(#linear-gradient-27)"/>
            <path id="Trazado_3172" data-name="Trazado 3172" d="M1488.731,1630.7l-5.654,12.134a9.688,9.688,0,0,1-6.016,5.192l-15.432,4.593s33.729,14.555,34.355,13.925,15.353-15.158,15.353-15.158l-5.046-1.833a8.153,8.153,0,0,1-5.353-7.157l-.579-9.328-11.631-2.367Z" transform="translate(-1347.703 -1605.463)"/>
            <g id="Grupo_1713" data-name="Grupo 1713" transform="translate(129.198)">
              <g id="Grupo_1708" data-name="Grupo 1708" transform="translate(27.732 14.295)">
                <path id="Trazado_3173" data-name="Trazado 3173" d="M1726.044,1580.057l.981.1c4.036.431,6.836,5.2,6.255,10.643l-.033.3c-.583,5.448-4.326,9.513-8.362,9.082l-.981-.1c-2.036-.217-3.207-4.878-2.617-10.409s2.721-9.84,4.757-9.622Z" transform="translate(-1716.745 -1578.356)" fill="url(#linear-gradient-28)"/>
                <path id="Trazado_3174" data-name="Trazado 3174" d="M1708.8,1584.879c-.646,6.054,1.187,11.215,4.195,11.536s6.05-4.317,6.7-10.373-1.346-11.231-4.354-11.553S1709.447,1578.825,1708.8,1584.879Z" transform="translate(-1706.558 -1573.8)" fill="url(#linear-gradient-29)"/>
                <rect id="Rectángulo_690" data-name="Rectángulo 690" width="1.154" height="22.05" transform="matrix(0.994, 0.106, -0.106, 0.994, 7.787, 0.584)" fill="url(#linear-gradient-30)"/>
                <ellipse id="Elipse_226" data-name="Elipse 226" cx="11.025" cy="5.477" rx="11.025" ry="5.477" transform="matrix(0.106, -0.994, 0.994, 0.106, 0, 21.925)" fill="url(#linear-gradient-31)"/>
                <path id="Trazado_3175" data-name="Trazado 3175" d="M1716.813,1606.966c-.352,3.293.688,6.1,2.325,6.277s3.247-2.352,3.6-5.645-.688-6.1-2.325-6.277S1717.164,1603.674,1716.813,1606.966Z" transform="translate(-1713.157 -1595.738)" opacity="0.6" fill="url(#linear-gradient-32)"/>
              </g>
              <path id="Trazado_3176" data-name="Trazado 3176" d="M1611.941,1524.572a11.746,11.746,0,0,0,4.213-13.2c-1.52-4.167-5.48-6.087-7.849-7.237-6.852-3.324-16.792-3.607-22.054,1.658-3.112,3.115-1.777,12.369-1.629,14,.168,1.844,1.264,2.849,2.042,4.478,1.077,2.259,2.752,5.839,5.449,11.79a28.869,28.869,0,0,1,3.2-4.111,25.761,25.761,0,0,1,5.245-4.306c5.2-3.073,7.789-.74,11.383-3.07Z" transform="translate(-1577.096 -1500.037)" fill="url(#linear-gradient-33)"/>
              <path id="Trazado_3177" data-name="Trazado 3177" d="M1583.774,1596.286s2.137,9.129,11.628,11.9c8.523,2.485,15.936-15.3,11.9-21.078-1.344-1.927-4.73-3.734-7.893-3.977-1.868-.143-2.681.341-5.725.049-2.807-.269-3.441-.809-4.438-.448-1.246.453-2.623,2.159-2.792,8.054-1.056-2.133-2.754-3.415-4.31-3.278a2.89,2.89,0,0,0-1.459.656c-1.859,1.656-.814,5,3.086,8.127Z" transform="translate(-1573.484 -1566.154)" fill="url(#linear-gradient-34)"/>
              <path id="Trazado_3178" data-name="Trazado 3178" d="M1599.749,1575.979c.3.435-1.417,1.456-2.206,3.488-1.532,3.941,1,10.241,5.106,12.176,2.431,1.145,3.621-.082,7.926.984a21.044,21.044,0,0,1,5.963,2.526c-.184,4.876-2.907,8.819-6.622,9.761-4,1.013-7.7-1.815-9.241-3-1.034-.791-4.345-3.311-5.161-7.327-.851-4.182,1.837-5.554.31-8.724-.771-1.6-2.131-2.659-2.853-5.479a12.049,12.049,0,0,1-.322-1.839c2.889-1.448,6.662-3.2,7.1-2.569Z" transform="translate(-1583.993 -1560.627)" fill="url(#linear-gradient-35)"/>
              <path id="Trazado_3179" data-name="Trazado 3179" d="M1678.949,1679.695a11,11,0,0,1-5.17-1.023c-.148-.062-.331-.08-.374-.011-.168.261,1.392,2.268,3.4,2.427,1.43.113,2.854-.725,2.783-1.094C1679.559,1679.839,1679.258,1679.75,1678.949,1679.695Z" transform="translate(-1649.99 -1644.629)" fill="url(#linear-gradient-36)"/>
              <g id="Grupo_1710" data-name="Grupo 1710" transform="translate(10.631)">
                <path id="Trazado_3180" data-name="Trazado 3180" d="M1604.706,1515.584l-1.245-.144.44-3.85c.76-6.64,5.952-11.586,11.821-11.259l6.284.349a11.058,11.058,0,0,1,8.333,4.66,14.39,14.39,0,0,1,2.623,10.143l-.329,3.079-1.247-.133.329-3.079a12.878,12.878,0,0,0-2.349-9.078,9.907,9.907,0,0,0-7.458-4.171l-6.284-.349c-5.2-.288-9.807,4.094-10.481,9.982l-.44,3.85Z" transform="translate(-1603.46 -1498.89)" fill="url(#linear-gradient-37)"/>
                <g id="Grupo_1709" data-name="Grupo 1709" transform="translate(2.946)">
                  <path id="Trazado_3181" data-name="Trazado 3181" d="M1643.279,1502.227a1.782,1.782,0,0,1-1.307-.84,8.892,8.892,0,0,0-6.973-4.246l-6.284-.349a8.1,8.1,0,0,0-6.052,2.332,1.725,1.725,0,0,1-2.65-.228,2.351,2.351,0,0,1,.274-3.011,11.662,11.662,0,0,1,8.715-3.36l6.284.349a12.423,12.423,0,0,1,9.752,5.939,2.348,2.348,0,0,1-.44,2.991,1.758,1.758,0,0,1-1.32.422Z" transform="translate(-1619.591 -1492.507)" fill="url(#linear-gradient-38)"/>
                  <path id="Trazado_3182" data-name="Trazado 3182" d="M1641.114,1503.307c-4.434-2.013-4.31-3.411-6.7-3.775-4.471-.679-6.8,3.928-11.105,2.829a6.631,6.631,0,0,1-2.48-1.267c-.179.153-.358.312-.531.479a2.352,2.352,0,0,0-.274,3.011,1.726,1.726,0,0,0,2.65.228,8.092,8.092,0,0,1,6.052-2.332l6.284.349a8.893,8.893,0,0,1,6.973,4.246,1.781,1.781,0,0,0,1.308.84,1.756,1.756,0,0,0,1.32-.422,2.357,2.357,0,0,0,.588-2.717,26.623,26.623,0,0,1-4.082-1.466Z" transform="translate(-1619.6 -1498.193)"/>
                </g>
              </g>
              <g id="Grupo_1712" data-name="Grupo 1712" transform="translate(0 11.47)">
                <g id="Grupo_1711" data-name="Grupo 1711" transform="translate(0 0)">
                  <ellipse id="Elipse_227" data-name="Elipse 227" cx="11.147" cy="5.537" rx="11.147" ry="5.537" transform="matrix(0.106, -0.994, 0.994, 0.106, 4.128, 22.168)" fill="url(#linear-gradient-39)"/>
                  <path id="Trazado_3183" data-name="Trazado 3183" d="M1578.852,1569.51c-.654,6.122-3.649,10.821-6.69,10.5s-4.975-5.55-4.321-11.671,3.649-10.82,6.689-10.5S1579.505,1563.389,1578.852,1569.51Z" transform="translate(-1563.611 -1557.365)" fill="url(#linear-gradient-40)"/>
                  <path id="Trazado_3184" data-name="Trazado 3184" d="M1554.8,1561.794l-.992-.106c-4.08-.437-7.865,3.674-8.454,9.182l-.033.309c-.588,5.508,2.243,10.325,6.323,10.762l.992.106c2.058.219,4.211-4.135,4.808-9.728S1556.86,1562.013,1554.8,1561.794Z" transform="translate(-1545.246 -1560.498)" fill="url(#linear-gradient-41)"/>
                </g>
                <path id="Trazado_3185" data-name="Trazado 3185" d="M1552.748,1581.87c-.431,4.036-2.411,7.135-4.421,6.92s-3.291-3.662-2.86-7.7,2.411-7.135,4.421-6.92S1553.179,1577.834,1552.748,1581.87Z" transform="translate(-1545.358 -1570.72)" fill="url(#linear-gradient-42)"/>
              </g>
            </g>
          </g>
          <g id="Grupo_1722" data-name="Grupo 1722" transform="translate(6.485 137.393)">
            <path id="Trazado_3186" data-name="Trazado 3186" d="M300.8,1756.256l90.021-24.486,25.4,5.25v4.129l-83,28.694Z" transform="translate(-252.352 -1552.9)" fill="url(#linear-gradient-43)"/>
            <path id="Trazado_3187" data-name="Trazado 3187" d="M157.311,1141.272c-7.683,3.358-18.087,7.977-32.111,7.555-8.928-.268-13.806-.415-17-3.462-10.634-10.152,7.869-43.43,45.309-109.569,11.973-21.151,19.846-33.889,35.639-39.869,17.932-6.79,35.179-.741,41.512,1.479,4.469,1.567,40.763,14.948,47.537,49.425,5.535,28.173-10.872,59.1-40.926,73.665q-2.676-3.778-5.351-7.555a53.947,53.947,0,0,0,8.185-27.7c.163-14.367-5.588-31.373-10.389-31.167-7.65.329,1.362,43.773-24.87,67.054-4.246,3.767-1.594.068-47.537,20.147Z" transform="translate(-92.493 -948.883)" fill="url(#linear-gradient-44)"/>
            <path id="Trazado_3188" data-name="Trazado 3188" d="M264.661,1080.114c-1.649-11.505-6.777-47.281-28.962-56.036-17.395-6.865-34.6,7.1-42.814-1.574-3.324-3.508-3.6-9.056-2.8-14.4-.31.11-.623.216-.933.332-15.8,5.979-23.666,18.717-35.639,39.869-37.441,66.141-55.945,99.418-45.311,109.57,3.192,3.048,8.07,3.194,17,3.463,14.024.422,24.428-4.2,32.111-7.555,45.943-20.081,43.291-16.38,47.537-20.147,26.232-23.283,17.22-66.725,24.87-67.054,4.8-.206,10.55,16.8,10.389,31.167a53.959,53.959,0,0,1-8.185,27.7q2.676,3.778,5.351,7.555a77.574,77.574,0,0,0,27.372-21.973,109.284,109.284,0,0,0,.016-30.915Z" transform="translate(-92.493 -961.39)" fill="url(#linear-gradient-45)"/>
            <path id="Trazado_3189" data-name="Trazado 3189" d="M82.7,1143.232l6.032-2.495S55,1106.585,118.275,1036.944c0,0,31.168-39.934,15.662-36.468-20.089,4.491-52.941,14.095-83.254,55.468s-12.928,77.582,32.018,87.289Z" transform="translate(-35.512 -954.983)" fill="url(#linear-gradient-46)"/>
            <path id="Trazado_3190" data-name="Trazado 3190" d="M293.874,1761.655s3.34-4.215,11.272-4.759,20.551,4.726,23.042,8.5.115,6.083-3.092,5.917-7.612-4.573-13.594-5.517-17.945,7.955-17.629-4.14Z" transform="translate(-246.685 -1573.406)" fill="url(#linear-gradient-47)"/>
            <path id="Trazado_3191" data-name="Trazado 3191" d="M606.311,926.746a4.466,4.466,0,0,1-.886-6.1l4.054-5.722-4.23-7.818-14.884,11.142a30.42,30.42,0,0,1-13.437,5.687l-2.469.395s14.338,7.78,21.688,10.284,16.087-3.221,16.087-3.221Z" transform="translate(-476.036 -878.843)" fill="url(#linear-gradient-24)"/>
            <g id="Grupo_1721" data-name="Grupo 1721" transform="translate(108.984)">
              <g id="Grupo_1715" data-name="Grupo 1715" transform="translate(33.067 12.057)">
                <path id="Trazado_3192" data-name="Trazado 3192" d="M833.226,821.7l.966-.2c3.978-.809,8.087,2.887,9.179,8.256l.062.3c1.092,5.369-1.247,10.377-5.225,11.186l-.966.2c-2.007.407-4.533-3.68-5.641-9.131s-.38-10.2,1.625-10.61Z" transform="translate(-827.844 -820.835)" fill="url(#linear-gradient-49)"/>
                <path id="Trazado_3193" data-name="Trazado 3193" d="M819.507,830.279c1.213,5.966,4.522,10.331,7.486,9.728s4.462-5.944,3.249-11.911-4.679-10.3-7.643-9.7S818.294,824.313,819.507,830.279Z" transform="translate(-818.018 -818.344)" fill="url(#linear-gradient-50)"/>
                <rect id="Rectángulo_691" data-name="Rectángulo 691" width="1.154" height="22.05" transform="matrix(0.98, -0.199, 0.199, 0.98, 3.598, 0.267)" fill="url(#linear-gradient-51)"/>
                <path id="Trazado_3194" data-name="Trazado 3194" d="M813.78,831.386c1.213,5.966,4.6,10.315,7.564,9.712s4.383-5.928,3.17-11.9-4.6-10.315-7.564-9.712S812.568,825.418,813.78,831.386Z" transform="translate(-813.347 -819.235)" fill="url(#linear-gradient-52)"/>
                <path id="Trazado_3195" data-name="Trazado 3195" d="M828.075,853.063c.659,3.245,2.5,5.608,4.113,5.281s2.383-3.223,1.724-6.469-2.5-5.608-4.113-5.281S827.416,849.818,828.075,853.063Z" transform="translate(-825.193 -841.411)" opacity="0.6" fill="url(#linear-gradient-53)"/>
              </g>
              <g id="Grupo_1716" data-name="Grupo 1716" transform="translate(0 3.598)">
                <path id="Trazado_3196" data-name="Trazado 3196" d="M658.864,805.261a29.829,29.829,0,0,1-8.5,1.074c-3.7-.058-10.452-.226-14.838-4.951a11.331,11.331,0,0,1-3.05-5.862c-.152-.889-.7-4.125,1.1-6.611,1.945-2.681,4.4-1.419,6.768-3.779,3.369-3.357.667-8.176,3.463-10.074,2.465-1.673,4.96,1.8,10.389.63,2.953-.637,2.94-1.823,6.925-2.833,2.646-.672,5.977-1.518,7.747.1,1.708,1.563.139,3.753,1.8,6.879,1.673,3.143,4.109,2.52,5.338,4.865,2.275,4.343-2.958,12.438-8.569,16.557a26.45,26.45,0,0,1-8.576,4Z" transform="translate(-632.279 -772.027)" fill="url(#linear-gradient-54)"/>
                <path id="Trazado_3197" data-name="Trazado 3197" d="M705.861,879.261a15.443,15.443,0,0,0,14.166,6.054c8.481-.882,9.937-18.544,4.576-22.054-1.79-1.172-5.4-1.54-8.351-.656-1.744.522-2.343,1.216-5.21,2.022-2.646.743-3.39.5-4.193,1.156-1.006.818-1.762,2.752-.164,7.842-1.6-1.452-3.543-1.954-4.933-1.291a3.068,3.068,0,0,0-1.147,1.07c-1.216,2.067.741,4.56,5.256,5.86Z" transform="translate(-687.838 -845.664)" fill="url(#linear-gradient-55)"/>
              </g>
              <g id="Grupo_1718" data-name="Grupo 1718" transform="translate(12.438)">
                <path id="Trazado_3198" data-name="Trazado 3198" d="M702.629,779.855l-1.231.237-.745-3.8c-1.284-6.558,2.171-12.842,7.866-14.3l6.1-1.567a11.059,11.059,0,0,1,9.352,1.923,14.385,14.385,0,0,1,5.566,8.875l.409,2.009-1.446-.818-.192-.94a12.881,12.881,0,0,0-4.982-7.944,9.9,9.9,0,0,0-8.37-1.72l-6.1,1.567c-5.048,1.3-8.11,6.868-6.973,12.683Z" transform="translate(-700.386 -758.664)" fill="url(#linear-gradient-56)"/>
                <g id="Grupo_1717" data-name="Grupo 1717" transform="translate(0.232)">
                  <path id="Trazado_3199" data-name="Trazado 3199" d="M725.766,759.192a1.778,1.778,0,0,1-1.5-.405,8.888,8.888,0,0,0-7.929-1.939l-6.1,1.567a8.1,8.1,0,0,0-5.062,4.052,1.725,1.725,0,0,1-2.6.584,2.352,2.352,0,0,1-.65-2.955,11.655,11.655,0,0,1,7.292-5.837l6.1-1.567a12.432,12.432,0,0,1,11.093,2.712,2.351,2.351,0,0,1,.486,2.984,1.754,1.754,0,0,1-1.132.8Z" transform="translate(-701.663 -752.325)" fill="url(#linear-gradient-57)"/>
                  <path id="Trazado_3200" data-name="Trazado 3200" d="M722.3,762.162c-4.836-.577-5.139-1.951-7.53-1.572-4.467.7-5.292,5.8-9.732,6.054a6.647,6.647,0,0,1-2.748-.458c-.124.2-.247.407-.362.617a2.352,2.352,0,0,0,.65,2.955,1.725,1.725,0,0,0,2.6-.584,8.092,8.092,0,0,1,5.062-4.052l6.1-1.567a8.89,8.89,0,0,1,7.93,1.939,1.779,1.779,0,0,0,1.5.406,1.753,1.753,0,0,0,1.132-.8,2.355,2.355,0,0,0-.261-2.769,26.748,26.748,0,0,1-4.334-.163Z" transform="translate(-701.655 -759.027)" fill="url(#linear-gradient-58)"/>
                </g>
              </g>
              <g id="Grupo_1720" data-name="Grupo 1720" transform="translate(4.732 16.678)">
                <g id="Grupo_1719" data-name="Grupo 1719" transform="translate(0.018)">
                  <path id="Trazado_3201" data-name="Trazado 3201" d="M696.99,853.527c1.227,6.032-.208,11.418-3.205,12.026s-6.421-3.788-7.648-9.82.208-11.418,3.205-12.026S695.762,847.495,696.99,853.527Z" transform="translate(-680.692 -843.651)" fill="url(#linear-gradient-59)"/>
                  <path id="Trazado_3202" data-name="Trazado 3202" d="M691.15,854.725c1.227,6.032-.208,11.418-3.205,12.028s-6.421-3.788-7.648-9.82.208-11.418,3.205-12.026,6.421,3.788,7.648,9.82Z" transform="translate(-675.918 -844.631)" fill="url(#linear-gradient-60)"/>
                  <path id="Trazado_3203" data-name="Trazado 3203" d="M664.818,851.566l-.977.2c-4.021.818-6.386,5.88-5.283,11.308l.062.3c1.1,5.428,5.258,9.164,9.281,8.346l.977-.2c2.029-.413,2.765-5.216,1.644-10.727s-3.674-9.644-5.7-9.233Z" transform="translate(-658.287 -850.096)" fill="url(#linear-gradient-61)"/>
                </g>
                <path id="Trazado_3204" data-name="Trazado 3204" d="M665.653,877.566c.809,3.978-.141,7.53-2.122,7.933s-4.244-2.495-5.053-6.474.141-7.53,2.122-7.933S664.844,873.587,665.653,877.566Z" transform="translate(-658.189 -866.05)" fill="url(#linear-gradient-62)"/>
              </g>
            </g>
          </g>
          <g id="Grupo_1723" data-name="Grupo 1723" transform="translate(306.57 296.248)">
            <path id="Trazado_3205" data-name="Trazado 3205" d="M1678.7,1815.419l10.45-137.877a5.968,5.968,0,0,1,4.509-4.913l178.841-50.272a9.656,9.656,0,0,1,5.89.747c1.218.756,2.6.593,2.54,2l-7.475,127.418a5.9,5.9,0,0,1-4.253,4.9l-186.657,60.635-3.842-2.639Z" transform="translate(-1678.7 -1622.176)"/>
            <path id="Trazado_3206" data-name="Trazado 3206" d="M1699.732,1824.464l10.828-139.031a5.972,5.972,0,0,1,4.507-4.9l178.849-50.274a5.618,5.618,0,0,1,4.456.484,3.762,3.762,0,0,1,1.83,3.417l-5.384,126.154a5.9,5.9,0,0,1-4.343,5l-190.745,59.157Z" transform="translate(-1695.889 -1628.579)" fill="url(#linear-gradient-63)"/>
            <path id="Trazado_3207" data-name="Trazado 3207" d="M1699.74,2237.37l190.745-59.157a5.892,5.892,0,0,0,4.343-5l1.623-38.046c-56.622,36.13-127.918,50.083-194.276,70.948Z" transform="translate(-1695.898 -2041.485)" fill="url(#linear-gradient-64)"/>
            <path id="Trazado_3208" data-name="Trazado 3208" d="M2033.244,2604.167l-6.766,4.2-34.046-15.1c-.305-.135-1.625-1.781,0-2.456,8.609-3.583,41.454-12.073,41.454-12.073l17.1,8.119-17.736,17.309Z" transform="translate(-1934.487 -2404.049)" fill="#fff"/>
            <path id="Trazado_3209" data-name="Trazado 3209" d="M2036.525,2590.7l-6.766,4.2s-32.123-14.245-34.047-15.1,41.454-14.531,41.454-14.531l17.1,8.12Z" transform="translate(-1937.767 -2393.039)" fill="url(#linear-gradient-65)"/>
            <path id="Trazado_3210" data-name="Trazado 3210" d="M2220.618,2121.62s16.241,86.9,17.95,91.741c1.578,4.472-44.417,18.974-55.415,21.725a5.274,5.274,0,0,1-2.707-.356c-3.134.285,11.467-104.917,11.467-104.917l1.068-.214,27.637-7.977Z" transform="translate(-2088.456 -2030.41)" fill="#fff"/>
            <path id="Trazado_3211" data-name="Trazado 3211" d="M2233.134,2121.62s19.09,87.183,20.8,92.026-53.279,20.514-58.122,21.369c-3.134.285,9.687-105.417,9.687-105.417Z" transform="translate(-2100.972 -2030.41)" fill="url(#linear-gradient-66)"/>
          </g>
          <g id="Grupo_1724" data-name="Grupo 1724" transform="translate(349.543 124.127)">
            <path id="Trazado_3212" data-name="Trazado 3212" d="M1914.01,834.781,1922.4,724.12a4.791,4.791,0,0,1,3.619-3.943l143.538-40.349a7.754,7.754,0,0,1,4.726.6c.977.606,2.087.477,2.04,1.605l-6,102.267a4.735,4.735,0,0,1-3.413,3.936L1917.1,836.9l-3.084-2.118Z" transform="translate(-1914.01 -679.683)" fill="url(#linear-gradient-67)"/>
            <path id="Trazado_3213" data-name="Trazado 3213" d="M1930.9,842.025l8.691-111.588a4.791,4.791,0,0,1,3.618-3.935l143.546-40.351a4.517,4.517,0,0,1,3.578.387,3.02,3.02,0,0,1,1.47,2.743l-4.321,101.252a4.73,4.73,0,0,1-3.486,4.01L1930.9,842.023Z" transform="translate(-1927.816 -684.809)" fill="url(#linear-gradient-68)"/>
            <path id="Trazado_3214" data-name="Trazado 3214" d="M1930.9,1173.427l153.091-47.48a4.731,4.731,0,0,0,3.486-4.01l1.3-30.536c-45.446,29-102.669,40.2-155.927,56.944Z" transform="translate(-1927.816 -1016.211)" fill="url(#linear-gradient-69)"/>
            <path id="Trazado_3215" data-name="Trazado 3215" d="M2198.559,1467.818l-5.431,3.373-27.326-12.119c-.245-.109-1.306-1.428,0-1.972,6.909-2.876,33.272-9.69,33.272-9.69l13.72,6.518-14.236,13.892Z" transform="translate(-2119.297 -1307.205)" fill="#fff"/>
            <path id="Trazado_3216" data-name="Trazado 3216" d="M2201.194,1457.018l-5.431,3.373s-25.783-11.432-27.326-12.119,33.272-11.662,33.272-11.662l13.721,6.518-14.236,13.892Z" transform="translate(-2121.932 -1298.377)" fill="url(#linear-gradient-70)"/>
            <path id="Trazado_3217" data-name="Trazado 3217" d="M2348.965,1080.53s13.034,69.744,14.407,73.632c1.267,3.589-35.65,15.229-44.476,17.437a4.2,4.2,0,0,1-2.171-.287c-2.517.228,9.2-84.208,9.2-84.208l.856-.172,22.182-6.4Z" transform="translate(-2242.89 -1007.326)" fill="#fff"/>
            <path id="Trazado_3218" data-name="Trazado 3218" d="M2359,1080.53s15.32,69.974,16.694,73.86-42.761,16.464-46.649,17.15c-2.515.228,7.774-84.608,7.774-84.608l22.181-6.4Z" transform="translate(-2252.929 -1007.326)" fill="url(#linear-gradient-71)"/>
          </g>
          <g id="Grupo_1725" data-name="Grupo 1725" transform="translate(90.421 190.249)">
            <path id="Trazado_3219" data-name="Trazado 3219" d="M495.12,1196.851l8.386-110.661a4.791,4.791,0,0,1,3.62-3.943L650.664,1041.9a7.754,7.754,0,0,1,4.726.6c.977.606,2.087.477,2.04,1.605l-6,102.267a4.734,4.734,0,0,1-3.413,3.936l-149.811,48.666-3.085-2.118Z" transform="translate(-495.12 -1041.753)" fill="url(#linear-gradient-72)"/>
            <path id="Trazado_3220" data-name="Trazado 3220" d="M512.01,1204.1l8.691-111.588a4.791,4.791,0,0,1,3.618-3.936l143.546-40.351a4.516,4.516,0,0,1,3.578.387,3.02,3.02,0,0,1,1.47,2.743L668.591,1152.6a4.73,4.73,0,0,1-3.486,4.01l-153.091,47.48Z" transform="translate(-508.926 -1046.879)" fill="url(#linear-gradient-73)"/>
            <path id="Trazado_3221" data-name="Trazado 3221" d="M512.01,1535.5l153.091-47.48a4.731,4.731,0,0,0,3.486-4.01l1.3-30.536c-45.446,29-102.669,40.2-155.927,56.944Z" transform="translate(-508.926 -1378.281)" fill="url(#linear-gradient-74)"/>
            <path id="Trazado_3222" data-name="Trazado 3222" d="M779.669,1829.9l-5.431,3.373-27.326-12.119c-.245-.109-1.306-1.428,0-1.972,6.909-2.876,33.272-9.69,33.272-9.69l13.721,6.518L779.669,1829.9Z" transform="translate(-700.407 -1669.283)" fill="#fff"/>
            <path id="Trazado_3223" data-name="Trazado 3223" d="M782.3,1819.1l-5.431,3.373-27.326-12.119c-1.543-.687,33.272-11.662,33.272-11.662l13.721,6.518L782.3,1819.1Z" transform="translate(-703.042 -1660.456)" fill="url(#linear-gradient-75)"/>
            <path id="Trazado_3224" data-name="Trazado 3224" d="M930.065,1442.61s13.034,69.744,14.407,73.632c1.267,3.589-35.65,15.229-44.476,17.437a4.2,4.2,0,0,1-2.171-.287c-2.517.228,9.2-84.208,9.2-84.208l.857-.172,22.181-6.4Z" transform="translate(-823.992 -1369.404)" fill="#fff"/>
            <path id="Trazado_3225" data-name="Trazado 3225" d="M940.1,1442.61s15.32,69.974,16.694,73.86-42.761,16.464-46.649,17.15c-2.515.228,7.774-84.608,7.774-84.608Z" transform="translate(-834.031 -1369.404)" fill="url(#linear-gradient-76)"/>
          </g>
        </g>
      </g>
    </g>
  </g>
</svg>
