<svg xmlns="http://www.w3.org/2000/svg" width="101.736" height="101.785" viewBox="0 0 101.736 101.785">
  <g id="ico_becas" transform="translate(-0.124)">
    <path id="Trazado_5177" data-name="Trazado 5177" d="M131.573,70.172a37.96,37.96,0,0,0-18.9-5.987l-17.2,3.246a38.176,38.176,0,0,0-8.528,5.236C78.324,79.665,75,90.348,75,102.318c0,21.08,14.9,37.175,35.983,37.175,11.969,0,22.652-4.515,29.65-13.136a38.206,38.206,0,0,0,4.447-6.866Z" transform="translate(-59.99 -51.425)" fill="#a4ccff"/>
    <path id="Trazado_5178" data-name="Trazado 5178" d="M107.787,169.058a38.17,38.17,0,0,1-29.651-62.207,38.179,38.179,0,0,0,7.2,63.916l32.143.711a38.283,38.283,0,0,0,14.343-10.938A38.012,38.012,0,0,1,107.787,169.058Z" transform="translate(-51.181 -85.609)" fill="#8bb3ea"/>
    <path id="Trazado_5179" data-name="Trazado 5179" d="M194.441,70.051c-2.188,1.462-7.4,4.644-11.03,4.425-7.057-.424-7.783-8.362-7.852-10.44C175,64.012,174.44,64,173.869,64a38.061,38.061,0,0,0-15.509,3.283c4.288,3.89,5.143,12.411-3.762,21.976-2.526,2.713-.842,9.075,6.175,7.858,8.735-1.514,9.725-10.569,13.846-12.63,5.987-2.994,13.565,3.836,11.413,7.578-2.3,4-6.829,1.871-9.636,4.771-2.439,2.52-1.4,6.362,1.777,7.952,3.739,1.87,17-5.3,21.143.374,2.526,3.461-.755,5.19-.187,9.168.625,4.378,6.086,4.986,8.835,5.011a38.143,38.143,0,0,0-13.523-49.29Z" transform="translate(-122.876 -51.277)" fill="#ccf49f"/>
    <path id="Trazado_5180" data-name="Trazado 5180" d="M253.066,378.7c-3.282-1.669-6.395-.693-13.565,5.145a14.947,14.947,0,0,1-1.876,1.3l7.165,5.554,12.023-5.722A7.2,7.2,0,0,0,253.066,378.7Z" transform="translate(-190.285 -302.829)" fill="#ccf49f"/>
    <path id="Trazado_5181" data-name="Trazado 5181" d="M184.5,413.384c-4.627,2.738-10.3,2.949-13.181,2.844a38.263,38.263,0,0,0,32.142.71c0,.017,0,0,0,0a14.828,14.828,0,0,0,.227-3.721,38.444,38.444,0,0,1-19.187.167Z" transform="translate(-137.161 -331.07)" fill="#b3e59f"/>
    <path id="Trazado_5182" data-name="Trazado 5182" d="M131.775,273.322c-.117-4.584-6.923-7.391-9.916-7.671-4.632-.434-5.568,3.139-4.771,5.613.678,2.1,3.274,7.016,6.5,8.139C126.487,280.411,131.883,277.578,131.775,273.322Z" transform="translate(-93.507 -212.81)" fill="#ccf49f"/>
    <g id="Grupo_2464" data-name="Grupo 2464" transform="translate(0.124 0)">
      <path id="Trazado_5183" data-name="Trazado 5183" d="M431.061,82.256a1.588,1.588,0,0,1-1.219-.568q-.99-1.178-2.055-2.292a1.591,1.591,0,0,1,2.3-2.2q1.132,1.186,2.188,2.443a1.59,1.59,0,0,1-1.216,2.613Z" transform="translate(-342.416 -61.458)" fill="#eceaec"/>
      <path id="Trazado_5184" data-name="Trazado 5184" d="M50.993,101.785l-.806-.006a1.591,1.591,0,0,1-1.567-1.614A1.544,1.544,0,0,1,50.233,98.6l.759.006a48.382,48.382,0,0,0,5.291-.29,1.591,1.591,0,1,1,.348,3.162,51.617,51.617,0,0,1-5.639.309Zm-8.561-.741a1.611,1.611,0,0,1-.277-.024A50.752,50.752,0,0,1,35.879,99.5a1.591,1.591,0,1,1,.944-3.038,47.517,47.517,0,0,0,5.882,1.423,1.59,1.59,0,0,1-.273,3.157Zm21.7-1.028a1.591,1.591,0,0,1-.421-3.124,47.44,47.44,0,0,0,5.717-1.979,1.591,1.591,0,0,1,1.23,2.934,50.585,50.585,0,0,1-6.1,2.111,1.576,1.576,0,0,1-.424.058ZM29.094,96.667a1.584,1.584,0,0,1-.707-.166,51.274,51.274,0,0,1-5.59-3.234,1.59,1.59,0,1,1,1.764-2.647A47.984,47.984,0,0,0,29.8,93.652a1.591,1.591,0,0,1-.71,3.015Zm47.89-2.28a1.59,1.59,0,0,1-.842-2.941,48.144,48.144,0,0,0,4.928-3.514A1.59,1.59,0,1,1,83.077,90.4a51.294,51.294,0,0,1-5.254,3.747,1.582,1.582,0,0,1-.839.24ZM17.539,88.7a1.585,1.585,0,0,1-1.079-.422A51.472,51.472,0,0,1,12,83.6a1.59,1.59,0,1,1,2.435-2.046,48.293,48.293,0,0,0,4.178,4.381A1.591,1.591,0,0,1,17.539,88.7Zm70.189-3.334a1.59,1.59,0,0,1-1.183-2.652,47.9,47.9,0,0,0,3.746-4.755,1.591,1.591,0,0,1,2.619,1.806,50.874,50.874,0,0,1-4,5.072,1.584,1.584,0,0,1-1.184.529ZM8.687,77.811a1.588,1.588,0,0,1-1.365-.773,50.917,50.917,0,0,1-2.962-5.733,1.591,1.591,0,1,1,2.914-1.277A47.908,47.908,0,0,0,10.05,75.4a1.59,1.59,0,0,1-1.362,2.408Zm86.827-4.127a1.589,1.589,0,0,1-1.434-2.274,47.638,47.638,0,0,0,2.252-5.62,1.591,1.591,0,1,1,3.023.993,50.87,50.87,0,0,1-2.4,6A1.588,1.588,0,0,1,95.515,73.684ZM3.258,64.874A1.59,1.59,0,0,1,1.72,63.68,50.772,50.772,0,0,1,.5,57.34a1.591,1.591,0,0,1,3.156-.4A47.936,47.936,0,0,0,4.8,62.885a1.589,1.589,0,0,1-1.142,1.937,1.612,1.612,0,0,1-.4.051Zm96.425-4.591a1.59,1.59,0,0,1-1.572-1.84,48.748,48.748,0,0,0,.57-6.028,1.59,1.59,0,1,1,3.178.1,51.253,51.253,0,0,1-.607,6.425A1.59,1.59,0,0,1,99.683,60.283ZM1.717,50.925H1.666A1.591,1.591,0,0,1,.125,49.286a51.115,51.115,0,0,1,.607-6.427,1.59,1.59,0,1,1,3.14.5,48.3,48.3,0,0,0-.567,6.026,1.592,1.592,0,0,1-1.589,1.541ZM99.9,46.247a1.59,1.59,0,0,1-1.576-1.391,47.941,47.941,0,0,0-1.137-5.944,1.59,1.59,0,1,1,3.078-.8,50.819,50.819,0,0,1,1.214,6.341,1.591,1.591,0,0,1-1.379,1.777,1.621,1.621,0,0,1-.2.012ZM4.135,37.105a1.592,1.592,0,0,1-1.511-2.087,50.505,50.505,0,0,1,2.4-6A1.59,1.59,0,1,1,7.9,30.39a47.456,47.456,0,0,0-2.249,5.62,1.591,1.591,0,0,1-1.511,1.1ZM96.176,32.72a1.591,1.591,0,0,1-1.458-.953,48.264,48.264,0,0,0-2.777-5.379,1.59,1.59,0,1,1,2.727-1.636,51.3,51.3,0,0,1,2.963,5.738,1.592,1.592,0,0,1-1.455,2.23Zm-85.8-8.191a1.591,1.591,0,0,1-1.308-2.494,51.428,51.428,0,0,1,3.995-5.073,1.59,1.59,0,0,1,2.37,2.122,48.045,48.045,0,0,0-3.746,4.757,1.59,1.59,0,0,1-1.311.687ZM19.9,14.219a1.591,1.591,0,0,1-1-2.824A51.241,51.241,0,0,1,24.15,7.646a1.59,1.59,0,0,1,1.68,2.7A48.094,48.094,0,0,0,20.9,13.862a1.581,1.581,0,0,1-1,.356ZM31.93,7a1.591,1.591,0,0,1-.615-3.058,50.824,50.824,0,0,1,6.1-2.112A1.591,1.591,0,0,1,38.264,4.9a47.51,47.51,0,0,0-5.719,1.979A1.575,1.575,0,0,1,31.93,7ZM45.512,3.481A1.591,1.591,0,0,1,45.338.31,51.471,51.471,0,0,1,50.973,0h.02l.792.006a1.59,1.59,0,0,1-.025,3.181h-.025l-.742-.006a45.708,45.708,0,0,0-5.306.291,1.7,1.7,0,0,1-.176.009Z" transform="translate(-0.124 0)" fill="#eceaec"/>
      <path id="Trazado_5185" data-name="Trazado 5185" d="M296.636,7.715a1.592,1.592,0,0,1-.384-.047q-1.486-.367-3.008-.639A1.59,1.59,0,0,1,293.8,3.9c1.075.192,2.156.422,3.213.683a1.59,1.59,0,0,1-.38,3.134Z" transform="translate(-233.922 -3.102)" fill="#eceaec"/>
    </g>
    <path id="Trazado_5186" data-name="Trazado 5186" d="M222.512,296.127a7.991,7.991,0,0,0-6.139,5.464c-1.461,4.637,1.7,8.436,4.372,11.911a7.8,7.8,0,0,1,1.62,4.763,1.59,1.59,0,1,0,3.181,0h0a7.815,7.815,0,0,1,1.624-4.768c2.206-2.865,4.737-5.95,4.737-9.544a7.958,7.958,0,0,0-9.395-7.825Zm1.443,11.006a3.181,3.181,0,1,1,3.181-3.181A3.181,3.181,0,0,1,223.955,307.133Z" transform="translate(-172.962 -237.156)" fill="#ff8086"/>
    <path id="Trazado_5187" data-name="Trazado 5187" d="M334.512,24.127a7.991,7.991,0,0,0-6.139,5.464c-1.461,4.637,1.7,8.436,4.372,11.911a7.8,7.8,0,0,1,1.62,4.763,1.59,1.59,0,1,0,3.181,0h0A7.815,7.815,0,0,1,339.17,41.5c2.206-2.865,4.737-5.95,4.737-9.544A7.958,7.958,0,0,0,334.512,24.127Zm1.443,11.006a3.181,3.181,0,1,1,3.181-3.181A3.181,3.181,0,0,1,335.955,35.133Z" transform="translate(-262.697 -19.229)" fill="#ffa95f"/>
  </g>
</svg>
