<svg xmlns="http://www.w3.org/2000/svg" width="103.932" height="85.785" viewBox="0 0 103.932 85.785">
  <g id="ico_oportunidades" transform="translate(0 -44.698)">
    <circle id="Elipse_265" data-name="Elipse 265" cx="9.898" cy="9.898" r="9.898" transform="translate(4.949 44.698)" fill="#ffc269"/>
    <path id="Trazado_5157" data-name="Trazado 5157" d="M89.861,87.226c0-10.022-6.42-18.147-16.442-18.147a18.087,18.087,0,0,0-12.613,5.1A49.531,49.531,0,0,0,59,85.573c0,8.249,4.4,14.851,14.419,14.851S89.861,95.474,89.861,87.226Z" transform="translate(-47.023 -19.432)" fill="#ffa95f"/>
    <path id="Trazado_5158" data-name="Trazado 5158" d="M52.183,100.653a15.1,15.1,0,0,1-6.013-6.447,18.081,18.081,0,0,0-5.535,13.046c0,8.2,8.039,13.14,17.987,13.193Z" transform="translate(-32.386 -39.458)" fill="#ff8b5a"/>
    <path id="Trazado_5159" data-name="Trazado 5159" d="M57.247,272.254H45.7a13.2,13.2,0,0,0-13.2,13.2V306.9h33V280.5A8.249,8.249,0,0,0,57.247,272.254Z" transform="translate(-25.903 -181.364)" fill="#95d6a4"/>
    <path id="Trazado_5160" data-name="Trazado 5160" d="M39.228,272.254h-1.65a13.2,13.2,0,0,0-13.2,13.2V306.9h3.3V285.452a9.9,9.9,0,0,1,9.9-9.9h1.65Z" transform="translate(-19.432 -181.364)" fill="#78c2a4"/>
    <path id="Trazado_5161" data-name="Trazado 5161" d="M96,270.22a6.6,6.6,0,0,1-6.6-6.6v-2.2l13.2,1.418v.781A6.6,6.6,0,0,1,96,270.22Z" transform="translate(-71.25 -172.732)" fill="#f7d291"/>
    <path id="Trazado_5162" data-name="Trazado 5162" d="M89.4,237.669a16.386,16.386,0,0,0,13.2,1.417v-7.467H89.4Z" transform="translate(-71.25 -148.978)" fill="#ecbd83"/>
    <path id="Trazado_5163" data-name="Trazado 5163" d="M104.171,342.733H76.045a3.3,3.3,0,0,1-3.3-3.3V324.315l1.73-3.3h29.695a3.3,3.3,0,0,1,3.3,3.3v16.5Z" transform="translate(-57.979 -220.228)" fill="#eceaec"/>
    <path id="Trazado_5164" data-name="Trazado 5164" d="M68.315,321.016a3.3,3.3,0,0,0-3.3,3.3v16.5a3.3,3.3,0,0,0,3.3,3.3H98.01a3.3,3.3,0,0,0,3.3-3.3H73.265a4.949,4.949,0,0,1-4.949-4.949Z" transform="translate(-51.818 -220.228)" fill="#dad8db"/>
    <path id="Trazado_5165" data-name="Trazado 5165" d="M76.523,125.968c5.244,3.719,12.738,4.924,16.837,5.314a3.284,3.284,0,0,1,2.959,3.281v4.6a13.2,13.2,0,0,1-11.484,13.088,17.849,17.849,0,0,1-1.97-.017c-7.289,0-11.621-5.782-11.621-13.071v0c0-3.483-.126-6.844,2.034-9.552.2-.249.4-.5.612-.736Z" transform="translate(-56.781 -64.773)" fill="#ffe1a0"/>
    <path id="Trazado_5166" data-name="Trazado 5166" d="M68.315,153.47v-9.555a12.748,12.748,0,0,0-3.3,8.558v1a13.2,13.2,0,0,0,13.2,13.2,13.428,13.428,0,0,0,1.659-.11A13.2,13.2,0,0,1,68.315,153.47Z" transform="translate(-51.818 -79.077)" fill="#f7d291"/>
    <circle id="Elipse_266" data-name="Elipse 266" cx="3.299" cy="3.299" r="3.299" transform="translate(28.045 109.037)" fill="#fff"/>
    <path id="Trazado_5167" data-name="Trazado 5167" d="M118.455,211.2a9.74,9.74,0,0,1-3.976-.816,1.649,1.649,0,1,1,1.353-3.008,6.932,6.932,0,0,0,5.246,0,1.65,1.65,0,0,1,1.353,3.009,9.771,9.771,0,0,1-3.976.815Z" transform="translate(-90.465 -129.543)" fill="#fff"/>
    <circle id="Elipse_267" data-name="Elipse 267" cx="1.65" cy="1.65" r="1.65" transform="translate(21.446 70.269)" fill="#78c2a4"/>
    <circle id="Elipse_268" data-name="Elipse 268" cx="1.65" cy="1.65" r="1.65" transform="translate(31.345 70.269)" fill="#78c2a4"/>
    <path id="Trazado_5168" data-name="Trazado 5168" d="M59.39,434.794H1.65a1.65,1.65,0,0,0,0,3.3H59.39Z" transform="translate(0 -310.91)" fill="#ecbd83"/>
    <path id="Trazado_5169" data-name="Trazado 5169" d="M320.844,254.076l-6.248-3.124-8.195-1.286-11.6,1.286-9.55,4.775a6.59,6.59,0,0,0-2.3,1.909l1.954,30.057h39.593V259.979A6.6,6.6,0,0,0,320.844,254.076Z" transform="translate(-225.509 -163.362)" fill="#c3ddff"/>
    <path id="Trazado_5170" data-name="Trazado 5170" d="M287.864,301.057a8.249,8.249,0,0,0-3.1-6.441l-7.107-5.686a6.6,6.6,0,0,0-1.346,3.993v28.916a3.3,3.3,0,0,0,3.3,3.3h8.249V301.057Z" transform="translate(-220.226 -194.654)" fill="#a4ccff"/>
    <path id="Trazado_5171" data-name="Trazado 5171" d="M365.526,353.524h-19.8c-3.645,0-8.486,2.177-9.23,6.8l2.631,16.3h29.695a3.3,3.3,0,0,0,3.3-3.3v-13.2A6.6,6.6,0,0,0,365.526,353.524Z" transform="translate(-268.193 -246.137)" fill="#9b959d"/>
    <path id="Trazado_5172" data-name="Trazado 5172" d="M343.1,353.524h-3.3a6.6,6.6,0,0,0-6.6,6.6v16.5h3.3v-16.5A6.6,6.6,0,0,1,343.1,353.524Z" transform="translate(-265.568 -246.137)" fill="#857e87"/>
    <path id="Trazado_5173" data-name="Trazado 5173" d="M315.619,126.233v4.854a1.65,1.65,0,0,1-.912,1.476l-.738.369h19.8l-1.476-.738a3.3,3.3,0,0,1-1.824-2.951l0-27.656H307v13.2C307,120.932,309.93,124.766,315.619,126.233Z" transform="translate(-244.681 -45.341)" fill="#f5b97d"/>
    <path id="Trazado_5174" data-name="Trazado 5174" d="M304,114.785v-13.2h-3.3v13.2a13.2,13.2,0,0,0,11.323,13.066A1.659,1.659,0,0,0,313.9,126.2a1.634,1.634,0,0,0-1.4-1.619A9.9,9.9,0,0,1,304,114.785Z" transform="translate(-239.659 -45.341)" fill="#e3aa75"/>
    <path id="Trazado_5175" data-name="Trazado 5175" d="M315.5,52.825H303.948c-4.556,0-7.452,3.041-7.452,7.6a3.3,3.3,0,0,0,3.3,3.3c2.733,0,4.152,2.868,4.152,5.6v4.949A8.249,8.249,0,0,0,312.2,82.52h8.249a6.6,6.6,0,0,0,6.6-6.6V64.373A11.548,11.548,0,0,0,315.5,52.825Z" transform="translate(-236.31 -6.477)" fill="#9f6e50"/>
    <path id="Trazado_5176" data-name="Trazado 5176" d="M292.693,52.825a8.249,8.249,0,0,0-8.249,8.249,3.3,3.3,0,0,0,3.3,3.3h1.65a4.949,4.949,0,0,1,4.949,4.949v-16.5Z" transform="translate(-226.704 -6.477)" fill="#785353"/>
  </g>
</svg>
