<svg xmlns="http://www.w3.org/2000/svg" xmlns:xlink="http://www.w3.org/1999/xlink" width="554.612" height="539.218" viewBox="0 0 554.612 539.218">
  <defs>
    <linearGradient id="linear-gradient" x1="0.5" x2="0.5" y2="1" gradientUnits="objectBoundingBox">
      <stop offset="0" stop-color="#b37cff"/>
      <stop offset="1" stop-color="#f895e7"/>
    </linearGradient>
    <linearGradient id="linear-gradient-2" x1="1.674" y1="1.457" x2="1.904" y2="0.95" gradientUnits="objectBoundingBox">
      <stop offset="0" stop-color="#444b8c"/>
      <stop offset="1" stop-color="#26264f"/>
    </linearGradient>
    <linearGradient id="linear-gradient-3" x1="1.968" y1="1.094" x2="2.458" y2="-0.868" xlink:href="#linear-gradient-2"/>
    <linearGradient id="linear-gradient-4" x1="2.613" y1="1.056" x2="2.272" y2="0.589" gradientUnits="objectBoundingBox">
      <stop offset="0.49" stop-color="#ebeff2"/>
      <stop offset="1" stop-color="#fff"/>
    </linearGradient>
    <linearGradient id="linear-gradient-5" x1="154.282" y1="5.119" x2="148.584" y2="2.864" xlink:href="#linear-gradient-2"/>
    <clipPath id="clip-path">
      <path id="Trazado_3452" data-name="Trazado 3452" d="M944.2,743.953,595.941,716.222a10.688,10.688,0,0,1-9.841-10.669V439.182a10.69,10.69,0,0,1,10.861-10.688l348.255,5.354a10.707,10.707,0,0,1,10.534,10.688V733.3a10.694,10.694,0,0,1-11.555,10.65Z" transform="translate(-586.1 -428.493)"/>
    </clipPath>
    <linearGradient id="linear-gradient-6" x1="1.857" y1="0.687" x2="2.857" y2="0.687" gradientUnits="objectBoundingBox">
      <stop offset="0" stop-color="#ff9085"/>
      <stop offset="1" stop-color="#fb6fbb"/>
    </linearGradient>
    <linearGradient id="linear-gradient-7" x1="5.875" y1="0.931" x2="4.446" y2="0.071" gradientUnits="objectBoundingBox">
      <stop offset="0" stop-color="#ffc444"/>
      <stop offset="1" stop-color="#f36f56"/>
    </linearGradient>
    <linearGradient id="linear-gradient-8" x1="10.604" y1="1.005" x2="9.118" y2="0.15" xlink:href="#linear-gradient-7"/>
    <linearGradient id="linear-gradient-9" x1="-0.803" y1="2.766" x2="-1.244" y2="0.317" xlink:href="#linear-gradient-4"/>
    <linearGradient id="linear-gradient-10" x1="-0.282" y1="4.966" x2="-0.733" y2="2.073" xlink:href="#linear-gradient-7"/>
    <linearGradient id="linear-gradient-11" x1="8.009" y1="3.04" x2="8.735" y2="4.561" xlink:href="#linear-gradient-2"/>
    <linearGradient id="linear-gradient-12" x1="7.602" y1="2.05" x2="8.328" y2="3.57" gradientUnits="objectBoundingBox">
      <stop offset="0" stop-color="#aa80f9"/>
      <stop offset="1" stop-color="#6165d7"/>
    </linearGradient>
    <linearGradient id="linear-gradient-13" x1="9.2" y1="4.297" x2="7.828" y2="2.636" xlink:href="#linear-gradient-12"/>
    <linearGradient id="linear-gradient-14" x1="9.697" y1="3.807" x2="10.697" y2="3.807" xlink:href="#linear-gradient-12"/>
    <linearGradient id="linear-gradient-15" x1="0" y1="0.5" x2="1" y2="0.5" xlink:href="#linear-gradient-2"/>
    <linearGradient id="linear-gradient-16" x1="7.916" y1="1.486" x2="8.916" y2="1.486" xlink:href="#linear-gradient-7"/>
    <linearGradient id="linear-gradient-17" x1="9.202" y1="1.886" x2="7.82" y2="0.216" xlink:href="#linear-gradient-7"/>
    <linearGradient id="linear-gradient-18" x1="0" y1="0.5" x2="1" y2="0.5" xlink:href="#linear-gradient-12"/>
    <linearGradient id="linear-gradient-19" x1="8.002" y1="-3.759" x2="8.742" y2="-2.215" xlink:href="#linear-gradient-2"/>
    <linearGradient id="linear-gradient-20" x1="7.916" y1="-3.036" x2="8.916" y2="-3.036" xlink:href="#linear-gradient-7"/>
    <linearGradient id="linear-gradient-21" x1="9.205" y1="-2.919" x2="7.805" y2="-4.609" xlink:href="#linear-gradient-7"/>
    <linearGradient id="linear-gradient-22" x1="9.697" y1="-3.192" x2="10.697" y2="-3.192" xlink:href="#linear-gradient-12"/>
    <linearGradient id="linear-gradient-23" x1="8.004" y1="-1.499" x2="8.74" y2="0.038" xlink:href="#linear-gradient-2"/>
    <linearGradient id="linear-gradient-24" x1="7.592" y1="-2.498" x2="8.327" y2="-0.962" xlink:href="#linear-gradient-12"/>
    <linearGradient id="linear-gradient-25" x1="9.204" y1="-0.519" x2="7.813" y2="-2.2" xlink:href="#linear-gradient-12"/>
    <linearGradient id="linear-gradient-26" x1="9.697" y1="-0.852" x2="10.697" y2="-0.852" xlink:href="#linear-gradient-12"/>
    <linearGradient id="linear-gradient-27" x1="3.813" y1="5.885" x2="4.749" y2="3.74" xlink:href="#linear-gradient-12"/>
    <linearGradient id="linear-gradient-28" x1="4.754" y1="7.109" x2="4.503" y2="6.047" xlink:href="#linear-gradient-12"/>
    <linearGradient id="linear-gradient-29" x1="9.435" y1="21.482" x2="10.503" y2="16.189" xlink:href="#linear-gradient-12"/>
    <linearGradient id="linear-gradient-30" x1="26.774" y1="15.975" x2="28.028" y2="14.173" xlink:href="#linear-gradient-12"/>
    <linearGradient id="linear-gradient-31" x1="141.119" y1="50.586" x2="134.411" y2="45.644" xlink:href="#linear-gradient-12"/>
    <linearGradient id="linear-gradient-32" x1="143.654" y1="50.255" x2="136.937" y2="45.311" xlink:href="#linear-gradient-12"/>
    <linearGradient id="linear-gradient-33" x1="146.207" y1="49.782" x2="139.481" y2="44.849" xlink:href="#linear-gradient-12"/>
    <linearGradient id="linear-gradient-34" x1="148.771" y1="49.452" x2="142.035" y2="44.517" xlink:href="#linear-gradient-12"/>
    <linearGradient id="linear-gradient-35" x1="0.745" y1="22.39" x2="1.856" y2="17.012" xlink:href="#linear-gradient-7"/>
    <linearGradient id="linear-gradient-36" x1="1.595" y1="16.302" x2="2.884" y2="14.453" xlink:href="#linear-gradient-7"/>
    <linearGradient id="linear-gradient-37" x1="199.21" y1="50.736" x2="200.211" y2="50.736" xlink:href="#linear-gradient-7"/>
    <linearGradient id="linear-gradient-38" x1="11.409" y1="52.658" x2="4.706" y2="47.858" xlink:href="#linear-gradient-7"/>
    <linearGradient id="linear-gradient-39" x1="10.68" y1="51.977" x2="3.988" y2="47.179" xlink:href="#linear-gradient-7"/>
    <linearGradient id="linear-gradient-40" x1="9.954" y1="51.443" x2="3.273" y2="46.635" xlink:href="#linear-gradient-7"/>
    <linearGradient id="linear-gradient-41" x1="9.267" y1="50.763" x2="2.57" y2="45.957" xlink:href="#linear-gradient-7"/>
    <linearGradient id="linear-gradient-42" x1="15.501" y1="4.083" x2="13.531" y2="1.883" xlink:href="#linear-gradient-12"/>
    <linearGradient id="linear-gradient-43" x1="9.141" y1="10.177" x2="10.141" y2="10.177" xlink:href="#linear-gradient-12"/>
    <linearGradient id="linear-gradient-44" x1="14.156" y1="0.238" x2="15.156" y2="0.238" xlink:href="#linear-gradient-7"/>
    <linearGradient id="linear-gradient-45" x1="25.011" y1="1.3" x2="26.011" y2="1.3" xlink:href="#linear-gradient-12"/>
    <linearGradient id="linear-gradient-46" x1="119.386" y1="13.126" x2="120.386" y2="13.126" xlink:href="#linear-gradient-12"/>
    <linearGradient id="linear-gradient-47" x1="1.614" y1="5.588" x2="-0.309" y2="3.498" xlink:href="#linear-gradient-7"/>
    <linearGradient id="linear-gradient-48" x1="0" y1="0.5" x2="1" y2="0.5" xlink:href="#linear-gradient-12"/>
    <linearGradient id="linear-gradient-49" x1="0.612" y1="4.14" x2="1.611" y2="4.14" xlink:href="#linear-gradient-12"/>
    <linearGradient id="linear-gradient-50" x1="1.914" y1="2.641" x2="0.637" y2="0.544" xlink:href="#linear-gradient-7"/>
    <linearGradient id="linear-gradient-51" x1="5.154" y1="19.666" x2="6.154" y2="19.666" xlink:href="#linear-gradient-7"/>
    <linearGradient id="linear-gradient-52" x1="1.042" y1="8.854" x2="2.043" y2="8.854" xlink:href="#linear-gradient-12"/>
    <linearGradient id="linear-gradient-53" x1="3.02" y1="4.457" x2="0.842" y2="0.91" xlink:href="#linear-gradient-7"/>
    <linearGradient id="linear-gradient-54" x1="8.813" y1="27.552" x2="9.817" y2="27.552" xlink:href="#linear-gradient-7"/>
    <linearGradient id="linear-gradient-55" x1="0.629" y1="1.903" x2="1.629" y2="1.903" xlink:href="#linear-gradient-12"/>
    <linearGradient id="linear-gradient-56" x1="2.335" y1="2.669" x2="1.021" y2="0.543" xlink:href="#linear-gradient-7"/>
    <linearGradient id="linear-gradient-57" x1="5.302" y1="15.91" x2="6.303" y2="15.91" xlink:href="#linear-gradient-7"/>
    <linearGradient id="linear-gradient-58" x1="15.791" y1="-6.042" x2="16.791" y2="-6.042" xlink:href="#linear-gradient-7"/>
    <linearGradient id="linear-gradient-59" x1="27.908" y1="-0.4" x2="28.909" y2="-0.4" xlink:href="#linear-gradient-12"/>
    <linearGradient id="linear-gradient-60" x1="133.396" y1="2.543" x2="134.398" y2="2.543" xlink:href="#linear-gradient-12"/>
    <linearGradient id="linear-gradient-61" x1="16.415" y1="-5.283" x2="17.415" y2="-5.283" xlink:href="#linear-gradient-7"/>
    <linearGradient id="linear-gradient-62" x1="29.007" y1="-0.189" x2="30.007" y2="-0.189" xlink:href="#linear-gradient-12"/>
    <linearGradient id="linear-gradient-63" x1="138.832" y1="3.866" x2="139.835" y2="3.866" xlink:href="#linear-gradient-12"/>
    <linearGradient id="linear-gradient-64" x1="18.524" y1="-11.05" x2="19.524" y2="-11.05" xlink:href="#linear-gradient-7"/>
    <linearGradient id="linear-gradient-65" x1="32.719" y1="-1.758" x2="33.719" y2="-1.758" xlink:href="#linear-gradient-12"/>
    <linearGradient id="linear-gradient-66" x1="155.649" y1="-5.955" x2="156.646" y2="-5.955" xlink:href="#linear-gradient-12"/>
    <linearGradient id="linear-gradient-67" x1="70.268" y1="-30.501" x2="69.038" y2="-28.213" gradientUnits="objectBoundingBox">
      <stop offset="0" stop-color="#311944"/>
      <stop offset="1" stop-color="#6b3976"/>
    </linearGradient>
    <linearGradient id="linear-gradient-68" x1="10.5" y1="-4.74" x2="10.513" y2="-5.091" xlink:href="#linear-gradient-2"/>
    <linearGradient id="linear-gradient-69" x1="7.18" y1="-4.457" x2="7.263" y2="-5.364" xlink:href="#linear-gradient-2"/>
    <linearGradient id="linear-gradient-70" x1="65.206" y1="-27.06" x2="64.015" y2="-25.115" xlink:href="#linear-gradient-67"/>
    <linearGradient id="linear-gradient-71" x1="13.768" y1="-1.865" x2="14.521" y2="-2.892" xlink:href="#linear-gradient-12"/>
    <linearGradient id="linear-gradient-72" x1="13.703" y1="-3.658" x2="14.457" y2="-5.305" xlink:href="#linear-gradient-12"/>
    <linearGradient id="linear-gradient-73" x1="7.135" y1="-0.749" x2="7.469" y2="-1.278" xlink:href="#linear-gradient-12"/>
    <linearGradient id="linear-gradient-74" x1="16.526" y1="-3.177" x2="17.526" y2="-3.177" xlink:href="#linear-gradient-12"/>
    <linearGradient id="linear-gradient-75" x1="29.194" y1="-5.982" x2="28.728" y2="-4.717" xlink:href="#linear-gradient-7"/>
    <linearGradient id="linear-gradient-76" x1="87.563" y1="-5.849" x2="86.183" y2="-4.37" xlink:href="#linear-gradient-7"/>
    <linearGradient id="linear-gradient-77" x1="393.467" y1="-29.83" x2="387.23" y2="-22.946" xlink:href="#linear-gradient-7"/>
    <linearGradient id="linear-gradient-78" x1="16.212" y1="-12.095" x2="16.248" y2="-13.264" xlink:href="#linear-gradient-12"/>
    <linearGradient id="linear-gradient-79" x1="9.769" y1="-2.578" x2="10.229" y2="-3.651" xlink:href="#linear-gradient-12"/>
    <linearGradient id="linear-gradient-80" x1="37.118" y1="-52.112" x2="37.774" y2="-55.859" xlink:href="#linear-gradient-2"/>
    <linearGradient id="linear-gradient-81" x1="107.572" y1="-75.636" x2="106.882" y2="-71.2" gradientUnits="objectBoundingBox">
      <stop offset="0" stop-color="#311944"/>
      <stop offset="1" stop-color="#a03976"/>
    </linearGradient>
    <linearGradient id="linear-gradient-82" x1="6.652" y1="-4.658" x2="6.829" y2="-3.994" xlink:href="#linear-gradient-67"/>
    <linearGradient id="linear-gradient-83" x1="29.431" y1="-54.287" x2="30.053" y2="-58.369" xlink:href="#linear-gradient-2"/>
    <linearGradient id="linear-gradient-84" x1="57.878" y1="-58.451" x2="57.52" y2="-55.525" xlink:href="#linear-gradient-81"/>
    <linearGradient id="linear-gradient-85" x1="4.132" y1="-4.282" x2="4.265" y2="-3.459" xlink:href="#linear-gradient-67"/>
    <linearGradient id="linear-gradient-86" x1="8.889" y1="-2.713" x2="8.856" y2="-3.914" xlink:href="#linear-gradient-7"/>
    <linearGradient id="linear-gradient-87" x1="4.256" y1="-1.055" x2="4.321" y2="-2.14" xlink:href="#linear-gradient-7"/>
    <linearGradient id="linear-gradient-88" x1="20.205" y1="-8.966" x2="19.739" y2="-7.703" xlink:href="#linear-gradient-81"/>
    <linearGradient id="linear-gradient-89" x1="60.815" y1="-10.146" x2="59.435" y2="-8.666" xlink:href="#linear-gradient-81"/>
    <linearGradient id="linear-gradient-90" x1="5.033" y1="-1.756" x2="5.116" y2="-3.204" xlink:href="#linear-gradient-7"/>
  </defs>
  <g id="quienesomosTRC" transform="translate(0.076 0.002)">
    <g id="b" transform="translate(-0.076 -0.002)">
      <g id="c" transform="translate(0 0)">
        <g id="Grupo_1797" data-name="Grupo 1797">
          <path id="Trazado_3360" data-name="Trazado 3360" d="M364.273,1.173c41.269,4.16,115.757,11.689,158.182,71.638,43.811,61.894,42.155,163.767-1.329,220.307-21.568,28.039-50.9,41.654-47.451,63.531,4.352,27.577,54.268,26.653,59.313,48.664,8.589,37.379-114.448,131.318-254.412,133.8-28.694.5-188.532,3.351-254.412-117.587-73.429-134.9,42.675-290.385,50.127-300.053C179.035-14.541,347.9-.464,364.273,1.173Z" transform="translate(0.076 0.002)" fill="url(#linear-gradient)"/>
          <g id="Grupo_1792" data-name="Grupo 1792" transform="translate(86.558 72.485)">
            <path id="Trazado_3361" data-name="Trazado 3361" d="M475.83,678.008l407.645,36.8c6.085.5,14.809-7.549,14.809-13.654V392.514a10.43,10.43,0,0,0-10.3-10.438L476.831,376.4c-5.816-.077-16.831,4.217-16.831,10.033l6.24,281.161a10.448,10.448,0,0,0,9.59,10.418Z" transform="translate(-457.959 -376.395)" fill="url(#linear-gradient-2)"/>
            <path id="Trazado_3362" data-name="Trazado 3362" d="M458.99,692.889l411.15,33.547a10.455,10.455,0,0,0,11.3-10.418v-308.6a10.43,10.43,0,0,0-10.3-10.438L459.992,391.3A10.455,10.455,0,0,0,449.4,401.734V682.49a10.444,10.444,0,0,0,9.59,10.4Z" transform="translate(-449.4 -388.426)" fill="url(#linear-gradient-3)"/>
            <path id="Trazado_3363" data-name="Trazado 3363" d="M944.2,743.953,595.941,716.222a10.688,10.688,0,0,1-9.841-10.669V439.182a10.69,10.69,0,0,1,10.861-10.688l348.255,5.354a10.707,10.707,0,0,1,10.534,10.688V733.3a10.694,10.694,0,0,1-11.555,10.65Z" transform="translate(-559.775 -418.46)" fill="url(#linear-gradient-4)"/>
            <path id="Trazado_3364" data-name="Trazado 3364" d="M495.24,1078.179h0a3.649,3.649,0,0,0,3.64-3.64v-27a3.649,3.649,0,0,0-3.64-3.64h0a3.649,3.649,0,0,0-3.64,3.64v27A3.649,3.649,0,0,0,495.24,1078.179Z" transform="translate(-483.473 -915.354)" fill="url(#linear-gradient-5)"/>
            <path id="Trazado_3365" data-name="Trazado 3365" d="M750.759,681.26c31.717-27.673,57.137-16.85,90.7-44.947,41.654-34.895,20.914-67.074,57.58-97.79,45.852-38.419,101.237-7.26,135.651-45.737,9.013-10.072,14.019-22.069,16.639-34.086a10.689,10.689,0,0,1,7.606,10.226V757.694a10.7,10.7,0,0,1-11.535,10.669L713.9,741.787c6.1-20.683,16.966-43.156,36.859-60.527Z" transform="translate(-662.964 -442.85)" fill="#fff" opacity="0.35"/>
            <g id="Grupo_1791" data-name="Grupo 1791" transform="translate(26.325 10.033)">
              <g id="Grupo_1790" data-name="Grupo 1790" clip-path="url(#clip-path)">
                <g id="Grupo_1789" data-name="Grupo 1789" transform="translate(-2.099 -3.215)">
                  <path id="Trazado_3366" data-name="Trazado 3366" d="M575.2,701.531l372.654,31v-315.5L575.2,411.8Z" transform="translate(-575.2 -411.8)" fill="url(#linear-gradient-6)"/>
                  <path id="Trazado_3367" data-name="Trazado 3367" d="M1720.9,732.883l103.914,8.666-.019-312.185L1720.9,427.9Z" transform="translate(-1500.266 -424.8)" fill="url(#linear-gradient-7)"/>
                  <path id="Trazado_3368" data-name="Trazado 3368" d="M703.8,705.045l94.767,7.876V414.929L703.8,413.6Z" transform="translate(-679.035 -413.253)" fill="url(#linear-gradient-8)"/>
                  <path id="Trazado_3369" data-name="Trazado 3369" d="M575.2,1406.5v91.608l372.654,30.427v-99.754Z" transform="translate(-575.2 -1214.945)" fill="url(#linear-gradient-9)"/>
                  <path id="Trazado_3370" data-name="Trazado 3370" d="M575.2,445.9v91.608l372.654,13.981V451.735Z" transform="translate(-575.2 -439.333)" fill="url(#linear-gradient-10)"/>
                  <g id="Grupo_1766" data-name="Grupo 1766" transform="translate(289.172 84.289)">
                    <path id="Trazado_3371" data-name="Trazado 3371" d="M2085.6,873.58c0,13.211,11.478,24.881,26.19,26.152,15.387,1.31,28.4-9.186,28.4-23.494s-13-26.075-28.4-26.248c-14.713-.193-26.19,10.38-26.19,23.591Z" transform="translate(-2083.906 -849.891)" fill="url(#linear-gradient-11)"/>
                    <path id="Trazado_3372" data-name="Trazado 3372" d="M2076.8,873.1c0,13.191,11.458,24.881,26.171,26.133,15.387,1.31,28.385-9.186,28.385-23.494s-13-26.055-28.385-26.248c-14.713-.154-26.171,10.419-26.171,23.61Z" transform="translate(-2076.8 -849.491)" fill="url(#linear-gradient-12)"/>
                    <path id="Trazado_3373" data-name="Trazado 3373" d="M2085.1,879.473c0,12.44,10.823,23.417,24.669,24.573,14.443,1.194,26.614-8.666,26.614-22.088s-12.171-24.476-26.614-24.669c-13.846-.193-24.669,9.744-24.669,22.185Z" transform="translate(-2083.501 -855.785)" fill="url(#linear-gradient-13)"/>
                    <g id="Grupo_1764" data-name="Grupo 1764" transform="translate(12.933 9.317)">
                      <path id="Trazado_3374" data-name="Trazado 3374" d="M2180.581,913.3c-4.583-.173-8.281-3.755-8.281-8.011s3.7-7.568,8.281-7.414,8.3,3.736,8.3,8.011S2185.164,913.477,2180.581,913.3Z" transform="translate(-2166.842 -897.873)" fill="#fff"/>
                      <path id="Trazado_3375" data-name="Trazado 3375" d="M2144.042,1000.571c1.753-5.642,7.222-9.147,13.731-8.916,6.528.25,12.055,4.2,13.827,10.014a2.043,2.043,0,0,1-.366,1.868,2.189,2.189,0,0,1-1.81.79l-23.205-.943a2.474,2.474,0,0,1-1.791-.944,2.019,2.019,0,0,1-.385-1.868Z" transform="translate(-2143.956 -973.586)" fill="#fff"/>
                    </g>
                    <g id="Grupo_1765" data-name="Grupo 1765" transform="translate(11.15 1.407)">
                      <path id="Trazado_3376" data-name="Trazado 3376" d="M2161.641,870.03c.905-2.715.867-6.914-3.582-13.23,11.478,3.428,20.028,13.384,20.028,24.977,0,14.308-13,24.8-28.386,23.494a30.043,30.043,0,0,1-15-5.508,21.945,21.945,0,0,1,3.486-11.593c6.855-10.284,20.586-9.61,23.455-18.141Z" transform="translate(-2134.7 -856.8)" fill="url(#linear-gradient-14)"/>
                    </g>
                  </g>
                  <g id="Grupo_1769" data-name="Grupo 1769" transform="translate(289.172 140.783)">
                    <path id="Trazado_3377" data-name="Trazado 3377" d="M2085.6,1166.447c0,13.211,11.478,25.035,26.19,26.479,15.387,1.5,28.4-8.82,28.4-23.148,0-14.308-13-26.229-28.4-26.614-14.713-.347-26.19,10.072-26.19,23.282Z" transform="translate(-2083.906 -1143.098)" fill="url(#linear-gradient-15)"/>
                    <path id="Trazado_3378" data-name="Trazado 3378" d="M2076.8,1166.124c0,13.192,11.458,25.016,26.171,26.46,15.387,1.5,28.385-8.82,28.385-23.128s-13-26.229-28.385-26.595c-14.713-.366-26.171,10.072-26.171,23.263Z" transform="translate(-2076.8 -1142.852)" fill="url(#linear-gradient-16)"/>
                    <path id="Trazado_3379" data-name="Trazado 3379" d="M2085.1,1172.358c0,12.441,10.823,23.572,24.669,24.881,14.443,1.386,26.614-8.339,26.614-21.761s-12.171-24.63-26.614-25.016c-13.846-.347-24.669,9.455-24.669,21.9Z" transform="translate(-2083.501 -1148.99)" fill="url(#linear-gradient-17)"/>
                    <g id="Grupo_1767" data-name="Grupo 1767" transform="translate(12.933 9.301)">
                      <path id="Trazado_3380" data-name="Trazado 3380" d="M2180.581,1206.584c-4.583-.231-8.281-3.852-8.281-8.107s3.7-7.53,8.281-7.318,8.3,3.852,8.3,8.107-3.717,7.549-8.3,7.318Z" transform="translate(-2166.842 -1191.149)" fill="#fff"/>
                      <path id="Trazado_3381" data-name="Trazado 3381" d="M2144.042,1293.553c1.753-5.623,7.222-9.07,13.731-8.743,6.528.327,12.055,4.352,13.827,10.187a2.043,2.043,0,0,1-.366,1.868,2.232,2.232,0,0,1-1.81.771l-23.205-1.233a2.494,2.494,0,0,1-1.791-.963,2.047,2.047,0,0,1-.385-1.887Z" transform="translate(-2143.956 -1266.756)" fill="#fff"/>
                    </g>
                    <g id="Grupo_1768" data-name="Grupo 1768" transform="translate(11.15 1.473)">
                      <path id="Trazado_3382" data-name="Trazado 3382" d="M2161.641,1163.788c.905-2.715.867-6.894-3.582-13.288,11.478,3.582,20.028,13.634,20.028,25.227,0,14.308-13,24.63-28.386,23.128a30.61,30.61,0,0,1-15-5.7,21.77,21.77,0,0,1,3.486-11.555c6.855-10.149,20.586-9.3,23.455-17.813Z" transform="translate(-2134.7 -1150.5)" fill="url(#linear-gradient-18)"/>
                    </g>
                  </g>
                  <g id="Grupo_1772" data-name="Grupo 1772" transform="translate(289.172 253.701)">
                    <path id="Trazado_3383" data-name="Trazado 3383" d="M2085.6,1752.38c0,13.211,11.478,25.323,26.19,27.134,15.387,1.887,28.4-8.108,28.4-22.435s-13-26.556-28.4-27.326c-14.713-.712-26.19,9.436-26.19,22.628Z" transform="translate(-2083.906 -1729.618)" fill="url(#linear-gradient-19)"/>
                    <path id="Trazado_3384" data-name="Trazado 3384" d="M2076.8,1751.852c0,13.192,11.458,25.3,26.171,27.115,15.387,1.887,28.385-8.107,28.385-22.416s-13-26.556-28.385-27.307c-14.713-.732-26.171,9.4-26.171,22.608Z" transform="translate(-2076.8 -1729.206)" fill="url(#linear-gradient-20)"/>
                    <path id="Trazado_3385" data-name="Trazado 3385" d="M2085.1,1758.2c0,12.44,10.823,23.841,24.669,25.5,14.443,1.752,26.614-7.665,26.614-21.087s-12.171-24.939-26.614-25.67c-13.846-.713-24.669,8.82-24.669,21.26Z" transform="translate(-2083.501 -1735.423)" fill="url(#linear-gradient-21)"/>
                    <g id="Grupo_1770" data-name="Grupo 1770" transform="translate(12.936 9.335)">
                      <path id="Trazado_3386" data-name="Trazado 3386" d="M2180.581,1793.128c-4.583-.347-8.281-4.063-8.281-8.319s3.7-7.434,8.281-7.106,8.3,4.044,8.3,8.319-3.717,7.453-8.3,7.106Z" transform="translate(-2166.845 -1777.68)" fill="#fff"/>
                      <path id="Trazado_3387" data-name="Trazado 3387" d="M2144.056,1879.7c1.752-5.585,7.221-8.878,13.73-8.4,6.528.5,12.055,4.66,13.827,10.534a1.985,1.985,0,0,1-.366,1.849,2.146,2.146,0,0,1-1.81.732l-23.206-1.81a2.538,2.538,0,0,1-1.791-1,2.164,2.164,0,0,1-.385-1.906Z" transform="translate(-2143.974 -1853.238)" fill="#fff"/>
                    </g>
                    <g id="Grupo_1771" data-name="Grupo 1771" transform="translate(11.15 1.732)">
                      <path id="Trazado_3388" data-name="Trazado 3388" d="M2161.641,1751.565c.905-2.7.867-6.875-3.582-13.365,11.478,3.871,20.028,14.154,20.028,25.728,0,14.308-13,24.3-28.386,22.416a31.4,31.4,0,0,1-15-6.066,21.261,21.261,0,0,1,3.486-11.458c6.855-10.014,20.586-8.839,23.455-17.255Z" transform="translate(-2134.7 -1738.2)" fill="url(#linear-gradient-22)"/>
                    </g>
                  </g>
                  <g id="Grupo_1775" data-name="Grupo 1775" transform="translate(289.172 197.217)">
                    <path id="Trazado_3389" data-name="Trazado 3389" d="M2085.6,1459.545c0,13.211,11.478,25.17,26.19,26.807,15.387,1.695,28.4-8.473,28.4-22.782s-13-26.4-28.4-26.961c-14.713-.558-26.19,9.725-26.19,22.936Z" transform="translate(-2083.906 -1436.455)" fill="url(#linear-gradient-23)"/>
                    <path id="Trazado_3390" data-name="Trazado 3390" d="M2076.8,1458.876c0,13.192,11.458,25.17,26.171,26.787,15.387,1.695,28.385-8.474,28.385-22.782s-13-26.383-28.385-26.961C2088.258,1435.4,2076.8,1445.684,2076.8,1458.876Z" transform="translate(-2076.8 -1435.902)" fill="url(#linear-gradient-24)"/>
                    <path id="Trazado_3391" data-name="Trazado 3391" d="M2085.1,1465.284c0,12.44,10.823,23.706,24.669,25.189,14.443,1.56,26.614-7.992,26.614-21.414s-12.171-24.784-26.614-25.343c-13.846-.52-24.669,9.128-24.669,21.568Z" transform="translate(-2083.501 -1442.195)" fill="url(#linear-gradient-25)"/>
                    <g id="Grupo_1773" data-name="Grupo 1773" transform="translate(12.936 9.362)">
                      <path id="Trazado_3392" data-name="Trazado 3392" d="M2180.581,1499.94c-4.583-.289-8.281-3.967-8.281-8.2s3.7-7.472,8.281-7.2,8.3,3.948,8.3,8.223-3.717,7.472-8.3,7.183Z" transform="translate(-2166.845 -1484.518)" fill="#fff"/>
                      <path id="Trazado_3393" data-name="Trazado 3393" d="M2144.056,1586.732c1.752-5.6,7.221-8.974,13.73-8.57a15.141,15.141,0,0,1,13.827,10.361,1.985,1.985,0,0,1-.366,1.849,2.216,2.216,0,0,1-1.81.751l-23.206-1.521a2.451,2.451,0,0,1-1.791-.982,2.124,2.124,0,0,1-.385-1.887Z" transform="translate(-2143.974 -1560.103)" fill="#fff"/>
                    </g>
                    <g id="Grupo_1774" data-name="Grupo 1774" transform="translate(11.15 1.617)">
                      <path id="Trazado_3394" data-name="Trazado 3394" d="M2161.641,1457.626c.905-2.7.867-6.895-3.582-13.326,11.478,3.717,20.028,13.9,20.028,25.478,0,14.308-13,24.476-28.386,22.782a30.633,30.633,0,0,1-15-5.893,21.546,21.546,0,0,1,3.486-11.516c6.855-10.072,20.586-9.051,23.455-17.524Z" transform="translate(-2134.7 -1444.3)" fill="url(#linear-gradient-26)"/>
                    </g>
                  </g>
                  <g id="Grupo_1776" data-name="Grupo 1776" transform="translate(213.389 13.384)">
                    <path id="Trazado_3395" data-name="Trazado 3395" d="M1686.9,481.3l129.681,2.118a3.763,3.763,0,0,1,3.832,3.6v53.96a3.575,3.575,0,0,1-3.832,3.428l-77.261-2.311a4.031,4.031,0,0,1-2.7-1.175l-52.38-53.883a3.394,3.394,0,0,1,2.658-5.739Z" transform="translate(-1683.279 -481.298)" fill="url(#linear-gradient-27)"/>
                    <path id="Trazado_3396" data-name="Trazado 3396" d="M1860.492,565.711V518.318L1742,516.2l46.218,47.451Z" transform="translate(-1730.692 -509.479)" fill="url(#linear-gradient-28)"/>
                  </g>
                  <g id="Grupo_1779" data-name="Grupo 1779" transform="translate(18.275 11.266)">
                    <g id="Grupo_1777" data-name="Grupo 1777" transform="translate(98.252 0.481)">
                      <path id="Trazado_3397" data-name="Trazado 3397" d="M1258.5,523.3,1336.936,525V509.706L1258.5,508.3Z" transform="translate(-1243.44 -501.463)" fill="url(#linear-gradient-29)"/>
                      <path id="Trazado_3398" data-name="Trazado 3398" d="M1345.878,533.834v-9.687L1273.2,522.8v9.533Z" transform="translate(-1255.31 -513.171)" fill="#fff"/>
                      <path id="Trazado_3399" data-name="Trazado 3399" d="M1180.3,494.311l30.215.655-10.63-21.857L1180.3,472.8Z" transform="translate(-1180.3 -472.8)" fill="url(#linear-gradient-30)"/>
                      <path id="Trazado_3400" data-name="Trazado 3400" d="M1217.8,503.742l-7.915-16.292-14.982-.25v16.061Z" transform="translate(-1192.088 -484.427)" fill="#fff"/>
                      <path id="Trazado_3401" data-name="Trazado 3401" d="M1612,543.44l5.276.116V536.8l-5.276-.1Z" transform="translate(-1528.865 -524.394)" fill="#fff"/>
                      <path id="Trazado_3402" data-name="Trazado 3402" d="M1575.1,542.74l5.238.1V536.1l-5.238-.1Z" transform="translate(-1499.071 -523.829)" fill="#fff"/>
                      <path id="Trazado_3403" data-name="Trazado 3403" d="M1538.2,542.021l5.238.115V535.4l-5.238-.1Z" transform="translate(-1469.277 -523.264)" fill="#fff"/>
                      <path id="Trazado_3404" data-name="Trazado 3404" d="M1501.5,541.321l5.219.1v-6.7l-5.219-.115Z" transform="translate(-1439.645 -522.699)" fill="#fff"/>
                      <path id="Trazado_3405" data-name="Trazado 3405" d="M1464.9,540.682l5.2.116v-6.7l-5.2-.1Z" transform="translate(-1410.093 -522.214)" fill="url(#linear-gradient-31)"/>
                      <path id="Trazado_3406" data-name="Trazado 3406" d="M1428.5,539.982l5.18.1V533.4l-5.18-.1Z" transform="translate(-1380.703 -521.649)" fill="url(#linear-gradient-32)"/>
                      <path id="Trazado_3407" data-name="Trazado 3407" d="M1392.1,539.263l5.161.116V532.7l-5.161-.1Z" transform="translate(-1351.312 -521.084)" fill="url(#linear-gradient-33)"/>
                      <path id="Trazado_3408" data-name="Trazado 3408" d="M1355.9,538.563l5.142.1V532l-5.142-.1Z" transform="translate(-1322.083 -520.519)" fill="url(#linear-gradient-34)"/>
                    </g>
                    <g id="Grupo_1778" data-name="Grupo 1778">
                      <path id="Trazado_3409" data-name="Trazado 3409" d="M744.434,514,670.1,512.417V497.8l74.334,1.329Z" transform="translate(-670.1 -492.504)" fill="url(#linear-gradient-35)"/>
                      <path id="Trazado_3410" data-name="Trazado 3410" d="M684.1,521.182V511.9l68.865,1.271v9.436Z" transform="translate(-681.404 -503.889)" fill="#fff"/>
                      <path id="Trazado_3411" data-name="Trazado 3411" d="M1009.057,492.1l-29.657-.635L989.741,470.3l19.315.327Z" transform="translate(-919.836 -470.3)" fill="url(#linear-gradient-36)"/>
                      <path id="Trazado_3412" data-name="Trazado 3412" d="M1002.1,500.391l7.722-15.791,14.771.25v16Z" transform="translate(-938.165 -481.846)" fill="#fff"/>
                      <path id="Trazado_3413" data-name="Trazado 3413" d="M699.153,525.967l-4.853-.1V519.4l4.853.1Z" transform="translate(-689.64 -509.945)" fill="#fff"/>
                      <path id="Trazado_3414" data-name="Trazado 3414" d="M733.353,526.586l-4.853-.1V520l4.853.1Z" transform="translate(-717.254 -510.429)" fill="#fff"/>
                      <path id="Trazado_3415" data-name="Trazado 3415" d="M767.591,527.286l-4.891-.1V520.7l4.891.1Z" transform="translate(-744.867 -510.994)" fill="#fff"/>
                      <path id="Trazado_3416" data-name="Trazado 3416" d="M801.991,527.905l-4.891-.1V521.3l4.891.1Z" transform="translate(-772.643 -511.479)" fill="url(#linear-gradient-37)"/>
                      <path id="Trazado_3417" data-name="Trazado 3417" d="M836.411,528.605l-4.911-.1V522l4.911.1Z" transform="translate(-800.418 -512.044)" fill="url(#linear-gradient-38)"/>
                      <path id="Trazado_3418" data-name="Trazado 3418" d="M871.03,529.224l-4.93-.1V522.6l4.93.1Z" transform="translate(-828.355 -512.528)" fill="url(#linear-gradient-39)"/>
                      <path id="Trazado_3419" data-name="Trazado 3419" d="M905.749,529.925l-4.949-.1V523.3l4.949.1Z" transform="translate(-856.372 -513.093)" fill="url(#linear-gradient-40)"/>
                      <path id="Trazado_3420" data-name="Trazado 3420" d="M940.549,530.544l-4.949-.1V523.9l4.949.1Z" transform="translate(-884.471 -513.578)" fill="url(#linear-gradient-41)"/>
                    </g>
                  </g>
                  <g id="Grupo_1780" data-name="Grupo 1780" transform="translate(121.881 104.761)">
                    <path id="Trazado_3421" data-name="Trazado 3421" d="M1647.4,995.24l41.77,1.926V957.36l-41.77-1.56Z" transform="translate(-1562.801 -955.8)" fill="url(#linear-gradient-42)"/>
                    <path id="Trazado_3422" data-name="Trazado 3422" d="M1671.9,1010.5l32.257,1.444V981.232L1671.9,980Z" transform="translate(-1582.583 -975.34)" fill="#fff"/>
                    <path id="Trazado_3423" data-name="Trazado 3423" d="M1208.1,998.3l80.959,3.409V990l-80.959-3.2Z" transform="translate(-1208.1 -980.83)" fill="url(#linear-gradient-43)"/>
                    <path id="Trazado_3424" data-name="Trazado 3424" d="M1218.4,1004.68l76.915,3.2v-7.915L1218.4,996.9Z" transform="translate(-1216.416 -988.985)" fill="#fff"/>
                    <path id="Trazado_3425" data-name="Trazado 3425" d="M1447.3,1013.857l32.834,1.367v-7.915L1447.3,1006Z" transform="translate(-1401.236 -996.333)" fill="#fff"/>
                  </g>
                  <g id="Grupo_1781" data-name="Grupo 1781" transform="translate(169.448 133.994)">
                    <path id="Trazado_3426" data-name="Trazado 3426" d="M1455.1,1379.065c0,3.717,10.63,7.356,23.822,8.127,13.269.79,24.072-1.637,24.072-5.392s-10.8-7.414-24.072-8.146C1465.73,1372.922,1455.1,1375.349,1455.1,1379.065Z" transform="translate(-1455.1 -1322.312)" fill="url(#linear-gradient-44)"/>
                    <path id="Trazado_3427" data-name="Trazado 3427" d="M1508.6,1203.668c0,3.563,6.047,6.8,13.519,7.241,7.491.443,13.6-2.119,13.6-5.7s-6.1-45.371-13.6-45.718c-7.472-.347-13.519,40.614-13.519,44.177Z" transform="translate(-1498.297 -1149.495)" fill="url(#linear-gradient-45)"/>
                    <path id="Trazado_3428" data-name="Trazado 3428" d="M1564.1,1111.121c0,2.272,1.271,4.66,2.831,4.737,1.579.077,2.85-2.2,2.85-4.487s-1.271-3.7-2.85-3.775c-1.56-.038-2.831,1.252-2.831,3.524Z" transform="translate(-1543.109 -1107.595)" fill="url(#linear-gradient-46)"/>
                  </g>
                  <g id="Grupo_1782" data-name="Grupo 1782" transform="translate(58.89 77.878)">
                    <path id="Trazado_3429" data-name="Trazado 3429" d="M920,855.909l-39-1.6V816.2l39,1.252Z" transform="translate(-881 -816.2)" fill="url(#linear-gradient-47)"/>
                    <path id="Trazado_3430" data-name="Trazado 3430" d="M934.019,870.077,903.9,868.883V839.4l30.119,1Z" transform="translate(-899.49 -834.932)" fill="#fff"/>
                    <path id="Trazado_3431" data-name="Trazado 3431" d="M1181.689,884.8l-80.188-2.966V870.4l80.188,2.754Z" transform="translate(-1059.037 -859.962)" fill="url(#linear-gradient-48)"/>
                    <path id="Trazado_3432" data-name="Trazado 3432" d="M1187.964,890.915l-76.164-2.773V880.4l76.164,2.638Z" transform="translate(-1067.354 -868.037)" fill="#fff"/>
                    <path id="Trazado_3433" data-name="Trazado 3433" d="M1143.652,889.3l-31.852-1.155V880.4l31.852,1.1Z" transform="translate(-1067.354 -868.037)" fill="#fff"/>
                  </g>
                  <g id="Grupo_1783" data-name="Grupo 1783" transform="translate(87.603 108.727)">
                    <path id="Trazado_3434" data-name="Trazado 3434" d="M1076.2,1245.236c0,3.7-10.4,6.124-23.167,5.43-12.691-.674-22.936-4.2-22.936-7.838s10.226-6.085,22.936-5.45c12.768.655,23.167,4.16,23.167,7.857Z" transform="translate(-1030.1 -1187.037)" fill="url(#linear-gradient-49)"/>
                    <path id="Trazado_3435" data-name="Trazado 3435" d="M1107.713,1071.948c0,3.524-5.873,6.047-13.1,5.681-7.2-.385-13.018-3.524-13.018-7.01s5.816-43.715,13.018-43.426C1101.84,1027.482,1107.713,1068.424,1107.713,1071.948Z" transform="translate(-1071.682 -1017.409)" fill="url(#linear-gradient-50)"/>
                    <path id="Trazado_3436" data-name="Trazado 3436" d="M1140.469,980.07c0,2.234-1.233,4.468-2.735,4.41s-2.734-2.407-2.734-4.622,1.213-3.524,2.734-3.466S1140.469,977.817,1140.469,980.07Z" transform="translate(-1114.799 -976.39)" fill="url(#linear-gradient-51)"/>
                  </g>
                  <g id="Grupo_1784" data-name="Grupo 1784" transform="translate(62.799 123.286)">
                    <path id="Trazado_3437" data-name="Trazado 3437" d="M928.338,1210.987c0,2.176-6.086,3.62-13.557,3.235-7.453-.385-13.48-2.446-13.48-4.6s6.028-3.62,13.48-3.255c7.472.366,13.557,2.446,13.557,4.622Z" transform="translate(-901.3 -1176.591)" fill="url(#linear-gradient-52)"/>
                    <path id="Trazado_3438" data-name="Trazado 3438" d="M946.91,1108.455c0,2.08-3.428,3.582-7.665,3.37-4.217-.212-7.645-2.061-7.645-4.14s3.428-25.882,7.645-25.69S946.91,1106.375,946.91,1108.455Z" transform="translate(-925.765 -1076.216)" fill="url(#linear-gradient-53)"/>
                    <path id="Trazado_3439" data-name="Trazado 3439" d="M966.2,1054.171c0,1.328-.713,2.638-1.6,2.6s-1.6-1.425-1.6-2.735.713-2.08,1.6-2.041S966.2,1052.842,966.2,1054.171Z" transform="translate(-951.118 -1051.993)" fill="url(#linear-gradient-54)"/>
                  </g>
                  <g id="Grupo_1785" data-name="Grupo 1785" transform="translate(29.503 124.71)">
                    <path id="Trazado_3440" data-name="Trazado 3440" d="M773.251,1324.558c0,3.64-10.129,6.008-22.551,5.276-12.344-.712-22.3-4.218-22.3-7.819s9.956-5.97,22.3-5.3c12.44.693,22.551,4.2,22.551,7.838Z" transform="translate(-728.4 -1267.072)" fill="url(#linear-gradient-55)"/>
                    <path id="Trazado_3441" data-name="Trazado 3441" d="M803.982,1153.608c0,3.466-5.719,5.951-12.729,5.546-6.99-.4-12.652-3.524-12.652-6.971s5.662-43.1,12.652-42.79c7.029.327,12.729,40.749,12.729,44.215Z" transform="translate(-768.933 -1099.762)" fill="url(#linear-gradient-56)"/>
                    <path id="Trazado_3442" data-name="Trazado 3442" d="M835.815,1063.032c0,2.2-1.194,4.41-2.658,4.352s-2.658-2.369-2.658-4.583,1.194-3.466,2.658-3.408S835.815,1060.817,835.815,1063.032Z" transform="translate(-810.838 -1059.39)" fill="url(#linear-gradient-57)"/>
                  </g>
                  <g id="Grupo_1786" data-name="Grupo 1786" transform="translate(136.44 177.875)">
                    <path id="Trazado_3443" data-name="Trazado 3443" d="M1283.7,1604.178c0,3.7,10.476,7.414,23.456,8.3,13.057.905,23.706-1.386,23.706-5.122s-10.65-7.453-23.706-8.319C1294.176,1598.17,1283.7,1600.481,1283.7,1604.178Z" transform="translate(-1283.7 -1548.132)" fill="url(#linear-gradient-58)"/>
                    <path id="Trazado_3444" data-name="Trazado 3444" d="M1336.4,1430.48c0,3.543,5.95,6.8,13.307,7.318,7.376.5,13.384-1.964,13.384-5.527s-6.008-45.082-13.384-45.486c-7.357-.443-13.307,40.152-13.307,43.7Z" transform="translate(-1326.251 -1376.899)" fill="url(#linear-gradient-59)"/>
                    <path id="Trazado_3445" data-name="Trazado 3445" d="M1391,1338.9c0,2.253,1.252,4.641,2.792,4.737,1.541.077,2.792-2.157,2.792-4.41s-1.252-3.678-2.792-3.755C1392.252,1335.354,1391,1336.645,1391,1338.9Z" transform="translate(-1370.336 -1335.463)" fill="url(#linear-gradient-60)"/>
                  </g>
                  <g id="Grupo_1787" data-name="Grupo 1787" transform="translate(214.799 176.761)">
                    <path id="Trazado_3446" data-name="Trazado 3446" d="M1690.6,1534.106c0,2.811,8.107,5.6,18.16,6.259,10.091.655,18.314-1.117,18.314-3.948s-8.223-5.642-18.314-6.259c-10.052-.636-18.16,1.136-18.16,3.948Z" transform="translate(-1690.6 -1491.446)" fill="url(#linear-gradient-61)"/>
                    <path id="Trazado_3447" data-name="Trazado 3447" d="M1731.4,1401.868c0,2.7,4.6,5.161,10.3,5.527s10.341-1.521,10.341-4.237-4.641-34.24-10.341-34.567C1736,1368.282,1731.4,1399.171,1731.4,1401.868Z" transform="translate(-1723.543 -1361.095)" fill="url(#linear-gradient-62)"/>
                    <path id="Trazado_3448" data-name="Trazado 3448" d="M1773.6,1332.282c0,1.714.963,3.524,2.157,3.6,1.194.058,2.157-1.637,2.157-3.351s-.963-2.792-2.157-2.85c-1.175-.077-2.157.886-2.157,2.6Z" transform="translate(-1757.616 -1329.677)" fill="url(#linear-gradient-63)"/>
                  </g>
                  <g id="Grupo_1788" data-name="Grupo 1788" transform="translate(181.792 207.13)">
                    <path id="Trazado_3449" data-name="Trazado 3449" d="M1519.2,1690.143c0,2.793,7.992,5.623,17.89,6.336,9.937.712,18.025-.982,18.025-3.794s-8.088-5.643-18.025-6.336c-9.9-.693-17.89,1-17.89,3.794Z" transform="translate(-1519.2 -1647.907)" fill="url(#linear-gradient-64)"/>
                    <path id="Trazado_3450" data-name="Trazado 3450" d="M1559.4,1558.958c0,2.677,4.545,5.161,10.149,5.546,5.623.4,10.187-1.444,10.187-4.141s-4.564-34.028-10.187-34.375C1563.925,1525.662,1559.4,1556.281,1559.4,1558.958Z" transform="translate(-1551.658 -1518.551)" fill="url(#linear-gradient-65)"/>
                    <path id="Trazado_3451" data-name="Trazado 3451" d="M1601,1489.963c0,1.695.944,3.5,2.138,3.582,1.175.077,2.138-1.617,2.138-3.312s-.963-2.773-2.138-2.85S1601,1488.268,1601,1489.963Z" transform="translate(-1585.247 -1487.378)" fill="url(#linear-gradient-66)"/>
                  </g>
                </g>
              </g>
            </g>
          </g>
          <g id="Grupo_1794" data-name="Grupo 1794" transform="translate(9.217 296.588)">
            <path id="Trazado_3453" data-name="Trazado 3453" d="M292.162,2390.524a35.668,35.668,0,0,1-9.937,8.05c-5.854,3.062-7.491.231-6.74-1.329.751-1.54,5.585-9.167,9.4-10.379,3.813-1.233,7.279,3.659,7.279,3.659Z" transform="translate(-231.498 -2223.639)" fill="url(#linear-gradient-67)"/>
            <path id="Trazado_3454" data-name="Trazado 3454" d="M291.2,2113.9s57.349-18.6,85.33-18.815,20.895,8.281,19.161,18.815-77.242,35.087-77.242,35.087L291.2,2113.9Z" transform="translate(-244.324 -1988.205)" fill="url(#linear-gradient-68)"/>
            <path id="Trazado_3455" data-name="Trazado 3455" d="M260.395,2134.213c26.306-4.391,46.238-7.9,57.657-9.937,33.566-5.97,51.61-9.513,59.467.327a16.537,16.537,0,0,1,3.428,9.475c.77,19.874-35.472,35.781-53.979,41.346a121.477,121.477,0,0,1-48.317,4.2c.193-1.656.385-3.293.578-4.949q8.868-3.87,17.717-7.722a91,91,0,0,0-14.694,1.117c-13.326,2.1-15.945,5.527-24.014,6.278-9.744.905-25.516-2.292-30.812-13.962-3.158-6.933-2.677-17,3.678-23.706,7.029-7.337,19.354-8.724,29.291-2.465Z" transform="translate(-191.296 -2007.076)" fill="url(#linear-gradient-69)"/>
            <path id="Trazado_3456" data-name="Trazado 3456" d="M425.305,2411.96c1.175-1.6,1.945-1.232,4.487-3.293,2.831-2.292,2.6-3.332,4.7-4.448,2.118-1.117,5.315-1.656,6.316-.366,1.117,1.444-.558,5.026-2.118,6.47-2.041,1.906-7.992,7.453-11.92,8.3a2.572,2.572,0,0,1-2.33-.424c-1.233-1.136-.616-4.218.867-6.24Z" transform="translate(-351.373 -2236.91)" fill="url(#linear-gradient-70)"/>
            <path id="Trazado_3457" data-name="Trazado 3457" d="M710.078,1713.9c11.42-5.854,33.836,20.837,37.572,25.285,6.49,7.722,18.275,21.742,14.289,35.781a19.993,19.993,0,0,1-3.6,7.125c-10.149,11.863-44.87,6.99-65.938-10.168l3.563-7.722s15.271,7.491,20.047,6.99a2.218,2.218,0,0,0,1.464-.655c1.945-2.272-5.816-9.86-9.282-15.04-9.032-13.538-6.856-37.109,1.887-41.6Z" transform="translate(-568.263 -1679.756)" fill="url(#linear-gradient-71)"/>
            <path id="Trazado_3458" data-name="Trazado 3458" d="M695.963,1883.312s15.271,7.491,20.047,6.991a2.219,2.219,0,0,0,1.464-.655c1.945-2.272-5.816-9.86-9.282-15.04a35.445,35.445,0,0,1-5.18-14.019c13-.116,18.179,3.408,20.432,6.836,4.814,7.3-.385,18.776,4.911,21.761,2.985,1.695,5.508-1.464,9.821.347,5.565,2.349,5.315,9.225,8.781,9.821,3.736.655,8.974-6.49,10.881-12.633a25.576,25.576,0,0,0-.4-15.252c4.006,6.779,6.759,14.675,4.506,22.589a19.841,19.841,0,0,1-3.6,7.125c-10.149,11.863-44.87,6.991-65.938-10.168l3.563-7.7Z" transform="translate(-568.263 -1798.869)" fill="url(#linear-gradient-72)"/>
            <path id="Trazado_3459" data-name="Trazado 3459" d="M136.24,1694.39c7.376-5.046,15.329-4.525,30.543-3.5,16.542,1.1,36.069,2.388,39.324,11.94.809,2.407.828,5.989-13.962,26.171-18.372,25.074-20.895,22.917-25.632,33.451-7.626,16.927-2.754,26.075-13.057,36.2-1.752,1.714-7.51,7.241-16.157,8.781-5.161.905-7.857-.212-11.227-.346-14.713-.616-19.739,18.314-36.609,26.229-18.391,8.608-41.385-.327-41.673-4.814-.212-3.409,12.806-2.658,20.721-13.346,6.625-8.955,1.964-15.5,7.183-27.115,5.546-12.286,13-9.879,25.073-23.8,6.836-7.876,11.266-18.507,20.086-39.729,8.627-20.683,8.781-25.574,15.387-30.119Z" transform="translate(-47.787 -1661.307)" fill="url(#linear-gradient-73)"/>
            <path id="Trazado_3460" data-name="Trazado 3460" d="M336.124,1692.3s-64.879-2.407-67.4,27.346,48.857,5.007,48.857,5.007Z" transform="translate(-226.103 -1662.957)" fill="url(#linear-gradient-74)"/>
            <path id="Trazado_3461" data-name="Trazado 3461" d="M632.986,1626.5l-2.407,5.238a9.758,9.758,0,0,1-6.933,5.489l-7.7,1.983a.991.991,0,0,0-.116,1.887,60.958,60.958,0,0,0,26.729,3.7c16-1.656,4.275-3.563.4-3.832s-6.085-1.964-7.183-4.718,1.945-7.087,1.945-7.087l-4.737-2.657Z" transform="translate(-505.922 -1609.863)" fill="url(#linear-gradient-75)"/>
            <g id="Grupo_1793" data-name="Grupo 1793" transform="translate(120.205 0.998)">
              <path id="Trazado_3462" data-name="Trazado 3462" d="M714.381,1581.88c.539-.308,4.969-.828,5.565-3.216.828-3.235-2.08-7.145-2.426-7.78-1.5-2.638-1.887-3-2.6-3.447l-.982-.578-.116-.038a10.434,10.434,0,0,0-3.158-.115c-1.348.327-2.677,5.912-2.08,13.75-.058.308-.1.6-.135.9-.115.79,5.989.809,5.931.52Z" transform="translate(-701.417 -1562.524)" fill="url(#linear-gradient-76)"/>
              <path id="Trazado_3463" data-name="Trazado 3463" d="M689.105,1549.122c-.5,1.483-2.523,3-3.428,3.7a3.981,3.981,0,0,0-.867.982,1.01,1.01,0,0,0-.135.289c-.5,1.541,1.984,3.293,1.521,3.986-.327.5-2-.116-2.2.308-.173.4,1.213,1.213,1.021,1.695-.154.366-1,.058-1.521.616-.25.289-.173.5-.443,1.367a9.248,9.248,0,0,1-.52,1.31c-.809,1.444-3.177,2.022-3.64,1.464-.135-.154-.019-.289-.173-.828a4.418,4.418,0,0,0-.481-1.059c-.52-.809-1.714-1.367-2.927-2.2a7.938,7.938,0,0,1-3.081-3.351.93.93,0,0,0-.058-.135,1.09,1.09,0,0,1-.077-.231c-.52-1.656.79-3.428,1.5-4.256a22.194,22.194,0,0,1,5.18-4.468c.674-.423,7.26-4.487,9.667-2.465a3.257,3.257,0,0,1,.655,3.274Z" transform="translate(-671.982 -1545.287)" fill="#26264f"/>
              <path id="Trazado_3464" data-name="Trazado 3464" d="M734.516,1607.5c-.616-.809-1.637-.019-1.618,1.04s1.059,2.138,2.061,1.907.385-1.868-.443-2.947Z" transform="translate(-721.168 -1595.254)" fill="url(#linear-gradient-77)"/>
            </g>
            <path id="Trazado_3465" data-name="Trazado 3465" d="M261.825,1548.617a25.624,25.624,0,0,1-3.5,14.578c-2.792,4.429-5.2,4.66-7.2,8.069-4.487,7.645,3.1,14.347,2.1,23.706-1.213,11.285-13.365,11.844-28.963,29.137-14.366,15.926-10.938,23.09-20.972,28.27-13.326,6.894-36.474,3.1-47.123-13.172-12.614-19.277-1.271-46.238,13.172-54.056,13.731-7.453,29.1,3.043,40.73-8.069,5.623-5.373,3.775-9.513,10.361-13.866,9.61-6.374,18.295-.693,24.919-7.376,4.814-4.853,2.272-9.879,7.645-13.461,5.431-3.621,13.9-2.388,14.636.058.289.905-.4,2.657-5.8,6.182Z" transform="translate(-130.89 -1540.107)" fill="#26264f"/>
            <path id="Trazado_3466" data-name="Trazado 3466" d="M603.073,2260.5a.185.185,0,0,1-.173-.154.157.157,0,0,1,.154-.173c23.8-1.156,39.536-8.146,48.549-13.827,9.764-6.143,13.943-12.094,14-12.152a.166.166,0,0,1,.27.193c-.038.058-4.256,6.047-14.077,12.229-9.032,5.7-24.842,12.729-48.722,13.885Z" transform="translate(-495.998 -2100.474)" fill="url(#linear-gradient-78)"/>
            <path id="Trazado_3467" data-name="Trazado 3467" d="M79.325,2141.8c5.277-2.927,7.51-7.549,16.85-11.593,9.128-3.948,11.4-1.425,17.64-5.007,10.649-6.085,7.665-15.483,16.33-20.009,10.958-5.719,21.3,6.432,30.023.27,5.142-3.64,3.177-8.84,10.264-20.529a66.373,66.373,0,0,1,6.1-8.435c-6.3,15.56-2.311,24.361-12.152,34.067-1.752,1.714-7.51,7.241-16.157,8.781-5.161.905-7.857-.212-11.227-.347-14.713-.616-19.739,18.314-36.609,26.229-14.79,6.914-32.565,2.5-39.093-1.829,8.473,1.81,14.135.559,18.025-1.6Z" transform="translate(-58.698 -1973.203)" fill="url(#linear-gradient-79)"/>
          </g>
          <g id="Grupo_1796" data-name="Grupo 1796" transform="translate(155.34 333.522)">
            <path id="Trazado_3468" data-name="Trazado 3468" d="M1775.257,2562.6l-.135.982a2.4,2.4,0,0,0,2.7,2.677c4.352-.616,9.494-1.444,11.728-3.736,3.158-3.255.886-6.163-2.234-3.986-2.446,1.695-7.376,2.157-10.5,2.5a1.78,1.78,0,0,0-1.56,1.56Z" transform="translate(-1588.586 -2398.739)" fill="url(#linear-gradient-80)"/>
            <path id="Trazado_3469" data-name="Trazado 3469" d="M1784.746,2548.6c.212.308-.366,3.12-.674,4.468a1.727,1.727,0,0,1-.886,1.175,4.476,4.476,0,0,1-2.176.52,1.68,1.68,0,0,1-1.56-1.579l-.25-3.563,5.546-1.021Z" transform="translate(-1591.894 -2391.322)" fill="url(#linear-gradient-81)"/>
            <path id="Trazado_3470" data-name="Trazado 3470" d="M1327.788,2314.587l-7.068,1.463s-8.955-20.24-27.384-19.181-34.336,27.4-34.336,27.4l-46.7,7.3a230.291,230.291,0,0,1,20.952-37.475c15.541-22.57,24.746-35.934,40.441-38.3,18.1-2.734,33.373,10.919,37.36,14.482,3.389,3.043,16.889,15.117,17.736,33.489A41.109,41.109,0,0,1,1327.788,2314.587Z" transform="translate(-1134.165 -2154.613)" fill="url(#linear-gradient-82)"/>
            <path id="Trazado_3471" data-name="Trazado 3471" d="M1920.414,2606.59c2.715,1.348.732,1.444,8.146-1.213,2.812-1,5.3-.135,5.546,1.194.231,1.348-2.831,2.08-9.321,5.084-6.259,2.889-9.186,2.1-8.878-1.695a5.986,5.986,0,0,1,.809-2.561c1.29-1.31,3.7-.809,3.7-.809Z" transform="translate(-1702.257 -2436.814)" fill="url(#linear-gradient-83)"/>
            <path id="Trazado_3472" data-name="Trazado 3472" d="M1925.343,2587.75a22.137,22.137,0,0,0-2.542,4.969,1.75,1.75,0,0,0,2.061,2.253q.491-.115,1.04-.231a2.721,2.721,0,0,0,1.483-.905l4.468-5.276a1.023,1.023,0,0,0-.866-1.675l-4.872.423a1.058,1.058,0,0,0-.77.443Z" transform="translate(-1707.764 -2422.23)" fill="url(#linear-gradient-84)"/>
            <path id="Trazado_3473" data-name="Trazado 3473" d="M1287.881,2315.385c-3.254-.1-6.49-.173-9.744-.269a47.925,47.925,0,0,0,5.2-24.5c-23.4,5.007-39.671,13.038-50.378,19.662-6.066,3.736-10.669,7.222-25.227,16.254-15.849,9.841-23.918,14.809-30.254,16.5-7.164,1.926-32.719,3.64-52.477-5.219,12.036-21.607,44.177-49.434,77.55-70.117,17.64-10.938,42.906-26.594,70.772-19.315,5.739,1.5,27.693,7.241,32.719,25.632,3.794,13.942-3.37,30.446-18.16,41.365Z" transform="translate(-1063.677 -2147.42)" fill="url(#linear-gradient-85)"/>
            <path id="Trazado_3474" data-name="Trazado 3474" d="M907.809,1849.4a124.91,124.91,0,0,0-30.966.424,131.376,131.376,0,0,0-39.613,12.652c-16.33,8.107-29.041,14.424-30.542,25.805-.077.6-1.156,9.764,4.872,15.676,15.079,14.79,57.58-7.568,60.95-.4,1.136,2.407-3.312,5.719-2.1,7.375,2.2,3.023,21.01-2.446,31.332-15,14.482-17.621,7.183-42.887,6.066-46.526Z" transform="translate(-806.565 -1826.155)" fill="url(#linear-gradient-86)"/>
            <path id="Trazado_3475" data-name="Trazado 3475" d="M1065.34,1862.257c21.588,11.227,32.2,27.057,34.182,30.119,4.2,6.432,17.39,26.672,9.687,37.591-4.988,7.048-16.388,6.913-17.833,6.913-8.416-.1-11.17-4.2-27.6-11.708-11.131-5.084-16.716-7.645-21.126-6.99-14.636,2.157-22.628,23.494-24.207,27.692-6.605,17.64.25,21.953-5.3,38.4-1.791,5.315-10.611,28.848-32.642,35.01-16.215,4.545-30.331-2.908-33.816-4.737-21.337-11.285-26.864-34.144-28.328-40.287-4.583-19.027.424-34.587,3.678-44.755,5.354-16.658,15.81-29.6,36.7-55.462,11.824-14.655,15.81-17.736,20.432-20.1,12.864-6.605,25.536-5.1,43.368-2.966,14.193,1.676,27.365,3.255,42.79,11.285Z" transform="translate(-895.347 -1826.572)" fill="url(#linear-gradient-87)"/>
            <path id="Trazado_3476" data-name="Trazado 3476" d="M1372.762,1788.4l-2.523,5.488a10.264,10.264,0,0,1-7.26,5.758l-8.088,2.08a1.041,1.041,0,0,0-.115,1.984,63.637,63.637,0,0,0,28,3.871c16.773-1.733,4.487-3.717.424-4.006s-6.374-2.061-7.51-4.949,2.041-7.414,2.041-7.414l-4.969-2.812Z" transform="translate(-1248.659 -1777.519)" fill="url(#linear-gradient-88)"/>
            <g id="Grupo_1795" data-name="Grupo 1795" transform="translate(112.888)">
              <path id="Trazado_3477" data-name="Trazado 3477" d="M1437.411,1770.374c.578-.308,5.2-.866,5.835-3.37.867-3.37-2.176-7.491-2.542-8.146-1.579-2.773-1.983-3.139-2.715-3.62l-1.021-.6-.115-.039a12.24,12.24,0,0,0-3.312-.135c-1.425.347-2.812,6.182-2.2,14.4-.058.308-.1.636-.154.944-.135.847,6.259.847,6.22.558Z" transform="translate(-1423.789 -1750.076)" fill="url(#linear-gradient-89)"/>
              <path id="Trazado_3478" data-name="Trazado 3478" d="M1410.737,1735.941c-.539,1.56-2.657,3.158-3.6,3.871a4.313,4.313,0,0,0-.905,1.021.916.916,0,0,0-.135.308c-.52,1.617,2.079,3.447,1.6,4.179-.347.539-2.1-.135-2.292.327-.193.424,1.271,1.271,1.059,1.791-.154.385-1.059.058-1.6.655-.27.308-.193.52-.462,1.425a8.993,8.993,0,0,1-.559,1.386c-.847,1.521-3.332,2.118-3.813,1.521-.135-.154-.019-.308-.173-.867a4.282,4.282,0,0,0-.52-1.117c-.539-.847-1.791-1.425-3.062-2.311a8.412,8.412,0,0,1-3.235-3.5c-.019-.058-.039-.1-.058-.154-.039-.077-.058-.154-.1-.25-.539-1.733.828-3.6,1.579-4.468a23.607,23.607,0,0,1,5.431-4.68c.712-.443,7.587-4.7,10.129-2.6a3.406,3.406,0,0,1,.712,3.467Z" transform="translate(-1392.762 -1731.896)" fill="#26264f"/>
              <path id="Trazado_3479" data-name="Trazado 3479" d="M1458.393,1797.139c-.635-.847-1.714-.019-1.694,1.1s1.117,2.234,2.157,2,.4-1.964-.462-3.1Z" transform="translate(-1444.386 -1784.294)"/>
            </g>
            <path id="Trazado_3480" data-name="Trazado 3480" d="M1169.507,2180.876c5.758-17.717-17.813-39.882-8.069-53.016,6.913-9.3,22.088-2.58,29.83-13.345,7.742-10.746-3.6-22.724,3.871-33.008,7.53-10.38,28.964-11.728,41.423-3.5,7.741,5.1,5.642,9.687,15.1,17.909,1.6,1.387,20.586,17.486,34.047,10.188,1.136-.616,4.8-2.793,7.626-8.57.905,4.757.616,9.321-1.887,12.9-4.988,7.048-16.388,6.914-17.833,6.914-8.415-.1-11.169-4.2-27.6-11.709-11.131-5.084-16.716-7.645-21.126-6.99-14.636,2.157-22.628,23.494-24.207,27.692-6.605,17.64.25,21.953-5.3,38.4-1.791,5.314-10.611,28.848-32.642,35.01a41.132,41.132,0,0,1-20.548.27c18.2-5.142,25.093-12.344,27.307-19.142Z" transform="translate(-1077.565 -2007.037)" fill="url(#linear-gradient-90)"/>
          </g>
        </g>
      </g>
    </g>
  </g>
</svg>
