<svg xmlns="http://www.w3.org/2000/svg" xmlns:xlink="http://www.w3.org/1999/xlink" width="414.754" height="412.913" viewBox="0 0 414.754 412.913">
  <defs>
    <linearGradient id="linear-gradient" x1="0.491" y1="0.225" x2="0.5" y2="0.781" gradientUnits="objectBoundingBox">
      <stop offset="0" stop-color="#444b8c"/>
      <stop offset="1" stop-color="#26264f"/>
    </linearGradient>
    <linearGradient id="linear-gradient-2" x1="0.57" y1="0.933" x2="0.212" y2="-1.046" xlink:href="#linear-gradient"/>
    <linearGradient id="linear-gradient-3" x1="0.788" y1="-0.071" x2="0.143" y2="1.16" gradientUnits="objectBoundingBox">
      <stop offset="0" stop-color="#e38ddd"/>
      <stop offset="1" stop-color="#9571f6"/>
    </linearGradient>
    <linearGradient id="linear-gradient-4" x1="0" y1="0.5" x2="1" y2="0.5" xlink:href="#linear-gradient"/>
    <clipPath id="clip-path">
      <path id="Trazado_3315" data-name="Trazado 3315" d="M176.8,499.3l-31.928,17.882s-15.183-13.012-13.833-28.953c2.756-32.524-25.921-32.667-37.923-34.524-18.1-2.8-32.829-13.162-17.78-29.693s-19.606-34.794-49.489-35.1c-29.244-.3-45.578-52.463,17.775-57.616,37.835-3.078,51,31.492,61.8,47.367s36.393,3.357,39.317,28.5c2.5,21.48-4.178,41.9,13.049,47.98S183.615,474.037,176.8,499.3Z" transform="translate(-0.004 -331.101)" fill="none"/>
    </clipPath>
    <linearGradient id="linear-gradient-5" x1="0.563" y1="0.345" x2="0.295" y2="1.036" gradientUnits="objectBoundingBox">
      <stop offset="0" stop-color="#ffc444"/>
      <stop offset="1" stop-color="#f36f56"/>
    </linearGradient>
    <linearGradient id="linear-gradient-6" x1="1.593" y1="-0.183" x2="2.137" y2="1.069" gradientUnits="objectBoundingBox">
      <stop offset="0" stop-color="#ff9085"/>
      <stop offset="1" stop-color="#fb6fbb"/>
    </linearGradient>
    <clipPath id="clip-path-2">
      <path id="Trazado_3322" data-name="Trazado 3322" d="M328.023,1154.073l44.9-13.587c.692-7.148.485-19.885-9.784-19.932-14.276-.066-21.381-23.054-20.183-32.275,1.482-11.414,4.385-38.065-17.685-38.516-18.373-.375-30.3,3.137-37.845-18.158s-23.323-31.325-42.573-24.268c-20.257,7.427-45.279-15.087-59.5-.916-24.774,24.693,15.962,64.534,55.884,67.808s23.151,22.244,27.391,40.239c5.788,24.568,36.959,9.791,48.386,16.752,8.959,5.457,10.724,16.1,11,22.854Z" transform="translate(-177.801 -1001.631)" fill="none"/>
    </clipPath>
    <linearGradient id="linear-gradient-7" x1="0.422" y1="0.517" x2="0.352" y2="0.841" gradientUnits="objectBoundingBox">
      <stop offset="0" stop-color="#40447e"/>
      <stop offset="1" stop-color="#3c3b6b"/>
    </linearGradient>
    <linearGradient id="linear-gradient-8" x1="0.48" y1="0.467" x2="0.372" y2="0.528" xlink:href="#linear-gradient-7"/>
    <linearGradient id="linear-gradient-9" x1="0" y1="0.5" x2="1" y2="0.5" xlink:href="#linear-gradient-7"/>
    <linearGradient id="linear-gradient-10" x1="0.86" y1="-0.265" x2="-0.019" y2="1.502" xlink:href="#linear-gradient-3"/>
    <linearGradient id="linear-gradient-13" x1="-9.57" y1="2.935" x2="-6.323" y2="2.996" xlink:href="#linear-gradient"/>
    <linearGradient id="linear-gradient-14" x1="0.802" y1="0.288" x2="-0.351" y2="1.084" xlink:href="#linear-gradient-3"/>
    <linearGradient id="linear-gradient-15" x1="1.087" y1="-0.027" x2="0.798" y2="0.192" xlink:href="#linear-gradient-5"/>
    <linearGradient id="linear-gradient-16" x1="0.201" y1="0.023" x2="1.194" y2="1.294" xlink:href="#linear-gradient-5"/>
    <linearGradient id="linear-gradient-17" x1="0.73" y1="0.758" x2="-0.115" y2="-0.571" xlink:href="#linear-gradient-5"/>
    <linearGradient id="linear-gradient-18" y1="0.5" x2="1" y2="0.5" gradientUnits="objectBoundingBox">
      <stop offset="0" stop-color="#311944"/>
      <stop offset="1" stop-color="#893976"/>
    </linearGradient>
    <linearGradient id="linear-gradient-19" x1="1.069" y1="-0.986" x2="0.322" y2="0.94" xlink:href="#linear-gradient-3"/>
    <linearGradient id="linear-gradient-21" x1="0.909" y1="-0.734" x2="0.034" y2="2.341" xlink:href="#linear-gradient-3"/>
    <linearGradient id="linear-gradient-22" x1="-154.685" y1="-21.401" x2="-155.966" y2="-18.261" gradientUnits="objectBoundingBox">
      <stop offset="0" stop-color="#f36f56"/>
      <stop offset="1" stop-color="#ffc444"/>
    </linearGradient>
    <linearGradient id="linear-gradient-23" x1="-16.068" y1="6.183" x2="-14.862" y2="6.183" xlink:href="#linear-gradient-22"/>
    <linearGradient id="linear-gradient-24" x1="-6.977" y1="1.918" x2="-8.619" y2="8.209" xlink:href="#linear-gradient-3"/>
    <linearGradient id="linear-gradient-25" x1="0.923" y1="0.274" x2="-0.277" y2="0.87" gradientUnits="objectBoundingBox">
      <stop offset="0" stop-color="#ab316d"/>
      <stop offset="1" stop-color="#792d3d"/>
    </linearGradient>
    <linearGradient id="linear-gradient-26" x1="5.516" y1="-22.196" x2="4.274" y2="-9.3" xlink:href="#linear-gradient-3"/>
    <linearGradient id="linear-gradient-27" x1="5.316" y1="-5.778" x2="6.284" y2="-5.778" xlink:href="#linear-gradient-22"/>
    <linearGradient id="linear-gradient-28" x1="-0.433" y1="1.606" x2="-2.136" y2="1.086" xlink:href="#linear-gradient-25"/>
    <linearGradient id="linear-gradient-29" x1="-1.377" y1="0.888" x2="-2.272" y2="1.505" xlink:href="#linear-gradient-25"/>
    <linearGradient id="linear-gradient-30" x1="-1.909" y1="0.869" x2="-3.067" y2="1.48" xlink:href="#linear-gradient-25"/>
    <linearGradient id="linear-gradient-31" x1="-42.969" y1="2.482" x2="-43.086" y2="1.388" xlink:href="#linear-gradient"/>
    <linearGradient id="linear-gradient-32" x1="0.418" y1="-0.915" x2="0.616" y2="3.155" xlink:href="#linear-gradient-22"/>
    <linearGradient id="linear-gradient-33" x1="52.668" y1="14.377" x2="54.12" y2="15.963" xlink:href="#linear-gradient-22"/>
    <linearGradient id="linear-gradient-34" x1="-83.693" y1="-12.202" x2="-84.467" y2="-8.899" xlink:href="#linear-gradient-22"/>
    <linearGradient id="linear-gradient-35" x1="-8.602" y1="0.009" x2="-8.334" y2="1.163" xlink:href="#linear-gradient-22"/>
  </defs>
  <g id="Recurso_1-7TRC" data-name="Recurso 1-7TRC" transform="translate(-0.004 0.464)" style="mix-blend-mode: normal;isolation: isolate">
    <g id="b" transform="translate(0.004 -0.464)">
      <g id="c">
        <g id="Grupo_1761" data-name="Grupo 1761">
          <ellipse id="Elipse_228" data-name="Elipse 228" cx="206.173" cy="206.457" rx="206.173" ry="206.457" transform="translate(2.408)" fill="#f4f7fa"/>
          <g id="Grupo_1745" data-name="Grupo 1745" transform="translate(81.97 34.307)">
            <path id="Trazado_3301" data-name="Trazado 3301" d="M1407.81,1767.178a15.842,15.842,0,0,1-10.5-11.925l-7.806-38.633-66.773,2.371-8.218,40.248c-1.15,5.636,3.457,11.292,8.762,13.367l27.936,10.931a36.332,36.332,0,0,0,16.332,2.368l59.039-5.05a3.66,3.66,0,0,0,3.311-3.245c.2-1.741,1.409-3.7-.236-4.24l-21.848-6.19Z" transform="translate(-1202.727 -1497.838)" fill="#97a6b7"/>
            <path id="Trazado_3302" data-name="Trazado 3302" d="M1421.514,1754.912a15.7,15.7,0,0,1-10.491-11.775l-7.8-38.147-65.145,2.343-8.209,39.741a11.625,11.625,0,0,0,7.193,13.2l27.908,10.793a36.677,36.677,0,0,0,16.316,2.339l58.98-4.987a3.638,3.638,0,0,0,.828-7.083Z" transform="translate(-1215.769 -1487.921)" fill="url(#linear-gradient)"/>
            <path id="Trazado_3303" data-name="Trazado 3303" d="M868.952,423.069V249.84a6.83,6.83,0,0,0-6.514-6.72L564.825,231.156c-4.529-.183-8.245,2.947-8.245,6.955V429.556l312.373-6.486Z" transform="translate(-556.577 -231.148)" fill="url(#linear-gradient-2)"/>
            <path id="Trazado_3304" data-name="Trazado 3304" d="M909.314,310.074,626.579,299.526c-4.119-.153-7.5,2.711-7.5,6.368V472.6c0,3.732,3.451,6.688,7.656,6.569l282.453-8.033a6.319,6.319,0,0,0,6.122-6.227V316.226a6.258,6.258,0,0,0-6-6.153Z" transform="translate(-609.872 -289.45)" fill="url(#linear-gradient-3)"/>
            <path id="Trazado_3305" data-name="Trazado 3305" d="M556.562,1534.3v38.234c0,4.007,3.716,7.13,8.245,6.938l297.613-12.582a6.846,6.846,0,0,0,6.514-6.734V1526.7l-312.373,7.6Z" transform="translate(-556.56 -1335.89)" fill="url(#linear-gradient-4)"/>
            <g id="Grupo_1744" data-name="Grupo 1744" transform="translate(0.003 0)" opacity="0.48" style="mix-blend-mode: soft-light;isolation: isolate">
              <path id="Trazado_3306" data-name="Trazado 3306" d="M836.716,400.7c-24.443-8.257-44.666,8.584-62.235-4.675-19.808-14.949-3.8-43.666-22.12-60.584-25.453-23.5-76.34,12.946-98.443-9.211-15.195-15.233,2.729-39.622-10.137-65.276-6.542-13.045-18.8-21.938-33.682-27.982l-45.274-1.82c-4.529-.183-8.245,2.947-8.245,6.955V467.79c0,4.007,3.716,7.13,8.245,6.938l297.613-12.582a6.847,6.847,0,0,0,6.516-6.734v-24.72c-10.481-18.529-22.051-26.547-32.235-29.988Z" transform="translate(-556.58 -231.148)" fill="#fff"/>
            </g>
          </g>
          <g id="Grupo_1747" data-name="Grupo 1747" transform="translate(0 49.028)" clip-path="url(#clip-path)">
            <path id="Trazado_3307" data-name="Trazado 3307" d="M176.787,499.312,144.86,517.193s-15.183-13.012-13.833-28.953c2.756-32.524-25.921-32.667-37.923-34.524-18.1-2.8-30.773-12.42-20.263-29.15,11.891-18.93-17.124-35.337-47.008-35.646-29.244-.3-45.578-52.463,17.775-57.616,37.835-3.078,51,31.492,61.8,47.367s36.393,3.357,39.317,28.5c2.5,21.479-4.178,41.9,13.049,47.98s25.833,18.895,19.014,44.162Z" transform="translate(0.004 -331.11)" fill="url(#linear-gradient-5)"/>
            <g id="Grupo_1746" data-name="Grupo 1746" transform="translate(-9.26 -4.019)" opacity="0.5" style="mix-blend-mode: soft-light;isolation: isolate">
              <path id="Trazado_3308" data-name="Trazado 3308" d="M111.022,679.23l-.73.25c-.155-.452-15.808-45.729-44.857-85.934C38.67,556.5-5.271,516.313-62.628,535.193l-.242-.733c25.533-8.4,50.573-6,74.429,7.131,19.057,10.494,37.4,27.826,54.51,51.513,29.115,40.3,44.8,85.671,44.953,86.124Z" transform="translate(62.87 -496.305)" fill="#beb8f2"/>
              <path id="Trazado_3309" data-name="Trazado 3309" d="M295.107,355.015l-.716.292c-9.7-23.814-35.888-50.687-36.152-50.956l.551-.54c.265.27,26.562,27.251,36.315,51.205Z" transform="translate(-210.947 -303.81)" fill="#beb8f2"/>
              <path id="Trazado_3310" data-name="Trazado 3310" d="M116.769,590.085C86.162,588.656,68.761,607.311,68.59,607.5l-.57-.52c.174-.191,17.8-19.113,48.785-17.666l-.035.772Z" transform="translate(-48.742 -547.197)" fill="#beb8f2"/>
              <path id="Trazado_3311" data-name="Trazado 3311" d="M500.656,1052.94c-25.334-27.558-72.919-11.145-73.37-10.947l-.356-.685c.423-.237,48.737-16.694,74.3,11.108l-.569.523Z" transform="translate(-354.792 -928.381)" fill="#beb8f2"/>
              <path id="Trazado_3312" data-name="Trazado 3312" d="M861.752,772.178l-.738.233c-7.183-22.781,7.087-49.215,7.231-49.481l.677.371C868.781,723.563,854.668,749.716,861.752,772.178Z" transform="translate(-723.221 -661.201)" fill="#beb8f2"/>
              <path id="Trazado_3313" data-name="Trazado 3313" d="M913.934,1427.143c-7.9-11.824-31.044-11.728-31.277-11.726l-.007-.772c.968-.01,23.795-.1,31.926,12.07Z" transform="translate(-743.393 -1251.039)" fill="#beb8f2"/>
              <path id="Trazado_3314" data-name="Trazado 3314" d="M1061.221,1210.342l-.728.259c-3.765-10.594,4.819-29.553,7.639-35.783.4-.881.742-1.641.778-1.788l.754.167a17.892,17.892,0,0,1-.828,1.941c-2.789,6.159-11.276,24.9-7.616,35.206Z" transform="translate(-894.243 -1045.01)" fill="#beb8f2"/>
            </g>
          </g>
          <g id="Grupo_1750" data-name="Grupo 1750" transform="translate(26.186 147.784)">
            <path id="Trazado_3316" data-name="Trazado 3316" d="M325.057,1140.477l.592.071a106.173,106.173,0,0,0,39.055-2.94l8.226-2.756c.361-7.268-.6-14.245-9.79-14.288-14.277-.066-21.381-23.054-20.183-32.275,1.482-11.414,4.385-38.065-17.686-38.516-18.373-.376-30.3,3.137-37.845-18.158s-23.323-31.325-42.573-24.268c-20.257,7.427-45.279-15.087-59.5-.916-24.774,24.693,15.962,64.534,55.884,67.808s23.151,22.244,27.391,40.239c5.788,24.568,36.959,9.791,48.386,16.752a20.708,20.708,0,0,1,8.04,9.248Z" transform="translate(-177.801 -1001.639)" fill="url(#linear-gradient-6)"/>
            <g id="Grupo_1749" data-name="Grupo 1749" clip-path="url(#clip-path-2)">
              <g id="Grupo_1748" data-name="Grupo 1748" transform="translate(-3.919 -0.426)" opacity="0.5" style="mix-blend-mode: soft-light;isolation: isolate">
                <path id="Trazado_3317" data-name="Trazado 3317" d="M325.565,1211.217l.9-.477C291.6,1145.1,225.06,1096.7,152.8,1084.43l-.169,1c71.957,12.22,138.222,60.419,172.936,125.784Z" transform="translate(-152.418 -1071.809)"/>
                <path id="Trazado_3318" data-name="Trazado 3318" d="M1163.688,1377.21l.975-.29c-8.336-27.994,9.131-56.949,9.31-57.238l-.866-.532c-.18.293-17.884,29.625-9.417,58.06Z" transform="translate(-1012.613 -1271.96)"/>
                <path id="Trazado_3319" data-name="Trazado 3319" d="M856.41,1788.244l.72-.717c-20.912-20.964-73.532-9.145-74.06-9.022l.228.991c.523-.121,52.6-11.817,73.112,8.75Z" transform="translate(-690.006 -1660.735)"/>
                <path id="Trazado_3320" data-name="Trazado 3320" d="M751.11,1053.655l.779-.654c-15.11-17.986-11.093-53.783-11.051-54.142l-1.009-.119c-.043.364-4.108,36.6,11.282,54.915Z" transform="translate(-652.693 -998.74)"/>
                <path id="Trazado_3321" data-name="Trazado 3321" d="M208.74,1196.17l.264-.982c-25.855-6.925-57.5,10.576-57.814,10.754l.5.887C152,1206.652,183.288,1189.353,208.74,1196.17Z" transform="translate(-151.19 -1164.873)"/>
              </g>
            </g>
          </g>
          <g id="Grupo_1751" data-name="Grupo 1751" transform="translate(36.901 174.628)">
            <path id="Trazado_3323" data-name="Trazado 3323" d="M622.4,2374.631,275.58,2371.61v8.937a4.74,4.74,0,0,0,3.561,4.856l98.07,17.6a13.475,13.475,0,0,0,3.519.165l237.9-20.066c2.124-.179,3.769-2.247,3.769-4.741v-3.73Z" transform="translate(-271.893 -2196.681)" fill="url(#linear-gradient-7)"/>
            <path id="Trazado_3324" data-name="Trazado 3324" d="M489.412,1347.351,258.055,1363.7a6.89,6.89,0,0,1-7.505-6.944V1191.365a7.493,7.493,0,0,1,7.505-7.475H489.412c3.411,0,6.168,3.025,6.168,6.757V1340.16c0,3.732-2.757,6.952-6.168,7.193Z" transform="translate(-250.55 -1183.89)" fill="url(#linear-gradient-8)"/>
            <path id="Trazado_3325" data-name="Trazado 3325" d="M514.452,1347.351,283.1,1363.7a6.89,6.89,0,0,1-7.505-6.944V1191.365a7.493,7.493,0,0,1,7.505-7.475H514.452c3.411,0,6.168,3.025,6.168,6.757V1340.16c0,3.732-2.757,6.952-6.168,7.193Z" transform="translate(-271.902 -1183.89)" fill="url(#linear-gradient-9)"/>
            <path id="Trazado_3326" data-name="Trazado 3326" d="M565.512,1392.407l-215.486,14.2a5.646,5.646,0,0,1-6.106-5.7v-144.8a6.137,6.137,0,0,1,6.106-6.127l215.486-.893a5.311,5.311,0,0,1,5.09,5.536v131.889A5.781,5.781,0,0,1,565.512,1392.407Z" transform="translate(-330.168 -1239.487)" fill="url(#linear-gradient-10)"/>
            <path id="Trazado_3327" data-name="Trazado 3327" d="M1136.609,1198.5a2.667,2.667,0,1,1-2.661-2.781A2.734,2.734,0,0,1,1136.609,1198.5Z" transform="translate(-1001.565 -1193.977)" fill="#fff"/>
            <path id="Trazado_3328" data-name="Trazado 3328" d="M508.68,2288.431l-233.09,17.21,101.631,18.238a13.475,13.475,0,0,0,3.519.165l241.669-20.383-110.022-15.113a17.642,17.642,0,0,0-3.709-.116Z" transform="translate(-271.902 -2125.712)" fill="url(#linear-gradient-9)"/>
            <path id="Trazado_3329" data-name="Trazado 3329" d="M506.52,2324.311l194.055-14.541,60.057,8.183L568.25,2333.5Z" transform="translate(-468.82 -2143.949)" opacity="0.3" fill="url(#linear-gradient-9)" style="mix-blend-mode: multiply;isolation: isolate"/>
            <path id="Trazado_3330" data-name="Trazado 3330" d="M458.7,1301.99c-17.836-9.6-31.86,2.563-45.394-9.435-8.205-7.274-4.177-12.7-14.273-23.568-11.183-12.039-18.463-7.991-29.7-18.827-14.21-13.7-7.1-24.36-19.344-34.2-14.849-11.933-30.863-.888-45-12.332-6.1-4.935-9.442-12.112-11.189-19.743H279.972a4.391,4.391,0,0,0-4.392,4.388v171.444a4.035,4.035,0,0,0,4.392,4.075l235.791-16.737a3.793,3.793,0,0,0,2.841-1.738c-17.26-.629-27.864-6.416-34.643-12.4-13.26-11.7-10.961-23.241-25.26-30.935Z" transform="translate(-271.894 -1183.89)" fill="#fff" opacity="0.48" style="mix-blend-mode: soft-light;isolation: isolate"/>
          </g>
          <g id="Grupo_1755" data-name="Grupo 1755" transform="translate(324.693 229.805)">
            <g id="Grupo_1753" data-name="Grupo 1753">
              <g id="Grupo_1752" data-name="Grupo 1752">
                <path id="Trazado_3331" data-name="Trazado 3331" d="M2261,1570.492v103.552c0,1.548-1.321,1.9-2.818,1.969l-50.1,3.286-.742.034a2.66,2.66,0,0,1-2.764-2.713V1572.18a2.913,2.913,0,0,1,2.764-2.921l1.006-.029,50.3.839c1.5-.042,2.352-1.125,2.352.423Z" transform="translate(-2204.58 -1567.655)"/>
                <path id="Trazado_3332" data-name="Trazado 3332" d="M2271.416,1561.271V1664.9a2.94,2.94,0,0,1-2.725,2.943l-51.012,2.351a2.663,2.663,0,0,1-2.769-2.714V1562.963a2.918,2.918,0,0,1,2.769-2.923l51.012-1.507a2.684,2.684,0,0,1,2.725,2.737Z" transform="translate(-2213.388 -1558.532)" fill="url(#linear-gradient-13)"/>
                <path id="Trazado_3333" data-name="Trazado 3333" d="M2279.69,1601.714v95.924a2.744,2.744,0,0,1-2.542,2.745l-47.968,2.195a2.483,2.483,0,0,1-2.58-2.532v-96.7a2.723,2.723,0,0,1,2.58-2.728l47.968-1.459A2.5,2.5,0,0,1,2279.69,1601.714Z" transform="translate(-2223.357 -1593.178)" fill="url(#linear-gradient-14)"/>
              </g>
              <path id="Trazado_3334" data-name="Trazado 3334" d="M2403.007,1579.286a1,1,0,0,1-.948,1.006.929.929,0,0,1-.948-.948,1,1,0,0,1,.948-1.006A.93.93,0,0,1,2403.007,1579.286Z" transform="translate(-2372.165 -1575.42)" fill="#de8bdf"/>
            </g>
            <g id="Grupo_1754" data-name="Grupo 1754" transform="translate(1.57 1.277)" opacity="0.48" style="mix-blend-mode: soft-light;isolation: isolate">
              <path id="Trazado_3335" data-name="Trazado 3335" d="M2255.128,1628.7c-4.651-11.693-17.186-8.93-21.092-20.748-3.187-9.645,3.9-15.3,1.127-26.465a27.823,27.823,0,0,0-9.307-14.289l-7.768.228a2.958,2.958,0,0,0-2.849,2.923v104.424a2.522,2.522,0,0,0,2.849,2.541l39.072-4.1A31.209,31.209,0,0,1,2252.32,1660c-1.62-13.651,7.068-20.593,2.807-31.3Z" transform="translate(-2215.24 -1567.2)" fill="#fff"/>
            </g>
          </g>
          <g id="Grupo_1757" data-name="Grupo 1757" transform="translate(152.668 81.187)">
            <path id="Trazado_3336" data-name="Trazado 3336" d="M1123.564,763.855a22.416,22.416,0,0,1-12.195-3.153c-11.13-6.672-27.577-17.69-42.373-32.113-18.776-18.3-29.562-36.907-31.922-55.176l-.037-.286-.458-77.953c0-15.406,10.049-27.911,28.914-36.128,15.587-6.79,36.246-10.154,58.07-9.522,21.571.625,41.53,5.075,56.3,12.491,17.562,8.816,26.776,21.206,26.776,35.894l-.418,74.485-.034.274c-2.156,17.494-12.081,35.577-29.624,53.864-14.071,14.666-29.97,26.29-40.89,33.492a23.212,23.212,0,0,1-12.115,3.835Z" transform="translate(-1036.58 -549.449)" fill="url(#linear-gradient-15)"/>
            <path id="Trazado_3337" data-name="Trazado 3337" d="M1159.277,763.855a21.9,21.9,0,0,1-12.034-3.153c-10.983-6.672-27.212-17.69-41.813-32.113-18.527-18.3-29.172-36.907-31.5-55.176l-.037-.286-.452-77.953c0-15.406,9.915-27.911,28.531-36.128,15.381-6.79,35.767-10.154,57.3-9.522,21.285.625,40.982,5.075,55.56,12.491,17.331,8.816,26.422,21.206,26.422,35.894l-.412,74.485-.034.274c-2.128,17.494-11.922,35.577-29.232,53.864-13.884,14.666-29.574,26.29-40.349,33.492a22.693,22.693,0,0,1-11.955,3.835Z" transform="translate(-1068.011 -549.449)" fill="url(#linear-gradient-16)"/>
            <path id="Trazado_3338" data-name="Trazado 3338" d="M1108.4,622.93l.455,77.558c5.1,39.573,51.612,71.611,71.867,83.784a17.882,17.882,0,0,0,18.983-.511c19.833-13.051,63.792-45.9,68.489-83.952l.417-74.28c0-55.108-160.211-60.147-160.211-2.6Z" transform="translate(-1097.822 -577.151)" fill="url(#linear-gradient-17)"/>
            <path id="Trazado_3339" data-name="Trazado 3339" d="M1279.141,856.174a2.763,2.763,0,0,1-1.5-.4c-8.341-5.05-24.508-15.629-38.572-29.444-15.192-14.923-23.954-29.431-25.963-43.058L1212.66,707c.019-7.318,5.812-13.582,17.168-18.594,12.678-5.6,30.68-8.531,49.313-8.089,18.447.437,35.925,4.152,48.033,10.159,10.71,5.314,16.126,11.581,16.144,18.646l-.415,73.633c-1.875,13.186-10.1,27.4-24.537,42.345-13.576,14.051-29.434,25.188-37.723,30.605a2.875,2.875,0,0,1-1.5.468Z" transform="translate(-1186.727 -661.006)" fill="url(#linear-gradient-18)"/>
            <path id="Trazado_3340" data-name="Trazado 3340" d="M1295.7,878.834c-8.423-5.187-23.4-15.2-36.467-28.065-14.277-14.051-22.538-27.534-24.481-40.009l-.442-75.832c.013-5.233,4.823-10.033,14.26-14.211,12.009-5.317,29.215-8.12,47.13-7.717,17.743.4,34.467,3.9,45.959,9.589,8.93,4.418,13.447,9.237,13.46,14.341l-.414,73.364c-1.822,12.105-9.615,25.343-23.242,39.42-12.651,13.071-27.376,23.581-35.761,29.12Z" transform="translate(-1205.188 -688.879)" fill="#f4f7fa"/>
            <g id="Grupo_1756" data-name="Grupo 1756" transform="translate(56.02 55.127)">
              <path id="Trazado_3341" data-name="Trazado 3341" d="M1481.568,1165.08l-56.717.505a7.813,7.813,0,0,0-7.912,7.589v36.339a7.325,7.325,0,0,0,7.883,7.149l56.516-2.314a7.612,7.612,0,0,0,7.3-7.436l.18-34.714a7.109,7.109,0,0,0-7.251-7.116Z" transform="translate(-1416.94 -1129.536)" fill="url(#linear-gradient-19)"/>
              <path id="Trazado_3342" data-name="Trazado 3342" d="M1630.952,1266.409a7.02,7.02,0,0,0-7.638-6.919,7.5,7.5,0,0,0-7.022,6.851,6.831,6.831,0,0,0,3.657,6.455,2.532,2.532,0,0,1,1.271,2.7l-1.639,9.18a1.845,1.845,0,0,0,1.938,2.153l4.149-.146a2,2,0,0,0,1.935-2.278l-1.586-9.093a2.707,2.707,0,0,1,1.354-2.754,7.253,7.253,0,0,0,3.58-6.155Z" transform="translate(-1586.92 -1210.027)" fill="url(#linear-gradient-18)"/>
              <path id="Trazado_3343" data-name="Trazado 3343" d="M1512.476,955.683a3.026,3.026,0,0,1-3.074-3.022l.034-7.916a14.707,14.707,0,0,0-14.73-14.572l-18.512-.184c-8.478-.084-15.448,6.526-15.456,14.728l-.007,8.165a3.249,3.249,0,0,1-3.3,3.161,3.209,3.209,0,0,1-3.311-3.131l0-8.2c0-11.722,9.987-21.135,22.083-20.965l18.521.258a20.929,20.929,0,0,1,20.874,20.743l-.038,7.884a3.093,3.093,0,0,1-3.088,3.052Z" transform="translate(-1448.644 -923.745)" fill="url(#linear-gradient-21)"/>
            </g>
          </g>
          <g id="Grupo_1760" data-name="Grupo 1760" transform="translate(78.759 197.65)">
            <path id="Trazado_3344" data-name="Trazado 3344" d="M1040.4,1350.374a30.929,30.929,0,0,0,1.67-2.656c.576-1.1-.828-4.137-1.446-6.675s-.938,1.42-1.016,2.317a19.546,19.546,0,0,1-1.015,5.395l1.807,1.62Z" transform="translate(-964.384 -1340.207)" fill="url(#linear-gradient-22)"/>
            <path id="Trazado_3345" data-name="Trazado 3345" d="M1000.656,2444.89l-.426,6.8a2.567,2.567,0,0,0,2.825.311l2.03-6.679-4.429-.433Z" transform="translate(-931.674 -2282.191)" fill="url(#linear-gradient-23)"/>
            <path id="Trazado_3346" data-name="Trazado 3346" d="M992.873,2478.85s-3.332,1.36-2.685,2.832a36.043,36.043,0,0,0,2.588,4.063,3.891,3.891,0,0,0,4.3,1.5c.539-.162,1.091-.32,1.579-.445a1.056,1.056,0,0,0,.085-2.019,8.064,8.064,0,0,0-1.361-.368c-1.219-.188-2.9-3.069-3.094-4.224a1.738,1.738,0,0,0-1.417-1.342Z" transform="translate(-923.04 -2311.149)" fill="url(#linear-gradient-24)"/>
            <path id="Trazado_3347" data-name="Trazado 3347" d="M876.369,2001.58c4.907,1.694,23.054,8.552,27.1,24.286a28.425,28.425,0,0,1,.794,6.991c.1,15.881-9.13,29.321-15.848,37.14l-6.352-.106a36,36,0,0,1-.508-16.937c2.323-10.426,8.349-13.13,7.187-18.246-2.11-9.292-23.687-7.887-25.721-16.207C862.283,2015.495,863.9,2010.395,876.369,2001.58Z" transform="translate(-814.544 -1904.172)" fill="url(#linear-gradient-25)"/>
            <path id="Trazado_3348" data-name="Trazado 3348" d="M535.883,2625.733l9.214-.215a.614.614,0,0,0,.377-1.087,2.331,2.331,0,0,0-1.778-.576c-1.751.182-5.684-2.27-7.467-1.744-.583.173-1.056,1.542-1.3,1.922a1.1,1.1,0,0,0,.953,1.7Z" transform="translate(-534.754 -2433.247)" fill="url(#linear-gradient-26)"/>
            <path id="Trazado_3349" data-name="Trazado 3349" d="M548.554,2599.06l-3.794,3.458a4.223,4.223,0,0,0,3.258.566l3.878-2.668Z" transform="translate(-543.286 -2413.655)" fill="url(#linear-gradient-27)"/>
            <g id="Grupo_1758" data-name="Grupo 1758" transform="translate(48.327 104.773)" opacity="0.3" style="mix-blend-mode: color-burn;isolation: isolate">
              <path id="Trazado_3350" data-name="Trazado 3350" d="M892.657,2085.2c2.545-6.87,5.6-15.344,2.112-20.154-3.527-4.868-11.255-.759-19.008-4.682-2.875-1.455-5.831-4.059-8.289-8.772-4.352,4.493-4.944,7.508-4.443,9.554,2.032,8.321,23.611,6.915,25.721,16.207,1.162,5.116-4.863,7.821-7.187,18.247a35.273,35.273,0,0,0,.077,15.113,52.336,52.336,0,0,1,3.722-11.4c2.781-6.025,4.616-6.871,7.3-14.11Z" transform="translate(-862.879 -2051.59)" fill="url(#linear-gradient-28)"/>
            </g>
            <path id="Trazado_3351" data-name="Trazado 3351" d="M617.832,1985.611a164.3,164.3,0,0,1-55.889,91.92,7.724,7.724,0,0,1-5.563-.427,52.867,52.867,0,0,1,5.2-15.744c5.865-11.288,11.086-10.924,16.976-20.886,4.312-7.295,5.714-15.043,8.52-30.54,2.165-11.967,2.167-14.827,5.133-18.258C598.2,1984.737,609.459,1984.658,617.832,1985.611Z" transform="translate(-553.195 -1890.187)" fill="url(#linear-gradient-29)"/>
            <g id="Grupo_1759" data-name="Grupo 1759" transform="translate(3.184 96.059)" opacity="0.3" style="mix-blend-mode: multiply;isolation: isolate">
              <path id="Trazado_3352" data-name="Trazado 3352" d="M563.815,2070.085c2.093-3.3,5.806-6.742,13.13-13.527,7.57-7.012,7.279-5.744,8.769-7.816,6.67-9.277,3.059-19.191,4.707-31.155.921-6.675,3.868-15.4,12.448-25.167a18.548,18.548,0,0,0-10.675,5.429c-3.442,3.8-3.189,7.516-5.133,18.259-2.8,15.5-4.206,23.245-8.52,30.54-5.89,9.962-11.112,9.6-16.976,20.886a52.841,52.841,0,0,0-5.2,15.744,7.683,7.683,0,0,0,4.523.66c-.483-7.843,1.86-12.177,2.922-13.854Z" transform="translate(-556.37 -1992.42)" fill="url(#linear-gradient-30)"/>
            </g>
            <path id="Trazado_3353" data-name="Trazado 3353" d="M931.117,1383.07s2.454,18.27-16.8,31.151l20.485,4.887s6.557-12.26,1.81-32.567l-5.5-3.471Z" transform="translate(-858.417 -1376.757)" fill="#f4f7fa"/>
            <path id="Trazado_3354" data-name="Trazado 3354" d="M847.716,1452.046c1.006-1.981,1.421-1.969,1.669-3.016.563-2.383-.891-5.41-2.124-5.452-.8-.027-.86,1.208-2.544,3.134-2.06,2.359-3.312,2.049-4.524,4.1-.284.479-1.561,2.635-.775,4.245,1,2.053,4.953,2.379,6.6.8C846.806,1455.1,846.476,1454.488,847.716,1452.046Z" transform="translate(-794.332 -1428.353)" fill="url(#linear-gradient-31)"/>
            <path id="Trazado_3355" data-name="Trazado 3355" d="M839.334,1515.549a23.43,23.43,0,0,1,.2,6.828c-.454,2.767-5.58,5.642-6.563,6.466s2.605,1.719,5.9,1.287,12.305-3.315,13.675-4.922-1.6-.816-4.089-1.119-4.874-4.483-4.946-6.616-4.18-1.925-4.18-1.925Z" transform="translate(-788.912 -1489.719)" fill="url(#linear-gradient-32)"/>
            <path id="Trazado_3356" data-name="Trazado 3356" d="M870.239,1492.706a4.871,4.871,0,0,0,4.753-.679c2-1.6-.973-6.507-3.006-6.57a3.226,3.226,0,0,0-2.252,1.175c-.345.42-.365.7-.943,1.376-.532.623-.766.679-.847.981-.1.379.072,1.01,1.44,2.1a1.391,1.391,0,0,0-1.5.452.871.871,0,0,0-.09.467c.082.741,1.05,1.084,2.443.7Z" transform="translate(-818.743 -1464.063)" fill="url(#linear-gradient-33)"/>
            <path id="Trazado_3357" data-name="Trazado 3357" d="M1260.43,1393.9s1.526-.212,1.05-3.127c-.373-2.284-.09-3.053.449-2.648s.616,1.725.616,1.725a10.8,10.8,0,0,0,2.778-3.877c.81-2.2,1.331-.348,1.5.753a9.969,9.969,0,0,1-1.909,5.149c-.753.636-1.851,3.442-1.851,3.442l-2.635-1.417Z" transform="translate(-1153.552 -1378.358)" fill="url(#linear-gradient-34)"/>
            <path id="Trazado_3358" data-name="Trazado 3358" d="M827.455,1429.918q-2.6-1.825-5.208-3.648c-2.112,12.986-6.913,18.082-10.992,20.311-9.838,5.377-18.619-4.206-37.452-.294-5.19,1.078-14.235,3.085-19.251,10.478-1.318,1.943-1.788,3.414-3.977,17.356-2.8,17.82-2.9,20.93-2.5,24.767.722,7.022,1.159,11.277,4.4,15.043,8.6,10,26.87,4.844,29.162,4.167,4.233-1.253,10.81-3.2,13.423-8.794,1.23-2.632,1.1-5.037-.791-14.66-3.744-19.062-4.223-20.3-3.177-22.384,3.526-7.044,14.7-3.013,24.14-9.564,5.518-3.831,11.74-12.177,12.23-32.776Z" transform="translate(-716.51 -1413.594)" fill="#fff"/>
            <path id="Trazado_3359" data-name="Trazado 3359" d="M887.728,1671.522c1.843-3.779-.633-7.261,2.083-11.8,3.463-5.788,9.691-3.823,12.034-8.1,4.009-7.314-11.769-17.516-8.563-29.162,1.53-5.56,6.875-9.585,11.341-11.109,9.912-3.385,16.4,5.243,25.69,2.547a15.958,15.958,0,0,0,7.288-4.714,23.237,23.237,0,0,1-7.715,9.486c-9.439,6.551-20.614,2.52-24.139,9.564-1.046,2.087-.567,3.321,3.177,22.384,1.89,9.623,2.021,12.028.791,14.66-2.613,5.592-9.192,7.541-13.423,8.794a48.315,48.315,0,0,1-13.921,1.915c2.954-1.2,4.545-2.792,5.358-4.46Z" transform="translate(-831.173 -1569.565)" opacity="0.3" fill="url(#linear-gradient-35)" style="mix-blend-mode: multiply;isolation: isolate"/>
          </g>
        </g>
      </g>
    </g>
  </g>
</svg>
