<svg xmlns="http://www.w3.org/2000/svg" xmlns:xlink="http://www.w3.org/1999/xlink" width="409.641" height="407.94" viewBox="0 0 409.641 407.94">
  <defs>
    <linearGradient id="linear-gradient" x1="1.051" y1="0.838" x2="-0.724" y2="-0.247" gradientUnits="objectBoundingBox">
      <stop offset="0" stop-color="#ff9085"/>
      <stop offset="1" stop-color="#fb6fbb"/>
    </linearGradient>
    <linearGradient id="linear-gradient-2" x1="0.585" y1="-0.016" x2="0.297" y2="1.725" xlink:href="#linear-gradient"/>
    <linearGradient id="linear-gradient-3" x1="-0.156" y1="-2.95" x2="0.803" y2="1.957" gradientUnits="objectBoundingBox">
      <stop offset="0" stop-color="#ffc444"/>
      <stop offset="1" stop-color="#f36f56"/>
    </linearGradient>
    <linearGradient id="linear-gradient-4" x1="0.191" y1="-1.063" x2="1.197" y2="4.367" xlink:href="#linear-gradient-3"/>
    <linearGradient id="linear-gradient-5" x1="0.304" y1="-0.525" x2="1.248" y2="4.879" xlink:href="#linear-gradient-3"/>
    <linearGradient id="linear-gradient-6" x1="-0.239" y1="-2.128" x2="1.167" y2="2.877" xlink:href="#linear-gradient-3"/>
    <linearGradient id="linear-gradient-7" x1="-0.434" y1="-2.808" x2="1.03" y2="2.188" xlink:href="#linear-gradient-3"/>
    <linearGradient id="linear-gradient-8" x1="-0.277" y1="-3.449" x2="0.707" y2="1.437" xlink:href="#linear-gradient-3"/>
    <linearGradient id="linear-gradient-9" x1="-0.111" y1="-1.879" x2="1.195" y2="3.382" xlink:href="#linear-gradient-3"/>
    <linearGradient id="linear-gradient-10" x1="-0.26" y1="-5.205" x2="0.666" y2="1.693" xlink:href="#linear-gradient-3"/>
    <linearGradient id="linear-gradient-11" x1="-0.34" y1="-5.415" x2="0.581" y2="1.403" xlink:href="#linear-gradient-3"/>
    <linearGradient id="linear-gradient-12" x1="0.069" y1="-1.18" x2="1.322" y2="4.091" xlink:href="#linear-gradient-3"/>
    <linearGradient id="linear-gradient-13" x1="0.298" y1="-0.83" x2="1.367" y2="6.515" xlink:href="#linear-gradient-3"/>
    <linearGradient id="linear-gradient-14" x1="0.586" y1="-0.02" x2="0.297" y2="1.731" xlink:href="#linear-gradient-3"/>
    <linearGradient id="linear-gradient-15" y1="0.5" x2="1" y2="0.5" gradientUnits="objectBoundingBox">
      <stop offset="0" stop-color="#311944"/>
      <stop offset="1" stop-color="#a03976"/>
    </linearGradient>
    <linearGradient id="linear-gradient-16" x1="0" y1="0.5" x2="1" y2="0.5" xlink:href="#linear-gradient"/>
    <linearGradient id="linear-gradient-17" y1="0.5" x2="1" y2="0.5" gradientUnits="objectBoundingBox">
      <stop offset="0" stop-color="#444b8c"/>
      <stop offset="1" stop-color="#26264f"/>
    </linearGradient>
    <linearGradient id="linear-gradient-19" x1="1.087" y1="-0.027" x2="0.798" y2="0.192" xlink:href="#linear-gradient"/>
    <linearGradient id="linear-gradient-20" x1="0.272" y1="0.696" x2="-0.227" y2="1.347" xlink:href="#linear-gradient"/>
    <linearGradient id="linear-gradient-21" x1="0.73" y1="0.758" x2="-0.115" y2="-0.571" xlink:href="#linear-gradient"/>
    <linearGradient id="linear-gradient-22" y1="0.5" x2="1" y2="0.5" gradientUnits="objectBoundingBox">
      <stop offset="0" stop-color="#311944"/>
      <stop offset="1" stop-color="#893976"/>
    </linearGradient>
    <linearGradient id="linear-gradient-23" x1="1.069" y1="-0.986" x2="0.322" y2="0.94" gradientUnits="objectBoundingBox">
      <stop offset="0" stop-color="#e38ddd"/>
      <stop offset="1" stop-color="#9571f6"/>
    </linearGradient>
    <linearGradient id="linear-gradient-25" x1="0.908" y1="-0.734" x2="0.034" y2="2.341" xlink:href="#linear-gradient-23"/>
    <linearGradient id="linear-gradient-26" x1="-2.944" y1="-0.378" x2="-1.627" y2="2.004" xlink:href="#linear-gradient-3"/>
    <linearGradient id="linear-gradient-27" x1="-1.336" y1="1.155" x2="9.374" y2="-2.542" xlink:href="#linear-gradient-3"/>
    <linearGradient id="linear-gradient-28" x1="-14.314" y1="4.306" x2="-13.263" y2="5.755" xlink:href="#linear-gradient-17"/>
    <linearGradient id="linear-gradient-29" x1="-40.684" y1="3.547" x2="-40.684" y2="2.195" xlink:href="#linear-gradient-3"/>
    <linearGradient id="linear-gradient-30" x1="-18.633" y1="4.854" x2="-17.301" y2="6.643" xlink:href="#linear-gradient-17"/>
    <linearGradient id="linear-gradient-31" x1="-7.829" y1="-0.514" x2="-6.735" y2="0.793" xlink:href="#linear-gradient-17"/>
    <linearGradient id="linear-gradient-32" x1="-41.059" y1="1.222" x2="-41.059" y2="-0.194" xlink:href="#linear-gradient-3"/>
    <linearGradient id="linear-gradient-33" x1="-0.885" y1="0.911" x2="8.851" y2="-1.979" xlink:href="#linear-gradient-3"/>
    <linearGradient id="linear-gradient-34" x1="-10.225" y1="-1.298" x2="-8.865" y2="0.479" xlink:href="#linear-gradient-17"/>
    <linearGradient id="linear-gradient-35" x1="-16.356" y1="0.884" x2="-15.839" y2="-0.213" xlink:href="#linear-gradient-3"/>
    <linearGradient id="linear-gradient-36" x1="0.49" y1="0.184" x2="0.583" y2="2.5" gradientUnits="objectBoundingBox">
      <stop offset="0" stop-color="#ab316d"/>
      <stop offset="1" stop-color="#792d3d"/>
    </linearGradient>
    <linearGradient id="linear-gradient-37" x1="-24.049" y1="-2.785" x2="-8.049" y2="10.463" xlink:href="#linear-gradient-3"/>
    <linearGradient id="linear-gradient-38" x1="0.405" y1="-1.346" x2="0.689" y2="4.864" xlink:href="#linear-gradient-36"/>
    <linearGradient id="linear-gradient-39" x1="-0.283" y1="0.99" x2="8.555" y2="-3.392" xlink:href="#linear-gradient-3"/>
  </defs>
  <g id="Recurso_1TRC" data-name="Recurso 1TRC" transform="translate(-522.01 -154.024)" style="mix-blend-mode: normal;isolation: isolate">
    <g id="b" transform="translate(522.013 154.027)">
      <g id="c" transform="translate(-0.004 -0.003)">
        <g id="d">
          <path id="Trazado_3226" data-name="Trazado 3226" d="M98.471,24.516C84.713,44.211,100.844,76.143,80.43,90.955c-19.873,14.419-44.285-9.215-63.012,3.2-27.782,18.413-22.709,102.663,17.91,155.009C47.542,264.9,57.749,271.028,62.27,288.832c9.708,38.23-24.408,60.971-17.916,79.878,14.617,42.573,239.428,78.3,329.631-49.649,42.129-59.756,48.433-146.044,10.792-211.582C316.761-10.944,129.342-19.677,98.471,24.516Z" transform="translate(0.004 0.003)" fill="#f4f7fa"/>
          <g id="Grupo_1730" data-name="Grupo 1730" transform="translate(2.875 5.081)">
            <path id="Trazado_3227" data-name="Trazado 3227" d="M205.535,1183.629l-6.575-.056a51.08,51.08,0,0,0-2.322-8.653l5.7-3.23a3.229,3.229,0,0,0,1.192-4.427l-5.624-9.8a3.292,3.292,0,0,0-4.455-1.249l-5.778,3.253a52.634,52.634,0,0,0-6.341-6.376l3.352-5.734a3.284,3.284,0,0,0-1.2-4.473l-9.811-5.788a3.268,3.268,0,0,0-4.492,1.125l-3.374,5.752a52.452,52.452,0,0,0-8.7-2.42v-6.738a3.357,3.357,0,0,0-3.306-3.331l-11.443-.192a3.237,3.237,0,0,0-3.322,3.229v6.759a51.862,51.862,0,0,0-8.781,2.168l-3.417-5.893a3.4,3.4,0,0,0-4.562-1.278l-10.009,5.538a3.242,3.242,0,0,0-1.227,4.49l3.43,5.9a51.739,51.739,0,0,0-6.495,6.287l-5.943-3.449a3.375,3.375,0,0,0-4.6,1.151l-5.822,9.828a3.3,3.3,0,0,0,1.235,4.535l5.9,3.4a50.482,50.482,0,0,0-2.4,8.752l-6.814-.057a3.314,3.314,0,0,0-3.379,3.285v11.444a3.369,3.369,0,0,0,3.379,3.332l6.76.036a51.1,51.1,0,0,0,2.365,8.835l-5.813,3.272a3.27,3.27,0,0,0-1.235,4.518l5.822,9.909a3.4,3.4,0,0,0,4.6,1.215l5.768-3.266a52.817,52.817,0,0,0,6.552,6.476l-3.315,5.65a3.269,3.269,0,0,0,1.227,4.506l10.009,5.676a3.37,3.37,0,0,0,4.562-1.215l3.272-5.6a52.476,52.476,0,0,0,8.925,2.337v6.463a3.292,3.292,0,0,0,3.322,3.275l11.443-.034a3.3,3.3,0,0,0,3.306-3.285v-6.444a51.945,51.945,0,0,0,8.848-2.349l3.231,5.554a3.3,3.3,0,0,0,4.492,1.188l9.811-5.653a3.256,3.256,0,0,0,1.2-4.455l-3.239-5.586a51.731,51.731,0,0,0,6.4-6.386l5.609,3.236a3.264,3.264,0,0,0,4.455-1.186l5.624-9.716a3.255,3.255,0,0,0-1.192-4.445l-5.618-3.26a50.625,50.625,0,0,0,2.289-8.669l6.523.035a3.226,3.226,0,0,0,3.249-3.23V1186.9A3.281,3.281,0,0,0,205.535,1183.629Zm-57.45-24.516a33.581,33.581,0,0,1,33.276,33.356,33.025,33.025,0,0,1-33.276,32.9,33.566,33.566,0,0,1-33.642-33.359A33.012,33.012,0,0,1,148.086,1159.113Z" transform="translate(-76.482 -971.555)" fill="url(#linear-gradient)"/>
            <g id="Grupo_1729" data-name="Grupo 1729" transform="translate(53.879)">
              <path id="Trazado_3228" data-name="Trazado 3228" d="M760.652,322.922l-5.952-.163a44.844,44.844,0,0,0-2.1-7.671l5.165-2.745a2.771,2.771,0,0,0,1.078-3.881l-5.09-8.742a3.069,3.069,0,0,0-4.037-1.187l-5.241,2.758a48.915,48.915,0,0,0-5.756-5.753l3.044-5a2.9,2.9,0,0,0-1.088-3.973l-8.916-5.318a2.987,2.987,0,0,0-4.087.9l-3.073,5.016a49.743,49.743,0,0,0-7.934-2.321v-5.963a3.1,3.1,0,0,0-3.016-3.019l-10.456-.418a2.839,2.839,0,0,0-3.039,2.79v5.989a48.052,48.052,0,0,0-8.042,1.74l-3.132-5.3a3.223,3.223,0,0,0-4.184-1.231l-9.2,4.706a2.792,2.792,0,0,0-1.129,3.964l3.154,5.308a45.277,45.277,0,0,0-5.972,5.456l-5.471-3.183a3.135,3.135,0,0,0-4.237.932l-5.37,8.632a2.916,2.916,0,0,0,1.139,4.06l5.442,3.138a42.963,42.963,0,0,0-2.212,7.742l-6.288-.172a2.942,2.942,0,0,0-3.121,2.866v10.191a3.126,3.126,0,0,0,3.121,3.023l6.239.144a44.776,44.776,0,0,0,2.181,7.9l-5.36,2.822a2.826,2.826,0,0,0-1.139,4l5.37,8.9a3.228,3.228,0,0,0,4.237,1.147l5.31-2.822a48.851,48.851,0,0,0,6.026,5.847l-3.048,4.975a2.878,2.878,0,0,0,1.129,4.021l9.2,5.169a3.123,3.123,0,0,0,4.184-1.02l3-4.924a49.9,49.9,0,0,0,8.175,2.188v5.729a3.015,3.015,0,0,0,3.039,2.943l10.456.109a2.921,2.921,0,0,0,3.016-2.867v-5.7a48.067,48.067,0,0,0,8.064-1.963l2.942,4.951a3.073,3.073,0,0,0,4.087,1.106l8.916-4.868a2.807,2.807,0,0,0,1.088-3.918l-2.942-4.975a45.1,45.1,0,0,0,5.807-5.548l5.086,2.934a2.975,2.975,0,0,0,4.037-.985l5.091-8.484a2.857,2.857,0,0,0-1.078-3.935l-5.088-2.959a43.128,43.128,0,0,0,2.073-7.608l5.9.135a2.821,2.821,0,0,0,2.939-2.793v-9.881a3,3,0,0,0-2.939-2.942Zm-52.227-22.715c16.806.559,30.316,14.033,30.316,30.1s-13.51,28.862-30.316,28.575c-16.963-.29-30.832-13.774-30.832-30.113S691.462,299.643,708.425,300.207Z" transform="translate(-613.36 -240.393)" fill="url(#linear-gradient-2)"/>
              <g id="Grupo_1728" data-name="Grupo 1728">
                <path id="Trazado_3229" data-name="Trazado 3229" d="M484.6,35c-51.893-2.58-95.065,36.119-95.065,86.5s43.17,91.259,95.065,91.3c50.451.035,90.33-38.747,90.33-86.623S535.055,37.5,484.6,35Zm0,156.54c-39.35-.258-71.882-31.355-71.882-69.452s32.532-67.555,71.882-65.83c38.514,1.689,69.142,32.739,69.142,69.383S523.12,191.787,484.6,191.535Z" transform="translate(-389.54 -34.873)" fill="#fff" opacity="0.74"/>
                <g id="Grupo_1727" data-name="Grupo 1727" transform="translate(0.001 0.002)">
                  <path id="Trazado_3230" data-name="Trazado 3230" d="M492.239,860.26,472.27,870.81a94.6,94.6,0,0,0,32.238,32.79L515.883,885a71.812,71.812,0,0,1-23.645-24.742Z" transform="translate(-460.218 -740.009)" fill="url(#linear-gradient-3)"/>
                  <path id="Trazado_3231" data-name="Trazado 3231" d="M1302.589,169.564l18.558-9.78a95,95,0,0,0-29.844-28.5l-10.844,17.75a72.394,72.394,0,0,1,22.129,20.535Z" transform="translate(-1150.66 -117.237)" fill="url(#linear-gradient-4)"/>
                  <path id="Trazado_3232" data-name="Trazado 3232" d="M521.881,140.257a67.438,67.438,0,0,1,23.292-19.29L533.832,101.83a88.62,88.62,0,0,0-31.942,26.81Z" transform="translate(-485.523 -92.077)" fill="url(#linear-gradient-5)"/>
                  <path id="Trazado_3233" data-name="Trazado 3233" d="M412.733,615.689c0-.814.035-1.62.066-2.429l-23.213-.6q-.035,1.217-.035,2.445A87.126,87.126,0,0,0,399.566,655.6l20.053-10.569A66.195,66.195,0,0,1,412.733,615.689Z" transform="translate(-389.55 -528.483)" fill="url(#linear-gradient-6)"/>
                  <path id="Trazado_3234" data-name="Trazado 3234" d="M1479.115,644.138a64.055,64.055,0,0,1-6.395,28l18.493,10.746a84.188,84.188,0,0,0,9.091-38.208q0-1.165-.032-2.324l-21.217-.549C1479.083,642.578,1479.115,643.355,1479.115,644.138Z" transform="translate(-1314.909 -553.377)" opacity="0.25" fill="url(#linear-gradient-7)"/>
                  <path id="Trazado_3235" data-name="Trazado 3235" d="M1329.065,874.14a66.516,66.516,0,0,1-22.365,23.474l10.831,18.3a87.5,87.5,0,0,0,29.987-31.075l-18.453-10.7Z" transform="translate(-1173.077 -751.867)" opacity="0.25" fill="url(#linear-gradient-8)"/>
                  <path id="Trazado_3236" data-name="Trazado 3236" d="M1447.731,360.093a66.869,66.869,0,0,1,9.721,28.742l21.27.574a87.741,87.741,0,0,0-12.511-39.079l-18.481,9.763Z" transform="translate(-1293.56 -304.372)" fill="url(#linear-gradient-9)"/>
                  <path id="Trazado_3237" data-name="Trazado 3237" d="M763.795,1054.47a73.784,73.784,0,0,1-33.654-9.421L718.8,1063.613a97.021,97.021,0,0,0,44.993,12.155v-21.3Z" transform="translate(-670.831 -897.876)" opacity="0.25" fill="url(#linear-gradient-10)"/>
                  <path id="Trazado_3238" data-name="Trazado 3238" d="M1089.4,1049.46a70.874,70.874,0,0,1-32.965,8.806v21.271a93.2,93.2,0,0,0,43.8-11.785L1089.4,1049.46Z" transform="translate(-959.279 -901.644)" opacity="0.25" fill="url(#linear-gradient-11)"/>
                  <path id="Trazado_3239" data-name="Trazado 3239" d="M758.409,62.011a71.531,71.531,0,0,1,29.545-5.785v-21.3a94.069,94.069,0,0,0-40.874,7.936l11.33,19.144Z" transform="translate(-694.99 -34.89)"/>
                  <path id="Trazado_3240" data-name="Trazado 3240" d="M414.564,349.8a63.916,63.916,0,0,1,10.445-29.158L405.052,309.07a84,84,0,0,0-13.752,40.1l23.266.628Z" transform="translate(-391.045 -269.124)" fill="url(#linear-gradient-12)"/>
                  <path id="Trazado_3241" data-name="Trazado 3241" d="M1056.44,57.871a73.853,73.853,0,0,1,29,8.23l10.878-17.782A97.1,97.1,0,0,0,1056.44,36.6Z" transform="translate(-959.279 -36.351)" fill="url(#linear-gradient-13)"/>
                </g>
              </g>
            </g>
            <path id="Trazado_3242" data-name="Trazado 3242" d="M72.174,753.65l-2.9.023a20.8,20.8,0,0,0-1.024-3.666l2.518-1.418a1.362,1.362,0,0,0,.526-1.894l-2.483-4.127a1.466,1.466,0,0,0-1.965-.5L64.295,743.5a22.176,22.176,0,0,0-2.794-2.663l1.477-2.467a1.355,1.355,0,0,0-.529-1.893l-4.323-2.384a1.483,1.483,0,0,0-1.977.514l-1.485,2.473a23.392,23.392,0,0,0-3.829-.96v-2.863a1.419,1.419,0,0,0-1.454-1.388l-5.028.012a1.431,1.431,0,0,0-1.458,1.4v2.87a23.792,23.792,0,0,0-3.854.989l-1.5-2.474a1.5,1.5,0,0,0-2-.506l-4.387,2.429a1.368,1.368,0,0,0-.538,1.914l1.5,2.474a22.907,22.907,0,0,0-2.844,2.716l-2.6-1.416a1.519,1.519,0,0,0-2.012.523l-2.547,4.209a1.36,1.36,0,0,0,.541,1.913l2.582,1.4a21.212,21.212,0,0,0-1.049,3.727l-2.981.025a1.457,1.457,0,0,0-1.477,1.416v4.849a1.424,1.424,0,0,0,1.477,1.389l2.956-.031a20.965,20.965,0,0,0,1.034,3.728l-2.542,1.425a1.378,1.378,0,0,0-.541,1.923l2.547,4.162a1.5,1.5,0,0,0,2.012.487L29.2,772a22.236,22.236,0,0,0,2.87,2.706l-1.453,2.417a1.353,1.353,0,0,0,.538,1.9l4.387,2.347a1.519,1.519,0,0,0,2-.543l1.435-2.4a23.48,23.48,0,0,0,3.918.938v2.745a1.4,1.4,0,0,0,1.458,1.371l5.028-.082a1.453,1.453,0,0,0,1.454-1.416v-2.738a23.74,23.74,0,0,0,3.891-1.052l1.422,2.341a1.467,1.467,0,0,0,1.977.478l4.323-2.464a1.371,1.371,0,0,0,.529-1.9L61.548,774.3a22.836,22.836,0,0,0,2.819-2.758l2.474,1.34a1.482,1.482,0,0,0,1.965-.533l2.483-4.173a1.348,1.348,0,0,0-.526-1.885l-2.48-1.351a21.185,21.185,0,0,0,1.01-3.706l2.879-.029a1.428,1.428,0,0,0,1.435-1.4v-4.777a1.4,1.4,0,0,0-1.435-1.371Zm-25.305-10c8.1-.044,14.642,6.195,14.642,13.936s-6.542,14.1-14.642,14.208c-8.138.106-14.762-6.131-14.762-13.934s6.623-14.164,14.762-14.208Z" transform="translate(-19.73 -630.322)" fill="url(#linear-gradient-14)"/>
          </g>
          <g id="Grupo_1731" data-name="Grupo 1731" transform="translate(248.385 29.861)" style="mix-blend-mode: normal;isolation: isolate">
            <path id="Trazado_3243" data-name="Trazado 3243" d="M1784.383,243.009c16,.838,29.525,15.159,30.211,31.983a31.05,31.05,0,0,1-.154,4.693,21.71,21.71,0,0,1,9.1-1.439c13.2.692,24.363,12.506,24.93,26.391.539,13.2-8.681,23.512-20.927,23.911-.643.017-1.294.015-1.951-.019l-109.424-6.1a15.339,15.339,0,0,1-11.3-14.153c-.312-7.63,5.322-13.512,12.585-13.131a13.163,13.163,0,0,1,4.415,1.017,34.369,34.369,0,0,1-1.122-7.391c-.709-17.393,12.119-30.792,28.658-29.925a30.106,30.106,0,0,1,8.889,1.859,25.857,25.857,0,0,1,26.1-17.686Z" transform="translate(-1704.846 -237.435)" fill="url(#linear-gradient-15)"/>
            <path id="Trazado_3244" data-name="Trazado 3244" d="M1834.483,204.989c16,.838,29.525,15.159,30.211,31.983a31.051,31.051,0,0,1-.154,4.693,21.71,21.71,0,0,1,9.1-1.439c13.2.692,24.363,12.506,24.93,26.391.539,13.2-8.681,23.512-20.927,23.911-.643.017-1.294.015-1.951-.019l-109.424-6.1a15.339,15.339,0,0,1-11.3-14.153c-.312-7.63,5.322-13.512,12.585-13.131a13.162,13.162,0,0,1,4.415,1.017,34.369,34.369,0,0,1-1.122-7.391c-.71-17.393,12.119-30.792,28.658-29.925a30.108,30.108,0,0,1,8.889,1.859,25.857,25.857,0,0,1,26.1-17.686Z" transform="translate(-1747.646 -204.955)" fill="url(#linear-gradient-16)"/>
          </g>
          <g id="Grupo_1732" data-name="Grupo 1732" transform="translate(297.771 111.644)">
            <path id="Trazado_3245" data-name="Trazado 3245" d="M2046.741,781.263a2.921,2.921,0,0,1-2.921-2.921v-9.13a2.921,2.921,0,1,1,5.842,0v9.13A2.921,2.921,0,0,1,2046.741,781.263Z" transform="translate(-2043.82 -766.29)" fill="#413974"/>
            <path id="Trazado_3246" data-name="Trazado 3246" d="M2046.741,945.178a2.921,2.921,0,0,1-2.921-2.921V928.221a2.921,2.921,0,0,1,5.842,0v14.036A2.921,2.921,0,0,1,2046.741,945.178Z" transform="translate(-2043.82 -902.133)" fill="#413974"/>
            <path id="Trazado_3247" data-name="Trazado 3247" d="M2046.741,1132.953a2.921,2.921,0,0,1-2.921-2.921v-9.13a2.921,2.921,0,1,1,5.842,0v9.13A2.921,2.921,0,0,1,2046.741,1132.953Z" transform="translate(-2043.82 -1066.741)" fill="#413974"/>
          </g>
          <g id="Grupo_1733" data-name="Grupo 1733" transform="translate(133.179 146.964)">
            <path id="Trazado_3248" data-name="Trazado 3248" d="M917.021,1023.693a2.921,2.921,0,0,1-2.921-2.921v-9.131a2.921,2.921,0,1,1,5.842,0v9.131A2.921,2.921,0,0,1,917.021,1023.693Z" transform="translate(-914.1 -1008.72)" fill="#413974"/>
            <path id="Trazado_3249" data-name="Trazado 3249" d="M917.021,1187.608a2.921,2.921,0,0,1-2.921-2.921v-14.036a2.921,2.921,0,0,1,5.842,0v14.036A2.921,2.921,0,0,1,917.021,1187.608Z" transform="translate(-914.1 -1144.563)" fill="#413974"/>
            <path id="Trazado_3250" data-name="Trazado 3250" d="M917.021,1375.383a2.921,2.921,0,0,1-2.921-2.921v-9.131a2.921,2.921,0,0,1,5.842,0v9.131A2.921,2.921,0,0,1,917.021,1375.383Z" transform="translate(-914.1 -1309.171)" fill="#413974"/>
          </g>
          <g id="Grupo_1734" data-name="Grupo 1734" transform="translate(218.039 99.092)">
            <path id="Trazado_3251" data-name="Trazado 3251" d="M1499.481,695.113a2.921,2.921,0,0,1-2.921-2.921v-9.131a2.921,2.921,0,1,1,5.842,0v9.131A2.921,2.921,0,0,1,1499.481,695.113Z" transform="translate(-1496.56 -680.14)" fill="#413974"/>
            <path id="Trazado_3252" data-name="Trazado 3252" d="M1499.481,859.038a2.921,2.921,0,0,1-2.921-2.921V842.081a2.921,2.921,0,1,1,5.842,0v14.036A2.921,2.921,0,0,1,1499.481,859.038Z" transform="translate(-1496.56 -815.992)" fill="#413974"/>
            <path id="Trazado_3253" data-name="Trazado 3253" d="M1499.481,1046.813a2.921,2.921,0,0,1-2.921-2.921v-9.13a2.921,2.921,0,0,1,5.842,0v9.13A2.921,2.921,0,0,1,1499.481,1046.813Z" transform="translate(-1496.56 -980.6)" fill="#413974"/>
          </g>
          <g id="Grupo_1735" data-name="Grupo 1735" transform="translate(71.906 198.825)">
            <path id="Trazado_3254" data-name="Trazado 3254" d="M496.461,1379.653a2.921,2.921,0,0,1-2.921-2.921v-9.13a2.921,2.921,0,0,1,5.842,0v9.13A2.921,2.921,0,0,1,496.461,1379.653Z" transform="translate(-493.54 -1364.68)" fill="#413974"/>
            <path id="Trazado_3255" data-name="Trazado 3255" d="M496.461,1543.568a2.921,2.921,0,0,1-2.921-2.921v-14.036a2.921,2.921,0,0,1,5.842,0v14.036A2.921,2.921,0,0,1,496.461,1543.568Z" transform="translate(-493.54 -1500.523)" fill="#413974"/>
            <path id="Trazado_3256" data-name="Trazado 3256" d="M496.461,1731.353a2.921,2.921,0,0,1-2.921-2.921V1719.3a2.921,2.921,0,0,1,5.842,0v9.131A2.921,2.921,0,0,1,496.461,1731.353Z" transform="translate(-493.54 -1665.14)" fill="#413974"/>
          </g>
          <g id="Grupo_1739" data-name="Grupo 1739" transform="translate(44.656 239.082)">
            <path id="Trazado_3257" data-name="Trazado 3257" d="M573.611,2489.22l-249.951-2.13v6.3a3.355,3.355,0,0,0,2.567,3.425l70.679,12.413a9.949,9.949,0,0,0,2.536.117L570.9,2495.195a3.2,3.2,0,0,0,2.716-3.344v-2.631Z" transform="translate(-321.16 -2363.819)" fill="#26264f"/>
            <g id="Grupo_1736" data-name="Grupo 1736">
              <path id="Trazado_3258" data-name="Trazado 3258" d="M468.244,1756.289l-156.661,11.533a4.748,4.748,0,0,1-5.083-4.9V1646.263a5.182,5.182,0,0,1,5.083-5.273H468.244a4.5,4.5,0,0,1,4.177,4.766v105.459c0,2.633-1.868,4.9-4.177,5.073Z" transform="translate(-306.5 -1640.99)" fill="#26264f"/>
              <path id="Trazado_3259" data-name="Trazado 3259" d="M485.384,1756.289l-156.661,11.533a4.748,4.748,0,0,1-5.083-4.9V1646.263a5.182,5.182,0,0,1,5.083-5.273H485.384a4.5,4.5,0,0,1,4.177,4.766v105.459c0,2.633-1.868,4.9-4.177,5.073Z" transform="translate(-321.143 -1640.99)" fill="url(#linear-gradient-17)"/>
              <path id="Trazado_3260" data-name="Trazado 3260" d="M520.478,1788.57l-145.913,10.018a3.892,3.892,0,0,1-4.135-4.02V1692.432a4.246,4.246,0,0,1,4.135-4.323l145.913-.63a3.685,3.685,0,0,1,3.446,3.906v93.028A4.027,4.027,0,0,1,520.478,1788.57Z" transform="translate(-361.116 -1680.706)" fill="#fff"/>
              <path id="Trazado_3261" data-name="Trazado 3261" d="M912.989,1651.391a1.811,1.811,0,1,1-1.8-1.961A1.894,1.894,0,0,1,912.989,1651.391Z" transform="translate(-821.544 -1648.2)" fill="#fff"/>
            </g>
            <path id="Trazado_3262" data-name="Trazado 3262" d="M491.637,2427.783,323.65,2439.922l73.246,12.865a9.949,9.949,0,0,0,2.536.116l174.17-14.379-79.292-10.658a12.976,12.976,0,0,0-2.672-.083Z" transform="translate(-321.151 -2313.124)" fill="url(#linear-gradient-17)"/>
            <path id="Trazado_3263" data-name="Trazado 3263" d="M491.89,2451.877l139.855-10.257,43.284,5.772-138.65,10.963Z" transform="translate(-464.88 -2324.974)" fill="#26264f"/>
            <g id="Grupo_1738" data-name="Grupo 1738" transform="translate(9.572 7.139)">
              <path id="Trazado_3264" data-name="Trazado 3264" d="M434.952,1796.519l-59.524,4.005a3.024,3.024,0,0,1-3.227-3.017V1693.256a3.025,3.025,0,0,1,3.013-3.025l59.74-.242v106.528Z" transform="translate(-372.2 -1689.99)" fill="#d8dee8"/>
              <path id="Trazado_3265" data-name="Trazado 3265" d="M962.775,1995.193l-62.715,2.2v-6.342l62.715-1.965Z" transform="translate(-823.154 -1945.513)" fill="#d8dee8"/>
              <path id="Trazado_3266" data-name="Trazado 3266" d="M962.775,2063.823l-62.715,2.593v-6.341l62.715-2.356Z" transform="translate(-823.154 -2004.144)" fill="#d8dee8"/>
              <path id="Trazado_3267" data-name="Trazado 3267" d="M549.6,2011.59l-36.012,1.228v-4.741l36.012-1.128Z" transform="translate(-492.99 -1960.771)" fill="#fff"/>
              <path id="Trazado_3268" data-name="Trazado 3268" d="M549.6,2063.771l-36.012,1.39v-4.74l36.012-1.291Z" transform="translate(-492.99 -2005.349)" fill="#fff"/>
              <path id="Trazado_3269" data-name="Trazado 3269" d="M549.6,2115.95,513.59,2117.5v-4.74l36.012-1.452Z" transform="translate(-492.99 -2049.927)" fill="#fff"/>
              <path id="Trazado_3270" data-name="Trazado 3270" d="M549.6,2168.132l-36.012,1.713v-4.74l36.012-1.616Z" transform="translate(-492.99 -2094.504)" fill="#fff"/>
              <path id="Trazado_3271" data-name="Trazado 3271" d="M927.774,2143.1l-27.714,1.319v-6.342l27.714-1.214Z" transform="translate(-823.154 -2071.754)" fill="#d8dee8"/>
              <g id="Grupo_1737" data-name="Grupo 1737" transform="translate(100.157 11.575)">
                <path id="Trazado_3272" data-name="Trazado 3272" d="M1059.65,1836.84v9.525a4.924,4.924,0,0,0,5.166,4.852l7.065-.185a5.174,5.174,0,0,0,5.09-5.067v-9.425l-17.322.3Zm6.507,9.847,1.313-3.979a1.717,1.717,0,0,1-.944-1.528,1.844,1.844,0,0,1,1.83-1.805,1.756,1.756,0,0,1,1.826,1.732,1.8,1.8,0,0,1-.941,1.565l1.308,3.913-4.394.1Z" transform="translate(-1059.65 -1826.764)" fill="#d8dee8"/>
                <path id="Trazado_3273" data-name="Trazado 3273" d="M1078.877,1778.388a1.313,1.313,0,0,1-1.358-1.3,5.089,5.089,0,0,0-5.25-5.01,5.289,5.289,0,0,0-5.283,5.178,1.381,1.381,0,0,1-1.377,1.351,1.329,1.329,0,0,1-1.38-1.307,8.035,8.035,0,0,1,8.041-7.867,7.733,7.733,0,0,1,7.962,7.613,1.362,1.362,0,0,1-1.355,1.339Z" transform="translate(-1063.563 -1769.437)" fill="#d8dee8"/>
              </g>
            </g>
            <path id="Trazado_3274" data-name="Trazado 3274" d="M328.723,1767.822l155.868-11.475.793-.058a4.21,4.21,0,0,0,2.759-1.4c-11.217-.613-18.183-4.594-22.677-8.707-9.026-8.259-7.46-16.405-17.192-21.835-12.139-6.773-21.684,1.81-30.9-6.66-5.584-5.134-2.842-8.963-9.715-16.635-7.611-8.5-12.566-5.641-20.215-13.289-9.671-9.67-4.834-17.193-13.165-24.137-10.107-8.422-21.006-.626-30.626-8.705-4.149-3.484-6.427-8.549-7.615-13.936h-7.32a5.183,5.183,0,0,0-5.083,5.273v116.661a4.749,4.749,0,0,0,5.082,4.9Z" transform="translate(-321.143 -1640.99)" fill="#fff" opacity="0.48" style="mix-blend-mode: soft-light;isolation: isolate"/>
          </g>
          <g id="Grupo_1741" data-name="Grupo 1741" transform="translate(148.801 146.9)">
            <path id="Trazado_3275" data-name="Trazado 3275" d="M1109.709,1226.119a22.777,22.777,0,0,1-12.39-3.2c-11.308-6.779-28.018-17.974-43.052-32.628-19.075-18.6-30.036-37.5-32.434-56.06l-.038-.291-.465-79.2c0-15.653,10.21-28.359,29.378-36.707,15.837-6.9,36.827-10.315,59-9.674,21.917.634,42.2,5.156,57.208,12.691,17.843,8.957,27.205,21.545,27.205,36.469l-.424,75.679-.035.278c-2.191,17.775-12.276,36.148-30.1,54.727-14.3,14.9-30.451,26.711-41.546,34.028a23.573,23.573,0,0,1-12.31,3.9Z" transform="translate(-1021.33 -1008.277)" fill="url(#linear-gradient-19)"/>
            <path id="Trazado_3276" data-name="Trazado 3276" d="M1146.4,1226.119a22.246,22.246,0,0,1-12.227-3.2c-11.159-6.779-27.648-17.974-42.483-32.628-18.824-18.6-29.638-37.5-32.006-56.06l-.038-.291-.459-79.2c0-15.653,10.075-28.359,28.989-36.707,15.627-6.9,36.34-10.315,58.222-9.674,21.627.634,41.639,5.156,56.452,12.691,17.608,8.957,26.847,21.545,26.847,36.469l-.42,75.679-.033.278c-2.162,17.775-12.113,36.148-29.7,54.727-14.107,14.9-30.048,26.711-41,34.028a23.048,23.048,0,0,1-12.146,3.9Z" transform="translate(-1053.674 -1008.277)" fill="url(#linear-gradient-20)"/>
            <path id="Trazado_3277" data-name="Trazado 3277" d="M1095.09,1083.31l.462,78.8c5.187,40.207,52.439,72.759,73.02,85.127a18.168,18.168,0,0,0,19.287-.519c20.151-13.26,64.814-46.639,69.586-85.3l.424-75.469c0-55.993-162.779-61.111-162.779-2.643Z" transform="translate(-1084.344 -1036.797)" fill="url(#linear-gradient-21)"/>
            <path id="Trazado_3278" data-name="Trazado 3278" d="M1269.728,1321.357a2.814,2.814,0,0,1-1.526-.4c-8.473-5.131-24.9-15.879-39.19-29.917-15.435-15.162-24.338-29.9-26.379-43.749l-.453-77.5c.019-7.436,5.9-13.8,17.444-18.892,12.881-5.685,31.172-8.667,50.1-8.219,18.742.444,36.5,4.218,48.8,10.322,10.882,5.4,16.385,11.766,16.4,18.944l-.422,74.814c-1.906,13.4-10.261,27.84-24.931,43.023-13.794,14.275-29.906,25.592-38.329,31.1a2.917,2.917,0,0,1-1.524.475Z" transform="translate(-1175.831 -1123.061)" fill="url(#linear-gradient-22)"/>
            <path id="Trazado_3279" data-name="Trazado 3279" d="M1286.784,1344.755c-8.558-5.271-23.774-15.448-37.051-28.514-14.505-14.276-22.9-27.975-24.874-40.651l-.449-77.047c.013-5.316,4.9-10.193,14.488-14.438,12.2-5.4,29.684-8.249,47.885-7.841,18.027.405,35.019,3.966,46.7,9.742,9.073,4.489,13.663,9.386,13.675,14.571l-.421,74.54c-1.852,12.3-9.769,25.748-23.615,40.052-12.855,13.28-27.816,23.959-36.334,29.586Z" transform="translate(-1194.823 -1151.757)" fill="#f4f7fa"/>
            <g id="Grupo_1740" data-name="Grupo 1740" transform="translate(56.918 56.013)">
              <path id="Trazado_3280" data-name="Trazado 3280" d="M1477.664,1640.58l-57.625.513A7.939,7.939,0,0,0,1412,1648.8v36.922a7.441,7.441,0,0,0,8.009,7.263l57.422-2.352a7.732,7.732,0,0,0,7.417-7.554l.182-35.271a7.224,7.224,0,0,0-7.368-7.231Z" transform="translate(-1412 -1604.47)" fill="url(#linear-gradient-23)"/>
              <path id="Trazado_3281" data-name="Trazado 3281" d="M1631.645,1744.579a7.135,7.135,0,0,0-7.761-7.031,7.621,7.621,0,0,0-7.135,6.961,6.941,6.941,0,0,0,3.715,6.559,2.572,2.572,0,0,1,1.291,2.746l-1.665,9.327a1.875,1.875,0,0,0,1.97,2.188l4.215-.148a2.03,2.03,0,0,0,1.967-2.315l-1.611-9.238a2.75,2.75,0,0,1,1.375-2.8,7.367,7.367,0,0,0,3.638-6.253Z" transform="translate(-1586.909 -1687.297)" fill="url(#linear-gradient-22)"/>
              <path id="Trazado_3282" data-name="Trazado 3282" d="M1509.48,1425.183a3.074,3.074,0,0,1-3.122-3.071l.035-8.042a14.944,14.944,0,0,0-14.966-14.805l-18.809-.187c-8.613-.086-15.7,6.63-15.7,14.964l-.007,8.3a3.3,3.3,0,0,1-3.354,3.211,3.262,3.262,0,0,1-3.364-3.18l0-8.331c0-11.909,10.148-21.474,22.437-21.3l18.818.262c11.822.165,21.264,9.626,21.209,21.076l-.038,8.01a3.144,3.144,0,0,1-3.138,3.1Z" transform="translate(-1444.626 -1392.734)" fill="url(#linear-gradient-25)"/>
            </g>
          </g>
          <g id="Grupo_1743" data-name="Grupo 1743" transform="translate(257.784 141.79)">
            <path id="Trazado_3283" data-name="Trazado 3283" d="M1787.381,1388.169l-4.518-4.93a16.811,16.811,0,0,0-4.018-3.465c-3.635-2.229-8.637-3.322-9.385-2.05-.849,1.444,3.9,5.723,5.519,7.133q3.35,2.435,6.7,4.868l5.7-1.557Z" transform="translate(-1769.358 -1318.327)" fill="url(#linear-gradient-26)"/>
            <path id="Trazado_3284" data-name="Trazado 3284" d="M2347.278,1222.591c1.227.463,19.941,7.907,23.787,27.438.31,1.578,3.317,18.359-8.063,30.214-12.761,13.293-37.334,12.964-47.086,1.85a19.918,19.918,0,0,1-4.146-7.878h0l2.57-6.827c3.135-3.785,7.405-4.683,9.686-5.245,5.621-1.385,9.865,1.119,13.085-1.592,1.782-1.5,2.134-3.658,2.452-5.587,1.077-6.568-2.63-10.611-2.9-14.661-.2-3.028-1.262-9.662,2.691-13.988a12.77,12.77,0,0,1,7.927-3.725Z" transform="translate(-2232.744 -1186.257)" fill="url(#linear-gradient-27)"/>
            <path id="Trazado_3285" data-name="Trazado 3285" d="M2605.5,2707.939c.219-1.2,4.1-2.29,6.024-.68.955.8,1.613,2.421,1.059,3.153-.2.267.622.734-.166.744C2609.8,2711.187,2605.279,2709.134,2605.5,2707.939Z" transform="translate(-2483.67 -2453.927)" fill="url(#linear-gradient-28)"/>
            <path id="Trazado_3286" data-name="Trazado 3286" d="M2623.151,2661.715l3.993-.563c-1.85-2.228-1.508-9.322-1.508-9.322l-4.247.948s.484,1.947,1.307,4.82a18.833,18.833,0,0,1,.455,4.119Z" transform="translate(-2497.254 -2407.266)" fill="url(#linear-gradient-29)"/>
            <path id="Trazado_3287" data-name="Trazado 3287" d="M2630.646,2713.126s4.808-1.107,5.328-.154.924,3.507-2.127,3.425S2630.375,2713.935,2630.646,2713.126Z" transform="translate(-2505.103 -2459.169)" fill="url(#linear-gradient-30)"/>
            <path id="Trazado_3288" data-name="Trazado 3288" d="M2229.3,2741.444c.385-1.16,4.381-1.694,6.061.169.833.925,1.257,2.622.608,3.269-.236.236.513.814-.27.714-2.595-.337-6.781-3-6.4-4.154Z" transform="translate(-2162.266 -2482.924)" fill="url(#linear-gradient-31)"/>
            <path id="Trazado_3289" data-name="Trazado 3289" d="M2253.792,2699.151h4.033c-1.52-2.465-.188-9.441-.188-9.441l-4.337.344s.207,2,.619,4.955A18.871,18.871,0,0,1,2253.792,2699.151Z" transform="translate(-2182.793 -2439.627)" fill="url(#linear-gradient-32)"/>
            <path id="Trazado_3290" data-name="Trazado 3290" d="M2140.487,1688.441a186.727,186.727,0,0,0-6.255,28.621c-4.9,35.636,5.513,36.773,3.57,76.263-.621,12.605,10.92,41.671,11.938,42.314a12.4,12.4,0,0,0,1.6.063,15.905,15.905,0,0,0,4.065-.677c1.828-.315,8.419-18.168,6.891-28.783-1.081-7.513-.768-15.576-.141-31.7.1-2.612,6.786-50.835,6.786-50.835h0c2.034,17.849,4.372,33.016,6.4,44.773,6.514,37.779,27.693,60.644,28.8,61.011a4.481,4.481,0,0,0,3.831-.261,2.644,2.644,0,0,0,.969-1.091c.567-.444-.167-37.717-6.628-65.769-9.376-40.716-5.293-50.242-8.264-68.429C2191.474,1678.2,2140.487,1688.441,2140.487,1688.441Z" transform="translate(-2079.941 -1581.439)"/>
            <path id="Trazado_3291" data-name="Trazado 3291" d="M2197.031,1198.063c-6.226-.183-20.534-2.381-28.416,4.712-.137.122,1.477.986.682,1.917a51.519,51.519,0,0,0-5.564,7.984,53.654,53.654,0,0,0-4.677,11.568,99.353,99.353,0,0,0-3.692,20.183c-1.441,18.948-.011,27.688,1.283,33.633,5.628,2.891,20.132,8.064,37.414,5.494a58.39,58.39,0,0,0,18.652-6.144c-4.485-13.577-.966-20.843.693-27.539,2.366-9.549,2.406-8.826,4.353-16.412,3.215-12.515,3.743-25.3,1.534-27.921C2213.337,1198.482,2202.6,1198.227,2197.031,1198.063Z" transform="translate(-2098.61 -1164.907)" fill="url(#linear-gradient-33)"/>
            <path id="Trazado_3292" data-name="Trazado 3292" d="M2253.8,2750.306s4.916-.424,5.3.593.424,3.6-2.585,3.093-3.093-2.924-2.713-3.687Z" transform="translate(-2183.087 -2491.32)" fill="url(#linear-gradient-34)"/>
            <g id="Grupo_1742" data-name="Grupo 1742" transform="translate(77.057)">
              <path id="Trazado_3293" data-name="Trazado 3293" d="M2302.1,1066.559a10.829,10.829,0,0,1-.876-7.789c.812-3.37,1.113-3.88,1.738-4.594l.885-.935s.055-.041.114-.082a12.684,12.684,0,0,1,3.406-1.135c1.584-.08,4.8,5.6,6.651,14.348q.225.468.446.947c.915,1.986,1.7,3.938,2.375,5.841,10.7.9,12.186,2.161,12.234,2.885.1,1.527-6,3.29-10.582,3.961-10,1.464-20.279-1.173-20.233-3.038.02-.812,2.008-1.869,10.486-2.98q-.3-2.1-.594-4.209c-.689-.153-4.626-.82-6.046-3.223Z" transform="translate(-2298.259 -1040.541)" fill="url(#linear-gradient-35)"/>
              <path id="Trazado_3294" data-name="Trazado 3294" d="M2308.837,984.284c.721,2.671,2.742,5.19,3.505,5.478a4.608,4.608,0,0,1,1.25.8,1.347,1.347,0,0,1,.236.275c1.034,1.528-1.116,4.225-.4,4.841.522.447,2.146-.769,2.489-.355.322.39-.944,1.715-.571,2.185.283.355,1.115-.261,1.866.2.375.229.353.5.914,1.35a8.69,8.69,0,0,0,.994,1.271c1.342,1.323,4.111,1.2,4.448.437.093-.213-.066-.328-.08-.953a4.821,4.821,0,0,1,.2-1.31c.3-1.043,1.436-2.035,2.5-3.336a8.959,8.959,0,0,0,2.3-4.643c.023-.2.031-.347.036-.453a10.278,10.278,0,0,0-2.019-6.578c-2.279-2.586-5.25-.278-8.777-2.5-4.069-2.566-3.43-7.726-5.281-7.783-2.042-.063-4.948,6.141-3.613,11.08Z" transform="translate(-2307.006 -973.207)" fill="url(#linear-gradient-36)"/>
              <path id="Trazado_3295" data-name="Trazado 3295" d="M2345.376,1117.974c.415-1.075,1.792-.536,2.11.626a2.2,2.2,0,0,1-1.645,2.736c-1.157.063-1.023-1.917-.465-3.364Z" transform="translate(-2338.156 -1096.386)" fill="url(#linear-gradient-37)"/>
            </g>
            <path id="Trazado_3296" data-name="Trazado 3296" d="M2536.857,1485.571a.146.146,0,0,1-.145-.13c-.743-6.687.638-11.53,1.856-15.8.3-1.043.579-2.028.823-3.014,1.345-5.427,1.934-7.522,2.557-9.74.4-1.441.823-2.93,1.472-5.418a.143.143,0,0,1,.176-.1.145.145,0,0,1,.1.176c-.648,2.491-1.068,3.982-1.473,5.424-.624,2.216-1.211,4.31-2.556,9.731-.245.991-.527,1.979-.826,3.025-1.211,4.247-2.585,9.062-1.848,15.693a.144.144,0,0,1-.128.16h-.016Z" transform="translate(-2424.735 -1381.694)" fill="#9b305e"/>
            <path id="Trazado_3297" data-name="Trazado 3297" d="M2317.393,1107.03l-.992,2.382s-.992,2.86-2.3,1.788c-1.071-.876-1.266-.8-1.3-.74-.007.012-.006.025-.009.025s-.029-.57-.039-1.072a9.221,9.221,0,0,0-.557,3.137c0,1.318,0,2.732,1.033,3.813a3.927,3.927,0,0,0,2.7,1.152,10.4,10.4,0,0,0,2.86-1.072s-3.1-1.192-3.256-1.629c-.431-1.187,1.08-2.295,1.668-5.123A10.353,10.353,0,0,0,2317.393,1107.03Z" transform="translate(-2233.103 -1087.533)" fill="url(#linear-gradient-38)"/>
            <path id="Trazado_3298" data-name="Trazado 3298" d="M1851.935,1257.678a12.478,12.478,0,0,0-4.085,5.08,37.743,37.743,0,0,0,13.179,16.415c12.74,8.717,31.42,9.01,44.43-.931,15.546-11.875,18.142-34.65,11.614-44.4-.752-1.123-3.223-4.814-7.059-5.238-2.423-.268-5.72.731-10.93,6.831-10.855,12.71-7.021,20.646-13.434,24.364C1876.033,1265.374,1861.742,1250.815,1851.935,1257.678Z" transform="translate(-1836.414 -1191.36)" fill="url(#linear-gradient-39)"/>
            <path id="Trazado_3299" data-name="Trazado 3299" d="M2175.4,1473.557a.145.145,0,0,1-.141-.115.143.143,0,0,1,.111-.172c.152-.033,15.234-3.507,22.026-22.245a.145.145,0,1,1,.272.1c-3.578,9.871-9.429,15.442-13.707,18.378a27.139,27.139,0,0,1-8.529,4.052.11.11,0,0,1-.031,0Z" transform="translate(-2116.119 -1381.328)" fill="#9b305e"/>
          </g>
          <path id="Trazado_3300" data-name="Trazado 3300" d="M2153.138,418.813l-2.2.017a15.927,15.927,0,0,0-.777-2.781l1.91-1.075a1.033,1.033,0,0,0,.4-1.437l-1.884-3.131a1.112,1.112,0,0,0-1.492-.377l-1.933,1.084a16.847,16.847,0,0,0-2.12-2.021l1.12-1.871a1.03,1.03,0,0,0-.4-1.436l-3.28-1.808a1.125,1.125,0,0,0-1.5.39l-1.126,1.877a17.843,17.843,0,0,0-2.905-.728v-2.172a1.078,1.078,0,0,0-1.1-1.053l-3.814.009a1.085,1.085,0,0,0-1.106,1.061v2.177a18.041,18.041,0,0,0-2.924.75l-1.138-1.877a1.138,1.138,0,0,0-1.517-.383l-3.328,1.843a1.038,1.038,0,0,0-.408,1.453l1.139,1.876a17.381,17.381,0,0,0-2.158,2.06l-1.974-1.075a1.152,1.152,0,0,0-1.527.4l-1.932,3.194a1.032,1.032,0,0,0,.409,1.451l1.958,1.062a15.981,15.981,0,0,0-.8,2.828l-2.261.019a1.1,1.1,0,0,0-1.12,1.074v3.679a1.08,1.08,0,0,0,1.12,1.053l2.244-.023a15.835,15.835,0,0,0,.785,2.829l-1.929,1.081a1.043,1.043,0,0,0-.409,1.458l1.932,3.157a1.141,1.141,0,0,0,1.527.369l1.916-1.078a17,17,0,0,0,2.178,2.053l-1.1,1.834a1.025,1.025,0,0,0,.408,1.444l3.328,1.782a1.149,1.149,0,0,0,1.517-.412l1.09-1.818a17.709,17.709,0,0,0,2.972.711v2.082a1.062,1.062,0,0,0,1.106,1.04l3.814-.063a1.1,1.1,0,0,0,1.1-1.074v-2.078a18.075,18.075,0,0,0,2.953-.8l1.079,1.776a1.115,1.115,0,0,0,1.5.363l3.28-1.869a1.04,1.04,0,0,0,.4-1.444l-1.083-1.788a17.282,17.282,0,0,0,2.139-2.092l1.876,1.017a1.125,1.125,0,0,0,1.492-.4l1.884-3.166a1.021,1.021,0,0,0-.4-1.429l-1.881-1.024a16.061,16.061,0,0,0,.766-2.812l2.184-.022a1.082,1.082,0,0,0,1.088-1.061v-3.625a1.058,1.058,0,0,0-1.088-1.04Zm-19.2-7.588A10.8,10.8,0,0,1,2145.05,421.8a11.045,11.045,0,0,1-11.109,10.778,10.8,10.8,0,0,1-11.2-10.572A11.046,11.046,0,0,1,2133.94,411.225Z" transform="translate(-1805.448 -343.679)" fill="#fff"/>
        </g>
      </g>
    </g>
  </g>
</svg>
