<svg xmlns="http://www.w3.org/2000/svg" xmlns:xlink="http://www.w3.org/1999/xlink" width="405.817" height="393.269" viewBox="0 0 405.817 393.269">
  <defs>
    <linearGradient id="linear-gradient" x1="-2.174" y1="-4.071" x2="-1.881" y2="-0.771" gradientUnits="objectBoundingBox">
      <stop offset="0" stop-color="#ffc444"/>
      <stop offset="1" stop-color="#f36f56"/>
    </linearGradient>
    <clipPath id="clip-path">
      <path id="Trazado_3049" data-name="Trazado 3049" d="M821.1,368.551c-9.214,17.266-19.3,34.453-28.675,51.79,7.071,8.643,15.6,18.638,27.164,10.92,16.08-10.731,44.273,7.975,55.364,18.948,13.727,13.581,46.128,40.177,59.474,15.116,11.112-20.863,9.687-38.124,37.36-29.861s48.673,1.969,57.568-22.93c9.36-26.2,50.622-32.021,45.39-60.4-9.116-49.442-83.154-21.89-109.8,7.615s-35.514,7.934-58.833-5.031c-31.836-17.7-34.426,25.969-54.48,27.493-15.721,1.194-19.613-6.048-30.532-13.664Z" transform="translate(-792.42 -324.962)" fill="none"/>
    </clipPath>
    <clipPath id="clip-path-2">
      <path id="Trazado_3058" data-name="Trazado 3058" d="M362.532,366.6q-21.365-13.491-42.207-28.007c-.347.114,9.339-35.219,32.771-45.615,46.025-19.858,38.456-59.346,40.409-79.889,1.618-29.473,20.116-57.969,45.361-39.906,24.883,16.948,53.7-36.972,68.059-81.986,5.276-22.668,36.236-39.286,58.484-36.358,22.935,2.484,37.159,24.513,24.836,68.9-12.079,52.358-60.176,65.844-83.929,84.249-23.348,18.055-2.026,50.489-35.365,60.879-28.485,9.737-59.9,11.888-60.993,39.494-.721,27.454-11.422,45.415-47.425,58.244Z" transform="translate(-320.316 -54.504)" fill="none"/>
    </clipPath>
    <linearGradient id="linear-gradient-2" x1="0.481" y1="-0.485" x2="0.045" y2="0.604" gradientUnits="objectBoundingBox">
      <stop offset="0" stop-color="#aa80f9"/>
      <stop offset="1" stop-color="#6165d7"/>
    </linearGradient>
    <linearGradient id="linear-gradient-3" x1="0.104" y1="0.52" x2="0.271" y2="0.496" gradientUnits="objectBoundingBox">
      <stop offset="0" stop-color="#26264f"/>
      <stop offset="1" stop-color="#444b8c"/>
    </linearGradient>
    <linearGradient id="linear-gradient-4" x1="0.224" y1="1.168" x2="0.333" y2="0.92" gradientUnits="objectBoundingBox">
      <stop offset="0" stop-color="#444b8c"/>
      <stop offset="1" stop-color="#26264f"/>
    </linearGradient>
    <linearGradient id="linear-gradient-5" x1="0.544" y1="1.144" x2="0.375" y2="-0.313" xlink:href="#linear-gradient-4"/>
    <linearGradient id="linear-gradient-6" x1="0.69" y1="0.085" x2="0.96" y2="-0.45" xlink:href="#linear-gradient-4"/>
    <linearGradient id="linear-gradient-7" x1="0.574" y1="0.133" x2="0.226" y2="1.688" xlink:href="#linear-gradient-4"/>
    <linearGradient id="linear-gradient-8" x1="0.596" y1="0.113" x2="0.23" y2="1.443" gradientUnits="objectBoundingBox">
      <stop offset="0" stop-color="#e38ddd"/>
      <stop offset="1" stop-color="#9571f6"/>
    </linearGradient>
    <linearGradient id="linear-gradient-9" x1="0.499" y1="0.59" x2="0.478" y2="3.084" gradientUnits="objectBoundingBox">
      <stop offset="0" stop-color="#ff9085"/>
      <stop offset="1" stop-color="#fb6fbb"/>
    </linearGradient>
    <linearGradient id="linear-gradient-10" x1="0" y1="0.5" x2="1" y2="0.5" xlink:href="#linear-gradient"/>
    <linearGradient id="linear-gradient-13" x1="3.216" y1="-0.465" x2="2.714" y2="-1.009" xlink:href="#linear-gradient"/>
    <linearGradient id="linear-gradient-15" x1="0" y1="0.5" x2="1" y2="0.5" xlink:href="#linear-gradient-2"/>
    <linearGradient id="linear-gradient-17" x1="0.382" y1="0.422" x2="1.439" y2="0.422" xlink:href="#linear-gradient-4"/>
    <linearGradient id="linear-gradient-18" x1="0.805" y1="0.569" x2="0.951" y2="0.336" xlink:href="#linear-gradient-4"/>
    <linearGradient id="linear-gradient-19" x1="0.242" y1="1.669" x2="0.903" y2="-1.221" xlink:href="#linear-gradient-9"/>
    <linearGradient id="linear-gradient-20" x1="14.349" y1="-6.001" x2="-16.464" y2="75.442" xlink:href="#linear-gradient"/>
    <linearGradient id="linear-gradient-21" x1="-2.281" y1="0.31" x2="-1.277" y2="2.031" xlink:href="#linear-gradient-8"/>
    <linearGradient id="linear-gradient-22" x1="-4.415" y1="-0.27" x2="-2.586" y2="1.765" xlink:href="#linear-gradient-8"/>
    <linearGradient id="linear-gradient-23" x1="-1.47" y1="-0.386" x2="-0.972" y2="1.5" xlink:href="#linear-gradient-8"/>
  </defs>
  <g id="Recurso_3TRC" data-name="Recurso 3TRC" transform="translate(-0.018 0.001)" style="mix-blend-mode: normal;isolation: isolate">
    <g id="b" transform="translate(0.018 -0.001)">
      <g id="c" transform="translate(0)">
        <path id="Trazado_3042" data-name="Trazado 3042" d="M220.549,68.663s-138,6-145.829,127.364S30.678,432.869,118.761,439.762s294.593,20.283,323.955-52.022S486.759,43.2,220.549,68.663Z" transform="translate(-52.266 -57.666)" fill="#f4f7fa"/>
        <g id="Grupo_1629" data-name="Grupo 1629" transform="translate(110.271 45.222)">
          <path id="Trazado_3043" data-name="Trazado 3043" d="M918.444,430.655c-1.695-2.286-3.368-8.757-3.109-10.624,1.726-12.42,3.447-35.885,13.519-44.5,1.72-1.472,10.238,4.349,12.714,3.93,6.332,2.392,8.379,3.615,15.515,2.934,21.069-2.014,22.661-45.223,54.768-27.651,23.518,12.872,32.159,34.552,58.859,5.018s100.683-57.049,109.817-7.62c5.242,28.368-36.036,34.195-45.391,60.4-8.89,24.9-29.89,31.189-57.569,22.928s-26.228,8.993-37.363,29.862c-13.376,25.07-45.661-1.554-59.519-15.117-11.158-10.923-46.94-31.205-62.244-19.555Z" transform="translate(-898.207 -324.962)" fill="url(#linear-gradient)"/>
          <g id="Grupo_1628" data-name="Grupo 1628" transform="translate(0 0)" clip-path="url(#clip-path)">
            <g id="Grupo_1627" data-name="Grupo 1627" transform="translate(23.312 -10.322)">
              <path id="Trazado_3044" data-name="Trazado 3044" d="M959.94,465.306l.209-.568c87.571,32.046,184.665,8.663,259.725-62.549l.417.44c-35.574,33.749-77.731,57.618-121.913,69.025-46.449,11.993-94.32,9.8-138.437-6.347Z" transform="translate(-959.94 -381.121)" fill="#fcfdfe"/>
              <path id="Trazado_3045" data-name="Trazado 3045" d="M1395.9,1005.118c-11.083-22.971-39.043-52.32-62.327-65.421l.3-.527c23.376,13.153,51.448,42.619,62.576,65.685Z" transform="translate(-1281.575 -843.375)" fill="#fcfdfe"/>
              <path id="Trazado_3046" data-name="Trazado 3046" d="M1083.971,547.094l.043-.6c13.853.971,27.667-5.1,41.054-18.041,9.816-9.489,19.181-22.385,27.831-38.329l.532.289c-8.681,16-18.081,28.943-27.942,38.475-13.517,13.067-27.486,19.194-41.519,18.211Z" transform="translate(-1066.71 -456.815)" fill="#fcfdfe"/>
              <path id="Trazado_3047" data-name="Trazado 3047" d="M1999.35,884.215l.011-.605c26.208.487,48.588,16.58,62.749,29.992l-.416.44c-14.082-13.34-36.329-29.342-62.343-29.826Z" transform="translate(-1854.705 -795.546)" fill="#fcfdfe"/>
              <path id="Trazado_3048" data-name="Trazado 3048" d="M2395.877,316.682l-.387-.465c22.7-18.891,29.637-49.1,31.754-65.428l.6.078c-2.129,16.414-9.111,46.791-31.966,65.816Z" transform="translate(-2195.718 -250.79)" fill="#fcfdfe"/>
            </g>
          </g>
        </g>
        <g id="Grupo_1631" data-name="Grupo 1631" transform="translate(44.573 7.585)" clip-path="url(#clip-path-2)">
          <path id="Trazado_3050" data-name="Trazado 3050" d="M362.532,366.61q-21.365-13.491-42.207-28.007c-.347.114,9.339-35.219,32.771-45.615,46.025-19.858,38.456-59.346,40.409-79.889,1.706-29.412,18.789-54.508,44.632-43.536,28.909,11.612,54.952-33.212,68.788-78.354,5.276-22.668,36.236-39.286,58.484-36.358,22.935,2.484,37.159,24.513,24.836,68.9-12.079,52.358-60.176,65.844-83.929,84.249-23.348,18.055-2.026,50.489-35.365,60.879-28.485,9.737-59.9,11.888-60.993,39.494-.721,27.454-11.422,45.415-47.425,58.244Z" transform="translate(-320.316 -54.512)" fill="url(#linear-gradient-2)"/>
          <g id="Grupo_1630" data-name="Grupo 1630" transform="translate(20.204 -13.812)">
            <path id="Trazado_3051" data-name="Trazado 3051" d="M465.5,273.748c.127-.3,45.575-63.538,100.769-120.253,8.33-9.439,17.007-18.845,25.4-27.941,46.729-50.656,90.865-98.5,97.979-170.3l1,.1c-7.149,72.139-51.395,120.1-98.24,170.885-8.387,9.091-17.06,18.493-25.4,27.942-55.493,57.022-100.363,119.59-100.6,120l-.906-.429Z" transform="translate(-465.5 44.75)" fill="#beb8f2"/>
            <path id="Trazado_3052" data-name="Trazado 3052" d="M1678.379,549.87l-.409-.916c25.344-11.34,57.724-29.075,75.119-38.6,14.079-7.711,14.116-7.69,14.551-7.408l-.271.422.038.491c-.647.152-6.467,3.338-13.835,7.374C1736.163,520.765,1703.761,538.513,1678.379,549.87Z" transform="translate(-1509.242 -426.654)" fill="#beb8f2"/>
            <path id="Trazado_3053" data-name="Trazado 3053" d="M1741.661,217.845c6.042-23.071,3.482-41.166.269-52.284-3.5-12.11-8.688-19.264-9.48-19.8l.219-.323-.108-.622c.3-.051.529.129.853.483,4.651,5.056,19.844,32.23,9.218,72.8l-.971-.253Z" transform="translate(-1556.141 -118.429)" fill="#beb8f2"/>
            <path id="Trazado_3054" data-name="Trazado 3054" d="M941.913,929.7l-.863-.512c24.208-40.781,12.775-93.911,6.734-114.862a16.293,16.293,0,0,1-.447-1.666l1-.109-.5.054.5-.057c.018.124.2.761.415,1.5a205.664,205.664,0,0,1,7.861,44.657c1.652,27.9-3.293,51.786-14.7,70.994Z" transform="translate(-874.872 -693.248)" fill="#beb8f2"/>
            <path id="Trazado_3055" data-name="Trazado 3055" d="M1060.226,1448.043l-.566-.828c31.3-21.385,70.657-6.49,71.25-6.144,0,0,0,0,.006,0l.152.58-.513.312.046-.5-.232.437c-.36-.171-39.151-15.036-70.142,6.134Zm70.421-7.076-.046.5Z" transform="translate(-976.976 -1229.682)" fill="#beb8f2"/>
            <path id="Trazado_3056" data-name="Trazado 3056" d="M520.05,1826.9c4.194-8.593,7.669-24.878.416-53.648a4.422,4.422,0,0,1-.273-1.854l.85.534-.424-.267.5-.006c.013.117.157.688.323,1.349,7.328,29.065,3.78,45.589-.487,54.334l-.9-.44Z" transform="translate(-512.459 -1518.664)" fill="#beb8f2"/>
            <path id="Trazado_3057" data-name="Trazado 3057" d="M601.988,1969.39l-.768-.646c11.425-13.583,38.225-15.343,53.183-15.183.475.006.779.01.892,0l.057,1c-.121.007-.45,0-.96,0-14.782-.159-41.244,1.557-52.405,14.825Z" transform="translate(-582.333 -1675.468)" fill="#beb8f2"/>
          </g>
        </g>
        <g id="Grupo_1641" data-name="Grupo 1641" transform="translate(12.014 65.21)">
          <path id="Trazado_3059" data-name="Trazado 3059" d="M100.318,747.123c-7.686.449-13.968-4.924-13.968-11.978V480.893c0-7.054,6.282-12.566,13.968-12.286L463.076,481.77a11.381,11.381,0,0,1,10.639,11.5V714.19c0,6.13-4.762,11.394-10.639,11.738Z" transform="translate(-86.35 -468.597)" fill="url(#linear-gradient-3)"/>
          <path id="Trazado_3060" data-name="Trazado 3060" d="M1261.076,2317.548a17.709,17.709,0,0,1-11.354-13.526l-8.439-43.822-72.19,2.69-8.884,45.652c-1.244,6.393,3.736,12.808,9.473,15.163l30.2,12.4a37.589,37.589,0,0,0,17.657,2.686l63.829-5.729a4.054,4.054,0,0,0,3.579-3.681c.217-1.975,1.524-4.192-.255-4.811l-23.62-7.021Z" transform="translate(-1010.606 -2010.88)" fill="url(#linear-gradient-4)"/>
          <path id="Trazado_3061" data-name="Trazado 3061" d="M1276.842,2302.857A17.547,17.547,0,0,1,1265.5,2289.5l-8.43-43.271-70.429,2.658-8.876,45.078a13.32,13.32,0,0,0,7.776,14.969l30.173,12.242a37.959,37.959,0,0,0,17.64,2.652l63.765-5.657a4.028,4.028,0,0,0,3.576-3.635,4.138,4.138,0,0,0-2.682-4.4l-21.169-7.281Z" transform="translate(-1025.657 -1998.854)" fill="url(#linear-gradient-5)"/>
          <g id="Grupo_1640" data-name="Grupo 1640" transform="translate(2.871)">
            <g id="Grupo_1632" data-name="Grupo 1632">
              <path id="Trazado_3062" data-name="Trazado 3062" d="M120.948,747.123c-7.684.449-13.968-4.924-13.968-11.978V480.893c0-7.054,6.282-12.566,13.968-12.286L483.706,481.77a11.382,11.382,0,0,1,10.639,11.5V714.19c0,6.13-4.762,11.394-10.639,11.738Z" transform="translate(-106.98 -468.597)" fill="url(#linear-gradient-6)"/>
              <path id="Trazado_3063" data-name="Trazado 3063" d="M524.036,523.663,161.279,511.23c-4.109-.141-7.449,2.8-7.449,6.568V771.489c0,3.768,3.34,6.635,7.449,6.4l362.758-20.464a6.242,6.242,0,0,0,5.7-6.275V529.811a6.075,6.075,0,0,0-5.7-6.148Z" transform="translate(-147.31 -505.293)" fill="url(#linear-gradient-7)"/>
              <path id="Trazado_3064" data-name="Trazado 3064" d="M189.393,781.966a2.634,2.634,0,0,1-2.9-2.516V543.633a2.685,2.685,0,0,1,2.9-2.563l362.758,11.92a2.373,2.373,0,0,1,2.227,2.4V761.732a2.421,2.421,0,0,1-2.227,2.435l-362.758,17.8Z" transform="translate(-175.425 -530.982)" fill="#fff"/>
            </g>
            <g id="Grupo_1639" data-name="Grupo 1639" transform="translate(29.881 22.634)">
              <path id="Trazado_3065" data-name="Trazado 3065" d="M656.192,969.48,321.7,984.17V794.34l334.492,7.021Z" transform="translate(-321.7 -771.643)" fill="url(#linear-gradient-8)"/>
              <path id="Trazado_3066" data-name="Trazado 3066" d="M656.192,655.215,321.7,647.452V631.24l334.492,9.616Z" transform="translate(-321.7 -631.24)" fill="url(#linear-gradient-9)"/>
              <g id="Grupo_1633" data-name="Grupo 1633" transform="translate(305.477 14.23)">
                <path id="Trazado_3067" data-name="Trazado 3067" d="M2520.45,735.4a1.775,1.775,0,0,1-1.8,1.81,1.89,1.89,0,0,1-1.806-1.905,1.775,1.775,0,0,1,1.806-1.81A1.891,1.891,0,0,1,2520.45,735.4Z" transform="translate(-2516.84 -733.495)" fill="#fff"/>
                <path id="Trazado_3068" data-name="Trazado 3068" d="M2573.771,736.824a1.769,1.769,0,0,1-1.794,1.806,1.883,1.883,0,0,1-1.8-1.9,1.766,1.766,0,0,1,1.8-1.8,1.883,1.883,0,0,1,1.794,1.9Z" transform="translate(-2562.757 -734.726)" fill="#fff"/>
                <path id="Trazado_3069" data-name="Trazado 3069" d="M2626.79,738.22a1.761,1.761,0,0,1-1.784,1.8,1.874,1.874,0,0,1-1.785-1.894,1.76,1.76,0,0,1,1.785-1.8A1.876,1.876,0,0,1,2626.79,738.22Z" transform="translate(-2608.416 -735.932)" fill="#fff"/>
              </g>
              <g id="Grupo_1634" data-name="Grupo 1634" transform="translate(7.296 27.628)" opacity="0.68">
                <path id="Trazado_3070" data-name="Trazado 3070" d="M633.627,969.683l-259.5,8.148V829.77l259.5,5.022Z" transform="translate(-374.13 -829.77)" fill="#fff"/>
              </g>
              <g id="Grupo_1635" data-name="Grupo 1635" transform="translate(271.331 32.738)">
                <path id="Trazado_3071" data-name="Trazado 3071" d="M2331.057,905.616l-59.587-.281V866.49l59.587,1.154Z" transform="translate(-2271.47 -866.49)" fill="#fff" opacity="0.68"/>
                <path id="Trazado_3072" data-name="Trazado 3072" d="M2331.057,1178.9l-59.587-.121v-2.908l59.587.187Z" transform="translate(-2271.47 -1132.817)" fill="#fff"/>
                <path id="Trazado_3073" data-name="Trazado 3073" d="M2308.886,1214.884l-37.416,0v-2.91l37.416.046Z" transform="translate(-2271.47 -1163.893)" fill="#fff"/>
              </g>
              <g id="Grupo_1636" data-name="Grupo 1636" transform="translate(271.331 89.597)">
                <path id="Trazado_3074" data-name="Trazado 3074" d="M2331.057,1313.053l-59.587,1v-38.845l59.587-.127Z" transform="translate(-2271.47 -1275.08)" fill="#fff" opacity="0.68"/>
                <path id="Trazado_3075" data-name="Trazado 3075" d="M2331.057,1580.353l-59.587,1.159v-2.91l59.587-1.093Z" transform="translate(-2271.47 -1535.424)" fill="#fff"/>
                <path id="Trazado_3076" data-name="Trazado 3076" d="M2308.886,1618.9l-37.416.8v-2.908l37.416-.757Z" transform="translate(-2271.47 -1568.583)" fill="#fff"/>
              </g>
              <g id="Grupo_1637" data-name="Grupo 1637" transform="translate(271.331 145.303)">
                <path id="Trazado_3077" data-name="Trazado 3077" d="M2331.057,1713.353l-59.587,2.28v-38.847l59.587-1.406Z" transform="translate(-2271.47 -1675.38)" fill="#fff" opacity="0.68"/>
                <path id="Trazado_3078" data-name="Trazado 3078" d="M2331.057,1980.653l-59.587,2.438v-2.908l59.587-2.373Z" transform="translate(-2271.47 -1935.724)" fill="#fff"/>
                <path id="Trazado_3079" data-name="Trazado 3079" d="M2308.886,2022.617l-37.416,1.6v-2.91l37.416-1.56Z" transform="translate(-2271.47 -1971.827)" fill="#fff"/>
              </g>
              <g id="Grupo_1638" data-name="Grupo 1638" transform="translate(7.296 173.871)">
                <path id="Trazado_3080" data-name="Trazado 3080" d="M553.71,1909.2l-179.58,6.664v-9.733l179.58-6.066Z" transform="translate(-374.13 -1897.37)" fill="#fff"/>
                <path id="Trazado_3081" data-name="Trazado 3081" d="M2080.362,1889.537l-25.622.95v-8.952l25.622-.865Z" transform="translate(-1820.865 -1880.67)" fill="#fff"/>
                <path id="Trazado_3082" data-name="Trazado 3082" d="M1864.247,1896.816l-26.2.973v-9.054l26.2-.885Z" transform="translate(-1634.33 -1886.851)" fill="#fff"/>
                <path id="Trazado_3083" data-name="Trazado 3083" d="M456.288,2044.58l-82.158,3.38v-4.866l82.158-3.244Z" transform="translate(-374.13 -2017.698)" fill="#fff"/>
              </g>
            </g>
          </g>
        </g>
        <g id="Grupo_1642" data-name="Grupo 1642" transform="translate(34.007 121.237)">
          <path id="Trazado_3084" data-name="Trazado 3084" d="M248,1932.524l-1.694-1.774a6.884,6.884,0,0,1,.483-9.94L363.143,1816.67l10.621,12.079L258.206,1932.82a7.374,7.374,0,0,1-10.21-.3Z" transform="translate(-244.407 -1685.098)" fill="url(#linear-gradient-10)"/>
          <path id="Trazado_3085" data-name="Trazado 3085" d="M1043.413,902.391c-29.349-36.125-81.391-41.957-116.178-11.77-35.426,30.741-38.283,85.9-6.488,121.9,31.049,35.153,82.858,37.853,115.841,7.263,32.413-30.063,35.505-82.089,6.824-117.392ZM930.866,1003.437c-26.481-30.187-24.062-76.291,5.473-102.063,29.09-25.383,72.781-20.7,97.539,9.578,24.283,29.7,21.7,73.589-5.711,98.883C1000.35,1035.5,956.824,1033.028,930.866,1003.437Z" transform="translate(-807.613 -871.203)" fill="url(#linear-gradient-10)"/>
          <path id="Trazado_3086" data-name="Trazado 3086" d="M363.124,1816.661l-14.836,13.279c1.371,6.06.53,10.287-.9,13.286-5.372,11.283-20.685,8.8-33.007,24.823-6.183,8.042-3.377,10.031-9.647,16.549-10.365,10.775-19.307,6.657-28.422,16.318-9.219,9.771-5.8,20.059-12.384,22.685-2.815,1.124-7.277.765-14.732-4.978l-2.434,2.178a6.884,6.884,0,0,0-.483,9.94l1.694,1.774a7.374,7.374,0,0,0,10.21.295l115.557-104.071-10.621-12.079Z" transform="translate(-244.39 -1685.089)" opacity="0.3" fill="url(#linear-gradient-10)" style="mix-blend-mode: multiply;isolation: isolate"/>
          <path id="Trazado_3087" data-name="Trazado 3087" d="M1073.974,918.871c-29.349-36.125-81.391-41.957-116.178-11.77-35.426,30.74-38.283,85.9-6.488,121.9,31.049,35.153,82.858,37.853,115.841,7.263,32.413-30.063,35.505-82.089,6.824-117.392ZM961.425,1019.917c-26.481-30.187-24.062-76.291,5.473-102.063,29.09-25.383,72.781-20.7,97.539,9.578,24.284,29.7,21.7,73.589-5.711,98.883C1030.909,1051.984,987.382,1049.508,961.425,1019.917Z" transform="translate(-833.92 -885.389)" fill="url(#linear-gradient-13)"/>
          <path id="Trazado_3088" data-name="Trazado 3088" d="M1100.953,951.984c-27.73-34.054-76.818-39.471-109.585-10.983-33.333,28.982-36.036,80.93-6.13,114.871,29.245,33.19,78.123,35.819,109.286,6.971,30.653-28.378,33.564-77.538,6.431-110.859Zm-109.181,98.023c-26.481-30.187-24.062-76.291,5.473-102.063,29.09-25.383,72.781-20.7,97.539,9.578,24.283,29.7,21.7,73.59-5.711,98.883C1061.256,1082.074,1017.73,1079.6,991.772,1050.007Z" transform="translate(-864.266 -915.48)" fill="url(#linear-gradient-10)"/>
        </g>
        <g id="Grupo_1645" data-name="Grupo 1645">
          <g id="Grupo_1643" data-name="Grupo 1643" transform="translate(65.229)">
            <path id="Trazado_3089" data-name="Trazado 3089" d="M571.336,96.018c4.631,2.35,10.448.191,12.992-4.823s.853-10.984-3.777-13.334c-.239-.122-.484-.224-.731-.321a58.846,58.846,0,0,0,1.943-8.368c.266,0,.532-.006.8-.029A10.653,10.653,0,0,0,591.929,58.3a9.022,9.022,0,0,0-9.768-9.136c-.276.025-.547.068-.817.117a53.855,53.855,0,0,0-2.263-7.991c.244-.142.484-.289.721-.455a10.652,10.652,0,0,0,3.224-13.959,9.023,9.023,0,0,0-13.141-2.49c-.231.163-.449.338-.665.515a47.645,47.645,0,0,0-5.863-5.47c.149-.245.3-.491.426-.751,2.545-5.014,5.87-10.491,1.2-12.769-10.8-5.269-15.427-.756-17.973,4.258-.132.26-.245.523-.355.788a47.638,47.638,0,0,0-7.876-1.5c.017-.278.029-.558.024-.841-.111-5.518,1.525-8.5-3.778-8.606-11.564-.223-15.464,4.8-15.352,10.315.006.288.031.571.058.85a53.771,53.771,0,0,0-7.785,2.89c-.121-.246-.245-.491-.388-.728a9.023,9.023,0,0,0-13.141-2.49A10.652,10.652,0,0,0,495.2,24.8c.141.232.294.451.449.665a58.678,58.678,0,0,0-5.607,6.509c-.224-.141-.451-.278-.692-.4-4.631-2.35-10.448-.191-12.992,4.823s-.853,10.984,3.777,13.334c.239.122.484.224.731.321a58.664,58.664,0,0,0-1.943,8.368c-.266,0-.532.006-.8.029A10.652,10.652,0,0,0,468.756,69.3a9.022,9.022,0,0,0,9.768,9.136c.276-.025.547-.068.817-.116a54.018,54.018,0,0,0,2.263,7.991c-.244.142-.484.289-.721.455a10.652,10.652,0,0,0-3.224,13.959c2.739,4.542,11.8,6.652,16.319,3.485.231-.163-2.73-1.332-2.515-1.51a47.641,47.641,0,0,0,5.863,5.47c-.149.244-.3.491-.426.751-2.545,5.014-.853,10.984,3.777,13.334s10.448.191,12.992-4.823c.132-.26.245-.523.355-.788a47.639,47.639,0,0,0,7.877,1.5c-.017.278-.029.558-.024.841a9.022,9.022,0,0,0,9.768,9.136,10.652,10.652,0,0,0,9.363-10.845c-.006-.288-.031-.571-.058-.85a53.764,53.764,0,0,0,7.785-2.89c.121.246.245.491.388.728a9.023,9.023,0,0,0,13.141,2.49,10.654,10.654,0,0,0,3.226-13.959c-.141-.232-.294-.449-.45-.665a58.669,58.669,0,0,0,5.607-6.509c.224.141.451.278.692.4Zm-57.722.743C496.8,88.228,490.66,66.552,499.9,48.347S530.258,22.3,547.072,30.833s22.953,30.208,13.714,48.414-30.359,26.047-47.173,17.515Z" transform="translate(-468.754 0.001)" fill="#26264f"/>
            <path id="Trazado_3090" data-name="Trazado 3090" d="M887.488,133.362a10.653,10.653,0,0,0,9.363-10.845,9.022,9.022,0,0,0-9.768-9.136c-.276.025-.547.068-.817.117A53.848,53.848,0,0,0,884,105.508c.244-.142.484-.289.721-.455,4.518-3.167,10.109-10.82,6.92-15.057-6.053-8.042-12.316-4.559-16.836-1.393-.231.163-.449.338-.665.515a47.645,47.645,0,0,0-5.863-5.47c.149-.244.3-.491.426-.751a10.521,10.521,0,0,0,.591-8.3q-6.546,11.527-12.9,23.159c13.414,9.826,17.687,29.193,9.307,45.706-7.1,13.994-21.222,21.852-35.011,20.871-.615,1.595-1.219,3.2-1.877,4.779C827.032,173.4,825,177.6,822.97,181.8q1.918.361,3.851.565c-.017.278-.029.558-.024.841.111,5.518,3.462,10.2,13.037,9.7,5.3-.283,6.205-5.886,6.094-11.4-.006-.288-.029-.571-.058-.85a53.928,53.928,0,0,0,7.785-2.89c.121.246.245.491.388.728,2.739,4.542,12.234,6.471,16.754,3.3s2.35-10.231-.388-14.773c-.141-.232-.294-.451-.449-.665a58.667,58.667,0,0,0,5.607-6.509c.224.141.451.278.692.4,4.631,2.35,10.448.191,12.992-4.823s.853-10.984-3.777-13.334c-.239-.122-.484-.224-.731-.321a58.863,58.863,0,0,0,1.943-8.368c.266,0,.532-.006.8-.029Z" transform="translate(-773.677 -64.218)" fill="#26264f"/>
            <path id="Trazado_3091" data-name="Trazado 3091" d="M607.116,96.624c4.631,2.35,10.448.191,12.992-4.823s.853-10.984-3.777-13.334c-.239-.121-.484-.224-.731-.321a58.664,58.664,0,0,0,1.943-8.368c.266,0,.532-.006.8-.029A10.653,10.653,0,0,0,627.709,58.9a9.022,9.022,0,0,0-9.768-9.136c-.276.025-.547.068-.817.117a54.026,54.026,0,0,0-2.263-7.991c.244-.142.484-.289.721-.455a10.652,10.652,0,0,0,3.224-13.959,9.023,9.023,0,0,0-13.141-2.49c-.231.163-.449.338-.665.515a47.645,47.645,0,0,0-5.863-5.47c.149-.244.295-.491.427-.751,2.545-5.014.853-10.984-3.777-13.334S585.34,5.757,582.8,10.771c-.132.26-.245.523-.355.788a47.641,47.641,0,0,0-7.877-1.5c.017-.278.029-.558.024-.841A9.022,9.022,0,0,0,564.821.081a10.653,10.653,0,0,0-9.363,10.845c.006.288.031.571.058.85a53.929,53.929,0,0,0-7.785,2.89c-.121-.246-.245-.491-.388-.728a9.022,9.022,0,0,0-13.141-2.49,10.652,10.652,0,0,0-3.224,13.959c.141.232.294.451.449.665a58.681,58.681,0,0,0-5.607,6.509c-.224-.141-.451-.278-.692-.4-4.631-2.35-10.448-.191-12.992,4.823s-.853,10.984,3.777,13.334c.239.122.484.224.731.321a58.663,58.663,0,0,0-1.943,8.368c-.266,0-.532.006-.8.029A10.653,10.653,0,0,0,504.537,69.9a9.022,9.022,0,0,0,9.768,9.136c.276-.025.547-.068.817-.116a54.017,54.017,0,0,0,2.263,7.991c-.244.142-.484.289-.721.455a10.652,10.652,0,0,0-3.224,13.959,9.021,9.021,0,0,0,13.14,2.49c.231-.163.449-.338.665-.515a47.646,47.646,0,0,0,5.863,5.47c-.149.245-.3.491-.426.751-2.545,5.014-.853,10.984,3.777,13.334s10.448.191,12.992-4.823c.132-.26.245-.523.355-.788a47.637,47.637,0,0,0,7.876,1.5c-.017.278-.029.558-.024.841a9.022,9.022,0,0,0,9.768,9.136,10.653,10.653,0,0,0,9.363-10.845c-.005-.288-.029-.571-.058-.85a53.768,53.768,0,0,0,7.785-2.89c.121.246.246.491.388.728a9.021,9.021,0,0,0,13.14,2.49,10.653,10.653,0,0,0,3.226-13.959c-.141-.232-.294-.451-.449-.665a58.676,58.676,0,0,0,5.607-6.509c.224.141.451.278.692.4Zm-57.722.743c-16.813-8.533-22.953-30.208-13.714-48.414s30.359-26.047,47.173-17.515,22.953,30.208,13.714,48.414S566.207,105.9,549.394,97.367Z" transform="translate(-499.555 -0.038)" fill="url(#linear-gradient-15)"/>
          </g>
          <g id="Grupo_1644" data-name="Grupo 1644" transform="translate(0 106.322)">
            <path id="Trazado_3092" data-name="Trazado 3092" d="M75.371,834.561a7.5,7.5,0,0,0,6.769-13.339c-.177-.089-.356-.164-.536-.237a43.084,43.084,0,0,0,1.426-6.147c.195,0,.391,0,.59-.022A7.827,7.827,0,0,0,90.5,806.85a6.627,6.627,0,0,0-7.175-6.712c-.2.018-.4.05-.6.085a39.469,39.469,0,0,0-1.663-5.87c.178-.1.356-.213.53-.334a7.826,7.826,0,0,0,2.369-10.255,6.626,6.626,0,0,0-9.652-1.828c-.17.12-.33.248-.488.378a35.022,35.022,0,0,0-4.307-4.019c.11-.18.217-.362.313-.552,1.869-3.683,4.313-7.707.884-9.379-7.931-3.87-11.333-.555-13.2,3.128-.1.191-.181.384-.26.579a35.017,35.017,0,0,0-5.786-1.1c.013-.2.021-.411.018-.618C51.4,766.3,52.6,764.1,48.7,764.027c-8.494-.164-11.36,3.523-11.278,7.577,0,.212.022.419.043.625a39.582,39.582,0,0,0-5.719,2.124c-.089-.181-.181-.36-.285-.534a6.628,6.628,0,0,0-9.654-1.828,7.824,7.824,0,0,0-2.369,10.255c.1.171.216.331.33.489a43.166,43.166,0,0,0-4.119,4.78c-.164-.1-.331-.2-.508-.294A7.209,7.209,0,0,0,5.6,790.763a7.21,7.21,0,0,0,2.775,9.8c.177.089.356.164.537.236a43.086,43.086,0,0,0-1.426,6.147c-.195,0-.391,0-.589.021A7.826,7.826,0,0,0,.02,814.929,6.627,6.627,0,0,0,7.2,821.641c.2-.018.4-.05.6-.085a39.641,39.641,0,0,0,1.663,5.87c-.178.1-.356.213-.53.334a7.824,7.824,0,0,0-2.369,10.255c2.011,3.337,8.668,4.886,11.989,2.559.17-.12-2.005-.978-1.847-1.109a35.013,35.013,0,0,0,4.307,4.019c-.109.18-.217.36-.313.552a7.21,7.21,0,0,0,2.775,9.8,7.209,7.209,0,0,0,9.544-3.543c.1-.191.181-.384.26-.579a35.029,35.029,0,0,0,5.786,1.1c-.013.2-.021.411-.017.618a6.628,6.628,0,0,0,7.175,6.712,7.826,7.826,0,0,0,6.879-7.967c0-.212-.022-.419-.043-.625a39.521,39.521,0,0,0,5.72-2.124c.089.181.181.36.285.534a6.626,6.626,0,0,0,9.652,1.828,7.824,7.824,0,0,0,2.369-10.255c-.1-.171-.216-.331-.331-.488a43.178,43.178,0,0,0,4.119-4.78c.164.1.331.2.508.294Zm-42.4.546c-12.35-6.268-16.862-22.191-10.075-35.565s22.3-19.135,34.652-12.865,16.862,22.191,10.075,35.565-22.3,19.135-34.652,12.865Z" transform="translate(-0.018 -764.022)" fill="#26264f"/>
            <path id="Trazado_3093" data-name="Trazado 3093" d="M307.621,862a7.827,7.827,0,0,0,6.879-7.967,6.627,6.627,0,0,0-7.175-6.712c-.2.018-.4.05-.6.085a39.473,39.473,0,0,0-1.663-5.87c.178-.1.356-.213.53-.334,3.319-2.327,7.426-7.947,5.084-11.06-4.448-5.907-9.047-3.35-12.367-1.023-.17.12-.33.248-.488.379a35.017,35.017,0,0,0-4.307-4.019c.11-.18.217-.36.313-.552a7.731,7.731,0,0,0,.434-6.094q-4.809,8.467-9.474,17.012c9.854,7.218,12.993,21.445,6.837,33.575-5.217,10.28-15.59,16.054-25.718,15.331-.452,1.172-.895,2.35-1.379,3.511-1.312,3.149-2.8,6.234-4.3,9.315q1.409.265,2.829.415c-.013.2-.021.411-.017.618.082,4.054,2.544,7.5,9.577,7.122,3.891-.207,4.559-4.324,4.477-8.378,0-.211-.022-.419-.043-.625a39.512,39.512,0,0,0,5.72-2.124c.089.181.181.36.285.534,2.011,3.337,8.987,4.754,12.307,2.427s1.727-7.516-.285-10.853c-.1-.171-.216-.331-.331-.488a43.175,43.175,0,0,0,4.119-4.78c.164.1.331.2.508.294a7.5,7.5,0,0,0,6.769-13.339c-.177-.089-.356-.164-.537-.237a43.085,43.085,0,0,0,1.426-6.147c.195,0,.391,0,.59-.022Z" transform="translate(-224.019 -811.203)" fill="#26264f"/>
            <path id="Trazado_3094" data-name="Trazado 3094" d="M101.627,835a7.5,7.5,0,0,0,6.769-13.339c-.177-.089-.356-.164-.537-.237a43.081,43.081,0,0,0,1.426-6.147c.195,0,.391,0,.59-.022a7.827,7.827,0,0,0,6.879-7.967,6.627,6.627,0,0,0-7.175-6.712c-.2.018-.4.05-.6.085a39.639,39.639,0,0,0-1.663-5.87c.178-.1.356-.213.53-.334a7.825,7.825,0,0,0,2.369-10.255,6.628,6.628,0,0,0-9.654-1.829c-.17.12-.33.248-.488.379a35.023,35.023,0,0,0-4.307-4.019c.11-.18.217-.362.313-.552a6.929,6.929,0,1,0-12.318-6.253c-.1.191-.181.384-.26.579a35.029,35.029,0,0,0-5.786-1.1c.013-.2.021-.411.017-.618a6.627,6.627,0,0,0-7.175-6.712,7.827,7.827,0,0,0-6.879,7.967c0,.211.022.419.043.625A39.575,39.575,0,0,0,58,774.787c-.089-.181-.181-.36-.285-.534a6.628,6.628,0,0,0-9.654-1.829,7.824,7.824,0,0,0-2.369,10.255c.1.171.216.331.331.488a43.177,43.177,0,0,0-4.119,4.78c-.164-.1-.331-.2-.508-.294a7.5,7.5,0,0,0-6.769,13.339c.177.089.356.164.537.237a43.084,43.084,0,0,0-1.426,6.147c-.195,0-.391,0-.59.021a7.827,7.827,0,0,0-6.879,7.967,6.627,6.627,0,0,0,7.175,6.712c.2-.018.4-.05.6-.085a39.639,39.639,0,0,0,1.663,5.87c-.178.1-.356.213-.53.334a7.824,7.824,0,0,0-2.369,10.255,6.626,6.626,0,0,0,9.652,1.829c.17-.12.33-.248.488-.379a35.018,35.018,0,0,0,4.307,4.019c-.11.18-.217.362-.313.552a7.21,7.21,0,0,0,2.775,9.8,7.208,7.208,0,0,0,9.544-3.543c.1-.191.181-.384.26-.579a35.036,35.036,0,0,0,5.786,1.1c-.013.2-.021.411-.018.618a6.628,6.628,0,0,0,7.175,6.712,7.826,7.826,0,0,0,6.879-7.967c0-.211-.022-.419-.043-.625a39.521,39.521,0,0,0,5.719-2.124c.089.181.181.36.285.534a6.626,6.626,0,0,0,9.652,1.829,7.824,7.824,0,0,0,2.369-10.255c-.1-.171-.216-.331-.331-.488a43.182,43.182,0,0,0,4.119-4.78c.164.1.331.2.508.294Zm-42.4.546c-12.35-6.268-16.862-22.191-10.075-35.565s22.3-19.135,34.652-12.865,16.862,22.191,10.075,35.565S71.575,841.811,59.225,835.542Z" transform="translate(-22.616 -764.041)" fill="url(#linear-gradient-15)"/>
          </g>
        </g>
        <g id="Grupo_1650" data-name="Grupo 1650" transform="translate(302.41 238.656)">
          <g id="Grupo_1647" data-name="Grupo 1647">
            <g id="Grupo_1646" data-name="Grupo 1646">
              <path id="Trazado_3095" data-name="Trazado 3095" d="M2245.365,1720.945l11.76,131.973a3.564,3.564,0,0,1-3.087,3.948l-63.632,6.554c-3.808.2-5.821-1.862-5.992-3.938l-11.288-137.022c-.167-2.023,1.724-3.93,5.486-4.068l63.048-.927A3.79,3.79,0,0,1,2245.365,1720.945Z" transform="translate(-2173.117 -1717.118)" fill="url(#linear-gradient-17)"/>
              <path id="Trazado_3096" data-name="Trazado 3096" d="M2263.588,1718.466l11.868,132.763a3.584,3.584,0,0,1-3.1,3.972l-66.026,6.094a3.726,3.726,0,0,1-4-3.458l-11.388-137.848a3.425,3.425,0,0,1,3.351-3.77l65.57-1.252A3.816,3.816,0,0,1,2263.588,1718.466Z" transform="translate(-2188.449 -1714.965)" fill="url(#linear-gradient-18)"/>
              <path id="Trazado_3097" data-name="Trazado 3097" d="M2280.058,1772.594l10.976,123.056a3.343,3.343,0,0,1-2.9,3.7l-62.077,5.637a3.475,3.475,0,0,1-3.721-3.224l-10.558-127.482a3.206,3.206,0,0,1,3.118-3.529l61.679-1.419a3.55,3.55,0,0,1,3.483,3.259Z" transform="translate(-2206.386 -1761.768)" fill="#fff"/>
              <path id="Trazado_3098" data-name="Trazado 3098" d="M2280.058,1772.594a3.551,3.551,0,0,0-3.484-3.259l-61.679,1.42a3.206,3.206,0,0,0-3.119,3.529l1.511,18.245,68.4-1.653Z" transform="translate(-2206.386 -1761.768)" fill="url(#linear-gradient-19)"/>
            </g>
            <path id="Trazado_3099" data-name="Trazado 3099" d="M2450.758,1740.6a1.147,1.147,0,0,1-1.111,1.28,1.34,1.34,0,0,1-1.328-1.229,1.145,1.145,0,0,1,1.112-1.279A1.341,1.341,0,0,1,2450.758,1740.6Z" transform="translate(-2410.019 -1735.972)" fill="url(#linear-gradient-20)"/>
          </g>
          <g id="Grupo_1648" data-name="Grupo 1648" transform="translate(14.147 36.164)">
            <path id="Trazado_3100" data-name="Trazado 3100" d="M2309.9,2021.948l-30.863,1.524-4.26-43.62,31.034-.792Z" transform="translate(-2274.78 -1978.473)" fill="url(#linear-gradient-21)"/>
            <path id="Trazado_3101" data-name="Trazado 3101" d="M2554.363,2017.184l-18.13.9-4.063-42.774,18.23-.466Z" transform="translate(-2496.351 -1974.84)" fill="url(#linear-gradient-22)"/>
            <path id="Trazado_3102" data-name="Trazado 3102" d="M2365.772,2347.328,2312.259,2351l-2.879-29.473,53.713-2.821Z" transform="translate(-2304.565 -2270.857)" fill="url(#linear-gradient-23)"/>
            <path id="Trazado_3103" data-name="Trazado 3103" d="M2388.359,2573.061l-53.39,4.207-1.289-13.2,53.478-3.825Z" transform="translate(-2325.483 -2478.775)"/>
          </g>
          <g id="Grupo_1649" data-name="Grupo 1649" transform="translate(2.479 1.09)" opacity="0.48" style="mix-blend-mode: soft-light;isolation: isolate">
            <path id="Trazado_3104" data-name="Trazado 3104" d="M2247.724,1816.349c-6.4-22.363-25.063-20.127-30.645-40.336-4.584-16.6,5.985-25.347-.426-39.24-3.016-6.535-8.3-10.953-13.775-13.973l-8.586.164a3.424,3.424,0,0,0-3.351,3.77l11.388,137.85a3.726,3.726,0,0,0,4,3.458l54.135-5a56.663,56.663,0,0,1-9.026-16.22c-4.824-13.664-.172-18.106-3.713-30.473Z" transform="translate(-2190.928 -1722.8)" fill="#fff"/>
          </g>
        </g>
      </g>
    </g>
  </g>
</svg>
