<svg xmlns="http://www.w3.org/2000/svg" xmlns:xlink="http://www.w3.org/1999/xlink" width="322.108" height="325.996" viewBox="0 0 322.108 325.996">
  <defs>
    <linearGradient id="linear-gradient" x1="0.238" y1="0.352" x2="1.229" y2="-0.482" gradientUnits="objectBoundingBox">
      <stop offset="0" stop-color="#e38ddd"/>
      <stop offset="1" stop-color="#9571f6"/>
    </linearGradient>
    <linearGradient id="linear-gradient-2" x1="0.725" y1="-0.111" x2="0.232" y2="1.486" gradientUnits="objectBoundingBox">
      <stop offset="0" stop-color="#fcb148"/>
      <stop offset="0.05" stop-color="#fdb946"/>
      <stop offset="0.14" stop-color="#fec144"/>
      <stop offset="0.32" stop-color="#ffc444"/>
      <stop offset="0.48" stop-color="#fdb946"/>
      <stop offset="0.78" stop-color="#f99c4c"/>
      <stop offset="0.87" stop-color="#f8924f"/>
      <stop offset="1" stop-color="#f8924f"/>
    </linearGradient>
    <linearGradient id="linear-gradient-3" x1="-0.072" y1="0.42" x2="0.928" y2="0.42" gradientUnits="objectBoundingBox">
      <stop offset="0" stop-color="#444b8c"/>
      <stop offset="1" stop-color="#26264f"/>
    </linearGradient>
    <linearGradient id="linear-gradient-4" y1="0.5" x2="1" y2="0.5" gradientUnits="objectBoundingBox">
      <stop offset="0" stop-color="#ab316d"/>
      <stop offset="1" stop-color="#792d3d"/>
    </linearGradient>
    <linearGradient id="linear-gradient-5" y1="0.5" x2="1" y2="0.5" gradientUnits="objectBoundingBox">
      <stop offset="0" stop-color="#ff9085"/>
      <stop offset="1" stop-color="#fb6fbb"/>
    </linearGradient>
    <linearGradient id="linear-gradient-6" x1="0.185" y1="0.022" x2="0.76" y2="1.236" gradientUnits="objectBoundingBox">
      <stop offset="0" stop-color="#444b8c"/>
      <stop offset="1" stop-color="#3e4177"/>
    </linearGradient>
    <linearGradient id="linear-gradient-7" x1="0.185" y1="0.022" x2="0.76" y2="1.236" gradientUnits="objectBoundingBox">
      <stop offset="0" stop-color="#aa80f9"/>
      <stop offset="1" stop-color="#6165d7"/>
    </linearGradient>
    <linearGradient id="linear-gradient-8" x1="0.241" y1="-0.78" x2="0.613" y2="1.771" xlink:href="#linear-gradient-6"/>
    <linearGradient id="linear-gradient-9" x1="-0.009" y1="-0.404" x2="0.388" y2="1.588" xlink:href="#linear-gradient-6"/>
    <linearGradient id="linear-gradient-10" x1="-0.019" y1="-0.395" x2="0.38" y2="1.582" xlink:href="#linear-gradient-6"/>
    <linearGradient id="linear-gradient-11" x1="-0.029" y1="-0.385" x2="0.373" y2="1.577" xlink:href="#linear-gradient-6"/>
    <linearGradient id="linear-gradient-12" x1="-0.113" y1="-0.236" x2="0.39" y2="1.364" xlink:href="#linear-gradient-6"/>
    <linearGradient id="linear-gradient-13" x1="-0.124" y1="-0.23" x2="0.383" y2="1.361" xlink:href="#linear-gradient-6"/>
    <linearGradient id="linear-gradient-14" x1="-0.136" y1="-0.225" x2="0.376" y2="1.358" xlink:href="#linear-gradient-6"/>
    <linearGradient id="linear-gradient-15" x1="-0.174" y1="-0.202" x2="0.326" y2="1.363" xlink:href="#linear-gradient-6"/>
    <linearGradient id="linear-gradient-16" x1="-0.186" y1="-0.197" x2="0.318" y2="1.36" xlink:href="#linear-gradient-6"/>
    <linearGradient id="linear-gradient-17" x1="-0.198" y1="-0.191" x2="0.31" y2="1.358" xlink:href="#linear-gradient-6"/>
    <linearGradient id="linear-gradient-18" x1="-0.234" y1="-0.169" x2="0.261" y2="1.363" xlink:href="#linear-gradient-6"/>
    <linearGradient id="linear-gradient-19" x1="-0.248" y1="-0.164" x2="0.252" y2="1.361" xlink:href="#linear-gradient-6"/>
    <linearGradient id="linear-gradient-20" x1="-0.261" y1="-0.159" x2="0.243" y2="1.358" xlink:href="#linear-gradient-2"/>
    <linearGradient id="linear-gradient-21" x1="-0.085" y1="0.5" x2="1.065" y2="0.5" gradientUnits="objectBoundingBox">
      <stop offset="0" stop-color="#f57e53"/>
      <stop offset="0" stop-color="#f58152"/>
      <stop offset="0.04" stop-color="#f8994d"/>
      <stop offset="0.08" stop-color="#fbac49"/>
      <stop offset="0.13" stop-color="#fdb946"/>
      <stop offset="0.2" stop-color="#fec144"/>
      <stop offset="0.32" stop-color="#ffc444"/>
      <stop offset="0.45" stop-color="#fdb946"/>
      <stop offset="0.69" stop-color="#f99c4c"/>
      <stop offset="1" stop-color="#f36f56"/>
    </linearGradient>
    <linearGradient id="linear-gradient-22" x1="0.495" y1="0.179" x2="0.556" y2="4.091" gradientUnits="objectBoundingBox">
      <stop offset="0" stop-color="#ffdb44"/>
      <stop offset="1" stop-color="#feef06"/>
    </linearGradient>
    <linearGradient id="linear-gradient-23" x1="0.492" y1="-0.777" x2="0.511" y2="1.295" xlink:href="#linear-gradient-22"/>
    <linearGradient id="linear-gradient-24" x1="-0.235" y1="-33.39" x2="-0.216" y2="-30.959" gradientUnits="objectBoundingBox">
      <stop offset="0" stop-color="#f36f56"/>
      <stop offset="0.31" stop-color="#f99c4c"/>
      <stop offset="0.55" stop-color="#fdb946"/>
      <stop offset="0.68" stop-color="#ffc444"/>
      <stop offset="0.8" stop-color="#fec144"/>
      <stop offset="0.87" stop-color="#fdb946"/>
      <stop offset="0.92" stop-color="#fbac49"/>
      <stop offset="0.96" stop-color="#f8994d"/>
      <stop offset="1" stop-color="#f58152"/>
      <stop offset="1" stop-color="#f57e53"/>
    </linearGradient>
    <linearGradient id="linear-gradient-27" x1="0.492" y1="-0.777" x2="0.511" y2="1.295" xlink:href="#linear-gradient-22"/>
    <linearGradient id="linear-gradient-28" x1="0.047" y1="-29.745" x2="0.066" y2="-27.313" xlink:href="#linear-gradient-24"/>
    <linearGradient id="linear-gradient-32" x1="-0.196" y1="-26.11" x2="-0.177" y2="-23.678" xlink:href="#linear-gradient-24"/>
    <linearGradient id="linear-gradient-36" x1="-0.344" y1="-22.464" x2="-0.325" y2="-20.033" xlink:href="#linear-gradient-24"/>
    <linearGradient id="linear-gradient-38" x1="0.495" y1="0.179" x2="0.556" y2="4.091" xlink:href="#linear-gradient-22"/>
    <linearGradient id="linear-gradient-39" x1="0.492" y1="-0.777" x2="0.511" y2="1.295" xlink:href="#linear-gradient-22"/>
    <linearGradient id="linear-gradient-40" x1="-0.235" y1="-18.531" x2="-0.216" y2="-16.099" xlink:href="#linear-gradient-24"/>
    <linearGradient id="linear-gradient-43" x1="0.492" y1="-0.777" x2="0.511" y2="1.295" xlink:href="#linear-gradient-22"/>
    <linearGradient id="linear-gradient-44" x1="0.047" y1="-14.885" x2="0.066" y2="-12.454" xlink:href="#linear-gradient-24"/>
    <linearGradient id="linear-gradient-48" x1="-0.196" y1="-11.25" x2="-0.177" y2="-8.819" xlink:href="#linear-gradient-24"/>
    <linearGradient id="linear-gradient-52" x1="-0.07" y1="-7.604" x2="-0.051" y2="-5.173" xlink:href="#linear-gradient-24"/>
    <linearGradient id="linear-gradient-53" x1="0.17" y1="-0.453" x2="1.875" y2="-0.453" xlink:href="#linear-gradient-21"/>
    <linearGradient id="linear-gradient-54" x1="1.027" y1="-0.644" x2="1.13" y2="-0.024" xlink:href="#linear-gradient-22"/>
    <linearGradient id="linear-gradient-55" x1="1.025" y1="-0.671" x2="1.056" y2="-0.48" xlink:href="#linear-gradient-22"/>
    <linearGradient id="linear-gradient-56" x1="-4.288" y1="-0.273" x2="-4.255" y2="-0.08" xlink:href="#linear-gradient-24"/>
    <linearGradient id="linear-gradient-57" x1="-2.495" y1="-0.046" x2="-1.307" y2="1.189" gradientUnits="objectBoundingBox">
      <stop offset="0" stop-color="#311944"/>
      <stop offset="1" stop-color="#6b3976"/>
    </linearGradient>
    <linearGradient id="linear-gradient-58" x1="0.481" y1="0.183" x2="0.537" y2="1.052" xlink:href="#linear-gradient-7"/>
    <linearGradient id="linear-gradient-59" x1="-27.721" y1="0.5" x2="-26.721" y2="0.5" xlink:href="#linear-gradient-57"/>
    <linearGradient id="linear-gradient-60" x1="-43.43" y1="1.577" x2="-41.055" y2="-5.323" gradientUnits="objectBoundingBox">
      <stop offset="0" stop-color="#ffc444"/>
      <stop offset="1" stop-color="#f36f56"/>
    </linearGradient>
    <linearGradient id="linear-gradient-61" x1="-45.447" y1="0.5" x2="-44.447" y2="0.5" xlink:href="#linear-gradient-57"/>
    <linearGradient id="linear-gradient-62" x1="-70.735" y1="3.066" x2="-68.235" y2="-0.811" xlink:href="#linear-gradient-60"/>
    <linearGradient id="linear-gradient-63" x1="-12.171" y1="0.092" x2="-11.814" y2="1.42" xlink:href="#linear-gradient-4"/>
    <linearGradient id="linear-gradient-64" x1="-3.753" y1="1.066" x2="-3.56" y2="0.491" xlink:href="#linear-gradient-4"/>
    <linearGradient id="linear-gradient-65" x1="-3.937" y1="2.203" x2="-3.735" y2="1.014" xlink:href="#linear-gradient-4"/>
    <linearGradient id="linear-gradient-66" x1="-3.886" y1="0.003" x2="-3.734" y2="2.181" xlink:href="#linear-gradient-4"/>
    <linearGradient id="linear-gradient-67" x1="-5.503" y1="0.281" x2="-3.675" y2="0.905" xlink:href="#linear-gradient-7"/>
    <linearGradient id="linear-gradient-68" x1="12.565" y1="-0.775" x2="12.617" y2="-2.537" xlink:href="#linear-gradient-60"/>
    <linearGradient id="linear-gradient-69" x1="24.254" y1="-2.895" x2="24.211" y2="0.276" xlink:href="#linear-gradient-60"/>
    <linearGradient id="linear-gradient-70" x1="-2.266" y1="0.5" x2="-1.266" y2="0.5" gradientUnits="objectBoundingBox">
      <stop offset="0" stop-color="#40447e"/>
      <stop offset="1" stop-color="#3c3b6b"/>
    </linearGradient>
    <linearGradient id="linear-gradient-71" x1="-2.544" y1="-0.074" x2="-2.067" y2="0.951" xlink:href="#linear-gradient-70"/>
    <linearGradient id="linear-gradient-72" x1="-3.22" y1="-0.105" x2="-2.615" y2="0.95" xlink:href="#linear-gradient-70"/>
    <linearGradient id="linear-gradient-73" x1="0.406" y1="0.315" x2="0.467" y2="1.128" xlink:href="#linear-gradient-7"/>
    <linearGradient id="linear-gradient-74" x1="0.744" y1="0.142" x2="-0.259" y2="2.239" xlink:href="#linear-gradient-60"/>
  </defs>
  <g id="ilu_pricing" transform="translate(0.011 0.004)" style="mix-blend-mode: normal;isolation: isolate">
    <g id="Capa_2" transform="translate(-0.011 -0.004)">
      <g id="Illustration" transform="translate(0 0)">
        <g id="Grupo_2496" data-name="Grupo 2496">
          <path id="Trazado_5188" data-name="Trazado 5188" d="M83.037,19.589C72.241,35.328,84.9,60.843,68.879,72.681,53.285,84.2,34.128,65.316,19.43,75.235-2.372,89.948,1.61,157.271,33.485,199.1c9.586,12.58,17.6,17.474,21.143,31.7,7.617,30.549-19.154,48.721-14.059,63.83C52.04,328.65,228.458,357.2,299.244,254.957c33.06-47.751,38.006-116.7,8.468-169.072C254.338-8.747,107.262-15.725,83.037,19.589Z" transform="translate(-5.113 0.004)" fill="#d8c3ff"/>
          <g id="Grupo_2465" data-name="Grupo 2465" transform="translate(0 2.8)">
            <path id="Trazado_5189" data-name="Trazado 5189" d="M56.754,231.041c5.731,1.243,15.379,3.332,25.607-.921,18.594-7.735,27.032-31.421,27.095-49.45.054-15.486-7.772-29.931-23.423-58.824-14.74-27.21-21.6-33.222-18.616-43.15,4.256-14.154,22.507-16.253,25-33.509.3-2.071,1.324-9.182-2.8-14.375-7.057-8.89-24.249-5.919-33.737-1.944C46.725,32.7,34,41.966,32.7,54.467c-.947,9.058,4.9,12.121,2.37,19.524-2.549,7.449-9.239,6.6-17.984,16.314-3.494,3.882-10.507,11.675-10.863,21.552-.46,12.77,10.627,17.465,7.919,26.786C12.18,145.377,5.751,145.129,2,152.1c-4.933,9.177.2,20.789,4.6,30.395,5.179,11.311,19.152,41.83,50.153,48.548Z" transform="translate(0.011 -25.008)" fill="url(#linear-gradient)"/>
            <path id="Trazado_5190" data-name="Trazado 5190" d="M163.616,65.192c2.859,6.331-20.353,13.033-28.319,35.429-8.572,24.1,5.733,51.661,12.345,64.4,11.279,21.734,20.291,23.944,24.36,43.268,1.611,7.648,4.966,23.582-4.607,37.186-.889,1.264-11.015,15.208-26.543,15.388-17.614.2-28.786-17.455-38.413-32.67C96.621,219,85,200.631,91.732,192.106c4.115-5.212,14.139-5.545,20.9-3.335,9.646,3.156,13.96,11.926,15.61,10.908,1.487-.917-.584-8.915-5.3-16.743-9.433-15.658-19.809-14.628-25.984-27.641-.749-1.577-6.5-14.161-.547-24.553,3.433-5.993,10.847-11.412,16.359-9.758,6.233,1.87,7.341,11.98,9.293,11.57,1.867-.393,1.988-9.874.74-19.264-1.835-13.8-5.1-15.894-4.309-23.461,1.206-11.545,10.1-19.044,11.39-20.1C142,59.8,161.173,59.781,163.618,65.193Z" transform="translate(-79.653 -57.485)" fill="#fff" opacity="0.16" style="mix-blend-mode: screen;isolation: isolate"/>
          </g>
          <g id="Grupo_2466" data-name="Grupo 2466" transform="translate(213.22 58.399)">
            <path id="Trazado_5191" data-name="Trazado 5191" d="M1928.071,668.018c-4.268-1.165-11.455-3.126-16.818-9.537-9.751-11.654-7.147-30.447-.909-42.536,5.359-10.383,15.629-17.326,36.168-31.211,19.345-13.078,26.031-14.711,27.492-22.4,2.082-10.955-9.4-18.719-5.057-31.136.522-1.49,2.312-6.608,6.881-8.647,7.82-3.491,18.292,4.485,23.259,10.451,4.79,5.754,10.079,16.387,6.6,25.21-2.522,6.393-7.5,6.405-8.388,12.243-.89,5.873,3.886,7.633,6.354,17.184.986,3.816,2.965,11.475-.237,18.209-4.141,8.708-13.2,7.987-14.63,15.169-1.037,5.189,3.353,7.263,3.432,13.233.105,7.86-7.374,13.846-13.665,18.743-7.407,5.767-27.39,21.325-50.48,15.022Z" transform="translate(-1904.786 -521.704)" fill="url(#linear-gradient-2)"/>
            <path id="Trazado_5192" data-name="Trazado 5192" d="M2047.232,553.343c-4.12,3.242,9.082,15.812,6.612,33.578-2.657,19.115-21.834,32.58-30.7,38.8-15.121,10.617-21.922,8.957-31.377,20.474-3.742,4.558-11.539,14.054-9.871,26.494.154,1.156,2.074,14.016,12.4,19.546,11.718,6.273,25.347-1.655,37.091-8.485,7.1-4.127,21.271-12.373,19.737-20.423-.938-4.922-7.532-8.637-12.826-9.511-7.556-1.248-13.5,3.12-14.248,1.863-.675-1.132,3.5-5.764,9.379-9.36,11.768-7.194,18.353-2.89,27.021-9.449,1.051-.795,9.283-7.214,8.919-16.242-.209-5.206-3.285-11.417-7.549-12.229-4.823-.919-9.086,5.462-10.25,4.507-1.113-.913,2.109-7.3,6.215-13.151,6.033-8.595,8.949-8.862,11.057-14.2,3.215-8.148-.123-16.264-.62-17.423-4.655-10.868-17.48-17.558-21-14.787Z" transform="translate(-1973.063 -549.244)" fill="#fff" opacity="0.16" style="mix-blend-mode: screen;isolation: isolate"/>
          </g>
          <g id="Grupo_2478" data-name="Grupo 2478" transform="translate(41.995 0.797)">
            <path id="Trazado_5193" data-name="Trazado 5193" d="M1005.81,50.79a3.678,3.678,0,0,0-3.481-3.051l-11.1-.71a8.71,8.71,0,0,1-8.366-9.314l.669-11.541a3.809,3.809,0,0,0-3.61-4.05l-3.647-.285a4.484,4.484,0,0,1-4.138-5.331,8.006,8.006,0,0,0-7.45-9.355,9.916,9.916,0,0,0-10.5,7.925,5.228,5.228,0,0,1-.815,2.041,5.781,5.781,0,0,1-5.179,2.52l-3.762-.294a4.975,4.975,0,0,0-5.1,3.467l-3.376,11.658a11.908,11.908,0,0,1-12.065,8.253L911.7,41.944a5.332,5.332,0,0,0-4.933,2.682l-7.638,13.845a1.621,1.621,0,0,0,1.4,2.457L1006.173,66.5a1.911,1.911,0,0,0,1.971-2.131l-2.336-13.582ZM962.979,17.119a2.349,2.349,0,0,1-2.2-2.763,2.9,2.9,0,0,1,3.071-2.331,2.35,2.35,0,0,1,2.19,2.762,2.9,2.9,0,0,1-3.063,2.331Z" transform="translate(-840.272 -7.118)" fill="url(#linear-gradient-3)"/>
            <g id="Grupo_2477" data-name="Grupo 2477" transform="translate(0 0.327)">
              <g id="Grupo_2476" data-name="Grupo 2476" transform="translate(0 31.585)">
                <path id="Trazado_5194" data-name="Trazado 5194" d="M582.856,307.754l-198.81-15.525c-4.9-.383-8.9,2.9-8.9,7.341V566.182c0,4.438,3.992,7.82,8.9,7.554l198.81-10.76a7.731,7.731,0,0,0,7.255-7.621V315.548A7.963,7.963,0,0,0,582.856,307.754Z" transform="translate(-375.15 -292.199)" fill="url(#linear-gradient-4)"/>
                <path id="Trazado_5195" data-name="Trazado 5195" d="M620.406,307.754,421.6,292.229c-4.9-.383-8.9,2.9-8.9,7.341V566.182c0,4.438,3.992,7.82,8.9,7.554l198.809-10.76a7.731,7.731,0,0,0,7.255-7.621V315.548A7.963,7.963,0,0,0,620.406,307.754Z" transform="translate(-408.497 -292.199)" fill="url(#linear-gradient-5)"/>
                <path id="Trazado_5196" data-name="Trazado 5196" d="M454.548,603.011c-2.321,0-4.138-1.471-4.138-3.348V333.051c0-1.8,1.678-3.151,3.9-3.151.147,0,.3.007.446.018l198.809,15.525a3.732,3.732,0,0,1,3.364,3.587V588.837a3.517,3.517,0,0,1-3.263,3.406L454.858,603c-.1.006-.207.008-.31.008Z" transform="translate(-441.986 -325.68)" fill="#fff" opacity="0.5" style="mix-blend-mode: soft-light;isolation: isolate"/>
                <g id="Grupo_2475" data-name="Grupo 2475" transform="translate(28.214 24.727)">
                  <path id="Trazado_5197" data-name="Trazado 5197" d="M798.3,733.951l-171.1,6.98V513.1l171.1,11.458Z" transform="translate(-627.2 -513.1)" fill="#fff"/>
                  <g id="Grupo_2473" data-name="Grupo 2473" transform="translate(18.353 25.446)">
                    <g id="Grupo_2467" data-name="Grupo 2467">
                      <path id="Trazado_5198" data-name="Trazado 5198" d="M848.343,746.293l-57.183-2.627V740.42l57.183,2.716Z" transform="translate(-791.16 -740.42)" fill="#d8dee8"/>
                      <path id="Trazado_5199" data-name="Trazado 5199" d="M834.637,806.438l-43.477-1.88v-2l43.477,1.921Z" transform="translate(-791.16 -795.604)" fill="#d8dee8"/>
                      <path id="Trazado_5200" data-name="Trazado 5200" d="M834.637,844.6l-43.477-1.791v-2l43.477,1.831Z" transform="translate(-791.16 -829.573)" fill="#d8dee8"/>
                      <path id="Trazado_5201" data-name="Trazado 5201" d="M834.637,882.75l-43.477-1.7v-2l43.477,1.743Z" transform="translate(-791.16 -863.532)" fill="#d8dee8"/>
                      <path id="Trazado_5202" data-name="Trazado 5202" d="M834.637,920.9l-43.477-1.613v-2l43.477,1.654Z" transform="translate(-791.16 -897.491)" fill="#d8dee8"/>
                    </g>
                    <g id="Grupo_2468" data-name="Grupo 2468" transform="translate(0 38.956)">
                      <path id="Trazado_5203" data-name="Trazado 5203" d="M848.343,1093.241l-57.183-1.564v-3.247l57.183,1.653Z" transform="translate(-791.16 -1088.43)" fill="#d8dee8"/>
                      <path id="Trazado_5204" data-name="Trazado 5204" d="M834.637,1153.648l-43.477-1.07v-2l43.477,1.113Z" transform="translate(-791.16 -1143.623)" fill="#d8dee8"/>
                      <path id="Trazado_5205" data-name="Trazado 5205" d="M834.637,1191.8l-43.477-.983v-2l43.477,1.024Z" transform="translate(-791.16 -1177.583)" fill="#d8dee8"/>
                      <path id="Trazado_5206" data-name="Trazado 5206" d="M834.637,1229.96l-43.477-.893v-2l43.477.935Z" transform="translate(-791.16 -1211.551)" fill="#d8dee8"/>
                      <path id="Trazado_5207" data-name="Trazado 5207" d="M834.637,1268.113l-43.477-.8v-2l43.477.846Z" transform="translate(-791.16 -1245.51)" fill="#d8dee8"/>
                    </g>
                    <g id="Grupo_2469" data-name="Grupo 2469" transform="translate(81.73 4.528)">
                      <path id="Trazado_5208" data-name="Trazado 5208" d="M1578.473,786.743l-57.183-2.627V780.87l57.183,2.716Z" transform="translate(-1521.29 -780.87)" fill="#d8dee8"/>
                      <path id="Trazado_5209" data-name="Trazado 5209" d="M1564.767,846.9l-43.477-1.879v-2l43.477,1.92Z" transform="translate(-1521.29 -836.063)" fill="#d8dee8"/>
                      <path id="Trazado_5210" data-name="Trazado 5210" d="M1564.767,885.048l-43.477-1.79v-2l43.477,1.831Z" transform="translate(-1521.29 -870.023)" fill="#d8dee8"/>
                      <path id="Trazado_5211" data-name="Trazado 5211" d="M1564.767,923.2l-43.477-1.7v-2l43.477,1.743Z" transform="translate(-1521.29 -903.982)" fill="#d8dee8"/>
                      <path id="Trazado_5212" data-name="Trazado 5212" d="M1564.767,961.36l-43.477-1.613v-2l43.477,1.653Z" transform="translate(-1521.29 -937.95)" fill="#d8dee8"/>
                    </g>
                    <g id="Grupo_2470" data-name="Grupo 2470" transform="translate(81.73 43.485)">
                      <path id="Trazado_5213" data-name="Trazado 5213" d="M1578.473,1133.7l-57.183-1.564v-3.246l57.183,1.652Z" transform="translate(-1521.29 -1128.89)" fill="#d8dee8"/>
                      <path id="Trazado_5214" data-name="Trazado 5214" d="M1564.767,1194.1l-43.477-1.071v-2l43.477,1.113Z" transform="translate(-1521.29 -1184.074)" fill="#d8dee8"/>
                      <path id="Trazado_5215" data-name="Trazado 5215" d="M1564.767,1232.26l-43.477-.983v-2l43.477,1.023Z" transform="translate(-1521.29 -1218.043)" fill="#d8dee8"/>
                      <path id="Trazado_5216" data-name="Trazado 5216" d="M1564.767,1270.411l-43.477-.893v-2l43.477.935Z" transform="translate(-1521.29 -1252.002)" fill="#d8dee8"/>
                      <path id="Trazado_5217" data-name="Trazado 5217" d="M1564.767,1308.563l-43.477-.8v-2l43.477.846Z" transform="translate(-1521.29 -1285.962)" fill="#d8dee8"/>
                    </g>
                    <g id="Grupo_2472" data-name="Grupo 2472" transform="translate(0 81.599)">
                      <path id="Trazado_5218" data-name="Trazado 5218" d="M933.277,1475.784l-142.117-.84v-5.564l142.117,1.216Z" transform="translate(-791.16 -1469.38)" fill="#d8dee8"/>
                      <g id="Grupo_2471" data-name="Grupo 2471" transform="translate(0 11.362)">
                        <path id="Trazado_5219" data-name="Trazado 5219" d="M818.266,1577.063l-27.106,0v-6.179l27.106.085Z" transform="translate(-791.16 -1570.88)" fill="#d8dee8"/>
                        <path id="Trazado_5220" data-name="Trazado 5220" d="M818.266,1646.89l-27.106.1v-6.179l27.106-.017Z" transform="translate(-791.16 -1632.964)" fill="#d8dee8"/>
                        <path id="Trazado_5221" data-name="Trazado 5221" d="M818.266,1716.048l-27.106.2v-6.179l27.106-.118Z" transform="translate(-791.16 -1694.383)" fill="#d8dee8"/>
                        <path id="Trazado_5222" data-name="Trazado 5222" d="M818.266,1785.2l-27.106.3v-6.178l27.106-.219Z" transform="translate(-791.16 -1755.792)" fill="#d8dee8"/>
                        <path id="Trazado_5223" data-name="Trazado 5223" d="M1092.54,1577.834l-26.32-.006v-6.088l26.32.083Z" transform="translate(-1035.43 -1571.644)" fill="#d8dee8"/>
                        <path id="Trazado_5224" data-name="Trazado 5224" d="M1064.46,1645.359v-6.482l26.713-.017v6.4l-26.713.095Zm.393-6.089v5.694l25.927-.092v-5.618Z" transform="translate(-1033.867 -1631.25)" fill="#d8dee8"/>
                        <path id="Trazado_5225" data-name="Trazado 5225" d="M1064.46,1713.618v-6.483l26.713-.115v6.4Zm.393-6.091v5.694l25.927-.189v-5.618Z" transform="translate(-1033.867 -1691.781)" fill="#d8dee8"/>
                        <path id="Trazado_5226" data-name="Trazado 5226" d="M1064.46,1781.858v-6.482l26.713-.216v6.4l-26.713.294Zm.393-6.092v5.694l25.927-.287v-5.618l-25.927.209Z" transform="translate(-1033.867 -1752.293)" fill="#d8dee8"/>
                        <path id="Trazado_5227" data-name="Trazado 5227" d="M1358.878,1578.586l-25.568-.006v-6l25.568.081Z" transform="translate(-1272.623 -1572.39)" fill="#d8dee8"/>
                        <path id="Trazado_5228" data-name="Trazado 5228" d="M1331.55,1645.13v-6.394l25.962-.016v6.317Zm.393-6v5.606l25.175-.09v-5.532l-25.175.015Z" transform="translate(-1271.06 -1631.126)" fill="#d8dee8"/>
                        <path id="Trazado_5229" data-name="Trazado 5229" d="M1331.55,1712.387v-6.394l25.962-.113v6.317l-25.962.189Zm.393-6v5.606l25.175-.184v-5.532Z" transform="translate(-1271.06 -1690.768)" fill="#d8dee8"/>
                        <path id="Trazado_5230" data-name="Trazado 5230" d="M1331.55,1779.654v-6.394l25.962-.21v6.317l-25.962.287Zm.393-6v5.606l25.175-.278v-5.532Z" transform="translate(-1271.06 -1750.42)" fill="#d8dee8"/>
                        <path id="Trazado_5231" data-name="Trazado 5231" d="M1617.628,1579.318l-24.848,0V1573.4l24.848.077Z" transform="translate(-1503.048 -1573.118)" fill="#d8dee8"/>
                        <path id="Trazado_5232" data-name="Trazado 5232" d="M1591.02,1644.884v-6.308l25.241-.016v6.234Zm.393-5.915v5.521l24.455-.086v-5.448l-24.455.015Z" transform="translate(-1501.485 -1630.984)" fill="#d8dee8"/>
                        <path id="Trazado_5233" data-name="Trazado 5233" d="M1591.02,1711.208V1704.9l25.241-.11v6.234Zm.393-5.916v5.52l24.455-.178v-5.448Z" transform="translate(-1501.485 -1689.801)" fill="#d8dee8"/>
                        <path id="Trazado_5234" data-name="Trazado 5234" d="M1591.02,1777.521v-6.308l25.241-.2v6.234l-25.241.279Zm.393-5.918v5.521l24.455-.27v-5.448l-24.455.2Z" transform="translate(-1501.485 -1748.608)" fill="#d8dee8"/>
                        <path id="Trazado_5235" data-name="Trazado 5235" d="M1869.1,1580.025l-24.159,0v-5.831l24.159.076Z" transform="translate(-1726.981 -1573.82)" fill="#d8dee8"/>
                        <path id="Trazado_5236" data-name="Trazado 5236" d="M1843.19,1644.659v-6.225l24.552-.015v6.152Zm.393-5.832v5.437l23.765-.084v-5.368Z" transform="translate(-1725.427 -1630.86)" fill="#d8dee8"/>
                        <path id="Trazado_5237" data-name="Trazado 5237" d="M1843.19,1710.051v-6.225l24.552-.106v6.152Zm.393-5.833v5.437l23.765-.173v-5.367l-23.765.1Z" transform="translate(-1725.427 -1688.85)" fill="#d8dee8"/>
                        <path id="Trazado_5238" data-name="Trazado 5238" d="M1843.19,1775.443v-6.225l24.552-.2v6.152Zm.393-5.834v5.437l23.765-.262v-5.368Z" transform="translate(-1725.427 -1746.841)" fill="#d8dee8"/>
                      </g>
                    </g>
                  </g>
                  <g id="Grupo_2474" data-name="Grupo 2474" transform="translate(15.707 174.595)">
                    <path id="Trazado_5239" data-name="Trazado 5239" d="M843.081,2089.135l-73.8,1.517v-7.893l73.8-1.239Z" transform="translate(-769.083 -2080.549)" fill="#d8dee8"/>
                    <path id="Trazado_5240" data-name="Trazado 5240" d="M1516.165,2080.189l-68.645,1.418V2074l68.645-1.159Z" transform="translate(-1371.402 -2072.84)" fill="#d8dee8"/>
                    <path id="Trazado_5241" data-name="Trazado 5241" d="M767.52,2194.775v-5.306l74.2-1.689v5.134l-74.2,1.863Zm.393-4.922v4.519l73.408-1.843v-4.347l-73.408,1.671Z" transform="translate(-767.52 -2174.914)" fill="#d8dee8"/>
                    <path id="Trazado_5242" data-name="Trazado 5242" d="M1445.77,2181.3v-5.129l69.038-1.576v4.968Zm.393-4.744v4.341l68.251-1.718v-4.181Z" transform="translate(-1369.848 -2163.2)" fill="#d8dee8"/>
                    <path id="Trazado_5243" data-name="Trazado 5243" d="M767.52,2262.292v-5.306l.191-.006,74-1.96v5.132l-.191.006-74,2.133Zm.393-4.923v4.519l73.408-2.116v-4.346l-73.408,1.944Z" transform="translate(-767.52 -2234.627)" fill="#d8dee8"/>
                    <path id="Trazado_5244" data-name="Trazado 5244" d="M1445.77,2246.432V2241.3l.191-.006,68.847-1.828v4.967l-69.038,1.995Zm.393-4.746v4.341l68.251-1.972v-4.181Z" transform="translate(-1369.848 -2220.817)" fill="#d8dee8"/>
                    <path id="Trazado_5245" data-name="Trazado 5245" d="M767.52,2329.808V2324.5l74.2-2.241v5.132l-74.2,2.415Zm.393-4.925v4.519l73.408-2.389v-4.347l-73.408,2.218Z" transform="translate(-767.52 -2294.341)" fill="#d8dee8"/>
                    <path id="Trazado_5246" data-name="Trazado 5246" d="M1445.77,2311.6v-5.129l.19-.006,68.848-2.083v4.967l-.19.005Zm.393-4.747v4.341l68.251-2.225v-4.181Z" transform="translate(-1369.848 -2278.461)" fill="#d8dee8"/>
                  </g>
                </g>
              </g>
              <path id="Trazado_5247" data-name="Trazado 5247" d="M916.249,307.395l-11.814,1.328a3.912,3.912,0,0,0-3.611,3.359l-1.874,13.369,69.563.545L955.322,309.8l-37.428-2.923a4.552,4.552,0,0,1-1.647.515Z" transform="translate(-840.317 -273.652)" fill="#97a6b7" opacity="0.3" style="mix-blend-mode: multiply;isolation: isolate"/>
              <path id="Trazado_5248" data-name="Trazado 5248" d="M1011.359,53.708a3.678,3.678,0,0,0-3.481-3.051l-11.1-.71a8.71,8.71,0,0,1-8.366-9.314l.67-11.541a3.809,3.809,0,0,0-3.61-4.05l-3.647-.285a4.485,4.485,0,0,1-4.138-5.331,8.006,8.006,0,0,0-7.45-9.355A9.915,9.915,0,0,0,959.728,18a5.227,5.227,0,0,1-.815,2.041,5.782,5.782,0,0,1-5.179,2.52l-3.761-.294a4.975,4.975,0,0,0-5.1,3.467l-3.376,11.658a11.909,11.909,0,0,1-12.065,8.253l-12.179-.778a5.332,5.332,0,0,0-4.933,2.682L904.679,61.39a1.621,1.621,0,0,0,1.4,2.457l105.644,5.573a1.912,1.912,0,0,0,1.971-2.132l-2.337-13.581ZM968.528,20.037a2.35,2.35,0,0,1-2.2-2.763,2.9,2.9,0,0,1,3.07-2.331,2.35,2.35,0,0,1,2.191,2.762,2.9,2.9,0,0,1-3.063,2.331Z" transform="translate(-845.2 -10.036)" fill="#97a6b7"/>
            </g>
            <path id="Trazado_5249" data-name="Trazado 5249" d="M993.142,199.628c-9.313-5.787-16.632-1.973-22.378-8.4-6.151-6.881-1.723-15.678-8.145-20.007-4.112-2.772-7.878-.481-12.711-1.309a13.679,13.679,0,0,1-5.59-2.382l-2.815,9.724a11.907,11.907,0,0,1-12.065,8.253l-12.179-.778a5.332,5.332,0,0,0-4.933,2.682l-7.638,13.845a1.621,1.621,0,0,0,1.4,2.457l96.008,5.065a28.094,28.094,0,0,0-8.956-9.149Z" transform="translate(-845.209 -149.574)" fill="#fff" opacity="0.5" style="mix-blend-mode: soft-light;isolation: isolate"/>
          </g>
          <g id="Grupo_2480" data-name="Grupo 2480" transform="translate(158.181 132.294)">
            <path id="Trazado_5250" data-name="Trazado 5250" d="M1544.287,1184.211l-122.067-2.366c-5.413-.105-9.5,4-9.1,9.163l12.765,166.669a9.939,9.939,0,0,0,10.484,8.9l121.449-5.7a8.58,8.58,0,0,0,8.192-9.3l-12.124-158.3a10,10,0,0,0-9.6-9.057Z" transform="translate(-1413.093 -1181.842)" fill="url(#linear-gradient-6)"/>
            <path id="Trazado_5251" data-name="Trazado 5251" d="M1571.706,1184.211l-122.067-2.366c-5.413-.105-9.5,4-9.1,9.163l12.766,166.669a9.939,9.939,0,0,0,10.484,8.9l121.449-5.7a8.58,8.58,0,0,0,8.192-9.3l-12.124-158.3a10,10,0,0,0-9.6-9.057Z" transform="translate(-1437.443 -1181.842)" fill="url(#linear-gradient-7)"/>
            <path id="Trazado_5252" data-name="Trazado 5252" d="M1487.286,1386.168a6.935,6.935,0,0,1-7.3-6.2l-12.752-166.491a5.974,5.974,0,0,1,6.336-6.387l122.057,2.243a6.979,6.979,0,0,1,6.7,6.313l12.136,158.464a5.987,5.987,0,0,1-5.716,6.483l-121.458,5.576Z" transform="translate(-1461.157 -1204.263)" fill="#fff" opacity="0.5" style="mix-blend-mode: soft-light;isolation: isolate"/>
            <path id="Trazado_5253" data-name="Trazado 5253" d="M1674,1290.517l-107.016-1.621a3.933,3.933,0,0,0-4.153,4.215l2,26.135a4.831,4.831,0,0,0,4.8,4.3l106.914.291a3.745,3.745,0,0,0,3.812-4.094l-1.919-25.053a4.6,4.6,0,0,0-4.444-4.167Z" transform="translate(-1546.061 -1276.912)" fill="url(#linear-gradient-8)"/>
            <g id="Grupo_2479" data-name="Grupo 2479" transform="translate(20.666 63.207)">
              <path id="Trazado_5254" data-name="Trazado 5254" d="M1628.659,1748.921l-27.466.093a3.366,3.366,0,0,0-3.474,3.6l.546,7.135a3.988,3.988,0,0,0,4.021,3.554l27.455-.234a3.324,3.324,0,0,0,3.392-3.573l-.539-7.045a3.943,3.943,0,0,0-3.936-3.53Z" transform="translate(-1597.709 -1748.649)" fill="url(#linear-gradient-9)"/>
              <path id="Trazado_5255" data-name="Trazado 5255" d="M1625.526,1782.625a.852.852,0,0,1-.857-.759l-.546-7.128a.718.718,0,0,1,.741-.768l27.464-.12a.841.841,0,0,1,.841.753l.541,7.053a.71.71,0,0,1-.725.762Z" transform="translate(-1621.164 -1770.788)" fill="#fff" opacity="0.3" style="mix-blend-mode: soft-light;isolation: isolate"/>
              <path id="Trazado_5256" data-name="Trazado 5256" d="M2002.237,1747.7l-26.651.09a3.288,3.288,0,0,0-3.366,3.545l.539,7.028a3.9,3.9,0,0,0,3.905,3.5l26.642-.226a3.249,3.249,0,0,0,3.288-3.519l-.532-6.941A3.853,3.853,0,0,0,2002.237,1747.7Z" transform="translate(-1930.288 -1747.565)" fill="url(#linear-gradient-10)"/>
              <path id="Trazado_5257" data-name="Trazado 5257" d="M1999.214,1780.881a.832.832,0,0,1-.833-.748l-.537-7.021a.7.7,0,0,1,.718-.757l26.649-.116a.823.823,0,0,1,.817.742l.532,6.948a.694.694,0,0,1-.7.751l-26.642.2Z" transform="translate(-1953.051 -1769.359)" fill="#fff" opacity="0.3" style="mix-blend-mode: soft-light;isolation: isolate"/>
              <path id="Trazado_5258" data-name="Trazado 5258" d="M2364.755,1746.5l-25.873.087a3.216,3.216,0,0,0-3.263,3.492l.531,6.924a3.81,3.81,0,0,0,3.795,3.45l25.862-.219a3.178,3.178,0,0,0,3.188-3.468l-.524-6.839A3.768,3.768,0,0,0,2364.755,1746.5Z" transform="translate(-2253.01 -1746.5)" fill="url(#linear-gradient-11)"/>
              <path id="Trazado_5259" data-name="Trazado 5259" d="M2361.832,1779.2a.814.814,0,0,1-.809-.736l-.53-6.917a.687.687,0,0,1,.7-.745l25.87-.113a.8.8,0,0,1,.794.731l.524,6.846a.679.679,0,0,1-.682.74l-25.864.194Z" transform="translate(-2275.106 -1767.982)" fill="#fff" opacity="0.3" style="mix-blend-mode: soft-light;isolation: isolate"/>
              <path id="Trazado_5260" data-name="Trazado 5260" d="M1643.061,1935.13l-27.451.3a3.4,3.4,0,0,0-3.471,3.628l1.2,15.679a3.937,3.937,0,0,0,4.019,3.515l27.433-.525a3.367,3.367,0,0,0,3.39-3.612L1647,1938.633a3.9,3.9,0,0,0-3.933-3.5Z" transform="translate(-1610.515 -1914.015)" fill="url(#linear-gradient-12)"/>
              <path id="Trazado_5261" data-name="Trazado 5261" d="M1640.589,1977.565a.841.841,0,0,1-.856-.75l-1.2-15.662a.726.726,0,0,1,.74-.774l27.448-.328a.834.834,0,0,1,.841.748l1.187,15.5a.719.719,0,0,1-.724.771Z" transform="translate(-1633.961 -1936.145)" fill="#fff" opacity="0.3" style="mix-blend-mode: soft-light;isolation: isolate"/>
              <path id="Trazado_5262" data-name="Trazado 5262" d="M2016.429,1931.128l-26.635.291a3.318,3.318,0,0,0-3.364,3.572l1.183,15.443a3.847,3.847,0,0,0,3.9,3.463l26.619-.509a3.291,3.291,0,0,0,3.285-3.557l-1.169-15.253A3.817,3.817,0,0,0,2016.429,1931.128Z" transform="translate(-1942.908 -1910.461)" fill="url(#linear-gradient-13)"/>
              <path id="Trazado_5263" data-name="Trazado 5263" d="M2014.047,1972.926a.82.82,0,0,1-.832-.74l-1.182-15.426a.709.709,0,0,1,.718-.762l26.634-.318a.816.816,0,0,1,.816.737l1.17,15.269a.7.7,0,0,1-.7.76l-26.621.482Z" transform="translate(-1965.653 -1932.264)" fill="#fff" opacity="0.3" style="mix-blend-mode: soft-light;isolation: isolate"/>
              <path id="Trazado_5264" data-name="Trazado 5264" d="M2378.746,1927.239l-25.857.283a3.242,3.242,0,0,0-3.261,3.518l1.165,15.214a3.761,3.761,0,0,0,3.792,3.413l25.841-.495a3.218,3.218,0,0,0,3.186-3.5l-1.151-15.029a3.735,3.735,0,0,0-3.714-3.4Z" transform="translate(-2265.451 -1907.007)" fill="url(#linear-gradient-14)"/>
              <path id="Trazado_5265" data-name="Trazado 5265" d="M2376.445,1968.426a.8.8,0,0,1-.808-.729l-1.164-15.2a.692.692,0,0,1,.7-.751l25.855-.309a.8.8,0,0,1,.794.725l1.152,15.045a.687.687,0,0,1-.681.748Z" transform="translate(-2287.522 -1928.499)" fill="#fff" opacity="0.3" style="mix-blend-mode: soft-light;isolation: isolate"/>
              <path id="Trazado_5266" data-name="Trazado 5266" d="M1663.3,2196.8l-27.428.592a3.438,3.438,0,0,0-3.468,3.667l1.2,15.679a3.886,3.886,0,0,0,4.015,3.475l27.411-.817a3.408,3.408,0,0,0,3.386-3.651l-1.185-15.482a3.854,3.854,0,0,0-3.931-3.462Z" transform="translate(-1628.515 -2146.394)" fill="url(#linear-gradient-15)"/>
              <path id="Trazado_5267" data-name="Trazado 5267" d="M1660.829,2239.516a.831.831,0,0,1-.857-.742l-1.2-15.662a.734.734,0,0,1,.74-.782l27.426-.62a.823.823,0,0,1,.84.739l1.186,15.5a.728.728,0,0,1-.724.779l-27.413.789Z" transform="translate(-1651.935 -2168.514)" fill="#fff" opacity="0.3" style="mix-blend-mode: soft-light;isolation: isolate"/>
              <path id="Trazado_5268" data-name="Trazado 5268" d="M2036.363,2188.91l-26.615.574a3.358,3.358,0,0,0-3.36,3.611l1.183,15.443a3.8,3.8,0,0,0,3.9,3.424l26.6-.792a3.332,3.332,0,0,0,3.282-3.594l-1.169-15.253a3.766,3.766,0,0,0-3.818-3.412Z" transform="translate(-1960.632 -2139.387)" fill="url(#linear-gradient-16)"/>
              <path id="Trazado_5269" data-name="Trazado 5269" d="M2033.987,2230.979a.812.812,0,0,1-.832-.731l-1.182-15.427a.719.719,0,0,1,.717-.771l26.612-.6a.805.805,0,0,1,.816.729l1.17,15.268a.713.713,0,0,1-.7.768l-26.6.766Z" transform="translate(-1983.36 -2161.179)" fill="#fff" opacity="0.3" style="mix-blend-mode: soft-light;isolation: isolate"/>
              <path id="Trazado_5270" data-name="Trazado 5270" d="M2398.375,2181.225l-25.836.557a3.285,3.285,0,0,0-3.259,3.556l1.165,15.214a3.712,3.712,0,0,0,3.789,3.375l25.82-.77a3.259,3.259,0,0,0,3.182-3.54l-1.151-15.029a3.685,3.685,0,0,0-3.712-3.364Z" transform="translate(-2282.902 -2132.56)" fill="url(#linear-gradient-17)"/>
              <path id="Trazado_5271" data-name="Trazado 5271" d="M2396.1,2222.69a.793.793,0,0,1-.808-.721l-1.164-15.2a.7.7,0,0,1,.7-.759l25.834-.584a.786.786,0,0,1,.792.718l1.152,15.044a.7.7,0,0,1-.68.756l-25.822.743Z" transform="translate(-2304.972 -2154.057)" fill="#fff" opacity="0.3" style="mix-blend-mode: soft-light;isolation: isolate"/>
              <path id="Trazado_5272" data-name="Trazado 5272" d="M1683.541,2458.454l-27.406.884a3.482,3.482,0,0,0-3.466,3.707l1.2,15.678a3.835,3.835,0,0,0,4.012,3.435l27.388-1.109a3.452,3.452,0,0,0,3.383-3.69l-1.185-15.482a3.8,3.8,0,0,0-3.928-3.424Z" transform="translate(-1646.508 -2378.758)" fill="url(#linear-gradient-18)"/>
              <path id="Trazado_5273" data-name="Trazado 5273" d="M1681.078,2501.476a.819.819,0,0,1-.855-.733l-1.2-15.662a.744.744,0,0,1,.739-.792l27.4-.912a.813.813,0,0,1,.84.731l1.187,15.5a.738.738,0,0,1-.723.788Z" transform="translate(-1669.918 -2400.892)" fill="#fff" opacity="0.3" style="mix-blend-mode: soft-light;isolation: isolate"/>
              <path id="Trazado_5274" data-name="Trazado 5274" d="M2056.3,2446.665l-26.592.857a3.4,3.4,0,0,0-3.358,3.649l1.183,15.443a3.748,3.748,0,0,0,3.9,3.386l26.575-1.076a3.374,3.374,0,0,0,3.279-3.633l-1.169-15.252a3.718,3.718,0,0,0-3.816-3.375Z" transform="translate(-1978.359 -2368.288)" fill="url(#linear-gradient-19)"/>
              <path id="Trazado_5275" data-name="Trazado 5275" d="M2053.926,2489.042a.8.8,0,0,1-.83-.724l-1.182-15.427a.726.726,0,0,1,.716-.779l26.591-.884a.793.793,0,0,1,.815.721l1.17,15.268a.722.722,0,0,1-.7.776l-26.578,1.049Z" transform="translate(-2001.068 -2390.102)" fill="#fff" opacity="0.3" style="mix-blend-mode: soft-light;isolation: isolate"/>
              <path id="Trazado_5276" data-name="Trazado 5276" d="M2418.02,2435.234l-25.815.833a3.326,3.326,0,0,0-3.255,3.594l1.166,15.214a3.663,3.663,0,0,0,3.785,3.338l25.8-1.045a3.3,3.3,0,0,0,3.18-3.577l-1.151-15.029a3.636,3.636,0,0,0-3.708-3.327Z" transform="translate(-2300.37 -2358.138)" fill="url(#linear-gradient-20)"/>
              <path id="Trazado_5277" data-name="Trazado 5277" d="M2415.744,2476.973a.782.782,0,0,1-.807-.712l-1.164-15.2a.711.711,0,0,1,.694-.768l25.813-.858a.777.777,0,0,1,.792.71l1.152,15.045a.705.705,0,0,1-.679.763l-25.8,1.019Z" transform="translate(-2322.422 -2379.631)" fill="#fff" opacity="0.3" style="mix-blend-mode: soft-light;isolation: isolate"/>
            </g>
          </g>
          <g id="Grupo_2490" data-name="Grupo 2490" transform="translate(11.519 207.356)">
            <g id="Grupo_2481" data-name="Grupo 2481" transform="translate(15.49 91.818)">
              <path id="Trazado_5278" data-name="Trazado 5278" d="M241.55,2737.26v12.359c0,3.994,24.947,7.231,55.718,7.231s55.719-3.237,55.719-7.231V2737.26Z" transform="translate(-241.519 -2730.029)" fill="url(#linear-gradient-21)"/>
              <path id="Trazado_5279" data-name="Trazado 5279" d="M353,2679.891c0,3.994-24.947,7.231-55.719,7.231s-55.719-3.237-55.719-7.231,24.947-7.231,55.719-7.231S353,2675.9,353,2679.891Z" transform="translate(-241.528 -2672.66)" fill="url(#linear-gradient-22)"/>
              <path id="Trazado_5280" data-name="Trazado 5280" d="M297.021,2739.794c-27.254,0-55.751-2.6-55.751-7.624,0-.275.1-.76.374-.76s.157.38.157.655c0,3.185,22.678,6.732,55.22,6.732s55.22-3.547,55.22-6.732c0-.275.047-.534.322-.534s.209.368.209.644C352.773,2737.2,324.275,2739.794,297.021,2739.794Z" transform="translate(-241.27 -2724.833)" fill="url(#linear-gradient-23)"/>
              <path id="Trazado_5281" data-name="Trazado 5281" d="M455.6,2715.934q.819-.568,1.751-1.121a10.983,10.983,0,0,1,2.393-1,22.81,22.81,0,0,1,3.673-.727,46.458,46.458,0,0,1,5.5-.3q3.23-.015,6.065.205a41.2,41.2,0,0,1,4.987.66,15.431,15.431,0,0,1,3.5,1.086,2.771,2.771,0,0,1,1.6,1.483l6.274.063a6.244,6.244,0,0,1,1.2.112c.35.072.52.162.52.271l0,.516-8.065-.077a4.071,4.071,0,0,1-2.163,1.736,21.988,21.988,0,0,1-4.423,1.364l-2.937-.409a3.412,3.412,0,0,1-.648-.153c-.169-.062-.252-.128-.252-.2,0-.1.226-.213.682-.339s.967-.285,1.538-.474a15.389,15.389,0,0,0,1.684-.666,2.283,2.283,0,0,0,1.1-.917l-19.037-.189a17.987,17.987,0,0,1-1.681,1.084,10.948,10.948,0,0,1-2.469.959,25.715,25.715,0,0,1-3.831.692,54.164,54.164,0,0,1-5.776.282c-1.745.009-3.443-.059-5.108-.2a35.114,35.114,0,0,1-4.433-.631,13.841,13.841,0,0,1-3.18-1.041c-.825-.414-1.288-.889-1.385-1.426l-5.165-.052a6.628,6.628,0,0,1-1.22-.108c-.356-.069-.537-.16-.538-.275l0-.518,7.061.067a3.8,3.8,0,0,1,1.931-1.423,22.129,22.129,0,0,1,3.583-1.078l2.365.325c.719.1,1.075.219,1.076.354,0,.073-.146.164-.442.272s-.653.238-1.06.388a9.859,9.859,0,0,0-1.176.531,2.5,2.5,0,0,0-.861.689l17.357.172Zm-17.422.7a1.868,1.868,0,0,0,.938.875,7.435,7.435,0,0,0,1.794.606,18.39,18.39,0,0,0,2.418.348q1.348.111,2.82.1a29.16,29.16,0,0,0,2.993-.148,17.187,17.187,0,0,0,2.239-.379,10.428,10.428,0,0,0,1.684-.556,9.415,9.415,0,0,0,1.286-.687l-16.172-.164Zm41.444-.462a1.94,1.94,0,0,0-1.025-.9,9.3,9.3,0,0,0-2.063-.651,22.984,22.984,0,0,0-2.926-.393q-1.664-.129-3.677-.119a28.2,28.2,0,0,0-3.081.16,15.927,15.927,0,0,0-2.239.406,8.177,8.177,0,0,0-1.607.595,11.444,11.444,0,0,0-1.234.727l17.853.178Z" transform="translate(-405.117 -2708.299)" fill="#fcb048"/>
              <path id="Trazado_5282" data-name="Trazado 5282" d="M304.23,2679.641c-24.844,0-50.713,2.186-54.85,6.419a4.953,4.953,0,0,1,.452.476c3.488-2.938,24.847-5.9,54.4-5.9s52.011,3.113,54.641,6.123a5.208,5.208,0,0,1,.416-.473c-3.418-4.382-29.771-6.649-55.057-6.649Z" transform="translate(-248.472 -2678.859)" fill="url(#linear-gradient-24)"/>
            </g>
            <g id="Grupo_2482" data-name="Grupo 2482" transform="translate(0 78.836)">
              <path id="Trazado_5283" data-name="Trazado 5283" d="M103.18,2621.29v12.359c0,3.994,24.947,7.231,55.72,7.231s55.719-3.237,55.719-7.231V2621.29Z" transform="translate(-103.148 -2614.059)" fill="url(#linear-gradient-21)"/>
              <path id="Trazado_5284" data-name="Trazado 5284" d="M214.618,2563.921c0,3.994-24.947,7.232-55.719,7.232s-55.72-3.238-55.72-7.232,24.947-7.231,55.72-7.231S214.618,2559.927,214.618,2563.921Z" transform="translate(-103.148 -2556.69)" fill="url(#linear-gradient-22)"/>
              <path id="Trazado_5285" data-name="Trazado 5285" d="M158.641,2623.824c-27.254,0-55.751-2.6-55.751-7.624,0-.275.1-.76.374-.76s.157.379.157.655c0,3.185,22.679,6.732,55.22,6.732s55.22-3.547,55.22-6.732c0-.275.047-.534.322-.534s.209.368.209.643C214.393,2621.225,185.895,2623.824,158.641,2623.824Z" transform="translate(-102.89 -2608.864)" fill="url(#linear-gradient-27)"/>
              <path id="Trazado_5286" data-name="Trazado 5286" d="M317.205,2599.963q.819-.568,1.751-1.121a11.008,11.008,0,0,1,2.393-1,22.922,22.922,0,0,1,3.673-.727,46.511,46.511,0,0,1,5.5-.3q3.231-.015,6.065.2a41.14,41.14,0,0,1,4.987.66,15.5,15.5,0,0,1,3.5,1.086,2.775,2.775,0,0,1,1.6,1.483l6.274.064a6.23,6.23,0,0,1,1.2.111c.35.072.521.162.521.271l0,.516-8.065-.077a4.067,4.067,0,0,1-2.163,1.736,21.94,21.94,0,0,1-4.423,1.365l-2.937-.409a3.414,3.414,0,0,1-.648-.153c-.17-.062-.252-.129-.252-.2,0-.1.226-.212.682-.339s.967-.285,1.538-.473a15.693,15.693,0,0,0,1.684-.667,2.274,2.274,0,0,0,1.1-.917l-19.037-.189a17.923,17.923,0,0,1-1.681,1.085,10.994,10.994,0,0,1-2.469.959,25.687,25.687,0,0,1-3.831.692,54.053,54.053,0,0,1-5.776.282c-1.745.009-3.443-.058-5.108-.2a35.074,35.074,0,0,1-4.433-.631,13.835,13.835,0,0,1-3.18-1.041c-.825-.414-1.288-.889-1.385-1.427l-5.165-.052a6.8,6.8,0,0,1-1.22-.108c-.356-.07-.537-.16-.538-.275l0-.517,7.062.067a3.8,3.8,0,0,1,1.931-1.423,22.108,22.108,0,0,1,3.584-1.078l2.365.325c.719.1,1.075.219,1.076.354,0,.073-.145.164-.442.272s-.653.239-1.06.389a9.812,9.812,0,0,0-1.176.53,2.512,2.512,0,0,0-.861.689l17.357.172Zm-17.422.7a1.87,1.87,0,0,0,.938.875,7.446,7.446,0,0,0,1.794.606,18.149,18.149,0,0,0,2.418.348q1.348.111,2.82.1a29.451,29.451,0,0,0,2.993-.147,17.266,17.266,0,0,0,2.239-.38,10.4,10.4,0,0,0,1.684-.556,9.28,9.28,0,0,0,1.286-.687l-16.172-.163Zm41.444-.463a1.944,1.944,0,0,0-1.025-.9,9.267,9.267,0,0,0-2.063-.652,22.969,22.969,0,0,0-2.926-.393q-1.664-.13-3.677-.119a28.181,28.181,0,0,0-3.081.16,15.894,15.894,0,0,0-2.239.406,8.226,8.226,0,0,0-1.607.594,11.482,11.482,0,0,0-1.234.727l17.853.178Z" transform="translate(-266.72 -2592.329)" fill="#fcb048"/>
              <path id="Trazado_5287" data-name="Trazado 5287" d="M165.86,2563.681c-24.844,0-50.713,2.186-54.85,6.418a5.014,5.014,0,0,1,.452.476c3.488-2.938,24.848-5.9,54.4-5.9s52.011,3.113,54.641,6.123a5.072,5.072,0,0,1,.416-.472c-3.417-4.381-29.771-6.649-55.057-6.649Z" transform="translate(-110.101 -2562.898)" fill="url(#linear-gradient-28)"/>
            </g>
            <g id="Grupo_2483" data-name="Grupo 2483" transform="translate(13.365 65.893)">
              <path id="Trazado_5288" data-name="Trazado 5288" d="M222.58,2505.66v12.359c0,3.994,24.947,7.231,55.719,7.231s55.72-3.237,55.72-7.231V2505.66Z" transform="translate(-222.548 -2498.429)" fill="url(#linear-gradient-21)"/>
              <ellipse id="Elipse_269" data-name="Elipse 269" cx="55.719" cy="7.231" rx="55.719" ry="7.231" transform="translate(0.032)" fill="url(#linear-gradient-22)"/>
              <path id="Trazado_5289" data-name="Trazado 5289" d="M278.041,2508.194c-27.254,0-55.751-2.6-55.751-7.624,0-.275.1-.76.374-.76s.157.38.157.655c0,3.185,22.679,6.732,55.22,6.732s55.22-3.547,55.22-6.732c0-.275.047-.534.322-.534s.209.368.209.644C333.793,2505.6,305.295,2508.194,278.041,2508.194Z" transform="translate(-222.29 -2493.233)" fill="url(#linear-gradient-27)"/>
              <path id="Trazado_5290" data-name="Trazado 5290" d="M436.614,2484.333q.819-.568,1.751-1.12a10.983,10.983,0,0,1,2.393-1,22.839,22.839,0,0,1,3.673-.727,46.608,46.608,0,0,1,5.5-.3q3.231-.015,6.065.205a41.143,41.143,0,0,1,4.987.66,15.5,15.5,0,0,1,3.5,1.085,2.777,2.777,0,0,1,1.6,1.483l6.274.064a6.348,6.348,0,0,1,1.2.111c.35.072.521.163.521.271l0,.516-8.065-.077a4.071,4.071,0,0,1-2.163,1.736,21.894,21.894,0,0,1-4.423,1.365l-2.937-.409a3.47,3.47,0,0,1-.648-.153c-.169-.062-.252-.129-.252-.2,0-.1.226-.212.682-.339s.967-.285,1.538-.473a15.585,15.585,0,0,0,1.684-.666,2.276,2.276,0,0,0,1.1-.917l-19.037-.189a17.832,17.832,0,0,1-1.681,1.085,10.994,10.994,0,0,1-2.469.959,25.687,25.687,0,0,1-3.831.692,54.229,54.229,0,0,1-5.776.282c-1.745.009-3.443-.059-5.108-.2a35.074,35.074,0,0,1-4.433-.631,13.834,13.834,0,0,1-3.18-1.041c-.825-.414-1.288-.889-1.385-1.426l-5.165-.052a6.716,6.716,0,0,1-1.22-.108c-.356-.069-.537-.16-.538-.275l0-.517,7.061.067a3.8,3.8,0,0,1,1.931-1.423,22.124,22.124,0,0,1,3.583-1.078l2.365.325c.719.1,1.075.22,1.076.355,0,.073-.145.163-.442.272s-.653.238-1.06.389a9.817,9.817,0,0,0-1.176.53,2.5,2.5,0,0,0-.861.69l17.357.172Zm-17.422.7a1.871,1.871,0,0,0,.938.875,7.458,7.458,0,0,0,1.794.605,18.391,18.391,0,0,0,2.418.348q1.348.111,2.819.1a29.228,29.228,0,0,0,2.993-.148,17.148,17.148,0,0,0,2.239-.379,10.381,10.381,0,0,0,1.684-.556,9.359,9.359,0,0,0,1.286-.687l-16.172-.164Zm41.444-.462a1.935,1.935,0,0,0-1.025-.9,9.268,9.268,0,0,0-2.063-.652,23.014,23.014,0,0,0-2.926-.393q-1.664-.129-3.677-.119a28.066,28.066,0,0,0-3.081.16,15.923,15.923,0,0,0-2.239.406,8.178,8.178,0,0,0-1.607.594,11.523,11.523,0,0,0-1.234.727l17.853.178Z" transform="translate(-386.129 -2476.699)" fill="#fcb048"/>
              <path id="Trazado_5291" data-name="Trazado 5291" d="M285.26,2448.052c-24.844,0-50.713,2.186-54.85,6.418a5.071,5.071,0,0,1,.452.476c3.488-2.938,24.848-5.9,54.4-5.9s52.011,3.112,54.641,6.123a5.041,5.041,0,0,1,.416-.472c-3.417-4.381-29.771-6.649-55.057-6.649Z" transform="translate(-229.501 -2447.268)" fill="url(#linear-gradient-32)"/>
            </g>
            <g id="Grupo_2484" data-name="Grupo 2484" transform="translate(21.475 52.911)">
              <path id="Trazado_5292" data-name="Trazado 5292" d="M295.03,2389.69v12.359c0,3.994,24.947,7.231,55.718,7.231s55.72-3.237,55.72-7.231V2389.69Z" transform="translate(-294.998 -2382.459)" fill="url(#linear-gradient-21)"/>
              <ellipse id="Elipse_270" data-name="Elipse 270" cx="55.719" cy="7.231" rx="55.719" ry="7.231" transform="translate(0.034)" fill="url(#linear-gradient-22)"/>
              <path id="Trazado_5293" data-name="Trazado 5293" d="M350.491,2392.224c-27.254,0-55.751-2.6-55.751-7.624,0-.275.1-.76.374-.76s.157.379.157.655c0,3.185,22.678,6.732,55.22,6.732s55.22-3.547,55.22-6.732c0-.275.047-.534.322-.534s.209.368.209.644C406.243,2389.625,377.745,2392.224,350.491,2392.224Z" transform="translate(-294.74 -2377.263)" fill="url(#linear-gradient-27)"/>
              <path id="Trazado_5294" data-name="Trazado 5294" d="M509.074,2368.364q.819-.568,1.751-1.12a10.971,10.971,0,0,1,2.393-1,23.031,23.031,0,0,1,3.673-.727,46.563,46.563,0,0,1,5.5-.3q3.231-.015,6.065.2a41.141,41.141,0,0,1,4.987.66,15.485,15.485,0,0,1,3.5,1.085,2.774,2.774,0,0,1,1.6,1.483l6.274.064a6.1,6.1,0,0,1,1.2.11c.35.072.521.162.521.271l0,.517-8.065-.077a4.072,4.072,0,0,1-2.163,1.736,21.971,21.971,0,0,1-4.423,1.364l-2.937-.408a3.448,3.448,0,0,1-.648-.153c-.169-.062-.252-.129-.252-.2,0-.1.226-.213.682-.339s.967-.285,1.538-.473a15.582,15.582,0,0,0,1.684-.666,2.286,2.286,0,0,0,1.1-.917l-19.037-.189a17.926,17.926,0,0,1-1.681,1.085,10.994,10.994,0,0,1-2.469.959,25.716,25.716,0,0,1-3.831.692,54.165,54.165,0,0,1-5.776.282c-1.745.009-3.443-.057-5.108-.2a35.206,35.206,0,0,1-4.433-.631,13.864,13.864,0,0,1-3.18-1.041c-.825-.414-1.288-.889-1.385-1.426l-5.165-.053a6.739,6.739,0,0,1-1.22-.107c-.356-.069-.537-.16-.538-.275l0-.516,7.062.067a3.8,3.8,0,0,1,1.931-1.423,22.131,22.131,0,0,1,3.584-1.078l2.365.325c.719.1,1.075.219,1.076.355,0,.073-.146.163-.442.272s-.653.239-1.06.388a9.85,9.85,0,0,0-1.176.531,2.5,2.5,0,0,0-.861.69l17.357.172Zm-17.422.7a1.868,1.868,0,0,0,.938.875,7.447,7.447,0,0,0,1.794.606,18.429,18.429,0,0,0,2.418.348q1.348.111,2.82.1a29.307,29.307,0,0,0,2.993-.148,17.187,17.187,0,0,0,2.239-.38,10.385,10.385,0,0,0,1.684-.556,9.359,9.359,0,0,0,1.286-.687l-16.172-.163Zm41.444-.462a1.94,1.94,0,0,0-1.025-.9,9.28,9.28,0,0,0-2.063-.652,22.9,22.9,0,0,0-2.926-.393q-1.664-.128-3.677-.119a28.053,28.053,0,0,0-3.081.16,15.852,15.852,0,0,0-2.239.406,8.16,8.16,0,0,0-1.607.594,11.528,11.528,0,0,0-1.234.726l17.853.178Z" transform="translate(-458.587 -2360.729)" fill="#fcb048"/>
              <path id="Trazado_5295" data-name="Trazado 5295" d="M357.71,2332.082c-24.844,0-50.713,2.186-54.85,6.419a5.013,5.013,0,0,1,.452.476c3.488-2.939,24.848-5.9,54.4-5.9s52.011,3.113,54.641,6.123a5.009,5.009,0,0,1,.416-.473c-3.418-4.382-29.771-6.649-55.057-6.649Z" transform="translate(-301.951 -2331.298)" fill="url(#linear-gradient-36)"/>
            </g>
            <g id="Grupo_2485" data-name="Grupo 2485" transform="translate(15.49 38.906)">
              <path id="Trazado_5296" data-name="Trazado 5296" d="M241.55,2264.58v12.359c0,3.994,24.947,7.231,55.718,7.231s55.719-3.237,55.719-7.231V2264.58Z" transform="translate(-241.519 -2257.349)" fill="url(#linear-gradient-21)"/>
              <ellipse id="Elipse_271" data-name="Elipse 271" cx="55.719" cy="7.231" rx="55.719" ry="7.231" transform="translate(0.032)" fill="url(#linear-gradient-38)"/>
              <path id="Trazado_5297" data-name="Trazado 5297" d="M297.021,2267.114c-27.254,0-55.751-2.6-55.751-7.624,0-.275.1-.76.374-.76s.157.379.157.655c0,3.185,22.678,6.732,55.22,6.732s55.22-3.547,55.22-6.732c0-.275.047-.534.322-.534s.209.368.209.644C352.773,2264.515,324.275,2267.114,297.021,2267.114Z" transform="translate(-241.27 -2252.153)" fill="url(#linear-gradient-39)"/>
              <path id="Trazado_5298" data-name="Trazado 5298" d="M455.6,2243.253q.819-.568,1.751-1.12a10.982,10.982,0,0,1,2.393-1,23.028,23.028,0,0,1,3.673-.727,46.609,46.609,0,0,1,5.5-.3q3.23-.015,6.065.205a41.147,41.147,0,0,1,4.987.66,15.5,15.5,0,0,1,3.5,1.085,2.774,2.774,0,0,1,1.6,1.483l6.274.064a6.12,6.12,0,0,1,1.2.11c.35.072.52.163.52.271l0,.517-8.065-.077a4.072,4.072,0,0,1-2.163,1.736,21.986,21.986,0,0,1-4.423,1.365l-2.937-.409a3.47,3.47,0,0,1-.648-.153c-.169-.062-.252-.129-.252-.2,0-.1.226-.213.682-.339s.967-.285,1.538-.473a15.541,15.541,0,0,0,1.684-.667,2.283,2.283,0,0,0,1.1-.917l-19.037-.189a17.988,17.988,0,0,1-1.681,1.085,11.007,11.007,0,0,1-2.469.959,25.747,25.747,0,0,1-3.831.692,54.173,54.173,0,0,1-5.776.282c-1.745.009-3.443-.057-5.108-.2a35.076,35.076,0,0,1-4.433-.631,13.852,13.852,0,0,1-3.18-1.042c-.825-.414-1.288-.889-1.385-1.426l-5.165-.052a6.738,6.738,0,0,1-1.22-.107c-.356-.07-.537-.16-.538-.275l0-.516,7.061.067a3.8,3.8,0,0,1,1.931-1.423,22.176,22.176,0,0,1,3.583-1.078l2.365.325c.719.1,1.075.219,1.076.355,0,.073-.146.163-.442.272s-.653.239-1.06.388a9.934,9.934,0,0,0-1.176.531,2.5,2.5,0,0,0-.861.689l17.357.172Zm-17.422.7a1.871,1.871,0,0,0,.938.875,7.467,7.467,0,0,0,1.794.606,18.392,18.392,0,0,0,2.418.348q1.348.111,2.82.1a29.376,29.376,0,0,0,2.993-.148,17.228,17.228,0,0,0,2.239-.379,10.379,10.379,0,0,0,1.684-.556,9.309,9.309,0,0,0,1.286-.687l-16.172-.164Zm41.444-.462a1.939,1.939,0,0,0-1.025-.9,9.3,9.3,0,0,0-2.063-.652,22.94,22.94,0,0,0-2.926-.393q-1.664-.127-3.677-.119a28.068,28.068,0,0,0-3.081.16,15.856,15.856,0,0,0-2.239.406,8.194,8.194,0,0,0-1.607.594,11.484,11.484,0,0,0-1.234.727l17.853.178Z" transform="translate(-405.117 -2235.619)" fill="#fcb048"/>
              <path id="Trazado_5299" data-name="Trazado 5299" d="M304.23,2206.961c-24.844,0-50.713,2.186-54.85,6.418a5.043,5.043,0,0,1,.452.476c3.488-2.938,24.847-5.9,54.4-5.9s52.011,3.113,54.641,6.123a5.017,5.017,0,0,1,.416-.473c-3.418-4.381-29.771-6.649-55.057-6.649Z" transform="translate(-248.472 -2206.179)" fill="url(#linear-gradient-40)"/>
            </g>
            <g id="Grupo_2486" data-name="Grupo 2486" transform="translate(0 25.925)">
              <path id="Trazado_5300" data-name="Trazado 5300" d="M103.18,2148.61v12.359c0,3.994,24.947,7.231,55.72,7.231s55.719-3.237,55.719-7.231V2148.61Z" transform="translate(-103.148 -2141.379)" fill="url(#linear-gradient-21)"/>
              <ellipse id="Elipse_272" data-name="Elipse 272" cx="55.719" cy="7.231" rx="55.719" ry="7.231" transform="translate(0.032)" fill="url(#linear-gradient-22)"/>
              <path id="Trazado_5301" data-name="Trazado 5301" d="M158.641,2151.144c-27.254,0-55.751-2.6-55.751-7.624,0-.275.1-.76.374-.76s.157.379.157.655c0,3.185,22.679,6.732,55.22,6.732s55.22-3.547,55.22-6.732c0-.275.047-.534.322-.534s.209.368.209.644C214.393,2148.545,185.895,2151.144,158.641,2151.144Z" transform="translate(-102.89 -2136.183)" fill="url(#linear-gradient-43)"/>
              <path id="Trazado_5302" data-name="Trazado 5302" d="M317.205,2127.284q.819-.568,1.751-1.121a10.959,10.959,0,0,1,2.393-1,23.03,23.03,0,0,1,3.673-.727,46.25,46.25,0,0,1,5.5-.3q3.231-.016,6.065.2a41.088,41.088,0,0,1,4.987.661,15.474,15.474,0,0,1,3.5,1.086,2.773,2.773,0,0,1,1.6,1.483l6.274.064a6.077,6.077,0,0,1,1.2.111c.35.071.521.162.521.271l0,.517-8.065-.078a4.073,4.073,0,0,1-2.163,1.736,21.927,21.927,0,0,1-4.423,1.364l-2.937-.409a3.533,3.533,0,0,1-.648-.153c-.17-.062-.252-.129-.252-.2,0-.1.226-.212.682-.339s.967-.286,1.538-.474a15.492,15.492,0,0,0,1.684-.667,2.276,2.276,0,0,0,1.1-.916l-19.037-.189a17.874,17.874,0,0,1-1.681,1.084,10.97,10.97,0,0,1-2.469.959,25.653,25.653,0,0,1-3.831.692,54.053,54.053,0,0,1-5.776.282c-1.745.009-3.443-.057-5.108-.2a35.116,35.116,0,0,1-4.433-.631,13.848,13.848,0,0,1-3.18-1.041c-.825-.414-1.288-.889-1.385-1.426l-5.165-.052a6.713,6.713,0,0,1-1.22-.108c-.356-.069-.537-.16-.538-.275l0-.517,7.062.068a3.8,3.8,0,0,1,1.931-1.423,22.108,22.108,0,0,1,3.584-1.078l2.365.325c.719.1,1.075.219,1.076.355,0,.072-.145.163-.442.272s-.653.238-1.06.388a9.854,9.854,0,0,0-1.176.531,2.5,2.5,0,0,0-.861.689l17.357.172Zm-17.422.7a1.869,1.869,0,0,0,.938.875,7.436,7.436,0,0,0,1.794.605,18.31,18.31,0,0,0,2.418.348q1.348.111,2.82.1a29.31,29.31,0,0,0,2.993-.147,17.271,17.271,0,0,0,2.239-.379,10.379,10.379,0,0,0,1.684-.557,9.358,9.358,0,0,0,1.286-.687l-16.172-.164Zm41.444-.462a1.945,1.945,0,0,0-1.025-.9,9.345,9.345,0,0,0-2.063-.651,22.929,22.929,0,0,0-2.926-.393q-1.664-.128-3.677-.119a28.181,28.181,0,0,0-3.081.16,15.927,15.927,0,0,0-2.239.406,8.211,8.211,0,0,0-1.607.594,11.441,11.441,0,0,0-1.234.727l17.853.178Z" transform="translate(-266.72 -2119.649)" fill="#fcb048"/>
              <path id="Trazado_5303" data-name="Trazado 5303" d="M165.86,2090.991c-24.844,0-50.713,2.186-54.85,6.418a5.044,5.044,0,0,1,.452.476c3.488-2.938,24.848-5.9,54.4-5.9s52.011,3.112,54.641,6.123a5.2,5.2,0,0,1,.416-.472c-3.417-4.382-29.771-6.649-55.057-6.649Z" transform="translate(-110.101 -2090.209)" fill="url(#linear-gradient-44)"/>
            </g>
            <g id="Grupo_2487" data-name="Grupo 2487" transform="translate(13.365 12.982)">
              <path id="Trazado_5304" data-name="Trazado 5304" d="M222.58,2032.98v12.359c0,3.994,24.947,7.231,55.719,7.231s55.72-3.237,55.72-7.231V2032.98Z" transform="translate(-222.548 -2025.749)" fill="url(#linear-gradient-21)"/>
              <path id="Trazado_5305" data-name="Trazado 5305" d="M334.018,1975.611c0,3.994-24.947,7.231-55.719,7.231s-55.72-3.237-55.72-7.231,24.947-7.231,55.72-7.231S334.018,1971.617,334.018,1975.611Z" transform="translate(-222.548 -1968.38)" fill="url(#linear-gradient-22)"/>
              <path id="Trazado_5306" data-name="Trazado 5306" d="M278.041,2035.514c-27.254,0-55.751-2.6-55.751-7.624,0-.275.1-.76.374-.76s.157.38.157.655c0,3.185,22.679,6.732,55.22,6.732s55.22-3.547,55.22-6.732c0-.275.047-.534.322-.534s.209.368.209.644C333.793,2032.915,305.295,2035.514,278.041,2035.514Z" transform="translate(-222.29 -2020.554)" fill="url(#linear-gradient-43)"/>
              <path id="Trazado_5307" data-name="Trazado 5307" d="M436.614,2011.653q.819-.568,1.751-1.121a10.971,10.971,0,0,1,2.393-1,23,23,0,0,1,3.673-.727,46.294,46.294,0,0,1,5.5-.3q3.231-.015,6.065.2a41.094,41.094,0,0,1,4.987.66,15.507,15.507,0,0,1,3.5,1.086,2.775,2.775,0,0,1,1.6,1.483l6.274.064a6.308,6.308,0,0,1,1.2.111c.35.072.521.162.521.271l0,.516-8.065-.077a4.069,4.069,0,0,1-2.163,1.736,21.971,21.971,0,0,1-4.423,1.365l-2.937-.408a3.468,3.468,0,0,1-.648-.153c-.169-.062-.252-.129-.252-.2,0-.1.226-.213.682-.339s.967-.285,1.538-.474a15.337,15.337,0,0,0,1.684-.666,2.276,2.276,0,0,0,1.1-.917l-19.037-.189a18.079,18.079,0,0,1-1.681,1.085,11,11,0,0,1-2.469.959,25.684,25.684,0,0,1-3.831.692,54.1,54.1,0,0,1-5.776.282c-1.745.009-3.443-.058-5.108-.2a35.164,35.164,0,0,1-4.433-.631,13.846,13.846,0,0,1-3.18-1.041c-.825-.414-1.288-.889-1.385-1.426l-5.165-.053a6.762,6.762,0,0,1-1.22-.107c-.356-.07-.537-.16-.538-.275l0-.518,7.061.068a3.8,3.8,0,0,1,1.931-1.423,22.1,22.1,0,0,1,3.583-1.078l2.365.324c.719.1,1.075.219,1.076.355,0,.073-.145.163-.442.272s-.653.238-1.06.388a9.78,9.78,0,0,0-1.176.531,2.5,2.5,0,0,0-.861.689l17.357.173Zm-17.422.7a1.869,1.869,0,0,0,.938.875,7.458,7.458,0,0,0,1.794.605,18.432,18.432,0,0,0,2.418.348q1.348.111,2.819.1a29.311,29.311,0,0,0,2.993-.147,17.269,17.269,0,0,0,2.239-.38,10.4,10.4,0,0,0,1.684-.556,9.333,9.333,0,0,0,1.286-.687l-16.172-.163Zm41.444-.462a1.94,1.94,0,0,0-1.025-.9,9.282,9.282,0,0,0-2.063-.651,22.926,22.926,0,0,0-2.926-.393q-1.664-.128-3.677-.119a28.121,28.121,0,0,0-3.081.16,15.961,15.961,0,0,0-2.239.406,8.193,8.193,0,0,0-1.607.594,11.482,11.482,0,0,0-1.234.727l17.853.178Z" transform="translate(-386.129 -2004.019)" fill="#fcb048"/>
              <path id="Trazado_5308" data-name="Trazado 5308" d="M285.26,1975.361c-24.844,0-50.713,2.186-54.85,6.418a5.068,5.068,0,0,1,.452.476c3.488-2.938,24.848-5.9,54.4-5.9s52.011,3.113,54.641,6.123a5.168,5.168,0,0,1,.416-.472c-3.417-4.383-29.771-6.649-55.057-6.649Z" transform="translate(-229.501 -1974.578)" fill="url(#linear-gradient-48)"/>
            </g>
            <g id="Grupo_2488" data-name="Grupo 2488" transform="translate(6.414)">
              <path id="Trazado_5309" data-name="Trazado 5309" d="M160.47,1917.01v12.359c0,3.994,24.947,7.231,55.718,7.231s55.718-3.237,55.718-7.231V1917.01Z" transform="translate(-160.439 -1909.779)" fill="url(#linear-gradient-21)"/>
              <path id="Trazado_5310" data-name="Trazado 5310" d="M271.908,1859.641c0,3.994-24.947,7.231-55.72,7.231s-55.719-3.237-55.719-7.231,24.947-7.231,55.719-7.231S271.908,1855.647,271.908,1859.641Z" transform="translate(-160.439 -1852.41)" fill="url(#linear-gradient-22)"/>
              <path id="Trazado_5311" data-name="Trazado 5311" d="M215.941,1919.544c-27.254,0-55.751-2.6-55.751-7.624,0-.275.1-.76.374-.76s.157.379.157.655c0,3.183,22.678,6.732,55.22,6.732s55.22-3.547,55.22-6.732c0-.276.047-.534.322-.534s.209.368.209.644C271.693,1916.945,243.195,1919.544,215.941,1919.544Z" transform="translate(-160.19 -1904.584)" fill="url(#linear-gradient-23)"/>
              <path id="Trazado_5312" data-name="Trazado 5312" d="M374.514,1895.683q.819-.568,1.751-1.12a10.976,10.976,0,0,1,2.393-1,23,23,0,0,1,3.673-.726,46.551,46.551,0,0,1,5.5-.3q3.231-.015,6.065.205a41.143,41.143,0,0,1,4.987.66,15.489,15.489,0,0,1,3.5,1.086,2.775,2.775,0,0,1,1.6,1.483l6.274.064a6.22,6.22,0,0,1,1.2.111c.35.072.521.161.521.271l0,.517-8.065-.077a4.071,4.071,0,0,1-2.163,1.736,21.972,21.972,0,0,1-4.423,1.365l-2.937-.409a3.459,3.459,0,0,1-.648-.153c-.169-.062-.252-.129-.252-.2,0-.1.226-.213.681-.34s.967-.285,1.538-.474a15.563,15.563,0,0,0,1.684-.666,2.285,2.285,0,0,0,1.1-.917l-19.037-.189a17.906,17.906,0,0,1-1.681,1.085,10.982,10.982,0,0,1-2.469.959,25.716,25.716,0,0,1-3.831.692,54.1,54.1,0,0,1-5.776.282c-1.745.008-3.443-.058-5.108-.2a35.122,35.122,0,0,1-4.433-.631,13.835,13.835,0,0,1-3.18-1.041c-.825-.414-1.288-.889-1.385-1.426l-5.165-.053a6.651,6.651,0,0,1-1.22-.108c-.356-.069-.537-.16-.538-.275l0-.517,7.062.067a3.793,3.793,0,0,1,1.931-1.422,22.083,22.083,0,0,1,3.584-1.078l2.365.325c.719.1,1.075.219,1.076.355,0,.074-.146.164-.442.272s-.653.238-1.06.389a9.832,9.832,0,0,0-1.177.531,2.5,2.5,0,0,0-.861.69l17.357.172Zm-17.422.7a1.869,1.869,0,0,0,.938.875,7.452,7.452,0,0,0,1.794.606,18.39,18.39,0,0,0,2.418.348q1.348.111,2.82.1a29.375,29.375,0,0,0,2.993-.148,17.26,17.26,0,0,0,2.239-.38,10.4,10.4,0,0,0,1.684-.556,9.333,9.333,0,0,0,1.286-.687l-16.172-.163Zm41.444-.462a1.943,1.943,0,0,0-1.025-.9,9.289,9.289,0,0,0-2.063-.651,22.99,22.99,0,0,0-2.926-.393q-1.664-.128-3.677-.119a28.1,28.1,0,0,0-3.081.16,15.924,15.924,0,0,0-2.239.406,8.179,8.179,0,0,0-1.607.594,11.527,11.527,0,0,0-1.234.726l17.853.178Z" transform="translate(-324.028 -1888.049)" fill="#fcb048"/>
              <path id="Trazado_5313" data-name="Trazado 5313" d="M223.15,1859.4c-24.844,0-50.713,2.186-54.85,6.419a5.027,5.027,0,0,1,.452.476c3.488-2.938,24.848-5.9,54.4-5.9s52.011,3.112,54.641,6.123a5.217,5.217,0,0,1,.416-.472c-3.417-4.382-29.771-6.649-55.057-6.649Z" transform="translate(-167.392 -1858.618)" fill="url(#linear-gradient-52)"/>
            </g>
            <g id="Grupo_2489" data-name="Grupo 2489" transform="translate(123.123 15.742)">
              <path id="Trazado_5314" data-name="Trazado 5314" d="M1213.417,1994.84,1203.345,2002c-3.254,2.315,8.567,24.519,26.4,49.6s34.934,43.528,38.189,41.213l10.071-7.163Z" transform="translate(-1202.807 -1994.639)" fill="url(#linear-gradient-53)"/>
              <path id="Trazado_5315" data-name="Trazado 5315" d="M1357.909,2084.094c-3.254,2.315-20.352-16.137-38.189-41.214s-29.658-47.281-26.4-49.6,20.351,16.137,38.189,41.214S1361.163,2081.779,1357.909,2084.094Z" transform="translate(-1282.706 -1993.083)" fill="url(#linear-gradient-54)"/>
              <path id="Trazado_5316" data-name="Trazado 5316" d="M1317.173,2043.127c-15.8-22.208-30.194-46.939-26.1-49.85.225-.16.676-.361.836-.135s-.218.348-.442.508c-2.595,1.846,7.66,22.382,26.522,48.9s34.9,42.942,37.493,41.1c.225-.16.462-.271.622-.047s-.179.384-.4.544c-4.091,2.91-22.728-18.807-38.525-41.015Z" transform="translate(-1280.565 -1993.042)" fill="url(#linear-gradient-55)"/>
              <path id="Trazado_5317" data-name="Trazado 5317" d="M1416.9,2169.957c.626.226,1.266.483,1.928.778a11.032,11.032,0,0,1,2.2,1.372,22.957,22.957,0,0,1,2.721,2.573,46.6,46.6,0,0,1,3.431,4.311q1.886,2.623,3.348,5.061a41.4,41.4,0,0,1,2.353,4.446,15.429,15.429,0,0,1,1.144,3.483,2.775,2.775,0,0,1-.281,2.164l3.584,5.149a6.191,6.191,0,0,1,.607,1.044c.145.327.17.517.081.581l-.42.3-4.612-6.618a4.062,4.062,0,0,1-2.669-.756,21.89,21.89,0,0,1-3.675-2.813l-1.37-2.63a3.361,3.361,0,0,1-.251-.618c-.048-.174-.042-.28.019-.322q.121-.088.672.358t1.278.979a15.409,15.409,0,0,0,1.518.986,2.287,2.287,0,0,0,1.387.368l-10.88-15.623a17.987,17.987,0,0,1-1.858-.741,10.97,10.97,0,0,1-2.213-1.456,25.882,25.882,0,0,1-2.784-2.72,54.272,54.272,0,0,1-3.579-4.544q-1.528-2.125-2.8-4.276a34.879,34.879,0,0,1-2.054-3.979,13.85,13.85,0,0,1-1-3.194,2.228,2.228,0,0,1,.359-1.955l-2.951-4.24a6.806,6.806,0,0,1-.62-1.057c-.15-.33-.181-.531-.089-.6l.42-.3,4.039,5.794a3.8,3.8,0,0,1,2.278.749,22.15,22.15,0,0,1,2.956,2.3l1.106,2.116c.334.643.444,1,.335,1.082-.059.043-.217-.023-.478-.2s-.572-.394-.931-.639a9.914,9.914,0,0,0-1.114-.652,2.486,2.486,0,0,0-1.06-.3l9.92,14.244Zm-10.672-13.79a1.879,1.879,0,0,0-.17,1.272,7.454,7.454,0,0,0,.546,1.813,18.222,18.222,0,0,0,1.118,2.172q.692,1.163,1.549,2.357a29.356,29.356,0,0,0,1.855,2.353,17.644,17.644,0,0,0,1.606,1.605,10.423,10.423,0,0,0,1.429,1.05,9.471,9.471,0,0,0,1.305.65l-9.241-13.272Zm24.4,33.5a1.947,1.947,0,0,0,.141-1.359,9.307,9.307,0,0,0-.665-2.059,22.719,22.719,0,0,0-1.376-2.611q-.859-1.431-2.035-3.065a28.252,28.252,0,0,0-1.915-2.418,15.917,15.917,0,0,0-1.629-1.588,8.174,8.174,0,0,0-1.416-.966,11.425,11.425,0,0,0-1.307-.584l10.2,14.652Z" transform="translate(-1377.378 -2128.407)" fill="#fcb048"/>
              <path id="Trazado_5318" data-name="Trazado 5318" d="M1338.378,2042.046c-14.4-20.245-31.176-40.057-37.023-40.976a5.181,5.181,0,0,1-.125.645c4.416,1.138,19.208,16.83,36.335,40.91,17.568,24.7,27.611,44.188,26.682,48.075a4.905,4.905,0,0,1,.626.066C1366.462,2085.44,1353.034,2062.651,1338.378,2042.046Z" transform="translate(-1290.213 -2000.171)" fill="url(#linear-gradient-56)"/>
            </g>
          </g>
          <g id="Grupo_2495" data-name="Grupo 2495" transform="translate(14.351 126.4)">
            <g id="Grupo_2493" data-name="Grupo 2493">
              <path id="Trazado_5319" data-name="Trazado 5319" d="M199.04,1157.91c1.607-1.042.143-4.073.056-10.584-.106-7.979,2.013-9.465.311-12.6-2.081-3.827-7.32-5.412-10.791-5.486-.766-.017-.945-.434-7.358,1.227-11.554,2.992-14.447-.215-19.622,2.989-5,3.1-2.81,6.487-7.664,10.117-7.869,5.886-16.144-.478-21.768,4.445-5.319,4.657-5.442,16.52.153,22.994,6.342,7.34,17.78,5.135,25.447,3.679a46.841,46.841,0,0,0,18.241-8.278,48.545,48.545,0,0,0,9.964-9.887,3.593,3.593,0,0,1,2.223-1.3,3.886,3.886,0,0,1,2.606.92c2.418,1.675,6.622,2.786,8.2,1.763Z" transform="translate(-128.189 -1129.186)" fill="url(#linear-gradient-57)"/>
              <path id="Trazado_5320" data-name="Trazado 5320" d="M698.6,1342.712c2.066-1.883,9.441,1.746,14.328,6.562,5.741,5.657,5.3,10.245,10.311,17.273a41.344,41.344,0,0,0,14.328,12.319q-.8,2.008-1.606,4.018a28.962,28.962,0,0,1-17.542-4.285c-4.654-3.039-7.05-7.067-11.649-15-4.616-7.959-10.751-18.536-8.168-20.889Z" transform="translate(-634.207 -1318.36)" fill="url(#linear-gradient-58)"/>
              <path id="Trazado_5321" data-name="Trazado 5321" d="M1046.946,2280.619l-5.757-3.459h-2.6a31.13,31.13,0,0,0-.785,3.459c1.158,1.9,6.547,3.34,9.91,3.459.558.021,1.338.022,1.539-.382C1049.6,2283.011,1048.073,2281.573,1046.946,2280.619Z" transform="translate(-935.978 -2148.658)" fill="url(#linear-gradient-59)"/>
              <path id="Trazado_5322" data-name="Trazado 5322" d="M1044.447,2243.44c-.371,2.141.1,3.257.6,3.883.355.44.671.565,2.778,2.387.7.6,1.051.926.971,1.095-.092.194-.708.089-2.035-.231-2.895-.7-4.349-1.058-4.7-1.755-.321-.63-.037-.916-.056-2.634a8.929,8.929,0,0,0-.423-2.612l2.867-.133Z" transform="translate(-939.336 -2118.712)" fill="url(#linear-gradient-60)"/>
              <path id="Trazado_5323" data-name="Trazado 5323" d="M1066.182,2079.893s2.6,3.1,2.177,6.506-4.978-1.572-5.613-3.253-1.377-4.076-1.377-4.076S1064.563,2077.084,1066.182,2079.893Z" transform="translate(-956.911 -1972.137)" fill="url(#linear-gradient-61)"/>
              <path id="Trazado_5324" data-name="Trazado 5324" d="M1074.879,2048.441s-.705,3.615.64,5.523c.671.95,1.574,1.756,1.309,2.53a1.434,1.434,0,0,1-1.427.832c-1.1-.113-1.7-1.794-2.135-2.981a31.162,31.162,0,0,1-.986-5.5l2.6-.4Z" transform="translate(-966.6 -1945.54)" fill="url(#linear-gradient-62)"/>
              <path id="Trazado_5325" data-name="Trazado 5325" d="M924.31,1779.671l2.4-.874a27.035,27.035,0,0,0,2.262-13.221c-1.309-14.633-14.842-22.387-16.345-23.216-3.687,1.85-7.422,4.459-7.557,7.749-.17,4.13,5.457,6.313,10.746,12.352a39.02,39.02,0,0,1,8.5,17.208Z" transform="translate(-818.104 -1673.722)" fill="url(#linear-gradient-63)"/>
              <path id="Trazado_5326" data-name="Trazado 5326" d="M582.934,1726.367a58.348,58.348,0,0,0,1.206-23.6c-1.152-7.335-3.5-22.256-13.457-27.819-2.175-1.214-5.285-2.3-9.075-5.681a32.127,32.127,0,0,1-6.391-7.877c-13.322-3.908-25.61-2.324-31.033,4.82a10.363,10.363,0,0,0-2.5,5.256c-.685,5.957,5.169,13.13,11.738,14.628,8.348,1.9,13.192-6.668,20.588-3.816,2.069.8,3.823,2.775,7.331,6.729a55.925,55.925,0,0,1,7.921,11.529c2.827,5.53,4.969,9.612,5.282,14.9a14.3,14.3,0,0,0,1.56,6.408,13.347,13.347,0,0,0,3.728,4.285l3.1.234Z" transform="translate(-477.59 -1599.966)" fill="url(#linear-gradient-64)"/>
              <path id="Trazado_5327" data-name="Trazado 5327" d="M521.667,1671.479a10.36,10.36,0,0,1,2.5-5.257c5.422-7.145,17.71-8.729,31.033-4.82a32.148,32.148,0,0,0,6.391,7.877c3.79,3.377,6.9,4.465,9.075,5.681,6.083,3.4,9.322,10.283,11.187,16.8-2.767-4.291-5.136-5.431-6.969-5.451-2.624-.029-3.8,2.214-6.93,1.909-3.349-.327-4.115-3.1-6.829-3.414a5.055,5.055,0,0,0-3.013.669,11.908,11.908,0,0,0-4.117-3.18c-7.4-2.852-12.239,5.72-20.588,3.816-6.569-1.5-12.423-8.671-11.738-14.628Z" transform="translate(-477.572 -1599.977)" opacity="0.3" fill="url(#linear-gradient-65)" style="mix-blend-mode: multiply;isolation: isolate"/>
              <path id="Trazado_5328" data-name="Trazado 5328" d="M562.033,1740.388a43.89,43.89,0,0,0-6.631.15c-13.293,1.313-16.958,7.888-27.943,9.494-2.6.38-14.17,2.07-19.182-4.62-3.6-4.8-3.054-13.078.882-16.333,1.666-1.378,3.315-1.339,13.981-1.243,4.018.036,8.035.049,12.051.1,17,.217,20.256-.96,23.35,1.852C559.984,1731.1,562.1,1733.919,562.033,1740.388Z" transform="translate(-463.59 -1660.788)" fill="url(#linear-gradient-66)"/>
              <g id="Grupo_2491" data-name="Grupo 2491" transform="translate(40.384 23.903)">
                <path id="Trazado_5329" data-name="Trazado 5329" d="M511.118,1343.862s-19.842-5.787-21.9,8.74c-1.973,13.923,8.135,20.312,3.535,34.416-.533,1.634,37.773-5.853,37.773-5.853-5.113-6.379-6.3-11.642-6.423-15.3-.134-4.012,1.022-5.835,0-10.577a23.781,23.781,0,0,0-5.257-9.835c-.591-.653-1.3-1.332-7.727-1.588Z" transform="translate(-488.958 -1342.724)" fill="url(#linear-gradient-67)"/>
                <path id="Trazado_5330" data-name="Trazado 5330" d="M572.7,1663.978l-.1-.379c.187-.051,18.761-4.993,29.75-5.608l.022.393c-10.949.613-29.485,5.547-29.67,5.6Z" transform="translate(-563.237 -1622.7)" fill="#f4f7fa" style="mix-blend-mode: soft-light;isolation: isolate"/>
              </g>
              <g id="Grupo_2492" data-name="Grupo 2492" transform="translate(52.271 13.068)">
                <path id="Trazado_5331" data-name="Trazado 5331" d="M601.113,1275.12c.181.85,1.107,5.407-.758,6.579a9.9,9.9,0,0,1-2.734.691c-1.016.19-1.87.308-2.472.379a6.246,6.246,0,0,0,1.226,3.14c2.472,3.171,7.429,2.351,8.136,2.222a18.628,18.628,0,0,0,5.539-1.695,12.5,12.5,0,0,0,2.031-1.8,35.13,35.13,0,0,0-4.22-2.1,24.27,24.27,0,0,0-2.728-.67q-.2-1.32-.412-2.641l-3.609-4.106Z" transform="translate(-595.15 -1271.852)" fill="url(#linear-gradient-68)"/>
                <path id="Trazado_5332" data-name="Trazado 5332" d="M640.624,1251.468a4.547,4.547,0,0,0,3.583,3.928c2.907.527,5.094-6.5,3.607-8.314a3.89,3.89,0,0,0-2.783-1.152,4.318,4.318,0,0,0-3.621,3.507c-.5-.529-1.128-.682-1.437-.46-.392.281-.181,1.1-.134,1.284A2.344,2.344,0,0,0,640.624,1251.468Z" transform="translate(-634.748 -1245.929)" fill="url(#linear-gradient-69)"/>
              </g>
            </g>
            <g id="Grupo_2494" data-name="Grupo 2494" transform="translate(53.612 47.061)">
              <path id="Trazado_5333" data-name="Trazado 5333" d="M639.513,1700.7l-30.37,1.477a1.275,1.275,0,0,0-1.021.6l-.841,1.349a.986.986,0,0,0,.875,1.507l32.169-1.226Z" transform="translate(-607.13 -1683.787)" fill="url(#linear-gradient-70)"/>
              <path id="Trazado_5334" data-name="Trazado 5334" d="M825.738,1549.608l-31.375.608a2.633,2.633,0,0,0-2.238,1.331l-10.865,19.116,33.136-1.32a2.7,2.7,0,0,0,2.207-1.31l10.067-16.818a1.062,1.062,0,0,0-.933-1.607Z" transform="translate(-761.768 -1549.608)" fill="url(#linear-gradient-71)"/>
              <path id="Trazado_5335" data-name="Trazado 5335" d="M792.134,1556.274a2.631,2.631,0,0,1,2.238-1.331l.687-.013a4.893,4.893,0,0,0,1.033,2.688c1.934,2.335,5.149.894,7.545,3.366,2.632,2.714.2,5.946,2.553,8.473,2.476,2.66,6.481.494,11.085,2.2l-.663,1.107a2.7,2.7,0,0,1-2.206,1.31l-33.136,1.32,10.865-19.116Z" transform="translate(-761.777 -1554.334)" opacity="0.3" fill="url(#linear-gradient-72)" style="mix-blend-mode: multiply;isolation: isolate"/>
            </g>
            <path id="Trazado_5336" data-name="Trazado 5336" d="M392.448,1397.525l1.185-3.132c-4.369-1.2-10.411-2.968-16.608-5.182-.971-.347-2.124-.777-2.5-1.8-1.06-2.866,5.677-5.834,8.3-12.089,2.422-5.786,1.089-13.815-1.722-14.764-5.85-1.973-26.592,23.846-19.184,34.731,4.188,6.153,17.1,7.133,30.533,2.234Z" transform="translate(-334.349 -1334.565)" fill="url(#linear-gradient-73)"/>
            <path id="Trazado_5337" data-name="Trazado 5337" d="M646.313,1658.623c2.743-1.458,6.026.037,6.237.136a8.219,8.219,0,0,1,2.366,1.7c.1.136,1.289,1.785.856,2.314-.347.423-1.693.073-3.31-.934a12.527,12.527,0,0,0-2.9-.071c-2.22.2-3.236.906-4.042.3a2,2,0,0,1-.579-2.076,2.476,2.476,0,0,1,1.367-1.366Z" transform="translate(-587.029 -1598.795)" fill="url(#linear-gradient-74)"/>
          </g>
        </g>
      </g>
    </g>
  </g>
</svg>
