<svg xmlns="http://www.w3.org/2000/svg" xmlns:xlink="http://www.w3.org/1999/xlink" width="580.04" height="571.739" viewBox="0 0 580.04 571.739">
  <defs>
    <linearGradient id="linear-gradient" x1="1.13" y1="1.295" x2="0.236" y2="0.19" gradientUnits="objectBoundingBox">
      <stop offset="0" stop-color="#a7d9d5"/>
      <stop offset="0.49" stop-color="#a737d5"/>
      <stop offset="1" stop-color="#ef497a"/>
    </linearGradient>
    <linearGradient id="linear-gradient-2" y1="0.5" x2="1" y2="0.5" gradientUnits="objectBoundingBox">
      <stop offset="0" stop-color="#a737d5"/>
      <stop offset="1" stop-color="#ef497a"/>
    </linearGradient>
    <linearGradient id="linear-gradient-3" y1="0.5" x2="1" y2="0.5" gradientUnits="objectBoundingBox">
      <stop offset="0" stop-color="#233894"/>
      <stop offset="1" stop-color="#dd397a"/>
    </linearGradient>
    <linearGradient id="linear-gradient-4" x1="0.835" y1="-0.575" x2="-0.404" y2="3.986" gradientUnits="objectBoundingBox">
      <stop offset="0" stop-color="#09005d"/>
      <stop offset="1" stop-color="#1a0f91"/>
    </linearGradient>
    <linearGradient id="linear-gradient-5" x1="1.063" y1="-0.858" x2="0.303" y2="0.97" xlink:href="#linear-gradient-4"/>
    <linearGradient id="linear-gradient-6" y1="0.5" x2="1" y2="0.5" gradientUnits="objectBoundingBox">
      <stop offset="0" stop-color="#53d8ff"/>
      <stop offset="1" stop-color="#3840f7"/>
    </linearGradient>
    <linearGradient id="linear-gradient-7" x1="0.934" y1="-7.202" x2="0.463" y2="1.376" xlink:href="#linear-gradient-4"/>
    <linearGradient id="linear-gradient-8" x1="0.663" y1="-6.507" x2="0.543" y2="-1.225" xlink:href="#linear-gradient-6"/>
    <linearGradient id="linear-gradient-9" y1="0.5" x2="1" y2="0.5" gradientUnits="objectBoundingBox">
      <stop offset="0" stop-color="#fdf53f"/>
      <stop offset="1" stop-color="#d93c65"/>
    </linearGradient>
    <linearGradient id="linear-gradient-10" x1="0.744" y1="-5.091" x2="0.465" y2="1.309" xlink:href="#linear-gradient-9"/>
    <linearGradient id="linear-gradient-11" x1="27.599" y1="0.238" x2="26.764" y2="0.678" gradientUnits="objectBoundingBox">
      <stop offset="0" stop-color="#febbba"/>
      <stop offset="1" stop-color="#ff928e"/>
    </linearGradient>
    <linearGradient id="linear-gradient-12" x1="-42.112" y1="-37.322" x2="-42.302" y2="-33.602" xlink:href="#linear-gradient-4"/>
    <linearGradient id="linear-gradient-13" x1="32.525" y1="0.225" x2="35.928" y2="-1.251" xlink:href="#linear-gradient-11"/>
    <linearGradient id="linear-gradient-14" x1="-41.709" y1="-42.964" x2="-41.93" y2="-39.855" xlink:href="#linear-gradient-4"/>
    <linearGradient id="linear-gradient-15" x1="-1.931" y1="57.777" x2="-1.172" y2="52.013" gradientUnits="objectBoundingBox">
      <stop offset="0" stop-color="#4f52ff"/>
      <stop offset="1" stop-color="#4042e2"/>
    </linearGradient>
    <linearGradient id="linear-gradient-16" x1="-23.613" y1="-1.184" x2="-23.295" y2="-0.437" xlink:href="#linear-gradient-4"/>
    <linearGradient id="linear-gradient-17" x1="2.572" y1="-3.309" x2="1.35" y2="-1.022" xlink:href="#linear-gradient-15"/>
    <linearGradient id="linear-gradient-18" x1="-19.808" y1="0.5" x2="-18.808" y2="0.5" xlink:href="#linear-gradient-11"/>
    <linearGradient id="linear-gradient-19" x1="-96.919" y1="-2.953" x2="-96.735" y2="-4.033" xlink:href="#linear-gradient-11"/>
    <linearGradient id="linear-gradient-20" x1="-105.305" y1="-16.821" x2="-103.749" y2="-19.049" xlink:href="#linear-gradient-11"/>
    <linearGradient id="linear-gradient-21" x1="-82.791" y1="-16.852" x2="-82.178" y2="-15.419" xlink:href="#linear-gradient-4"/>
    <linearGradient id="linear-gradient-22" x1="-407.119" y1="-53.916" x2="-401.131" y2="-60.966" xlink:href="#linear-gradient-11"/>
    <linearGradient id="linear-gradient-23" x1="-28.063" y1="-9.617" x2="-28.803" y2="-7.179" xlink:href="#linear-gradient-4"/>
    <linearGradient id="linear-gradient-24" x1="15.664" y1="0.565" x2="20.738" y2="-0.107" xlink:href="#linear-gradient-4"/>
    <linearGradient id="linear-gradient-25" x1="-221.894" y1="-0.304" x2="-223.734" y2="1.583" xlink:href="#linear-gradient-15"/>
    <linearGradient id="linear-gradient-26" x1="0" y1="0.5" x2="1" y2="0.5" xlink:href="#linear-gradient-4"/>
    <linearGradient id="linear-gradient-27" x1="0.266" y1="-0.555" x2="1.073" y2="3.364" xlink:href="#linear-gradient-11"/>
    <linearGradient id="linear-gradient-29" x1="0.262" y1="-1.081" x2="0.822" y2="2.525" xlink:href="#linear-gradient-11"/>
    <linearGradient id="linear-gradient-30" x1="1.158" y1="-0.81" x2="-0.045" y2="1.544" xlink:href="#linear-gradient-15"/>
    <linearGradient id="linear-gradient-31" x1="0.836" y1="-0.304" x2="0.091" y2="1.558" xlink:href="#linear-gradient-15"/>
    <linearGradient id="linear-gradient-32" x1="0" y1="0.5" x2="1" y2="0.5" xlink:href="#linear-gradient-11"/>
    <linearGradient id="linear-gradient-33" x1="0" y1="0.5" x2="1" y2="0.5" xlink:href="#linear-gradient-11"/>
    <linearGradient id="linear-gradient-34" x1="0" y1="0.5" x2="1" y2="0.5" xlink:href="#linear-gradient-11"/>
    <linearGradient id="linear-gradient-35" x1="1.103" y1="-0.458" x2="-1.2" y2="3.981" xlink:href="#linear-gradient-11"/>
    <linearGradient id="linear-gradient-36" x1="0.619" y1="0.82" x2="0.308" y2="-0.114" xlink:href="#linear-gradient-11"/>
    <linearGradient id="linear-gradient-37" x1="0.39" y1="-0.467" x2="0.567" y2="0.954" xlink:href="#linear-gradient-4"/>
    <linearGradient id="linear-gradient-38" x1="1.286" y1="2.058" x2="-0.187" y2="-0.895" xlink:href="#linear-gradient-11"/>
    <linearGradient id="linear-gradient-39" x1="1.325" y1="-0.956" x2="-0.235" y2="2.067" xlink:href="#linear-gradient-11"/>
    <linearGradient id="linear-gradient-40" x1="-29.433" y1="-14.1" x2="-30.173" y2="-11.664" xlink:href="#linear-gradient-4"/>
    <linearGradient id="linear-gradient-41" x1="-23.624" y1="0.134" x2="-24.024" y2="0.8" xlink:href="#linear-gradient-4"/>
    <linearGradient id="linear-gradient-42" y1="0.5" x2="1" y2="0.5" gradientUnits="objectBoundingBox">
      <stop offset="0" stop-color="#da342d"/>
      <stop offset="1" stop-color="#f3a84a"/>
    </linearGradient>
    <linearGradient id="linear-gradient-44" x1="0" y1="0.5" x2="1" y2="0.5" xlink:href="#linear-gradient-42"/>
    <linearGradient id="linear-gradient-46" x1="0" y1="0.5" x2="1" y2="0.5" xlink:href="#linear-gradient-6"/>
    <linearGradient id="linear-gradient-47" x1="0" y1="0.5" x2="1" y2="0.5" xlink:href="#linear-gradient-6"/>
    <linearGradient id="linear-gradient-48" x1="-5.103" y1="-2.751" x2="-2.852" y2="0.073" xlink:href="#linear-gradient-9"/>
    <linearGradient id="linear-gradient-49" x1="-2.51" y1="-0.192" x2="-1.463" y2="1.197" xlink:href="#linear-gradient-9"/>
    <linearGradient id="linear-gradient-50" x1="-29.591" y1="-2.823" x2="-30.08" y2="-3.794" xlink:href="#linear-gradient-9"/>
    <linearGradient id="linear-gradient-51" x1="-2.73" y1="-15.309" x2="-3.954" y2="-22.808" xlink:href="#linear-gradient-9"/>
    <linearGradient id="linear-gradient-52" x1="-0.937" y1="10.251" x2="-2.733" y2="-6.436" xlink:href="#linear-gradient-9"/>
    <linearGradient id="linear-gradient-53" x1="-3.156" y1="-0.505" x2="-4.962" y2="-3.11" xlink:href="#linear-gradient-9"/>
    <linearGradient id="linear-gradient-54" x1="45.499" y1="-0.367" x2="43.575" y2="-2.793" xlink:href="#linear-gradient-9"/>
  </defs>
  <g id="Home_headerTRC_Sports_Sitio" data-name="Home_headerTRC Sports Sitio" transform="translate(0 0.002)" style="mix-blend-mode: normal;isolation: isolate">
    <g id="Capa_2" transform="translate(0 -0.002)">
      <g id="Illustration" transform="translate(0 0)">
        <g id="Grupo_2287" data-name="Grupo 2287">
          <path id="Trazado_4196" data-name="Trazado 4196" d="M549.052,503.375c-11.625,12.237-22.624,20.129-31.313,26.365-102.151,73.295-223.021,51.93-248.71,46.711-37.935-7.7-111.258-22.6-164.272-84.94-80.2-94.318-67.716-242.913-5.5-341,11.38-17.942,71.49-117.527,193.662-133.5,73.938-9.664,160.125,9.828,222.541,62.119,131.014,109.763,121.686,331.506,33.6,424.244Z" transform="translate(-38.65 -11.637)" opacity="0.4" fill="url(#linear-gradient)" style="mix-blend-mode: normal;isolation: isolate"/>
          <g id="Grupo_2258" data-name="Grupo 2258" transform="translate(469.815)">
            <path id="Trazado_4197" data-name="Trazado 4197" d="M2404.5,2.875c.539-2.293-2.687-3.816-4.662-2.215-20.056,16.262-68.241,64.962-56.233,150.069,15.067,106.778-10.691,145.74-42.756,169.508,0,0,44.034-11.177,71.739-50.713,68.021-97.069,22.334-225.881,31.911-266.648Z" transform="translate(-2300.85 0.002)" fill="url(#linear-gradient-2)"/>
            <path id="Trazado_4198" data-name="Trazado 4198" d="M2444.629,174.533c-2.51,11.888-4.745,23.811-6.473,35.787q-2.7,17.952-4.125,36.005c-.89,12.031-1.519,24.074-1.556,36.122-.1,12.047.4,24.087.954,36.171.474,12.08,1.029,24.248.145,36.5a108.192,108.192,0,0,1-8.552,36.128c-1.276,2.881-2.62,5.754-4.145,8.531-1.466,2.8-3.077,5.548-4.743,8.268a130.7,130.7,0,0,1-11.375,15.649,143.5,143.5,0,0,1-29.955,26.214,3,3,0,0,1-3.792-.431,2.125,2.125,0,0,1,.437-3.232l.008-.006c2.679-1.883,5.329-3.788,7.874-5.789,1.291-.984,2.528-2.013,3.788-3.024,1.213-1.05,2.475-2.06,3.649-3.14a130.12,130.12,0,0,0,32.685-44.841,105.677,105.677,0,0,0,5.671-17.026,116.249,116.249,0,0,0,2.736-17.634c.964-11.894.529-23.941.155-36.024-.355-12.086-.614-24.233-.3-36.371q.211-9.1.8-18.191c.176-3.03.421-6.056.658-9.082q.407-4.536.88-9.066,1.954-18.117,5.2-36.091c2.232-11.966,4.831-23.876,7.959-35.68a.736.736,0,0,1,.87-.472.635.635,0,0,1,.551.723Z" transform="translate(-2356.24 -138.304)" fill="#fff" style="mix-blend-mode: soft-light;isolation: isolate"/>
          </g>
          <g id="Grupo_2259" data-name="Grupo 2259" transform="translate(463.196 26.309)">
            <path id="Trazado_4199" data-name="Trazado 4199" d="M2326.752,360.992a5.05,5.05,0,0,0,8.264-1.407c8.161-18.02,26.633-71.055-3.872-132.155-25.759-51.6-34.825-82.022-37.982-96.117a3.166,3.166,0,0,0-5.987-.582c-13.605,30.835-49.527,135.722,39.578,230.261Z" transform="translate(-2268.436 -128.84)" fill="url(#linear-gradient-3)"/>
            <path id="Trazado_4200" data-name="Trazado 4200" d="M2438.224,617.089a1.476,1.476,0,0,0,.27.022,1.4,1.4,0,0,0,1.378-1.421c-.014-.876-1.719-88.464-34.3-161.822a1.4,1.4,0,1,0-2.559,1.137c32.34,72.825,34.041,159.858,34.055,160.73a1.4,1.4,0,0,0,1.151,1.356Z" transform="translate(-2375.441 -386.838)" fill="#fff" style="mix-blend-mode: soft-light;isolation: isolate"/>
          </g>
          <g id="Grupo_2262" data-name="Grupo 2262" transform="translate(0 124.422)">
            <g id="Grupo_2260" data-name="Grupo 2260">
              <path id="Trazado_4201" data-name="Trazado 4201" d="M1033.894,1958.12,1022.6,2059.405h131.026L1136.56,1958.12Z" transform="translate(-813.793 -1682.709)" fill="url(#linear-gradient-4)"/>
              <path id="Trazado_4202" data-name="Trazado 4202" d="M0,635.2V867.172a35.19,35.19,0,0,0,34.284,35.18c84.727,2.185,381.063,7.482,461.717,6.293a25.891,25.891,0,0,0,25.491-25.156c1.556-53.89,4.082-183.479-5.266-243.64A26.642,26.642,0,0,0,490.749,617.3c-70.991-2.271-385.126-9.483-465.744-7.672A25.578,25.578,0,0,0,0,635.2Z" transform="translate(0 -609.336)" fill="url(#linear-gradient-5)"/>
              <path id="Trazado_4203" data-name="Trazado 4203" d="M71.28,669.182V889.57a20.39,20.39,0,0,0,20.084,20.387l449.757,5.556a19.843,19.843,0,0,0,20.139-19.768l.751-218.42a14.511,14.511,0,0,0-14.159-14.561l-460.467-9.3A15.724,15.724,0,0,0,71.28,669.18Z" transform="translate(-56.725 -644.448)" fill="url(#linear-gradient-6)"/>
              <path id="Trazado_4204" data-name="Trazado 4204" d="M561.956,1943.249h-.012l-493.367-8.407a.691.691,0,0,1,.012-1.382H68.6l493.366,8.407a.691.691,0,0,1-.012,1.382Z" transform="translate(-54.035 -1663.084)" fill="#91b3fa"/>
              <path id="Trazado_4205" data-name="Trazado 4205" d="M1022.871,2444.986H831.106c-5.209,0-9.121-3.708-8.115-7.692l2.46-9.732c.739-2.926,3.959-5.076,7.784-5.195l184.869-5.769c4-.125,7.533,2,8.4,5.038l4.435,15.5C1032.094,2441.164,1028.164,2444.986,1022.871,2444.986Z" transform="translate(-654.817 -2047.567)" fill="url(#linear-gradient-7)"/>
              <path id="Trazado_4206" data-name="Trazado 4206" d="M1366.22,2452.275a.69.69,0,0,1-.01-1.38l7.923-.115a.7.7,0,0,1,.7.68.688.688,0,0,1-.68.7l-7.923.115Z" transform="translate(-1086.699 -2074.772)" fill="#fff"/>
              <path id="Trazado_4207" data-name="Trazado 4207" d="M855.681,2468.029a.644.644,0,0,1-.11-.008.691.691,0,0,1-.574-.79l1.129-7.077a7.963,7.963,0,0,1,7.757-6.718l84.023-1.228a.705.705,0,0,1,.7.68.688.688,0,0,1-.68.7l-84.023,1.228a6.585,6.585,0,0,0-6.416,5.554l-1.129,7.077a.69.69,0,0,1-.68.582Z" transform="translate(-680.407 -2075.908)" fill="#91b3fa"/>
              <path id="Trazado_4208" data-name="Trazado 4208" d="M562.66,695.339l.061-18a14.511,14.511,0,0,0-14.159-14.561l-460.377-9.3A15.646,15.646,0,0,0,72.17,669.19v26.149H562.658Z" transform="translate(-57.434 -644.456)" fill="url(#linear-gradient-8)"/>
            </g>
            <g id="Grupo_2261" data-name="Grupo 2261" transform="translate(30.616 27.821)">
              <circle id="Elipse_257" data-name="Elipse 257" cx="6.853" cy="6.853" r="6.853" transform="matrix(0.921, -0.391, 0.391, 0.921, 0, 5.353)" fill="#fff" opacity="0.49"/>
              <circle id="Elipse_258" data-name="Elipse 258" cx="6.853" cy="6.853" r="6.853" transform="matrix(0.921, -0.391, 0.391, 0.921, 23.497, 5.355)" fill="#fff" opacity="0.49"/>
              <circle id="Elipse_259" data-name="Elipse 259" cx="6.853" cy="6.853" r="6.853" transform="translate(48.357 13.19) rotate(-70.79)" fill="#fff" opacity="0.49"/>
            </g>
          </g>
          <g id="Grupo_2266" data-name="Grupo 2266" transform="translate(228.381 416.918)">
            <g id="Grupo_2264" data-name="Grupo 2264" transform="translate(64.909)">
              <g id="Grupo_2263" data-name="Grupo 2263">
                <path id="Trazado_4209" data-name="Trazado 4209" d="M1726.442,2125.928H1519.35V2086h207.091C1722.009,2086,1722.009,2125.928,1726.442,2125.928Z" transform="translate(-1502.4 -2076.973)" fill="#bdd0fb"/>
                <path id="Trazado_4210" data-name="Trazado 4210" d="M1453.29,2080.754v-18.273c0-6.442,4.092-11.663,9.142-11.663H1659.51a7.059,7.059,0,0,0,7.188-6.924,2.145,2.145,0,0,0-2.185-2.1h-215.39c-4.939,0-12.782,7.481-12.782,16.709v25.52c0,8.7,7.614,15.756,12.27,15.756h214.767a3.26,3.26,0,0,0,3.318-3.2,5.948,5.948,0,0,0-6.054-5.834h-199.52C1456.8,2090.745,1453.29,2086.271,1453.29,2080.754Z" transform="translate(-1436.34 -2041.79)" fill="url(#linear-gradient-9)"/>
              </g>
              <path id="Trazado_4211" data-name="Trazado 4211" d="M1738.927,2124.091H1544.75a.7.7,0,1,1,0-1.4h194.176a.7.7,0,1,1,0,1.4Z" transform="translate(-1522.056 -2106.171)" fill="#fff"/>
              <path id="Trazado_4212" data-name="Trazado 4212" d="M1738.927,2153.111H1544.75a.7.7,0,1,1,0-1.4h194.176a.7.7,0,1,1,0,1.4Z" transform="translate(-1522.056 -2129.265)" fill="#fff"/>
              <path id="Trazado_4213" data-name="Trazado 4213" d="M1738.927,2182.141H1544.75a.7.7,0,1,1,0-1.4h194.176a.7.7,0,1,1,0,1.4Z" transform="translate(-1522.056 -2152.368)" fill="#fff"/>
              <path id="Trazado_4214" data-name="Trazado 4214" d="M1738.927,2211.161H1544.75a.7.7,0,0,1,0-1.4h194.176a.7.7,0,1,1,0,1.4Z" transform="translate(-1522.056 -2175.462)" fill="#fff"/>
              <path id="Trazado_4215" data-name="Trazado 4215" d="M1738.927,2240.191H1544.75a.7.7,0,0,1,0-1.4h194.176a.7.7,0,1,1,0,1.4Z" transform="translate(-1522.056 -2198.564)" fill="#fff"/>
            </g>
            <g id="Grupo_2265" data-name="Grupo 2265" transform="translate(0 57.558)">
              <rect id="Rectángulo_973" data-name="Rectángulo 973" width="351.659" height="66.716" rx="21.39" transform="translate(351.659 66.716) rotate(180)" fill="url(#linear-gradient-10)"/>
              <rect id="Rectángulo_974" data-name="Rectángulo 974" width="32.469" height="51.381" rx="7.24" transform="translate(287.956 7.667)" fill="#7d97f4"/>
              <rect id="Rectángulo_975" data-name="Rectángulo 975" width="12.182" height="51.381" rx="5.89" transform="translate(270.997 7.667)" fill="#7d97f4"/>
            </g>
          </g>
          <g id="Grupo_2270" data-name="Grupo 2270" transform="translate(339.306 280.63)">
            <path id="Trazado_4216" data-name="Trazado 4216" d="M1676.869,1935.722c.08-.031,43.084-75.341,48.9-82.428a4.506,4.506,0,0,1,4.021-1.617l12,1.432,14.1,30.506-23.492-13.681c2.324,16.076-27.854,39.969-38.2,48.685a2.378,2.378,0,0,0-.188,3.463l4.133,4.325a47.448,47.448,0,0,1-23.447,13.334l2.179-4.018Z" transform="translate(-1672.038 -1754.183)" fill="url(#linear-gradient-11)"/>
            <path id="Trazado_4217" data-name="Trazado 4217" d="M1685.411,2206.342a6.082,6.082,0,0,1,3.531,3.2,2.688,2.688,0,0,1-1.011,3.1c-4.343,3.112-18.665,13.156-25.277,15.123a.748.748,0,0,1-.935-.882c.339-1.535,1.436-4.6,4.972-9.091l-.317.641a.918.918,0,0,0,1.272,1.211c4.421-2.5,13.426-7.958,17.767-13.3Z" transform="translate(-1661.701 -2036.453)" fill="url(#linear-gradient-12)"/>
            <path id="Trazado_4218" data-name="Trazado 4218" d="M1762.243,1987.4c.071-.047,6.524-15.592,6.6-15.637,5.916-36.017,20.35-66.863,24.605-74.979a4.506,4.506,0,0,1,3.61-2.4l12.043-1.029,19.982,27.021-25.775-8.643c5.53,15.274-19.19,44.779-27.56,55.411a2.378,2.378,0,0,0,.517,3.428l4.921,3.4a47.45,47.45,0,0,1-20.262,17.8l1.319-4.376Z" transform="translate(-1740.66 -1787.381)" fill="url(#linear-gradient-13)"/>
            <path id="Trazado_4219" data-name="Trazado 4219" d="M1772.157,2279.332a6.083,6.083,0,0,1,4.1,2.42,2.684,2.684,0,0,1-.364,3.236c-3.622,3.925-15.619,16.66-21.693,19.925a.748.748,0,0,1-1.094-.674c.022-1.572.476-4.8,3.028-9.909l-.182.692a.919.919,0,0,0,1.491.929c3.824-3.339,11.537-10.51,14.708-16.621Z" transform="translate(-1734.445 -2094.539)" fill="url(#linear-gradient-14)"/>
            <path id="Trazado_4220" data-name="Trazado 4220" d="M1974.224,1863.638s10.9,16.2,11.79,23.6-3.014,9.948-14.416,10.892c-33.937,2.806-50.666-7.365-50.666-7.365-2.322-14.8-3.974-18.567-23.362-26.614,0,0,24.523,1.946,29.459.033s47.2-.541,47.2-.541Z" transform="translate(-1849.407 -1763.35)" fill="url(#linear-gradient-15)"/>
            <g id="Grupo_2268" data-name="Grupo 2268" transform="translate(70.834)">
              <path id="Trazado_4221" data-name="Trazado 4221" d="M2037.722,1437.73s11.161-13.2,23.027,3c2.148,2.934,10.4.515,13.428,6.655a7.8,7.8,0,0,0,8.413,4.331c8.658-1.6,22.81-1.731,29.8,11.837,5.333,10.357,1.215,16.417-4.117,19.872a8.738,8.738,0,0,0-2.944,11.71c2.271,3.857,2.7,9.078-3.167,15.363-13.142,14.085-39.156-8.937-39.156-8.937l-20.656-48.808-4.627-15.02Z" transform="translate(-2031.774 -1420.75)" fill="url(#linear-gradient-16)"/>
              <path id="Trazado_4222" data-name="Trazado 4222" d="M2040.927,1626.042s-12.688-12.082-18.933-20.084a16.977,16.977,0,0,1-2.875-15.28c2.85-9.607,7.919-19.555,8.38-21.105.708-2.373,14.935-2.275,14.935-2.275s27.995,18.169,38.994,48.945l-12.354,3.845s-7.31-12.264-14.532-20.06c0,0,12.5,16.509,12.938,23.268l-26.553,2.744Z" transform="translate(-2016.409 -1527.897)" fill="url(#linear-gradient-17)"/>
              <path id="Trazado_4223" data-name="Trazado 4223" d="M2010.27,1821.575l9.534-10.373,11.01,2.965s12.835,1.989,20.182,0l7.347-1.989,16.6-5.168,2.608,7.369a4.439,4.439,0,0,1-1.622,5.1,29.278,29.278,0,0,1-4.192,2.612c-2.187.956-50.364.3-50.364.3l-11.1-.815Z" transform="translate(-2009.929 -1718.663)" fill="url(#linear-gradient-18)"/>
              <path id="Trazado_4224" data-name="Trazado 4224" d="M2055.471,1478.168l9.562,17.781c-.631,3.882-10.408,3.99-11.917,1.672a2.33,2.33,0,0,1-.3-.784l-5.719-11.88c-.245-1.158,2.93-5.062,3.976-5.617l3.8-2.024C2056.337,1476.538,2050.23,1476.477,2055.471,1478.168Z" transform="translate(-2039.226 -1455.873)" fill="url(#linear-gradient-19)"/>
              <g id="Grupo_2267" data-name="Grupo 2267">
                <path id="Trazado_4225" data-name="Trazado 4225" d="M2015.481,1412.065s-4.839,3.72-6.481,12.547,2.068,11.735,5.668,11.325,8.768-1.842,12.927-8.356S2021.84,1407.493,2015.481,1412.065Z" transform="translate(-2008.6 -1403.629)" fill="url(#linear-gradient-20)"/>
                <path id="Trazado_4226" data-name="Trazado 4226" d="M2025.5,1395.066s1.095-12.574-9.135-10.042l-1.96,2.305s-5.409-5.4-.065-10.046,13.187-4.017,17.965,3.573,6.671,13.009,3.361,18.1-6.277,1.076-6.277,1.076,1.4-4.321-.084-6.05-3.079,1.244-3.079,1.244Z" transform="translate(-2011.291 -1374.344)" fill="url(#linear-gradient-21)"/>
                <path id="Trazado_4227" data-name="Trazado 4227" d="M2085.43,1460.778s.525-6.467,3.91-4.831-.819,6.06-2.52,7.582Z" transform="translate(-2069.742 -1439.073)" fill="url(#linear-gradient-22)"/>
              </g>
            </g>
            <g id="Grupo_2269" data-name="Grupo 2269" transform="translate(16.441 67.203)">
              <path id="Trazado_4228" data-name="Trazado 4228" d="M1985.891,1882.968l-.1,0-43.85-.047a1.962,1.962,0,0,1,0-3.925l43.85.047a1.963,1.963,0,0,1,.1,3.923Z" transform="translate(-1899.599 -1843.155)" fill="url(#linear-gradient-23)"/>
              <path id="Trazado_4229" data-name="Trazado 4229" d="M1745.138,1703.46h36.52a6.96,6.96,0,0,1,6.3,3.992l16.883,35.8h-45.384a4.232,4.232,0,0,1-3.935-2.675l-13.093-33.126a2.916,2.916,0,0,1,2.712-3.988Z" transform="translate(-1742.218 -1703.46)" fill="url(#linear-gradient-24)"/>
              <path id="Trazado_4230" data-name="Trazado 4230" d="M1859.8,1779.092c.792,2.458.206,4.847-1.3,5.333s-3.379-1.111-4.172-3.571-.206-4.847,1.307-5.333,3.379,1.111,4.172,3.569Z" transform="translate(-1831.152 -1760.737)" fill="url(#linear-gradient-25)"/>
            </g>
          </g>
          <g id="Grupo_2275" data-name="Grupo 2275" transform="translate(8.934 25.871)">
            <g id="Grupo_2271" data-name="Grupo 2271" transform="translate(53.205)">
              <path id="Trazado_4231" data-name="Trazado 4231" d="M337.7,143.565c.01-.3.02-.568.027-.8a2.238,2.238,0,0,0-.741-1.742,62.315,62.315,0,0,0-29.05-14.289,1.907,1.907,0,0,0-1.944.813,40.467,40.467,0,0,1,5.293,1.086A64.481,64.481,0,0,1,337.7,143.565Z" transform="translate(-305.649 -126.699)" fill="#7d97f4"/>
              <path id="Trazado_4232" data-name="Trazado 4232" d="M309.954,131.926a40.466,40.466,0,0,0-5.293-1.086,1.93,1.93,0,0,0-.049,2.124,13.109,13.109,0,0,0,.929,1.313c2.4,3,21.771,22.88,21.771,22.88s6.15.751,8.031-.339c.608-.353.913-6.738,1.027-9.958a64.481,64.481,0,0,0-26.414-14.935Z" transform="translate(-304.318 -129.994)" fill="url(#linear-gradient-26)"/>
            </g>
            <path id="Trazado_4233" data-name="Trazado 4233" d="M417.243,253.472V241.632a2.314,2.314,0,0,0-1.591-2.209,9.075,9.075,0,0,0-5.783-.143,3.34,3.34,0,0,0-2.117,2.877l-.882,11.057,10.375.257Z" transform="translate(-332.724 -215.959)" fill="url(#linear-gradient-27)"/>
            <g id="Grupo_2272" data-name="Grupo 2272" transform="translate(0 25.322)">
              <path id="Trazado_4234" data-name="Trazado 4234" d="M87.578,254.6a2.389,2.389,0,0,0-.766-1.148c-2.485.49-7.661,1.86-18.265,5.6-12.292,4.341-15.89,8.131-16.928,10.159,5.268,1.542,17.238,3.9,34.41.543l3.394-1.591S89.187,259.89,87.578,254.6Z" transform="translate(-50.014 -252.891)" fill="url(#linear-gradient-26)"/>
              <path id="Trazado_4235" data-name="Trazado 4235" d="M62.287,256.873c10.6-3.745,15.78-5.113,18.265-5.6a2.4,2.4,0,0,0-2.028-.508c-6.105,1.27-24.552,5.613-34.192,13.428a1.548,1.548,0,0,0,.5,2.685c.167.051.343.1.525.157C46.4,265,50,261.214,62.289,256.873Z" transform="translate(-43.753 -250.711)" fill="#7d97f4"/>
            </g>
            <path id="Trazado_4236" data-name="Trazado 4236" d="M209.67,323.021l-7.226-8.658a2.677,2.677,0,0,0-2.891-.833,9.881,9.881,0,0,0-4.18,2.781,2.452,2.452,0,0,0-.359,2.781l5.256,10.185,9.4-6.254Z" transform="translate(-163.907 -275.274)" fill="url(#linear-gradient-29)"/>
            <path id="Trazado_4237" data-name="Trazado 4237" d="M398.173,287.3s8.817-1.693,13.709,0c0,0,6.448,38.7,5.34,51.142l-19.049,3.871S397.632,298.71,398.173,287.3Z" transform="translate(-325.612 -253.906)" fill="url(#linear-gradient-30)"/>
            <path id="Trazado_4238" data-name="Trazado 4238" d="M328.135,408.369s-62.293,3.5-87.576,1.754a7,7,0,0,1-5.783-3.857c-5.419-10.849-21.671-43.4-23.1-46.509,0,0,6.6-5.515,11.474-6.277,0,0,23.072,25.667,24.037,38.762,0,0,53.429-15.367,58.707-15.22s21.461,7.367,21.461,7.367Z" transform="translate(-177.391 -307.173)" fill="url(#linear-gradient-31)"/>
            <path id="Trazado_4239" data-name="Trazado 4239" d="M1184.333,295.282s-2.287-4.752-.3-7.259,9.129-10.269,9.129-10.269l.831-5.364,2.936,8.737-6.3,13.181s-3.69,3.992-6.291.974Z" transform="translate(-950.55 -242.641)" fill="url(#linear-gradient-32)"/>
            <path id="Trazado_4240" data-name="Trazado 4240" d="M1204.667,402.8a99.635,99.635,0,0,0-9.715-23.08l-6.291.974,3.1,21.808c2.375.719,8.852,2.356,12.9.3Z" transform="translate(-954.879 -328.055)" fill="url(#linear-gradient-33)"/>
            <path id="Trazado_4241" data-name="Trazado 4241" d="M855.443,376.344a128.872,128.872,0,0,0-4.074-21.234c-4.049,2.058-10.526.421-12.9-.3l.892,6.263-2.385-8.433a48.941,48.941,0,0,0-17.569-25.718l-5.919-4.48c-5.817-4.4-15.118-2.881-21.054,1.36-13.176,9.417-32.738,25.207-39.415,30.639a4.914,4.914,0,0,1-5.095.68l-1.115-.494a1.492,1.492,0,0,0-2.087,1.529l2.834,25.922,45.267-.523c5.427,0,21.15-.559,23.654-5.376l4.186-10.275c9.809,8.343,22.392,14.073,29.132,15.743a4.724,4.724,0,0,0,5.65-5.309Z" transform="translate(-601.582 -280.366)" fill="#7d97f4"/>
            <path id="Trazado_4242" data-name="Trazado 4242" d="M1074.123,264.67l-13.916,13.517a2.478,2.478,0,0,0-.184,3.363c4.292,5.115,7.976,7.8,11.039,8a3.585,3.585,0,0,0,3.226-1.7l7.4-11.663-7.563-11.516Z" transform="translate(-852.054 -236.497)" fill="url(#linear-gradient-34)"/>
            <path id="Trazado_4243" data-name="Trazado 4243" d="M1268.85,572.73l11.972-4.66,13.918,11.071-24.922.092Z" transform="translate(-1018.695 -477.946)" fill="url(#linear-gradient-35)"/>
            <g id="Grupo_2273" data-name="Grupo 2273" transform="translate(212.331 5)">
              <path id="Trazado_4244" data-name="Trazado 4244" d="M1146.1,215.045s-1.9,13.352-7.028,17.458-15.122,1.015-18.5-9.052l6.726-17.211Z" transform="translate(-1113.024 -194.999)" fill="url(#linear-gradient-36)"/>
              <path id="Trazado_4245" data-name="Trazado 4245" d="M1097.126,173.567a.661.661,0,0,0,.86-.529,17.284,17.284,0,0,1,1.582-5.333s-.49-1.752,4.427.894,12.3,6.534,16.65,4.219c4.239-2.256,8.533-13.616-2.671-11.512a.66.66,0,0,1-.786-.692c.137-1.866-.047-6.163-4.4-7.541-4.07-1.29-6.3.547-7.216,1.656a.657.657,0,0,1-1.029-.016c-1.219-1.593-4.531-4.98-9.405-2.832-4.014,1.768-4.639,4.243-4.574,5.783a.66.66,0,0,1-.939.629c-1.229-.566-3.208-.86-5.1,1.513-2.62,3.281,1.123,6.128,2.246,6.873a.664.664,0,0,1,.3.545c.01,1.707.276,9.152,4.008,13.35a.667.667,0,0,0,1.109-.192l2.873-6.844a.666.666,0,0,1,.817-.376l1.248.4Z" transform="translate(-1083.613 -151.187)" fill="url(#linear-gradient-37)"/>
              <path id="Trazado_4246" data-name="Trazado 4246" d="M1129.094,246.989s-1.754-7.145-4.419-4.825.694,7.426,3.747,8.4Z" transform="translate(-1115.52 -223.219)" fill="url(#linear-gradient-38)"/>
            </g>
            <path id="Trazado_4247" data-name="Trazado 4247" d="M963.688,349.417s.537-16.531-6.254-16.862c-8.433-.412-21.987,5.7-13.918,29.926,4.458,13.385,11.175,23.317,29.62,27.525a27.317,27.317,0,0,1,6.244-14.175C971.866,370.537,965.5,362.286,963.688,349.417Z" transform="translate(-757.824 -290.506)" fill="#91b3fa"/>
            <path id="Trazado_4248" data-name="Trazado 4248" d="M1010.658,373.291a.659.659,0,0,1-.38-.12c-8.654-6.1-13.458-14.438-15.12-26.247a.53.53,0,0,1-.006-.114c.143-4.419-.592-15.935-5.625-16.182a16.461,16.461,0,0,0-7.19,1.295.662.662,0,0,1-.527-1.215,17.826,17.826,0,0,1,7.78-1.4c7.214.353,6.92,16.213,6.885,17.487,1.615,11.394,6.244,19.433,14.565,25.3a.661.661,0,0,1-.382,1.2Z" transform="translate(-789.95 -287.92)" fill="#bdd0fb"/>
            <path id="Trazado_4249" data-name="Trazado 4249" d="M967.3,476.841a.669.669,0,0,1-.216-.037c-15.3-5.28-20.654-15.751-24.16-26.279A54.5,54.5,0,0,1,941.1,443.7a.66.66,0,1,1,1.3-.251,53.245,53.245,0,0,0,1.779,6.661c3.4,10.208,8.58,20.354,23.339,25.448a.66.66,0,0,1-.216,1.284Z" transform="translate(-757.861 -378.343)" fill="#bdd0fb"/>
            <path id="Trazado_4250" data-name="Trazado 4250" d="M1136.443,560.432l-.029-6.412s-17.971.4-31.96-9.46a27.3,27.3,0,0,0-6.244,14.175C1107.544,560.865,1119.875,561.528,1136.443,560.432Z" transform="translate(-882.898 -459.236)" fill="url(#linear-gradient-39)"/>
            <g id="Grupo_2274" data-name="Grupo 2274" transform="translate(228.076 51.534)">
              <path id="Trazado_4251" data-name="Trazado 4251" d="M1163.15,613.067c.043,0,.088,0,.131,0l57.161-.063a2.559,2.559,0,0,0,0-5.117l-57.161.063a2.558,2.558,0,0,0-.127,5.113Z" transform="translate(-1160.72 -561.167)" fill="url(#linear-gradient-40)"/>
              <path id="Trazado_4252" data-name="Trazado 4252" d="M1401.57,379.08h-47.605a9.072,9.072,0,0,0-8.206,5.2l-22.008,46.666h59.158a5.512,5.512,0,0,0,5.127-3.488l17.066-43.183a3.8,3.8,0,0,0-3.535-5.2Z" transform="translate(-1290.461 -379.08)" fill="url(#linear-gradient-41)"/>
              <path id="Trazado_4253" data-name="Trazado 4253" d="M1538.818,477.68c-1.031,3.206-.27,6.318,1.7,6.953s4.406-1.45,5.438-4.654.27-6.318-1.7-6.953S1539.849,474.476,1538.818,477.68Z" transform="translate(-1461.248 -453.752)" fill="#91b3fa"/>
            </g>
          </g>
          <g id="Grupo_2276" data-name="Grupo 2276" transform="translate(131.059 212.266)">
            <path id="Trazado_4254" data-name="Trazado 4254" d="M761.609,1039.54,641.84,1076.047l119.769,36.508,119.771-36.508Z" transform="translate(-641.84 -1039.54)" fill="url(#linear-gradient-42)"/>
            <path id="Trazado_4255" data-name="Trazado 4255" d="M934.609,1339.446,859.23,1316.47v52.487a18.246,18.246,0,0,0,14.453,17.853c40.481,8.582,79.406,8.85,116.677.282a18.209,18.209,0,0,0,14.077-17.767v-51.162l-69.826,21.283Z" transform="translate(-814.841 -1259.923)" fill="url(#linear-gradient-42)"/>
            <path id="Trazado_4256" data-name="Trazado 4256" d="M703.327,1344.557q-9.823,4.365-17.181.184a3.843,3.843,0,0,1-1.821-4.108l10.661-53,10.579,52.6A3.894,3.894,0,0,1,703.327,1344.557Z" transform="translate(-675.588 -1236.972)" fill="url(#linear-gradient-44)"/>
            <path id="Trazado_4257" data-name="Trazado 4257" d="M831.162,1191.84,729.24,1202.67v17.681h3.02l.31-15.494Z" transform="translate(-711.394 -1160.741)" fill="url(#linear-gradient-42)"/>
          </g>
          <g id="Grupo_2285" data-name="Grupo 2285" transform="translate(65.633 369.514)">
            <g id="Grupo_2280" data-name="Grupo 2280" transform="translate(0 3.553)">
              <g id="Grupo_2277" data-name="Grupo 2277" transform="translate(16.501 55.768)" opacity="0.3">
                <path id="Trazado_4258" data-name="Trazado 4258" d="M522.9,2100.167a1.364,1.364,0,0,1,1.152,1.417c-.078,1.542-.223,3.1-.433,4.637a1.368,1.368,0,0,1-1.538,1.17.125.125,0,0,1-.027,0,1.366,1.366,0,0,1-1.143-1.533c.2-1.46.337-2.943.41-4.4a1.367,1.367,0,0,1,1.433-1.3c.049,0,.1.008.143.014Zm-1.917,11.741a1.43,1.43,0,0,1,.159.035,1.363,1.363,0,0,1,.947,1.683c-.417,1.492-.9,2.981-1.44,4.425a1.365,1.365,0,0,1-2.559-.954c.513-1.372.972-2.787,1.368-4.206a1.366,1.366,0,0,1,1.523-.982Zm-4.455,11.028a1.366,1.366,0,0,1,.99,2c-.737,1.36-1.542,2.7-2.393,4a1.366,1.366,0,0,1-2.281-1.5c.809-1.227,1.572-2.5,2.273-3.794a1.361,1.361,0,0,1,1.411-.7Zm-6.81,9.756a1.366,1.366,0,0,1,.815,2.252c-1.023,1.16-2.107,2.291-3.226,3.361a1.366,1.366,0,1,1-1.889-1.974c1.062-1.015,2.093-2.089,3.063-3.191a1.363,1.363,0,0,1,1.235-.447Zm-8.815,7.992a1.367,1.367,0,0,1,.588,2.458c-1.252.9-2.561,1.764-3.888,2.561a1.366,1.366,0,1,1-1.4-2.342c1.262-.757,2.505-1.576,3.7-2.434a1.355,1.355,0,0,1,1.009-.241Zm-10.363,5.844a1.365,1.365,0,0,1,.325,2.605c-1.423.6-2.889,1.156-4.357,1.638a1.366,1.366,0,0,1-.852-2.6c1.4-.458,2.789-.982,4.141-1.556A1.345,1.345,0,0,1,490.544,2146.529Zm-49.947-4.488a1.362,1.362,0,0,1,.539.208c1.227.8,2.505,1.568,3.8,2.267a1.365,1.365,0,1,1-1.3,2.4c-1.364-.735-2.71-1.538-4-2.387a1.366,1.366,0,0,1,.96-2.491Zm38.553,7.886a1.367,1.367,0,0,1,.031,2.7c-1.521.274-3.073.484-4.613.625a1.366,1.366,0,1,1-.249-2.72c1.462-.135,2.936-.333,4.38-.592a1.4,1.4,0,0,1,.451-.006Zm-27.938-2.52a1.363,1.363,0,0,1,.265.07c1.376.51,2.793.968,4.21,1.362a1.365,1.365,0,1,1-.729,2.632c-1.491-.415-2.983-.895-4.431-1.431a1.365,1.365,0,0,1,.682-2.63Zm16.07,3.29a1.366,1.366,0,0,1-.278,2.714c-1.542-.074-3.1-.216-4.637-.423a.144.144,0,0,1-.029,0,1.366,1.366,0,0,1,.392-2.7c1.458.2,2.938.331,4.4.4.049,0,.1.008.145.014Z" transform="translate(-431.51 -2100.151)" fill="#91b3fa"/>
                <path id="Trazado_4259" data-name="Trazado 4259" d="M403.819,2276.015a1.347,1.347,0,0,1,.731.361c.508.486,1.037.97,1.568,1.438a1.366,1.366,0,1,1-1.805,2.05c-.56-.492-1.115-1-1.65-1.513a1.365,1.365,0,0,1,1.154-2.336Z" transform="translate(-402.241 -2240.092)" fill="#91b3fa"/>
              </g>
              <g id="Grupo_2278" data-name="Grupo 2278" opacity="0.3">
                <path id="Trazado_4260" data-name="Trazado 4260" d="M323.008,2088.816a1.366,1.366,0,0,1,1.154,1.344c0,.7.02,1.419.053,2.128a1.366,1.366,0,0,1-2.73.125c-.035-.745-.053-1.5-.055-2.24a1.367,1.367,0,0,1,1.36-1.372,1.544,1.544,0,0,1,.219.016Z" transform="translate(-321.43 -2035.35)" fill="#91b3fa"/>
                <path id="Trazado_4261" data-name="Trazado 4261" d="M386.149,1827.665c.621.1,1.244.2,1.864.323a1.366,1.366,0,1,1-.51,2.683c-1.435-.274-2.879-.488-4.308-.639a1.365,1.365,0,1,1,.288-2.716C384.366,1827.41,385.263,1827.526,386.149,1827.665Zm8.839,2.152a1.53,1.53,0,0,1,.227.055c1.444.484,2.885,1.035,4.28,1.64a1.366,1.366,0,0,1-1.082,2.508c-1.325-.572-2.693-1.1-4.065-1.556a1.366,1.366,0,0,1,.643-2.644Zm-18.688-2.761a1.365,1.365,0,0,1-.167,2.714c-1.442.045-2.9.153-4.339.321a1.366,1.366,0,0,1-.316-2.714c1.513-.178,3.051-.29,4.57-.339a1.328,1.328,0,0,1,.255.016Zm29.312,7.686a1.387,1.387,0,0,1,.5.182c1.3.79,2.585,1.644,3.814,2.54a1.365,1.365,0,1,1-1.607,2.207c-1.168-.851-2.387-1.662-3.622-2.411a1.366,1.366,0,0,1,.919-2.518Zm-40.894-6.024a1.365,1.365,0,0,1,.133,2.671c-1.4.361-2.8.788-4.161,1.268a1.366,1.366,0,1,1-.9-2.577c1.438-.5,2.912-.954,4.382-1.335a1.37,1.37,0,0,1,.551-.029Zm-10.936,4.163a1.366,1.366,0,0,1,.414,2.565c-1.286.66-2.561,1.382-3.788,2.146a1.365,1.365,0,1,1-1.444-2.318c1.29-.8,2.632-1.564,3.986-2.258a1.359,1.359,0,0,1,.833-.135Zm-9.769,6.448a1.365,1.365,0,0,1,.662,2.4c-1.113.925-2.2,1.907-3.23,2.92a1.366,1.366,0,0,1-1.915-1.948c1.084-1.066,2.228-2.1,3.4-3.073A1.358,1.358,0,0,1,344.014,1839.33Zm-8.129,8.425a1.365,1.365,0,0,1,.87,2.183c-.884,1.146-1.729,2.342-2.512,3.555a1.366,1.366,0,1,1-2.3-1.48c.825-1.278,1.713-2.538,2.644-3.745a1.364,1.364,0,0,1,1.293-.515Zm-6.083,10.008a1.327,1.327,0,0,1,.366.112,1.366,1.366,0,0,1,.664,1.813c-.609,1.309-1.168,2.661-1.664,4.021a1.366,1.366,0,1,1-2.565-.939c.523-1.429,1.113-2.855,1.752-4.231a1.363,1.363,0,0,1,1.448-.774Zm-3.735,11.094c.029,0,.055.01.084.016a1.364,1.364,0,0,1,1.041,1.625c-.227,1.039-.425,2.1-.59,3.149q-.089.57-.165,1.139a1.364,1.364,0,0,1-1.533,1.172,1.348,1.348,0,0,1-1.172-1.533c.053-.4.11-.8.174-1.2.172-1.1.38-2.22.621-3.312a1.366,1.366,0,0,1,1.544-1.058Z" transform="translate(-323.251 -1827.037)" fill="#91b3fa"/>
                <path id="Trazado_4262" data-name="Trazado 4262" d="M764.18,1899.81a1.357,1.357,0,0,1,.737.365c.533.512,1.064,1.047,1.58,1.587a1.366,1.366,0,0,1-1.977,1.887c-.49-.513-.994-1.021-1.5-1.507a1.367,1.367,0,0,1,1.16-2.334Z" transform="translate(-672.519 -1884.936)" fill="#91b3fa"/>
              </g>
              <g id="Grupo_2279" data-name="Grupo 2279" transform="translate(13.68 14.159)">
                <path id="Trazado_4263" data-name="Trazado 4263" d="M462.151,1912.46a.634.634,0,0,0-.676-.3l-7.616,1.527a33.817,33.817,0,0,0-8.737-6.622l-.594-7.741a.64.64,0,0,0-.476-.57l-9.015-2.354a.637.637,0,0,0-.692.263l-4.3,6.463a33.865,33.865,0,0,0-10.861,1.5l-5.9-5.056a.634.634,0,0,0-.737-.065l-8.039,4.711a.634.634,0,0,0-.3.676l1.527,7.616a33.818,33.818,0,0,0-6.622,8.737l-7.741.594a.636.636,0,0,0-.568.476l-2.354,9.015a.637.637,0,0,0,.263.692l6.463,4.3a33.86,33.86,0,0,0,1.5,10.861l-5.056,5.9a.634.634,0,0,0-.065.737l4.711,8.039a.634.634,0,0,0,.676.3l7.616-1.527a33.819,33.819,0,0,0,8.737,6.622l.594,7.741a.64.64,0,0,0,.476.57l9.015,2.354a.637.637,0,0,0,.692-.263l4.3-6.463a33.862,33.862,0,0,0,10.861-1.5l5.9,5.056a.634.634,0,0,0,.737.065l8.039-4.711a.634.634,0,0,0,.3-.676l-1.527-7.616a33.815,33.815,0,0,0,6.622-8.737l7.741-.594a.636.636,0,0,0,.568-.476l2.354-9.015a.637.637,0,0,0-.263-.692l-6.463-4.3a33.86,33.86,0,0,0-1.5-10.861l5.056-5.9a.634.634,0,0,0,.065-.737l-4.711-8.039Z" transform="translate(-388.427 -1896.377)" fill="url(#linear-gradient-46)"/>
                <path id="Trazado_4264" data-name="Trazado 4264" d="M553.081,2050.359a9.377,9.377,0,1,1-1.37-.11,9.155,9.155,0,0,1,1.37.112Zm-2.567,16.35a7.032,7.032,0,0,0,1.062.086,7.174,7.174,0,1,0-1.062-.088Z" transform="translate(-510.855 -2018.829)" fill="#bdd0fb"/>
                <path id="Trazado_4265" data-name="Trazado 4265" d="M501.035,1984.118q1.161.181,2.318.482h0q.364.1.723.2a23.309,23.309,0,0,1,3.443,1.323c.014.008.031.014.045.022.043.02.086.041.129.063l.247.122a.547.547,0,0,1-.492.976,21.958,21.958,0,0,0-31.6,16.245,21.939,21.939,0,0,0,42.911,8.874,22.242,22.242,0,0,0,.453-2.183,21.862,21.862,0,0,0-.615-9.5.552.552,0,0,1-.016-.237.546.546,0,0,1,1.064-.07,23.034,23.034,0,1,1-44.881,2.949,23.631,23.631,0,0,1,.482-2.32,23.037,23.037,0,0,1,25.787-16.946Z" transform="translate(-456.917 -1965.985)" fill="#bdd0fb"/>
              </g>
            </g>
            <g id="Grupo_2284" data-name="Grupo 2284" transform="translate(94.24)">
              <g id="Grupo_2281" data-name="Grupo 2281" transform="translate(17.421 30.935)" opacity="0.3">
                <path id="Trazado_4266" data-name="Trazado 4266" d="M1098.667,1961.151a.843.843,0,0,1,.707.723c.094.711.167,1.432.218,2.148a.843.843,0,0,1-1.682.118c-.049-.682-.118-1.37-.208-2.048a.845.845,0,0,1,.727-.948.86.86,0,0,1,.241,0Z" transform="translate(-1050.848 -1961.138)" fill="#91b3fa"/>
                <path id="Trazado_4267" data-name="Trazado 4267" d="M916.349,1992.906a.84.84,0,0,1,.711.878,36.7,36.7,0,0,1-.384,3.692c-.041.257-.084.513-.129.77a.873.873,0,0,1-.978.684.845.845,0,0,1-.684-.978c.043-.245.086-.492.122-.737a34.495,34.495,0,0,0,.366-3.52.843.843,0,0,1,.886-.8.6.6,0,0,1,.086.01Zm-1.529,8.623a.808.808,0,0,1,.118.026.844.844,0,0,1,.56,1.054,36.373,36.373,0,0,1-1.576,4.2.844.844,0,1,1-1.542-.688,34.782,34.782,0,0,0,1.5-4.01.843.843,0,0,1,.935-.586Zm-3.575,7.994a.819.819,0,0,1,.306.112.843.843,0,0,1,.284,1.158,36.352,36.352,0,0,1-2.563,3.69.843.843,0,0,1-1.323-1.046,34.759,34.759,0,0,0,2.444-3.518A.847.847,0,0,1,911.245,2009.523Zm-5.432,6.871a.843.843,0,0,1,.461,1.433,36.569,36.569,0,0,1-3.388,2.951.843.843,0,1,1-1.027-1.337,35.167,35.167,0,0,0,3.23-2.812.843.843,0,0,1,.723-.233Zm-6.945,5.335a.845.845,0,0,1,.3,1.562,36.819,36.819,0,0,1-4,2.038.843.843,0,1,1-.674-1.546,35.471,35.471,0,0,0,3.816-1.944.848.848,0,0,1,.557-.106Zm-8.029,3.488a.843.843,0,0,1,.11,1.642,36.166,36.166,0,0,1-4.374,1,.843.843,0,1,1-.274-1.664,34.856,34.856,0,0,0,4.172-.954.838.838,0,0,1,.368-.024Zm-8.635,1.419a.844.844,0,0,1-.1,1.676,36.583,36.583,0,0,1-4.488-.1.844.844,0,1,1,.143-1.682,34.489,34.489,0,0,0,4.282.1.728.728,0,0,1,.163.01Zm-12.956-1.909a.772.772,0,0,1,.145.037,35.074,35.074,0,0,0,3.584,1.017c.184.043.365.082.545.12a.846.846,0,0,1,.653,1,.836.836,0,0,1-1,.654c-.192-.041-.386-.082-.578-.127a36.7,36.7,0,0,1-3.753-1.066.843.843,0,0,1,.4-1.631Z" transform="translate(-868.276 -1986.41)" fill="#91b3fa"/>
              </g>
              <g id="Grupo_2282" data-name="Grupo 2282" opacity="0.3">
                <path id="Trazado_4268" data-name="Trazado 4268" d="M817.893,1810a.844.844,0,0,1-.249,1.67,34.887,34.887,0,0,0-4.2-.341.843.843,0,0,1,.033-1.687,36.941,36.941,0,0,1,4.4.357h.012Zm4.227.864a.71.71,0,0,1,.09.018,37.179,37.179,0,0,1,4.19,1.395.844.844,0,0,1-.629,1.566,35.275,35.275,0,0,0-4-1.331.844.844,0,0,1,.347-1.65Zm-12.838-1.037a.843.843,0,0,1-.045,1.672,35.121,35.121,0,0,0-4.157.684.844.844,0,0,1-.374-1.646,36.841,36.841,0,0,1,4.357-.717.762.762,0,0,1,.216.006Zm20.834,4.251a.9.9,0,0,1,.278.094,36.523,36.523,0,0,1,3.731,2.367.844.844,0,1,1-.99,1.366,34.478,34.478,0,0,0-3.557-2.256.844.844,0,0,1,.537-1.572Zm-29.23-2.34a.843.843,0,0,1,.155,1.627,34.6,34.6,0,0,0-3.869,1.664.844.844,0,0,1-.76-1.507,36.638,36.638,0,0,1,4.057-1.744.826.826,0,0,1,.414-.039Zm-7.692,3.871a.843.843,0,0,1,.339,1.536,35.526,35.526,0,0,0-3.361,2.54.843.843,0,0,1-1.1-1.28,36.744,36.744,0,0,1,3.522-2.665A.827.827,0,0,1,793.194,1815.606Zm-6.544,5.6a.821.821,0,0,1,.439.212.843.843,0,0,1,.051,1.192,34.476,34.476,0,0,0-2.652,3.273.843.843,0,0,1-1.372-.98,36.676,36.676,0,0,1,2.781-3.432.847.847,0,0,1,.753-.263Z" transform="translate(-782.957 -1809.64)" fill="#91b3fa"/>
                <path id="Trazado_4269" data-name="Trazado 4269" d="M1044.448,1856.192a.819.819,0,0,1,.443.216c.529.492,1.046,1,1.536,1.515a.843.843,0,0,1-1.219,1.166c-.468-.49-.96-.976-1.464-1.446a.844.844,0,0,1,.7-1.452Z" transform="translate(-990.279 -1846.679)" fill="#91b3fa"/>
              </g>
              <g id="Grupo_2283" data-name="Grupo 2283" transform="translate(2.459 9.411)">
                <path id="Trazado_4270" data-name="Trazado 4270" d="M844.341,1866.491a.426.426,0,0,0-.453-.2l-5.1,1.023a22.6,22.6,0,0,0-5.848-4.431l-.4-5.18a.424.424,0,0,0-.319-.38l-6.034-1.576a.427.427,0,0,0-.464.176l-2.879,4.325a22.659,22.659,0,0,0-7.267,1.007l-3.947-3.384a.429.429,0,0,0-.494-.045l-5.38,3.153a.426.426,0,0,0-.2.453l1.023,5.1a22.6,22.6,0,0,0-4.431,5.848l-5.18.4a.424.424,0,0,0-.38.318l-1.576,6.034a.426.426,0,0,0,.176.464l4.325,2.879a22.66,22.66,0,0,0,1.007,7.267l-3.383,3.947a.428.428,0,0,0-.045.494l3.153,5.38a.426.426,0,0,0,.453.2l5.1-1.023a22.6,22.6,0,0,0,5.848,4.431l.4,5.18a.424.424,0,0,0,.319.38l6.034,1.576a.427.427,0,0,0,.464-.176l2.879-4.325A22.659,22.659,0,0,0,829,1904.8l3.947,3.383a.428.428,0,0,0,.494.045l5.38-3.153a.425.425,0,0,0,.2-.453l-1.023-5.1a22.6,22.6,0,0,0,4.431-5.848l5.18-.4a.425.425,0,0,0,.38-.319l1.576-6.034a.427.427,0,0,0-.176-.464l-4.325-2.879a22.659,22.659,0,0,0-1.007-7.267l3.383-3.947a.428.428,0,0,0,.045-.494l-3.153-5.38Z" transform="translate(-795 -1855.73)" fill="url(#linear-gradient-47)"/>
                <path id="Trazado_4271" data-name="Trazado 4271" d="M904.795,1958.215a6.416,6.416,0,1,1-.943-.075,6.338,6.338,0,0,1,.943.075Zm-1.719,10.941a4.7,4.7,0,0,0,5.417-4.6,4.7,4.7,0,0,0-4.656-4.731h0a4.694,4.694,0,0,0-.764,9.332Z" transform="translate(-876.506 -1937.228)" fill="#bdd0fb"/>
                <path id="Trazado_4272" data-name="Trazado 4272" d="M868.627,1912.116a16.044,16.044,0,0,1,4.617,1.458l.131.065a.843.843,0,0,1,.453.882.881.881,0,0,1-.082.251.844.844,0,0,1-1.133.372,14.319,14.319,0,0,0-2.828-1.068h0c-.053-.014-.108-.029-.161-.041a14.068,14.068,0,0,0-6.955.018,14.233,14.233,0,0,0-3.541,1.446l-.027.016-.084.049a14.112,14.112,0,0,0-6.563,8.666,14.61,14.61,0,0,0-.3,1.431,14.2,14.2,0,1,0,27.676-1.819.828.828,0,0,1-.024-.365.844.844,0,0,1,1.644-.106,15.88,15.88,0,0,1,.447,6.883,15.891,15.891,0,0,1-31.409-4.85,16.27,16.27,0,0,1,.333-1.6,15.913,15.913,0,0,1,17.808-11.688Z" transform="translate(-839.009 -1900.453)" fill="#bdd0fb"/>
              </g>
            </g>
          </g>
          <g id="Grupo_2286" data-name="Grupo 2286" transform="translate(326.704 202.6)">
            <path id="Trazado_4273" data-name="Trazado 4273" d="M1722.96,1258.721l-5.017-.284-6.563-23.633,21.987-.084Z" transform="translate(-1688.634 -1185.199)" fill="url(#linear-gradient-48)"/>
            <path id="Trazado_4274" data-name="Trazado 4274" d="M1657.5,1019.992c-.137,1.954-2.309,40.271,16.787,47.6s29.72-24.591,30.337-47.72l-47.121.123h0Z" transform="translate(-1645.647 -1014.22)" fill="url(#linear-gradient-49)"/>
            <rect id="Rectángulo_976" data-name="Rectángulo 976" width="3.784" height="31.143" transform="translate(15.894 79.805) rotate(-86.75)" fill="url(#linear-gradient-50)"/>
            <path id="Trazado_4275" data-name="Trazado 4275" d="M1709.8,1351.522l-31.09-1.764,8.106-3.777,15.351.876Z" transform="translate(-1662.634 -1273.741)" fill="url(#linear-gradient-51)"/>
            <path id="Trazado_4276" data-name="Trazado 4276" d="M1635.127,992.414a3.128,3.128,0,0,0-3.263,2.634L1631.7,998a2.728,2.728,0,0,0,2.963,2.63l53.468.157a3.1,3.1,0,0,0,3.263-2.612l.192-3.365a2.707,2.707,0,0,0-2.963-2.608l-53.492.219h0Z" transform="translate(-1625.218 -992.2)" fill="url(#linear-gradient-52)"/>
            <path id="Trazado_4277" data-name="Trazado 4277" d="M1797.663,1177.688a2.373,2.373,0,0,1-2.354-1.989,2.206,2.206,0,0,1,2.307-2.185c.257-.01,18.257-.884,20.507-10.581.38-1.634.472-3.794-1.256-4.792a6.261,6.261,0,0,0-5.609.231,2.848,2.848,0,0,0-1.77,3.163,2.1,2.1,0,0,1-1.976,2.412,2.537,2.537,0,0,1-2.9-1.715c-.655-2.948.807-5.709,3.912-7.392a11.94,11.94,0,0,1,11.106-.127c1.8,1.047,4.637,3.622,3.361,9.1-1.258,5.423-6.081,9.544-13.936,11.931a49.551,49.551,0,0,1-11.11,1.946,2.232,2.232,0,0,1-.286,0l0,0Z" transform="translate(-1755.42 -1120.487)" fill="url(#linear-gradient-53)"/>
            <path id="Trazado_4278" data-name="Trazado 4278" d="M1623.668,1165.479a2.367,2.367,0,0,0,2.565-1.707,2.2,2.2,0,0,0-2.046-2.432c-.259-.039-18.036-2.944-19.18-12.831-.194-1.666-.035-3.823,1.786-4.619a6.25,6.25,0,0,1,5.55.868,2.858,2.858,0,0,1,1.407,3.343,2.1,2.1,0,0,0,1.693,2.618,2.534,2.534,0,0,0,3.071-1.376c.988-2.857-.155-5.766-3.053-7.788a11.946,11.946,0,0,0-11.02-1.382c-1.909.835-5.013,3.071-4.374,8.664.635,5.527,4.958,10.171,12.495,13.432a49.228,49.228,0,0,0,10.818,3.189c.1.014.19.02.282.026l0,0Z" transform="translate(-1599.983 -1109.335)" fill="url(#linear-gradient-54)"/>
            <path id="Trazado_4279" data-name="Trazado 4279" d="M1834.929,1012.218a.54.54,0,0,1,.3-.988l4.776.012a.537.537,0,0,1,0,1.074l-4.776-.012a.534.534,0,0,1-.3-.092l0,0Z" transform="translate(-1786.765 -1007.344)" fill="#fff"/>
            <path id="Trazado_4280" data-name="Trazado 4280" d="M1656.059,1011.718a.54.54,0,0,1,.3-.988l28.526.084a.537.537,0,1,1,0,1.074l-28.526-.084a.535.535,0,0,1-.3-.092l0,0Z" transform="translate(-1644.418 -1006.946)" fill="#fff"/>
            <path id="Trazado_4281" data-name="Trazado 4281" d="M1692.4,1103.58c-4.568-3.03-9.669-10.914-10.628-30.731a.538.538,0,1,1,1.074-.049c.427,8.79,2.626,29.442,13.824,31.376a.538.538,0,1,1-.18,1.062,10.609,10.609,0,0,1-4.084-1.656l0,0Z" transform="translate(-1665.067 -1055.934)" fill="#fff"/>
            <path id="Trazado_4282" data-name="Trazado 4282" d="M1681.42,1046.278a.532.532,0,0,1-.241-.447c-.01-1.194.01-1.879.01-1.879a.536.536,0,1,1,1.072.026s-.018.68-.008,1.846a.536.536,0,0,1-.533.541.555.555,0,0,1-.3-.09l0,0Z" transform="translate(-1664.597 -1032.969)" fill="#fff"/>
          </g>
        </g>
      </g>
    </g>
  </g>
</svg>
