<svg version="1.2" xmlns="http://www.w3.org/2000/svg" viewBox="0 0 84 84" width="84" height="84"><style>.a{fill:#5cc4ef}</style><path fill-rule="evenodd" class="a" d="m23.6 78.6c-1.5-0.5-2.1-1.1-2-2.3 0-1 0.7-1.8 1.8-2q0.4 0 0.7 0 9.4 0 18.7 0c0.4 0 0.8 0 1.2 0.1 0.8 0.3 1.3 1.1 1.3 1.9 0.1 0.9-0.5 1.7-1.3 2.1q-0.3 0.1-0.6 0.2-9.9 0-19.8 0zm28-63.4c-0.7 0.2-1.2 0.3-1.7 0.4-1.8 0.4-2.9 1.6-3.1 3.4q-0.1 1.4 0 2.8c0.2 1.8 1.3 3 3.1 3.4 0.5 0.1 1 0.2 1.7 0.3-0.4 0.5-0.7 0.9-0.9 1.4-1.2 1.6-1 3.4 0.4 4.9q0.8 0.8 1.5 1.5c1.4 1.3 3.2 1.5 4.8 0.5 0.5-0.3 0.9-0.6 1.5-1 0.2 2.1 0.7 3.9 2.8 4.6-0.1 2.3-0.6 4.4-1.3 6.5q-3.2 9.3-11.3 14.8-4.1 2.6-4 7.5 0 0.9 0 1.9c-0.1 1-0.7 1.6-1.6 1.7-2.7 0-5.5 0-8.2 0 0-7.3 0-14.5 0-21.9 1.1 0 2.3 0 3.4 0 3-0.1 5.7-2.3 6.5-5.2 1-3.7-1-7.5-4.6-8.8q-0.4-0.1-0.7-0.2 0-1.4 0-2.7c0-1.1-0.7-1.8-1.6-1.8-1 0-1.7 0.7-1.7 1.8q0 1.9 0 3.9c0 1.3 0.5 1.8 1.8 1.9 3.1 0.3 4.7 3.3 3.3 5.8-0.7 1.3-1.9 2-3.4 2q-4.8 0.1-9.7 0c-2.2 0-3.8-1.7-3.9-3.8-0.1-2 1.4-3.7 3.6-4 1.6-0.2 2-0.6 2-2.2q0-1.8 0-3.6c0-1.1-0.7-1.8-1.6-1.8-1-0.1-1.7 0.7-1.7 1.8 0 0.8 0.2 1.8-0.1 2.4-0.3 0.6-1.3 0.8-2 1.2-2.7 1.7-4 4.9-3.2 7.9 0.8 3.1 3.4 5.3 6.6 5.4 1.2 0 2.4 0 3.6 0 0 7.3 0 14.6 0 21.8q-0.4 0.1-0.7 0.1-3.7 0-7.5 0c-1.4 0-2-0.6-2-2.1-0.1-1.1 0-2.2-0.2-3.3-0.4-2.5-1.7-4.4-3.8-5.8-4.1-2.8-7.3-6.3-9.5-10.6-8.6-16.8 1-37.1 19.5-40.9 7.8-1.6 15-0.1 21.6 4.3 0.3 0.2 0.5 0.6 0.7 1 0.3 0.5 0.5 1.1 0.7 1.6 0.2 0.4 0.5 0.8 0.9 1.2zm7.1 14.5c-0.2 0.1-0.5 0.2-0.7 0.3q-1 0.6-1.9 1.3c-0.7 0.5-1.2 0.4-1.7-0.2q-0.6-0.6-1.2-1.2c-0.6-0.5-0.6-1-0.2-1.5q0.7-0.9 1.3-1.9c0.8-1.3 0-3.3-1.6-3.6q-1.1-0.2-2.2-0.4c-0.6-0.1-0.9-0.5-0.9-1.1q0-1 0-1.9c0-0.8 0.3-1.1 1-1.2q1.1-0.2 2.2-0.4c1.5-0.3 2.3-2.4 1.5-3.6q-0.6-1-1.3-1.9c-0.4-0.5-0.3-1 0.1-1.5q0.7-0.7 1.4-1.3c0.5-0.6 1-0.6 1.5-0.2q1 0.7 1.9 1.3c1.2 0.8 3.3 0 3.6-1.4q0.2-1.2 0.4-2.3 0.1-1 1.1-1 1 0 2 0 0.9 0 1.1 0.9 0.2 1.1 0.4 2.3c0.3 1.5 2.4 2.3 3.6 1.5q1-0.6 1.9-1.3 0.8-0.6 1.5 0.1 0.7 0.7 1.3 1.4c0.5 0.5 0.5 1 0.2 1.5q-0.7 1-1.4 1.9c-0.7 1.2 0.1 3.3 1.5 3.6q1.2 0.2 2.3 0.4c0.7 0.1 1 0.5 1 1.2q0 0.9 0 1.8c0 0.7-0.3 1.1-1 1.2q-1.1 0.2-2.2 0.4c-1.5 0.3-2.3 2.3-1.5 3.6q0.6 0.9 1.3 1.9c0.4 0.5 0.3 1-0.2 1.5q-0.6 0.6-1.3 1.3-0.7 0.8-1.5 0.2-1-0.7-2-1.4c-1.2-0.7-3.2 0.1-3.5 1.5q-0.2 1.2-0.4 2.4-0.2 0.9-1.1 0.9-1 0-2 0-0.9 0-1.1-0.9-0.2-1-0.4-2c-0.2-1.3-1.3-2.2-2.8-2.2zm10.1-9.3c0-2.7-2.1-4.8-4.8-4.8-2.7 0-4.8 2.1-4.8 4.8 0 2.7 2.1 4.8 4.8 4.8 2.7 0 4.8-2.1 4.8-4.8z"/></svg>