<svg xmlns="http://www.w3.org/2000/svg" width="98.145" height="109.642" viewBox="0 0 98.145 109.642">
  <g id="icon_impacto_home" transform="translate(-6 -4)">
    <path id="Trazado_1978" data-name="Trazado 1978" d="M59.4,42a3.775,3.775,0,0,1,0,7.55H52.17a40.9,40.9,0,0,0,2.4-7.55Z" transform="translate(40.971 34.609)" fill="#ffc477"/>
    <path id="Trazado_1979" data-name="Trazado 1979" d="M17,49.55H9.775a3.775,3.775,0,1,1,0-7.55h4.832A40.9,40.9,0,0,0,17,49.55Z" transform="translate(0 34.609)" fill="#ffc477"/>
    <path id="Trazado_1980" data-name="Trazado 1980" d="M83.156,78.719l4.3,4.3A43.41,43.41,0,0,1,9,57.41a42.74,42.74,0,0,1,1.548-11.475L16.285,53.3a1.929,1.929,0,0,0,.642.528l.3.151,7.908,3.964a1.887,1.887,0,0,0,2.737-1.7V52.767a1.572,1.572,0,0,0-.057-.415v-.019a1.823,1.823,0,0,0-.793-1.151l-2.869-1.925-1.095-.717a1.912,1.912,0,0,1-.849-1.585v-3.1a1.888,1.888,0,0,1,1.51-1.85L31.4,40.48a2.008,2.008,0,0,0,.472-.17L38.8,36.856a1.74,1.74,0,0,0,.661-.566l5-6.663a1.9,1.9,0,0,1,1.038-.7l6.191-1.548a1.763,1.763,0,0,0,1.114-.774l1.755-2.623a1.929,1.929,0,0,0,.321-1.076A1.906,1.906,0,0,0,53.3,21.078l-7.512-1.265h-.038a1.808,1.808,0,0,1-1.321-.944l-.906-1.6-1.17-2.076a43.293,43.293,0,0,1,33.6,5.757l-.415.283a1.871,1.871,0,0,1-1.038.321H66.641a1.912,1.912,0,0,0-1.585.849l-2.171,3.246a1.887,1.887,0,0,0,.528,2.6l1.114.736,2.284,1.529a1.872,1.872,0,0,0,1.51.264l6.059-1.51a1.835,1.835,0,0,1,1.3.151l5.945,2.963a1.887,1.887,0,0,0,1.887-.113l2.831-1.887q.821,1.019,1.585,2.1a40.557,40.557,0,0,1,4.171,7.38L85.119,43.84a2.006,2.006,0,0,1-1.321.226l-8.38-1.68a2.059,2.059,0,0,1-.661-.283l-4.888-3.246a1.87,1.87,0,0,0-1.038-.321H62.866a1.912,1.912,0,0,0-1.585.849L58.525,43.5a1.94,1.94,0,0,0-.245,1.51l1.4,5.681a1.916,1.916,0,0,0,1.4,1.378l.4.094,5.511,1.34a1.772,1.772,0,0,0,1.038-.038l4.058-1.321a1.887,1.887,0,0,1,1.906.472l2.472,2.472a1.923,1.923,0,0,1,.491,1.265v6.1a1.942,1.942,0,0,0,.377,1.132l4.907,6.53a1.942,1.942,0,0,1,.377,1.132V77.4a1.9,1.9,0,0,0,.547,1.321Z" transform="translate(2.662 9.761)" fill="#84caff"/>
    <path id="Trazado_1981" data-name="Trazado 1981" d="M25.892,36.623V40.1a1.887,1.887,0,0,1-2.737,1.7l-8.21-4.115a1.929,1.929,0,0,1-.642-.528l-.944-1.208,7.908,3.964A1.887,1.887,0,0,0,24,38.208V34.735a1.572,1.572,0,0,0-.057-.415l1.095.717A1.912,1.912,0,0,1,25.892,36.623Z" transform="translate(6.531 27.793)" fill="#3d9ae2"/>
    <path id="Trazado_1982" data-name="Trazado 1982" d="M28.2,17.423l-.906-1.6c.226-.075.472-.132.717-.189l1.548,2.737h-.038a1.808,1.808,0,0,1-1.321-.944Z" transform="translate(18.893 11.208)" fill="#3d9ae2"/>
    <path id="Trazado_1983" data-name="Trazado 1983" d="M50.237,21.683l-1.755,2.623a1.763,1.763,0,0,1-1.114.774l-6.191,1.548a1.9,1.9,0,0,0-1.038.7l-5,6.663a1.74,1.74,0,0,1-.661.566l-6.927,3.454a2.008,2.008,0,0,1-.472.17L19.4,39.708a1.887,1.887,0,0,0-1.51,1.85v3.1a1.572,1.572,0,0,0,.057.415l-1.095-.717A1.912,1.912,0,0,1,16,42.765v-3.1a1.888,1.888,0,0,1,1.51-1.85l7.681-1.529a2.009,2.009,0,0,0,.472-.17l6.927-3.454a1.74,1.74,0,0,0,.661-.566l5-6.663a1.9,1.9,0,0,1,1.038-.7l6.191-1.548a1.763,1.763,0,0,0,1.114-.774L48.35,19.8a1.929,1.929,0,0,0,.321-1.076l.3.057a1.887,1.887,0,0,1,1.265,2.907Z" transform="translate(8.874 13.95)" fill="#3d9ae2"/>
    <path id="Trazado_1984" data-name="Trazado 1984" d="M49.594,47.117a1.887,1.887,0,0,1,1.831,2.34L50.368,53.7a1.887,1.887,0,0,1-1.246,1.34L45.857,56.12a1.9,1.9,0,0,0-1.3,1.793l-.019,3.152A1.87,1.87,0,0,1,43.5,62.726l-5.473,2.737a1.887,1.887,0,0,0-1.038,1.7v5.624a1.874,1.874,0,0,1-2.472,1.793l-2.3-.755a1.867,1.867,0,0,1-1.189-1.189l-3.378-10.1a2.237,2.237,0,0,1-.094-.6v-6.1a1.887,1.887,0,0,0-1.038-1.7l-2.454-1.227a1.887,1.887,0,0,1-.491-.34l-3.02-3.02A1.9,1.9,0,0,1,20,48.23V42.549a1.916,1.916,0,0,1,.906-1.623l7.248-4.417a1.912,1.912,0,0,1,2.34.283l4.058,4.1a1.853,1.853,0,0,0,1.34.566H41.63a1.912,1.912,0,0,1,1.585.849l2.6,3.964a1.887,1.887,0,0,0,1.567.849Z" transform="translate(12.424 29.492)" fill="#3d9ae2"/>
    <path id="Trazado_1985" data-name="Trazado 1985" d="M51.2,36.61a1.887,1.887,0,0,0-1.906-.472l-4.058,1.321A1.772,1.772,0,0,1,44.2,37.5l-5.908-1.434a1.916,1.916,0,0,1-1.4-1.378L36.8,34.27l5.511,1.34a1.772,1.772,0,0,0,1.038-.038l4.058-1.321a1.887,1.887,0,0,1,1.906.472Z" transform="translate(27.332 27.655)" fill="#3d9ae2"/>
    <path id="Trazado_1986" data-name="Trazado 1986" d="M61.824,25.432l-2.529,1.68a1.887,1.887,0,0,1-1.887.113l-5.945-2.963a1.835,1.835,0,0,0-1.3-.151L44.1,25.62a1.872,1.872,0,0,1-1.51-.264l-3.4-2.265a1.8,1.8,0,0,1-.774-1.151L40.7,23.469a1.872,1.872,0,0,0,1.51.264l6.059-1.51a1.835,1.835,0,0,1,1.3.151l5.945,2.963a1.887,1.887,0,0,0,1.887-.113l2.831-1.887q.821,1.019,1.585,2.1Z" transform="translate(28.769 16.807)" fill="#3d9ae2"/>
    <path id="Trazado_1987" data-name="Trazado 1987" d="M53.834,23.425l-1.755,2.623a1.763,1.763,0,0,1-1.114.774L44.775,28.37a1.9,1.9,0,0,0-1.038.7l-5,6.663a1.74,1.74,0,0,1-.661.566l-6.927,3.454a2.008,2.008,0,0,1-.472.17L22.994,41.45a1.887,1.887,0,0,0-1.51,1.85v3.1a1.912,1.912,0,0,0,.849,1.585L26.3,50.623a1.912,1.912,0,0,1,.849,1.585v3.473a1.887,1.887,0,0,1-2.737,1.7L16.2,53.265a1.929,1.929,0,0,1-.642-.528L9.82,45.376a42.582,42.582,0,0,1,7.587-15.118A43.24,43.24,0,0,1,41.623,14.63L43.7,18.31a1.808,1.808,0,0,0,1.321.944l7.55,1.265a1.887,1.887,0,0,1,1.265,2.907Z" transform="translate(3.39 10.32)" fill="#45c481"/>
    <path id="Trazado_1988" data-name="Trazado 1988" d="M48.594,46.117a1.887,1.887,0,0,1,1.831,2.34L49.368,52.7a1.887,1.887,0,0,1-1.246,1.34L44.857,55.12a1.9,1.9,0,0,0-1.3,1.793l-.019,3.152A1.87,1.87,0,0,1,42.5,61.726l-5.473,2.737a1.887,1.887,0,0,0-1.038,1.7v5.624a1.874,1.874,0,0,1-2.472,1.793l-2.3-.755a1.867,1.867,0,0,1-1.189-1.189l-3.378-10.1a2.236,2.236,0,0,1-.094-.6v-6.1a1.887,1.887,0,0,0-1.038-1.7l-2.454-1.227a1.887,1.887,0,0,1-.491-.34l-3.02-3.02A1.9,1.9,0,0,1,19,47.23V41.549a1.916,1.916,0,0,1,.906-1.623l7.248-4.417a1.912,1.912,0,0,1,2.34.283l4.058,4.1a1.853,1.853,0,0,0,1.34.566H40.63a1.912,1.912,0,0,1,1.585.849l2.6,3.964a1.887,1.887,0,0,0,1.567.849Z" transform="translate(11.536 28.604)" fill="#45c481"/>
    <path id="Trazado_1989" data-name="Trazado 1989" d="M72.677,45.874a43.233,43.233,0,0,1-8.361,25.612l-4.3-4.3a1.9,1.9,0,0,1-.547-1.321V59.709a1.942,1.942,0,0,0-.377-1.132l-4.907-6.53a1.942,1.942,0,0,1-.377-1.132v-6.1a1.95,1.95,0,0,0-.547-1.34l-2.416-2.4a1.887,1.887,0,0,0-1.906-.472l-4.058,1.321a1.772,1.772,0,0,1-1.038.038L37.93,40.533a1.916,1.916,0,0,1-1.4-1.378l-1.4-5.681a1.94,1.94,0,0,1,.245-1.51l2.756-4.115A1.912,1.912,0,0,1,39.723,27h5.964a1.87,1.87,0,0,1,1.038.321l4.888,3.246a2.059,2.059,0,0,0,.661.283l5.681,1.132,1.85.377.849.17a1.938,1.938,0,0,0,1.132-.151.566.566,0,0,0,.189-.075l5.87-3.36,1.114-.623a7,7,0,0,1,.359.868l.113.283a41.983,41.983,0,0,1,3.1,12.91c.057.585.094,1.189.113,1.774s.038,1.151.038,1.718Z" transform="translate(25.805 21.298)" fill="#45c481"/>
    <path id="Trazado_1990" data-name="Trazado 1990" d="M61.156,27.117,58.325,29a1.887,1.887,0,0,1-1.887.113l-5.945-2.963A1.835,1.835,0,0,0,49.19,26l-6.059,1.51a1.872,1.872,0,0,1-1.51-.264l-3.4-2.265a1.887,1.887,0,0,1-.528-2.6l2.171-3.246a1.912,1.912,0,0,1,1.585-.849H49.3a1.87,1.87,0,0,0,1.038-.321l.415-.283a42.389,42.389,0,0,1,10.4,9.437Z" transform="translate(27.852 13.027)" fill="#45c481"/>
    <g id="Grupo_1235" data-name="Grupo 1235" transform="translate(8.602 82.077)">
      <path id="Trazado_1991" data-name="Trazado 1991" d="M62.771,53.954l-5.926-5.926-2.076-2.076a3.775,3.775,0,0,0-5.341,5.322L52.957,54.8,57.43,59.3a.5.5,0,0,0,.113.094,3.775,3.775,0,0,0,5.228-5.436Z" transform="translate(29.072 -44.834)" fill="#ffc477"/>
      <path id="Trazado_1992" data-name="Trazado 1992" d="M54.39,62.543,49.8,57.957l-3.529-3.529a3.775,3.775,0,0,0-5.322,5.341l2.076,2.076,5.926,5.926a3.775,3.775,0,0,0,6.436-2.68,3.658,3.658,0,0,0-1-2.548Z" transform="translate(21.543 -37.304)" fill="#ffc477"/>
      <path id="Trazado_1993" data-name="Trazado 1993" d="M61.105,63.594l-6.681-6.681L47.761,50.25a3.777,3.777,0,1,0-5.341,5.341l2.661,2.661,3.529,3.529L53.1,66.255a.5.5,0,0,1,.094.113l2.567,2.567a3.777,3.777,0,0,0,5.341-5.341Z" transform="translate(22.736 -41.129)" fill="#ffc477"/>
      <path id="Trazado_1994" data-name="Trazado 1994" d="M63.935,60.764,61.368,58.2a.5.5,0,0,1-.113-.094l-4.473-4.492-3.529-3.529-1.831-1.831-.83-.83a3.777,3.777,0,1,0-5.341,5.341l6.663,6.663,6.681,6.681a3.777,3.777,0,1,0,5.341-5.341Z" transform="translate(25.247 -43.641)" fill="#ffc477"/>
      <path id="Trazado_1995" data-name="Trazado 1995" d="M28.576,47.421a3.775,3.775,0,0,0-5.341,0l-2.661,2.661-3.529,3.529L12.571,58.1a.5.5,0,0,1-.113.094L9.891,60.764a3.777,3.777,0,0,0,5.341,5.341l6.681-6.681,6.663-6.663a3.775,3.775,0,0,0,0-5.341Z" transform="translate(-6.131 -43.641)" fill="#ffc477"/>
      <path id="Trazado_1996" data-name="Trazado 1996" d="M31.1,55.735a3.36,3.36,0,0,0-.83-1.246,3.76,3.76,0,0,0-5.322,0l-3.529,3.529L16.831,62.6a3.775,3.775,0,0,0,5.436,5.228l5.926-5.926L30.27,59.83a3.745,3.745,0,0,0,.83-4.1Z" transform="translate(0.177 -37.366)" fill="#ffc477"/>
      <path id="Trazado_1997" data-name="Trazado 1997" d="M21.82,46.016a3.748,3.748,0,0,0-5.341,0L14.4,48.092,8.476,54.018a3.775,3.775,0,0,0,2.68,6.436,3.658,3.658,0,0,0,2.548-1,.5.5,0,0,0,.113-.094l4.473-4.492,3.529-3.529a3.76,3.76,0,0,0,0-5.322Z" transform="translate(-7.378 -44.898)" fill="#ffc477"/>
      <path id="Trazado_1998" data-name="Trazado 1998" d="M31.405,50.251a3.775,3.775,0,0,0-5.341,0L19.4,56.913,12.72,63.594a3.777,3.777,0,0,0,5.341,5.341l2.567-2.567a.5.5,0,0,1,.094-.113l4.492-4.473,3.529-3.529,2.661-2.661a3.775,3.775,0,0,0,0-5.341Z" transform="translate(-3.62 -41.13)" fill="#ffc477"/>
    </g>
    <path id="Trazado_1999" data-name="Trazado 1999" d="M61.023,43.127l-.51.51a1.9,1.9,0,0,1-2.68,0l-8-8a5.583,5.583,0,0,1-1.661-4l.019-.3.849.17a1.938,1.938,0,0,0,1.132-.151l.755.151a2.006,2.006,0,0,0,1.321-.226L57.7,28.16l.113.283a41.984,41.984,0,0,1,3.1,12.91c.057.585.094,1.189.113,1.774Z" transform="translate(37.422 22.327)" fill="#009986"/>
    <path id="Trazado_2000" data-name="Trazado 2000" d="M66.516,28.661a5.694,5.694,0,0,0-4-1.661,5.6,5.6,0,0,0-3.454,1.189.172.172,0,0,1,.057.132l-.6.34-.019.019L57.174,30l-.359-.359-.981-.981a5.662,5.662,0,0,0-8,0,5.549,5.549,0,0,0-1.567,2.963l-.094,1.038a5.583,5.583,0,0,0,1.661,4l8,8a1.9,1.9,0,0,0,2.68,0l4-4,4-4a5.662,5.662,0,0,0,0-8Z" transform="translate(35.647 21.298)" fill="#ea82de"/>
    <path id="Trazado_2001" data-name="Trazado 2001" d="M29.147,25.193l-8,8a1.9,1.9,0,0,1-2.68,0l-2.454-2.454L13.84,28.572a43.08,43.08,0,0,1,14.5-12.042,6.547,6.547,0,0,1,.812.661,4.751,4.751,0,0,1,.566.661A5.662,5.662,0,0,1,29.147,25.193Z" transform="translate(6.957 12.006)" fill="#009986"/>
    <path id="Trazado_2002" data-name="Trazado 2002" d="M30.082,18.321a4.75,4.75,0,0,0-.566-.661,5.651,5.651,0,0,0-8,0L20.173,19l-1.34-1.34a5.659,5.659,0,1,0-8,8l5.549,5.549,2.454,2.454a1.9,1.9,0,0,0,2.68,0l8-8a5.662,5.662,0,0,0,.566-7.342Z" transform="translate(2.813 11.536)" fill="#ea82de"/>
    <path id="Trazado_2003" data-name="Trazado 2003" d="M27.775,3A11.324,11.324,0,0,1,39.1,14.324H35.324A11.324,11.324,0,0,1,24,3Z" transform="translate(15.973 1)" fill="#008944"/>
    <path id="Trazado_2004" data-name="Trazado 2004" d="M43.324,5H47.1A11.324,11.324,0,0,1,35.775,16.324H32A11.324,11.324,0,0,1,43.324,5Z" transform="translate(23.072 2.775)" fill="#008944"/>
    <path id="Trazado_2005" data-name="Trazado 2005" d="M31,9h3.775V39.2H31Z" transform="translate(22.185 5.324)" fill="#008944"/>
  </g>
</svg>
