<svg id="ilu_unaaccionaldia_home" xmlns="http://www.w3.org/2000/svg" xmlns:xlink="http://www.w3.org/1999/xlink" width="245.133" height="253.285" viewBox="0 0 245.133 253.285">
  <defs>
    <clipPath id="clip-path">
      <rect id="Rectángulo_462" data-name="Rectángulo 462" width="245.133" height="253.285" fill="#9cdfbc"/>
    </clipPath>
    <clipPath id="clip-path-2">
      <rect id="Rectángulo_447" data-name="Rectángulo 447" width="245.133" height="253.285" fill="none"/>
    </clipPath>
    <clipPath id="clip-path-3">
      <path id="Trazado_1034" data-name="Trazado 1034" d="M209.9,30.5c-27.65.311-26.942,58.1-21.674,70.6s2.885,16.937-18.211,25.433-9.651,20.58-6.389,27.929,9.01,13.308-6.156,22.122-9.3,13.02-9.3,13.02,31.553,27.381,29.162,17.981-.661-24.032,25.346-27.269c11.2-1.393,27.974-8.171,30.8-20.52.657-2.874.923-7.206.009-10.052-1.269-3.944-4.17-6.9-5.946-10.567-4.143-8.544,3.9-15.713,8.346-22.017a66.35,66.35,0,0,0,6.321-10.334c3.5-7.625,1.32-15.32-3.689-21.673-2.4-3.046-5.655-6.222-6.9-9.989-1.34-4.047-.931-9.76-1.044-14.026a89.314,89.314,0,0,0-.5-10.016c-.861-6.181-2.94-13.653-8.338-17.42-3.162-2.206-7.729-3.2-11.58-3.2l-.253,0" transform="translate(-147.056 -30.496)" fill="none"/>
    </clipPath>
    <linearGradient id="linear-gradient" x1="-0.762" y1="1.081" x2="-0.756" y2="1.081" gradientUnits="objectBoundingBox">
      <stop offset="0" stop-color="#e38ddd"/>
      <stop offset="0.004" stop-color="#8d94e3"/>
      <stop offset="1" stop-color="#71e2f6"/>
    </linearGradient>
    <clipPath id="clip-path-5">
      <rect id="Rectángulo_449" data-name="Rectángulo 449" width="107.216" height="183.347" fill="none"/>
    </clipPath>
    <clipPath id="clip-path-6">
      <rect id="Rectángulo_448" data-name="Rectángulo 448" width="107.216" height="183.346" fill="none"/>
    </clipPath>
    <clipPath id="clip-path-7">
      <path id="Trazado_1041" data-name="Trazado 1041" d="M220.63,156.2c-.337,12.015-3.893,14.722-24.032,13.829s-15.342,13.059-15.412,20.184S183.57,204.257,168.1,205.8s-12.281,7.091-12.281,7.091,15.4,33.675,16.922,25.214,8.293-19.63,30.46-12.691c9.548,2.987,25.568,3.68,32.38-5.245,1.586-2.077,3.391-5.474,3.7-8.105.426-3.649-.83-7.1-.918-10.708-.2-8.415,8.915-11.245,14.818-14.7a58.332,58.332,0,0,0,8.893-6.016c5.62-4.87,6.692-11.873,4.982-18.84-.819-3.34-2.278-7.1-1.9-10.593.4-3.757,2.833-8.215,4.309-11.7a79.273,79.273,0,0,0,3.271-8.265c1.578-5.306,2.645-12.1-.327-17.118a18.929,18.929,0,0,0-8.37-6.922,15.417,15.417,0,0,0-6.286-1.364c-19.852,0-36.815,39.477-37.122,50.358" transform="translate(-155.545 -105.839)" fill="none"/>
    </clipPath>
    <linearGradient id="linear-gradient-2" x1="-0.97" y1="1.21" x2="-0.964" y2="1.21" gradientUnits="objectBoundingBox">
      <stop offset="0" stop-color="#aa80f9"/>
      <stop offset="0.996" stop-color="#6165d7"/>
      <stop offset="1" stop-color="#6165d7"/>
    </linearGradient>
    <clipPath id="clip-path-9">
      <rect id="Rectángulo_452" data-name="Rectángulo 452" width="130.144" height="124.67" fill="none"/>
    </clipPath>
    <clipPath id="clip-path-10">
      <rect id="Rectángulo_451" data-name="Rectángulo 451" width="130.143" height="124.67" fill="none"/>
    </clipPath>
    <clipPath id="clip-path-11">
      <path id="Trazado_1049" data-name="Trazado 1049" d="M64.129,33.694c-5.4,3.767-7.479,11.239-8.338,17.42a89.135,89.135,0,0,0-.5,10.016c-.114,4.266.3,9.979-1.045,14.026-1.249,3.767-4.5,6.943-6.9,9.989-5.011,6.353-7.186,14.048-3.69,21.673a66.233,66.233,0,0,0,6.321,10.334c4.448,6.3,12.489,13.473,8.345,22.017-1.778,3.666-4.677,6.624-5.946,10.567-.912,2.845-.648,7.177.009,10.052,2.826,12.35,19.6,19.127,30.8,20.52,26.007,3.237,27.737,17.868,25.347,27.269S137.689,189.6,137.689,189.6s5.866-4.207-9.3-13.02-9.416-14.773-6.155-22.122,14.707-19.431-6.39-27.929-23.479-12.938-18.211-25.433,5.976-70.286-21.673-70.6l-.253,0c-3.851,0-8.418.992-11.579,3.2" transform="translate(-41.94 -30.496)" fill="none"/>
    </clipPath>
    <linearGradient id="linear-gradient-3" x1="-0.144" y1="1.081" x2="-0.138" y2="1.081" gradientUnits="objectBoundingBox">
      <stop offset="0" stop-color="#e38ddd"/>
      <stop offset="0.004" stop-color="#8db8e3"/>
      <stop offset="1" stop-color="#719af6"/>
    </linearGradient>
    <linearGradient id="linear-gradient-4" x1="0.071" y1="1.674" x2="0.075" y2="1.674" gradientUnits="objectBoundingBox">
      <stop offset="0" stop-color="#e38ddd"/>
      <stop offset="0.003" stop-color="#8db8e3"/>
      <stop offset="1" stop-color="#719af6"/>
    </linearGradient>
    <clipPath id="clip-path-14">
      <rect id="Rectángulo_455" data-name="Rectángulo 455" width="107.217" height="183.347" fill="none"/>
    </clipPath>
    <clipPath id="clip-path-15">
      <rect id="Rectángulo_454" data-name="Rectángulo 454" width="107.217" height="183.346" fill="none"/>
    </clipPath>
    <clipPath id="clip-path-16">
      <path id="Trazado_1057" data-name="Trazado 1057" d="M22.1,105.839a15.419,15.419,0,0,0-6.286,1.364,18.927,18.927,0,0,0-8.369,6.922c-2.972,5.022-1.906,11.811-.329,17.118a79.292,79.292,0,0,0,3.273,8.265c1.476,3.484,3.9,7.942,4.308,11.7.378,3.5-1.08,7.253-1.9,10.593-1.709,6.966-.638,13.97,4.982,18.84a58.332,58.332,0,0,0,8.893,6.016c5.9,3.452,15.022,6.281,14.818,14.7-.088,3.612-1.343,7.059-.917,10.708a19.272,19.272,0,0,0,3.7,8.105c6.813,8.925,22.832,8.233,32.379,5.245,22.168-6.939,28.939,4.23,30.461,12.691s16.922-25.214,16.922-25.214,3.19-5.55-12.281-7.091-13.021-8.462-13.088-15.588,4.731-21.076-15.411-20.184S59.559,168.211,59.22,156.2c-.306-10.88-17.27-50.355-37.12-50.358h0" transform="translate(-5.561 -105.839)" fill="none"/>
    </clipPath>
    <linearGradient id="linear-gradient-5" x1="-0.027" y1="1.21" x2="-0.02" y2="1.21" xlink:href="#linear-gradient-2"/>
    <clipPath id="clip-path-17">
      <path id="Trazado_1063" data-name="Trazado 1063" d="M22.1,105.839a15.419,15.419,0,0,0-6.286,1.364,18.927,18.927,0,0,0-8.369,6.922c-2.972,5.022-1.906,11.811-.329,17.118a79.292,79.292,0,0,0,3.273,8.265c1.476,3.484,3.9,7.942,4.308,11.7.378,3.5-1.08,7.253-1.9,10.593-1.709,6.966-.638,13.97,4.982,18.84a58.332,58.332,0,0,0,8.893,6.016c5.9,3.452,15.022,6.281,14.818,14.7-.088,3.612-1.343,7.059-.917,10.708a19.272,19.272,0,0,0,3.7,8.105c6.813,8.925,22.832,8.233,32.379,5.245,22.168-6.939,28.939,4.23,30.461,12.691s16.922-25.214,16.922-25.214,3.19-5.55-12.281-7.091-13.021-8.462-13.088-15.588,4.731-21.076-15.411-20.184S59.559,168.211,59.22,156.2c-.305-10.881-17.27-50.355-37.12-50.358h0" transform="translate(-5.561 -105.839)" fill="none"/>
    </clipPath>
    <clipPath id="clip-path-20">
      <path id="Trazado_1071" data-name="Trazado 1071" d="M50.337,150.585a86.52,86.52,0,1,0,86.519-86.519,86.519,86.519,0,0,0-86.519,86.519" transform="translate(-50.337 -64.066)" fill="none"/>
    </clipPath>
    <clipPath id="clip-path-21">
      <rect id="Rectángulo_461" data-name="Rectángulo 461" width="174.692" height="174.645" fill="none"/>
    </clipPath>
    <clipPath id="clip-path-22">
      <rect id="Rectángulo_460" data-name="Rectángulo 460" width="174.691" height="174.645" fill="none"/>
    </clipPath>
    <clipPath id="clip-path-23">
      <path id="Trazado_1075" data-name="Trazado 1075" d="M145.869,21.282c-22.2,8.269-34.927,4.341-51.476.416-13.271-3.149-29-6.3-54.021-3.158-56.941,7.144-28.031,96.527-28.031,96.527s9.06,77.721,19.793,113.548a21.768,21.768,0,0,0,6.472,9.944H216.759c7-5.539,13.9-13.854,20.8-26.406,21.465-39.052-8.712-70.351-2.4-127.877,5-45.575-28.838-67.667-62.827-67.668a76.114,76.114,0,0,0-26.463,4.676" transform="translate(-5.002 -16.606)" fill="none"/>
    </clipPath>
  </defs>
  <g id="Grupo_859" data-name="Grupo 859" clip-path="url(#clip-path)">
    <g id="Grupo_811" data-name="Grupo 811">
      <g id="Grupo_810" data-name="Grupo 810" clip-path="url(#clip-path-2)">
        <path id="Trazado_1032" data-name="Trazado 1032" d="M235.777,84.274c6.337-57.719-49.62-77.771-89.29-62.993-39.992,14.9-49.263-9.8-105.5-2.742-56.94,7.144-28.03,96.526-28.03,96.526s9.059,77.721,19.794,113.549c10.675,35.633,112.864,22.741,137.723,21.676,24.716-1.057,46.194.987,67.7-38.139,21.465-39.052-8.713-70.35-2.4-127.877" transform="translate(-1.211 -3.579)" fill="#9cdfbc"/>
      </g>
    </g>
    <g id="Grupo_813" data-name="Grupo 813" transform="translate(115.365 23.924)">
      <g id="Grupo_812" data-name="Grupo 812" clip-path="url(#clip-path-3)">
        <path id="Trazado_1033" data-name="Trazado 1033" d="M253.56,26.893,239.285,234.331,124.9,207.437,139.177,0Z" transform="translate(-142.282 -23.924)" fill="url(#linear-gradient)"/>
      </g>
    </g>
    <g id="Grupo_820" data-name="Grupo 820" transform="translate(115.365 23.924)">
      <g id="Grupo_819" data-name="Grupo 819" clip-path="url(#clip-path-3)">
        <g id="Grupo_818" data-name="Grupo 818" transform="translate(-0.398 -7.299)" opacity="0.8">
          <g id="Grupo_817" data-name="Grupo 817">
            <g id="Grupo_816" data-name="Grupo 816" clip-path="url(#clip-path-5)">
              <g id="Grupo_815" data-name="Grupo 815" transform="translate(0 0.001)">
                <g id="Grupo_814" data-name="Grupo 814" clip-path="url(#clip-path-6)">
                  <path id="Trazado_1035" data-name="Trazado 1035" d="M147.148,204.49a.407.407,0,0,1-.386-.716A196.744,196.744,0,0,0,171.4,184.509c11.792-10.816,26.933-27.587,32.1-46.063,4.319-15.428,7.344-40.6,8.3-69.058.86-25.521-.213-44.25-1.745-47.618a.408.408,0,1,1,.743-.339c1.793,3.94,2.591,25.017,1.818,47.983-.961,28.52-4,53.76-8.334,69.254-5.223,18.664-20.475,35.564-32.349,46.453A197.537,197.537,0,0,1,147.2,204.464a.506.506,0,0,1-.05.026" transform="translate(-146.549 -21.193)" fill="#fff"/>
                  <path id="Trazado_1036" data-name="Trazado 1036" d="M222.735,79.8a.367.367,0,0,1-.5-.124l-.014-.027c-.125-.27-12.638-27-26.365-32.138a.393.393,0,0,1-.235-.5l0-.011a.405.405,0,0,1,.524-.233h0c14.04,5.257,26.293,31.424,26.808,32.539a.368.368,0,0,1-.188.484l-.031.013Z" transform="translate(-157.118 -26.697)" fill="#fff"/>
                  <path id="Trazado_1037" data-name="Trazado 1037" d="M227.009,123.94a.406.406,0,0,1-.453-.664,129.318,129.318,0,0,1,15.99-12.835c12-8.051,21.481-10.8,28.174-8.178a.408.408,0,1,1-.3.759c-15.4-6.04-43.02,20.568-43.3,20.837a.408.408,0,0,1-.115.081" transform="translate(-163.762 -38.456)" fill="#fff"/>
                  <path id="Trazado_1038" data-name="Trazado 1038" d="M185.45,202.342a.407.407,0,0,1-.54-.2.378.378,0,0,1-.035-.133,155.548,155.548,0,0,0-4.694-24.191c-3.209-11.241-9.072-25.173-18.782-27.694a.407.407,0,1,1,.2-.788c8.1,2.1,14.612,11.615,19.365,28.269a156.386,156.386,0,0,1,4.717,24.325.407.407,0,0,1-.236.411" transform="translate(-149.683 -48.805)" fill="#fff"/>
                  <path id="Trazado_1039" data-name="Trazado 1039" d="M211.388,183.684a.406.406,0,0,1-.438-.678c1.229-1.076,30.242-26.312,42.462-25.134a.408.408,0,1,1-.078.812c-11.873-1.145-41.548,24.675-41.846,24.935a.394.394,0,0,1-.1.064" transform="translate(-160.395 -50.639)" fill="#fff"/>
                </g>
              </g>
            </g>
          </g>
        </g>
      </g>
    </g>
    <g id="Grupo_822" data-name="Grupo 822" transform="translate(122.025 83.03)">
      <g id="Grupo_821" data-name="Grupo 821" clip-path="url(#clip-path-7)">
        <rect id="Rectángulo_450" data-name="Rectángulo 450" width="122.753" height="140.727" transform="translate(-2.918 -0.002)" fill="url(#linear-gradient-2)"/>
      </g>
    </g>
    <g id="Grupo_829" data-name="Grupo 829" transform="translate(122.025 83.03)">
      <g id="Grupo_828" data-name="Grupo 828" clip-path="url(#clip-path-7)">
        <g id="Grupo_827" data-name="Grupo 827" transform="translate(-7.036 -4.327)" opacity="0.8">
          <g id="Grupo_826" data-name="Grupo 826">
            <g id="Grupo_825" data-name="Grupo 825" clip-path="url(#clip-path-9)">
              <g id="Grupo_824" data-name="Grupo 824" transform="translate(0.001 0)">
                <g id="Grupo_823" data-name="Grupo 823" clip-path="url(#clip-path-10)">
                  <path id="Trazado_1042" data-name="Trazado 1042" d="M146.942,224.993a.362.362,0,0,1-.049-.72,174.389,174.389,0,0,0,26.95-6.5c13.484-4.4,31.858-12.365,42.814-25.371,9.15-10.863,20.835-30.058,32.058-52.665,10.064-20.271,16.079-35.775,16.079-39.056a.361.361,0,1,1,.723,0c0,3.837-7.1,21.133-16.153,39.377-11.247,22.655-22.969,41.9-32.153,52.807-11.068,13.139-29.577,21.17-43.153,25.6a175.084,175.084,0,0,1-27.064,6.518.3.3,0,0,1-.052.009" transform="translate(-146.578 -100.323)" fill="#fff"/>
                  <path id="Trazado_1043" data-name="Trazado 1043" d="M272.114,145.69c-.2,0-.361-.083-.362-.282,0-.264-.28-26.407-9.467-35.593a.339.339,0,0,1-.013-.479.068.068,0,0,1,.013-.013.362.362,0,0,1,.511.009h0c9.4,9.4,9.671,34.978,9.679,36.066,0,.2-.159.289-.359.289Z" transform="translate(-171.49 -102.241)" fill="#fff"/>
                  <path id="Trazado_1044" data-name="Trazado 1044" d="M257.147,186.286a.361.361,0,0,1-.122-.7,114.553,114.553,0,0,1,17.612-4.483c12.639-2.088,21.3-.827,25.732,3.749a.363.363,0,0,1-.522.5c-10.2-10.527-42.259.8-42.582.912a.372.372,0,0,1-.118.021" transform="translate(-170.328 -117.52)" fill="#fff"/>
                  <path id="Trazado_1045" data-name="Trazado 1045" d="M197.034,230.924a.362.362,0,0,1-.362-.362.386.386,0,0,1,.019-.116,137.848,137.848,0,0,0,5.1-21.24c1.538-10.246,1.924-23.637-4.984-29.238a.362.362,0,0,1,.456-.562c5.759,4.67,7.523,14.736,5.241,29.918a138.7,138.7,0,0,1-5.127,21.356.364.364,0,0,1-.342.245" transform="translate(-157.373 -117.348)" fill="#fff"/>
                  <path id="Trazado_1046" data-name="Trazado 1046" d="M222.284,229.22a.361.361,0,0,1-.1-.707c1.387-.417,34.06-10.122,43.485-4.685a.362.362,0,0,1-.361.627c-9.159-5.284-42.579,4.65-42.916,4.749a.356.356,0,0,1-.1.016" transform="translate(-162.815 -126.583)" fill="#fff"/>
                </g>
              </g>
            </g>
          </g>
        </g>
      </g>
    </g>
    <g id="Grupo_831" data-name="Grupo 831" transform="translate(32.902 23.924)">
      <g id="Grupo_830" data-name="Grupo 830" clip-path="url(#clip-path-11)">
        <path id="Trazado_1048" data-name="Trazado 1048" d="M152.206,26.894,137.963,234.3,23.6,207.462,37.843.061Z" transform="translate(-37.988 -23.937)" fill="url(#linear-gradient-3)"/>
      </g>
    </g>
    <g id="Grupo_833" data-name="Grupo 833" transform="translate(32.902 23.924)">
      <g id="Grupo_832" data-name="Grupo 832" clip-path="url(#clip-path-11)">
        <rect id="Rectángulo_453" data-name="Rectángulo 453" width="193.128" height="115.933" transform="matrix(0.069, -0.998, 0.998, 0.069, -14.531, 185.607)" fill="url(#linear-gradient-4)"/>
      </g>
    </g>
    <g id="Grupo_840" data-name="Grupo 840" transform="translate(32.902 23.924)">
      <g id="Grupo_839" data-name="Grupo 839" clip-path="url(#clip-path-11)">
        <g id="Grupo_838" data-name="Grupo 838" transform="translate(-9.954 -7.299)" opacity="0.8">
          <g id="Grupo_837" data-name="Grupo 837">
            <g id="Grupo_836" data-name="Grupo 836" clip-path="url(#clip-path-14)">
              <g id="Grupo_835" data-name="Grupo 835" transform="translate(0 0.001)">
                <g id="Grupo_834" data-name="Grupo 834" clip-path="url(#clip-path-15)">
                  <path id="Trazado_1051" data-name="Trazado 1051" d="M147.089,204.49a.407.407,0,1,0,.386-.716,196.8,196.8,0,0,1-24.638-19.265c-11.791-10.816-26.933-27.587-32.1-46.063-4.318-15.428-7.345-40.6-8.3-69.058-.86-25.521.213-44.25,1.746-47.618a.408.408,0,1,0-.743-.339c-1.793,3.94-2.591,25.017-1.818,47.983.962,28.52,4,53.76,8.334,69.254,5.224,18.664,20.475,35.564,32.349,46.453a197.6,197.6,0,0,0,24.744,19.343c.016.009.033.018.049.026" transform="translate(-40.473 -21.193)" fill="#fff"/>
                  <path id="Trazado_1052" data-name="Trazado 1052" d="M82.208,79.8a.366.366,0,0,0,.5-.125l.015-.027c.124-.27,12.637-27,26.364-32.138a.392.392,0,0,0,.235-.5l0-.011a.406.406,0,0,0-.525-.233h0C94.754,52.019,82.5,78.186,81.986,79.3a.366.366,0,0,0,.188.484l.031.013Z" transform="translate(-40.61 -26.697)" fill="#fff"/>
                  <path id="Trazado_1053" data-name="Trazado 1053" d="M73.223,123.94a.406.406,0,0,0,.453-.664,129.316,129.316,0,0,0-15.99-12.835c-12-8.051-21.482-10.8-28.174-8.178a.408.408,0,0,0,.3.759c15.4-6.04,43.019,20.568,43.3,20.837a.4.4,0,0,0,.116.081" transform="translate(-29.253 -38.456)" fill="#fff"/>
                  <path id="Trazado_1054" data-name="Trazado 1054" d="M120.263,202.342a.406.406,0,0,0,.539-.2.4.4,0,0,0,.036-.133,155.542,155.542,0,0,1,4.692-24.191c3.209-11.241,9.073-25.173,18.783-27.694a.407.407,0,0,0-.2-.788c-8.1,2.1-14.612,11.615-19.365,28.269a156.386,156.386,0,0,0-4.717,24.325.408.408,0,0,0,.237.411" transform="translate(-48.814 -48.805)" fill="#fff"/>
                  <path id="Trazado_1055" data-name="Trazado 1055" d="M89.276,183.684a.406.406,0,0,0,.437-.678c-1.229-1.076-30.242-26.312-42.461-25.134a.408.408,0,1,0,.078.812c11.873-1.145,41.548,24.675,41.846,24.935a.385.385,0,0,0,.1.064" transform="translate(-33.052 -50.639)" fill="#fff"/>
                </g>
              </g>
            </g>
          </g>
        </g>
      </g>
    </g>
    <g id="Grupo_842" data-name="Grupo 842" transform="translate(4.363 83.03)">
      <g id="Grupo_841" data-name="Grupo 841" clip-path="url(#clip-path-16)">
        <rect id="Rectángulo_456" data-name="Rectángulo 456" width="122.752" height="140.725" transform="translate(-1.091 0)" fill="url(#linear-gradient-5)"/>
      </g>
    </g>
    <g id="Grupo_849" data-name="Grupo 849" transform="translate(4.363 83.03)">
      <g id="Grupo_848" data-name="Grupo 848" clip-path="url(#clip-path-17)">
        <g id="Grupo_847" data-name="Grupo 847" transform="translate(-4.363 -4.327)" opacity="0.8">
          <g id="Grupo_846" data-name="Grupo 846">
            <g id="Grupo_845" data-name="Grupo 845" clip-path="url(#clip-path-9)">
              <g id="Grupo_844" data-name="Grupo 844" transform="translate(0.001 0)">
                <g id="Grupo_843" data-name="Grupo 843" clip-path="url(#clip-path-10)">
                  <path id="Trazado_1058" data-name="Trazado 1058" d="M132.857,224.993a.362.362,0,0,0,.049-.72,174.39,174.39,0,0,1-26.95-6.5c-13.485-4.4-31.858-12.365-42.814-25.371-9.15-10.863-20.835-30.058-32.057-52.665-10.066-20.271-16.08-35.775-16.08-39.056a.361.361,0,1,0-.723,0c0,3.837,7.095,21.133,16.153,39.377,11.248,22.655,22.969,41.9,32.153,52.807,11.068,13.139,29.576,21.17,43.153,25.6a175.063,175.063,0,0,0,27.064,6.518.283.283,0,0,0,.052.009" transform="translate(-3.079 -100.323)" fill="#fff"/>
                  <path id="Trazado_1059" data-name="Trazado 1059" d="M37.528,145.69c.2,0,.36-.083.361-.282,0-.264.281-26.407,9.467-35.593a.339.339,0,0,0,.013-.479.067.067,0,0,0-.013-.013.362.362,0,0,0-.511.009h0c-9.4,9.4-9.671,34.978-9.678,36.066,0,.2.159.289.359.289Z" transform="translate(-8.01 -102.241)" fill="#fff"/>
                  <path id="Trazado_1060" data-name="Trazado 1060" d="M43.323,186.286a.362.362,0,0,0,.122-.7A114.586,114.586,0,0,0,25.832,181.1c-12.639-2.088-21.3-.827-25.731,3.749a.362.362,0,1,0,.522.5c10.2-10.527,42.259.8,42.581.912a.381.381,0,0,0,.119.021" transform="translate(-0.001 -117.52)" fill="#fff"/>
                  <path id="Trazado_1061" data-name="Trazado 1061" d="M113.568,230.924a.362.362,0,0,0,.362-.362.387.387,0,0,0-.019-.116,137.845,137.845,0,0,1-5.1-21.24c-1.538-10.246-1.924-23.637,4.984-29.238a.362.362,0,0,0-.456-.562c-5.76,4.67-7.523,14.736-5.241,29.918a138.693,138.693,0,0,0,5.127,21.356.364.364,0,0,0,.342.245" transform="translate(-23.088 -117.348)" fill="#fff"/>
                  <path id="Trazado_1062" data-name="Trazado 1062" d="M78.121,229.22a.361.361,0,0,0,.1-.707c-1.386-.417-34.06-10.122-43.485-4.685a.362.362,0,1,0,.362.627c9.158-5.284,42.579,4.65,42.915,4.749a.362.362,0,0,0,.1.016" transform="translate(-7.448 -126.583)" fill="#fff"/>
                </g>
              </g>
            </g>
          </g>
        </g>
      </g>
    </g>
    <g id="Grupo_856" data-name="Grupo 856" transform="translate(39.489 50.26)">
      <g id="Grupo_855" data-name="Grupo 855" clip-path="url(#clip-path-20)">
        <path id="Trazado_1064" data-name="Trazado 1064" d="M224.127,150.378a86.957,86.957,0,0,1-15.7,49.9c-.039.058-.178.115-.178.173a86.735,86.735,0,0,1-71.811,37.4,51.568,51.568,0,0,1-7.153-.444c-.009,0-.014.146-.024.146-1.174-.1-2.338-.143-3.5-.286-.412-.049-.825-.065-1.235-.122-.363-.049-.725-.082-1.087-.137-.315-.047-.628-.086-.938-.137-.071-.013-.141-.02-.212-.031-.763-.126-1.526-.257-2.285-.4H120A87.893,87.893,0,0,1,52.78,124.423c.4-1.286.894-2.557,1.223-3.815.985-2.1,1.651-4.158,2.561-6.179.366-.808.772-1.611,1.158-2.407a87.608,87.608,0,0,1,7.432-12.466c.255-.357.519-.71.779-1.065q1.557-2.117,3.244-4.136,2.522-3.027,5.3-5.819A88,88,0,0,1,90.539,75.8q2.711-1.676,5.553-3.158a88.019,88.019,0,0,1,121.245,43.38c1.266,2.964,2.121,6.011,3.44,9.131,0,.014-.151.024-.146.038a87.46,87.46,0,0,1,3.5,25.186" transform="translate(-50.029 -63.784)" fill="#a8f4c9"/>
        <rect id="Rectángulo_459" data-name="Rectángulo 459" width="0.003" height="0.005" transform="translate(79.259 173.916)" fill="#45c481"/>
        <path id="Trazado_1065" data-name="Trazado 1065" d="M156.7,180.813c-1.88,2.648-7.7,6.05-3.751,12.73,3.913,6.664-.271,7.912-2.965,7.29s-11.112-.96-9.71,2.859,3.806,5.259.725,6.736-4.381,5.31-7.532,10.6c-3.132,5.3-10.566.715-8.364,6.023s3.912,4.795,3.706,8.495a4.614,4.614,0,0,0,1.538,3.052c-1.174-.1-2.353-.216-3.522-.359-.412-.048-.825-.1-1.234-.16-.364-.048-.726-.1-1.087-.155-.315-.046-.629-.094-.939-.146-.071-.012-.053-.024-.123-.034-.754-.126-1.142-.262-2.13-.4-.66-.626-.247-1.305-.147-2.038.982-6.831-8.442-11.524-10.021-16.311-1.553-4.774-.02-7.621-.379-11.578s.923-9.186-1.35-12.514-11.436-4.427-13.18-11.119,2.328-16.679,3.915-18.382c1.566-1.7-7.587-9.451-11.944-9.7-4.376-.266-2.625-9.077-10.024-7.735-7.413,1.3-20.731-2.835-17.981-7.284,2.271-3.665,6.081-11.751-6.36-15.355.4-1.286.89-2.557,1.218-3.816.986-2.1,1.652-4.157,2.561-6.178.366-.808.771-1.611,1.158-2.407a88.148,88.148,0,0,1,7.432-12.466c.255-.357.519-.711.779-1.065q1.562-2.118,3.245-4.136,2.522-3.028,5.3-5.819A87.934,87.934,0,0,1,91.6,76.7c2.464,1.727,5.278,2.792,7.71,1.48,5.96-3.336,2.029-3.847-.41-3.971a3.139,3.139,0,0,1-1.746-.667,86.717,86.717,0,0,1,14.414-5.945c-.372,3.364-4.944,8.768-1.58,8.109,3.915-.745,5.514-11.323,8.389-7.808,2.915,3.529-3.191,8.155,2.544,5.474,5.743-2.655,6.509-8.578,12.908-5.7,6.43,2.918,5.843,6.372,7.638,6.033s7.572,3.549,4.074,6.746c-3.529,3.206-6.765-.879-12.057-2.11s-5.162,3.112-7.6,4.1c-2.477.956-14.424-4.818-17.356.4-2.965,5.177-4.226,8.788.173,8.655s4.68-1.261,4.336,1.989.449,5.688,4.432,2.629,3.081-6.032,6.186-4.578,3.474.138,6.777-2.262,7.646-2.649,8.784,2.734-.808,6.592-6.616,6.865-6.467-1.55-8.317,3.306-9.527,11.1-16.272,13.668-9.374,6.38-9.218,11.517-2.374,10.572-4.064,6.332-6.457-11.413-11.313-6.627-13.335,13.274-3.976,14.825c9.338,1.578,4.465-7.171,9.186-5.422s-2.986,5.619.165,7.011,4.478.747,4.454,5.047,1.044,8.473,4.876,6.649,8.746-10.244,14.283-5.258,5.153,4.347,8.063,2.892,4.756,2.9,5.948,4.887,5.863-.041,9.649,5.863,5.269,6.957,9.584,4.832,6.074-.545,7.2,2.436,3.779.068,5.06,4.008.664,3.322-1.2,5.976" transform="translate(-51.093 -64.677)" fill="#45c481"/>
        <path id="Trazado_1066" data-name="Trazado 1066" d="M203.683,113.729c-3.059-6.564,12.1-5.827,14.775-5.322,2.7.449,9.016-4.493,9.82-6.79.824-2.314,2.178-1.218,6.973-1.28s.557-1.136-4.718-2.874-.764-1.91-5.619-5.743c-2.088-1.678-1.432-3.105-.038-4.165a87.9,87.9,0,0,1,25.57,33.809,1.7,1.7,0,0,0-.451-.078c-3.357-.02-4.1-7.443-5.827-8.888-1.7-1.444.049,4.077.464,6.346s-.919.361-2.593,2.445-4.716,2.125-4.989-1-2.479-6.187-6.944-7.614-8.331-.254-11.96,1.145c-3.609,1.375-11.384,6.525-14.465.013" transform="translate(-83.296 -69.128)" fill="#45c481"/>
        <path id="Trazado_1067" data-name="Trazado 1067" d="M240.523,215.1c.3-2.253.8-4.581-.144-5.434-2.288-2.122-2.787-7.905-1.994-10.835s6.955-2.771,2.773-7.649c-4.195-4.894-7.974-10.7-6.212-14.021s1.227-3.558-2.074-3.538-4.756.165-8.047-2.775c-3.294-2.979-7.825,7.03-20.223-1-12.4-8.108-5.337-21.771-.692-21.805,4.675-.077,10.136-2.436,6.305-8.138-3.818-5.723,2.149-6.53,5.065-5.23s8.1-2.168,13.378-3.726,5.058,7.068,8,8.793c2.954,1.727,8.491.356,11.369-2.4,2.054-1.973,2.5.327,4.534,2.507A87.807,87.807,0,0,1,240.524,215.1Z" transform="translate(-82.085 -78.44)" fill="#45c481"/>
        <path id="Trazado_1068" data-name="Trazado 1068" d="M223.123,103.2c0-.005,3.866-1.749,2.466-4.559s-3.589-11.421-5.2-8.709.766,8.02.246,10.3-.54,3.491,2.484,2.964" transform="translate(-86.861 -69.529)" fill="#45c481"/>
        <path id="Trazado_1069" data-name="Trazado 1069" d="M217.773,102.413c-.054-.905.515-4.582-2.378-4.466.005-.005-4.185,1.743-1.734,4.713s4.174.658,4.112-.247" transform="translate(-85.368 -71.367)" fill="#45c481"/>
        <g id="Grupo_854" data-name="Grupo 854" transform="translate(-0.825 -0.802)" opacity="0.5" style="mix-blend-mode: normal;isolation: isolate">
          <g id="Grupo_853" data-name="Grupo 853">
            <g id="Grupo_852" data-name="Grupo 852" clip-path="url(#clip-path-21)">
              <g id="Grupo_851" data-name="Grupo 851" transform="translate(0)">
                <g id="Grupo_850" data-name="Grupo 850" clip-path="url(#clip-path-22)">
                  <path id="Trazado_1070" data-name="Trazado 1070" d="M223.976,150.285a86.866,86.866,0,0,1-15.579,49.9.3.3,0,0,0-.061.173,87.334,87.334,0,0,1-71.928,37.334,53.276,53.276,0,0,1-7.269-.515c-.009,0-.014.217-.024.217-1.174-.1-2.338-.107-3.5-.251-.412-.049-.825-.048-1.234-.106-.364-.049-.726-.072-1.087-.128-.315-.046-.628-.079-.939-.13-.07-.013-.141-.017-.211-.027-.764-.126-1.526-.257-2.285-.4h-.012a87.691,87.691,0,0,1-70.561-76.561,76.073,76.073,0,0,0,57.176,49.377h.009a6.221,6.221,0,0,0,1.972.372c.058.007.124.029.184.038.268.043.538.089.812.126.31.049.624.089.939.129.355.051.708.082,1.065.123,1,.123,2.005.352,3.02.434.01,0,.015.095.023.095,2.059,0,4.112.166,6.214.166a75.536,75.536,0,0,0,62.051-32.481c0-.05.082-.118.116-.169A75.654,75.654,0,0,0,193.2,113.146c0-.012-.03-.027-.03-.039a51.742,51.742,0,0,0-2.812-7.883,75.784,75.784,0,0,0-45.812-42.179,87.189,87.189,0,0,1,46.91,19.079,88.161,88.161,0,0,1,25.679,33.807c1.265,2.964,2.073,6.011,3.391,9.131,0,.014-.1.024-.1.038a87.479,87.479,0,0,1,3.545,25.186" transform="translate(-49.286 -63.044)" fill="#b7eacc"/>
                </g>
              </g>
            </g>
          </g>
        </g>
      </g>
    </g>
    <g id="Grupo_858" data-name="Grupo 858" transform="translate(3.924 13.027)">
      <g id="Grupo_857" data-name="Grupo 857" clip-path="url(#clip-path-23)">
        <path id="Trazado_1072" data-name="Trazado 1072" d="M54.368,187.9c4.312-2.678,10.846-.014,14.649,2.6a34.793,34.793,0,0,0,3.389,2.575c1.3.683,1.883.983,2.284.838.74-.267,1.013-1.263,1.117-1.667,1.435-5.553-1.113-14.127-1.113-14.127-1.655-5.572-2.864-11.268-4.389-16.878-.6-2.212-1.523-5.58-.161-6.573.879-.638,2.332-.024,2.686.126,3.741,1.583,4.28,6.592,6.621,13.012,1.665,4.568,5.193,12.463,6.825,12.136,3.06-.611-2.287-29.8,3.765-31.735a3.753,3.753,0,0,1,3.027.791c.712,4.549,1.294,9.541,1.627,14.927a160.9,160.9,0,0,1,.18,16.345,41.733,41.733,0,0,0,4.446-9.186c2.515-7.444,2.043-13.237,5.876-15.237l.033-.018a2.691,2.691,0,0,1,3.612,1.194,2.773,2.773,0,0,1,.187.483c.031.111.063.226.092.342,1.356,5.291-.876,9.408-3.16,16.612a99.871,99.871,0,0,0-2.668,10.338c3.266-.916,3.766-6.54,5.21-9.151,1.159-2.1,3.836-7.472,6.452-8.225,3.858-1.112,2.588,3.247,1.808,5.362-1.574,4.262-3.318,8.522-4.979,12.761a73.428,73.428,0,0,0-4.032,14.883,76.742,76.742,0,0,1-1.947,7.452,12.509,12.509,0,0,1-6.09,7.85V285.2H78.105V215.605a15.966,15.966,0,0,1-2.552-2.464c-.145-.243-.276-.49-.424-.731a63.281,63.281,0,0,0-12.087-14.271c-3.092-2.757-9.018-5.47-8.675-10.242" transform="translate(-15.638 -44.944)" fill="#44a04a"/>
        <path id="Trazado_1073" data-name="Trazado 1073" d="M254.014,187.827c-4.313-2.678-10.846-.014-14.65,2.6A34.61,34.61,0,0,1,235.975,193c-1.3.682-1.882.982-2.283.837-.739-.267-1.013-1.263-1.117-1.667-1.436-5.553,1.113-14.127,1.113-14.127,1.655-5.572,2.864-11.267,4.389-16.878.6-2.213,1.523-5.58.161-6.573-.879-.639-2.332-.025-2.686.125-3.741,1.583-4.281,6.593-6.621,13.012-1.665,4.567-5.193,12.463-6.824,12.137-3.061-.612,2.287-29.8-3.765-31.735a3.756,3.756,0,0,0-3.027.791c-.712,4.549-1.294,9.541-1.626,14.927a160.455,160.455,0,0,0-.18,16.345,41.706,41.706,0,0,1-4.447-9.187c-2.514-7.444-2.042-13.237-5.876-15.236l-.033-.018a2.691,2.691,0,0,0-3.612,1.195,2.742,2.742,0,0,0-.187.482q-.048.167-.092.343c-1.356,5.291.876,9.408,3.16,16.612a99.876,99.876,0,0,1,2.668,10.338c-3.266-.916-3.766-6.54-5.21-9.151-1.159-2.1-3.836-7.472-6.452-8.225-3.858-1.111-2.588,3.248-1.808,5.363,1.574,4.262,3.318,8.522,4.98,12.761a73.413,73.413,0,0,1,4.032,14.883,76.187,76.187,0,0,0,1.835,7.451,13.4,13.4,0,0,0,5.979,7.851v69.529h21.9V215.535c.592-.7,1.747-1.514,2.517-2.464.144-.243.257-.49.406-.731a63.228,63.228,0,0,1,12.078-14.268c3.09-2.76,9.008-5.473,8.663-10.245" transform="translate(-45.038 -44.929)" fill="#b1c449"/>
        <path id="Trazado_1074" data-name="Trazado 1074" d="M192.793,158.568c-5.14-3.19-12.924-.016-17.458,3.1-1.494,1.026-2.463,2.241-4.039,3.068-1.549.813-2.243,1.171-2.721,1-.88-.318-1.207-1.509-1.334-1.986-1.71-6.618,1.327-16.835,1.327-16.835,1.972-6.639,3.414-13.427,5.229-20.111.716-2.636,1.815-6.649.191-7.83-1.044-.762-2.778-.029-3.2.15-4.458,1.887-5.1,7.857-7.888,15.506-1.984,5.444-6.188,14.848-8.133,14.463-3.648-.729,2.726-35.514-4.486-37.817-1.381-.441-2.867.435-3.608.942-.849,5.42-1.542,11.367-1.939,17.786a191.605,191.605,0,0,0-.214,19.478,49.636,49.636,0,0,1-5.3-10.948c-3-8.87-2.436-15.772-7-18.155l-.04-.02a3.2,3.2,0,0,0-4.523,2c-.038.133-.075.268-.111.406-1.615,6.3,1.044,11.21,3.766,19.794a119,119,0,0,1,3.18,12.32c-3.893-1.093-4.488-7.795-6.207-10.9-1.382-2.5-4.57-8.9-7.688-9.8-4.6-1.323-3.085,3.874-2.155,6.391,1.875,5.078,3.955,10.154,5.935,15.206a87.511,87.511,0,0,1,4.8,17.734,91.383,91.383,0,0,0,2.324,8.88,16.093,16.093,0,0,0,7.263,9.354v82.843h25.753V191.586a14.9,14.9,0,0,0,3.035-2.936c.174-.29.326-.585.5-.871a75.356,75.356,0,0,1,14.4-17.006c3.684-3.286,10.745-6.521,10.333-12.206" transform="translate(-29.233 -36.981)" fill="#008944"/>
      </g>
    </g>
  </g>
</svg>
