<svg xmlns="http://www.w3.org/2000/svg" width="57.295" height="104.863" viewBox="0 0 57.295 104.863">
  <g id="icon_experiencia_home" transform="translate(-116.126)">
    <g id="Grupo_1212" data-name="Grupo 1212" transform="translate(116.126 0)">
      <g id="Grupo_1207" data-name="Grupo 1207" transform="translate(0 60.627)">
        <g id="Grupo_1197" data-name="Grupo 1197">
          <g id="Grupo_1196" data-name="Grupo 1196">
            <g id="Grupo_1195" data-name="Grupo 1195">
              <path id="Trazado_1951" data-name="Trazado 1951" d="M143.534,314.96H131.6a15.489,15.489,0,0,1-15.472-15.472v-3.472h11.936a15.489,15.489,0,0,1,15.472,15.472Z" transform="translate(-116.126 -296.017)" fill="#71dea4"/>
            </g>
          </g>
        </g>
        <g id="Grupo_1200" data-name="Grupo 1200" transform="translate(0 25.292)">
          <g id="Grupo_1199" data-name="Grupo 1199">
            <g id="Grupo_1198" data-name="Grupo 1198">
              <path id="Trazado_1952" data-name="Trazado 1952" d="M143.534,438.452H131.6a15.489,15.489,0,0,1-15.472-15.472v-3.472h11.936a15.489,15.489,0,0,1,15.472,15.472Z" transform="translate(-116.126 -419.509)" fill="#71dea4"/>
            </g>
          </g>
        </g>
        <g id="Grupo_1203" data-name="Grupo 1203" transform="translate(29.888 0)">
          <g id="Grupo_1202" data-name="Grupo 1202">
            <g id="Grupo_1201" data-name="Grupo 1201">
              <path id="Trazado_1953" data-name="Trazado 1953" d="M262.054,311.489a15.489,15.489,0,0,1,15.472-15.472h11.936v3.472A15.489,15.489,0,0,1,273.99,314.96H262.054Z" transform="translate(-262.054 -296.017)" fill="#008944"/>
            </g>
          </g>
        </g>
        <g id="Grupo_1206" data-name="Grupo 1206" transform="translate(29.888 25.292)">
          <g id="Grupo_1205" data-name="Grupo 1205">
            <g id="Grupo_1204" data-name="Grupo 1204">
              <path id="Trazado_1954" data-name="Trazado 1954" d="M262.054,434.981a15.489,15.489,0,0,1,15.472-15.472h11.936v3.472a15.489,15.489,0,0,1-15.472,15.472H262.054Z" transform="translate(-262.054 -419.509)" fill="#008944"/>
            </g>
          </g>
        </g>
      </g>
      <g id="Grupo_1208" data-name="Grupo 1208" transform="translate(25.36 51.879)">
        <path id="Trazado_1955" data-name="Trazado 1955" d="M239.946,253.3v52.984h3.072l1.536-20.7L243.018,253.3Z" transform="translate(-239.946 -253.302)" fill="#45c481"/>
        <path id="Trazado_1956" data-name="Trazado 1956" d="M254.946,253.3h3.072v52.984h-3.072Z" transform="translate(-251.874 -253.302)" fill="#008944"/>
      </g>
      <g id="Grupo_1211" data-name="Grupo 1211" transform="translate(10.948)">
        <g id="Grupo_1209" data-name="Grupo 1209">
          <path id="Trazado_1957" data-name="Trazado 1957" d="M174.5,5.318a17.554,17.554,0,0,0-.109,24.258l.123.128a10.062,10.062,0,0,1,2.885,7.042v3.616l9.667,4.542,4.42-24.723L187.062,0A17.371,17.371,0,0,0,174.5,5.318Z" transform="translate(-169.578 0)" fill="#fcdd79"/>
          <path id="Trazado_1958" data-name="Trazado 1958" d="M264.613,36.745A10.065,10.065,0,0,1,267.5,29.7l.121-.126a17.553,17.553,0,0,0-.11-24.256A17.369,17.369,0,0,0,254.946,0V44.143l9.667-3.781Z" transform="translate(-237.462 0)" fill="#face48"/>
        </g>
        <g id="Grupo_1210" data-name="Grupo 1210" transform="translate(7.818 40.362)">
          <path id="Trazado_1959" data-name="Trazado 1959" d="M207.748,197.068v6.78l9.667,2.285,4.42-5.676-4.42-3.39Z" transform="translate(-207.748 -197.068)" fill="#698bad"/>
          <path id="Trazado_1960" data-name="Trazado 1960" d="M264.613,197.068h-9.667v9.066l9.667-2.285Z" transform="translate(-245.279 -197.068)" fill="#5a7799"/>
        </g>
      </g>
    </g>
    <g id="Grupo_1213" data-name="Grupo 1213" transform="translate(134.891 47.142)">
      <path id="Trazado_1961" data-name="Trazado 1961" d="M207.748,230.172v6.78h9.667l4.42-3.39-4.42-3.39Z" transform="translate(-207.748 -230.172)" fill="#5a7799"/>
      <path id="Trazado_1962" data-name="Trazado 1962" d="M254.946,230.172h9.667v6.78h-9.667Z" transform="translate(-245.279 -230.172)" fill="#3b526d"/>
    </g>
  </g>
</svg>
