<svg xmlns="http://www.w3.org/2000/svg" width="93.731" height="92.363" viewBox="0 0 93.731 92.363">
  <g id="icon_juego_home" transform="translate(0 -3.737)">
    <g id="Grupo_1214" data-name="Grupo 1214" transform="translate(22.412 5.18)">
      <path id="Trazado_1963" data-name="Trazado 1963" d="M170.372,82.968l.962-3.108V13.349a1.727,1.727,0,0,0-1.727-1.727H124.151a1.727,1.727,0,0,0-1.727,1.727V79.86l.962,3.108Z" transform="translate(-122.424 -11.622)" fill="#008944"/>
    </g>
    <g id="Grupo_1215" data-name="Grupo 1215" transform="translate(22.412 73.419)">
      <path id="Trazado_1964" data-name="Trazado 1964" d="M122.424,384.371v11.972a1.727,1.727,0,0,0,1.727,1.727h45.456a1.727,1.727,0,0,0,1.727-1.727V384.371Z" transform="translate(-122.424 -384.371)" fill="#dae7ef"/>
    </g>
    <g id="Grupo_1216" data-name="Grupo 1216" transform="translate(64.952 5.181)">
      <path id="Trazado_1965" data-name="Trazado 1965" d="M359.44,11.623H354.8V82.969h5.408l.962-3.108V13.35a1.727,1.727,0,0,0-1.727-1.727Z" transform="translate(-354.797 -11.623)" fill="#006e36"/>
    </g>
    <g id="Grupo_1217" data-name="Grupo 1217" transform="translate(22.412 73.419)">
      <path id="Trazado_1966" data-name="Trazado 1966" d="M164.964,384.371v5.6a1.727,1.727,0,0,1-1.727,1.727H122.424v4.643a1.727,1.727,0,0,0,1.727,1.727h45.456a1.727,1.727,0,0,0,1.727-1.727V384.371h-6.37Z" transform="translate(-122.424 -384.371)" fill="#c1d5e4"/>
    </g>
    <g id="Grupo_1219" data-name="Grupo 1219" transform="translate(20.968 3.737)">
      <g id="Grupo_1218" data-name="Grupo 1218" transform="translate(0 0)">
        <path id="Trazado_1967" data-name="Trazado 1967" d="M163.165,88.562H117.709a3.174,3.174,0,0,1-3.171-3.171V6.908a3.174,3.174,0,0,1,3.171-3.171h45.456a3.174,3.174,0,0,1,3.171,3.171V85.391a3.174,3.174,0,0,1-3.171,3.171ZM117.709,6.624a.284.284,0,0,0-.284.284V85.391a.284.284,0,0,0,.284.284h45.456a.284.284,0,0,0,.284-.284V6.908a.284.284,0,0,0-.284-.284Z" transform="translate(-114.538 -3.737)" fill="#98b9d3"/>
      </g>
    </g>
    <g id="Grupo_1220" data-name="Grupo 1220" transform="translate(52.448 25.44)">
      <path id="Trazado_1968" data-name="Trazado 1968" d="M327.273,174.074a11.673,11.673,0,0,0-.246-1.144l-5.7-21.6a11.133,11.133,0,0,0-2.31-4.4,11.128,11.128,0,0,1-1.708-2.7L308.2,123.869a3.569,3.569,0,0,0-1.385-1.581v19.791l1.024,3.273a5.769,5.769,0,0,1,.263,1.734l-.015,9.592a4.234,4.234,0,0,1-4.234,4.228h-.021a4.417,4.417,0,0,1-3.436-1.692c-1.475-1.882-3.662-4.678-3.662-4.678a6.733,6.733,0,0,0-9.447-1.155,2.056,2.056,0,0,0-.353,2.886l9.147,11.7a3.746,3.746,0,0,1,.774,2.309,7.619,7.619,0,0,0,5.971,7.418l3.975.881a.864.864,0,0,1,.677.843v11.824a1.711,1.711,0,0,0,1.711,1.711l16.88-.034a1.711,1.711,0,0,0,1.711-1.711V180.458A40.555,40.555,0,0,0,327.273,174.074Z" transform="translate(-286.495 -122.288)" fill="#eaac9d"/>
    </g>
    <g id="Grupo_1221" data-name="Grupo 1221" transform="translate(29.027 16.196)">
      <circle id="Elipse_184" data-name="Elipse 184" cx="3.777" cy="3.777" r="3.777" fill="#ea82de"/>
    </g>
    <g id="Grupo_1222" data-name="Grupo 1222" transform="translate(57.005 16.196)">
      <circle id="Elipse_185" data-name="Elipse 185" cx="3.777" cy="3.777" r="3.777" fill="#ea82de"/>
    </g>
    <g id="Grupo_1223" data-name="Grupo 1223" transform="translate(29.027 29.028)">
      <circle id="Elipse_186" data-name="Elipse 186" cx="3.777" cy="3.777" r="3.777" transform="translate(0 0)" fill="#ea82de"/>
    </g>
    <g id="Grupo_1224" data-name="Grupo 1224" transform="translate(42.898 41.667)">
      <circle id="Elipse_187" data-name="Elipse 187" cx="3.777" cy="3.777" r="3.777" fill="#ea82de"/>
    </g>
    <g id="Grupo_1225" data-name="Grupo 1225" transform="translate(42.697 16.287)">
      <path id="Trazado_1969" data-name="Trazado 1969" d="M235.892,73.048l-2.459,4.26a1.516,1.516,0,0,0,1.313,2.275h4.919a1.516,1.516,0,0,0,1.313-2.275l-2.459-4.26A1.517,1.517,0,0,0,235.892,73.048Z" transform="translate(-233.228 -72.29)" fill="#45c481"/>
    </g>
    <g id="Grupo_1226" data-name="Grupo 1226" transform="translate(56.803 29.119)">
      <path id="Trazado_1970" data-name="Trazado 1970" d="M312.947,143.143l-2.459,4.26a1.516,1.516,0,0,0,1.313,2.275h4.919a1.516,1.516,0,0,0,1.313-2.275l-2.459-4.26A1.517,1.517,0,0,0,312.947,143.143Z" transform="translate(-310.283 -142.385)" fill="#45c481"/>
    </g>
    <g id="Grupo_1227" data-name="Grupo 1227" transform="translate(28.826 41.951)">
      <path id="Trazado_1971" data-name="Trazado 1971" d="M160.123,213.238l-2.459,4.26a1.517,1.517,0,0,0,1.313,2.275H163.9a1.517,1.517,0,0,0,1.313-2.275l-2.459-4.26A1.517,1.517,0,0,0,160.123,213.238Z" transform="translate(-157.459 -212.48)" fill="#45c481"/>
    </g>
    <g id="Grupo_1228" data-name="Grupo 1228" transform="translate(40.768 79.428)">
      <path id="Trazado_1972" data-name="Trazado 1972" d="M233.449,420.081h-9.311a1.443,1.443,0,1,1,0-2.887h9.311a1.443,1.443,0,0,1,0,2.887Z" transform="translate(-222.694 -417.194)" fill="#407093"/>
    </g>
    <g id="Grupo_1229" data-name="Grupo 1229" transform="translate(56.201 43.007)">
      <path id="Trazado_1973" data-name="Trazado 1973" d="M315.241,224.482h-7.329a.915.915,0,0,1-.915-.915V219.16a.915.915,0,0,1,.915-.915h7.329a.915.915,0,0,1,.915.915v4.407A.915.915,0,0,1,315.241,224.482Z" transform="translate(-306.997 -218.245)" fill="#aa80f9"/>
    </g>
    <g id="Grupo_1230" data-name="Grupo 1230" transform="translate(42.097 29.686)">
      <path id="Trazado_1974" data-name="Trazado 1974" d="M238.2,151.717h-7.329a.915.915,0,0,1-.915-.915V146.4a.915.915,0,0,1,.915-.915H238.2a.915.915,0,0,1,.915.915V150.8A.915.915,0,0,1,238.2,151.717Z" transform="translate(-229.953 -145.48)" fill="#aa80f9"/>
    </g>
    <g id="Grupo_1231" data-name="Grupo 1231" transform="translate(72.766 25.44)">
      <path id="Trazado_1975" data-name="Trazado 1975" d="M417.941,174.074a11.673,11.673,0,0,0-.246-1.144l-5.7-21.6a11.133,11.133,0,0,0-2.31-4.4,11.13,11.13,0,0,1-1.708-2.7l-9.109-20.366a3.569,3.569,0,0,0-1.385-1.581v7.718l6.364,14.229a11.134,11.134,0,0,0,1.708,2.7,11.133,11.133,0,0,1,2.31,4.4l5.7,21.6a11.7,11.7,0,0,1,.246,1.144,40.6,40.6,0,0,1,.5,6.384V191.2a1.711,1.711,0,0,1-1.711,1.711l-12.909.026c.052,0,.105.008.159.008l16.88-.034a1.711,1.711,0,0,0,1.711-1.711V180.458A40.6,40.6,0,0,0,417.941,174.074Z" transform="translate(-397.481 -122.288)" fill="#df9380"/>
    </g>
    <g id="Grupo_1232" data-name="Grupo 1232" transform="translate(0 25.438)">
      <path id="Trazado_1976" data-name="Trazado 1976" d="M40.493,153.371a6.733,6.733,0,0,0-9.447,1.155s-2.187,2.8-3.662,4.678a4.418,4.418,0,0,1-3.436,1.692h-.021a4.234,4.234,0,0,1-4.234-4.228l-.015-9.592a5.771,5.771,0,0,1,.264-1.734l1.028-3.284V122.277a3.57,3.57,0,0,0-1.388,1.583l-9.109,20.366a11.133,11.133,0,0,1-1.708,2.7,11.133,11.133,0,0,0-2.31,4.4l-5.7,21.6A11.688,11.688,0,0,0,.5,174.065a40.618,40.618,0,0,0-.5,6.384v10.745A1.711,1.711,0,0,0,1.711,192.9l16.88.034a1.711,1.711,0,0,0,1.711-1.711V179.4a.864.864,0,0,1,.677-.843l3.975-.881a7.619,7.619,0,0,0,5.971-7.418,3.746,3.746,0,0,1,.774-2.309l9.147-11.7A2.056,2.056,0,0,0,40.493,153.371Z" transform="translate(0 -122.277)" fill="#eaac9d"/>
    </g>
    <g id="Grupo_1234" data-name="Grupo 1234" transform="translate(16.395 55.433)">
      <g id="Grupo_1233" data-name="Grupo 1233">
        <path id="Trazado_1977" data-name="Trazado 1977" d="M113.655,287.223a6.7,6.7,0,0,0-2.063-1.1,2.058,2.058,0,0,1-.315.574l-9.147,11.7a3.747,3.747,0,0,0-.774,2.309,7.619,7.619,0,0,1-5.971,7.418l-5.15,1.333a.864.864,0,0,0-.677.843v16.489l2.2,0a1.711,1.711,0,0,0,1.711-1.711V313.255a.864.864,0,0,1,.677-.843l3.975-.881a7.619,7.619,0,0,0,5.971-7.418,3.747,3.747,0,0,1,.774-2.309l9.147-11.7a2.056,2.056,0,0,0-.353-2.886Z" transform="translate(-89.557 -286.124)" fill="#df9380"/>
      </g>
    </g>
  </g>
</svg>
