<svg xmlns="http://www.w3.org/2000/svg" width="104.432" height="106.437" viewBox="0 0 104.432 106.437">
  <g id="icon_vinculacion_home" transform="translate(-4.821)">
    <path id="Trazado_2006" data-name="Trazado 2006" d="M396.173,42.428a1.582,1.582,0,0,0-2.161-.579l-4.478,2.585,2.585-4.478a1.582,1.582,0,1,0-2.741-1.582l-2.585,4.478-.335,7.012,9.135-5.274A1.583,1.583,0,0,0,396.173,42.428Z" transform="translate(-302.301 -29.77)" fill="#40211d"/>
    <g id="Grupo_1236" data-name="Grupo 1236" transform="translate(71.734 6.329)">
      <path id="Trazado_2007" data-name="Trazado 2007" d="M337.874,30.446a1.582,1.582,0,0,0-1.582,1.582V37.2l-2.585-4.478a1.582,1.582,0,0,0-2.741,1.582l2.585,4.478L329.072,36.2a1.582,1.582,0,1,0-1.582,2.741l9.135,5.274,2.83-7.012V32.028A1.582,1.582,0,0,0,337.874,30.446Z" transform="translate(-326.699 -30.446)" fill="#60312c"/>
      <path id="Trazado_2008" data-name="Trazado 2008" d="M380.454,45.669V64.657a9.494,9.494,0,1,0,0-18.988Z" transform="translate(-369.279 -42.504)" fill="#60312c"/>
    </g>
    <path id="Trazado_2009" data-name="Trazado 2009" d="M347.443,55.163c0-5.243-1.417-9.494-3.165-9.494a9.494,9.494,0,1,0,0,18.988C346.027,64.657,347.443,60.406,347.443,55.163Z" transform="translate(-261.37 -36.175)" fill="#85453d"/>
    <path id="Trazado_2012" data-name="Trazado 2012" d="M399.936,149.693h-6.329a1.582,1.582,0,1,0,0,3.164h6.329a1.582,1.582,0,0,1,0,3.165H377.784v3.165h22.152a4.747,4.747,0,1,0,0-9.494Z" transform="translate(-295.43 -118.574)" fill="#b1efce"/>
    <path id="Trazado_2015" data-name="Trazado 2015" d="M9.568,156.023a1.582,1.582,0,0,1,0-3.165H15.9a1.582,1.582,0,1,0,0-3.164H9.568a4.747,4.747,0,0,0,0,9.494H31.72v-3.165H9.568Z" transform="translate(0 -118.575)" fill="#ebebeb"/>
    <path id="Trazado_2016" data-name="Trazado 2016" d="M315.608,289.237v41.476l-5.247,1.749a1.582,1.582,0,1,0,1,3l6.329-2.11a1.582,1.582,0,0,0,1.082-1.5V289.237Z" transform="translate(-241.166 -229.109)" fill="#008944"/>
    <path id="Trazado_2017" data-name="Trazado 2017" d="M160.216,289.237v41.476l5.247,1.749a1.582,1.582,0,1,1-1,3l-6.329-2.11a1.582,1.582,0,0,1-1.082-1.5V289.237Z" transform="translate(-120.585 -229.109)" fill="#006c36"/>
    <path id="Trazado_2018" data-name="Trazado 2018" d="M29.436,289.237v23.132l-16.443,5.647a1.582,1.582,0,0,0-1.068,1.5v6.329a1.582,1.582,0,1,0,3.164,0v-5.2L31.532,315a1.582,1.582,0,0,0,1.068-1.5V289.237Z" transform="translate(-5.627 -229.109)" fill="#008944"/>
    <path id="Trazado_2019" data-name="Trazado 2019" d="M193.824,289.237v41.476l-5.247,1.749a1.582,1.582,0,0,0,1,3l6.329-2.11a1.582,1.582,0,0,0,1.082-1.5V289.237Z" transform="translate(-144.699 -229.109)" fill="#129f58"/>
    <path id="Trazado_2020" data-name="Trazado 2020" d="M282,289.237v41.476l5.247,1.749a1.582,1.582,0,0,1-1,3l-6.329-2.11a1.582,1.582,0,0,1-1.082-1.5V289.237Z" transform="translate(-217.052 -229.109)" fill="#008944"/>
    <g id="Grupo_1238" data-name="Grupo 1238" transform="translate(82.354 53.798)">
      <path id="Trazado_2021" data-name="Trazado 2021" d="M420.224,318.016l-16.443-5.647V289.237h-3.165V313.5a1.582,1.582,0,0,0,1.068,1.5l16.443,5.647v5.2a1.582,1.582,0,0,0,3.165,0v-6.329A1.582,1.582,0,0,0,420.224,318.016Z" transform="translate(-395.87 -282.908)" fill="#006c36"/>
      <path id="Trazado_2022" data-name="Trazado 2022" d="M377.784,258.791v15.823a9.494,9.494,0,0,0,9.494-9.494Z" transform="translate(-377.784 -258.791)" fill="#006c36"/>
    </g>
    <path id="Trazado_2023" data-name="Trazado 2023" d="M344.773,265.12l-3.165-6.329-9.494,6.329a9.494,9.494,0,0,0,9.494,9.494C343.357,274.614,344.773,270.363,344.773,265.12Z" transform="translate(-259.255 -204.993)" fill="#008944"/>
    <path id="Trazado_2024" data-name="Trazado 2024" d="M364.971,167.453h-3.692l-6.329,15.823,4.747,9.494h9.494v-21.1A4.219,4.219,0,0,0,364.971,167.453Z" transform="translate(-277.343 -132.642)" fill="#b1efce"/>
    <path id="Trazado_2025" data-name="Trazado 2025" d="M340.026,167.453h-3.692a4.219,4.219,0,0,0-4.219,4.219v21.1h9.494v-21.1Z" transform="translate(-259.255 -132.642)" fill="#ebebeb"/>
    <path id="Trazado_2026" data-name="Trazado 2026" d="M370.172,167.453v18.988a1.582,1.582,0,0,0,3.165,0V167.453Z" transform="translate(-289.4 -132.642)" fill="#005f2f"/>
    <circle id="Elipse_188" data-name="Elipse 188" cx="4.747" cy="4.747" r="4.747" transform="translate(26.973 0)" fill="#bc9cf8"/>
    <path id="Trazado_2027" data-name="Trazado 2027" d="M134.216,258.791v15.823a9.494,9.494,0,0,0,9.494-9.494Z" transform="translate(-102.496 -204.992)" fill="#006c36"/>
    <path id="Trazado_2028" data-name="Trazado 2028" d="M101.205,265.12l-3.165-6.329-9.494,6.329a9.494,9.494,0,0,0,9.494,9.494C99.789,274.614,101.205,270.363,101.205,265.12Z" transform="translate(-66.321 -204.993)" fill="#008944"/>
    <path id="Trazado_2029" data-name="Trazado 2029" d="M121.4,167.453h-3.692l-6.329,15.823,4.747,9.494h9.494v-21.1A4.219,4.219,0,0,0,121.4,167.453Z" transform="translate(-84.409 -132.642)" fill="#abebc9"/>
    <path id="Trazado_2030" data-name="Trazado 2030" d="M96.459,167.453H92.767a4.219,4.219,0,0,0-4.219,4.219v21.1h9.494v-21.1Z" transform="translate(-66.322 -132.642)" fill="#ebebeb"/>
    <path id="Trazado_2031" data-name="Trazado 2031" d="M126.6,167.453v18.988a1.582,1.582,0,0,0,3.164,0V167.453Z" transform="translate(-96.467 -132.642)" fill="#005f2f"/>
    <path id="Trazado_2032" data-name="Trazado 2032" d="M134.216,45.669V66.977l9.494-9.7v-2.11A9.494,9.494,0,0,0,134.216,45.669Z" transform="translate(-102.496 -36.175)" fill="#bc98ff"/>
    <path id="Trazado_2033" data-name="Trazado 2033" d="M98.041,45.669a9.494,9.494,0,0,0-9.494,9.494v2.11l12.658,9.7V55.163C101.205,49.919,99.789,45.669,98.041,45.669Z" transform="translate(-66.321 -36.175)" fill="#d6c1ff"/>
    <path id="Trazado_2034" data-name="Trazado 2034" d="M138.163,98.062a4.768,4.768,0,0,0-.782-.9l-3.165,14.612a9.494,9.494,0,0,0,9.494-9.494V98.062h-5.547Z" transform="translate(-102.496 -76.964)" fill="#ffb2f6"/>
    <path id="Trazado_2035" data-name="Trazado 2035" d="M101.205,97.667V92.549a4.745,4.745,0,0,0-7.112.9H88.547v4.219a9.494,9.494,0,0,0,9.494,9.494C99.789,107.161,101.205,102.91,101.205,97.667Z" transform="translate(-66.321 -72.35)" fill="#ffd3fa"/>
    <path id="Trazado_2036" data-name="Trazado 2036" d="M256,258.791v15.823a9.494,9.494,0,0,0,9.494-9.494Z" transform="translate(-198.963 -204.992)" fill="#008944"/>
    <path id="Trazado_2037" data-name="Trazado 2037" d="M222.989,265.12l-3.165-6.329-9.494,6.329a9.494,9.494,0,0,0,9.494,9.494C221.573,274.614,222.989,270.363,222.989,265.12Z" transform="translate(-162.788 -204.992)" fill="#129f58"/>
    <rect id="Rectángulo_609" data-name="Rectángulo 609" width="10.549" height="25.313" transform="translate(51.763 34.811)" fill="#ebebeb"/>
    <path id="Trazado_2038" data-name="Trazado 2038" d="M237.158,167.453l-5.274,6.327h-6.329l6.329,12.661,5.274,6.325,4.219,0v-21.1A4.219,4.219,0,0,0,237.158,167.453Z" transform="translate(-174.846 -132.642)" fill="#aa80f9"/>
    <path id="Trazado_2039" data-name="Trazado 2039" d="M214.55,167.453a4.219,4.219,0,0,0-4.219,4.219v21.1l4.219,0,5.274-6.325V173.78Z" transform="translate(-162.788 -132.642)" fill="#cdb2ff"/>
    <circle id="Elipse_189" data-name="Elipse 189" cx="1.582" cy="1.582" r="1.582" transform="translate(55.455 45.885)" fill="#006532"/>
    <path id="Trazado_2040" data-name="Trazado 2040" d="M256,45.669V64.657a9.494,9.494,0,1,0,0-18.988Z" transform="translate(-198.963 -36.175)" fill="#ffbef7"/>
    <path id="Trazado_2041" data-name="Trazado 2041" d="M222.989,55.163c0-5.243-1.417-9.494-3.165-9.494a9.494,9.494,0,1,0,0,18.988C221.573,64.657,222.989,60.406,222.989,55.163Z" transform="translate(-162.788 -36.175)" fill="#ffd5fa"/>
  </g>
</svg>
