<svg xmlns="http://www.w3.org/2000/svg" xmlns:xlink="http://www.w3.org/1999/xlink" width="228.467" height="230.814" viewBox="0 0 228.467 230.814">
  <defs>
    <linearGradient id="linear-gradient" x1="1.125" y1="1.299" x2="0.238" y2="0.189" gradientUnits="objectBoundingBox">
      <stop offset="0" stop-color="#ff9085"/>
      <stop offset="0.996" stop-color="#fb6fbb"/>
      <stop offset="1" stop-color="#fb6fbb"/>
    </linearGradient>
    <linearGradient id="linear-gradient-2" x1="-45.354" y1="-3.314" x2="-47.91" y2="-1.445" gradientUnits="objectBoundingBox">
      <stop offset="0" stop-color="#b37cff"/>
      <stop offset="1" stop-color="#f895e7"/>
    </linearGradient>
    <linearGradient id="linear-gradient-3" x1="-7.492" y1="-19.832" x2="-9.095" y2="-16.514" xlink:href="#linear-gradient-2"/>
    <linearGradient id="linear-gradient-4" x1="0.52" y1="1.509" x2="0.468" y2="0.18" gradientUnits="objectBoundingBox">
      <stop offset="0" stop-color="#2b3582"/>
      <stop offset="1" stop-color="#150e42"/>
    </linearGradient>
    <linearGradient id="linear-gradient-5" x1="0" y1="0.5" x2="1" y2="0.5" xlink:href="#linear-gradient-4"/>
    <linearGradient id="linear-gradient-6" x1="0.681" y1="0.105" x2="-0.218" y2="2.034" gradientUnits="objectBoundingBox">
      <stop offset="0" stop-color="#a56ffb"/>
      <stop offset="1" stop-color="#85fff1"/>
    </linearGradient>
    <linearGradient id="linear-gradient-7" x1="-19.917" y1="-9.817" x2="-22.419" y2="-7.984" gradientUnits="objectBoundingBox">
      <stop offset="0" stop-color="#311944"/>
      <stop offset="1" stop-color="#a03976"/>
    </linearGradient>
    <linearGradient id="linear-gradient-8" x1="0.525" y1="0.297" x2="0.225" y2="5.134" xlink:href="#linear-gradient-4"/>
    <linearGradient id="linear-gradient-9" x1="-92.995" y1="-49.093" x2="-102.523" y2="1.573" gradientUnits="objectBoundingBox">
      <stop offset="0" stop-color="#18459f"/>
      <stop offset="0.99" stop-color="#3e60f9"/>
    </linearGradient>
    <linearGradient id="linear-gradient-10" x1="-139.069" y1="-47.958" x2="-153.304" y2="1.131" xlink:href="#linear-gradient-9"/>
    <linearGradient id="linear-gradient-11" x1="13.094" y1="-4.735" x2="7.565" y2="-2.449" gradientUnits="objectBoundingBox">
      <stop offset="0" stop-color="#fdf53f"/>
      <stop offset="1" stop-color="#d93c65"/>
    </linearGradient>
    <linearGradient id="linear-gradient-12" x1="13.919" y1="-16.061" x2="8.559" y2="-9.447" xlink:href="#linear-gradient-11"/>
    <linearGradient id="linear-gradient-13" x1="33.073" y1="-0.484" x2="30.238" y2="6.012" xlink:href="#linear-gradient-4"/>
    <linearGradient id="linear-gradient-14" x1="127.527" y1="0.5" x2="128.526" y2="0.5" gradientUnits="objectBoundingBox">
      <stop offset="0" stop-color="#f9b776"/>
      <stop offset="1" stop-color="#f47960"/>
    </linearGradient>
    <linearGradient id="linear-gradient-15" x1="21.393" y1="5.021" x2="24.653" y2="4.188" gradientUnits="objectBoundingBox">
      <stop offset="0" stop-color="#53d8ff"/>
      <stop offset="1" stop-color="#3840f7"/>
    </linearGradient>
    <linearGradient id="linear-gradient-16" x1="82.594" y1="-2.222" x2="75.578" y2="5.383" xlink:href="#linear-gradient-4"/>
    <linearGradient id="linear-gradient-17" x1="147.695" y1="0.5" x2="148.695" y2="0.5" xlink:href="#linear-gradient-14"/>
    <linearGradient id="linear-gradient-18" x1="15.209" y1="4.863" x2="17.505" y2="4.045" xlink:href="#linear-gradient-15"/>
    <linearGradient id="linear-gradient-19" x1="-2.128" y1="2.177" x2="0.506" y2="0.435" gradientUnits="objectBoundingBox">
      <stop offset="0" stop-color="#a737d5"/>
      <stop offset="1" stop-color="#ef497a"/>
    </linearGradient>
    <linearGradient id="linear-gradient-20" x1="-347.243" y1="44.911" x2="-353.315" y2="48.611" xlink:href="#linear-gradient-14"/>
    <linearGradient id="linear-gradient-21" x1="-245.93" y1="57.581" x2="-250.244" y2="62.242" xlink:href="#linear-gradient-14"/>
    <linearGradient id="linear-gradient-22" x1="-0.323" y1="1.204" x2="1.204" y2="-0.299" xlink:href="#linear-gradient-19"/>
    <linearGradient id="linear-gradient-23" x1="-0.904" y1="2.238" x2="1.824" y2="-1.433" xlink:href="#linear-gradient-19"/>
    <linearGradient id="linear-gradient-24" x1="-160.684" y1="6.388" x2="-161.624" y2="9.337" xlink:href="#linear-gradient-14"/>
    <linearGradient id="linear-gradient-25" x1="-123.025" y1="20.763" x2="-125.802" y2="21.805" xlink:href="#linear-gradient-14"/>
    <linearGradient id="linear-gradient-26" x1="-96.38" y1="-47.941" x2="-95.291" y2="-47.941" xlink:href="#linear-gradient-4"/>
    <linearGradient id="linear-gradient-27" x1="-304.94" y1="62.645" x2="-311.845" y2="65.839" xlink:href="#linear-gradient-14"/>
    <linearGradient id="linear-gradient-28" x1="-155.898" y1="22.022" x2="-152.876" y2="23.793" xlink:href="#linear-gradient-14"/>
    <linearGradient id="linear-gradient-29" x1="-80.819" y1="22.69" x2="-79.173" y2="24.651" xlink:href="#linear-gradient-14"/>
    <linearGradient id="linear-gradient-30" x1="-0.93" y1="1.865" x2="1.996" y2="-0.828" xlink:href="#linear-gradient-19"/>
  </defs>
  <g id="b" transform="translate(-0.008 5.091)">
    <g id="c" transform="translate(0.008 -5.091)">
      <g id="Grupo_1891" data-name="Grupo 1891" transform="translate(0 0)">
        <path id="Trazado_3607" data-name="Trazado 3607" d="M200.525,193.443a81.982,81.982,0,0,1-12.545,10.436c-40.927,29.008-89.354,20.554-99.644,18.487-15.2-3.051-44.575-8.945-65.816-33.619C-9.613,151.418-4.61,92.6,20.316,53.779,24.873,46.681,48.955,7.265,97.9.944c29.624-3.825,64.155,3.889,89.16,24.586,52.491,43.445,48.753,131.209,13.46,167.913Z" transform="translate(-0.008 5.003)" opacity="0.448" fill="url(#linear-gradient)"/>
        <g id="Grupo_1869" data-name="Grupo 1869" transform="translate(1.128 42.94)">
          <g id="Grupo_1864" data-name="Grupo 1864" transform="translate(47.249 103.374)">
            <path id="Trazado_3608" data-name="Trazado 3608" d="M227.5,598.766c-1.432-25.8-11-49.331-44.965-66.076C182.531,532.69,177.26,595.975,227.5,598.766Z" transform="translate(-182.372 -532.69)" opacity="0.81" fill="url(#linear-gradient-2)"/>
            <path id="Trazado_3609" data-name="Trazado 3609" d="M229.933,609.4a.279.279,0,0,1-.191-.077c-19.211-18.75-31.215-46.259-31.335-46.535a.273.273,0,1,1,.5-.215c.119.276,12.081,27.687,31.215,46.36a.273.273,0,0,1,.005.387.269.269,0,0,1-.2.082Z" transform="translate(-194.137 -554.522)" fill="#fff" opacity="0.51"/>
          </g>
          <g id="Grupo_1865" data-name="Grupo 1865" transform="translate(151.585 134.691)">
            <path id="Trazado_3610" data-name="Trazado 3610" d="M575.68,683.891c23.2,2.141,45.456-3.274,64.887-31.351C640.567,652.54,584.824,639.454,575.68,683.891Z" transform="translate(-575.68 -650.742)" opacity="0.81" fill="url(#linear-gradient-3)"/>
            <path id="Trazado_3611" data-name="Trazado 3611" d="M624.54,688.532a.28.28,0,0,1-.178-.064.273.273,0,0,1-.032-.385c6.934-8.176,18.291-13.37,26.594-16.288a110.232,110.232,0,0,1,16.511-4.417.273.273,0,0,1,.088.539c-.294.048-29.648,5.04-42.776,20.517a.269.269,0,0,1-.21.1Z" transform="translate(-611.377 -662.962)" fill="#fff" opacity="0.51"/>
          </g>
          <path id="Trazado_3612" data-name="Trazado 3612" d="M349.1,591.4l-4.879,43.744h56.589L393.44,591.4Z" transform="translate(-254.036 -472.452)" fill="url(#linear-gradient-4)"/>
          <g id="Grupo_1866" data-name="Grupo 1866">
            <path id="Trazado_3613" data-name="Trazado 3613" d="M4.26,154.178v100.19a15.2,15.2,0,0,0,14.808,15.2c36.6.944,164.581,3.231,199.418,2.719a11.181,11.181,0,0,0,11.009-10.866c.671-23.276,1.761-79.244-2.273-105.228a11.508,11.508,0,0,0-11-9.741c-30.661-.982-166.338-4.1-201.155-3.313a11.047,11.047,0,0,0-10.8,11.046Z" transform="translate(-4.26 -143.009)" fill="url(#linear-gradient-5)"/>
            <path id="Trazado_3614" data-name="Trazado 3614" d="M27.96,164.463V259.65a8.805,8.805,0,0,0,8.675,8.8l194.253,2.4a8.571,8.571,0,0,0,8.7-8.537l.326-94.336a6.268,6.268,0,0,0-6.115-6.29L34.916,157.674A6.79,6.79,0,0,0,27.96,164.463Z" transform="translate(-21.673 -153.782)" fill="url(#linear-gradient-6)"/>
            <path id="Trazado_3615" data-name="Trazado 3615" d="M240.281,587.474h-.005L27.188,583.843a.273.273,0,0,1-.268-.279.26.26,0,0,1,.279-.268l213.088,3.632a.273.273,0,0,1-.005.547Z" transform="translate(-20.909 -466.497)" fill="#fff" opacity="0.65"/>
            <path id="Trazado_3616" data-name="Trazado 3616" d="M430.611,601.962a2.491,2.491,0,1,1,2.491-2.491A2.493,2.493,0,0,1,430.611,601.962Zm0-4.433a1.944,1.944,0,1,0,1.944,1.944A1.947,1.947,0,0,0,430.611,597.529Z" transform="translate(-315.679 -476.551)" fill="#fff" opacity="0.65"/>
          </g>
          <g id="Grupo_1867" data-name="Grupo 1867" transform="translate(144.835 96.609)">
            <path id="Trazado_3617" data-name="Trazado 3617" d="M553.573,579.635c24.883-12.354,44.081-31.786,46.222-72.445C599.8,507.19,535.028,528.813,553.573,579.635Z" transform="translate(-550.235 -507.19)" fill="url(#linear-gradient-7)"/>
            <path id="Trazado_3618" data-name="Trazado 3618" d="M577.234,602.282a.274.274,0,0,1-.257-.363A131.787,131.787,0,0,1,598.1,563.957a102.318,102.318,0,0,1,12.516-13.386.273.273,0,0,1,.35.419c-.22.186-22.161,18.851-33.478,51.108A.276.276,0,0,1,577.234,602.282Z" transform="translate(-569.871 -539.016)" fill="#fff" opacity="0.51"/>
          </g>
          <g id="Grupo_1868" data-name="Grupo 1868" transform="translate(72.567 159.383)">
            <path id="Trazado_3619" data-name="Trazado 3619" d="M364.207,756.082H281.384c-2.25,0-3.939-1.6-3.5-3.321l1.064-4.2a3.43,3.43,0,0,1,3.361-2.244l79.846-2.491A3.533,3.533,0,0,1,365.78,746l1.915,6.7c.5,1.74-1.2,3.39-3.486,3.39Z" transform="translate(-277.811 -743.822)" fill="url(#linear-gradient-8)"/>
            <path id="Trazado_3620" data-name="Trazado 3620" d="M458.593,755.859a.274.274,0,0,1-.273-.271.277.277,0,0,1,.271-.279l3.422-.05h.005a.274.274,0,0,1,.273.271.277.277,0,0,1-.271.279l-3.422.05Z" transform="translate(-410.435 -752.226)" fill="#fff"/>
            <path id="Trazado_3621" data-name="Trazado 3621" d="M288.878,762.531a.236.236,0,0,1-.042,0,.273.273,0,0,1-.225-.313l.488-3.056a3.415,3.415,0,0,1,3.327-2.881l36.29-.531a.275.275,0,0,1,.008.549l-36.29.531a2.871,2.871,0,0,0-2.8,2.419l-.488,3.056a.273.273,0,0,1-.271.231Z" transform="translate(-285.743 -752.584)" fill="#fff"/>
          </g>
        </g>
        <g id="Grupo_1874" data-name="Grupo 1874" transform="translate(132.596 10.753)">
          <g id="Grupo_1870" data-name="Grupo 1870">
            <path id="Trazado_3622" data-name="Trazado 3622" d="M677.879,23.977c1.239.058,2.488.172,3.714.337a1.151,1.151,0,1,0,.308-2.281c-1.292-.172-2.608-.292-3.91-.355a1.151,1.151,0,0,0-.109,2.3Z" transform="translate(-629.847 -21.675)" fill="#2b2558"/>
            <path id="Trazado_3623" data-name="Trazado 3623" d="M546.491,68.737a1.152,1.152,0,0,0-1.629-.034c-.942.9-1.854,1.857-2.716,2.833a1.151,1.151,0,1,0,1.727,1.523c.817-.928,1.687-1.836,2.581-2.693a1.152,1.152,0,0,0,.035-1.629Z" transform="translate(-530.713 -55.992)" fill="#2b2558"/>
            <path id="Trazado_3624" data-name="Trazado 3624" d="M501.5,167.771a1.155,1.155,0,0,0-1.3.987c-.175,1.292-.3,2.608-.361,3.91a1.153,1.153,0,0,0,1.093,1.207,1.193,1.193,0,0,0,.39-.048,1.151,1.151,0,0,0,.817-1.045c.061-1.236.175-2.486.342-3.711a1.155,1.155,0,0,0-.987-1.3Z" transform="translate(-499.844 -129.007)" fill="#2b2558"/>
            <path id="Trazado_3625" data-name="Trazado 3625" d="M523.966,97.612a1.15,1.15,0,0,0-1.594.326c-.719,1.09-1.4,2.223-2.021,3.364a1.151,1.151,0,0,0,.462,1.563,1.138,1.138,0,0,0,.883.09,1.159,1.159,0,0,0,.679-.552c.592-1.085,1.236-2.162,1.921-3.2a1.15,1.15,0,0,0-.326-1.594Z" transform="translate(-514.807 -77.328)" fill="#2b2558"/>
            <path id="Trazado_3626" data-name="Trazado 3626" d="M640.4,25.01c1.22-.218,2.465-.387,3.7-.5a1.288,1.288,0,0,0,.228-.045,1.151,1.151,0,0,0-.44-2.247c-1.3.119-2.605.3-3.889.528a1.152,1.152,0,1,0,.406,2.268Z" transform="translate(-602.123 -22.069)" fill="#2b2558"/>
            <path id="Trazado_3627" data-name="Trazado 3627" d="M508.7,131.176a1.152,1.152,0,0,0-1.483.671c-.459,1.22-.873,2.475-1.226,3.73a1.152,1.152,0,0,0,2.218.623c.337-1.194.727-2.385,1.165-3.544a1.152,1.152,0,0,0-.671-1.483Z" transform="translate(-504.327 -102.074)" fill="#2b2558"/>
            <path id="Trazado_3628" data-name="Trazado 3628" d="M501.379,205.566a1.149,1.149,0,0,0-1.043,1.249c.117,1.295.292,2.6.52,3.889a1.154,1.154,0,0,0,1.334.934,1.077,1.077,0,0,0,.133-.032,1.154,1.154,0,0,0,.8-1.3c-.218-1.223-.382-2.464-.493-3.7a1.151,1.151,0,0,0-1.249-1.043Z" transform="translate(-500.202 -156.78)" fill="#2b2558"/>
            <path id="Trazado_3629" data-name="Trazado 3629" d="M571.331,49.825a1.211,1.211,0,0,0,.342-.17c1-.724,2.051-1.414,3.114-2.048a1.151,1.151,0,1,0-1.181-1.976c-1.119.669-2.22,1.4-3.279,2.157a1.152,1.152,0,0,0,1.005,2.037Z" transform="translate(-551.28 -39.157)" fill="#2b2558"/>
            <path id="Trazado_3630" data-name="Trazado 3630" d="M604.261,33.425a1.035,1.035,0,0,0,.117-.042c1.141-.48,2.316-.918,3.494-1.3a1.151,1.151,0,0,0-.687-2.2.086.086,0,0,0-.024.008c-1.241.4-2.478.865-3.679,1.369a1.152,1.152,0,0,0,.78,2.165Z" transform="translate(-575.472 -27.67)" fill="#2b2558"/>
            <path id="Trazado_3631" data-name="Trazado 3631" d="M510.113,243.3a1.166,1.166,0,0,0-1.433-.764l-.021.005a1.157,1.157,0,0,0-.737,1.464c.4,1.244.87,2.517,1.374,3.717a1.143,1.143,0,0,0,1.39.647,1.092,1.092,0,0,0,.109-.058,1.151,1.151,0,0,0,.618-1.5c-.477-1.138-.918-2.326-1.3-3.507Z" transform="translate(-505.737 -183.913)" fill="#2b2558"/>
            <path id="Trazado_3632" data-name="Trazado 3632" d="M718.233,29.787a1.153,1.153,0,0,0-.737-1.451c-.594-.194-1.2-.377-1.807-.546A1.151,1.151,0,1,0,715.066,30c.576.162,1.154.337,1.716.52a1.147,1.147,0,0,0,.687.008A1.158,1.158,0,0,0,718.233,29.787Z" transform="translate(-657.356 -26.136)" fill="#2b2558"/>
          </g>
          <path id="Trazado_3633" data-name="Trazado 3633" d="M643.084,357.327c-1.212-.119-2.435-.292-3.634-.512a1.151,1.151,0,1,0-.419,2.263c1.26.233,2.549.414,3.825.539a1.136,1.136,0,0,0,.446-.042,1.15,1.15,0,0,0-.22-2.247Z" transform="translate(-601.415 -267.895)" fill="url(#linear-gradient-9)"/>
          <g id="Grupo_1871" data-name="Grupo 1871" transform="translate(50.464 25.558)">
            <path id="Trazado_3634" data-name="Trazado 3634" d="M833.349,121.315a1.15,1.15,0,0,0,1.366.6,1.544,1.544,0,0,0,.172-.066,1.15,1.15,0,0,0,.533-1.539c-.273-.562-.562-1.127-.859-1.682a1.152,1.152,0,0,0-2.029,1.09C832.815,120.243,833.088,120.782,833.349,121.315Z" transform="translate(-794.641 -118.02)" fill="#2b2558"/>
            <path id="Trazado_3635" data-name="Trazado 3635" d="M852.83,182.015a1.152,1.152,0,0,0-1.035,1.257c.119,1.215.186,2.446.2,3.664a1.15,1.15,0,1,0,2.3-.029c-.016-1.281-.088-2.579-.212-3.857a1.15,1.15,0,0,0-1.257-1.035Z" transform="translate(-808.891 -165.035)" fill="#2b2558"/>
            <path id="Trazado_3636" data-name="Trazado 3636" d="M850.819,219.225a1.154,1.154,0,0,0-1.286,1c-.151,1.207-.358,2.425-.613,3.618a1.153,1.153,0,0,0,.886,1.366,1.117,1.117,0,0,0,.57-.024,1.154,1.154,0,0,0,.8-.862c.268-1.255.483-2.539.645-3.809a1.152,1.152,0,0,0-1-1.287Z" transform="translate(-806.763 -192.371)" fill="#2b2558"/>
            <path id="Trazado_3637" data-name="Trazado 3637" d="M820.4,289.333c-.653,1.027-1.358,2.04-2.1,3.014a1.151,1.151,0,1,0,1.833,1.393c.777-1.021,1.517-2.088,2.207-3.17a1.151,1.151,0,1,0-1.944-1.234Z" transform="translate(-784.112 -243.496)" fill="#2b2558"/>
            <path id="Trazado_3638" data-name="Trazado 3638" d="M765.37,341.213c-1.032.653-2.1,1.265-3.181,1.828a1.152,1.152,0,0,0,.862,2.125,1.425,1.425,0,0,0,.2-.08c1.135-.592,2.263-1.239,3.35-1.923a1.152,1.152,0,1,0-1.231-1.947Z" transform="translate(-742.602 -281.876)" fill="#2b2558"/>
            <path id="Trazado_3639" data-name="Trazado 3639" d="M795.569,318.143c-.862.862-1.772,1.7-2.7,2.48a1.151,1.151,0,1,0,1.483,1.761c.979-.825,1.934-1.706,2.844-2.613a1.152,1.152,0,0,0-1.629-1.629Z" transform="translate(-765.3 -264.806)" fill="#2b2558"/>
            <path id="Trazado_3640" data-name="Trazado 3640" d="M840.164,255.458a1.15,1.15,0,0,0-1.475.692c-.414,1.146-.881,2.287-1.39,3.4a1.15,1.15,0,0,0,.565,1.525,1.137,1.137,0,0,0,.812.056,1.149,1.149,0,0,0,.714-.623c.536-1.167,1.027-2.372,1.462-3.576a1.152,1.152,0,0,0-.692-1.475Z" transform="translate(-798.167 -218.947)" fill="#2b2558"/>
            <path id="Trazado_3641" data-name="Trazado 3641" d="M694.839,365.9c-1.212.151-2.443.252-3.658.3a1.151,1.151,0,1,0,.093,2.3c1.281-.05,2.576-.156,3.852-.316a1.111,1.111,0,0,0,.191-.04,1.151,1.151,0,0,0-.475-2.244Z" transform="translate(-690.076 -300.14)" fill="#2b2558"/>
            <path id="Trazado_3642" data-name="Trazado 3642" d="M731.225,357.358c-1.141.406-2.316.769-3.507,1.085a1.151,1.151,0,1,0,.591,2.226c.517-.138,1.027-.281,1.536-.435.724-.218,1.448-.456,2.154-.708a1.152,1.152,0,0,0-.772-2.17Z" transform="translate(-717.104 -293.816)" fill="#2b2558"/>
            <path id="Trazado_3643" data-name="Trazado 3643" d="M846.428,146.373a1.151,1.151,0,1,0-2.188.714c.1.308.2.615.292.926.26.857.493,1.735.7,2.608a1.152,1.152,0,0,0,1.385.857.691.691,0,0,0,.069-.019,1.152,1.152,0,0,0,.788-1.366c-.217-.918-.464-1.841-.738-2.743-.1-.326-.2-.65-.305-.974Z" transform="translate(-803.301 -138.264)" fill="#2b2558"/>
          </g>
          <path id="Trazado_3644" data-name="Trazado 3644" d="M612.366,349.383c-.562-.186-1.13-.387-1.69-.6a1.151,1.151,0,1,0-.812,2.154c.589.223,1.188.435,1.78.631a1.151,1.151,0,1,0,.722-2.186Z" transform="translate(-580.13 -261.953)" fill="url(#linear-gradient-10)"/>
          <g id="Grupo_1872" data-name="Grupo 1872" transform="translate(28.223 28.033)">
            <path id="Trazado_3645" data-name="Trazado 3645" d="M661.67,135.7l-6.481-.913a28.467,28.467,0,0,0-4.868-7.441l-8.364,1.608-6.393,6.932,5.642,12.219-14.283-.478-8.348,6.215,1.133,10.969-8.781-1.7-2.99,2.963-1.687,6.306a.542.542,0,0,0,.22.586l6.513,4.393a.538.538,0,0,0,.623-.016l5.231-3.939a28.5,28.5,0,0,0,9.057,1.846l3.276,5.666a.539.539,0,0,0,.568.26l7.712-1.5a.538.538,0,0,0,.43-.454l.913-6.481a28.528,28.528,0,0,0,7.706-5.1l6.327,1.693a.544.544,0,0,0,.586-.218L659.8,162.6a.538.538,0,0,0-.016-.623l-3.939-5.231a28.513,28.513,0,0,0,1.846-9.057l5.666-3.276a.539.539,0,0,0,.26-.568l-1.5-7.712a.535.535,0,0,0-.453-.43Z" transform="translate(-606.233 -127.35)" fill="#2b2558"/>
            <path id="Trazado_3646" data-name="Trazado 3646" d="M676.531,209.008a6.058,6.058,0,0,1-7.653-2.194l-1.478,1.1a7.9,7.9,0,0,0,8.831,3.173,8.034,8.034,0,0,0,1.082-.417,7.891,7.891,0,0,0,4.406-5.738l-1.87-.066a6.043,6.043,0,0,1-3.321,4.138Z" transform="translate(-651.174 -184.306)" fill="#fff" opacity="0.6"/>
            <path id="Trazado_3647" data-name="Trazado 3647" d="M708.612,149.906a19.252,19.252,0,0,0-7.277-10.136l-.629.682a18.331,18.331,0,0,1,7.025,9.722,18.616,18.616,0,0,1,.456,1.849,18.506,18.506,0,0,1-14.625,21.684,18.6,18.6,0,0,1-3.924.34.46.46,0,0,0-.469.451.5.5,0,0,0,.019.143.459.459,0,0,0,.432.326c.077,0,.156-.04.234-.04.04,0,.08-.042.119-.042h.042a19.247,19.247,0,0,0,3.1-.207c.21-.035.417-.048.623-.09.658-.127,1.305-.279,1.936-.467a19.409,19.409,0,0,0,13.418-22.278A19.678,19.678,0,0,0,708.612,149.906Z" transform="translate(-667.168 -136.475)" fill="#fff" opacity="0.6"/>
          </g>
          <g id="Grupo_1873" data-name="Grupo 1873" transform="translate(9.749 8.17)">
            <path id="Trazado_3648" data-name="Trazado 3648" d="M561.85,104.821l-1.08-10.452,8.348-6.215,13.917.464a.225.225,0,0,0,.212-.321l-5.489-11.887,6.393-6.932,8.364-1.608c-.08-.088-.156-.178-.236-.265l1.693-6.327a.539.539,0,0,0-.218-.584L587.243,56.3a.538.538,0,0,0-.623.016l-5.231,3.939a28.5,28.5,0,0,0-9.057-1.846l-3.276-5.666a.538.538,0,0,0-.568-.26l-7.712,1.5a.538.538,0,0,0-.43.454l-.913,6.481a28.53,28.53,0,0,0-7.706,5.1L545.4,64.329a.541.541,0,0,0-.586.22l-4.393,6.513a.538.538,0,0,0,.016.623l3.939,5.231a28.511,28.511,0,0,0-1.846,9.057l-5.666,3.276a.539.539,0,0,0-.26.568l1.5,7.712a.539.539,0,0,0,.454.43l6.481.913a28.531,28.531,0,0,0,5.1,7.706l-.005.021,2.99-2.963,8.269,1.6a.385.385,0,0,0,.456-.419Z" transform="translate(-536.594 -52.474)" fill="#2b2558"/>
            <path id="Trazado_3649" data-name="Trazado 3649" d="M640.152,164.383a5.983,5.983,0,0,1-.4-.711,6.061,6.061,0,0,1,2.9-8.054,5.854,5.854,0,0,1,.838-.321,6.045,6.045,0,0,1,7.632,7.144l1.87.066a7.894,7.894,0,1,0-14.911,1.95,7.987,7.987,0,0,0,.592,1.029l1.478-1.1Z" transform="translate(-610.612 -126.478)" fill="#fff" opacity="0.6"/>
            <path id="Trazado_3650" data-name="Trazado 3650" d="M624.482,112.53a19.415,19.415,0,0,0-29.916,19.8,19.582,19.582,0,0,0,.475,1.915,19.369,19.369,0,0,0,4.13,7.348.46.46,0,0,0,.782-.44.445.445,0,0,0-.1-.175A18.5,18.5,0,0,1,623.97,113.3c.111.077.22.156.332.233l.629-.682c-.149-.106-.295-.212-.446-.316Z" transform="translate(-578.924 -94.155)" fill="#fff" opacity="0.6"/>
          </g>
        </g>
        <g id="Grupo_1877" data-name="Grupo 1877" transform="translate(14.248 0)">
          <g id="Grupo_1875" data-name="Grupo 1875" transform="translate(0)">
            <circle id="Elipse_236" data-name="Elipse 236" cx="22.647" cy="22.647" r="22.647" transform="translate(6.111 10.758) rotate(-5.88)" fill="#fff"/>
            <circle id="Elipse_237" data-name="Elipse 237" cx="21.893" cy="21.893" r="21.893" transform="translate(0 30.962) rotate(-45)"/>
            <path id="Trazado_3651" data-name="Trazado 3651" d="M142.164,54.607a.236.236,0,0,0,.1-.024.233.233,0,0,0,.1-.31A20.355,20.355,0,0,0,124.112,43.03a20.63,20.63,0,0,0-3.687.332.231.231,0,0,0,.082.454,20.2,20.2,0,0,1,3.605-.324,19.891,19.891,0,0,1,17.845,10.988A.232.232,0,0,0,142.164,54.607Z" transform="translate(-93.149 -32.508)" fill="#fff"/>
            <circle id="Elipse_238" data-name="Elipse 238" cx="18.53" cy="18.53" r="18.53" transform="translate(9.227 46.762) rotate(-80.78)" fill="#fff"/>
          </g>
          <g id="Grupo_1876" data-name="Grupo 1876" transform="translate(27.607 18.1)">
            <path id="Trazado_3652" data-name="Trazado 3652" d="M126.389,88.538l-2.1-.05a1.161,1.161,0,0,1-1.1-1.1l-.767-14.773a.956.956,0,0,1,.3-.761,1,1,0,0,1,.8-.252l3.61.252a1.112,1.112,0,0,1,.783.35,1.136,1.136,0,0,1,.294.806l-.748,14.505a1.068,1.068,0,0,1-1.08,1.027Z" transform="translate(-122.365 -71.596)" fill="url(#linear-gradient-11)"/>
            <path id="Trazado_3653" data-name="Trazado 3653" d="M122.988,147.055a2.985,2.985,0,0,1,2.207-.727,3.117,3.117,0,0,1,2.223.772,2.918,2.918,0,0,1,.759,2.181,2.8,2.8,0,0,1-.775,2.141,3.022,3.022,0,0,1-2.207.761,2.959,2.959,0,0,1-2.2-.788,3.365,3.365,0,0,1-.008-4.337Z" transform="translate(-122.2 -126.503)" fill="url(#linear-gradient-12)"/>
          </g>
        </g>
        <g id="Grupo_1890" data-name="Grupo 1890" transform="translate(0.882 66.562)">
          <path id="Trazado_3668" data-name="Trazado 3668" d="M183.244,814.46s-.581,3.295-.867,6.555a2.245,2.245,0,0,0,2.149,2.433c4.343.18,13.63.533,16.962.385a.729.729,0,0,0,.642-1h0a1.646,1.646,0,0,0-.836-.881L185.952,814.9l-2.708-.438Z" transform="translate(-134.874 -659.961)" fill="url(#linear-gradient-13)"/>
          <path id="Trazado_3669" data-name="Trazado 3669" d="M183.863,805.487l.467,3.94s2.687,1.252,4.523-.157l-1.114-4.39-3.878.607Z" transform="translate(-135.97 -652.922)" fill="url(#linear-gradient-14)"/>
          <path id="Trazado_3670" data-name="Trazado 3670" d="M151.454,527.96c-.2,1.029-1.085,51.342,4.295,73.888a.766.766,0,0,1-.448.891,13.364,13.364,0,0,1-4.38.891,1.316,1.316,0,0,1-1.308-.947c-1.539-5.231-8.9-31.441-9.866-56.478-1.074-27.976,0-.952,0-.952l.629-17.293Z" transform="translate(-103.209 -449.463)" fill="url(#linear-gradient-15)"/>
          <path id="Trazado_3671" data-name="Trazado 3671" d="M114.015,820.932a23.718,23.718,0,0,0-1.822,6.08,1.371,1.371,0,0,0,1.207,1.642c1.432.141,3.64.321,5.409.31a1.368,1.368,0,0,0,1.353-1.526,11.542,11.542,0,0,0-2.69-6.322l-3.454-.188Z" transform="translate(-83.294 -664.714)" fill="url(#linear-gradient-16)"/>
          <path id="Trazado_3672" data-name="Trazado 3672" d="M116.073,801.2l1.093,5.958a3.846,3.846,0,0,0,3.215.22l-.523-6.409-3.788.231Z" transform="translate(-86.163 -650.049)" fill="url(#linear-gradient-17)"/>
          <path id="Trazado_3673" data-name="Trazado 3673" d="M100.261,526.065c-4.4,26.544.955,65.609,2.759,73.254a1.192,1.192,0,0,0,.963.9,8.031,8.031,0,0,0,3.441-.138,1.092,1.092,0,0,0,.785-1.005c.241-6.181-.194-44.129,3.9-59.125a3.4,3.4,0,0,1,1.313-1.878l7.956-5.656.61-9.141-21.732,2.785Z" transform="translate(-73.304 -446.025)" fill="url(#linear-gradient-18)"/>
          <g id="Grupo_1889" data-name="Grupo 1889">
            <g id="Grupo_1884" data-name="Grupo 1884" transform="translate(7.066 14.134)">
              <g id="Grupo_1883" data-name="Grupo 1883" transform="translate(35.489)">
                <g id="Grupo_1882" data-name="Grupo 1882" transform="translate(0 9.525)">
                  <path id="Trazado_3674" data-name="Trazado 3674" d="M187.312,353.4c-.668,4.756-1.374,5.849-1.923,5.876-1.746.09-1.393-10.632-7.778-16.055-4.032-3.425-9.539-3.709-13.861-3.308l6.048,21.695c.881,2.159,4.719,10.9,13.4,13.55,1.769.541,4.4,1.342,6.85.292,4.831-2.077,7.1-10.587,4.937-21.243C193.973,353.831,192.567,353.428,187.312,353.4Z" transform="translate(-163.75 -334.859)" fill="url(#linear-gradient-19)"/>
                  <path id="Trazado_3675" data-name="Trazado 3675" d="M246.77,321.24l.8,4.52a35.385,35.385,0,0,1,.74,14.025c1.1.045,2.26.122,3.467.241,1.488.146,2.894.34,4.21.562-.7-5.621-4.435-14.956-4.435-14.956-2.255-3.258-2.525-1.138-4.78-4.393Z" transform="translate(-224.747 -321.24)" fill="url(#linear-gradient-20)"/>
                </g>
                <path id="Trazado_3676" data-name="Trazado 3676" d="M249.649,285.337a2.98,2.98,0,0,0-2.356,1.058l-5.7,6.757s-1.037-.212-1.135-2.2a2.467,2.467,0,0,0-2.207-2.226s.305,2.772.883,6.873a8.709,8.709,0,0,0,2.844,5.1l3.3-1.135a37.478,37.478,0,0,0,5.948-14.179l-1.573-.042Z" transform="translate(-218.487 -285.336)" fill="url(#linear-gradient-21)"/>
              </g>
              <path id="Trazado_3677" data-name="Trazado 3677" d="M78.643,340.431c.379-.1,2.976-2.783,3.366-2.857,6.4-1.22,22.376-5.523,33.07,2.366.027.228.042.409.053.56a5.769,5.769,0,0,1,.44.756,36.1,36.1,0,0,0,3.608,5.637,3.643,3.643,0,0,0-.743,1.053c-2.571,5.5-12.309,27.485-10.6,40.927a1.27,1.27,0,0,1-1.077,1.43c-3.78.523-15.041,1.8-20.859-.6a.89.89,0,0,1-.549-.838,98.868,98.868,0,0,0-4.366-28.51c-.159-.525-.289-1.061-.4-1.6-.053.109-.1.215-.154.324l-1.8-18.641Z" transform="translate(-65.729 -322.049)" fill="url(#linear-gradient-22)"/>
              <path id="Trazado_3678" data-name="Trazado 3678" d="M52.651,339.26c-11.938.873-14.431,7.693-22.681,3.523l1.462,12.773c3.059,3.377,7.677,5.68,13.5,6.542Z" transform="translate(-29.97 -324.955)" fill="url(#linear-gradient-23)"/>
            </g>
            <g id="Grupo_1886" data-name="Grupo 1886" transform="translate(34.751)">
              <path id="Trazado_3679" data-name="Trazado 3679" d="M137.484,295.71a31.279,31.279,0,0,0-3.154,12.1c.44.164,6.311,4.237,10.24.294-.841-2.706-.7-6.778-.488-10.956Z" transform="translate(-134.33 -278.824)" fill="url(#linear-gradient-24)"/>
              <g id="Grupo_1885" data-name="Grupo 1885" transform="translate(0.068)">
                <path id="Trazado_3680" data-name="Trazado 3680" d="M159.719,252.883c.111.183,3.045,14.017,3.045,14.017l-7.934,1.507-4.73-12.7S157.836,249.838,159.719,252.883Z" transform="translate(-145.985 -246.714)" fill="url(#linear-gradient-25)"/>
                <path id="Trazado_3681" data-name="Trazado 3681" d="M141.734,242.178a1.168,1.168,0,0,0-.18,1.008l1.937,6.78a1.189,1.189,0,0,0,.127.292c.313.5,1.438,2.013,2.953.769a10.2,10.2,0,0,1,3.571-2.25,1.163,1.163,0,0,1,1.379.9,43.218,43.218,0,0,1,.873,6.332,1.156,1.156,0,0,1-1.016,1.194,32.311,32.311,0,0,1-7.255.159,1.159,1.159,0,0,1-.939-.735c-.679-1.759-2.6-6.68-3.358-7.985-.7-1.212-2.571-1.326-3.43-1.313a1.17,1.17,0,0,1-.865-.358,2.555,2.555,0,0,1,.077-4.006,1.158,1.158,0,0,0,.061-1.616,2.568,2.568,0,0,1-.008-3.772,3.619,3.619,0,0,1,4.282-.838,1.2,1.2,0,0,0,1.4-.35.764.764,0,0,1,.7-.3,1.125,1.125,0,0,0,1.223-1.043,2.974,2.974,0,0,1,2.486-2.86c3.478-.854,5.406,2.573,5.465,5.048s-3.764,3.183-5.969,2.884c-1.618-.22-2.937,1.257-3.52,2.059Z" transform="translate(-134.586 -232.057)" fill="url(#linear-gradient-26)"/>
                <path id="Trazado_3682" data-name="Trazado 3682" d="M144.7,291.141s-.738-4.38-2.5-4.7-3.584,1.037-1.963,3.542C142.253,293.1,144.7,291.141,144.7,291.141Z" transform="translate(-138.276 -271.982)" fill="url(#linear-gradient-27)"/>
              </g>
            </g>
            <g id="Grupo_1888" data-name="Grupo 1888" transform="translate(0 3.399)">
              <path id="Trazado_3683" data-name="Trazado 3683" d="M126.873,244.871a3.968,3.968,0,0,1,1.011.1c.838.178,1.955.61,1.666,1.417-.438,1.212-2.706.08-3.913,2.032-1.064,1.722-.194,3.589-.52,5.446a4.623,4.623,0,0,1-1.544,2.77c-.361.236-3.207.687-3.364.18l-.791-2.568c-.711-2.311,2.024-6.16,3.433-7.714a5.492,5.492,0,0,1,4.022-1.655Z" transform="translate(-88.539 -244.868)" fill="url(#linear-gradient-28)"/>
              <g id="Grupo_1887" data-name="Grupo 1887" transform="translate(0 7.764)">
                <path id="Trazado_3684" data-name="Trazado 3684" d="M83.205,275.643l-2.724,2.268a35.344,35.344,0,0,0-11.765,7.669,15.522,15.522,0,0,0-5.176-5.727,57.8,57.8,0,0,1,9.181-3.669C83.346,271.913,83.205,275.643,83.205,275.643Z" transform="translate(-47.568 -274.134)" fill="url(#linear-gradient-29)"/>
                <path id="Trazado_3685" data-name="Trazado 3685" d="M24.48,301.417c-8.584,8.842-6.078,4.348-6.144,11.884-.027,2.809-2.464,13.537-2.464,13.537C-10.382,315.5,11.527,300.014,19.3,295.69A15.5,15.5,0,0,1,24.48,301.417Z" transform="translate(-3.333 -289.972)" fill="url(#linear-gradient-30)"/>
              </g>
            </g>
          </g>
        </g>
      </g>
    </g>
  </g>
</svg>
