<svg xmlns="http://www.w3.org/2000/svg" width="94" height="95" viewBox="0 0 94 95">
  <g id="Grupo_1945" data-name="Grupo 1945" transform="translate(-619 -141)">
    <ellipse id="Elipse_153" data-name="Elipse 153" cx="47" cy="47.5" rx="47" ry="47.5" transform="translate(619 141)" fill="#a731d3"/>
    <g id="_004-hello" data-name="004-hello" transform="translate(644.651 167.151)">
      <path id="Trazado_3051" data-name="Trazado 3051" d="M42.27,20.191a1.878,1.878,0,0,0-3.2-1.336c-.4.388-7.242,7.209-7.84,7.8a1.5,1.5,0,0,1-2.113-2.121c3.619-3.608,9.394-9.36,13.016-12.967a1.878,1.878,0,0,0,0-2.66l-.052-.052a1.881,1.881,0,0,0-2.653,0C37.064,11.213,30.188,18.063,27.74,20.5a1.5,1.5,0,0,1-2.113-2.121c3.739-3.73,8.877-8.84,12.6-12.553a1.878,1.878,0,0,0,0-2.659l-.064-.064a1.878,1.878,0,0,0-2.656,0L22.941,15.677a1.5,1.5,0,0,1-2.117-2.117L31.139,3.245a1.878,1.878,0,0,0,0-2.656L31.1.548a1.88,1.88,0,0,0-2.655,0L11.656,17.335a1.5,1.5,0,0,1-2.513-1.411L12.014,4.068a2.33,2.33,0,0,0-3.383-2.6A2.3,2.3,0,0,0,7.472,3l-.222.972a60.377,60.377,0,0,1-5.479,14.6A15.634,15.634,0,0,0,.157,28.01,15.5,15.5,0,0,0,15.5,41.285h.011A15.4,15.4,0,0,0,26.476,36.73l3.73-3.741L41.719,21.519a1.865,1.865,0,0,0,.551-1.328Z" transform="translate(0 0)" fill="#ecb9ff"/>
      <path id="Trazado_3052" data-name="Trazado 3052" d="M373.1,370.99a1.251,1.251,0,0,0-2.3-.985,8.41,8.41,0,0,1-5.048,4.649,1.251,1.251,0,1,0,.792,2.373,10.912,10.912,0,0,0,6.556-6.038Z" transform="translate(-334.471 -338.454)" fill="#ecb9ff"/>
      <path id="Trazado_3053" data-name="Trazado 3053" d="M401.179,397.312a1.251,1.251,0,0,0-1.643.657,11.717,11.717,0,0,1-6.784,6.386,1.251,1.251,0,1,0,.844,2.355,14.219,14.219,0,0,0,8.239-7.755A1.251,1.251,0,0,0,401.179,397.312Z" transform="translate(-359.239 -364.085)" fill="#ecb9ff"/>
    </g>
  </g>
</svg>
