<svg xmlns="http://www.w3.org/2000/svg" width="94" height="95" viewBox="0 0 94 95">
  <g id="Grupo_1948" data-name="Grupo 1948" transform="translate(-1061 -141)">
    <ellipse id="Elipse_156" data-name="Elipse 156" cx="47" cy="47.5" rx="47" ry="47.5" transform="translate(1061 141)" fill="#31d3ba"/>
    <path id="_006-flag" data-name="006-flag" d="M2.487,0A1.492,1.492,0,0,0,1,1.487V34.211a1.487,1.487,0,0,0,2.975,0V19.262c1.844-1.16,5.965-3,11.944-1.19,9.609,2.915,17.3-8.419,17.611-8.895a1.11,1.11,0,0,0-1.22-1.7A19.081,19.081,0,0,1,17.63,4.671C12.766,1.264,7.009,1.249,3.975,1.562V1.487A1.492,1.492,0,0,0,2.487,0Z" transform="translate(1095 172.651)" fill="#b8faf0"/>
  </g>
</svg>
