<svg xmlns="http://www.w3.org/2000/svg" width="94" height="95" viewBox="0 0 94 95">
  <g id="Grupo_1947" data-name="Grupo 1947" transform="translate(-914 -141)">
    <ellipse id="Elipse_155" data-name="Elipse 155" cx="47" cy="47.5" rx="47" ry="47.5" transform="translate(914 141)" fill="#318ed3"/>
    <g id="Line" transform="translate(934.002 163.138)">
      <path id="Trazado_3054" data-name="Trazado 3054" d="M37.42,9a9.316,9.316,0,0,0-6.72,2.6,6.272,6.272,0,0,1-4.494,1.767h-.349a6.251,6.251,0,0,1-4.549-1.756c-1.669-1.691-4.036-2.5-7.374-2.52h-.065A7.494,7.494,0,0,0,8.48,11.411C2.077,17.727,2,35.519,2,36.272a6.862,6.862,0,0,0,.295,2.182,5.16,5.16,0,0,0,4.92,3.273H8.753a5,5,0,0,0,3.96-1.964l2.978-2.8a14.519,14.519,0,0,1,19.45-.436l4.243,3.654a4.9,4.9,0,0,0,3.567,1.549h1.985a5.051,5.051,0,0,0,4.243-2.182A6.807,6.807,0,0,0,50,36.272c0-.764-.076-18.141-6.654-24.708A8.192,8.192,0,0,0,37.42,9ZM18.363,21H16.181v2.182a1.091,1.091,0,0,1-2.182,0V21H11.818a1.091,1.091,0,1,1,0-2.182H14V16.636a1.091,1.091,0,0,1,2.182,0v2.182h2.182a1.091,1.091,0,1,1,0,2.182Zm18.545-5.454a2.182,2.182,0,1,1-2.182,2.182A2.182,2.182,0,0,1,36.908,15.545ZM31.453,21a2.182,2.182,0,1,1,2.182,2.182A2.182,2.182,0,0,1,31.453,21Zm5.454,5.454a2.182,2.182,0,1,1,2.182-2.182A2.182,2.182,0,0,1,36.908,26.454Zm3.273-3.273A2.182,2.182,0,1,1,42.362,21,2.182,2.182,0,0,1,40.18,23.181Z" transform="translate(0 0)" fill="#c6e7ff"/>
    </g>
  </g>
</svg>
