<svg xmlns="http://www.w3.org/2000/svg" width="95" height="95" viewBox="0 0 95 95">
  <g id="Grupo_1946" data-name="Grupo 1946" transform="translate(-766 -141)">
    <circle id="Elipse_154" data-name="Elipse 154" cx="47.5" cy="47.5" r="47.5" transform="translate(766 141)" fill="#4531d3"/>
    <g id="_003-file" data-name="003-file" transform="translate(789.813 167.151)">
      <g id="Grupo_1777" data-name="Grupo 1777" transform="translate(0 0)">
        <path id="Trazado_3050" data-name="Trazado 3050" d="M41.031,51.036H38.086V27.478a6.332,6.332,0,0,0-6.342-6.342H6.034a.718.718,0,0,0-.34.057,6.379,6.379,0,0,0,0,12.685c.113,0,.227.057.34.057h.34V57.549a6.394,6.394,0,0,0,6.342,6.286H41.031a6.4,6.4,0,0,0,0-12.8ZM6.373,30.48v-.057a2.945,2.945,0,0,1,0-5.889H26.137a6.482,6.482,0,0,0,0,5.946ZM33.555,53.641H10.337v-3.4H33.555Zm0-6.8H10.337v-3.4H33.555Zm0-6.8H10.337v-3.4H33.555Zm7.532,20.273a2.925,2.925,0,0,1-2.945-2.945V54.434h2.945a2.945,2.945,0,0,1,0,5.889Z" transform="translate(0 -21.136)" fill="#c1b9ff"/>
      </g>
    </g>
  </g>
</svg>
