<svg id="icon_limpieza" xmlns="http://www.w3.org/2000/svg" width="76.718" height="78.844" viewBox="0 0 76.718 78.844">
  <g id="Grupo_979" data-name="Grupo 979" transform="translate(32.167 25.757)">
    <path id="Trazado_1339" data-name="Trazado 1339" d="M81.447,66.716H62.889l1.139-2.056h16.28Z" transform="translate(-44.259 -36.848)" fill="#174420"/>
    <path id="Trazado_1340" data-name="Trazado 1340" d="M78.936,51.646H65.589l1.139-2.056H77.8Z" transform="translate(-44.353 -36.321)" fill="#174420"/>
    <path id="Trazado_1341" data-name="Trazado 1341" d="M77.122,37.905H67.539l.936-2.065h7.711Z" transform="translate(-44.421 -35.84)" fill="#174420"/>
    <path id="Trazado_1342" data-name="Trazado 1342" d="M78.322,80.091H74.866a5.762,5.762,0,0,0-5.395-5.743,10.657,10.657,0,0,0-20.562,2.478,6.273,6.273,0,0,0-.082,12.388v.093H58.946v-.575c.182.01.363.028.548.028a10.625,10.625,0,0,0,4.016-.788H78.322a3.94,3.94,0,1,0,0-7.881Z" transform="translate(-43.584 -36.944)" fill="#174420"/>
  </g>
  <path id="Trazado_1343" data-name="Trazado 1343" d="M69.779,41.015h5.258V88.32H69.779Z" transform="translate(-12.333 -10.264)" fill="#924f30"/>
  <path id="Trazado_1344" data-name="Trazado 1344" d="M72.5,79.012h2.626V89.646H72.5Z" transform="translate(-12.428 -11.592)" fill="#642f14"/>
  <path id="Trazado_1345" data-name="Trazado 1345" d="M69.779,80.094h3.509v2.5H69.779Z" transform="translate(-12.333 -11.63)" fill="#642f14"/>
  <path id="Trazado_1346" data-name="Trazado 1346" d="M72.5,80.094h2.629v2.5H72.5Z" transform="translate(-12.428 -11.63)" fill="#0f0d0b"/>
  <path id="Trazado_1347" data-name="Trazado 1347" d="M80.044,63.118h5.445L77.432,48.577H81.8L75.759,35.311h2.747L71.9,20.667,65.3,35.311h2.747L62,48.577H66.37L58.312,63.118h5.445l-8.5,15.338H88.543Z" transform="translate(-11.825 -9.553)" fill="#008944"/>
  <path id="Trazado_1348" data-name="Trazado 1348" d="M28.572,88.663h-.134a1.325,1.325,0,0,1-1.325-1.325V42.683a1.325,1.325,0,0,1,1.325-1.325h.134A1.325,1.325,0,0,1,29.9,42.683V87.339A1.326,1.326,0,0,1,28.572,88.663Z" transform="translate(-10.841 -10.276)" fill="#924f30"/>
  <path id="Trazado_1349" data-name="Trazado 1349" d="M72.779,46.034a23.39,23.39,0,0,1-.569,4.98A22.032,22.032,0,0,1,64.171,63.5c-.164.135-.338.261-.511.386l.212-.386H58.419l6.919-12.488,1.139-2.056H62.115l5.105-11.2.936-2.065h-2.75L67.3,31.5a21.921,21.921,0,0,1,2.9,4.188,18.314,18.314,0,0,1,.975,2.065A21.893,21.893,0,0,1,72.779,46.034Z" transform="translate(-11.936 -9.931)" fill="#174420"/>
  <path id="Trazado_1350" data-name="Trazado 1350" d="M29.945,60.414V88.005a1.229,1.229,0,0,1-1.109,1.324h-.11a.294.294,0,0,1-.1-.011v-28.9Z" transform="translate(-10.894 -10.942)" fill="#642f14"/>
  <path id="Trazado_1351" data-name="Trazado 1351" d="M77.122,37.905H67.539l.936-2.065h7.711Z" transform="translate(-12.255 -10.083)" fill="#21602e"/>
  <path id="Trazado_1352" data-name="Trazado 1352" d="M27.113,68.452H29.1v2.06H27.113Z" transform="translate(-10.841 -11.223)" fill="#642f14"/>
  <path id="Trazado_1353" data-name="Trazado 1353" d="M28.625,68.452h1.324v2.06H28.625Z" transform="translate(-10.894 -11.223)" fill="#0f0d0b"/>
  <path id="Trazado_1354" data-name="Trazado 1354" d="M78.936,51.646H65.589l1.139-2.056H77.8Z" transform="translate(-12.187 -10.564)" fill="#21602e"/>
  <path id="Trazado_1355" data-name="Trazado 1355" d="M81.447,66.716H62.889l1.139-2.056h16.28Z" transform="translate(-12.092 -11.091)" fill="#21602e"/>
  <circle id="Elipse_167" data-name="Elipse 167" cx="17.477" cy="17.477" r="17.477" transform="translate(0 22.426)" fill="#d23c34"/>
  <path id="Trazado_1356" data-name="Trazado 1356" d="M45.808,49.881A17.442,17.442,0,0,1,37.7,64.627,22.042,22.042,0,0,1,32.018,32.8a17.472,17.472,0,0,1,13.79,17.081Z" transform="translate(-10.857 -9.977)" fill="#bd2d2a"/>
  <path id="Trazado_1357" data-name="Trazado 1357" d="M71.486,37.905H67.539l.936-2.065h2.036a18.313,18.313,0,0,1,.975,2.065Z" transform="translate(-12.255 -10.083)" fill="#0f0d0b"/>
  <path id="Trazado_1358" data-name="Trazado 1358" d="M72.827,49.59a20.8,20.8,0,0,1-.367,2.056H65.589l1.139-2.056Z" transform="translate(-12.187 -10.564)" fill="#0f0d0b"/>
  <path id="Trazado_1359" data-name="Trazado 1359" d="M64.155,31.247C63.492,18.97,57.277,9.15,49.7,9.15s-13.789,9.82-14.452,22.1a20.138,20.138,0,1,0,28.9,0Z" transform="translate(-10.927 -9.15)" fill="#fdc20f"/>
  <path id="Trazado_1360" data-name="Trazado 1360" d="M64.883,31.225C64.221,18.979,58,9.15,50.433,9.15V65.391a20.138,20.138,0,0,0,14.45-34.165Z" transform="translate(-11.657 -9.15)" fill="#faa31b"/>
  <path id="Trazado_1361" data-name="Trazado 1361" d="M35.967,47.968S39.915,59.089,49.6,59.089" transform="translate(-11.151 -10.507)" fill="none" stroke="#924f30" stroke-linecap="round" stroke-linejoin="round" stroke-width="2"/>
  <path id="Trazado_1362" data-name="Trazado 1362" d="M51.524,60.869a9.518,9.518,0,0,0,8.93-6.29" transform="translate(-11.695 -10.738)" fill="none" stroke="#642f14" stroke-linecap="round" stroke-linejoin="round" stroke-width="2"/>
  <g id="Grupo_980" data-name="Grupo 980" transform="translate(36.408 32.691)">
    <path id="Trazado_1363" data-name="Trazado 1363" d="M52.679,45.375V88.217h-4.7V45.375a2.35,2.35,0,0,1,4.7,0Z" transform="translate(-47.979 -43.025)" fill="#924f30"/>
    <path id="Trazado_1364" data-name="Trazado 1364" d="M52.764,45.37V88.217H50.409V43.025a2.356,2.356,0,0,1,2.355,2.345Z" transform="translate(-48.064 -43.025)" fill="#642f14"/>
  </g>
  <path id="Trazado_1365" data-name="Trazado 1365" d="M82.159,90.775H12.23a1.03,1.03,0,1,1,0-2.059h69.93a1.03,1.03,0,1,1,0,2.059Z" transform="translate(-10.285 -11.932)" fill="#45c481"/>
  <path id="Trazado_1366" data-name="Trazado 1366" d="M51.148,88.223H14.139a3.083,3.083,0,0,1-1.394-5.159,3.14,3.14,0,0,1,.543-.431,5.141,5.141,0,0,1,2.173-.476,4.739,4.739,0,0,1,.98.1l.016-.1a7.282,7.282,0,0,1,7.186-5.987,7.306,7.306,0,0,1,4.733,1.736A8.885,8.885,0,0,1,40.121,76a2.571,2.571,0,0,1,4.1,2.084,2.443,2.443,0,0,1-.185.952,9.72,9.72,0,0,1,1.524.527,9.485,9.485,0,0,1,3.394,2.6,1.622,1.622,0,0,1,.134.157,9.448,9.448,0,0,1,1.842,3.892,6.122,6.122,0,0,1,.124.711,8.324,8.324,0,0,1,.1,1.3Z" transform="translate(-10.308 -11.437)" fill="#008944"/>
  <path id="Trazado_1367" data-name="Trazado 1367" d="M36.363,85.868h-.006a2.851,2.851,0,0,0-1.641.516,6.028,6.028,0,0,0-3.849-3.164,6.135,6.135,0,0,0-1.55-.2,6.255,6.255,0,0,0-1.3.142,6,6,0,0,0-4.074,3.177.1.1,0,0,1-.019.026,6.046,6.046,0,0,0-.614,2.363H39.224a2.862,2.862,0,0,0-2.861-2.86Z" transform="translate(-10.708 -11.732)" fill="#45c481"/>
  <path id="Trazado_1368" data-name="Trazado 1368" d="M60.165,31.777H56.059a.84.84,0,0,0-.84.84v0a.965.965,0,0,0,.965.965h3.86a.965.965,0,0,0,.965-.965A.844.844,0,0,0,60.165,31.777Z" transform="translate(-11.824 -9.941)" fill="#fdc20f"/>
  <path id="Trazado_1369" data-name="Trazado 1369" d="M59.849,45.155H55.743a.84.84,0,0,0-.84.84v0a.965.965,0,0,0,.965.965h3.86A.965.965,0,0,0,60.693,46,.845.845,0,0,0,59.849,45.155Z" transform="translate(-11.813 -10.409)" fill="#fdc20f"/>
  <path id="Trazado_1370" data-name="Trazado 1370" d="M65.813,41.358H61.707a.84.84,0,0,0-.84.84v0a.965.965,0,0,0,.965.965h3.86a.965.965,0,0,0,.965-.965A.845.845,0,0,0,65.813,41.358Z" transform="translate(-12.022 -10.276)" fill="#fdc20f"/>
  <path id="Trazado_1371" data-name="Trazado 1371" d="M66.528,48.9H62.422a.84.84,0,0,0-.84.84v0a.965.965,0,0,0,.965.965h3.86a.965.965,0,0,0,.965-.965A.845.845,0,0,0,66.528,48.9Z" transform="translate(-12.047 -10.54)" fill="#fdc20f"/>
  <path id="Trazado_1372" data-name="Trazado 1372" d="M44.361,39.483H40.255a.84.84,0,0,0-.84.84v0a.965.965,0,0,0,.965.965h3.86a.965.965,0,0,0,.965-.965A.844.844,0,0,0,44.361,39.483Z" transform="translate(-11.272 -10.21)" fill="#faa31b"/>
  <path id="Trazado_1373" data-name="Trazado 1373" d="M44.976,47.03H40.87a.84.84,0,0,0-.84.84v0a.965.965,0,0,0,.965.965h3.86a.965.965,0,0,0,.965-.965A.845.845,0,0,0,44.976,47.03Z" transform="translate(-11.293 -10.474)" fill="#faa31b"/>
  <path id="Trazado_1374" data-name="Trazado 1374" d="M47.361,29.157H43.255a.84.84,0,0,0-.84.84v0a.965.965,0,0,0,.965.965h3.86A.965.965,0,0,0,48.205,30,.844.844,0,0,0,47.361,29.157Z" transform="translate(-11.376 -9.849)" fill="#faa31b"/>
  <path id="Trazado_1375" data-name="Trazado 1375" d="M40.528,36.538H36.422a.84.84,0,0,0-.84.84v0a.965.965,0,0,0,.965.965h3.86a.965.965,0,0,0,.965-.965A.845.845,0,0,0,40.528,36.538Z" transform="translate(-11.138 -10.107)" fill="#faa31b"/>
  <path id="Trazado_1376" data-name="Trazado 1376" d="M52.423,23.819H50.432v1.809h1.991a.9.9,0,0,0,0-1.809Z" transform="translate(-11.657 -9.663)" fill="#fdc20f"/>
  <path id="Trazado_1377" data-name="Trazado 1377" d="M48.337,23.819h1.99v1.809h-1.99a.9.9,0,1,1,0-1.809Z" transform="translate(-11.552 -9.663)" fill="#faa31b"/>
  <path id="Trazado_1378" data-name="Trazado 1378" d="M64.36,64.66c-.164.135-.338.261-.511.386l.212-.386Z" transform="translate(-12.126 -11.091)" fill="#174420"/>
</svg>
