<svg id="icon_comida" xmlns="http://www.w3.org/2000/svg" width="82.044" height="76.808" viewBox="0 0 82.044 76.808">
  <path id="Trazado_1453" data-name="Trazado 1453" d="M295.024,56.094c0,11.143-7.2,20.262-16.006,20.262h-9.391A13.156,13.156,0,0,1,262.8,74.4c-5.988-3.6-9.175-11.085-9.175-18.311a18.634,18.634,0,0,1,5.021-13.1,18.353,18.353,0,0,0,4.078-6.512,22.77,22.77,0,0,0,1.325-5.749c.078-.782.118-1.576.118-2.374,0-7.073,4.573-12.859,10.16-12.859a9.21,9.21,0,0,1,7.176,3.778,14.7,14.7,0,0,1,2.984,9.082c0,5.684,2.007,11.1,5.522,14.635a16.79,16.79,0,0,1,3.655,5.719A20.289,20.289,0,0,1,295.024,56.094Zm0,0" transform="translate(-212.98 -13.093)" fill="#45c481"/>
  <path id="Trazado_1454" data-name="Trazado 1454" d="M273.459,129.5a24.5,24.5,0,0,1-3.113,11.008l-7.55,13.726c-5.988-3.6-9.176-11.085-9.176-18.311a18.632,18.632,0,0,1,5.021-13.1,18.369,18.369,0,0,0,4.078-6.512,22.77,22.77,0,0,0,1.324-5.749c2.992,1.606,6.185,4.594,8.095,10.142A24.508,24.508,0,0,1,273.459,129.5Zm0,0" transform="translate(-212.98 -92.926)" fill="#16a367"/>
  <path id="Trazado_1455" data-name="Trazado 1455" d="M333.676,209.994a12.06,12.06,0,1,1-12.06-12.061A12.061,12.061,0,0,1,333.676,209.994Zm0,0" transform="translate(-259.951 -166.296)" fill="#ae583e"/>
  <path id="Trazado_1456" data-name="Trazado 1456" d="M320.139,198.516a12.072,12.072,0,0,0-5.895,21.492l3.1-5.637a24.054,24.054,0,0,0,2.794-15.855Zm0,0" transform="translate(-259.979 -166.785)" fill="#7c3f2c"/>
  <path id="Trazado_1457" data-name="Trazado 1457" d="M67.432,11.745C66.8,8.875,63.552-1.518,49.818.846a.614.614,0,0,0-.449.869C50.792,4.7,56.826,15.776,66.87,12.7A.814.814,0,0,0,67.432,11.745Zm0,0" transform="translate(-41.408 -0.5)" fill="#45c481"/>
  <path id="Trazado_1458" data-name="Trazado 1458" d="M66.87,12.738c-10.043,3.082-16.077-7.991-17.5-10.98a.614.614,0,0,1,.448-.869,23.087,23.087,0,0,1,3.3-.339c2.107,3.717,6.824,10.207,13.891,9.707.2.615.335,1.142.42,1.531A.813.813,0,0,1,66.87,12.738Zm0,0" transform="translate(-41.408 -0.543)" fill="#0faa68"/>
  <path id="Trazado_1459" data-name="Trazado 1459" d="M160.1,21.489a1.245,1.245,0,0,1-1.245-1.245V2.46a1.245,1.245,0,1,1,2.49,0V20.244A1.245,1.245,0,0,1,160.1,21.489Zm0,0" transform="translate(-133.4 -1.1)" fill="#c0694e"/>
  <path id="Trazado_1460" data-name="Trazado 1460" d="M50.271,130.812l-8.763,15.933a8.831,8.831,0,0,1-11.492,2.94,7.152,7.152,0,0,0-6.633,0,8.824,8.824,0,0,1-11.49-2.94L3.128,130.812a24.172,24.172,0,0,1-1.793-19.806c2.693-7.827,7.946-10.558,11.576-11.5a14.573,14.573,0,0,1,3.57-.489c.205,0,.317.006.317.006a14.224,14.224,0,0,1,4.663.779,13.482,13.482,0,0,1,3.93,2.147,2.012,2.012,0,0,0,2.62,0,13.469,13.469,0,0,1,3.93-2.147,14.212,14.212,0,0,1,4.662-.779s11.1-.707,15.461,11.985A24.156,24.156,0,0,1,50.271,130.812Zm0,0" transform="translate(0 -83.228)" fill="#c42d2d"/>
  <path id="Trazado_1461" data-name="Trazado 1461" d="M92.114,130.812l-8.763,15.933a8.831,8.831,0,0,1-11.492,2.94,7.152,7.152,0,0,0-6.633,0,8.892,8.892,0,0,1-3.485.981c-.067-.133-7.026-15.437-8.8-19.339-5.306-11.665-3.249-24.664,1.813-31.824a14.573,14.573,0,0,1,3.57-.489c.205,0,.317.006.317.006A14.224,14.224,0,0,1,63.3,99.8a13.482,13.482,0,0,1,3.93,2.147,2.012,2.012,0,0,0,2.62,0,13.469,13.469,0,0,1,3.93-2.147,14.212,14.212,0,0,1,4.662-.779s11.1-.707,15.461,11.985A24.156,24.156,0,0,1,92.114,130.812Zm0,0" transform="translate(-41.843 -83.228)" fill="#f44545"/>
  <path id="Trazado_1462" data-name="Trazado 1462" d="M11.633,320.465a2.862,2.862,0,0,0-1.2,3.866,18.409,18.409,0,0,0,3.169,4.3L4.06,327.564a2.862,2.862,0,0,0-.633,5.689l9.546,1.063a18.421,18.421,0,0,0-4.037,3.493,2.862,2.862,0,0,0,4.35,3.72c3.27-3.823,9.2-5.463,14.215-5.627a2.86,2.86,0,0,0,.531-5.65c-.091-.021-9.161-2.205-12.531-8.592A2.861,2.861,0,0,0,11.633,320.465Zm0,0" transform="translate(-0.74 -268.915)" fill="#45c481"/>
  <path id="Trazado_1463" data-name="Trazado 1463" d="M198.29,349.075a7.253,7.253,0,0,1-7.195,6.449l-40.415.078a11.852,11.852,0,1,1,2.615-23.4l34.274,7.83,2.447.56,2.68.613a7.253,7.253,0,0,1,5.594,7.873Zm0,0" transform="translate(-116.563 -278.794)" fill="#ffa90b"/>
  <path id="Trazado_1464" data-name="Trazado 1464" d="M205.525,347.064a7.24,7.24,0,0,1-5.748,2.847c-21.151.042-6.368.014-40.414.078a11.853,11.853,0,0,1-11.875-11.815,11.876,11.876,0,0,1,10.443-6.276,11.487,11.487,0,0,1,1.43.088,11.7,11.7,0,0,1,1.226.213l1.224.279c31.685,7.241,3.438.786,33.05,7.551l2.447.56,2.68.613A7.249,7.249,0,0,1,205.525,347.064Zm0,0" transform="translate(-123.854 -278.794)" fill="#ffb52d"/>
  <g id="Grupo_997" data-name="Grupo 997" transform="translate(34.611 53.192)">
    <path id="Trazado_1465" data-name="Trazado 1465" d="M440.424,383.2l-.945,9.625a1.245,1.245,0,0,1-1.235,1.107,1.288,1.288,0,0,1-.14-.008,1.246,1.246,0,0,1-1.1-1.375l.973-9.909Zm0,0" transform="translate(-401.582 -374.598)" fill="#f29500"/>
    <path id="Trazado_1466" data-name="Trazado 1466" d="M228.655,423.277l-.837,7.89-2.506.005.867-8.17a1.245,1.245,0,1,1,2.476.275Zm0,0" transform="translate(-223.819 -407.56)" fill="#f29500"/>
    <path id="Trazado_1467" data-name="Trazado 1467" d="M372.367,439.13l-.553,5.307-2.506,0,.583-5.587a1.245,1.245,0,0,1,2.476.275Zm0,0" transform="translate(-344.741 -420.875)" fill="#f29500"/>
    <path id="Trazado_1468" data-name="Trazado 1468" d="M311.9,353.153l-.373,4.182a1.246,1.246,0,0,1-1.236,1.108,1.316,1.316,0,0,1-.14-.009,1.244,1.244,0,0,1-1.1-1.375l.4-4.466Zm0,0" transform="translate(-294.13 -349.366)" fill="#f29500"/>
    <path id="Trazado_1469" data-name="Trazado 1469" d="M280.474,440.82l-.523,5.063-2.505.005.553-5.343a1.245,1.245,0,1,1,2.476.275Zm0,0" transform="translate(-267.598 -422.292)" fill="#f29500"/>
    <path id="Trazado_1470" data-name="Trazado 1470" d="M219.336,332.941l-.862,7.731a1.247,1.247,0,0,1-1.237,1.107,1.315,1.315,0,0,1-.14-.008A1.245,1.245,0,0,1,216,340.4l.877-7.872c0-.024.007-.049.012-.074a11.7,11.7,0,0,1,1.225.213Zm0,0" transform="translate(-215.99 -332.449)" fill="#f29500"/>
  </g>
</svg>
