<svg xmlns="http://www.w3.org/2000/svg" width="79.359" height="75.579" viewBox="0 0 79.359 75.579">
  <g id="icon_cuidadomascotas" transform="translate(0)">
    <path id="Trazado_1825" data-name="Trazado 1825" d="M320.751,297.35c0,9.74-7.331,9.92-16.375,9.92S288,307.09,288,297.35,295.332,272,304.375,272,320.751,287.611,320.751,297.35Z" transform="translate(-243.912 -231.691)" fill="#7e8589"/>
    <path id="Trazado_1826" data-name="Trazado 1826" d="M323.71,288.751a2.519,2.519,0,0,1,2.517,2.633,2.572,2.572,0,0,1-2.6,2.405h-7.471a2.528,2.528,0,0,1-2.528-2.528v-2.5a.008.008,0,0,0,0-.006l-.006,0a2.528,2.528,0,0,1-2.505-2.518h-.011a2.528,2.528,0,0,1-2.505,2.518l-.006,0a.008.008,0,0,0,0,.006v2.5a2.528,2.528,0,0,1-2.528,2.528H298.6a2.571,2.571,0,0,1-2.6-2.405,2.519,2.519,0,0,1,2.517-2.633h1.251a.009.009,0,0,0,.009-.008V266.077A10.077,10.077,0,0,1,309.854,256h2.519a10.077,10.077,0,0,1,10.077,10.077v22.665a.008.008,0,0,0,.009.008Z" transform="translate(-250.65 -218.211)" fill="#9aa3a8"/>
    <path id="Trazado_1827" data-name="Trazado 1827" d="M385.26,415.558A1.26,1.26,0,0,1,384,414.3V409.26a1.26,1.26,0,0,1,2.519,0V414.3A1.26,1.26,0,0,1,385.26,415.558Z" transform="translate(-324.796 -346.277)" fill="#b6b9ba"/>
    <path id="Trazado_1828" data-name="Trazado 1828" d="M309.039,458.519H305.26a1.26,1.26,0,1,1,0-2.519h3.779a1.26,1.26,0,0,1,0,2.519Z" transform="translate(-257.393 -386.719)" fill="#b6b9ba"/>
    <path id="Trazado_1829" data-name="Trazado 1829" d="M375.558,344.1c0,3.478-1.692,4.5-3.779,4.5S368,347.576,368,344.1s1.692-8.1,3.779-8.1S375.558,340.619,375.558,344.1Z" transform="translate(-311.316 -285.614)" fill="#7e8589"/>
    <rect id="Rectángulo_572" data-name="Rectángulo 572" width="26" height="7" rx="3.5" transform="translate(52.182 68.212)" fill="#b6b9ba"/>
    <path id="Trazado_1830" data-name="Trazado 1830" d="M351.558,448v7.558H347.6a3.6,3.6,0,0,1-3.6-3.6V451.6a3.6,3.6,0,0,1,3.6-3.6Z" transform="translate(-291.095 -379.979)" fill="#7e8589"/>
    <path id="Trazado_1831" data-name="Trazado 1831" d="M331.712,121.648V105.57a1.556,1.556,0,0,0-2.381-1.319l-6.437,4.8H312.818l-6.437-4.8A1.556,1.556,0,0,0,304,105.57v16.077Z" transform="translate(-257.393 -90.156)" fill="#9aa3a8"/>
    <path id="Trazado_1832" data-name="Trazado 1832" d="M331.712,135.345c0,8.348-4.928,9.848-13.856,9.848S304,143.693,304,135.345,308.928,120,317.856,120,331.712,127,331.712,135.345Z" transform="translate(-257.393 -103.625)" fill="#b6b9ba"/>
    <path id="Trazado_1833" data-name="Trazado 1833" d="M386.519,120.049v7.509a1.26,1.26,0,1,1-2.519,0v-7.509q.616-.05,1.26-.049T386.519,120.049Z" transform="translate(-324.796 -103.624)" fill="#7e8589"/>
    <path id="Trazado_1834" data-name="Trazado 1834" d="M418.519,123.875v3.64a1.26,1.26,0,0,1-2.519,0V122.94A12.9,12.9,0,0,1,418.519,123.875Z" transform="translate(-351.758 -106.102)" fill="#7e8589"/>
    <path id="Trazado_1835" data-name="Trazado 1835" d="M354.519,122.94v4.576a1.26,1.26,0,0,1-2.519,0v-3.64A12.9,12.9,0,0,1,354.519,122.94Z" transform="translate(-297.835 -106.102)" fill="#7e8589"/>
    <path id="Trazado_1836" data-name="Trazado 1836" d="M279.558,187.776a1.266,1.266,0,0,1-.248-.025l-6.3-1.26a1.26,1.26,0,1,1,.494-2.471l6.3,1.26a1.26,1.26,0,0,1-.246,2.5Z" transform="translate(-230.43 -157.545)" fill="#7e8589"/>
    <path id="Trazado_1837" data-name="Trazado 1837" d="M273.252,227.777a1.26,1.26,0,0,1-.246-2.5l6.3-1.26a1.26,1.26,0,0,1,.494,2.47l-6.3,1.26A1.264,1.264,0,0,1,273.252,227.777Z" transform="translate(-230.425 -191.247)" fill="#7e8589"/>
    <path id="Trazado_1838" data-name="Trazado 1838" d="M457.252,187.776a1.26,1.26,0,0,1-.246-2.5l6.3-1.26a1.26,1.26,0,1,1,.494,2.471l-6.3,1.26A1.265,1.265,0,0,1,457.252,187.776Z" transform="translate(-385.453 -157.545)" fill="#7e8589"/>
    <path id="Trazado_1839" data-name="Trazado 1839" d="M463.558,227.777a1.265,1.265,0,0,1-.248-.025l-6.3-1.26a1.26,1.26,0,0,1,.494-2.47l6.3,1.26a1.26,1.26,0,0,1-.246,2.5Z" transform="translate(-385.458 -191.247)" fill="#7e8589"/>
    <path id="Trazado_1840" data-name="Trazado 1840" d="M8,448H30.674v7.558H15.558A7.558,7.558,0,0,1,8,448Z" transform="translate(-8 -379.979)" fill="#8c5237"/>
    <path id="Trazado_1841" data-name="Trazado 1841" d="M85.789,268.972c0,11.131-8.459,11.337-18.895,11.337S48,280.1,48,268.972,56.459,240,66.895,240,85.789,257.841,85.789,268.972Z" transform="translate(-41.702 -204.73)" fill="#b37a60"/>
    <path id="Trazado_1842" data-name="Trazado 1842" d="M88.751,248.309a2.519,2.519,0,1,1,0,5.039H78.674a2.519,2.519,0,0,1-2.519-2.519v-2.519a2.528,2.528,0,0,1-2.514-2.518h-.011a2.528,2.528,0,0,1-2.514,2.518v2.519a2.519,2.519,0,0,1-2.519,2.519H58.519a2.519,2.519,0,1,1,0-5.039h1.26V220.6a12.6,12.6,0,0,1,12.6-12.6h2.519a12.6,12.6,0,0,1,12.6,12.6v27.712Z" transform="translate(-48.442 -177.768)" fill="#d49073"/>
    <path id="Trazado_1843" data-name="Trazado 1843" d="M161.26,395.337a1.26,1.26,0,0,1-1.26-1.26V385.26a1.26,1.26,0,0,1,2.519,0v8.818A1.26,1.26,0,0,1,161.26,395.337Z" transform="translate(-136.067 -326.056)" fill="#c48669"/>
    <path id="Trazado_1844" data-name="Trazado 1844" d="M77.039,458.519H73.26a1.26,1.26,0,1,1,0-2.519h3.779a1.26,1.26,0,0,1,0,2.519Z" transform="translate(-61.923 -386.719)" fill="#c48669"/>
    <path id="Trazado_1845" data-name="Trazado 1845" d="M229.039,458.519H225.26a1.26,1.26,0,0,1,0-2.519h3.779a1.26,1.26,0,1,1,0,2.519Z" transform="translate(-189.989 -386.719)" fill="#c48669"/>
    <path id="Trazado_1846" data-name="Trazado 1846" d="M140.6,299.337c0,4.87-2.82,6.3-6.3,6.3s-6.3-1.428-6.3-6.3S130.82,288,134.3,288,140.6,294.467,140.6,299.337Z" transform="translate(-109.105 -245.172)" fill="#b37a60"/>
    <path id="Trazado_1847" data-name="Trazado 1847" d="M52.154,32H43.622a6.759,6.759,0,0,0-4.064,2.535l-6.612,8.871a7.6,7.6,0,0,0,6.622,11.268H52.154Z" transform="translate(-28.221 -29.481)" fill="#8c5237"/>
    <path id="Trazado_1848" data-name="Trazado 1848" d="M176,32h8.533a6.759,6.759,0,0,1,4.064,2.535l6.612,8.871a7.6,7.6,0,0,1-6.622,11.268H176Z" transform="translate(-149.547 -29.481)" fill="#8c5237"/>
    <path id="Trazado_1849" data-name="Trazado 1849" d="M87.116,16c-6.3,0-8.818,3.779-11.337,11.337S72,34.895,72,39.933s2.519,8.772,5.039,8.772H97.193c2.519,0,5.039-3.733,5.039-8.772s-1.26-5.039-3.779-12.6S93.414,16,87.116,16Z" transform="translate(-61.923 -16)" fill="#c48669"/>
    <path id="Trazado_1850" data-name="Trazado 1850" d="M129.635,132.307c0,4.522-3.948,3.779-8.818,3.779s-8.818.743-8.818-3.779,3.948-12.6,8.818-12.6S129.635,127.786,129.635,132.307Z" transform="translate(-95.624 -103.381)" fill="#f0c6a4"/>
    <circle id="Elipse_179" data-name="Elipse 179" cx="1.26" cy="1.26" r="1.26" transform="translate(28.972 11.291)" fill="#8c5237"/>
    <circle id="Elipse_180" data-name="Elipse 180" cx="1.26" cy="1.26" r="1.26" transform="translate(18.895 11.291)" fill="#8c5237"/>
    <path id="Trazado_1851" data-name="Trazado 1851" d="M144.818,150.3c-2.285,0-2.5-1.048-2.519-1.286v-1.234a1.26,1.26,0,0,0,1.26-1.26,2.519,2.519,0,0,0-5.039,0,1.26,1.26,0,0,0,1.26,1.26v1.26a1.211,1.211,0,0,1-.22.5,2.812,2.812,0,0,1-2.3.756,1.26,1.26,0,0,0,0,2.519,5.465,5.465,0,0,0,3.779-1.182,5.465,5.465,0,0,0,3.779,1.182,1.26,1.26,0,1,0,0-2.519Zm-2.519-1.26v0Z" transform="translate(-115.845 -123.846)" fill="#8c5237"/>
    <g id="Grupo_1120" data-name="Grupo 1120" transform="translate(49.126 26.628)">
      <path id="Trazado_1852" data-name="Trazado 1852" d="M424,450.519a1.26,1.26,0,1,0,2.519,0V448H424Z" transform="translate(-407.625 -406.607)" fill="#7e8589"/>
      <path id="Trazado_1853" data-name="Trazado 1853" d="M456,448v2.519a1.26,1.26,0,1,0,2.519,0V448Z" transform="translate(-434.586 -406.607)" fill="#7e8589"/>
      <path id="Trazado_1854" data-name="Trazado 1854" d="M322.519,344H320v2.519h2.519a1.26,1.26,0,0,0,0-2.519Z" transform="translate(-320 -318.982)" fill="#7e8589"/>
      <path id="Trazado_1855" data-name="Trazado 1855" d="M322.519,376H320v2.519h2.519a1.26,1.26,0,0,0,0-2.519Z" transform="translate(-320 -345.944)" fill="#7e8589"/>
      <path id="Trazado_1856" data-name="Trazado 1856" d="M440,377.26a1.26,1.26,0,0,0,1.26,1.26h2.519V376H441.26A1.26,1.26,0,0,0,440,377.26Z" transform="translate(-421.105 -345.944)" fill="#7e8589"/>
      <path id="Trazado_1857" data-name="Trazado 1857" d="M440,345.26a1.26,1.26,0,0,0,1.26,1.26h2.519V344H441.26A1.26,1.26,0,0,0,440,345.26Z" transform="translate(-421.105 -318.982)" fill="#7e8589"/>
      <ellipse id="Elipse_181" data-name="Elipse 181" cx="1.5" cy="1" rx="1.5" ry="1" transform="translate(16.055 -0.416)" fill="#7e8589"/>
      <ellipse id="Elipse_182" data-name="Elipse 182" cx="1.5" cy="1" rx="1.5" ry="1" transform="translate(3.056 -0.416)" fill="#7e8589"/>
      <path id="Trazado_1858" data-name="Trazado 1858" d="M374.859,206.431a4.939,4.939,0,0,1-1.821-1.416V201.26a1.26,1.26,0,0,0-2.519,0V205a4.892,4.892,0,0,1-1.823,1.432,1.26,1.26,0,1,0,1.127,2.253,9.1,9.1,0,0,0,1.952-1.311,9.09,9.09,0,0,0,1.963,1.313,1.26,1.26,0,1,0,1.122-2.256Z" transform="translate(-360.441 -197.656)" fill="#7e8589"/>
      <path id="Trazado_1859" data-name="Trazado 1859" d="M378.519,200A2.467,2.467,0,0,0,376,202.519a1.26,1.26,0,1,0,2.519.025.035.035,0,0,0,0,.01.1.1,0,0,0,0-.018.113.113,0,0,1,0-.018,1.26,1.26,0,1,0,2.519,0A2.467,2.467,0,0,0,378.519,200Z" transform="translate(-367.182 -197.656)" fill="#7e8589"/>
    </g>
  </g>
</svg>
