<svg xmlns="http://www.w3.org/2000/svg" width="66.188" height="76.735" viewBox="0 0 66.188 76.735">
  <g id="icon_creacionjardines" transform="translate(0)">
    <g id="Grupo_986" data-name="Grupo 986" transform="translate(41.233 5.961)">
      <path id="Trazado_1379" data-name="Trazado 1379" d="M327.869,156.177c-1.733.257-6.229,1.314-8.353,5.461l-.051-12.121a.764.764,0,0,0-.764-.761h0a.764.764,0,0,0-.761.767l.035,8.3c-1.912-4.339-6.462-5.414-8.175-5.668a.54.54,0,0,0-.536.6,9.8,9.8,0,0,0,8.723,7.719l.128,30.444a.764.764,0,0,0,.764.761h0a.764.764,0,0,0,.761-.768l-.109-26.03a10.243,10.243,0,0,0,8.9-8.073A.567.567,0,0,0,327.869,156.177Z" transform="translate(-309.251 -133.508)" fill="#74b274"/>
      <g id="Grupo_985" data-name="Grupo 985" transform="translate(2.842)">
        <g id="Grupo_981" data-name="Grupo 981" transform="translate(1.802)">
          <path id="Trazado_1380" data-name="Trazado 1380" d="M343.88,58.3a.535.535,0,0,1-.524-.644,6.868,6.868,0,0,0-3.419-7.641.535.535,0,0,1,.465-.964,7.963,7.963,0,0,1,4,8.823.536.536,0,0,1-.523.426Z" transform="translate(-339.635 -48.999)" fill="#764bc7"/>
        </g>
        <g id="Grupo_982" data-name="Grupo 982" transform="translate(7.02 0.869)">
          <path id="Trazado_1381" data-name="Trazado 1381" d="M374.5,63.989a.535.535,0,0,1-.523-.426,7.963,7.963,0,0,1,4-8.823.535.535,0,0,1,.466.963,6.787,6.787,0,0,0-3.42,7.641.535.535,0,0,1-.415.633A.55.55,0,0,1,374.5,63.989Z" transform="translate(-373.773 -54.687)" fill="#764bc7"/>
        </g>
        <g id="Grupo_983" data-name="Grupo 983" transform="translate(2.087 4.166)">
          <path id="Trazado_1382" data-name="Trazado 1382" d="M352.8,78.861l-.265,7.081a2.8,2.8,0,0,1-2.77,2.7l-5.723.062a2.509,2.509,0,0,1-2.539-2.444c-.079-3.4.925-9.188,8.5-9.987A2.519,2.519,0,0,1,352.8,78.861Z" transform="translate(-341.497 -76.256)" fill="#8051d9"/>
        </g>
        <g id="Grupo_984" data-name="Grupo 984" transform="translate(0 4.166)">
          <path id="Trazado_1383" data-name="Trazado 1383" d="M327.847,78.861l.265,7.081a2.8,2.8,0,0,0,2.77,2.7l5.723.062a2.509,2.509,0,0,0,2.539-2.444c.079-3.4-.925-9.188-8.5-9.987A2.519,2.519,0,0,0,327.847,78.861Z" transform="translate(-327.845 -76.256)" fill="#aa80f9"/>
        </g>
      </g>
    </g>
    <g id="Grupo_992" data-name="Grupo 992" transform="translate(7.157 0)">
      <path id="Trazado_1384" data-name="Trazado 1384" d="M104.937,117.176c-1.733.257-6.229,1.314-8.353,5.461l-.051-12.121a.764.764,0,0,0-.764-.761h0a.764.764,0,0,0-.761.767l.035,8.3c-1.912-4.339-6.462-5.414-8.175-5.668a.54.54,0,0,0-.536.6,9.8,9.8,0,0,0,8.723,7.719l.128,30.444a.764.764,0,0,0,.764.761h0a.764.764,0,0,0,.761-.768l-.109-26.03a10.243,10.243,0,0,0,8.9-8.073.568.568,0,0,0-.564-.628Z" transform="translate(-86.32 -94.508)" fill="#74b274"/>
      <g id="Grupo_991" data-name="Grupo 991" transform="translate(2.842 0)">
        <g id="Grupo_987" data-name="Grupo 987" transform="translate(1.803)">
          <path id="Trazado_1385" data-name="Trazado 1385" d="M120.951,19.3a.535.535,0,0,1-.524-.644,6.787,6.787,0,0,0-3.42-7.641.535.535,0,0,1,.466-.963,7.963,7.963,0,0,1,4,8.822A.535.535,0,0,1,120.951,19.3Z" transform="translate(-116.706 -10)" fill="#aa80f9"/>
        </g>
        <g id="Grupo_988" data-name="Grupo 988" transform="translate(7.02 0.869)">
          <path id="Trazado_1386" data-name="Trazado 1386" d="M151.568,24.989a.535.535,0,0,1-.523-.426,7.963,7.963,0,0,1,4-8.822.535.535,0,0,1,.466.963,6.787,6.787,0,0,0-3.42,7.641.535.535,0,0,1-.524.644Z" transform="translate(-150.841 -15.687)" fill="#aa80f9"/>
        </g>
        <g id="Grupo_989" data-name="Grupo 989" transform="translate(2.087 4.166)">
          <path id="Trazado_1387" data-name="Trazado 1387" d="M129.865,39.861l-.265,7.081a2.8,2.8,0,0,1-2.77,2.7l-5.723.062a2.509,2.509,0,0,1-2.539-2.444c-.079-3.4.925-9.188,8.5-9.987A2.519,2.519,0,0,1,129.865,39.861Z" transform="translate(-118.565 -37.256)" fill="#c963bd"/>
        </g>
        <g id="Grupo_990" data-name="Grupo 990" transform="translate(0 4.166)">
          <path id="Trazado_1388" data-name="Trazado 1388" d="M104.914,39.861l.265,7.081a2.8,2.8,0,0,0,2.77,2.7l5.723.062a2.509,2.509,0,0,0,2.539-2.444c.079-3.4-.925-9.188-8.5-9.987A2.519,2.519,0,0,0,104.914,39.861Z" transform="translate(-104.912 -37.256)" fill="#ea82de"/>
        </g>
      </g>
    </g>
    <g id="Grupo_996" data-name="Grupo 996" transform="translate(0 33.102)">
      <g id="Grupo_994" data-name="Grupo 994" transform="translate(4.726)">
        <path id="Trazado_1389" data-name="Trazado 1389" d="M352.855,511.286h.065q-.006-.064-.012-.129Z" transform="translate(-309.682 -467.653)" fill="#fff"/>
        <path id="Trazado_1390" data-name="Trazado 1390" d="M358.669,310.39c-.411,0-.819.317-1.062.954-.807,2.106-1.489,4.163-2.064,6.168a42.849,42.849,0,0,1-2.342,23.568l.012.129h5.456V310.39Z" transform="translate(-309.975 -297.575)" fill="#3ec3a4"/>
        <path id="Trazado_1391" data-name="Trazado 1391" d="M393.473,341.207a33.235,33.235,0,0,1-1.6-24.489q-.786-2.63-1.833-5.375c-.243-.637-.654-.954-1.064-.954v30.818Z" transform="translate(-340.279 -297.574)" fill="#3ec3a4"/>
        <path id="Trazado_1392" data-name="Trazado 1392" d="M393.473,341.207a33.235,33.235,0,0,1-1.6-24.489q-.786-2.63-1.833-5.375c-.243-.637-.654-.954-1.064-.954v30.818Z" transform="translate(-340.279 -297.574)" opacity="0.1"/>
        <path id="Trazado_1393" data-name="Trazado 1393" d="M166.025,315.519h.682V280.066c-.411,0-.819.311-1.062.935a71.868,71.868,0,0,0-2.3,6.862A63.466,63.466,0,0,1,166.025,315.519Z" transform="translate(-149.143 -271.886)" fill="#00a887"/>
        <path id="Trazado_1394" data-name="Trazado 1394" d="M189.962,315.519a59.062,59.062,0,0,1-1.321-27.8c-.612-2.176-1.356-4.415-2.256-6.715-.243-.624-.654-.935-1.064-.935v35.453Z" transform="translate(-167.757 -271.886)" fill="#00a887"/>
        <path id="Trazado_1395" data-name="Trazado 1395" d="M189.962,315.519a59.062,59.062,0,0,1-1.321-27.8c-.612-2.176-1.356-4.415-2.256-6.715-.243-.624-.654-.935-1.064-.935v35.453Z" transform="translate(-167.757 -271.886)" opacity="0.1"/>
        <path id="Trazado_1396" data-name="Trazado 1396" d="M76.144,226.554c-.411,0-.819.325-1.062.976-7.141,19.079-4.643,34.263-1.96,42.656h3.023Z" transform="translate(-70.415 -226.554)" fill="#9be69d"/>
        <path id="Trazado_1397" data-name="Trazado 1397" d="M108.6,270.187a64.376,64.376,0,0,1,3.746-30.791,75.345,75.345,0,0,0-3.388-11.865c-.243-.652-.654-.976-1.064-.976v43.632Z" transform="translate(-102.165 -226.555)" fill="#9be69d"/>
        <path id="Trazado_1398" data-name="Trazado 1398" d="M108.6,270.187a64.376,64.376,0,0,1,3.746-30.791,75.345,75.345,0,0,0-3.388-11.865c-.243-.652-.654-.976-1.064-.976v43.632Z" transform="translate(-102.165 -226.555)" opacity="0.1"/>
        <path id="Trazado_1399" data-name="Trazado 1399" d="M410.483,330.539h1.581V297.8a1.2,1.2,0,0,0-1.062.709,44.538,44.538,0,0,0-3.079,7.544A63.715,63.715,0,0,1,410.483,330.539Z" transform="translate(-356.332 -286.907)" fill="#9be69d"/>
        <path id="Trazado_1400" data-name="Trazado 1400" d="M400.735,376.278h.956a63.718,63.718,0,0,0-2.56-24.489A33.234,33.234,0,0,0,400.735,376.278Z" transform="translate(-347.541 -332.646)" fill="#9be69d"/>
        <path id="Trazado_1401" data-name="Trazado 1401" d="M436.078,298.505a1.207,1.207,0,0,0-1.064-.709v32.743h2.538C440.384,324.713,443.649,313.2,436.078,298.505Z" transform="translate(-379.282 -286.906)" fill="#9be69d"/>
        <path id="Trazado_1402" data-name="Trazado 1402" d="M436.078,298.505a1.207,1.207,0,0,0-1.064-.709v32.743h2.538C440.384,324.713,443.649,313.2,436.078,298.505Z" transform="translate(-379.282 -286.906)" opacity="0.1"/>
        <path id="Trazado_1403" data-name="Trazado 1403" d="M259.631,297.031H264.2V258.242c-.411,0-.819.335-1.062,1.008a81.466,81.466,0,0,0-2.52,8.287A59.42,59.42,0,0,1,259.631,297.031Z" transform="translate(-230.708 -253.398)" fill="#9be69d"/>
        <path id="Trazado_1404" data-name="Trazado 1404" d="M293.912,297.031c-2.421-5.862-5.039-16.442-.9-29.957a81.766,81.766,0,0,0-2.405-7.823c-.243-.673-.654-1.008-1.064-1.008v38.789Z" transform="translate(-256.052 -253.398)" fill="#9be69d"/>
        <path id="Trazado_1405" data-name="Trazado 1405" d="M293.912,297.031c-2.421-5.862-5.039-16.442-.9-29.957a81.766,81.766,0,0,0-2.405-7.823c-.243-.673-.654-1.008-1.064-1.008v38.789Z" transform="translate(-256.052 -253.398)" opacity="0.1"/>
        <g id="Grupo_993" data-name="Grupo 993" transform="translate(5.93 10.781)">
          <path id="Trazado_1406" data-name="Trazado 1406" d="M127.671,329.934h2.906V297.082c-.411,0-.819.317-1.062.954q-.213.556-.415,1.107A61.777,61.777,0,0,1,127.671,329.934Z" transform="translate(-124.849 -297.082)" fill="#3ec3a4"/>
          <path id="Trazado_1407" data-name="Trazado 1407" d="M109.711,341.356h2.317a61.776,61.776,0,0,0,1.429-30.791A64.375,64.375,0,0,0,109.711,341.356Z" transform="translate(-109.207 -308.504)" fill="#3ec3a4"/>
          <path id="Trazado_1408" data-name="Trazado 1408" d="M147.9,329.933a59.45,59.45,0,0,1,1.325-27.657q-.661-2.086-1.483-4.241c-.243-.637-.654-.954-1.064-.954v32.852Z" transform="translate(-140.954 -297.081)" fill="#3ec3a4"/>
        </g>
        <path id="Trazado_1409" data-name="Trazado 1409" d="M147.9,329.933a59.45,59.45,0,0,1,1.325-27.657q-.661-2.086-1.483-4.241c-.243-.637-.654-.954-1.064-.954v32.852Z" transform="translate(-135.024 -286.3)" opacity="0.1"/>
        <path id="Trazado_1410" data-name="Trazado 1410" d="M148.893,358.724h4a63.465,63.465,0,0,0-2.677-27.657A59.45,59.45,0,0,0,148.893,358.724Z" transform="translate(-136.013 -315.091)" fill="#3ec3a4"/>
        <path id="Trazado_1411" data-name="Trazado 1411" d="M148.893,358.724h4a63.465,63.465,0,0,0-2.677-27.657A59.45,59.45,0,0,0,148.893,358.724Z" transform="translate(-136.013 -315.091)" opacity="0.1"/>
        <path id="Trazado_1412" data-name="Trazado 1412" d="M208.4,281.765h3.315V240.222c-.411,0-.819.317-1.062.954a71.7,71.7,0,0,0-3.618,12.787A59.481,59.481,0,0,1,208.4,281.765Z" transform="translate(-186.155 -238.133)" fill="#3ec3a4"/>
        <path id="Trazado_1413" data-name="Trazado 1413" d="M202.552,357.913h.044a59.479,59.479,0,0,0-1.365-27.8A59.06,59.06,0,0,0,202.552,357.913Z" transform="translate(-180.347 -314.281)" fill="#3ec3a4"/>
        <path id="Trazado_1414" data-name="Trazado 1414" d="M241,281.764a68.679,68.679,0,0,1,1-29.493,72.429,72.429,0,0,0-3.286-11.1c-.243-.636-.654-.954-1.064-.954v41.543Z" transform="translate(-212.092 -238.132)" fill="#3ec3a4"/>
        <path id="Trazado_1415" data-name="Trazado 1415" d="M241,281.764a68.679,68.679,0,0,1,1-29.493,72.429,72.429,0,0,0-3.286-11.1c-.243-.636-.654-.954-1.064-.954v41.543Z" transform="translate(-212.092 -238.132)" opacity="0.1"/>
        <path id="Trazado_1416" data-name="Trazado 1416" d="M253.219,348.546h.011a59.423,59.423,0,0,0,.99-29.493A68.674,68.674,0,0,0,253.219,348.546Z" transform="translate(-224.306 -304.913)" fill="#3ec3a4"/>
        <path id="Trazado_1417" data-name="Trazado 1417" d="M253.219,348.546h.011a59.423,59.423,0,0,0,.99-29.493A68.674,68.674,0,0,0,253.219,348.546Z" transform="translate(-224.306 -304.913)" opacity="0.1"/>
        <path id="Trazado_1418" data-name="Trazado 1418" d="M313.357,304.873h2.437V267.5a1.208,1.208,0,0,0-1.062.816,57.016,57.016,0,0,0-2.489,6.6A68.781,68.781,0,0,1,313.357,304.873Z" transform="translate(-275.277 -261.24)" fill="#00a887"/>
        <path id="Trazado_1419" data-name="Trazado 1419" d="M301.074,345.975h.22a68.779,68.779,0,0,0-1.115-29.957C296.035,329.533,298.653,340.113,301.074,345.975Z" transform="translate(-263.214 -302.343)" fill="#00a887"/>
        <path id="Trazado_1420" data-name="Trazado 1420" d="M340.528,281.176a53.666,53.666,0,0,0-3.988-12.862,1.211,1.211,0,0,0-1.064-.816v37.374h2.656l.053-.129A63.55,63.55,0,0,1,340.528,281.176Z" transform="translate(-294.96 -261.24)" fill="#00a887"/>
        <path id="Trazado_1421" data-name="Trazado 1421" d="M340.528,281.176a53.666,53.666,0,0,0-3.988-12.862,1.211,1.211,0,0,0-1.064-.816v37.374h2.656l.053-.129A63.55,63.55,0,0,1,340.528,281.176Z" transform="translate(-294.96 -261.24)" opacity="0.1"/>
        <path id="Trazado_1422" data-name="Trazado 1422" d="M351.762,380.544a42.849,42.849,0,0,0,2.342-23.568A63.551,63.551,0,0,0,351.762,380.544Z" transform="translate(-308.536 -337.04)" fill="#00a887"/>
        <path id="Trazado_1423" data-name="Trazado 1423" d="M351.762,380.544a42.849,42.849,0,0,0,2.342-23.568A63.551,63.551,0,0,0,351.762,380.544Z" transform="translate(-308.536 -337.04)" opacity="0.1"/>
      </g>
      <g id="Grupo_995" data-name="Grupo 995" transform="translate(0 16.271)">
        <path id="Trazado_1424" data-name="Trazado 1424" d="M45.227,333a1.208,1.208,0,0,0-1.062.816c-4.7,10.487-5.223,19.565-4.27,26.546h5.332Z" transform="translate(-39.499 -332.999)" fill="#00a887"/>
        <path id="Trazado_1425" data-name="Trazado 1425" d="M78.04,333.815A1.211,1.211,0,0,0,76.976,333v27.362h5.333C83.263,353.379,82.738,344.3,78.04,333.815Z" transform="translate(-71.247 -332.999)" fill="#00a887"/>
        <path id="Trazado_1426" data-name="Trazado 1426" d="M78.04,333.815A1.211,1.211,0,0,0,76.976,333v27.362h5.333C83.263,353.379,82.738,344.3,78.04,333.815Z" transform="translate(-71.247 -332.999)" opacity="0.1"/>
      </g>
    </g>
  </g>
</svg>
