<svg id="icon_relacionnaturaleza" xmlns="http://www.w3.org/2000/svg" width="75.655" height="75.655" viewBox="0 0 75.655 75.655">
  <path id="Trazado_1427" data-name="Trazado 1427" d="M406,166h4.433v8.866H406Z" transform="translate(-346.008 -141.471)" fill="#704c55"/>
  <path id="Trazado_1428" data-name="Trazado 1428" d="M421,166h2.216v8.866H421Z" transform="translate(-358.791 -141.471)" fill="#5a344b"/>
  <path id="Trazado_1429" data-name="Trazado 1429" d="M369.866,0C364.148,0,361,10.388,361,15.663c0,6.117,3.99,11.082,8.866,11.082s8.866-4.965,8.866-11.082C378.732,10.388,375.584,0,369.866,0Z" transform="translate(-307.657)" fill="#8cd96b"/>
  <path id="Trazado_1430" data-name="Trazado 1430" d="M429.866,15.663c0,6.117-3.99,11.082-8.866,11.082V0C426.718,0,429.866,10.388,429.866,15.663Z" transform="translate(-358.791)" fill="#45c481"/>
  <path id="Trazado_1431" data-name="Trazado 1431" d="M226,166h4.433v8.866H226Z" transform="translate(-192.605 -141.471)" fill="#704c55"/>
  <path id="Trazado_1432" data-name="Trazado 1432" d="M241,166h2.216v8.866H241Z" transform="translate(-205.389 -141.471)" fill="#5a344b"/>
  <path id="Trazado_1433" data-name="Trazado 1433" d="M189.866,0C184.148,0,181,10.388,181,15.663c0,6.117,3.99,11.082,8.866,11.082s8.866-4.965,8.866-11.082C198.732,10.388,195.584,0,189.866,0Z" transform="translate(-154.255)" fill="#8cd96b"/>
  <path id="Trazado_1434" data-name="Trazado 1434" d="M249.866,15.663c0,6.117-3.99,11.082-8.866,11.082V0C246.718,0,249.866,10.388,249.866,15.663Z" transform="translate(-205.389)" fill="#45c481"/>
  <path id="Trazado_1435" data-name="Trazado 1435" d="M167.157,211H125.746l1.162,8.866h29.167a4.433,4.433,0,0,1,0,8.866h-4.433A22.247,22.247,0,0,0,129.478,250.9v4.581h26.6V250.9a8.875,8.875,0,0,1,8.866-8.866h2.216a15.516,15.516,0,1,0,0-31.03Z" transform="translate(-107.165 -179.822)" fill="#a8ebfa"/>
  <path id="Trazado_1436" data-name="Trazado 1436" d="M254.3,250.9a8.875,8.875,0,0,1,8.866-8.866h2.216a15.516,15.516,0,1,0,0-31.03H241v8.866h13.3a4.433,4.433,0,1,1,0,8.866h-4.433A21.987,21.987,0,0,0,241,230.61v24.866h13.3Z" transform="translate(-205.389 -179.822)" fill="#76e2f8"/>
  <path id="Trazado_1437" data-name="Trazado 1437" d="M61,376h4.433v8.866H61Z" transform="translate(-51.986 -320.441)" fill="#9b786f"/>
  <path id="Trazado_1438" data-name="Trazado 1438" d="M76,376h2.216v8.866H76Z" transform="translate(-64.77 -320.441)" fill="#704c55"/>
  <path id="Trazado_1439" data-name="Trazado 1439" d="M11.23,151C4.359,151,0,163.9,0,173.165c0,11.57,7.107,13.3,11.23,13.3s11.082-1.729,11.082-13.3C22.312,163.9,18.1,151,11.23,151Z" transform="translate(0 -128.688)" fill="#8cd96b"/>
  <path id="Trazado_1440" data-name="Trazado 1440" d="M87.082,173.165c0,11.57-6.96,13.3-11.082,13.3V151C82.871,151,87.082,163.9,87.082,173.165Z" transform="translate(-64.77 -128.688)" fill="#45c481"/>
</svg>
