<svg xmlns="http://www.w3.org/2000/svg" width="83.055" height="77.328" viewBox="0 0 83.055 77.328">
  <g id="icon_actfisica" transform="translate(0)">
    <path id="Trazado_1471" data-name="Trazado 1471" d="M96.1,296v7.16l-5.728,10.024-3.41,5.966a7.158,7.158,0,0,1-6.965,3.569l-22.561-2.375L56,313.184H77.48l1.842-5.524L83.208,296Z" transform="translate(-50.272 -250.176)" fill="#ffceb6"/>
    <path id="Trazado_1472" data-name="Trazado 1472" d="M203.064,296v7.16l-5.728,10.024L186.29,307.66,190.176,296Z" transform="translate(-157.241 -250.176)" fill="#c35bb7"/>
    <path id="Trazado_1473" data-name="Trazado 1473" d="M31.16,399.16l-4.3,7.16H24V392h5.728Z" transform="translate(-24 -328.992)" fill="#e0edff"/>
    <path id="Trazado_1474" data-name="Trazado 1474" d="M250.96,280.936l-7.16,4.3-4.3-21.48H215.16a7.16,7.16,0,0,1-7.16-7.16V248h14.32l11.456,2.545,9.292,2.066a7.159,7.159,0,0,1,5.567,6.24Z" transform="translate(-175.064 -210.768)" fill="#ffceb6"/>
    <path id="Trazado_1475" data-name="Trazado 1475" d="M233.776,250.545v13.207H215.16a7.16,7.16,0,0,1-7.16-7.16V248h14.32Z" transform="translate(-175.064 -210.768)" fill="#ea82de"/>
    <path id="Trazado_1476" data-name="Trazado 1476" d="M216.592,120l7.073,7.073a5.186,5.186,0,0,1,0,7.334l-1.345,1.345v7.16H208V131.456A14.32,14.32,0,0,1,213.728,120Z" transform="translate(-175.064 -105.68)" fill="#aa80f9"/>
    <path id="Trazado_1477" data-name="Trazado 1477" d="M172.888,50.148l-3.6-1.8A3.268,3.268,0,0,0,167.822,48h-.049a3.478,3.478,0,0,0-3.479,3.48c0,1.029,0,2.188,0,3.331A14.665,14.665,0,0,1,160,65.184h4.3a7.16,7.16,0,0,0,7.16-7.16V55.16Z" transform="translate(-135.656 -46.568)" fill="#b1712c"/>
    <path id="Trazado_1478" data-name="Trazado 1478" d="M226.864,74.864,229.728,72h5.728v5.728a5.728,5.728,0,0,1-11.456,0V74.864Z" transform="translate(-188.2 -66.272)" fill="#ffceb6"/>
    <path id="Trazado_1479" data-name="Trazado 1479" d="M235.456,45.728a5.728,5.728,0,0,0-11.456,0v2.864h2.864l2.864-2.864Z" transform="translate(-188.2 -40)" fill="#c78640"/>
    <path id="Trazado_1480" data-name="Trazado 1480" d="M206.944,142.859l-6.352,8.893,4.3,8.592,4.3,1.432,1.432,1.432-1.432,2.864h-8.592l-6.444-8.592a10.74,10.74,0,0,1,0-12.888l4.751-6.334A5.644,5.644,0,0,1,203.414,136a4.338,4.338,0,0,1,3.53,6.859Z" transform="translate(-161.928 -118.816)" fill="#ffceb6"/>
    <path id="Trazado_1481" data-name="Trazado 1481" d="M408,436.3l7.16-4.3,7.16,4.3v2.864H408Z" transform="translate(-339.265 -361.832)" fill="#e0edff"/>
  </g>
</svg>
