<svg xmlns="http://www.w3.org/2000/svg" width="65.327" height="81.169" viewBox="0 0 65.327 81.169">
  <g id="icon_reciclaje" transform="translate(0)">
    <g id="Grupo_943" data-name="Grupo 943" transform="translate(4.575 0)">
      <g id="Grupo_942" data-name="Grupo 942">
        <g id="Grupo_941" data-name="Grupo 941">
          <path id="Trazado_1318" data-name="Trazado 1318" d="M80.022,9.039,78.82,24.5H135L133.8,9.039A9.8,9.8,0,0,0,124.026,0H89.792a9.8,9.8,0,0,0-9.77,9.039Z" transform="translate(-78.82 0)" fill="#92dd7a"/>
        </g>
      </g>
    </g>
    <g id="Grupo_946" data-name="Grupo 946" transform="translate(4.575)">
      <g id="Grupo_945" data-name="Grupo 945">
        <g id="Grupo_944" data-name="Grupo 944">
          <path id="Trazado_1319" data-name="Trazado 1319" d="M106.909,19.6a3.266,3.266,0,0,1,0-6.533V0H89.792a9.8,9.8,0,0,0-9.77,9.039L78.82,24.5h28.089Z" transform="translate(-78.82)" fill="#45c481"/>
        </g>
      </g>
    </g>
    <g id="Grupo_949" data-name="Grupo 949" transform="translate(4.575 24.498)">
      <g id="Grupo_948" data-name="Grupo 948">
        <g id="Grupo_947" data-name="Grupo 947">
          <path id="Trazado_1320" data-name="Trazado 1320" d="M131.612,198.056,135,154.527H78.82l3.386,43.529,24.7,6.571Z" transform="translate(-78.82 -154.527)" fill="#92dd7a"/>
        </g>
      </g>
    </g>
    <g id="Grupo_952" data-name="Grupo 952" transform="translate(4.575 24.498)">
      <g id="Grupo_951" data-name="Grupo 951">
        <g id="Grupo_950" data-name="Grupo 950">
          <path id="Trazado_1321" data-name="Trazado 1321" d="M134.109,165.959,135,154.527H78.82l3.386,43.529L91.39,200.5,88.7,165.959Z" transform="translate(-78.82 -154.527)" fill="#45c481"/>
        </g>
      </g>
    </g>
    <g id="Grupo_955" data-name="Grupo 955" transform="translate(0 19.598)">
      <g id="Grupo_954" data-name="Grupo 954">
        <g id="Grupo_953" data-name="Grupo 953">
          <path id="Trazado_1322" data-name="Trazado 1322" d="M110.392,133.422H54.863a4.9,4.9,0,0,1,0-9.8h55.528a4.9,4.9,0,1,1,0,9.8Z" transform="translate(-49.964 -123.623)" fill="#b1ef97"/>
        </g>
      </g>
    </g>
    <g id="Grupo_958" data-name="Grupo 958" transform="translate(0 19.598)">
      <g id="Grupo_957" data-name="Grupo 957">
        <g id="Grupo_956" data-name="Grupo 956">
          <path id="Trazado_1323" data-name="Trazado 1323" d="M72.033,128.521a4.9,4.9,0,0,1,4.9-4.9H54.863a4.9,4.9,0,1,0,0,9.8H76.932A4.9,4.9,0,0,1,72.033,128.521Z" transform="translate(-49.964 -123.622)" fill="#92dd7a"/>
        </g>
      </g>
    </g>
    <g id="Grupo_961" data-name="Grupo 961" transform="translate(16.007)">
      <g id="Grupo_960" data-name="Grupo 960">
        <g id="Grupo_959" data-name="Grupo 959">
          <path id="Trazado_1324" data-name="Trazado 1324" d="M183.581,8.546,184.246,0H150.932l.665,8.546a4.9,4.9,0,0,0,4.885,4.52H178.7A4.9,4.9,0,0,0,183.581,8.546Z" transform="translate(-150.932)" fill="#008944"/>
        </g>
      </g>
    </g>
    <g id="Grupo_964" data-name="Grupo 964" transform="translate(7.96 68.026)">
      <g id="Grupo_963" data-name="Grupo 963">
        <g id="Grupo_962" data-name="Grupo 962">
          <path id="Trazado_1325" data-name="Trazado 1325" d="M100.176,429.1l.319,4.1a9.8,9.8,0,0,0,9.77,9.039h29.229a9.8,9.8,0,0,0,9.77-9.039l.319-4.1H100.176Z" transform="translate(-100.176 -429.096)" fill="#45c481"/>
        </g>
      </g>
    </g>
    <g id="Grupo_967" data-name="Grupo 967" transform="translate(7.96 68.026)">
      <g id="Grupo_966" data-name="Grupo 966">
        <g id="Grupo_965" data-name="Grupo 965">
          <path id="Trazado_1326" data-name="Trazado 1326" d="M100.5,433.2a9.8,9.8,0,0,0,9.77,9.039h8.994a9.8,9.8,0,0,1-9.77-9.039l-.319-4.1h-8.994Z" transform="translate(-100.176 -429.096)" fill="#25aa64"/>
        </g>
      </g>
    </g>
    <g id="Grupo_977" data-name="Grupo 977" transform="translate(21.276 3.781)">
      <g id="Grupo_970" data-name="Grupo 970">
        <g id="Grupo_969" data-name="Grupo 969">
          <g id="Grupo_968" data-name="Grupo 968">
            <path id="Trazado_1327" data-name="Trazado 1327" d="M185.356,28.185A1.189,1.189,0,0,1,184.167,27v-1.96a1.189,1.189,0,0,1,2.378,0V27A1.189,1.189,0,0,1,185.356,28.185Z" transform="translate(-184.167 -23.847)" fill="#fff"/>
          </g>
        </g>
      </g>
      <g id="Grupo_973" data-name="Grupo 973" transform="translate(20.398)">
        <g id="Grupo_972" data-name="Grupo 972">
          <g id="Grupo_971" data-name="Grupo 971">
            <path id="Trazado_1328" data-name="Trazado 1328" d="M314.022,28.185A1.189,1.189,0,0,1,312.833,27v-1.96a1.189,1.189,0,1,1,2.378,0V27A1.189,1.189,0,0,1,314.022,28.185Z" transform="translate(-312.833 -23.847)" fill="#fff"/>
          </g>
        </g>
      </g>
      <g id="Grupo_976" data-name="Grupo 976" transform="translate(7.51 1.901)">
        <g id="Grupo_975" data-name="Grupo 975">
          <g id="Grupo_974" data-name="Grupo 974">
            <path id="Trazado_1329" data-name="Trazado 1329" d="M235.417,39.443a4.755,4.755,0,0,1-3.585-1.633,1.189,1.189,0,1,1,1.793-1.562,2.375,2.375,0,0,0,3.585,0A1.189,1.189,0,0,1,239,37.81a4.756,4.756,0,0,1-3.586,1.633Z" transform="translate(-231.539 -35.839)" fill="#fff"/>
          </g>
        </g>
      </g>
    </g>
    <g id="Grupo_978" data-name="Grupo 978" transform="translate(19.953 35.76)">
      <path id="Trazado_1330" data-name="Trazado 1330" d="M225.69,228.987l1.958,3.391-1.055-.459a1.189,1.189,0,0,0-.95,2.18l4.364,1.9a1.189,1.189,0,0,0,1.656-.956l.535-4.73a1.189,1.189,0,1,0-2.363-.267l-.129,1.143-1.958-3.391a4.455,4.455,0,0,0-7.717,0l-2.118,3.67a1.189,1.189,0,1,0,2.059,1.189l2.118-3.67a2.077,2.077,0,0,1,3.6,0Z" transform="translate(-211.106 -225.57)" fill="#fff"/>
      <path id="Trazado_1331" data-name="Trazado 1331" d="M265.642,306.327l-2.118-3.669a1.189,1.189,0,0,0-2.059,1.189l2.118,3.669a2.077,2.077,0,0,1-1.8,3.116h-3.916l.925-.683a1.189,1.189,0,1,0-1.413-1.913l-3.829,2.829a1.189,1.189,0,0,0,0,1.913l3.829,2.829a1.189,1.189,0,1,0,1.413-1.913l-.925-.683h3.916a4.455,4.455,0,0,0,3.858-6.683Z" transform="translate(-240.823 -289.936)" fill="#fff"/>
      <path id="Trazado_1332" data-name="Trazado 1332" d="M184.678,295.514h-4.237a2.077,2.077,0,0,1-1.8-3.116l1.958-3.391.129,1.143a1.189,1.189,0,0,0,1.18,1.055,1.221,1.221,0,0,0,.135-.008,1.189,1.189,0,0,0,1.048-1.315l-.535-4.73a1.189,1.189,0,0,0-1.657-.956l-4.364,1.9a1.189,1.189,0,0,0,.95,2.18l1.055-.459-1.958,3.391a4.455,4.455,0,0,0,3.859,6.683h4.237a1.189,1.189,0,0,0,0-2.378Z" transform="translate(-175.822 -274.818)" fill="#fff"/>
    </g>
  </g>
</svg>
