<svg id="icon_reutilizacion" xmlns="http://www.w3.org/2000/svg" width="83.004" height="78.996" viewBox="0 0 83.004 78.996">
  <path id="Trazado_1333" data-name="Trazado 1333" d="M4.308,186.421a.334.334,0,0,1,.135.443L.759,194.121a7,7,0,0,0,.18,6.673l11.413,19.767,5.371-16.717,3.779-7.421a.334.334,0,0,1,.461-.14l3.425,1.917a.7.7,0,0,0,1-.844l-6.136-17.413a1.751,1.751,0,0,0-2.079-1.116L.949,183.158a.7.7,0,0,0-.171,1.291Z" transform="translate(0 -150.919)" fill="#99db7e"/>
  <path id="Trazado_1334" data-name="Trazado 1334" d="M75.218,328.889l15.163.79a2.627,2.627,0,0,1,2.483,2.831l-1.148,14.471a2.627,2.627,0,0,1-2.755,2.416l-14.121-.736a6.135,6.135,0,0,1-5.15-8.909Z" transform="translate(-57.495 -275.965)" fill="#45c481"/>
  <path id="Trazado_1335" data-name="Trazado 1335" d="M217.44,22.1a.334.334,0,0,1-.451-.1l-4.444-6.819A7.005,7.005,0,0,0,206.676,12H183.85l11.793,13.01,4.538,6.983a.334.334,0,0,1-.109.469L196.7,34.468a.7.7,0,0,0,.229,1.291l18.15,3.394a1.752,1.752,0,0,0,2.007-1.242l4.86-17.083a.7.7,0,0,0-1.033-.793Z" transform="translate(-153.145 -11.999)" fill="#99db7e"/>
  <path id="Trazado_1336" data-name="Trazado 1336" d="M129.492,25.009l-8.265,12.736a2.627,2.627,0,0,1-3.694.735l-11.959-8.229a2.627,2.627,0,0,1-.715-3.594l7.7-11.86a6.136,6.136,0,0,1,10.292-.005Z" transform="translate(-86.994 -11.999)" fill="#45c481"/>
  <path id="Trazado_1337" data-name="Trazado 1337" d="M263.493,332.79a.334.334,0,0,1,.333-.321l8.14-.013a7.005,7.005,0,0,0,5.864-3.19l12.432-19.142-17.335,2.8-8.328,0a.334.334,0,0,1-.334-.347l.153-3.922a.7.7,0,0,0-1.207-.511L250.48,321.523a1.751,1.751,0,0,0-.051,2.359l11.682,13.38a.7.7,0,0,0,1.228-.434Z" transform="translate(-208.245 -258.508)" fill="#99db7e"/>
  <path id="Trazado_1338" data-name="Trazado 1338" d="M355.333,222.572l-6.18-13.868a2.627,2.627,0,0,1,1.4-3.5l13.416-5.547a2.627,2.627,0,0,1,3.4,1.358l5.755,12.915a6.135,6.135,0,0,1-5.6,8.634Z" transform="translate(-290.65 -168.152)" fill="#45c481"/>
</svg>
