<svg id="crossborder" xmlns="http://www.w3.org/2000/svg" width="63.296" height="62.523" viewBox="0 0 63.296 62.523">
  <path id="Trazado_3730" data-name="Trazado 3730" d="M369.428,330.54l-2.867,1.1-1.1,2.867,5.77,7.938,7.97,5.8,3.969-3.969Z" transform="translate(-319.872 -289.695)" fill="#4b5586"/>
  <path id="Trazado_3731" data-name="Trazado 3731" d="M333.64,366.329l13.74,13.74,3.969-3.969-13.74-13.74-2.867,1.1Z" transform="translate(-292.022 -317.546)" fill="#293e65"/>
  <path id="Trazado_3732" data-name="Trazado 3732" d="M27.331,4.744a5.609,5.609,0,0,0-7.938,0L39.225,26.99l20.69,18.276,3.164-.805.805-3.164L27.331,4.744Z" transform="translate(-16.974 -3.098)" fill="#a725f8"/>
  <path id="Trazado_3733" data-name="Trazado 3733" d="M7.876,16.294a5.62,5.62,0,0,0,0,7.938L44.429,60.785l3.164-.805.805-3.164Z" transform="translate(-5.457 -14.648)" fill="#6e00ef"/>
  <path id="Trazado_3734" data-name="Trazado 3734" d="M344.246,285.445l.464,2.161,2.182.485,7.938-7.938-2.646-2.646Z" transform="translate(-301.305 -243.277)" fill="#293e65"/>
  <path id="Trazado_3735" data-name="Trazado 3735" d="M0,0H11.227V3.742H0Z" transform="translate(34.994 50.105) rotate(-45)" fill="#0f2349"/>
  <g id="Grupo_1933" data-name="Grupo 1933" transform="translate(0 0.005)">
    <path id="Trazado_3736" data-name="Trazado 3736" d="M175.851,4.776a5.62,5.62,0,0,0-7.938,0L131.36,41.329l.805,3.164,3.164.805,20.995-19.23Z" transform="translate(-114.974 -3.134)" fill="#ff6997"/>
    <path id="Trazado_3737" data-name="Trazado 3737" d="M13.74,330.54,0,344.28l3.969,3.969,7.752-5.988,5.988-7.752-1.1-2.867Z" transform="translate(0 -289.7)" fill="#4b5586"/>
    <path id="Trazado_3738" data-name="Trazado 3738" d="M49.529,366.329l-1.1-2.866-2.867-1.1L31.82,376.1l3.969,3.969Z" transform="translate(-27.851 -317.551)" fill="#293e65"/>
    <path id="Trazado_3739" data-name="Trazado 3739" d="M203.7,24.231a5.609,5.609,0,0,0,0-7.938L163.179,56.815l.806,3.164,3.164.805L203.7,24.231Z" transform="translate(-142.824 -14.652)" fill="#f26"/>
    <path id="Trazado_3740" data-name="Trazado 3740" d="M80.973,277.507l-2.646,2.646,7.938,7.938,2.205-.441.441-2.205Z" transform="translate(-68.557 -243.282)" fill="#293e65"/>
    <path id="Trazado_3741" data-name="Trazado 3741" d="M0,0H3.742V11.227H0Z" transform="translate(17.702 44.807) rotate(-45)" fill="#0f2349"/>
  </g>
</svg>
