<svg id="_003-discord" data-name="003-discord" xmlns="http://www.w3.org/2000/svg" width="36.71" height="36.71" viewBox="0 0 36.71 36.71">
  <path id="Trazado_2346" data-name="Trazado 2346" d="M163.024,239.947v-.012a2.6,2.6,0,1,1,0,.012Z" transform="translate(-149.143 -222.759)" fill="#ea82de"/>
  <path id="Trazado_2347" data-name="Trazado 2347" d="M24.355,6A18.355,18.355,0,1,0,42.71,24.355,18.355,18.355,0,0,0,24.355,6Zm6.791,28.04s-.925-1.029-1.59-1.936a7.992,7.992,0,0,0,4.413-2.722,16.708,16.708,0,0,1-9.614,2.75,16.708,16.708,0,0,1-9.613-2.75A7.99,7.99,0,0,0,19.155,32.1c-.665.907-1.59,1.936-1.59,1.936A10.614,10.614,0,0,1,9.812,30.7a29.481,29.481,0,0,1,3.636-13.587,12.432,12.432,0,0,1,6.865-2.444l.37.351A16.3,16.3,0,0,0,14.52,18a23.1,23.1,0,0,1,9.835-2.364A23.107,23.107,0,0,1,34.19,18a16.3,16.3,0,0,0-6.162-2.976l.37-.351a12.429,12.429,0,0,1,6.865,2.444A29.481,29.481,0,0,1,38.9,30.7,10.613,10.613,0,0,1,31.146,34.04Z" transform="translate(-6 -6)" fill="#ea82de"/>
  <path id="Trazado_2348" data-name="Trazado 2348" d="M284.893,239.933v.012a2.583,2.583,0,1,0,0-.012Z" transform="translate(-262.064 -222.757)" fill="#ea82de"/>
</svg>
