<svg xmlns="http://www.w3.org/2000/svg" width="19.599" height="14.699" viewBox="0 0 19.599 14.699">
  <path id="envelope-solid" d="M19.228,68.854a.23.23,0,0,1,.371.18v7.828A1.838,1.838,0,0,1,17.762,78.7H1.837A1.838,1.838,0,0,1,0,76.862V69.038a.229.229,0,0,1,.371-.18c.857.666,1.994,1.512,5.9,4.349.808.59,2.17,1.83,3.529,1.822,1.367.011,2.756-1.256,3.533-1.822C17.237,70.37,18.37,69.52,19.228,68.854ZM9.8,73.8c.888.015,2.167-1.118,2.81-1.585,5.08-3.686,5.466-4.008,6.638-4.927a.916.916,0,0,0,.352-.723v-.727A1.838,1.838,0,0,0,17.762,64H1.837A1.838,1.838,0,0,0,0,65.837v.727a.922.922,0,0,0,.352.723c1.171.915,1.558,1.24,6.638,4.927.643.467,1.922,1.6,2.81,1.585Z" transform="translate(0 -64)" fill="#44a04a"/>
</svg>
