<svg xmlns="http://www.w3.org/2000/svg" width="45.17" height="44.776" viewBox="0 0 45.17 44.776">
  <g id="repdigital_modulos" transform="translate(-2.241 -2)">
    <path id="Trazado_2042" data-name="Trazado 2042" d="M31.759,5.036A.759.759,0,0,1,31,4.277V2.759a.759.759,0,0,1,1.518,0V4.277A.759.759,0,0,1,31.759,5.036Z" transform="translate(-6.933)" fill="#008944"/>
    <path id="Trazado_2043" data-name="Trazado 2043" d="M23.018,7.377A.759.759,0,0,1,22.36,7L21.6,5.683a.759.759,0,1,1,1.314-.759l.759,1.314a.759.759,0,0,1-.656,1.138Z" transform="translate(-4.643 -0.614)" fill="#008944"/>
    <path id="Trazado_2044" data-name="Trazado 2044" d="M40.259,7.377A.759.759,0,0,1,39.6,6.239l.759-1.314a.759.759,0,1,1,1.314.759L40.917,7A.759.759,0,0,1,40.259,7.377Z" transform="translate(-8.983 -0.614)" fill="#008944"/>
    <path id="Trazado_2045" data-name="Trazado 2045" d="M53.523,22.278a3.142,3.142,0,0,0,.027-.408A3.046,3.046,0,0,0,51.139,18.9a3.112,3.112,0,0,0-3.586,2.3l-2.638,9.316a3.021,3.021,0,0,0-.83.313l-6.709,3.933A6.855,6.855,0,0,0,34,40.656V50.08a.759.759,0,1,0,1.518,0V40.656a5.331,5.331,0,0,1,2.626-4.582l6.7-3.93a1.518,1.518,0,1,1,1.518,2.629l-4.349,2.511a.759.759,0,1,0,.759,1.314l4.349-2.511a3.02,3.02,0,0,0,1.323-3.682l2.083-7.762a1.61,1.61,0,0,1,1.812-1.214,1.523,1.523,0,0,1,1.207,1.478,1.5,1.5,0,0,1-.05.4L50.2,37.621a2.282,2.282,0,0,1-.687,1.113l-5.131,4.561a3.8,3.8,0,0,0-1.274,2.839V50.08a.759.759,0,0,0,1.518,0V46.133a2.277,2.277,0,0,1,.764-1.7l5.133-4.562a3.8,3.8,0,0,0,1.143-1.857l3.3-12.317a3,3,0,0,0,.1-.79,3.04,3.04,0,0,0-1.544-2.627Zm-4.458,1.973L47.27,30.936a3.044,3.044,0,0,0-.791-.374l2.536-8.955a1.617,1.617,0,0,1,1.813-1.214,1.518,1.518,0,0,1,1.2,1.478v.011a3.143,3.143,0,0,0-2.967,2.369Z" transform="translate(-7.656 -4.063)" fill="#008944"/>
    <path id="Trazado_2046" data-name="Trazado 2046" d="M19.932,34.764l-6.713-3.935a2.989,2.989,0,0,0-.826-.312L9.758,21.21A3.112,3.112,0,0,0,6.168,18.9a3.046,3.046,0,0,0-2.41,2.967,3.135,3.135,0,0,0,.027.408,3.027,3.027,0,0,0-1.442,3.415l3.3,12.32a3.8,3.8,0,0,0,1.144,1.853l5.132,4.561a2.277,2.277,0,0,1,.764,1.706V50.08a.759.759,0,1,0,1.518,0V46.133A3.794,3.794,0,0,0,12.927,43.3L7.8,38.736a2.277,2.277,0,0,1-.688-1.113L3.807,25.3a1.523,1.523,0,0,1,1.158-1.875A1.609,1.609,0,0,1,6.777,24.64L8.86,32.4a3.02,3.02,0,0,0,1.323,3.682l4.349,2.511a.759.759,0,1,0,.759-1.314l-4.349-2.508a1.513,1.513,0,0,1,.849-2.823H11.8a1.485,1.485,0,0,1,.658.192l6.709,3.933a5.331,5.331,0,0,1,2.626,4.582V50.08a.759.759,0,1,0,1.518,0V40.656a6.855,6.855,0,0,0-3.376-5.892Zm-9.895-3.829L8.243,24.25a3.14,3.14,0,0,0-2.965-2.369v-.01a1.518,1.518,0,0,1,1.2-1.481A1.616,1.616,0,0,1,8.3,21.615l2.532,8.945A3.022,3.022,0,0,0,10.037,30.935Z" transform="translate(0 -4.062)" fill="#008944"/>
    <path id="Trazado_2047" data-name="Trazado 2047" d="M34.324,28.869a1.528,1.528,0,0,0,1.442-1.992L33.9,21.138l4.881-3.547a1.518,1.518,0,0,0-.889-2.746H31.858L29.992,9.106h0a1.518,1.518,0,0,0-2.884,0l-1.866,5.739H19.207a1.518,1.518,0,0,0-.892,2.746L23.2,21.138l-1.865,5.739a1.518,1.518,0,0,0,2.336,1.7l4.882-3.546,4.882,3.546a1.51,1.51,0,0,0,.892.3ZM28.55,23.508a1.518,1.518,0,0,0-.892.291l-4.881,3.547,1.865-5.739a1.518,1.518,0,0,0-.552-1.7l-4.882-3.547h6.035a1.518,1.518,0,0,0,1.442-1.049L28.55,9.566v.01l1.865,5.739a1.518,1.518,0,0,0,1.443,1.049h6.035L33.012,19.91a1.518,1.518,0,0,0-.552,1.7l1.865,5.739L29.442,23.8A1.518,1.518,0,0,0,28.55,23.508Z" transform="translate(-3.724 -1.462)" fill="#008944"/>
    <path id="Trazado_2048" data-name="Trazado 2048" d="M14.925,12.916l1.314.759A.759.759,0,1,0,17,12.361L15.684,11.6a.759.759,0,1,0-.759,1.314Z" transform="translate(-2.966 -2.29)" fill="#008944"/>
    <path id="Trazado_2049" data-name="Trazado 2049" d="M46.483,13.777a.759.759,0,0,0,.379-.1l1.314-.759a.759.759,0,1,0-.759-1.314l-1.314.759a.759.759,0,0,0,.379,1.416Z" transform="translate(-10.483 -2.29)" fill="#008944"/>
  </g>
</svg>
