<svg id="encuestas_modulos" xmlns="http://www.w3.org/2000/svg" width="35.729" height="35.785" viewBox="0 0 35.729 35.785">
  <path id="Trazado_2059" data-name="Trazado 2059" d="M35.622,12.7a1.358,1.358,0,0,0-.743-.737l-2.387-.977a1.368,1.368,0,0,0-1.784.748L27.99,18.378V7.524a.532.532,0,0,0-.156-.376L20.842.156A.531.531,0,0,0,20.466,0H.532A.532.532,0,0,0,0,.532v4.1a.531.531,0,1,0,1.063,0V1.063H19.934V7.524a.531.531,0,0,0,.532.531h6.461V20.976L24.584,26.7a.528.528,0,0,0-.039.228l.25,5a.531.531,0,0,0,.891.364l1.241-1.142v3.567H1.063V6.759A.531.531,0,1,0,0,6.759V35.253a.532.532,0,0,0,.532.532H27.459a.532.532,0,0,0,.532-.532V30.176L29.371,28.9a.537.537,0,0,0,.132-.19l2.409-5.889a.531.531,0,0,0-.984-.4l-2.208,5.4-2.951-1.208L30.3,15.529l2.951,1.208-1.565,3.824a.531.531,0,0,0,.984.4l2.952-7.215A1.359,1.359,0,0,0,35.622,12.7ZM21,1.814l5.178,5.179H21Zm4.651,25.9,2.388.977L25.8,30.747Zm8.994-14.366-.985,2.407-2.951-1.208.985-2.407a.306.306,0,0,1,.4-.167l2.387.977a.305.305,0,0,1,.167.4Zm0,0" fill="#008944"/>
  <path id="Trazado_2060" data-name="Trazado 2060" d="M158.281,83.016h-6.59a.531.531,0,1,0,0,1.063h6.59a.531.531,0,1,0,0-1.063Zm0,0" transform="translate(-140.595 -77.214)" fill="#008944"/>
  <path id="Trazado_2061" data-name="Trazado 2061" d="M51.735,167.751h4.2a.531.531,0,0,0,.531-.532v-3.764l.793-1.01a.531.531,0,1,0-.836-.657l-.548.7H51.735a.531.531,0,0,0-.532.531v4.2A.532.532,0,0,0,51.735,167.751Zm.531-4.2h2.776l-.846,1.076-.591-.592a.531.531,0,0,0-.752.752l1.015,1.015a.532.532,0,0,0,.376.156h.032a.531.531,0,0,0,.386-.2l.743-.945v1.88H52.266Zm0,0" transform="translate(-47.624 -150.293)" fill="#008944"/>
  <path id="Trazado_2062" data-name="Trazado 2062" d="M175.736,186.273H164.364a.532.532,0,0,0,0,1.063h11.372a.532.532,0,0,0,0-1.063Zm0,0" transform="translate(-152.381 -173.254)" fill="#008944"/>
  <path id="Trazado_2063" data-name="Trazado 2063" d="M164.364,223.836H173.5a.531.531,0,0,0,0-1.063h-9.141a.531.531,0,1,0,0,1.063Zm0,0" transform="translate(-152.381 -207.203)" fill="#008944"/>
  <path id="Trazado_2064" data-name="Trazado 2064" d="M51.2,267.079a.532.532,0,0,0,.532.532h4.2a.531.531,0,0,0,.531-.532v-3.764l.793-1.01a.531.531,0,0,0-.836-.657l-.548.7H51.735a.531.531,0,0,0-.532.531Zm1.063-3.67h2.776l-.846,1.077-.591-.592a.531.531,0,1,0-.752.752l1.015,1.015a.531.531,0,0,0,.376.156h.032a.531.531,0,0,0,.386-.2l.743-.945v1.88H52.266Zm0,0" transform="translate(-47.624 -243.173)" fill="#008944"/>
  <path id="Trazado_2065" data-name="Trazado 2065" d="M175.736,286.133H164.364a.531.531,0,1,0,0,1.063h11.372a.531.531,0,1,0,0-1.063Zm0,0" transform="translate(-152.381 -266.134)" fill="#008944"/>
  <path id="Trazado_2066" data-name="Trazado 2066" d="M164.364,323.7h3.4a.531.531,0,0,0,0-1.063h-3.4a.531.531,0,1,0,0,1.063Zm0,0" transform="translate(-152.381 -300.083)" fill="#008944"/>
  <path id="Trazado_2067" data-name="Trazado 2067" d="M51.2,378.917a.532.532,0,0,0,.532.532h4.2a.531.531,0,0,0,.531-.532v-4.2a.531.531,0,0,0-.531-.532h-4.2a.532.532,0,0,0-.532.532Zm1.063-3.67H55.4v3.139H52.266Zm0,0" transform="translate(-47.624 -348.031)" fill="#008944"/>
  <path id="Trazado_2068" data-name="Trazado 2068" d="M176.268,386.524a.531.531,0,0,0-.532-.532H164.364a.531.531,0,1,0,0,1.063h11.372A.531.531,0,0,0,176.268,386.524Zm0,0" transform="translate(-152.381 -359.014)" fill="#008944"/>
  <path id="Trazado_2069" data-name="Trazado 2069" d="M164.364,422.488a.532.532,0,0,0,0,1.063h9.672a.532.532,0,0,0,0-1.063Zm0,0" transform="translate(-152.381 -392.96)" fill="#008944"/>
</svg>
