<svg xmlns="http://www.w3.org/2000/svg" width="41.018" height="37.6" viewBox="0 0 41.018 37.6">
  <g id="campana_modulos" transform="translate(0 -21.333)">
    <g id="Grupo_1241" data-name="Grupo 1241" transform="translate(0 21.333)">
      <g id="Grupo_1240" data-name="Grupo 1240">
        <path id="Trazado_2054" data-name="Trazado 2054" d="M91.346,39.279V36.715A11.981,11.981,0,0,0,82.8,25.255v-.5a3.418,3.418,0,1,0-6.836,0v.5a11.981,11.981,0,0,0-8.546,11.46v2.564c0,5.689-1.339,7.688-2.317,9.147A4.838,4.838,0,0,0,64,51.242c0,2.786,5.808,3.764,10.517,4.1a5.091,5.091,0,0,0,9.73,0c4.709-.337,10.517-1.314,10.517-4.1a4.837,4.837,0,0,0-1.1-2.816C92.684,46.966,91.346,44.968,91.346,39.279ZM77.673,24.751a1.709,1.709,0,1,1,3.418,0v.137a10.766,10.766,0,0,0-3.418,0Zm1.709,32.473A3.388,3.388,0,0,1,76.4,55.45c1.211.051,2.262.065,2.982.065s1.771-.014,2.982-.065A3.389,3.389,0,0,1,79.382,57.224Zm0-3.418c-7.826,0-13.673-1.354-13.673-2.564a3.253,3.253,0,0,1,.813-1.865c1.037-1.549,2.605-3.89,2.605-10.1V36.715a10.255,10.255,0,1,1,20.509,0v2.564c0,6.209,1.569,8.55,2.605,10.1a3.253,3.253,0,0,1,.813,1.865C93.055,52.452,87.208,53.806,79.382,53.806Z" transform="translate(-58.873 -21.333)" fill="#008944"/>
        <path id="Trazado_2055" data-name="Trazado 2055" d="M480.162,171.749a.855.855,0,0,0-1.622.541,17.735,17.735,0,0,1,0,11.343.855.855,0,0,0,1.622.541,19.462,19.462,0,0,0,0-12.424Z" transform="translate(-440.162 -159.161)" fill="#008944"/>
        <path id="Trazado_2056" data-name="Trazado 2056" d="M438.643,184.707a.856.856,0,0,0-.541,1.081,14.385,14.385,0,0,1,0,9.185.856.856,0,0,0,.541,1.081.871.871,0,0,0,.27.043.855.855,0,0,0,.811-.585,16.1,16.1,0,0,0,0-10.263A.859.859,0,0,0,438.643,184.707Z" transform="translate(-402.963 -171.58)" fill="#008944"/>
        <path id="Trazado_2057" data-name="Trazado 2057" d="M1.709,177.981a17.9,17.9,0,0,1,.93-5.671.855.855,0,0,0-1.622-.541,19.477,19.477,0,0,0,0,12.424.855.855,0,0,0,1.622-.541A17.886,17.886,0,0,1,1.709,177.981Z" transform="translate(0 -159.18)" fill="#008944"/>
        <path id="Trazado_2058" data-name="Trazado 2058" d="M45.129,194.968a14.385,14.385,0,0,1,0-9.185.855.855,0,1,0-1.622-.539,16.1,16.1,0,0,0,0,10.263.855.855,0,0,0,.811.585.871.871,0,0,0,.27-.043A.856.856,0,0,0,45.129,194.968Z" transform="translate(-39.249 -171.575)" fill="#008944"/>
      </g>
    </g>
  </g>
</svg>
