<svg xmlns="http://www.w3.org/2000/svg" width="34.483" height="43.502" viewBox="0 0 34.483 43.502">
  <g id="torneos_modulos" transform="translate(-53.074 -0.001)">
    <g id="Grupo_1239" data-name="Grupo 1239" transform="translate(53.074 0.001)">
      <path id="Trazado_2050" data-name="Trazado 2050" d="M87,17.863a3.362,3.362,0,0,0-.387-4.179A2.1,2.1,0,0,1,86.08,11.8,3.362,3.362,0,0,0,84.21,8.04a2.1,2.1,0,0,1-1.183-1.566,3.362,3.362,0,0,0-3.1-2.827,2.1,2.1,0,0,1-1.669-1.033A3.362,3.362,0,0,0,74.343,1.1,2.1,2.1,0,0,1,72.414.736a3.362,3.362,0,0,0-4.2,0,2.1,2.1,0,0,1-1.929.361,3.362,3.362,0,0,0-3.913,1.516,2.1,2.1,0,0,1-1.669,1.033,3.362,3.362,0,0,0-3.1,2.827A2.1,2.1,0,0,1,56.421,8.04,3.362,3.362,0,0,0,54.551,11.8a2.1,2.1,0,0,1-.537,1.888,3.362,3.362,0,0,0-.387,4.179,2.1,2.1,0,0,1,.181,1.955,3.362,3.362,0,0,0,1.148,4.036,2.1,2.1,0,0,1,.875,1.757A3.362,3.362,0,0,0,58.36,28.96a2.1,2.1,0,0,1,1.123.733l-3.511,8.476a1.52,1.52,0,0,0,1.85,2.034l3.844-1.18a.246.246,0,0,1,.288.12L63.838,42.7a1.519,1.519,0,0,0,2.746-.13l3.66-8.835q.072,0,.144,0l3.66,8.835a1.52,1.52,0,0,0,2.746.131l1.884-3.552a.245.245,0,0,1,.288-.119L82.81,40.2a1.52,1.52,0,0,0,1.85-2.034l-3.511-8.476a2.1,2.1,0,0,1,1.123-.733A3.362,3.362,0,0,0,84.8,25.611a2.1,2.1,0,0,1,.875-1.757,3.362,3.362,0,0,0,1.148-4.036A2.1,2.1,0,0,1,87,17.863Zm-21.6,24.215a.245.245,0,0,1-.443.021L63.08,38.546a1.522,1.522,0,0,0-1.788-.741l-3.844,1.18a.245.245,0,0,1-.3-.328l3.115-7.521a3.361,3.361,0,0,0,3.115,1.355,2.1,2.1,0,0,1,1.83.709,3.349,3.349,0,0,0,3.443,1.041Zm17.777-3.092-3.844-1.18a1.522,1.522,0,0,0-1.788.741L75.668,42.1a.245.245,0,0,1-.443-.021l-3.245-7.835A3.36,3.36,0,0,0,75.422,33.2a2.1,2.1,0,0,1,1.83-.709,3.359,3.359,0,0,0,3.115-1.355l3.115,7.52a.245.245,0,0,1-.3.328Zm2.754-21.819a3.374,3.374,0,0,0-.291,3.14,2.093,2.093,0,0,1-.715,2.513,3.374,3.374,0,0,0-1.405,2.823,2.093,2.093,0,0,1-1.574,2.085,3.373,3.373,0,0,0-2.083,1.591l0,.007a3.375,3.375,0,0,0-.243.526A2.092,2.092,0,0,1,77.4,31.226a3.374,3.374,0,0,0-2.94,1.139,2.093,2.093,0,0,1-2.568.48,3.372,3.372,0,0,0-.927-.327l-.008,0a3.371,3.371,0,0,0-1.284,0h0a3.377,3.377,0,0,0-.929.327,2.093,2.093,0,0,1-2.568-.48,3.374,3.374,0,0,0-2.94-1.139A2.093,2.093,0,0,1,61.01,29.85a3.379,3.379,0,0,0-.243-.526l0-.008a3.373,3.373,0,0,0-2.083-1.591,2.093,2.093,0,0,1-1.574-2.085A3.374,3.374,0,0,0,55.7,22.819a2.093,2.093,0,0,1-.715-2.513,3.374,3.374,0,0,0-.291-3.14,2.093,2.093,0,0,1,.241-2.6,3.374,3.374,0,0,0,.863-3.033,2.093,2.093,0,0,1,1.164-2.339,3.374,3.374,0,0,0,1.9-2.516,2.093,2.093,0,0,1,1.931-1.76,3.374,3.374,0,0,0,2.681-1.66,2.093,2.093,0,0,1,2.436-.944,3.374,3.374,0,0,0,3.1-.579,2.093,2.093,0,0,1,2.612,0,3.374,3.374,0,0,0,3.1.579,2.093,2.093,0,0,1,2.436.944,3.374,3.374,0,0,0,2.681,1.66,2.093,2.093,0,0,1,1.931,1.76,3.374,3.374,0,0,0,1.9,2.516,2.093,2.093,0,0,1,1.164,2.339,3.374,3.374,0,0,0,.863,3.033,2.093,2.093,0,0,1,.241,2.6Z" transform="translate(-53.074 -0.001)" fill="#008944"/>
      <path id="Trazado_2051" data-name="Trazado 2051" d="M107.926,64.388a.637.637,0,0,0,.71-.555,11.447,11.447,0,0,1,22.719.005.637.637,0,0,0,1.265-.155,12.721,12.721,0,0,0-25.249-.006.637.637,0,0,0,.555.71Z" transform="translate(-102.753 -48.064)" fill="#008944"/>
      <path id="Trazado_2052" data-name="Trazado 2052" d="M132.063,212.209a.638.638,0,0,0-.71.555,11.447,11.447,0,0,1-22.719.005.637.637,0,0,0-1.265.156,12.721,12.721,0,0,0,25.249-.006A.637.637,0,0,0,132.063,212.209Z" transform="translate(-102.751 -194.174)" fill="#008944"/>
      <path id="Trazado_2053" data-name="Trazado 2053" d="M167.431,100.878a1.222,1.222,0,0,0-1.129-.851l-5-.179-1.714-4.7a1.233,1.233,0,0,0-2.317,0l-1.714,4.7-5,.179a1.233,1.233,0,0,0-.716,2.2l3.937,3.082-1.373,4.807a1.233,1.233,0,0,0,1.875,1.362l4.147-2.792,4.147,2.792a1.233,1.233,0,0,0,1.875-1.362l-1.373-4.807,3.937-3.082A1.222,1.222,0,0,0,167.431,100.878Zm-5.157,3.447a1.228,1.228,0,0,0-.426,1.31l1.35,4.725-4.077-2.744a1.228,1.228,0,0,0-1.378,0l-4.077,2.744,1.35-4.725a1.229,1.229,0,0,0-.426-1.31l-3.87-3.029,4.911-.176a1.229,1.229,0,0,0,1.114-.81l1.685-4.617,1.685,4.617a1.228,1.228,0,0,0,1.114.81l4.911.176Z" transform="translate(-141.192 -86.325)" fill="#008944"/>
    </g>
  </g>
</svg>
