<svg xmlns="http://www.w3.org/2000/svg" width="39.149" height="43.503" viewBox="0 0 39.149 43.503">
  <path id="plancarrera_modulos" d="M38.837,5.848,36.978,4.211l1.859-1.637A.918.918,0,0,0,38.231.968H30.538V.638a.638.638,0,1,0-1.275,0v8.6L24.026,12.08a2.017,2.017,0,0,0-.207-.67l-.738-1.44a2.017,2.017,0,0,0-2.712-.875l-.571.292a2.015,2.015,0,0,0-.875,2.712l.738,1.441a2,2,0,0,0,.726.789,5.585,5.585,0,0,0-.769,1.85l-.137.487a.637.637,0,0,0,.44.787.628.628,0,0,0,.174.024.638.638,0,0,0,.613-.464l.137-.486c.279-.985.451-1.513,1-1.81l.979-.532.121-.062c.04-.021.078-.044.116-.067l6.981-3.791a2.7,2.7,0,0,1-1.287,2.167L24.214,15.19,24.2,15.2l-1.413.858a.638.638,0,0,0,.609,1.119l-1.072,3.241-.784.321-2.131.873.614-2.171a.638.638,0,1,0-1.227-.347l-.97,3.431a.612.612,0,0,0-.023.139l-.254,4.664a2.134,2.134,0,0,1-.052.688l-2.82,5.932H12.627a2.179,2.179,0,0,0-2.177,2.177v1.84a2.16,2.16,0,0,0-.9-.2h-5.2a2.179,2.179,0,0,0-2.177,2.177v2.283H.638a.638.638,0,0,0,0,1.275H38.23a.638.638,0,0,0,0-1.275H36.572V25.794A2.179,2.179,0,0,0,34.4,23.617H30.538V12.494a3.976,3.976,0,0,0,.641-3.408.638.638,0,0,0-.641-.468V7.454H38.23a.918.918,0,0,0,.607-1.606ZM20.014,10.953a.734.734,0,0,1,.367-.431l.571-.292a.74.74,0,0,1,1,.321l.738,1.441a.741.741,0,0,1-.246.951l-.208.113-.438.225a.74.74,0,0,1-1-.321l-.738-1.44A.735.735,0,0,1,20.014,10.953Zm-1.281,23.19a2.164,2.164,0,0,0-.7-.187l.7-.93Zm3.027-5.137a2.4,2.4,0,0,0,.46-1.142c.017-.082.332-1.8.332-1.8s.3.186.329.2a.068.068,0,0,1,.039.056l.347,3.526H21.129Zm3.77-3.519-.538,4.353h-.444l-.359-3.648a1.343,1.343,0,0,0-.751-1.078l-.641-.407.427-2.367s1.8,2.138,1.841,2.192C25.437,25.016,25.565,25.21,25.53,25.486Zm-6.887,3.086a3.457,3.457,0,0,0,.179-1.184l.232-4.254L22,21.926,21.466,24.9c0,.008,0,.016,0,.024l-.443,2.455a2.429,2.429,0,0,1-.267.849l-4.308,5.723h-.355ZM3.443,39.944a.9.9,0,0,1,.9-.9h5.2a.9.9,0,0,1,.9.9v2.284H3.443Zm8.282,0V36.123a.9.9,0,0,1,.9-.9h5.2a.9.9,0,0,1,.9.9v6.1H11.726V39.944ZM35.3,25.794V42.228H28.29V38.4a.638.638,0,0,0-1.275,0v3.823H20.008V32.019a.9.9,0,0,1,.9-.9h5.2a.9.9,0,0,1,.9.9v3.2a.638.638,0,1,0,1.275,0V25.794a.9.9,0,0,1,.9-.9h5.2A.9.9,0,0,1,35.3,25.794Zm-6.105-2.177a2.179,2.179,0,0,0-2.177,2.177v4.245a2.158,2.158,0,0,0-.739-.19l.52-4.206a2.462,2.462,0,0,0-.72-1.889c-.043-.056-2.521-3-2.521-3l1.52-4.6,4.188-2.544v10ZM30.538,6.179V2.244h6.745L35.83,3.523a.917.917,0,0,0,0,1.377l1.453,1.279H30.538Zm0,0" fill="#008944"/>
</svg>
