<svg xmlns="http://www.w3.org/2000/svg" xmlns:xlink="http://www.w3.org/1999/xlink" width="132.798" height="138.759" viewBox="0 0 132.798 138.759">
  <defs>
    <linearGradient id="linear-gradient" x1="0.5" x2="0.5" y2="1" gradientUnits="objectBoundingBox">
      <stop offset="0" stop-color="#ff9085"/>
      <stop offset="0.996" stop-color="#fbe06f"/>
      <stop offset="1" stop-color="#fb6fbb"/>
    </linearGradient>
    <linearGradient id="linear-gradient-2" x1="0.5" x2="0.5" y2="1" gradientUnits="objectBoundingBox">
      <stop offset="0" stop-color="#a56ffb"/>
      <stop offset="1" stop-color="#85fff1"/>
    </linearGradient>
  </defs>
  <g id="planesespeciales" transform="translate(-10.998 0)">
    <path id="Trazado_3826" data-name="Trazado 3826" d="M77.4,22a66.441,66.441,0,0,0-62.336,89.318l93.8,35.563A66.407,66.407,0,0,0,77.4,22Z" transform="translate(0 -16.034)" fill="url(#linear-gradient)"/>
    <path id="Trazado_3827" data-name="Trazado 3827" d="M172.827,310.81a16.845,16.845,0,0,1-8.54,10.629,20.167,20.167,0,0,1-15.957,1.4,6.388,6.388,0,0,0,.184.749,3.574,3.574,0,0,0-2.08,1.22,3.25,3.25,0,0,0-.54,2.564L143.337,329a21.049,21.049,0,0,0,5.641,2.8v28.706a65.882,65.882,0,0,0,11.432,3.462V331.8c10.4-3.128,20.2-18.42,20.2-18.42l.726-.513C178.189,312.091,175.206,311.523,172.827,310.81Z" transform="translate(-96.473 -226.576)" fill="#d3dcfb"/>
    <path id="Trazado_3828" data-name="Trazado 3828" d="M107.956,323.912a6.6,6.6,0,0,1-.287-.934A19.975,19.975,0,0,1,104,321.439a16.846,16.846,0,0,1-8.54-10.629c-2.379.713-5.362,1.281-8.506,2.058l.726.513s6.714,10.479,14.926,15.862l2.636-1.678A2.867,2.867,0,0,1,107.956,323.912Z" transform="translate(-55.369 -226.576)" fill="#bec8f7"/>
    <path id="Trazado_3829" data-name="Trazado 3829" d="M88.94,355.886a5.941,5.941,0,0,0-1.419,1.206,6.057,6.057,0,0,0-1.152,5.06c-1.826.372-9.007,2.31-9.007,9.758v5.322a66.5,66.5,0,0,0,24.1,16.369v-28.94C96.915,363.294,92.487,359.606,88.94,355.886Z" transform="translate(-48.378 -259.436)" fill="#f26"/>
    <path id="Trazado_3830" data-name="Trazado 3830" d="M49.391,334.876c-.668-3.381.663-5.256,2.387-6.3a72.132,72.132,0,0,1-7.966-9.944l-.873-.617c-6.034,1.464-12.741,3.648-16.948,9.091a66.415,66.415,0,0,0,14.329,22.944v-5.749c0-8.232,9.071-9.429,9.071-9.429Z" transform="translate(-10.929 -231.832)" fill="#b72753"/>
    <path id="Trazado_3831" data-name="Trazado 3831" d="M226.911,354.623a3.465,3.465,0,0,1,6.394-1.906c2,3.212,3.759,8.021,4,15.095a66,66,0,0,0,12.411-5.139c-.531-7.719-1.7-19.566-4.183-28.788-2.868-10.653-12.163-13.9-20.247-15.866l-.873.617s-9.8,15.292-20.2,18.42V369.1a66.885,66.885,0,0,0,22.7.93v-15.4Z" transform="translate(-140.852 -231.83)" fill="#f26"/>
    <path id="Trazado_3832" data-name="Trazado 3832" d="M184.353,273.493a27.659,27.659,0,0,1-10.841,1.94l.235.215c.166,1.247,1.237,10.5-2.793,14.63a5.924,5.924,0,0,0-.958.485,18.683,18.683,0,0,0,13.023-1.788,15.758,15.758,0,0,0,6.6-6.523c-3.164-2.026-4.608-5.792-5.265-8.959Z" transform="translate(-115.908 -199.372)" fill="#ffaa7b"/>
    <path id="Trazado_3833" data-name="Trazado 3833" d="M143.583,275.447a27.655,27.655,0,0,1-10.224-1.955c-.657,3.167-2.1,6.933-5.265,8.959a15.757,15.757,0,0,0,6.6,6.523,18.555,18.555,0,0,0,5.358,1.914,4.625,4.625,0,0,1,.582-.26C145.21,286.051,143.583,275.447,143.583,275.447Z" transform="translate(-85.361 -199.371)" fill="#fc9460"/>
    <path id="Trazado_3834" data-name="Trazado 3834" d="M185.387,306.7a8.856,8.856,0,0,1-2.494-1.275,15.113,15.113,0,0,1-6.5,6.564,17.956,17.956,0,0,1-12.205,1.786,5.248,5.248,0,0,0-2.4,2.353,4.753,4.753,0,0,0-.116,3.532c-.088.019-.185.045-.286.074a20.88,20.88,0,0,0,16.4-1.487,17.451,17.451,0,0,0,8.886-11.164C186.221,306.956,185.794,306.83,185.387,306.7Z" transform="translate(-109.629 -222.648)" fill="#deeeff"/>
    <path id="Trazado_3835" data-name="Trazado 3835" d="M131.68,313.9a17.844,17.844,0,0,1-5.6-1.918,15.112,15.112,0,0,1-6.5-6.565,8.863,8.863,0,0,1-2.495,1.275c-.407.133-.835.259-1.28.382a17.451,17.451,0,0,0,8.886,11.164,20.688,20.688,0,0,0,4.3,1.74A4.431,4.431,0,0,1,131.68,313.9Z" transform="translate(-76.408 -222.647)" fill="#d3dcfb"/>
    <path id="Trazado_3836" data-name="Trazado 3836" d="M210.944,274.885s8.074,11.079-5.982,24.162a2.349,2.349,0,0,0,2.213,3.986c4.182-1.134,11.963-3.711,17.806-8.365a12.29,12.29,0,0,0,1.237-18c-3.057-3.256-8.671-5.873-13.005-8.44,0,0-1.1.633-3.916,1.958A13.239,13.239,0,0,0,210.944,274.885Z" transform="translate(-140.852 -195.538)" fill="#ff83a9"/>
    <path id="Trazado_3837" data-name="Trazado 3837" d="M118.115,350.413l-.035.085c-1.046.022-4.663.271-6.631,2.6a6.057,6.057,0,0,0-1.152,5.06l-.108.023a60.189,60.189,0,0,0,12.238,4.756,2.349,2.349,0,0,0,2.213-3.986,28.37,28.37,0,0,1-6.525-8.542Z" transform="translate(-72.306 -255.446)" fill="#ff83a9"/>
    <path id="Trazado_3838" data-name="Trazado 3838" d="M91.375,274.885a13.229,13.229,0,0,0,1.647-4.694c-2.812-1.325-3.916-1.958-3.916-1.958-4.335,2.566-9.948,5.184-13.005,8.44a12.29,12.29,0,0,0,1.237,18,37.521,37.521,0,0,0,6.147,3.913C81.944,290.768,91.071,291,91.071,291,86.4,281.722,91.375,274.885,91.375,274.885Z" transform="translate(-45.024 -195.538)" fill="#ff5287"/>
    <path id="Trazado_3839" data-name="Trazado 3839" d="M124.653,394.375a2.017,2.017,0,0,1-2.011-2.011v-16.52a2.011,2.011,0,0,1,4.022,0v16.52A2.017,2.017,0,0,1,124.653,394.375Z" transform="translate(-81.387 -272.518)" fill="#deeeff"/>
    <path id="Trazado_3840" data-name="Trazado 3840" d="M235.016,394.375A2.017,2.017,0,0,1,233,392.363v-16.52a2.011,2.011,0,0,1,4.022,0v16.52A2.017,2.017,0,0,1,235.016,394.375Z" transform="translate(-161.84 -272.518)" fill="#deeeff"/>
    <path id="Trazado_3841" data-name="Trazado 3841" d="M185.763,14.229a5.532,5.532,0,0,1-2.616-3.212C181.8,6.606,176.133-2.354,152.2.578a.577.577,0,0,0-.453.811l1.181,2.6a.576.576,0,0,1-.733.776c-.255-.1-.546-.2-.869-.309l.292.3c-.759.774-2.615,2.959-2.236,5.492.31,2.072,2.032,3.829,5.119,5.224,2.314,1.045,3.691,2.513,4.095,4.362.89,4.076-3.158,8.782-3.2,8.829l-.07.08-2.642,12.733h37.578c1.6-6.688,4.26-22.385-4.505-27.245Z" transform="translate(-100.847 0)" fill="#55405e"/>
    <path id="Trazado_3842" data-name="Trazado 3842" d="M89.054,38.459s8.36-9.583-1.035-13.829-2.476-10.335-2.474-10.336c-3.42-1.342-13.018-3.538-26.943,5.913a1.606,1.606,0,0,0-.449,2.187,25.6,25.6,0,0,1,3.54,8.787c1.372,7.635-2.978,11.582.642,19.824H86.451Z" transform="translate(-34.193 -9.53)" fill="#34243a"/>
    <path id="Trazado_3843" data-name="Trazado 3843" d="M68.124,156.225a13.6,13.6,0,0,0-.414-4.427,44.3,44.3,0,0,1-.973-4.764c-1.488-.8-4.265-1.762-6.344.662-2.813,3.281-.188,8.65,1.469,11.355a11.35,11.35,0,0,1,1.287,3.048c.378,1.434,1.583,3.243,5.393,1.51A28.99,28.99,0,0,1,68.124,156.225Z" transform="translate(-35.104 -106.543)" fill="#fc9460"/>
    <path id="Trazado_3844" data-name="Trazado 3844" d="M188.406,103.227c-3.439-1.377-6.725-4.534-10.664-11.355a3.8,3.8,0,0,0-4.874-1.539,72.1,72.1,0,0,1-14.592,4.432c-.185.16-.366.326-.538.5a12.518,12.518,0,0,0-3.027,5.229,7.272,7.272,0,0,0-.207,3.076c.221,1.546.531,3.178.949,4.89a15.8,15.8,0,0,1,.422,4.822c-.361,5.288.106,18.438,12.343,25.886a27.05,27.05,0,0,0,3.761,1.9A27.4,27.4,0,0,0,176.508,139c11.911-6.84,12.379-18.845,12.028-23.7a13.653,13.653,0,0,1,.41-4.433,44.167,44.167,0,0,0,1.008-5,2.478,2.478,0,0,0-1.548-2.638Z" transform="translate(-104.557 -65.598)" fill="#ffc7ab"/>
    <g id="Grupo_1935" data-name="Grupo 1935" transform="translate(31.022 28.929)">
      <path id="Trazado_3845" data-name="Trazado 3845" d="M117.6,151.014c-12.014-7.312-12.473-20.223-12.118-25.415a15.51,15.51,0,0,0-.414-4.734c-.41-1.682-.714-3.283-.931-4.8a7.137,7.137,0,0,1,.2-3.02,12.292,12.292,0,0,1,2.972-5.134,8.306,8.306,0,0,1,1.413-1.167A83.539,83.539,0,0,1,93.7,108.625a8.371,8.371,0,0,0-5.562,2.327,11.358,11.358,0,0,0-2.972,4.8,6.259,6.259,0,0,0-.2,2.825,44.374,44.374,0,0,0,.931,4.49A13.6,13.6,0,0,1,86.3,127.5c-.354,4.856.1,16.929,12.118,23.768a27.68,27.68,0,0,0,23.392,1.83A26.607,26.607,0,0,1,117.6,151.014Z" transform="translate(-84.884 -106.742)" fill="#ffaa7b"/>
    </g>
    <path id="Trazado_3846" data-name="Trazado 3846" d="M354.478,115.382h-27.22l0,0a2.956,2.956,0,0,0,.005,3.752,4.078,4.078,0,0,0,.041,5.019c-.625,1.432-3.283,8.383,2.441,11.47v17.339c-.756.608-3.662,3.236-2.178,6.66l-1.163,5.182a3.765,3.765,0,0,0-.178,5.127,4.317,4.317,0,0,0-.266,5.464l1.182,4.951a2.031,2.031,0,0,0,1.861,1.937L330.882,187a9.561,9.561,0,0,0-4.01,6.323c-.273,2.345.553,4.768,2.448,7.229h25.158a6.407,6.407,0,0,0,6.389-6.388v-72.4a6.407,6.407,0,0,0-6.389-6.388Z" transform="translate(-228.975 -84.111)" fill="#deeeff"/>
    <path id="Trazado_3847" data-name="Trazado 3847" d="M268.372,115.382a6.407,6.407,0,0,0-6.389,6.388v72.395a6.407,6.407,0,0,0,6.389,6.388h15.451c-6.658-8.328,1.548-13.4,1.548-13.4l-2.094-5.261a1.667,1.667,0,0,1-1.737-1.6l-1.21-5.064a4,4,0,0,1,.44-5.3c-2.433-2.433,0-4.924,0-4.924l1.218-5.422c-1.713-3.7,2.158-6.417,2.158-6.417V135.381c-6.4-3.217-2.365-11.3-2.365-11.3-2.2-2.2,0-4.97,0-4.97a2.666,2.666,0,0,1,0-3.727Z" transform="translate(-182.964 -84.112)" fill="#bec8f7"/>
    <circle id="Elipse_250" data-name="Elipse 250" cx="6.329" cy="6.329" r="6.329" transform="translate(113.022 93.667)" fill="#7e6dd1"/>
    <circle id="Elipse_251" data-name="Elipse 251" cx="3.164" cy="3.164" r="3.164" transform="translate(117.744 95.564)" fill="#9589e8"/>
    <circle id="Elipse_252" data-name="Elipse 252" cx="3.049" cy="3.049" r="3.049" transform="translate(93.378 90.968)" fill="#ffb332"/>
    <circle id="Elipse_253" data-name="Elipse 253" cx="3.049" cy="3.049" r="3.049" transform="translate(92.775 108.291) rotate(-77.993)" fill="#88ce65"/>
    <circle id="Elipse_254" data-name="Elipse 254" cx="3.049" cy="3.049" r="3.049" transform="translate(86.466 98.344) rotate(-22.333)" fill="#73c3f9"/>
    <circle id="Elipse_255" data-name="Elipse 255" cx="3.049" cy="3.049" r="3.049" transform="translate(98.406 98.408) rotate(-22.642)" fill="#ff4155"/>
    <path id="Trazado_3848" data-name="Trazado 3848" d="M354.082,138.3H326.944a3.5,3.5,0,0,0,.889,2.564c-.625,1.432-3.283,8.383,2.441,11.47v17.339c-.756.608-3.662,3.236-2.178,6.66l-1.163,5.182a4.287,4.287,0,0,0-1.113,2.637h28.262a1.1,1.1,0,0,0,1.1-1.1V139.4A1.1,1.1,0,0,0,354.082,138.3Z" transform="translate(-229.501 -100.821)" fill="url(#linear-gradient-2)"/>
    <path id="Trazado_3849" data-name="Trazado 3849" d="M286,138.3a1.1,1.1,0,0,0-1.1,1.1v43.656a1.1,1.1,0,0,0,1.1,1.1h10.4a4.156,4.156,0,0,1,1.077-2.439l1.218-5.422c-1.713-3.7,2.158-6.417,2.158-6.417V152.091c-6.4-3.217-2.365-11.3-2.365-11.3a3.11,3.11,0,0,1-.97-2.485Z" transform="translate(-199.675 -100.821)" fill="url(#linear-gradient-2)"/>
    <path id="Trazado_3850" data-name="Trazado 3850" d="M297.9,282.493h-2.571a1.693,1.693,0,0,1-1.688-1.688v-2.571a1.693,1.693,0,0,1,1.688-1.688H297.9a1.692,1.692,0,0,1,1.688,1.688v2.571A1.693,1.693,0,0,1,297.9,282.493Z" transform="translate(-206.046 -201.599)" fill="#ffdd40"/>
    <path id="Trazado_3851" data-name="Trazado 3851" d="M297.9,260.652h-2.571a1.693,1.693,0,0,1-1.688-1.688v-2.571a1.693,1.693,0,0,1,1.688-1.688H297.9a1.693,1.693,0,0,1,1.688,1.688v2.571A1.693,1.693,0,0,1,297.9,260.652Z" transform="translate(-206.046 -185.677)" fill="#ffb332"/>
    <path id="Trazado_3852" data-name="Trazado 3852" d="M319.845,282.493h-2.571a1.693,1.693,0,0,1-1.688-1.688v-2.571a1.693,1.693,0,0,1,1.688-1.688h2.571a1.692,1.692,0,0,1,1.688,1.688v2.571A1.693,1.693,0,0,1,319.845,282.493Z" transform="translate(-222.041 -201.599)" fill="#ffb332"/>
    <path id="Trazado_3853" data-name="Trazado 3853" d="M297.9,238.809h-2.571a1.693,1.693,0,0,1-1.688-1.688v-2.571a1.693,1.693,0,0,1,1.688-1.688H297.9a1.693,1.693,0,0,1,1.688,1.688v2.571A1.693,1.693,0,0,1,297.9,238.809Z" transform="translate(-206.046 -169.753)" fill="#ffdd40"/>
    <path id="Trazado_3854" data-name="Trazado 3854" d="M341.786,238.809h-2.571a1.693,1.693,0,0,1-1.688-1.688v-2.571a1.693,1.693,0,0,1,1.688-1.688h2.571a1.693,1.693,0,0,1,1.688,1.688v2.571A1.693,1.693,0,0,1,341.786,238.809Z" transform="translate(-238.036 -169.753)" fill="#ffdd40"/>
    <path id="Trazado_3855" data-name="Trazado 3855" d="M341.786,216.966h-2.571a1.693,1.693,0,0,1-1.688-1.688v-2.571a1.693,1.693,0,0,1,1.688-1.688h2.571a1.693,1.693,0,0,1,1.688,1.688v2.571A1.693,1.693,0,0,1,341.786,216.966Z" transform="translate(-238.036 -153.83)" fill="#ffb332"/>
    <path id="Trazado_3856" data-name="Trazado 3856" d="M341.786,195.124h-2.571a1.693,1.693,0,0,1-1.688-1.688v-2.571a1.693,1.693,0,0,1,1.688-1.688h2.571a1.693,1.693,0,0,1,1.688,1.688v2.571A1.693,1.693,0,0,1,341.786,195.124Z" transform="translate(-238.036 -137.908)" fill="#ffdd40"/>
    <path id="Trazado_3857" data-name="Trazado 3857" d="M385.661,163.975H380.3a1.782,1.782,0,1,1,0-3.564h5.356a1.782,1.782,0,1,1,0,3.564Z" transform="translate(-267.921 -116.937)" fill="#deeeff"/>
    <path id="Trazado_3858" data-name="Trazado 3858" d="M363.727,282.493h-2.571a1.693,1.693,0,0,1-1.688-1.688v-2.571a1.692,1.692,0,0,1,1.688-1.688h2.571a1.693,1.693,0,0,1,1.688,1.688v2.571A1.693,1.693,0,0,1,363.727,282.493Z" transform="translate(-254.03 -201.599)" fill="#ffb332"/>
    <path id="Trazado_3859" data-name="Trazado 3859" d="M363.727,216.966h-2.571a1.693,1.693,0,0,1-1.688-1.688v-2.571a1.693,1.693,0,0,1,1.688-1.688h2.571a1.693,1.693,0,0,1,1.688,1.688v2.571A1.693,1.693,0,0,1,363.727,216.966Z" transform="translate(-254.03 -153.83)" fill="#ffdd40"/>
    <path id="Trazado_3860" data-name="Trazado 3860" d="M385.668,282.493H383.1a1.693,1.693,0,0,1-1.688-1.688v-2.571a1.693,1.693,0,0,1,1.688-1.688h2.571a1.692,1.692,0,0,1,1.688,1.688v2.571A1.693,1.693,0,0,1,385.668,282.493Z" transform="translate(-270.025 -201.599)" fill="#ffdd40"/>
    <path id="Trazado_3861" data-name="Trazado 3861" d="M385.668,260.652H383.1a1.693,1.693,0,0,1-1.688-1.688v-2.571a1.693,1.693,0,0,1,1.688-1.688h2.571a1.692,1.692,0,0,1,1.688,1.688v2.571A1.693,1.693,0,0,1,385.668,260.652Z" transform="translate(-270.025 -185.677)" fill="#ffb332"/>
    <path id="Trazado_3862" data-name="Trazado 3862" d="M407.609,282.493h-2.571a1.693,1.693,0,0,1-1.688-1.688v-2.571a1.693,1.693,0,0,1,1.688-1.688h2.571a1.693,1.693,0,0,1,1.688,1.688v2.571A1.693,1.693,0,0,1,407.609,282.493Z" transform="translate(-286.019 -201.599)" fill="#ffb332"/>
    <path id="Trazado_3863" data-name="Trazado 3863" d="M407.609,260.652h-2.571a1.693,1.693,0,0,1-1.688-1.688v-2.571a1.693,1.693,0,0,1,1.688-1.688h2.571a1.693,1.693,0,0,1,1.688,1.688v2.571A1.693,1.693,0,0,1,407.609,260.652Z" transform="translate(-286.019 -185.677)" fill="#ffdd40"/>
    <path id="Trazado_3864" data-name="Trazado 3864" d="M354.073,129.135H327.761c.008.01.014.02.022.029a4.1,4.1,0,0,0-.021,4.941h24.924v40.882H326.793a3.731,3.731,0,0,0-.05,4.97h27.33a3.587,3.587,0,0,0,3.583-3.583V132.718A3.587,3.587,0,0,0,354.073,129.135Z" transform="translate(-229.492 -94.137)" fill="#6e5779"/>
    <path id="Trazado_3865" data-name="Trazado 3865" d="M279.32,129.135a3.587,3.587,0,0,0-3.583,3.583v43.655a3.587,3.587,0,0,0,3.583,3.583H290.8c-2.433-2.433,0-4.924,0-4.924l.01-.046h-10.1V134.1h11.1c-2.2-2.2,0-4.97,0-4.97Z" transform="translate(-192.991 -94.137)" fill="#55405e"/>
    <path id="Trazado_3866" data-name="Trazado 3866" d="M21.757,182.866A28.848,28.848,0,0,1,16.132,172.4a66.745,66.745,0,0,0-4.089,37.426c22.322-1.3,17.519-17.673,9.715-26.96Z" transform="translate(-0.001 -125.677)" fill="#fee77f"/>
    <path id="Trazado_3867" data-name="Trazado 3867" d="M316.045,29.42c.457,4.9,2.581,17.364,12.356,17.364,4.87,0,10.279-1.37,15.017-3.013A66.224,66.224,0,0,0,316.045,29.42Z" transform="translate(-222.375 -21.446)" fill="#fee77f"/>
    <path id="Trazado_3868" data-name="Trazado 3868" d="M297.857,453.727c-.217-7.535-2.1-12.634-4.242-16.028a3.673,3.673,0,0,0-6.763,1.99v16.386A66.014,66.014,0,0,0,297.857,453.727Z" transform="translate(-201.093 -317.838)" fill="#b72753"/>
  </g>
</svg>
