<svg version="1.2" baseProfile="tiny-ps" xmlns="http://www.w3.org/2000/svg" viewBox="0 0 1365 685" width="1365" height="685">
	<title>Background (1)-svg</title>
	<defs>
		<linearGradient id="grd1" gradientUnits="userSpaceOnUse"  x1="1896.13" y1="-365.87" x2="1895.763" y2="-368.244">
			<stop offset="0" stop-color="#e38ddd"  />
			<stop offset="0.004" stop-color="#8d94e3"  />
			<stop offset="1" stop-color="#71e2f6"  />
		</linearGradient>
		<clipPath clipPathUnits="userSpaceOnUse" id="cp1">
			<path d="M58.21 340.16C59.08 346.45 59 352.79 59.16 359.12C59.38 367.21 58.6 378.03 61.14 385.69C63.5 392.82 69.66 398.84 74.21 404.61C83.7 416.64 87.82 431.21 81.2 445.65C78.01 452.61 73.62 458.99 69.23 465.22C60.8 477.17 45.58 490.74 53.42 506.92C56.79 513.87 62.28 519.47 64.68 526.94C66.41 532.33 65.91 540.53 64.66 545.98C59.32 569.36 27.55 582.2 6.34 584.84C-42.91 590.97 -46.19 618.67 -41.66 636.48C-37.13 654.28 -96.89 602.43 -96.89 602.43C-96.89 602.43 -108 594.47 -79.28 577.77C-50.56 561.07 -61.45 549.79 -67.62 535.87C-73.8 521.95 -95.48 499.07 -55.52 482.98C-15.57 466.89 -11.06 458.48 -21.03 434.81C-31.01 411.14 -32.35 301.7 20.01 301.11C27.4 301.03 36.3 302.89 42.42 307.16C52.65 314.3 56.58 328.45 58.21 340.16Z" />
		</clipPath>
		<linearGradient id="grd2" gradientUnits="userSpaceOnUse"  x1="1897.972" y1="-368.057" x2="1899.096" y2="-368.057">
			<stop offset="0" stop-color="#aa80f9"  />
			<stop offset="0.996" stop-color="#6165d7"  />
		</linearGradient>
		<clipPath clipPathUnits="userSpaceOnUse" id="cp2">
			<path d="M135.56 461.15C135.11 462.49 134.65 463.81 134.17 465.13C133.69 466.45 133.19 467.76 132.67 469.07C132.16 470.37 131.62 471.67 131.07 472.96C130.52 474.25 129.94 475.53 129.36 476.81C126.56 483.4 121.96 491.85 121.19 498.96C120.48 505.59 123.24 512.7 124.79 519.03C128.03 532.22 126 545.48 115.36 554.71C114.05 555.78 112.71 556.83 111.35 557.84C109.99 558.86 108.61 559.84 107.2 560.79C105.79 561.74 104.37 562.66 102.92 563.54C101.47 564.43 100 565.28 98.52 566.1C87.33 572.63 70.07 578 70.45 593.93C70.62 600.77 73 607.3 72.19 614.21C71.61 619.19 68.19 625.63 65.18 629.56C52.28 646.47 21.95 645.16 3.86 639.5C-38.12 626.36 -50.94 647.51 -53.83 663.53C-56.71 679.56 -85.87 615.78 -85.87 615.78C-85.87 615.78 -91.91 605.27 -62.61 602.35C-33.31 599.43 -37.95 586.33 -37.82 572.83C-37.7 559.34 -46.78 532.92 -8.64 534.61C29.5 536.3 36.23 531.17 36.87 508.41C37.51 485.66 76.62 396.88 119.08 415.63C125.07 418.27 131.56 423.05 134.93 428.74C140.56 438.25 138.54 451.11 135.56 461.15Z" />
		</clipPath>
		<linearGradient id="grd3" gradientUnits="userSpaceOnUse"  x1="3160.547" y1="-628.058" x2="3160.129" y2="-630.758">
			<stop offset="0" stop-color="#e38ddd"  />
			<stop offset="0.004" stop-color="#8db8e3"  />
			<stop offset="1" stop-color="#719af6"  />
		</linearGradient>
		<clipPath clipPathUnits="userSpaceOnUse" id="cp3">
			<path d="M761.38 137.47C768.34 132.61 778.46 130.49 786.87 130.58C846.43 131.25 844.9 255.74 833.56 282.66C822.21 309.57 827.34 319.14 872.79 337.44C918.23 355.75 893.58 381.77 886.55 397.6C879.53 413.43 867.14 426.27 899.81 445.26C932.48 464.24 919.84 473.3 919.84 473.3C919.84 473.3 851.87 532.29 857.02 512.04C862.17 491.79 858.44 460.27 802.42 453.3C778.29 450.3 742.16 435.69 736.08 409.1C734.66 402.9 734.09 393.57 736.06 387.44C738.79 378.94 745.04 372.57 748.86 364.68C757.79 346.27 740.46 330.83 730.89 317.25C725.89 310.16 720.9 302.9 717.27 294.99C709.74 278.56 714.42 261.99 725.22 248.3C730.39 241.74 737.4 234.9 740.08 226.78C742.97 218.06 742.09 205.76 742.33 196.57C742.52 189.36 742.43 182.15 743.42 174.99C745.27 161.67 749.75 145.58 761.38 137.47Z" />
		</clipPath>
		<linearGradient id="grd4" gradientUnits="userSpaceOnUse"  x1="3162.481" y1="-630.567" x2="3163.76" y2="-630.567">
			<stop offset="0" stop-color="#aa80f9"  />
			<stop offset="0.996" stop-color="#6165d7"  />
		</linearGradient>
		<clipPath clipPathUnits="userSpaceOnUse" id="cp4">
			<path d="M656.16 275.75C659.99 269.28 667.37 263.85 674.19 260.84C722.49 239.51 766.97 340.5 767.7 366.38C768.42 392.26 776.08 398.09 819.47 396.17C862.85 394.25 852.51 424.3 852.67 439.65C852.82 455 847.53 469.91 880.86 473.23C914.18 476.55 907.32 488.5 907.32 488.5C907.32 488.5 874.14 561.04 870.86 542.82C867.58 524.59 853 500.53 805.25 515.48C784.68 521.92 750.17 523.41 735.5 504.18C732.08 499.7 728.19 492.38 727.53 486.72C726.61 478.86 729.31 471.43 729.5 463.65C729.94 445.52 710.3 439.43 697.58 431.99C695.89 431.06 694.22 430.09 692.57 429.08C690.93 428.08 689.3 427.03 687.7 425.95C686.11 424.87 684.53 423.75 682.98 422.6C681.44 421.44 679.92 420.25 678.42 419.03C666.32 408.54 664.01 393.45 667.69 378.45C669.46 371.25 672.6 363.16 671.79 355.63C670.91 347.53 665.69 337.93 662.5 330.43C661.83 328.98 661.18 327.52 660.55 326.05C659.92 324.59 659.32 323.11 658.73 321.63C658.14 320.14 657.57 318.65 657.03 317.15C656.48 315.65 655.96 314.14 655.45 312.63C652.05 301.2 649.75 286.57 656.16 275.75Z" />
		</clipPath>
		<clipPath clipPathUnits="userSpaceOnUse" id="cp5">
			<path d="M1125.88 639.93C1038.35 639.93 967.6 569.18 967.6 481.65C967.6 394.12 1038.35 323.37 1125.88 323.37C1213.41 323.37 1284.16 394.12 1284.16 481.65C1284.16 569.18 1213.41 639.93 1125.88 639.93Z" />
		</clipPath>
		<clipPath clipPathUnits="userSpaceOnUse" id="cp6">
			<path d="M1314.2 501.2C1232.3 501.2 1166.11 435 1166.11 353.11C1166.11 271.21 1232.3 205.02 1314.2 205.02C1396.09 205.02 1462.29 271.21 1462.29 353.11C1462.29 435 1396.09 501.2 1314.2 501.2Z" />
		</clipPath>
		<linearGradient id="grd5" gradientUnits="userSpaceOnUse"  x1="-1.37" y1="165.447" x2="120.79" y2="165.447">
			<stop offset="0" stop-color="#aa80f9"  />
			<stop offset="0.996" stop-color="#6165d7"  />
		</linearGradient>
		<linearGradient id="grd6" gradientUnits="userSpaceOnUse"  x1="-1" y1="165.448" x2="120.418" y2="165.448">
			<stop offset="0" stop-color="#aa80f9"  />
			<stop offset="0.996" stop-color="#6165d7"  />
		</linearGradient>
		<linearGradient id="grd7" gradientUnits="userSpaceOnUse"  x1="1268.106" y1="219.227" x2="1309.392" y2="219.227">
			<stop offset="0" stop-color="#aa80f9"  />
			<stop offset="0.996" stop-color="#6165d7"  />
		</linearGradient>
	</defs>
	<style>
		tspan { white-space:pre }
		.shp0 { fill: #45c481 } 
		.shp1 { fill: url(#grd1) } 
		.shp2 { fill: #ffffff } 
		.shp3 { fill: url(#grd2) } 
		.shp4 { fill: url(#grd3) } 
		.shp5 { fill: url(#grd4) } 
		.shp6 { fill: #a8f4c9 } 
		.shp7 { opacity: 0.502;fill: #b7eacc } 
		.shp8 { fill: none;stroke: #cfff48;stroke-width: 0.75 } 
		.shp9 { fill: none;stroke: #cfff48 } 
		.shp10 { fill: url(#grd5) } 
		.shp11 { fill: url(#grd6) } 
		.shp12 { fill: url(#grd7) } 
		.shp13 { fill: none;stroke: #ffffff } 
	</style>
	<g id="Background">
		<g id="Grupo_428">
			<path id="Trazado_476" class="shp0" d="M1366.11 685L910.65 685C910.65 685 865.16 559.74 990.79 517.96C1116.42 476.19 1157.79 430.81 1174.72 250.26C1191.64 69.72 1361.32 48.05 1366.11 77.26C1370.55 123.2 1366.11 685 1366.11 685Z" />
			<g id="Grupo_156">
				<g id="Grupo_146">
					<g id="Grupo_145">
						<path id="Trazado_300" class="shp1" d="M58.21 340.16C59.08 346.45 59 352.79 59.16 359.12C59.38 367.21 58.6 378.03 61.14 385.69C63.5 392.82 69.66 398.84 74.21 404.61C83.7 416.64 87.82 431.21 81.2 445.65C78.01 452.61 73.62 458.99 69.23 465.22C60.8 477.17 45.58 490.74 53.42 506.92C56.79 513.87 62.28 519.47 64.68 526.94C66.41 532.33 65.91 540.53 64.66 545.98C59.32 569.36 27.55 582.2 6.34 584.84C-42.91 590.97 -46.19 618.67 -41.66 636.48C-37.13 654.28 -96.89 602.43 -96.89 602.43C-96.89 602.43 -108 594.47 -79.28 577.77C-50.56 561.07 -61.45 549.79 -67.62 535.87C-73.8 521.95 -95.48 499.07 -55.52 482.98C-15.57 466.89 -11.06 458.48 -21.03 434.81C-31.01 411.14 -32.35 301.7 20.01 301.11C27.4 301.03 36.3 302.89 42.42 307.16C52.65 314.3 56.58 328.45 58.21 340.16Z" />
						<g id="Grupo_403">
							<g id="Clip-Path: Grupo_402" clip-path="url(#cp1)">
								<g id="Grupo_402">
									<g id="Grupo_144">
										<g id="Grupo_143" style="opacity: 0.8">
											<g id="Grupo_138">
												<path id="Trazado_301" class="shp2" d="M-98.62 634.42C-98.71 634.47 -98.8 634.5 -98.9 634.51C-99 634.52 -99.11 634.51 -99.2 634.48C-99.3 634.45 -99.39 634.41 -99.47 634.34C-99.55 634.28 -99.61 634.2 -99.66 634.11C-99.71 634.02 -99.74 633.92 -99.75 633.82C-99.76 633.72 -99.75 633.62 -99.72 633.52C-99.69 633.43 -99.64 633.34 -99.58 633.26C-99.52 633.18 -99.44 633.12 -99.35 633.07L-99.35 633.07C-95.23 630.34 -91.16 627.54 -87.15 624.65C-83.14 621.76 -79.19 618.8 -75.29 615.75C-71.4 612.71 -67.57 609.59 -63.8 606.39C-60.03 603.2 -56.33 599.93 -52.69 596.58C-30.36 576.1 -1.68 544.34 8.11 509.35C16.29 480.13 22.02 432.46 23.84 378.56C25.47 330.23 23.44 294.76 20.54 288.38C20.5 288.29 20.47 288.19 20.47 288.09C20.47 287.98 20.48 287.88 20.52 287.79C20.55 287.69 20.61 287.61 20.68 287.53C20.74 287.46 20.83 287.4 20.92 287.35C21.01 287.31 21.11 287.29 21.21 287.29C21.32 287.28 21.42 287.3 21.51 287.33C21.61 287.37 21.69 287.42 21.77 287.49C21.84 287.56 21.9 287.65 21.94 287.74L21.94 287.74C25.34 295.2 26.85 335.11 25.39 378.61C23.57 432.62 17.81 480.42 9.61 509.76C-0.29 545.11 -29.17 577.12 -51.66 597.74C-55.31 601.1 -59.03 604.38 -62.82 607.59C-66.6 610.8 -70.45 613.93 -74.36 616.99C-78.27 620.05 -82.24 623.02 -86.27 625.92C-90.29 628.82 -94.38 631.64 -98.52 634.37C-98.53 634.38 -98.53 634.38 -98.54 634.39C-98.55 634.39 -98.56 634.4 -98.57 634.4C-98.57 634.4 -98.58 634.41 -98.59 634.41C-98.6 634.42 -98.61 634.42 -98.62 634.42L-98.62 634.42Z" />
											</g>
											<g id="Grupo_139">
												<path id="Trazado_302" class="shp2" d="M24.51 387.85C24.44 387.9 24.35 387.93 24.26 387.94C24.17 387.95 24.08 387.95 23.99 387.93C23.9 387.91 23.82 387.87 23.74 387.81C23.67 387.76 23.61 387.69 23.56 387.61C23.55 387.6 23.54 387.58 23.53 387.56C23.3 387.05 -0.4 336.43 -26.39 326.7C-26.49 326.66 -26.57 326.61 -26.64 326.55C-26.72 326.48 -26.77 326.4 -26.82 326.31C-26.86 326.23 -26.88 326.13 -26.89 326.03C-26.89 325.94 -26.88 325.84 -26.84 325.75L-26.83 325.73C-26.8 325.63 -26.74 325.54 -26.67 325.47C-26.6 325.4 -26.52 325.34 -26.43 325.3C-26.34 325.26 -26.24 325.23 -26.14 325.23C-26.04 325.23 -25.94 325.25 -25.84 325.28L-25.83 325.28C0.76 335.24 23.96 384.8 24.94 386.91C24.97 386.99 24.99 387.08 24.99 387.17C24.99 387.26 24.98 387.35 24.95 387.44C24.91 387.52 24.86 387.6 24.8 387.67C24.74 387.73 24.66 387.79 24.58 387.82L24.52 387.85L24.51 387.85Z" />
											</g>
											<g id="Grupo_140">
												<path id="Trazado_303" class="shp2" d="M20.02 449.18C19.93 449.22 19.83 449.25 19.73 449.26C19.63 449.26 19.53 449.25 19.44 449.21C19.34 449.18 19.25 449.13 19.18 449.06C19.1 449 19.04 448.92 18.99 448.82C18.96 448.75 18.94 448.67 18.92 448.59C18.91 448.51 18.92 448.43 18.93 448.35C18.95 448.27 18.98 448.19 19.01 448.12C19.05 448.05 19.11 447.98 19.17 447.93C21.52 445.7 23.92 443.53 26.37 441.4C28.81 439.28 31.3 437.2 33.82 435.17C36.35 433.14 38.92 431.16 41.52 429.24C44.13 427.31 46.77 425.44 49.45 423.62C72.18 408.37 90.13 403.16 102.81 408.13C102.9 408.17 102.99 408.22 103.06 408.29C103.13 408.36 103.19 408.45 103.23 408.54C103.27 408.63 103.29 408.73 103.29 408.83C103.3 408.93 103.28 409.03 103.24 409.13C103.2 409.22 103.15 409.31 103.08 409.38C103.01 409.45 102.92 409.51 102.83 409.55C102.74 409.59 102.64 409.62 102.54 409.62C102.44 409.62 102.34 409.6 102.24 409.56C73.08 398.13 20.77 448.52 20.24 449.03C20.23 449.04 20.21 449.06 20.19 449.07C20.17 449.09 20.16 449.1 20.14 449.11C20.12 449.13 20.1 449.14 20.08 449.15C20.06 449.16 20.04 449.17 20.02 449.18Z" />
											</g>
											<g id="Grupo_141">
												<path id="Trazado_304" class="shp2" d="M-32.02 578.06C-32.11 578.1 -32.21 578.13 -32.31 578.13C-32.41 578.14 -32.51 578.12 -32.6 578.09C-32.7 578.05 -32.79 578 -32.86 577.93C-32.94 577.86 -33 577.78 -33.04 577.69C-33.05 577.67 -33.06 577.65 -33.06 577.63C-33.07 577.61 -33.08 577.58 -33.08 577.56C-33.09 577.54 -33.09 577.52 -33.1 577.5C-33.1 577.48 -33.1 577.46 -33.11 577.43C-33.54 573.57 -34.05 569.71 -34.64 565.86C-35.23 562.01 -35.9 558.17 -36.64 554.35C-37.38 550.53 -38.2 546.72 -39.09 542.93C-39.98 539.14 -40.95 535.37 -41.99 531.62C-48.07 510.33 -59.17 483.95 -77.57 479.17C-77.66 479.15 -77.76 479.1 -77.84 479.04C-77.92 478.98 -77.99 478.9 -78.04 478.82C-78.09 478.73 -78.12 478.63 -78.14 478.53C-78.15 478.43 -78.14 478.33 -78.12 478.23C-78.09 478.13 -78.05 478.04 -77.99 477.96C-77.93 477.88 -77.85 477.81 -77.76 477.76C-77.67 477.71 -77.58 477.67 -77.48 477.66C-77.38 477.65 -77.28 477.65 -77.18 477.68C-61.84 481.66 -49.5 499.68 -40.5 531.22C-39.46 534.99 -38.48 538.78 -37.59 542.59C-36.69 546.4 -35.87 550.23 -35.12 554.07C-34.38 557.92 -33.71 561.77 -33.11 565.64C-32.52 569.51 -32.01 573.39 -31.57 577.28C-31.56 577.36 -31.56 577.44 -31.58 577.52C-31.6 577.6 -31.63 577.68 -31.67 577.75C-31.71 577.81 -31.76 577.88 -31.82 577.93C-31.88 577.99 -31.94 578.03 -32.02 578.06Z" />
											</g>
											<g id="Grupo_142">
												<path id="Trazado_305" class="shp2" d="M-3.18 539.25C-3.27 539.3 -3.37 539.33 -3.47 539.33C-3.57 539.34 -3.67 539.33 -3.77 539.3C-3.86 539.26 -3.95 539.21 -4.03 539.15C-4.11 539.08 -4.17 539 -4.21 538.91C-4.25 538.83 -4.28 538.75 -4.29 538.66C-4.3 538.58 -4.3 538.49 -4.28 538.4C-4.26 538.32 -4.23 538.24 -4.18 538.16C-4.14 538.09 -4.08 538.02 -4.01 537.97C-1.69 535.93 53.26 488.14 76.4 490.37C76.5 490.38 76.6 490.41 76.69 490.45C76.78 490.5 76.86 490.57 76.93 490.64C76.99 490.72 77.04 490.81 77.07 490.91C77.1 491.01 77.11 491.11 77.1 491.21C77.09 491.31 77.06 491.41 77.02 491.5C76.97 491.59 76.9 491.67 76.83 491.74C76.75 491.8 76.66 491.85 76.56 491.88C76.46 491.91 76.36 491.92 76.26 491.91C53.77 489.74 -2.43 538.64 -2.99 539.13C-3.01 539.15 -3.02 539.16 -3.04 539.17C-3.05 539.18 -3.07 539.19 -3.08 539.2C-3.1 539.21 -3.11 539.22 -3.13 539.23C-3.15 539.24 -3.16 539.25 -3.18 539.25Z" />
											</g>
										</g>
									</g>
								</g>
							</g>
						</g>
					</g>
				</g>
				<g id="Grupo_155">
					<g id="Grupo_154">
						<path id="Trazado_307" class="shp3" d="M135.56 461.15C135.11 462.49 134.65 463.81 134.17 465.13C133.69 466.45 133.19 467.76 132.67 469.07C132.16 470.37 131.62 471.67 131.07 472.96C130.52 474.25 129.94 475.53 129.36 476.81C126.56 483.4 121.96 491.85 121.19 498.96C120.48 505.59 123.24 512.7 124.79 519.03C128.03 532.22 126 545.48 115.36 554.71C114.05 555.78 112.71 556.83 111.35 557.84C109.99 558.86 108.61 559.84 107.2 560.79C105.79 561.74 104.37 562.66 102.92 563.54C101.47 564.43 100 565.28 98.52 566.1C87.33 572.63 70.07 578 70.45 593.93C70.62 600.77 73 607.3 72.19 614.21C71.61 619.19 68.19 625.63 65.18 629.56C52.28 646.47 21.95 645.16 3.86 639.5C-38.12 626.36 -50.94 647.51 -53.83 663.53C-56.71 679.56 -85.87 615.78 -85.87 615.78C-85.87 615.78 -91.91 605.27 -62.61 602.35C-33.31 599.43 -37.95 586.33 -37.82 572.83C-37.7 559.34 -46.78 532.92 -8.64 534.61C29.5 536.3 36.23 531.17 36.87 508.41C37.51 485.66 76.62 396.88 119.08 415.63C125.07 418.27 131.56 423.05 134.93 428.74C140.56 438.25 138.54 451.11 135.56 461.15Z" />
						<g id="Grupo_405">
							<g id="Clip-Path: Grupo_404" clip-path="url(#cp2)">
								<g id="Grupo_404">
									<g id="Grupo_153">
										<g id="Grupo_152" style="opacity: 0.8">
											<g id="Grupo_147">
												<path id="Trazado_308" class="shp2" d="M-99.02 640.96C-99.11 640.96 -99.2 640.94 -99.28 640.91C-99.37 640.87 -99.44 640.82 -99.51 640.76C-99.57 640.7 -99.62 640.62 -99.66 640.54C-99.69 640.46 -99.71 640.37 -99.71 640.28C-99.71 640.19 -99.7 640.11 -99.67 640.03C-99.64 639.96 -99.6 639.88 -99.54 639.82C-99.49 639.76 -99.42 639.71 -99.35 639.67C-99.27 639.63 -99.19 639.6 -99.11 639.59C-94.79 638.91 -90.47 638.14 -86.18 637.28C-81.88 636.43 -77.6 635.49 -73.35 634.46C-69.09 633.43 -64.85 632.32 -60.64 631.13C-56.42 629.93 -52.23 628.66 -48.07 627.29C-22.53 618.97 12.26 603.88 33.01 579.25C50.34 558.67 72.47 522.32 93.72 479.5C112.78 441.12 124.17 411.75 124.17 405.54C124.17 405.45 124.19 405.36 124.23 405.28C124.26 405.19 124.31 405.12 124.37 405.06C124.44 404.99 124.51 404.94 124.6 404.91C124.68 404.87 124.77 404.86 124.86 404.86C124.95 404.85 125.04 404.87 125.12 404.91C125.2 404.94 125.28 404.99 125.34 405.06C125.41 405.12 125.46 405.19 125.49 405.28C125.53 405.36 125.54 405.45 125.54 405.54C125.54 412.81 112.11 445.56 94.95 480.11C73.65 523.01 51.45 559.47 34.06 580.12C13.1 605 -21.95 620.21 -47.67 628.6C-51.85 629.96 -56.05 631.25 -60.28 632.45C-64.52 633.65 -68.77 634.76 -73.05 635.79C-77.32 636.82 -81.62 637.77 -85.93 638.62C-90.25 639.48 -94.58 640.26 -98.92 640.94C-98.93 640.95 -98.94 640.95 -98.95 640.95C-98.95 640.95 -98.96 640.95 -98.97 640.95C-98.98 640.95 -98.99 640.95 -99 640.96C-99 640.96 -99.01 640.96 -99.02 640.96Z" />
											</g>
											<g id="Grupo_148">
												<path id="Trazado_309" class="shp2" d="M90.86 487.14C90.48 487.14 90.17 486.98 90.17 486.6C90.17 486.1 89.64 436.6 72.24 419.2C72.18 419.14 72.13 419.07 72.1 418.99C72.06 418.92 72.04 418.83 72.04 418.75C72.04 418.66 72.05 418.58 72.08 418.5C72.11 418.42 72.16 418.35 72.22 418.29L72.24 418.26C72.31 418.2 72.38 418.15 72.47 418.12C72.55 418.09 72.64 418.07 72.73 418.07C72.82 418.08 72.91 418.1 72.99 418.13C73.07 418.17 73.15 418.22 73.21 418.28L73.21 418.28C91 436.08 91.53 484.53 91.54 486.58C91.54 486.96 91.24 487.13 90.86 487.13L90.86 487.14Z" />
											</g>
											<g id="Grupo_149">
												<path id="Trazado_310" class="shp2" d="M64.71 535.08C64.62 535.08 64.53 535.06 64.45 535.03C64.37 535 64.29 534.95 64.23 534.88C64.16 534.82 64.11 534.74 64.08 534.66C64.04 534.58 64.03 534.49 64.03 534.4C64.03 534.33 64.04 534.26 64.06 534.19C64.08 534.13 64.11 534.06 64.15 534C64.19 533.95 64.24 533.9 64.3 533.85C64.35 533.81 64.42 533.78 64.48 533.75C67.2 532.83 69.94 531.95 72.69 531.14C75.44 530.32 78.21 529.55 80.99 528.85C83.77 528.14 86.57 527.48 89.38 526.89C92.19 526.29 95.01 525.75 97.84 525.26C121.77 521.31 138.17 523.7 146.57 532.36C146.63 532.43 146.68 532.5 146.71 532.59C146.75 532.67 146.76 532.76 146.76 532.85C146.76 532.94 146.74 533.03 146.7 533.11C146.67 533.2 146.61 533.27 146.55 533.33C146.48 533.4 146.41 533.44 146.32 533.48C146.24 533.51 146.15 533.53 146.06 533.52C145.97 533.52 145.88 533.5 145.8 533.47C145.72 533.43 145.64 533.38 145.58 533.31L145.58 533.31C126.25 513.38 65.55 534.82 64.94 535.04C64.92 535.05 64.9 535.05 64.88 535.06C64.86 535.06 64.84 535.07 64.83 535.07C64.81 535.07 64.79 535.08 64.77 535.08C64.75 535.08 64.73 535.08 64.71 535.08L64.71 535.08Z" />
											</g>
											<g id="Grupo_150">
												<path id="Trazado_311" class="shp2" d="M-24.6 619.94C-24.69 619.94 -24.78 619.93 -24.86 619.89C-24.95 619.86 -25.02 619.81 -25.08 619.74C-25.15 619.68 -25.2 619.6 -25.23 619.52C-25.27 619.44 -25.28 619.35 -25.29 619.26C-25.28 619.24 -25.28 619.22 -25.28 619.2C-25.28 619.18 -25.28 619.17 -25.28 619.15C-25.27 619.13 -25.27 619.11 -25.26 619.09C-25.26 619.07 -25.25 619.06 -25.25 619.04C-24.18 615.76 -23.18 612.46 -22.24 609.13C-21.3 605.81 -20.43 602.47 -19.62 599.12C-18.82 595.76 -18.08 592.39 -17.41 589.01C-16.74 585.62 -16.13 582.22 -15.59 578.82C-12.68 559.41 -11.95 534.05 -25.03 523.44C-25.1 523.39 -25.16 523.32 -25.2 523.24C-25.25 523.16 -25.27 523.07 -25.28 522.98C-25.29 522.89 -25.28 522.8 -25.26 522.72C-25.23 522.63 -25.19 522.55 -25.13 522.48C-25.08 522.41 -25.01 522.35 -24.93 522.31C-24.85 522.27 -24.76 522.24 -24.67 522.23C-24.58 522.22 -24.49 522.23 -24.41 522.25C-24.32 522.28 -24.24 522.32 -24.17 522.38C-13.26 531.22 -9.92 550.29 -14.24 579.04C-14.78 582.47 -15.39 585.88 -16.07 589.29C-16.74 592.69 -17.48 596.08 -18.29 599.45C-19.1 602.83 -19.98 606.18 -20.92 609.52C-21.87 612.86 -22.88 616.18 -23.95 619.48C-23.98 619.55 -24.01 619.61 -24.05 619.67C-24.09 619.73 -24.14 619.78 -24.2 619.82C-24.26 619.86 -24.32 619.89 -24.39 619.91C-24.46 619.93 -24.53 619.94 -24.6 619.94L-24.6 619.94Z" />
											</g>
											<g id="Grupo_151">
												<path id="Trazado_312" class="shp2" d="M12.91 599.23C12.82 599.23 12.74 599.21 12.65 599.18C12.57 599.14 12.49 599.09 12.43 599.03C12.37 598.97 12.32 598.89 12.28 598.81C12.25 598.72 12.23 598.64 12.23 598.55C12.23 598.47 12.24 598.4 12.26 598.33C12.29 598.26 12.32 598.2 12.36 598.14C12.41 598.08 12.46 598.03 12.52 597.98C12.58 597.94 12.65 597.91 12.72 597.89C15.34 597.1 77.22 578.72 95.07 589.02C95.15 589.06 95.22 589.12 95.27 589.19C95.33 589.27 95.37 589.35 95.39 589.43C95.41 589.52 95.42 589.61 95.41 589.7C95.4 589.79 95.37 589.88 95.32 589.95C95.28 590.03 95.22 590.1 95.14 590.16C95.07 590.21 94.99 590.25 94.91 590.27C94.82 590.3 94.73 590.3 94.64 590.29C94.55 590.28 94.46 590.25 94.38 590.2L94.38 590.2C77.04 580.2 13.75 599 13.11 599.2C13.09 599.21 13.08 599.21 13.06 599.22C13.05 599.22 13.03 599.22 13.01 599.22C13 599.23 12.98 599.23 12.96 599.23C12.95 599.23 12.93 599.23 12.91 599.23Z" />
											</g>
										</g>
									</g>
								</g>
							</g>
						</g>
					</g>
				</g>
			</g>
			<g id="Grupo_175">
				<g id="Grupo_165">
					<g id="Grupo_164">
						<path id="Trazado_314" class="shp4" d="M761.38 137.47C768.34 132.61 778.46 130.49 786.87 130.58C846.43 131.25 844.9 255.74 833.56 282.66C822.21 309.57 827.34 319.14 872.79 337.44C918.23 355.75 893.58 381.77 886.55 397.6C879.53 413.43 867.14 426.27 899.81 445.26C932.48 464.24 919.84 473.3 919.84 473.3C919.84 473.3 851.87 532.29 857.02 512.04C862.17 491.79 858.44 460.27 802.42 453.3C778.29 450.3 742.16 435.69 736.08 409.1C734.66 402.9 734.09 393.57 736.06 387.44C738.79 378.94 745.04 372.57 748.86 364.68C757.79 346.27 740.46 330.83 730.89 317.25C725.89 310.16 720.9 302.9 717.27 294.99C709.74 278.56 714.42 261.99 725.22 248.3C730.39 241.74 737.4 234.9 740.08 226.78C742.97 218.06 742.09 205.76 742.33 196.57C742.52 189.36 742.43 182.15 743.42 174.99C745.27 161.67 749.75 145.58 761.38 137.47Z" />
						<g id="Grupo_407">
							<g id="Clip-Path: Grupo_406" clip-path="url(#cp3)">
								<g id="Grupo_406">
									<g id="Grupo_163">
										<g id="Grupo_162" style="opacity: 0.8">
											<g id="Grupo_157">
												<path id="Trazado_315" class="shp2" d="M921.78 509.69C921.77 509.69 921.76 509.68 921.76 509.68C921.75 509.67 921.74 509.67 921.73 509.66C921.72 509.66 921.71 509.65 921.7 509.65C916.99 506.54 912.35 503.33 907.77 500.03C903.19 496.74 898.67 493.35 894.22 489.88C889.78 486.4 885.4 482.83 881.1 479.18C876.79 475.53 872.56 471.8 868.4 467.98C842.82 444.52 809.97 408.12 798.72 367.91C789.38 334.54 782.84 280.17 780.77 218.73C779.1 169.26 780.82 123.85 784.68 115.37C784.73 115.26 784.8 115.17 784.88 115.09C784.97 115.01 785.07 114.95 785.18 114.91C785.28 114.87 785.4 114.85 785.51 114.85C785.63 114.86 785.74 114.88 785.85 114.93C785.95 114.98 786.05 115.05 786.13 115.13C786.21 115.22 786.27 115.32 786.31 115.42C786.35 115.53 786.37 115.65 786.36 115.76C786.36 115.88 786.33 115.99 786.28 116.1C782.98 123.35 780.67 163.7 782.52 218.67C784.59 279.98 791.11 334.2 800.41 367.44C811.55 407.23 844.17 443.36 869.57 466.66C873.71 470.47 877.92 474.19 882.21 477.82C886.49 481.46 890.85 485.01 895.28 488.47C899.71 491.93 904.2 495.3 908.77 498.59C913.33 501.87 917.95 505.06 922.64 508.16L922.64 508.16C922.74 508.22 922.83 508.29 922.91 508.38C922.98 508.47 923.03 508.57 923.07 508.68C923.1 508.79 923.11 508.91 923.1 509.02C923.09 509.14 923.05 509.25 923 509.35C922.94 509.45 922.87 509.54 922.78 509.61C922.69 509.69 922.59 509.74 922.48 509.77C922.37 509.81 922.25 509.82 922.14 509.8C922.02 509.79 921.91 509.76 921.81 509.7C921.8 509.7 921.79 509.7 921.78 509.69Z" />
											</g>
											<g id="Grupo_158">
												<path id="Trazado_316" class="shp2" d="M781.74 229.24L781.68 229.22C781.58 229.17 781.5 229.11 781.43 229.04C781.35 228.96 781.3 228.88 781.26 228.78C781.22 228.68 781.2 228.58 781.21 228.47C781.21 228.37 781.23 228.27 781.27 228.17C782.38 225.77 808.78 169.4 839.02 158.08L839.03 158.08C839.14 158.04 839.25 158.02 839.36 158.02C839.48 158.02 839.59 158.05 839.7 158.1C839.8 158.14 839.9 158.21 839.98 158.29C840.06 158.37 840.12 158.47 840.16 158.58L840.17 158.6C840.21 158.71 840.22 158.82 840.22 158.93C840.21 159.04 840.19 159.15 840.14 159.25C840.09 159.35 840.02 159.44 839.94 159.51C839.86 159.59 839.76 159.65 839.66 159.69C810.09 170.76 783.14 228.33 782.87 228.92C782.86 228.94 782.85 228.95 782.84 228.97C782.78 229.06 782.71 229.14 782.63 229.2C782.55 229.26 782.45 229.31 782.35 229.33C782.25 229.36 782.15 229.36 782.04 229.35C781.94 229.33 781.84 229.3 781.75 229.24L781.74 229.24Z" />
											</g>
											<g id="Grupo_159">
												<path id="Trazado_317" class="shp2" d="M786.79 298.97C786.77 298.96 786.75 298.94 786.73 298.93C786.7 298.91 786.68 298.9 786.66 298.88C786.64 298.87 786.62 298.85 786.61 298.83C786.01 298.25 726.51 240.93 693.34 253.95L693.34 253.95C693.23 253.99 693.12 254.01 693 254.01C692.89 254.01 692.77 253.98 692.67 253.93C692.56 253.89 692.46 253.82 692.38 253.74C692.3 253.65 692.24 253.55 692.2 253.45C692.16 253.34 692.14 253.22 692.14 253.11C692.14 252.99 692.17 252.88 692.21 252.77C692.26 252.67 692.33 252.57 692.41 252.49C692.49 252.41 692.59 252.35 692.7 252.31C707.12 246.66 727.54 252.58 753.39 269.92C756.44 272 759.44 274.13 762.41 276.32C765.37 278.51 768.29 280.76 771.16 283.07C774.04 285.37 776.86 287.74 779.64 290.16C782.42 292.57 785.15 295.05 787.84 297.57C787.9 297.64 787.96 297.71 788.01 297.79C788.05 297.88 788.09 297.96 788.1 298.06C788.12 298.15 788.12 298.24 788.11 298.33C788.1 298.43 788.07 298.52 788.03 298.6C787.98 298.7 787.91 298.8 787.82 298.87C787.74 298.95 787.64 299.01 787.53 299.04C787.42 299.08 787.3 299.1 787.19 299.09C787.07 299.08 786.96 299.05 786.86 299C786.84 298.99 786.81 298.98 786.79 298.97Z" />
											</g>
											<g id="Grupo_160">
												<path id="Trazado_318" class="shp2" d="M845.83 445.45C845.76 445.39 845.7 445.32 845.66 445.24C845.61 445.16 845.58 445.08 845.56 444.99C845.54 444.9 845.54 444.81 845.54 444.72C846.04 440.29 846.63 435.88 847.3 431.48C847.98 427.07 848.74 422.69 849.59 418.31C850.43 413.94 851.37 409.59 852.39 405.25C853.41 400.92 854.51 396.61 855.71 392.32C865.94 356.44 879.98 335.95 897.42 331.42C897.53 331.39 897.65 331.38 897.76 331.4C897.88 331.41 897.99 331.45 898.09 331.51C898.19 331.57 898.27 331.64 898.34 331.74C898.41 331.83 898.46 331.93 898.49 332.05C898.52 332.16 898.53 332.27 898.51 332.39C898.5 332.5 898.46 332.61 898.4 332.71C898.34 332.81 898.26 332.9 898.17 332.97C898.08 333.04 897.97 333.09 897.86 333.12C876.94 338.55 864.32 368.56 857.4 392.77C856.22 397.04 855.12 401.33 854.1 405.64C853.09 409.95 852.16 414.28 851.31 418.63C850.47 422.98 849.71 427.34 849.04 431.72C848.37 436.09 847.79 440.48 847.29 444.89C847.29 444.91 847.29 444.93 847.28 444.96C847.28 444.98 847.27 445.01 847.27 445.03C847.26 445.06 847.25 445.08 847.24 445.1C847.24 445.13 847.23 445.15 847.22 445.17C847.17 445.28 847.1 445.37 847.02 445.45C846.93 445.53 846.83 445.59 846.72 445.63C846.62 445.67 846.5 445.68 846.39 445.68C846.27 445.68 846.16 445.65 846.06 445.6C845.97 445.56 845.9 445.51 845.83 445.45Z" />
											</g>
											<g id="Grupo_161">
												<path id="Trazado_319" class="shp2" d="M813.2 401.43C813.18 401.42 813.16 401.41 813.14 401.39C813.13 401.38 813.11 401.37 813.09 401.36C813.07 401.35 813.06 401.33 813.04 401.32C812.4 400.75 748.48 345.14 722.9 347.6C722.78 347.61 722.67 347.6 722.56 347.57C722.45 347.53 722.35 347.48 722.26 347.41C722.17 347.33 722.09 347.24 722.04 347.14C721.99 347.04 721.95 346.93 721.94 346.81C721.93 346.7 721.94 346.58 721.97 346.47C722.01 346.36 722.06 346.26 722.14 346.17C722.21 346.08 722.3 346.01 722.4 345.95C722.5 345.9 722.62 345.86 722.73 345.85C749.05 343.31 811.55 397.68 814.2 400C814.28 400.06 814.34 400.13 814.39 400.22C814.45 400.3 814.48 400.39 814.5 400.49C814.53 400.59 814.53 400.69 814.52 400.78C814.5 400.88 814.48 400.98 814.43 401.07C814.38 401.17 814.31 401.26 814.22 401.34C814.13 401.41 814.03 401.47 813.92 401.51C813.82 401.54 813.7 401.56 813.59 401.55C813.47 401.54 813.36 401.51 813.26 401.46C813.24 401.45 813.22 401.44 813.2 401.43Z" />
											</g>
										</g>
									</g>
								</g>
							</g>
						</g>
					</g>
				</g>
				<g id="Grupo_174">
					<g id="Grupo_173">
						<path id="Trazado_321" class="shp5" d="M656.16 275.75C659.99 269.28 667.37 263.85 674.19 260.84C722.49 239.51 766.97 340.5 767.7 366.38C768.42 392.26 776.08 398.09 819.47 396.17C862.85 394.25 852.51 424.3 852.67 439.65C852.82 455 847.53 469.91 880.86 473.23C914.18 476.55 907.32 488.5 907.32 488.5C907.32 488.5 874.14 561.04 870.86 542.82C867.58 524.59 853 500.53 805.25 515.48C784.68 521.92 750.17 523.41 735.5 504.18C732.08 499.7 728.19 492.38 727.53 486.72C726.61 478.86 729.31 471.43 729.5 463.65C729.94 445.52 710.3 439.43 697.58 431.99C695.89 431.06 694.22 430.09 692.57 429.08C690.93 428.08 689.3 427.03 687.7 425.95C686.11 424.87 684.53 423.75 682.98 422.6C681.44 421.44 679.92 420.25 678.42 419.03C666.32 408.54 664.01 393.45 667.69 378.45C669.46 371.25 672.6 363.16 671.79 355.63C670.91 347.53 665.69 337.93 662.5 330.43C661.83 328.98 661.18 327.52 660.55 326.05C659.92 324.59 659.32 323.11 658.73 321.63C658.14 320.14 657.57 318.65 657.03 317.15C656.48 315.65 655.96 314.14 655.45 312.63C652.05 301.2 649.75 286.57 656.16 275.75Z" />
						<g id="Grupo_409">
							<g id="Clip-Path: Grupo_408" clip-path="url(#cp4)">
								<g id="Grupo_408">
									<g id="Grupo_172">
										<g id="Grupo_171" style="opacity: 0.8">
											<g id="Grupo_166">
												<path id="Trazado_322" class="shp2" d="M922.27 517.14C922.26 517.14 922.26 517.14 922.25 517.14C922.24 517.14 922.23 517.13 922.22 517.13C922.21 517.13 922.2 517.13 922.19 517.13C922.18 517.13 922.17 517.12 922.17 517.12C917.22 516.34 912.3 515.46 907.39 514.48C902.49 513.51 897.6 512.43 892.74 511.26C887.87 510.09 883.03 508.82 878.22 507.46C873.41 506.09 868.62 504.63 863.87 503.08C834.62 493.54 794.75 476.24 770.91 447.94C751.12 424.45 725.88 382.99 701.65 334.19C682.13 294.89 666.85 257.63 666.85 249.36C666.85 249.26 666.87 249.16 666.91 249.06C666.94 248.97 667 248.88 667.07 248.81C667.15 248.74 667.23 248.68 667.33 248.64C667.42 248.6 667.52 248.58 667.62 248.58C667.73 248.58 667.83 248.6 667.92 248.64C668.02 248.68 668.1 248.74 668.18 248.81C668.25 248.88 668.3 248.97 668.34 249.06C668.38 249.16 668.4 249.26 668.4 249.36C668.4 256.43 681.36 289.83 703.04 333.49C727.21 382.19 752.38 423.54 772.1 446.94C795.7 474.96 835.28 492.13 864.32 501.6C869.06 503.14 873.83 504.6 878.62 505.96C883.41 507.32 888.23 508.58 893.07 509.75C897.92 510.92 902.78 511.99 907.67 512.96C912.55 513.93 917.46 514.81 922.38 515.59C922.47 515.6 922.56 515.63 922.65 515.67C922.73 515.72 922.8 515.78 922.87 515.85C922.93 515.92 922.98 516 923.01 516.09C923.04 516.18 923.06 516.27 923.06 516.37C923.06 516.47 923.04 516.57 923 516.66C922.96 516.76 922.9 516.84 922.83 516.92C922.75 516.99 922.67 517.04 922.57 517.08C922.48 517.12 922.38 517.14 922.27 517.14L922.27 517.14Z" />
											</g>
											<g id="Grupo_167">
												<path id="Trazado_323" class="shp2" d="M706.29 342.18C705.86 342.18 705.52 341.98 705.52 341.55C705.53 339.21 706.13 284.1 726.37 263.86L726.37 263.86C726.44 263.79 726.52 263.73 726.62 263.69C726.71 263.65 726.81 263.62 726.91 263.62C727.01 263.62 727.12 263.64 727.21 263.68C727.31 263.71 727.39 263.77 727.47 263.84L727.49 263.87C727.56 263.94 727.61 264.02 727.65 264.11C727.68 264.2 727.7 264.29 727.69 264.39C727.69 264.48 727.67 264.58 727.63 264.67C727.59 264.75 727.54 264.83 727.47 264.9C707.67 284.69 707.07 341 707.07 341.57C707.07 342 706.72 342.18 706.29 342.18L706.29 342.18Z" />
											</g>
											<g id="Grupo_168">
												<path id="Trazado_324" class="shp2" d="M736.03 396.71C736.01 396.71 735.99 396.71 735.97 396.71C735.94 396.71 735.92 396.7 735.9 396.7C735.88 396.69 735.86 396.69 735.84 396.68C735.81 396.68 735.79 396.67 735.77 396.66C735.08 396.41 666.03 372.02 644.05 394.7L644.05 394.7C643.98 394.77 643.89 394.83 643.8 394.87C643.7 394.91 643.6 394.93 643.5 394.94C643.4 394.94 643.3 394.92 643.2 394.88C643.11 394.85 643.02 394.79 642.95 394.72C642.87 394.65 642.82 394.56 642.77 394.47C642.73 394.38 642.71 394.28 642.71 394.17C642.71 394.07 642.73 393.97 642.76 393.88C642.8 393.78 642.86 393.69 642.93 393.62C652.48 383.76 671.13 381.04 698.36 385.54C701.57 386.09 704.78 386.71 707.98 387.39C711.17 388.07 714.35 388.81 717.52 389.62C720.68 390.42 723.83 391.29 726.96 392.22C730.09 393.15 733.2 394.15 736.29 395.2C736.37 395.23 736.44 395.27 736.5 395.31C736.57 395.36 736.62 395.42 736.67 395.49C736.72 395.55 736.75 395.62 736.78 395.7C736.8 395.78 736.81 395.86 736.81 395.94C736.81 396.04 736.79 396.14 736.75 396.23C736.71 396.33 736.66 396.41 736.58 396.49C736.51 396.56 736.42 396.61 736.33 396.65C736.24 396.69 736.13 396.71 736.03 396.71L736.03 396.71Z" />
											</g>
											<g id="Grupo_169">
												<path id="Trazado_325" class="shp2" d="M837.38 493.2C837.3 493.18 837.23 493.14 837.16 493.09C837.09 493.04 837.04 492.99 836.99 492.92C836.94 492.86 836.9 492.78 836.88 492.71C835.65 488.95 834.51 485.18 833.43 481.38C832.36 477.58 831.36 473.76 830.44 469.93C829.52 466.09 828.68 462.23 827.91 458.36C827.14 454.49 826.45 450.6 825.83 446.71C820.92 414 824.72 392.32 837.12 382.26C837.2 382.19 837.29 382.14 837.39 382.12C837.49 382.09 837.59 382.08 837.7 382.09C837.8 382.1 837.9 382.13 837.99 382.18C838.08 382.23 838.16 382.29 838.22 382.37C838.29 382.45 838.34 382.54 838.37 382.64C838.4 382.74 838.41 382.84 838.39 382.95C838.38 383.05 838.35 383.15 838.3 383.24C838.25 383.33 838.19 383.41 838.11 383.47C823.23 395.54 824.06 424.38 827.37 446.46C827.98 450.34 828.67 454.2 829.44 458.05C830.2 461.9 831.04 465.73 831.96 469.55C832.87 473.37 833.86 477.17 834.93 480.94C836 484.72 837.14 488.48 838.36 492.21C838.36 492.23 838.37 492.25 838.37 492.27C838.38 492.29 838.38 492.31 838.39 492.33C838.39 492.35 838.39 492.37 838.39 492.4C838.4 492.42 838.4 492.44 838.4 492.46C838.4 492.56 838.38 492.66 838.34 492.76C838.3 492.85 838.24 492.94 838.17 493.01C838.1 493.08 838.01 493.14 837.92 493.18C837.82 493.22 837.72 493.24 837.62 493.24C837.54 493.24 837.45 493.23 837.38 493.2Z" />
											</g>
											<g id="Grupo_170">
												<path id="Trazado_326" class="shp2" d="M794.95 469.68C794.93 469.68 794.91 469.68 794.89 469.68C794.87 469.68 794.86 469.67 794.84 469.67C794.82 469.67 794.8 469.66 794.78 469.66C794.76 469.66 794.75 469.65 794.73 469.65C794 469.43 722.01 448.03 702.28 459.41C702.19 459.47 702.09 459.5 701.99 459.51C701.89 459.52 701.79 459.52 701.69 459.49C701.59 459.46 701.5 459.42 701.42 459.36C701.34 459.29 701.27 459.22 701.22 459.13C701.16 459.04 701.13 458.94 701.12 458.84C701.1 458.74 701.11 458.64 701.14 458.54C701.16 458.44 701.21 458.35 701.27 458.26C701.33 458.18 701.41 458.12 701.5 458.06C721.8 446.35 792.19 467.25 795.17 468.15C795.25 468.18 795.33 468.22 795.4 468.26C795.47 468.31 795.53 468.37 795.58 468.44C795.63 468.5 795.66 468.58 795.69 468.66C795.72 468.74 795.73 468.82 795.73 468.9C795.73 469 795.71 469.11 795.67 469.2C795.63 469.29 795.57 469.38 795.5 469.45C795.43 469.52 795.34 469.58 795.25 469.62C795.15 469.66 795.05 469.68 794.95 469.68L794.95 469.68Z" />
											</g>
										</g>
									</g>
								</g>
							</g>
						</g>
					</g>
				</g>
			</g>
			<g id="Grupo_181">
				<g id="Grupo_180">
					<g id="Grupo_412">
						<g id="Clip-Path: Grupo_411" clip-path="url(#cp5)">
							<g id="Grupo_411">
								<g id="Grupo_179">
									<g id="Grupo_178">
										<path id="Trazado_328" class="shp6" d="M1286.1 481.79C1286.11 489.89 1285.49 497.98 1284.27 505.99C1283.04 514 1281.2 521.91 1278.77 529.64C1276.34 537.37 1273.32 544.9 1269.74 552.17C1266.16 559.44 1262.03 566.43 1257.39 573.07C1257.32 573.17 1257.06 573.28 1257.06 573.38L1257.06 573.38C1228.72 614.91 1180.16 641.81 1125.69 641.81C1124.59 641.82 1123.5 641.81 1122.41 641.78C1121.31 641.75 1120.22 641.7 1119.13 641.63C1118.04 641.57 1116.95 641.48 1115.86 641.37C1114.77 641.27 1113.69 641.14 1112.6 641L1112.6 641C1112.58 641 1112.58 641.27 1112.56 641.27C1110.41 641.09 1108.28 641.01 1106.16 640.74C1105.4 640.66 1104.65 640.62 1103.9 640.52C1103.23 640.43 1102.57 640.37 1101.91 640.27C1101.33 640.19 1100.76 640.11 1100.19 640.02C1100.06 640 1099.93 639.98 1099.81 639.97C1098.4 639.74 1097.01 639.5 1095.62 639.23L1095.6 639.23C1074.88 635.19 1055.15 627.1 1037.55 615.44C1019.95 603.77 1004.82 588.75 993.02 571.24C981.22 553.73 972.99 534.06 968.79 513.37C964.59 492.67 964.51 471.35 968.55 450.63C968.82 449.25 969.11 447.88 969.41 446.51C969.72 445.14 970.04 443.77 970.38 442.41C970.72 441.05 971.08 439.7 971.45 438.34C971.83 436.99 972.22 435.65 972.63 434.3C973.36 431.95 974.27 429.63 974.87 427.32L974.87 427.32C976.67 423.49 977.89 419.72 979.56 416.02C980.23 414.55 980.97 413.08 981.67 411.63C982.65 409.63 983.66 407.66 984.72 405.72C985.77 403.77 986.87 401.84 988 399.94C989.13 398.04 990.31 396.16 991.52 394.3C992.73 392.45 993.98 390.62 995.27 388.82C995.74 388.17 996.22 387.52 996.7 386.87C998.6 384.29 1000.57 381.77 1002.63 379.3C1005.71 375.61 1008.94 372.06 1012.33 368.66C1014.54 366.44 1016.82 364.29 1019.15 362.2C1021.49 360.11 1023.89 358.1 1026.34 356.15C1028.79 354.2 1031.3 352.33 1033.87 350.53C1036.43 348.73 1039.04 347.01 1041.71 345.36C1045.02 343.31 1048.4 341.39 1051.87 339.58C1065.63 332.43 1080.36 327.3 1095.6 324.38C1110.83 321.45 1126.41 320.75 1141.85 322.3C1157.28 323.84 1172.41 327.62 1186.77 333.51C1201.12 339.4 1214.54 347.34 1226.61 357.08C1231.71 361.18 1236.56 365.59 1241.12 370.28C1245.68 374.97 1249.96 379.93 1253.92 385.14C1257.88 390.34 1261.52 395.79 1264.83 401.44C1268.13 407.08 1271.08 412.93 1273.68 418.94C1275.99 424.36 1277.56 429.94 1279.97 435.64L1279.97 435.64C1279.97 435.66 1279.69 435.68 1279.7 435.71C1280.79 439.44 1281.74 443.22 1282.56 447.02C1283.37 450.83 1284.05 454.66 1284.58 458.51C1285.12 462.37 1285.51 466.24 1285.77 470.12C1286.02 474 1286.13 477.9 1286.1 481.79L1286.1 481.79Z" />
										<g id="Grupo_177">
											<g id="Grupo_410">
												<path id="Trazado_329" class="shp0" d="" />
												<path id="Trazado_330" class="shp0" d="M1160.8 535.83C1157.37 540.68 1146.72 546.9 1153.94 559.12C1161.1 571.31 1153.44 573.6 1148.52 572.45C1143.57 571.33 1128.19 570.7 1130.75 577.69C1133.32 584.68 1137.72 587.31 1132.08 590.01C1126.45 592.71 1124.07 599.72 1118.3 609.39C1112.57 619.08 1098.97 610.7 1103 620.41C1107.03 630.12 1110.16 629.19 1109.78 635.95C1109.69 637.81 1110.93 639.72 1112.6 641.54C1110.45 641.36 1108.29 641.14 1106.15 640.88C1105.4 640.79 1104.64 640.69 1103.89 640.59C1103.23 640.5 1102.57 640.41 1101.91 640.3C1101.33 640.22 1100.76 640.13 1100.19 640.04C1100.06 640.01 1100.09 639.99 1099.96 639.98C1098.58 639.74 1097.87 639.5 1096.06 639.23L1096.06 639.23C1094.86 638.09 1095.61 636.85 1095.8 635.51C1097.6 623.01 1080.35 614.42 1077.46 605.67C1074.62 596.93 1077.43 591.72 1076.77 584.48C1076.09 577.26 1078.46 567.68 1074.3 561.59C1070.14 555.52 1053.38 553.49 1050.19 541.25C1046.97 529.03 1054.45 510.73 1057.35 507.62C1060.21 504.5 1043.47 490.33 1035.5 489.88C1027.49 489.39 1030.7 473.27 1017.16 475.72C1003.6 478.1 979.24 470.54 984.27 462.4C988.42 455.69 995.39 440.9 972.63 434.31C973.36 431.96 974.26 429.63 974.86 427.33L974.86 427.33C976.66 423.49 977.88 419.72 979.55 416.03C980.22 414.55 980.96 413.08 981.66 411.63C982.64 409.64 983.65 407.67 984.71 405.72C985.76 403.78 986.86 401.85 987.99 399.95C989.13 398.04 990.3 396.16 991.51 394.31C992.73 392.46 993.98 390.63 995.26 388.82C995.73 388.17 996.21 387.52 996.69 386.88C998.59 384.29 1000.57 381.77 1002.62 379.31C1005.7 375.62 1008.93 372.07 1012.32 368.66C1014.54 366.44 1016.81 364.29 1019.15 362.2C1021.48 360.12 1023.88 358.1 1026.33 356.15C1028.78 354.21 1031.29 352.33 1033.86 350.53C1036.42 348.73 1039.04 347.01 1041.7 345.36C1046.21 348.52 1051.35 350.47 1055.8 348.07C1066.7 341.97 1059.51 341.03 1055.05 340.8C1054.76 340.79 1054.47 340.75 1054.19 340.69C1053.91 340.62 1053.63 340.54 1053.36 340.44C1053.09 340.33 1052.83 340.21 1052.58 340.07C1052.32 339.93 1052.08 339.76 1051.85 339.58C1053.97 338.48 1056.1 337.43 1058.26 336.42C1060.41 335.42 1062.59 334.46 1064.79 333.55C1067 332.65 1069.22 331.79 1071.45 330.98C1073.69 330.17 1075.95 329.41 1078.22 328.71C1077.54 334.86 1069.18 344.75 1075.33 343.54C1082.5 342.18 1085.42 322.83 1090.68 329.26C1096.01 335.71 1084.84 344.18 1095.33 339.27C1105.83 334.42 1107.24 323.58 1118.95 328.85C1130.71 334.19 1129.64 340.51 1132.92 339.89C1136.21 339.26 1146.77 346.38 1140.37 352.23C1133.92 358.1 1128 350.62 1118.32 348.37C1108.63 346.14 1108.87 354.06 1104.42 355.87C1099.89 357.62 1078.03 347.06 1072.67 356.6C1067.24 366.07 1064.93 372.68 1072.98 372.43C1081.03 372.21 1081.54 370.13 1080.91 376.07C1080.28 382.02 1081.74 386.48 1089.02 380.88C1096.29 375.3 1094.66 369.85 1100.34 372.51C1106.02 375.17 1106.69 372.76 1112.74 368.37C1118.78 363.98 1126.73 363.53 1128.81 373.37C1130.89 383.22 1127.33 385.43 1116.71 385.93C1106.08 386.44 1104.88 383.1 1101.49 391.98C1098.12 400.87 1084.06 412.28 1071.72 416.98C1059.4 421.7 1054.57 428.66 1054.86 438.05C1055.14 447.45 1050.52 457.39 1047.42 449.64C1044.32 441.86 1035.61 428.76 1026.72 437.51C1017.82 446.29 1002.33 461.8 1019.45 464.63C1036.53 467.52 1027.62 451.51 1036.26 454.71C1044.88 457.94 1030.79 464.99 1036.56 467.54C1042.33 470.11 1044.75 468.91 1044.71 476.77C1044.66 484.64 1046.62 492.27 1053.62 488.94C1060.63 485.6 1069.62 470.2 1079.75 479.32C1089.9 488.46 1089.18 487.27 1094.5 484.61C1099.83 481.94 1103.2 489.92 1105.38 493.55C1107.56 497.18 1116.11 493.47 1123.04 504.27C1129.96 515.07 1132.68 517 1140.57 513.11C1148.46 509.22 1151.68 512.11 1153.74 517.57C1155.8 523.02 1160.65 517.69 1163 524.9C1165.34 532.11 1164.23 530.98 1160.8 535.83Z" />
												<g id="Grupo_176">
													<path id="Trazado_331" class="shp0" d="M1187.84 404.96C1182.24 392.96 1209.97 394.3 1214.87 395.23C1219.8 396.05 1231.36 387.01 1232.83 382.81C1234.34 378.57 1236.82 380.58 1245.59 380.46C1254.36 380.37 1246.61 378.39 1236.96 375.2C1227.33 372.03 1235.56 371.71 1226.68 364.7C1222.86 361.63 1224.06 359.02 1226.61 357.08C1231.69 361.18 1236.51 365.59 1241.05 370.28C1245.6 374.97 1249.85 379.94 1253.79 385.14C1257.72 390.35 1261.34 395.79 1264.62 401.44C1267.89 407.09 1270.82 412.93 1273.39 418.93C1273.32 418.91 1273.26 418.89 1273.19 418.88C1273.12 418.86 1273.05 418.85 1272.98 418.83C1272.91 418.82 1272.84 418.81 1272.77 418.81C1272.7 418.8 1272.63 418.79 1272.57 418.79C1266.42 418.76 1265.07 405.18 1261.91 402.53C1258.79 399.89 1261.99 409.99 1262.75 414.14C1263.52 418.29 1261.07 414.8 1258.01 418.61C1254.95 422.43 1249.38 422.5 1248.89 416.78C1248.39 411.05 1244.35 405.46 1236.18 402.85C1228.01 400.24 1220.94 402.38 1214.3 404.94C1207.7 407.46 1193.47 416.88 1187.84 404.96Z" />
													<path id="Trazado_332" class="shp0" d="M1257.45 573.38C1258 569.26 1258.91 565 1257.19 563.44C1253 559.56 1252.09 548.98 1253.54 543.62C1254.99 538.26 1266.26 538.55 1258.61 529.63C1250.94 520.67 1244.02 510.05 1247.24 503.98C1250.47 497.9 1249.49 497.47 1243.45 497.5C1237.41 497.54 1234.75 497.8 1228.73 492.43C1222.7 486.98 1214.41 505.29 1191.73 490.6C1169.05 475.77 1181.97 450.77 1190.46 450.71C1199.02 450.57 1209.01 446.25 1202 435.82C1195.01 425.35 1205.93 423.88 1211.27 426.25C1216.61 428.61 1226.08 422.29 1235.74 419.44C1245.42 416.6 1244.99 432.37 1250.37 435.53C1255.77 438.69 1265.9 436.18 1271.17 431.13C1274.92 427.52 1275.74 431.73 1279.46 435.72C1282.9 447.24 1285.04 459.12 1285.83 471.12C1286.63 483.13 1286.07 495.18 1284.17 507.06C1282.27 518.94 1279.04 530.57 1274.55 541.73C1270.05 552.89 1264.32 563.5 1257.45 573.38L1257.45 573.38Z" />
													<path id="Trazado_333" class="shp0" d="M1212.34 379.56C1213.29 375.38 1208.93 365.69 1211.89 360.71C1214.83 355.74 1218.85 371.5 1221.39 376.64C1223.95 381.78 1216.88 384.97 1216.88 384.98C1211.35 385.94 1211.39 383.73 1212.34 379.56Z" />
													<path id="Trazado_334" class="shp0" d="M1202.3 380.62C1197.82 375.18 1205.48 371.99 1205.47 372C1210.77 371.78 1209.73 378.51 1209.83 380.17C1209.94 381.82 1206.8 386.04 1202.3 380.62Z" />
												</g>
											</g>
										</g>
									</g>
									<path id="Trazado_335" class="shp7" d="M1285.67 481.5C1285.7 489.6 1285.1 497.69 1283.89 505.7C1282.68 513.71 1280.87 521.61 1278.45 529.34C1276.04 537.07 1273.04 544.6 1269.48 551.88C1265.91 559.15 1261.8 566.14 1257.17 572.78C1257.16 572.81 1257.14 572.83 1257.13 572.86C1257.11 572.88 1257.1 572.91 1257.09 572.93C1257.08 572.96 1257.08 572.99 1257.07 573.02C1257.06 573.05 1257.06 573.07 1257.06 573.1L1257.06 573.1C1249.7 583.65 1241.08 593.27 1231.41 601.75C1221.74 610.23 1211.08 617.51 1199.67 623.44C1188.25 629.36 1176.16 633.89 1163.66 636.92C1151.16 639.94 1138.34 641.45 1125.47 641.4C1124.36 641.4 1123.25 641.38 1122.14 641.34C1121.03 641.3 1119.92 641.24 1118.81 641.16C1117.7 641.08 1116.59 640.98 1115.48 640.87C1114.38 640.75 1113.27 640.61 1112.17 640.46L1112.17 640.46C1112.16 640.46 1112.15 640.86 1112.13 640.86C1109.98 640.68 1107.85 640.66 1105.73 640.4C1104.98 640.31 1104.22 640.31 1103.47 640.21C1102.8 640.12 1102.14 640.08 1101.48 639.97C1100.9 639.89 1100.33 639.83 1099.76 639.73C1099.63 639.71 1099.5 639.7 1099.38 639.68C1097.98 639.45 1096.59 639.21 1095.2 638.95L1095.17 638.95C1078.45 635.72 1062.35 629.85 1047.47 621.56C1032.6 613.27 1019.14 602.67 1007.6 590.15C996.06 577.62 986.58 563.34 979.53 547.84C972.48 532.34 967.95 515.81 966.09 498.88C970.1 510.27 975.58 521.08 982.38 531.05C989.18 541.02 997.25 550.06 1006.39 557.95C1015.52 565.84 1025.64 572.5 1036.5 577.78C1047.35 583.06 1058.85 586.9 1070.69 589.21L1070.71 589.21C1071 589.32 1071.29 589.41 1071.59 589.49C1071.88 589.57 1072.18 589.64 1072.49 589.7C1072.79 589.76 1073.09 589.8 1073.4 589.83C1073.7 589.87 1074.01 589.89 1074.32 589.89C1074.42 589.91 1074.54 589.95 1074.66 589.96C1075.14 590.04 1075.64 590.13 1076.14 590.2C1076.71 590.28 1077.28 590.36 1077.86 590.43C1078.51 590.52 1079.16 590.58 1079.81 590.66C1081.64 590.88 1083.48 591.3 1085.33 591.45C1085.35 591.45 1085.36 591.63 1085.37 591.63L1085.37 591.63C1089.14 591.63 1092.9 591.92 1096.74 591.92C1107.86 591.92 1118.93 590.58 1129.73 587.92C1140.52 585.27 1150.96 581.32 1160.8 576.17C1170.65 571.01 1179.84 564.69 1188.18 557.33C1196.51 549.97 1203.92 541.64 1210.26 532.51C1210.26 532.41 1210.41 532.29 1210.47 532.19C1216.38 523.68 1221.32 514.53 1225.19 504.91C1229.06 495.29 1231.84 485.27 1233.47 475.03C1235.1 464.8 1235.58 454.41 1234.89 444.07C1234.2 433.72 1232.35 423.49 1229.38 413.56C1229.38 413.54 1229.33 413.51 1229.33 413.49L1229.33 413.49C1228.99 412.25 1228.64 411.03 1228.26 409.81C1227.88 408.59 1227.47 407.38 1227.04 406.17C1226.61 404.97 1226.16 403.77 1225.68 402.59C1225.21 401.4 1224.7 400.23 1224.18 399.07C1220.34 390.06 1215.55 381.48 1209.9 373.49C1204.25 365.49 1197.77 358.11 1190.57 351.48C1183.36 344.84 1175.48 338.99 1167.04 334.02C1158.6 329.05 1149.66 324.99 1140.37 321.9C1148.17 322.62 1155.91 323.91 1163.53 325.76C1171.14 327.62 1178.61 330.03 1185.87 332.98C1193.13 335.94 1200.16 339.42 1206.91 343.41C1213.65 347.39 1220.1 351.87 1226.19 356.8C1231.28 360.9 1236.12 365.31 1240.67 370C1245.23 374.69 1249.5 379.65 1253.45 384.86C1257.41 390.06 1261.04 395.5 1264.34 401.15C1267.63 406.8 1270.58 412.64 1273.16 418.65C1275.48 424.07 1276.96 429.65 1279.37 435.35L1279.37 435.35C1279.37 435.38 1279.18 435.39 1279.19 435.42C1280.29 439.15 1281.25 442.93 1282.07 446.73C1282.89 450.54 1283.57 454.37 1284.12 458.23C1284.66 462.08 1285.06 465.95 1285.32 469.84C1285.58 473.72 1285.7 477.61 1285.67 481.5L1285.67 481.5Z" />
								</g>
							</g>
						</g>
					</g>
				</g>
			</g>
			<path id="Trazado_475" class="shp0" d="M251.42 0C251.42 0 127.33 0.02 91.16 102.75C55 205.49 0.11 213.84 0.11 213.84L0.11 0L251.42 0Z" />
			<g id="Grupo_394" style="opacity: 0.361">
				<g id="Clip-Path: Grupo_393" clip-path="url(#cp6)">
					<g id="Grupo_393">
						<path id="Línea_18" class="shp8" d="M1258.25 7.56L1684.42 433.73" />
						<path id="Línea_19" class="shp8" d="M1240.15 25.66L1666.32 451.83" />
						<path id="Línea_20" class="shp8" d="M1222.05 43.76L1648.22 469.93" />
						<path id="Línea_21" class="shp8" d="M1203.95 61.86L1630.12 488.03" />
						<path id="Línea_22" class="shp8" d="M1185.85 79.96L1612.02 506.13" />
						<path id="Línea_23" class="shp8" d="M1167.75 98.06L1593.92 524.23" />
						<path id="Línea_24" class="shp8" d="M1149.65 116.16L1575.82 542.33" />
						<path id="Línea_25" class="shp8" d="M1131.55 134.26L1557.72 560.43" />
						<path id="Línea_26" class="shp8" d="M1113.45 152.36L1539.62 578.53" />
						<path id="Línea_27" class="shp8" d="M1095.35 170.46L1521.52 596.63" />
						<path id="Línea_28" class="shp8" d="M1077.25 188.56L1503.42 614.73" />
						<path id="Línea_29" class="shp8" d="M1059.15 206.66L1485.32 632.83" />
						<path id="Línea_30" class="shp8" d="M1041.05 224.76L1467.22 650.93" />
						<path id="Línea_31" class="shp8" d="M1022.95 242.86L1449.12 669.03" />
						<path id="Línea_32" class="shp8" d="M1004.85 260.96L1431.02 687.13" />
						<path id="Línea_33" class="shp8" d="M986.75 279.06L1412.92 705.23" />
						<path id="Línea_34" class="shp8" d="M968.65 297.16L1394.82 723.33" />
					</g>
				</g>
				<path id="Elipse_145" class="shp9" d="M1314.2 501.2C1232.3 501.2 1166.11 435 1166.11 353.11C1166.11 271.21 1232.3 205.02 1314.2 205.02C1396.09 205.02 1462.29 271.21 1462.29 353.11C1462.29 435 1396.09 501.2 1314.2 501.2Z" />
			</g>
			<g id="Grupo_415">
				<path id="Rectángulo_330" class="shp10" d="M38.16 154.65L48.91 143.89L81.26 176.24L70.51 187L38.16 154.65Z" />
				<path id="Rectángulo_331" class="shp11" d="M48.98 186.59L38.57 176.18L70.44 144.31L80.85 154.72L48.98 186.59Z" />
			</g>
			<path id="Trazado_434" fill-rule="evenodd" class="shp12" d="M1281.13 239.4C1280.96 239.36 1280.78 239.3 1280.62 239.21C1280.46 239.13 1280.32 239.02 1280.18 238.9C1280.05 238.78 1279.93 238.64 1279.83 238.49C1279.74 238.34 1279.66 238.17 1279.61 238L1268.2 201.7C1268.15 201.53 1268.12 201.35 1268.11 201.17C1268.1 200.98 1268.12 200.8 1268.16 200.63C1268.2 200.45 1268.26 200.28 1268.34 200.12C1268.43 199.96 1268.53 199.81 1268.65 199.68C1268.77 199.54 1268.91 199.43 1269.07 199.33C1269.22 199.23 1269.38 199.16 1269.56 199.1C1269.73 199.05 1269.91 199.02 1270.09 199.01C1270.27 199 1270.45 199.02 1270.63 199.06L1307.77 207.33C1307.95 207.37 1308.12 207.43 1308.28 207.52C1308.44 207.6 1308.59 207.7 1308.72 207.83C1308.86 207.95 1308.97 208.09 1309.07 208.24C1309.17 208.39 1309.24 208.56 1309.3 208.73C1309.35 208.9 1309.38 209.08 1309.39 209.26C1309.4 209.44 1309.38 209.63 1309.34 209.8C1309.3 209.98 1309.24 210.15 1309.16 210.31C1309.07 210.47 1308.97 210.62 1308.85 210.75L1283.11 238.78C1282.99 238.92 1282.85 239.03 1282.69 239.13C1282.54 239.23 1282.38 239.3 1282.2 239.36C1282.03 239.41 1281.85 239.44 1281.67 239.45C1281.49 239.45 1281.31 239.44 1281.13 239.4ZM1273.23 203.87L1282.49 233.33L1303.37 210.59L1273.23 203.87Z" />
			<g id="Grupo_400">
				<g id="Grupo_398">
					<path id="Trazado_431" class="shp13" d="M1323.11 611.77C1315.93 611.77 1315.93 605.76 1308.75 605.76C1301.56 605.76 1301.56 611.77 1294.38 611.77C1287.2 611.77 1287.2 605.76 1280.02 605.76C1272.84 605.76 1272.83 611.77 1265.65 611.77C1258.46 611.77 1258.46 605.76 1251.28 605.76" />
				</g>
				<g id="Grupo_399">
					<path id="Trazado_432" class="shp13" d="M1294.75 630.67C1287.57 630.67 1287.57 624.66 1280.39 624.66C1273.21 624.66 1273.21 630.67 1266.03 630.67C1258.84 630.67 1258.85 624.66 1251.66 624.66C1244.48 624.66 1244.48 630.67 1237.29 630.67C1230.11 630.67 1230.11 624.66 1222.92 624.66" />
				</g>
			</g>
			<g id="Grupo_426">
				<g id="Grupo_398-2">
					<path id="Trazado_431-2" class="shp13" d="M59.52 41.58C66.71 41.58 66.71 47.59 73.9 47.59C81.08 47.59 81.09 41.58 88.27 41.58C95.45 41.58 95.45 47.59 102.63 47.59C109.81 47.59 109.81 41.58 116.99 41.58C124.17 41.58 124.17 47.59 131.35 47.59" />
				</g>
				<g id="Grupo_399-2">
					<path id="Trazado_432-2" class="shp13" d="M103 66.49C95.82 66.49 95.82 60.48 88.64 60.48C81.46 60.48 81.46 66.49 74.27 66.49C67.09 66.49 67.09 60.48 59.91 60.48C52.73 60.48 52.73 66.49 45.54 66.49C38.36 66.49 38.36 60.48 31.17 60.48" />
				</g>
			</g>
		</g>
	</g>
</svg>