<svg id="ilus_incorporaseguros_home" xmlns="http://www.w3.org/2000/svg" xmlns:xlink="http://www.w3.org/1999/xlink" width="298.493" height="308.42" viewBox="0 0 298.493 308.42">
  <defs>
    <clipPath id="clip-path">
      <rect id="Rectángulo_462" data-name="Rectángulo 462" width="298.493" height="308.42" fill="#9cdfbc"/>
    </clipPath>
    <clipPath id="clip-path-2">
      <rect id="Rectángulo_447" data-name="Rectángulo 447" width="298.493" height="308.42" fill="none"/>
    </clipPath>
    <clipPath id="clip-path-3">
      <path id="Trazado_1034" data-name="Trazado 1034" d="M223.579,30.5c-33.669.378-32.807,70.747-26.392,85.963s3.513,20.623-22.175,30.969-11.752,25.059-7.78,34.008,10.971,16.205-7.5,26.938-11.322,15.854-11.322,15.854,38.421,33.342,35.51,21.895-.805-29.264,30.863-33.205c13.64-1.7,34.063-9.949,37.5-24.987.8-3.5,1.123-8.775.011-12.24-1.545-4.8-5.077-8.4-7.24-12.867-5.045-10.4,4.746-19.133,10.163-26.81a80.793,80.793,0,0,0,7.7-12.584c4.257-9.285,1.608-18.655-4.493-26.391-2.927-3.709-6.886-7.576-8.405-12.163-1.632-4.928-1.134-11.884-1.271-17.079a108.759,108.759,0,0,0-.612-12.2c-1.049-7.527-3.58-16.624-10.154-21.212-3.85-2.686-9.411-3.894-14.1-3.894l-.308,0" transform="translate(-147.056 -30.496)" fill="none"/>
    </clipPath>
    <linearGradient id="linear-gradient" x1="-0.762" y1="1.081" x2="-0.756" y2="1.081" gradientUnits="objectBoundingBox">
      <stop offset="0" stop-color="#e38ddd"/>
      <stop offset="0.004" stop-color="#8d94e3"/>
      <stop offset="1" stop-color="#71e2f6"/>
    </linearGradient>
    <clipPath id="clip-path-5">
      <rect id="Rectángulo_449" data-name="Rectángulo 449" width="130.554" height="223.257" fill="none"/>
    </clipPath>
    <clipPath id="clip-path-6">
      <rect id="Rectángulo_448" data-name="Rectángulo 448" width="130.554" height="223.256" fill="none"/>
    </clipPath>
    <clipPath id="clip-path-7">
      <path id="Trazado_1041" data-name="Trazado 1041" d="M234.8,167.158c-.411,14.63-4.74,17.927-29.263,16.839s-18.682,15.9-18.767,24.577,2.9,17.106-15.937,18.981-14.955,8.635-14.955,8.635,18.752,41.006,20.606,30.7,10.1-23.9,37.091-15.453c11.627,3.638,31.133,4.481,39.429-6.387,1.932-2.53,4.129-6.666,4.5-9.87.519-4.444-1.011-8.641-1.118-13.039-.249-10.247,10.856-13.693,18.044-17.9a71.032,71.032,0,0,0,10.829-7.326c6.844-5.93,8.148-14.458,6.067-22.941-1-4.068-2.774-8.64-2.314-12.9.492-4.575,3.449-10,5.247-14.246a96.53,96.53,0,0,0,3.983-10.064c1.922-6.461,3.221-14.728-.4-20.844-2.167-3.659-6.34-6.729-10.192-8.428A18.772,18.772,0,0,0,280,105.839c-24.173,0-44.829,48.07-45.2,61.319" transform="translate(-155.545 -105.839)" fill="none"/>
    </clipPath>
    <linearGradient id="linear-gradient-2" x1="-0.97" y1="1.21" x2="-0.964" y2="1.21" gradientUnits="objectBoundingBox">
      <stop offset="0" stop-color="#aa80f9"/>
      <stop offset="0.996" stop-color="#6165d7"/>
      <stop offset="1" stop-color="#6165d7"/>
    </linearGradient>
    <clipPath id="clip-path-9">
      <rect id="Rectángulo_452" data-name="Rectángulo 452" width="158.473" height="151.808" fill="none"/>
    </clipPath>
    <clipPath id="clip-path-10">
      <rect id="Rectángulo_451" data-name="Rectángulo 451" width="158.472" height="151.808" fill="none"/>
    </clipPath>
    <clipPath id="clip-path-11">
      <path id="Trazado_1049" data-name="Trazado 1049" d="M68.959,34.39C62.385,38.977,59.852,48.075,58.805,55.6a108.536,108.536,0,0,0-.612,12.2c-.139,5.195.361,12.151-1.272,17.079-1.521,4.587-5.478,8.454-8.4,12.163-6.1,7.736-8.75,17.106-4.494,26.391a80.651,80.651,0,0,0,7.7,12.584c5.416,7.676,15.208,16.406,10.162,26.81-2.165,4.464-5.7,8.065-7.24,12.867-1.111,3.465-.789,8.74.011,12.24,3.441,15.038,23.863,23.29,37.5,24.987,31.668,3.941,33.774,21.757,30.865,33.205s35.509-21.895,35.509-21.895,7.143-5.123-11.323-15.854-11.466-17.989-7.495-26.938,17.908-23.661-7.781-34.008-28.59-15.754-22.175-30.969S117.035,30.876,83.367,30.5l-.309,0c-4.689,0-10.251,1.207-14.1,3.894" transform="translate(-41.94 -30.496)" fill="none"/>
    </clipPath>
    <linearGradient id="linear-gradient-3" x1="-0.144" y1="1.081" x2="-0.138" y2="1.081" gradientUnits="objectBoundingBox">
      <stop offset="0" stop-color="#e38ddd"/>
      <stop offset="0.004" stop-color="#8db8e3"/>
      <stop offset="1" stop-color="#719af6"/>
    </linearGradient>
    <linearGradient id="linear-gradient-4" x1="0.071" y1="1.674" x2="0.075" y2="1.674" gradientUnits="objectBoundingBox">
      <stop offset="0" stop-color="#e38ddd"/>
      <stop offset="0.003" stop-color="#8db8e3"/>
      <stop offset="1" stop-color="#719af6"/>
    </linearGradient>
    <clipPath id="clip-path-14">
      <rect id="Rectángulo_455" data-name="Rectángulo 455" width="130.556" height="223.257" fill="none"/>
    </clipPath>
    <clipPath id="clip-path-15">
      <rect id="Rectángulo_454" data-name="Rectángulo 454" width="130.555" height="223.256" fill="none"/>
    </clipPath>
    <clipPath id="clip-path-16">
      <path id="Trazado_1057" data-name="Trazado 1057" d="M25.7,105.839a18.776,18.776,0,0,0-7.655,1.661c-3.85,1.7-8.026,4.77-10.191,8.428-3.62,6.116-2.321,14.382-.4,20.844a96.549,96.549,0,0,0,3.985,10.064c1.8,4.242,4.753,9.671,5.246,14.246.46,4.259-1.315,8.831-2.314,12.9-2.082,8.483-.777,17.01,6.067,22.941a71.03,71.03,0,0,0,10.829,7.326c7.188,4.2,18.292,7.649,18.044,17.9-.107,4.4-1.635,8.6-1.117,13.039.376,3.2,2.573,7.34,4.5,9.87,8.3,10.868,27.8,10.025,39.428,6.387,26.994-8.449,35.239,5.151,37.092,15.453s20.605-30.7,20.605-30.7,3.884-6.759-14.955-8.635-15.855-10.3-15.937-18.981,5.76-25.664-18.765-24.577-28.852-2.21-29.265-16.839c-.373-13.249-21.029-61.317-45.2-61.319h0" transform="translate(-5.561 -105.839)" fill="none"/>
    </clipPath>
    <linearGradient id="linear-gradient-5" x1="-0.027" y1="1.21" x2="-0.02" y2="1.21" xlink:href="#linear-gradient-2"/>
    <clipPath id="clip-path-17">
      <path id="Trazado_1063" data-name="Trazado 1063" d="M25.7,105.839a18.776,18.776,0,0,0-7.655,1.661c-3.85,1.7-8.026,4.77-10.191,8.428-3.62,6.116-2.321,14.382-.4,20.844a96.549,96.549,0,0,0,3.985,10.064c1.8,4.242,4.753,9.671,5.246,14.246.46,4.259-1.315,8.831-2.314,12.9-2.082,8.483-.777,17.01,6.067,22.941a71.03,71.03,0,0,0,10.829,7.326c7.188,4.2,18.292,7.649,18.044,17.9-.107,4.4-1.635,8.6-1.117,13.039.376,3.2,2.573,7.34,4.5,9.87,8.3,10.868,27.8,10.025,39.428,6.387,26.994-8.449,35.239,5.151,37.092,15.453s20.605-30.7,20.605-30.7,3.884-6.759-14.955-8.635-15.855-10.3-15.937-18.981,5.76-25.664-18.765-24.577-28.852-2.21-29.265-16.839c-.372-13.25-21.029-61.317-45.2-61.319h0" transform="translate(-5.561 -105.839)" fill="none"/>
    </clipPath>
    <clipPath id="clip-path-18">
      <rect id="Rectángulo_458" data-name="Rectángulo 458" width="158.474" height="151.808" fill="none"/>
    </clipPath>
    <clipPath id="clip-path-20">
      <path id="Trazado_1071" data-name="Trazado 1071" d="M50.337,169.418A105.353,105.353,0,1,0,155.689,64.066,105.353,105.353,0,0,0,50.337,169.418" transform="translate(-50.337 -64.066)" fill="none"/>
    </clipPath>
    <clipPath id="clip-path-21">
      <rect id="Rectángulo_461" data-name="Rectángulo 461" width="212.718" height="212.661" fill="none"/>
    </clipPath>
    <clipPath id="clip-path-23">
      <path id="Trazado_1075" data-name="Trazado 1075" d="M176.532,22.3c-27.027,10.068-42.53,5.286-62.681.506-16.159-3.834-35.309-7.669-65.781-3.846C-21.265,27.659,13.939,136.5,13.939,136.5s11.032,94.639,24.1,138.265a26.506,26.506,0,0,0,7.881,12.108H262.854c8.526-6.745,16.923-16.87,25.323-32.154,26.137-47.553-10.608-85.664-2.918-155.713,6.092-55.5-35.116-82.4-76.5-82.4A92.682,92.682,0,0,0,176.532,22.3" transform="translate(-5.002 -16.606)" fill="none"/>
    </clipPath>
  </defs>
  <g id="Grupo_859" data-name="Grupo 859" clip-path="url(#clip-path)">
    <g id="Grupo_811" data-name="Grupo 811">
      <g id="Grupo_810" data-name="Grupo 810" clip-path="url(#clip-path-2)">
        <path id="Trazado_1032" data-name="Trazado 1032" d="M285.877,99c7.717-70.283-60.422-94.7-108.726-76.7-48.7,18.141-59.987-11.93-128.462-3.339C-20.646,27.659,14.557,136.5,14.557,136.5s11.031,94.639,24.1,138.266c13,43.389,137.432,27.691,167.7,26.394,30.1-1.287,56.249,1.2,82.433-46.441,26.137-47.552-10.609-85.663-2.917-155.713" transform="translate(-0.251 -0.743)" fill="#9cdfbc"/>
      </g>
    </g>
    <g id="Grupo_813" data-name="Grupo 813" transform="translate(140.477 29.132)">
      <g id="Grupo_812" data-name="Grupo 812" clip-path="url(#clip-path-3)">
        <path id="Trazado_1033" data-name="Trazado 1033" d="M281.566,32.747,264.184,285.339,124.9,252.592,142.285,0Z" transform="translate(-146.065 -29.132)" fill="url(#linear-gradient)"/>
      </g>
    </g>
    <g id="Grupo_820" data-name="Grupo 820" transform="translate(140.477 29.132)">
      <g id="Grupo_819" data-name="Grupo 819" clip-path="url(#clip-path-3)">
        <g id="Grupo_818" data-name="Grupo 818" transform="translate(-0.484 -8.888)" opacity="0.8">
          <g id="Grupo_817" data-name="Grupo 817">
            <g id="Grupo_816" data-name="Grupo 816" clip-path="url(#clip-path-5)">
              <g id="Grupo_815" data-name="Grupo 815" transform="translate(0 0.001)">
                <g id="Grupo_814" data-name="Grupo 814" clip-path="url(#clip-path-6)">
                  <path id="Trazado_1035" data-name="Trazado 1035" d="M147.279,244.39a.5.5,0,0,1-.47-.872,239.572,239.572,0,0,0,30-23.458c14.359-13.17,32.8-33.592,39.093-56.089,5.259-18.786,8.943-49.438,10.111-84.09C227.062,48.8,225.756,26,223.889,21.9a.5.5,0,1,1,.9-.413c2.184,4.8,3.155,30.462,2.213,58.428-1.17,34.728-4.869,65.462-10.148,84.329-6.36,22.727-24.931,43.305-39.39,56.565a240.535,240.535,0,0,1-30.129,23.553.614.614,0,0,1-.061.032" transform="translate(-146.549 -21.193)" fill="#fff"/>
                  <path id="Trazado_1036" data-name="Trazado 1036" d="M228.642,86.994a.447.447,0,0,1-.612-.151l-.017-.033c-.152-.329-15.388-32.875-32.1-39.133a.478.478,0,0,1-.287-.611l0-.013a.493.493,0,0,1,.638-.284h0c17.1,6.4,32.017,38.264,32.643,39.622a.448.448,0,0,1-.229.589l-.037.015Z" transform="translate(-148.743 -22.336)" fill="#fff"/>
                  <path id="Trazado_1037" data-name="Trazado 1037" d="M227.136,128.868a.494.494,0,0,1-.551-.808,157.468,157.468,0,0,1,19.47-15.629c14.615-9.8,26.157-13.154,34.306-9.959a.5.5,0,1,1-.363.925c-18.749-7.355-52.384,25.045-52.722,25.373a.5.5,0,0,1-.14.1" transform="translate(-150.122 -24.777)" fill="#fff"/>
                  <path id="Trazado_1038" data-name="Trazado 1038" d="M190.752,213.883a.5.5,0,0,1-.657-.242.46.46,0,0,1-.043-.162,189.409,189.409,0,0,0-5.715-29.457c-3.907-13.688-11.047-30.653-22.871-33.723a.5.5,0,1,1,.249-.96c9.86,2.561,17.793,14.143,23.581,34.423a190.429,190.429,0,0,1,5.744,29.62.5.5,0,0,1-.288.5" transform="translate(-147.2 -26.925)" fill="#fff"/>
                  <path id="Trazado_1039" data-name="Trazado 1039" d="M211.516,189.311a.494.494,0,0,1-.533-.825c1.5-1.31,36.825-32.04,51.7-30.6a.5.5,0,1,1-.1.989c-14.458-1.395-50.592,30.046-50.955,30.363a.48.48,0,0,1-.121.078" transform="translate(-149.423 -27.306)" fill="#fff"/>
                </g>
              </g>
            </g>
          </g>
        </g>
      </g>
    </g>
    <g id="Grupo_822" data-name="Grupo 822" transform="translate(148.587 101.104)">
      <g id="Grupo_821" data-name="Grupo 821" clip-path="url(#clip-path-7)">
        <rect id="Rectángulo_450" data-name="Rectángulo 450" width="149.473" height="171.36" transform="translate(-3.553 -0.003)" fill="url(#linear-gradient-2)"/>
      </g>
    </g>
    <g id="Grupo_829" data-name="Grupo 829" transform="translate(148.587 101.104)">
      <g id="Grupo_828" data-name="Grupo 828" clip-path="url(#clip-path-7)">
        <g id="Grupo_827" data-name="Grupo 827" transform="translate(-8.567 -5.269)" opacity="0.8">
          <g id="Grupo_826" data-name="Grupo 826">
            <g id="Grupo_825" data-name="Grupo 825" clip-path="url(#clip-path-9)">
              <g id="Grupo_824" data-name="Grupo 824" transform="translate(0.001 0)">
                <g id="Grupo_823" data-name="Grupo 823" clip-path="url(#clip-path-10)">
                  <path id="Trazado_1042" data-name="Trazado 1042" d="M147.021,252.131a.44.44,0,0,1-.059-.877,212.352,212.352,0,0,0,32.816-7.91c16.419-5.352,38.792-15.057,52.134-30.894,11.142-13.228,25.371-36.6,39.036-64.129,12.255-24.683,19.579-43.563,19.579-47.558a.44.44,0,1,1,.88,0c0,4.672-8.639,25.733-19.669,47.949-13.7,27.586-27.969,51.024-39.152,64.3-13.477,16-36.015,25.779-52.546,31.169a213.2,213.2,0,0,1-32.955,7.936.364.364,0,0,1-.063.011" transform="translate(-146.578 -100.323)" fill="#fff"/>
                  <path id="Trazado_1043" data-name="Trazado 1043" d="M274.276,153.628c-.242,0-.439-.1-.44-.343,0-.321-.341-32.155-11.527-43.34a.413.413,0,0,1-.016-.584.083.083,0,0,1,.016-.015.44.44,0,0,1,.622.011h0c11.442,11.441,11.777,42.591,11.786,43.916,0,.243-.194.352-.437.352Z" transform="translate(-151.749 -100.721)" fill="#fff"/>
                  <path id="Trazado_1044" data-name="Trazado 1044" d="M257.226,187.628a.44.44,0,0,1-.148-.855,139.487,139.487,0,0,1,21.446-5.458c15.39-2.543,25.932-1.007,31.333,4.565a.442.442,0,0,1-.636.612c-12.425-12.819-51.457.969-51.851,1.11a.452.452,0,0,1-.143.026" transform="translate(-151.508 -103.893)" fill="#fff"/>
                  <path id="Trazado_1045" data-name="Trazado 1045" d="M197.112,242.156a.441.441,0,0,1-.44-.441.471.471,0,0,1,.023-.141A167.854,167.854,0,0,0,202.9,215.71c1.873-12.477,2.342-28.782-6.069-35.6a.44.44,0,0,1,.555-.684c7.013,5.687,9.161,17.944,6.382,36.43a168.888,168.888,0,0,1-6.243,26,.443.443,0,0,1-.417.3" transform="translate(-148.819 -103.857)" fill="#fff"/>
                  <path id="Trazado_1046" data-name="Trazado 1046" d="M222.362,230.752a.44.44,0,0,1-.127-.861c1.689-.507,41.474-12.326,52.95-5.7a.44.44,0,0,1-.439.763c-11.153-6.435-51.848,5.662-52.258,5.783a.434.434,0,0,1-.126.019" transform="translate(-149.948 -105.774)" fill="#fff"/>
                </g>
              </g>
            </g>
          </g>
        </g>
      </g>
    </g>
    <g id="Grupo_831" data-name="Grupo 831" transform="translate(40.064 29.132)">
      <g id="Grupo_830" data-name="Grupo 830" clip-path="url(#clip-path-11)">
        <path id="Trazado_1048" data-name="Trazado 1048" d="M180.2,32.735,162.858,285.283,23.6,252.609,40.943.061Z" transform="translate(-41.12 -29.135)" fill="url(#linear-gradient-3)"/>
      </g>
    </g>
    <g id="Grupo_833" data-name="Grupo 833" transform="translate(40.064 29.132)">
      <g id="Grupo_832" data-name="Grupo 832" clip-path="url(#clip-path-11)">
        <rect id="Rectángulo_453" data-name="Rectángulo 453" width="235.168" height="141.169" transform="matrix(0.069, -0.998, 0.998, 0.069, -17.694, 226.009)" fill="url(#linear-gradient-4)"/>
      </g>
    </g>
    <g id="Grupo_840" data-name="Grupo 840" transform="translate(40.064 29.132)">
      <g id="Grupo_839" data-name="Grupo 839" clip-path="url(#clip-path-11)">
        <g id="Grupo_838" data-name="Grupo 838" transform="translate(-12.12 -8.888)" opacity="0.8">
          <g id="Grupo_837" data-name="Grupo 837">
            <g id="Grupo_836" data-name="Grupo 836" clip-path="url(#clip-path-14)">
              <g id="Grupo_835" data-name="Grupo 835" transform="translate(0 0.001)">
                <g id="Grupo_834" data-name="Grupo 834" clip-path="url(#clip-path-15)">
                  <path id="Trazado_1051" data-name="Trazado 1051" d="M161.406,244.39a.5.5,0,1,0,.47-.872,239.641,239.641,0,0,1-30-23.458c-14.358-13.17-32.8-33.592-39.092-56.089-5.258-18.786-8.944-49.438-10.111-84.09C81.624,48.8,82.93,26,84.8,21.9a.5.5,0,1,0-.9-.413c-2.184,4.8-3.155,30.462-2.214,58.428,1.171,34.728,4.87,65.462,10.148,84.329,6.361,22.727,24.931,43.305,39.39,56.565a240.613,240.613,0,0,0,30.13,23.553c.019.011.04.022.06.032" transform="translate(-31.582 -21.193)" fill="#fff"/>
                  <path id="Trazado_1052" data-name="Trazado 1052" d="M82.264,86.994a.446.446,0,0,0,.612-.152l.018-.032c.151-.329,15.388-32.875,32.1-39.133a.478.478,0,0,0,.287-.611l0-.013a.494.494,0,0,0-.639-.284h0c-17.1,6.4-32.017,38.264-32.644,39.622a.446.446,0,0,0,.229.589l.037.015Z" transform="translate(-31.611 -22.336)" fill="#fff"/>
                  <path id="Trazado_1053" data-name="Trazado 1053" d="M82.794,128.868a.494.494,0,0,0,.551-.808,157.466,157.466,0,0,0-19.47-15.629c-14.615-9.8-26.158-13.154-34.307-9.959a.5.5,0,0,0,.364.925c18.749-7.355,52.383,25.045,52.721,25.373a.488.488,0,0,0,.141.1" transform="translate(-29.253 -24.777)" fill="#fff"/>
                  <path id="Trazado_1054" data-name="Trazado 1054" d="M120.315,213.883a.494.494,0,0,0,.656-.242.483.483,0,0,0,.044-.162,189.4,189.4,0,0,1,5.713-29.457c3.908-13.688,11.048-30.653,22.872-33.723a.5.5,0,1,0-.249-.96c-9.86,2.561-17.793,14.143-23.581,34.423a190.426,190.426,0,0,0-5.744,29.62.5.5,0,0,0,.288.5" transform="translate(-33.314 -26.925)" fill="#fff"/>
                  <path id="Trazado_1055" data-name="Trazado 1055" d="M98.5,189.311a.494.494,0,0,0,.532-.825c-1.5-1.31-36.825-32.04-51.7-30.6a.5.5,0,1,0,.095.989c14.458-1.395,50.592,30.046,50.955,30.363a.469.469,0,0,0,.122.078" transform="translate(-30.042 -27.306)" fill="#fff"/>
                </g>
              </g>
            </g>
          </g>
        </g>
      </g>
    </g>
    <g id="Grupo_842" data-name="Grupo 842" transform="translate(5.313 101.104)">
      <g id="Grupo_841" data-name="Grupo 841" clip-path="url(#clip-path-16)">
        <rect id="Rectángulo_456" data-name="Rectángulo 456" width="149.472" height="171.357" transform="translate(-1.328 0)" fill="url(#linear-gradient-5)"/>
      </g>
    </g>
    <g id="Grupo_849" data-name="Grupo 849" transform="translate(5.313 101.104)">
      <g id="Grupo_848" data-name="Grupo 848" clip-path="url(#clip-path-17)">
        <g id="Grupo_847" data-name="Grupo 847" transform="translate(-5.313 -5.269)" opacity="0.8">
          <g id="Grupo_846" data-name="Grupo 846">
            <g id="Grupo_845" data-name="Grupo 845" clip-path="url(#clip-path-18)">
              <g id="Grupo_844" data-name="Grupo 844" transform="translate(0.001 0)">
                <g id="Grupo_843" data-name="Grupo 843" clip-path="url(#clip-path-9)">
                  <path id="Trazado_1058" data-name="Trazado 1058" d="M158.669,252.131a.44.44,0,0,0,.059-.877,212.353,212.353,0,0,1-32.816-7.91c-16.42-5.352-38.792-15.057-52.134-30.894-11.142-13.228-25.37-36.6-39.035-64.129-12.257-24.683-19.58-43.563-19.58-47.558a.44.44,0,1,0-.88,0c0,4.672,8.639,25.733,19.669,47.949,13.7,27.586,27.968,51.024,39.153,64.3,13.477,16,36.014,25.779,52.546,31.169a213.171,213.171,0,0,0,32.955,7.936.348.348,0,0,0,.063.011" transform="translate(-0.64 -100.323)" fill="#fff"/>
                  <path id="Trazado_1059" data-name="Trazado 1059" d="M37.606,153.628c.241,0,.438-.1.439-.343,0-.321.342-32.155,11.527-43.34a.412.412,0,0,0,.016-.584.083.083,0,0,0-.016-.015.44.44,0,0,0-.622.011h0C37.51,120.8,37.175,151.949,37.166,153.274c0,.243.194.352.438.352Z" transform="translate(-1.664 -100.721)" fill="#fff"/>
                  <path id="Trazado_1060" data-name="Trazado 1060" d="M52.754,187.628a.44.44,0,0,0,.148-.855,139.528,139.528,0,0,0-21.447-5.458c-15.39-2.543-25.932-1.007-31.332,4.565a.441.441,0,1,0,.635.612c12.425-12.819,51.457.969,51.85,1.11a.464.464,0,0,0,.145.026" transform="translate(-0.001 -103.893)" fill="#fff"/>
                  <path id="Trazado_1061" data-name="Trazado 1061" d="M114.969,242.156a.441.441,0,0,0,.44-.441.471.471,0,0,0-.023-.141,167.851,167.851,0,0,1-6.208-25.863c-1.873-12.477-2.342-28.782,6.069-35.6a.44.44,0,0,0-.555-.684c-7.014,5.687-9.161,17.944-6.382,36.43a168.885,168.885,0,0,0,6.243,26,.443.443,0,0,0,.416.3" transform="translate(-4.793 -103.857)" fill="#fff"/>
                  <path id="Trazado_1062" data-name="Trazado 1062" d="M87.6,230.752a.439.439,0,0,0,.126-.861c-1.688-.507-41.474-12.326-52.95-5.7a.441.441,0,1,0,.44.763c11.152-6.435,51.847,5.662,52.257,5.783a.44.44,0,0,0,.127.019" transform="translate(-1.547 -105.774)" fill="#fff"/>
                </g>
              </g>
            </g>
          </g>
        </g>
      </g>
    </g>
    <g id="Grupo_856" data-name="Grupo 856" transform="translate(48.085 61.2)">
      <g id="Grupo_855" data-name="Grupo 855" clip-path="url(#clip-path-20)">
        <path id="Trazado_1064" data-name="Trazado 1064" d="M262.268,169.451a105.885,105.885,0,0,1-19.112,60.757c-.048.071-.217.14-.217.211-18.863,27.64-51.185,45.546-87.443,45.546a62.782,62.782,0,0,1-8.71-.541c-.011,0-.017.178-.03.178-1.429-.118-2.847-.174-4.26-.348-.5-.059-1-.079-1.5-.149-.442-.06-.883-.1-1.324-.167-.383-.057-.765-.1-1.142-.166-.086-.015-.172-.025-.258-.037-.929-.153-1.858-.312-2.783-.491h-.014a107.026,107.026,0,0,1-81.849-136.4c.484-1.566,1.088-3.113,1.489-4.645,1.2-2.556,2.011-5.063,3.118-7.524.446-.984.94-1.961,1.41-2.931a106.678,106.678,0,0,1,9.05-15.179c.31-.435.632-.865.949-1.3q1.9-2.578,3.95-5.036,3.071-3.685,6.46-7.086A107.156,107.156,0,0,1,99.6,78.639q3.3-2.04,6.761-3.845A107.178,107.178,0,0,1,254,127.617c1.542,3.609,2.583,7.319,4.189,11.118,0,.017-.183.029-.178.047a106.5,106.5,0,0,1,4.258,30.669" transform="translate(-50.273 -64.008)" fill="#a8f4c9"/>
        <rect id="Rectángulo_459" data-name="Rectángulo 459" width="0.003" height="0.006" transform="translate(96.512 211.774)" fill="#45c481"/>
        <path id="Trazado_1065" data-name="Trazado 1065" d="M179.092,205.609c-2.289,3.225-9.373,7.367-4.567,15.5,4.765,8.114-.331,9.635-3.61,8.876s-13.531-1.169-11.823,3.482,4.634,6.4.883,8.2-5.334,6.466-9.171,12.9c-3.813,6.448-12.866.871-10.184,7.334s4.764,5.839,4.513,10.344c-.058,1.238.762,2.508,1.872,3.716-1.429-.118-2.865-.263-4.289-.438-.5-.058-1-.124-1.5-.195-.443-.058-.884-.12-1.323-.189-.384-.056-.766-.115-1.143-.178-.086-.014-.064-.029-.15-.041-.918-.154-1.391-.319-2.594-.493-.8-.762-.3-1.59-.18-2.482,1.2-8.318-10.28-14.033-12.2-19.862-1.891-5.813-.025-9.28-.461-14.1s1.123-11.185-1.644-15.238c-2.768-4.037-13.926-5.391-16.049-13.54-2.138-8.131,2.835-20.31,4.768-22.383,1.907-2.074-9.238-11.508-14.544-11.811-5.328-.324-3.2-11.052-12.205-9.419-9.026,1.584-25.244-3.452-21.895-8.87,2.765-4.463,7.405-14.309-7.744-18.7.485-1.566,1.084-3.113,1.483-4.646,1.2-2.554,2.012-5.062,3.119-7.523.446-.984.939-1.961,1.41-2.931A107.336,107.336,0,0,1,68.9,107.756c.31-.435.632-.865.949-1.3q1.9-2.579,3.951-5.036,3.071-3.687,6.459-7.086A107.074,107.074,0,0,1,99.815,78.829c3,2.1,6.427,3.4,9.388,1.8,7.257-4.062,2.471-4.685-.5-4.836a3.822,3.822,0,0,1-2.125-.812,105.592,105.592,0,0,1,17.551-7.239c-.453,4.1-6.02,10.677-1.924,9.874,4.768-.908,6.715-13.788,10.215-9.508,3.55,4.3-3.885,9.93,3.1,6.666,6.993-3.233,7.926-10.446,15.718-6.936,7.829,3.554,7.115,7.76,9.3,7.346s9.22,4.322,4.961,8.214c-4.3,3.9-8.238-1.07-14.681-2.57-6.445-1.484-6.286,3.79-9.252,4.994-3.016,1.164-17.564-5.866-21.134.487-3.61,6.3-5.146,10.7.211,10.538s5.7-1.535,5.28,2.423.546,6.927,5.4,3.2,3.751-7.345,7.532-5.574,4.23.168,8.253-2.754,9.31-3.226,10.7,3.329-.984,8.027-8.056,8.36-7.874-1.888-10.128,4.025-11.6,13.513-19.814,16.644-11.414,7.769-11.224,14.024-2.891,12.873-4.948,7.71c-2.068-5.178-7.863-13.9-13.776-8.07S73.614,156.331,85.01,158.22c11.371,1.922,5.437-8.732,11.185-6.6,5.739,2.146-3.636,6.842.2,8.537s5.453.909,5.423,6.145,1.271,10.317,5.937,8.1,10.649-12.474,17.392-6.4,6.274,5.293,9.818,3.521,5.791,3.534,7.243,5.95,7.139-.05,11.749,7.14,6.417,8.471,11.67,5.883,7.4-.664,8.767,2.966,4.6.083,6.161,4.88.809,4.046-1.465,7.276" transform="translate(-50.494 -64.193)" fill="#45c481"/>
        <path id="Trazado_1066" data-name="Trazado 1066" d="M203.771,119.426c-3.725-7.993,14.731-7.1,17.991-6.481,3.282.546,10.979-5.471,11.958-8.268,1-2.818,2.652-1.483,8.491-1.559s.678-1.383-5.745-3.5-.93-2.326-6.842-6.993c-2.543-2.043-1.743-3.781-.047-5.072a107.032,107.032,0,0,1,31.136,41.169,2.064,2.064,0,0,0-.549-.095c-4.088-.024-4.988-9.063-7.1-10.822-2.076-1.759.059,4.965.566,7.727s-1.12.439-3.157,2.978-5.742,2.588-6.075-1.224-3.019-7.534-8.456-9.272-10.144-.31-14.563,1.395c-4.394,1.675-13.862,7.946-17.613.015" transform="translate(-57.179 -65.117)" fill="#45c481"/>
        <path id="Trazado_1067" data-name="Trazado 1067" d="M249.854,233.459c.37-2.744.972-5.579-.175-6.617-2.786-2.584-3.393-9.626-2.428-13.193s8.468-3.374,3.377-9.314c-5.108-5.959-9.709-13.03-7.565-17.073s1.494-4.332-2.526-4.308-5.792.2-9.8-3.379c-4.011-3.627-9.528,8.56-24.625-1.214-15.094-9.873-6.5-26.511-.843-26.552,5.692-.094,12.342-2.966,7.677-9.91-4.649-6.969,2.616-7.952,6.167-6.369,3.556,1.567,9.862-2.64,16.29-4.537,6.443-1.888,6.159,8.607,9.736,10.708,3.6,2.1,10.339.434,13.844-2.927,2.5-2.4,3.047.4,5.52,3.053a106.92,106.92,0,0,1-14.651,91.633Z" transform="translate(-56.927 -67.05)" fill="#45c481"/>
        <path id="Trazado_1068" data-name="Trazado 1068" d="M223.842,106.206c0-.007,4.708-2.13,3-5.551s-4.37-13.908-6.327-10.6c-1.971,3.32.933,9.766.3,12.546s-.657,4.251,3.024,3.609" transform="translate(-57.919 -65.2)" fill="#45c481"/>
        <path id="Trazado_1069" data-name="Trazado 1069" d="M218.836,103.386c-.066-1.1.628-5.58-2.9-5.438.007-.007-5.1,2.123-2.111,5.739s5.082.8,5.007-.3" transform="translate(-57.609 -65.582)" fill="#45c481"/>
        <g id="Grupo_854" data-name="Grupo 854" transform="translate(-1.004 -0.976)" opacity="0.5" style="mix-blend-mode: normal;isolation: isolate">
          <g id="Grupo_853" data-name="Grupo 853">
            <g id="Grupo_852" data-name="Grupo 852" clip-path="url(#clip-path-21)">
              <g id="Grupo_851" data-name="Grupo 851" transform="translate(0)">
                <g id="Grupo_850" data-name="Grupo 850" clip-path="url(#clip-path-21)">
                  <path id="Trazado_1070" data-name="Trazado 1070" d="M262,169.275a105.775,105.775,0,0,1-18.971,60.757.368.368,0,0,0-.075.211A106.344,106.344,0,0,1,155.371,275.7a64.869,64.869,0,0,1-8.852-.627c-.011,0-.017.264-.03.264-1.429-.117-2.847-.131-4.26-.306-.5-.059-1-.058-1.5-.129-.443-.059-.884-.088-1.324-.156-.384-.056-.765-.1-1.143-.159-.085-.015-.172-.021-.257-.033-.93-.154-1.858-.312-2.783-.49h-.014a106.779,106.779,0,0,1-85.92-93.227,92.633,92.633,0,0,0,69.622,60.125h.011a7.575,7.575,0,0,0,2.4.453c.071.009.151.035.224.047.326.053.655.108.989.154.377.06.759.108,1.143.158.432.062.863.1,1.3.15,1.219.15,2.442.429,3.677.528.012,0,.018.116.028.116,2.508,0,5.007.2,7.567.2A91.979,91.979,0,0,0,211.8,203.223c0-.061.1-.144.141-.206a92.123,92.123,0,0,0,12.585-78.964c0-.014-.036-.032-.036-.048a63.006,63.006,0,0,0-3.425-9.6,92.28,92.28,0,0,0-55.785-51.361,106.168,106.168,0,0,1,57.121,23.232,107.352,107.352,0,0,1,31.269,41.166c1.541,3.609,2.525,7.319,4.13,11.118,0,.017-.124.03-.119.047A106.522,106.522,0,0,1,262,169.275" transform="translate(-49.286 -63.044)" fill="#b7eacc"/>
                </g>
              </g>
            </g>
          </g>
        </g>
      </g>
    </g>
    <g id="Grupo_858" data-name="Grupo 858" transform="translate(4.778 15.863)">
      <g id="Grupo_857" data-name="Grupo 857" clip-path="url(#clip-path-23)">
        <path id="Trazado_1072" data-name="Trazado 1072" d="M54.371,196.56c5.251-3.261,13.207-.017,17.838,3.166,1.527,1.048,2.517,2.29,4.127,3.135,1.583.831,2.293,1.2,2.781,1.02.9-.325,1.233-1.538,1.36-2.03,1.747-6.761-1.356-17.2-1.356-17.2-2.016-6.784-3.488-13.72-5.345-20.553-.731-2.694-1.854-6.795-.2-8,1.07-.777,2.839-.03,3.271.154,4.556,1.928,5.212,8.027,8.062,15.845,2.027,5.563,6.324,15.175,8.311,14.778,3.726-.744-2.785-36.289,4.584-38.642,1.412-.45,2.928.444,3.685.963.867,5.54,1.575,11.618,1.981,18.176a195.93,195.93,0,0,1,.22,19.9,50.818,50.818,0,0,0,5.413-11.186c3.063-9.064,2.488-16.118,7.155-18.553l.04-.022a3.276,3.276,0,0,1,4.4,1.454,3.377,3.377,0,0,1,.227.588c.038.136.076.275.112.416,1.651,6.442-1.066,11.456-3.848,20.228a121.615,121.615,0,0,0-3.249,12.589c3.977-1.116,4.585-7.964,6.344-11.143,1.412-2.554,4.671-9.1,7.856-10.015,4.7-1.354,3.151,3.954,2.2,6.529-1.916,5.19-4.041,10.377-6.063,15.538a89.412,89.412,0,0,0-4.91,18.122A93.449,93.449,0,0,1,117,220.888a15.231,15.231,0,0,1-7.416,9.559v84.6H83.276V230.3a19.441,19.441,0,0,1-3.107-3c-.177-.3-.336-.6-.516-.89a77.056,77.056,0,0,0-14.718-17.377c-3.766-3.357-10.981-6.661-10.563-12.471" transform="translate(-7.21 -22.488)" fill="#44a04a"/>
        <path id="Trazado_1073" data-name="Trazado 1073" d="M267.779,196.49c-5.252-3.261-13.208-.017-17.839,3.165-1.526,1.049-2.516,2.29-4.127,3.136-1.582.83-2.292,1.2-2.78,1.019-.9-.325-1.233-1.538-1.36-2.03-1.748-6.761,1.355-17.2,1.355-17.2,2.016-6.784,3.488-13.72,5.345-20.552.731-2.695,1.854-6.795.2-8-1.07-.778-2.839-.031-3.271.152-4.556,1.928-5.213,8.028-8.062,15.845-2.027,5.562-6.324,15.176-8.31,14.779-3.727-.745,2.785-36.29-4.584-38.642-1.412-.45-2.928.444-3.686.963-.866,5.54-1.575,11.618-1.98,18.176a195.378,195.378,0,0,0-.22,19.9,50.786,50.786,0,0,1-5.414-11.187c-3.062-9.065-2.487-16.118-7.155-18.552l-.04-.022a3.277,3.277,0,0,0-4.4,1.455,3.339,3.339,0,0,0-.227.587c-.039.136-.076.275-.112.417-1.651,6.443,1.066,11.456,3.848,20.228a121.618,121.618,0,0,1,3.249,12.588c-3.977-1.116-4.585-7.964-6.344-11.143-1.412-2.554-4.671-9.1-7.857-10.015-4.7-1.353-3.151,3.955-2.2,6.53,1.916,5.19,4.041,10.377,6.064,15.538a89.393,89.393,0,0,1,4.909,18.122,92.771,92.771,0,0,0,2.234,9.073,16.318,16.318,0,0,0,7.281,9.56v84.664h26.673V230.229c.721-.846,2.127-1.844,3.064-3,.176-.3.313-.6.494-.89a76.991,76.991,0,0,1,14.707-17.373c3.763-3.361,10.968-6.665,10.549-12.475" transform="translate(-13.313 -22.485)" fill="#b1c449"/>
        <path id="Trazado_1074" data-name="Trazado 1074" d="M209.2,168.889c-6.259-3.884-15.737-.02-21.258,3.772-1.819,1.249-3,2.728-4.918,3.736-1.886.99-2.731,1.426-3.314,1.216-1.072-.387-1.47-1.837-1.624-2.419-2.082-8.059,1.615-20.5,1.615-20.5,2.4-8.084,4.157-16.349,6.368-24.489.872-3.21,2.21-8.1.233-9.535-1.271-.928-3.383-.035-3.9.182-5.428,2.3-6.215,9.567-9.605,18.881-2.416,6.629-7.535,18.08-9.9,17.611-4.442-.887,3.32-43.245-5.462-46.049-1.681-.537-3.491.529-4.393,1.147-1.034,6.6-1.877,13.842-2.361,21.658a233.308,233.308,0,0,0-.261,23.718,60.44,60.44,0,0,1-6.452-13.331c-3.649-10.8-2.966-19.206-8.526-22.107l-.049-.024a3.9,3.9,0,0,0-5.508,2.433c-.047.161-.092.327-.135.494-1.967,7.677,1.271,13.651,4.586,24.1a144.905,144.905,0,0,1,3.873,15c-4.74-1.331-5.465-9.492-7.558-13.277-1.683-3.045-5.565-10.842-9.362-11.937-5.6-1.612-3.756,4.717-2.624,7.783,2.283,6.183,4.815,12.364,7.227,18.516,3.065,7.821,4.314,13.415,5.85,21.595a111.282,111.282,0,0,0,2.829,10.813,19.6,19.6,0,0,0,8.844,11.391V310.149h31.359V209.1a18.139,18.139,0,0,0,3.7-3.576c.212-.353.4-.713.611-1.06a91.759,91.759,0,0,1,17.536-20.707c4.486-4,13.083-7.94,12.583-14.863" transform="translate(-10.032 -20.835)" fill="#008944"/>
      </g>
    </g>
  </g>
</svg>
