<?xml version="1.0" encoding="utf-8"?>
<!-- Generator: Adobe Illustrator 26.5.0, SVG Export Plug-In . SVG Version: 6.00 Build 0)  -->
<svg version="1.1" id="Capa_2_00000148637601764041990490000008525581387441895844_"
	 xmlns="http://www.w3.org/2000/svg" xmlns:xlink="http://www.w3.org/1999/xlink" x="0px" y="0px" viewBox="0 0 415.1 394.3"
	 style="enable-background:new 0 0 415.1 394.3;" xml:space="preserve">
<style type="text/css">
	.st0{opacity:0.37;fill:#BE9AF7;enable-background:new    ;}
	.st1{fill:url(#Elipse_164_00000171713263033949503820000013126030110790473602_);}
	.st2{opacity:0.13;fill:#FFFFFF;enable-background:new    ;}
	.st3{opacity:0.22;}
	.st4{fill:#FFFFFF;}
	.st5{fill:url(#Trazado_568_00000092426885270773734410000014528177548373999033_);}
	.st6{fill:#5C1AE4;}
	.st7{fill:url(#Trazado_570_00000033369969098030713220000015759862927017781423_);}
	.st8{fill:#BB7BFF;}
	.st9{fill:url(#Trazado_573_00000125572873116524679850000006479924056182807425_);}
	.st10{fill:url(#Trazado_576_00000176021946732359392350000017961276316572027022_);}
	.st11{fill:url(#Trazado_577_00000059306608096270188230000009711353466917559193_);}
	.st12{fill:url(#Trazado_578_00000086685085092313976040000001769554982807395732_);}
	.st13{fill:url(#Trazado_579_00000105399664418255420290000016830889985361719175_);}
	.st14{fill:url(#Trazado_580_00000021826966839709436870000015853989065228675203_);}
	.st15{fill:url(#Trazado_582_00000026159283968776934910000001314751536943659400_);}
	.st16{fill:url(#Trazado_583_00000139985301971936712160000009990176241612149378_);}
	.st17{fill:url(#Trazado_584_00000141415914619637486630000018112594026211737240_);}
	.st18{fill:url(#Trazado_585_00000178911288572866278140000012815528229227502229_);}
	.st19{fill:#36DBFF;}
	.st20{fill:url(#Trazado_587_00000147936589771863334970000018307527214550414736_);}
	.st21{fill:url(#Trazado_588_00000129893964732528802610000000105210292039401909_);}
	.st22{fill:url(#Rect치ngulo_409_00000155113449911761278920000006726833232609452984_);}
	.st23{fill:url(#Trazado_590_00000080900410280193743040000009009361665103253433_);}
	.st24{fill:url(#Trazado_591_00000181046182430594558970000013173897265219596989_);}
	.st25{fill:url(#Trazado_593_00000001623740838059344610000015531610872284049066_);}
	.st26{fill:url(#Trazado_594_00000056414941690526588210000011628697410059909288_);}
	.st27{fill:url(#Trazado_595_00000073706524856570086190000009413564406432954003_);}
	.st28{fill:url(#Trazado_596_00000078765212583248602380000008380769230018183086_);}
	.st29{fill:url(#Trazado_597_00000164507326165928353500000017519856790398493833_);}
	.st30{fill:url(#Trazado_598_00000134953100551133158640000018337977130391027642_);}
	.st31{fill:url(#Trazado_599_00000055708156230530913770000006913193210629805499_);}
	.st32{fill:url(#Trazado_600_00000110467384605919086390000006180216123166136968_);}
	.st33{fill:#FFC250;}
	.st34{fill:#FFD064;}
	.st35{fill:#FFE07D;}
	.st36{fill:#F4FBFF;}
	.st37{fill:#9473BB;}
</style>
<g id="Capa_1-2">
	<path id="Trazado_541" class="st0" d="M398.8,271.8c-39.4,89.8-143.5,128.4-225,121.8c-22.3-1.8-67.1-5.4-102-37.6
		C4.6,294,14.9,164.6,79.2,88.4c8.3-9.8,65.6-75.5,154.9-74.6c65.4,0.6,111.3,36.6,116.8,41.1c14.2,11.5,26.6,25.2,36.6,40.5
		C420.5,145.6,423.4,215.6,398.8,271.8z"/>
	
		<linearGradient id="Elipse_164_00000006686638476889754300000007850978147048811146_" gradientUnits="userSpaceOnUse" x1="-797.4661" y1="2.9783" x2="-796.3861" y2="2.9783" gradientTransform="matrix(13.513 -308.264 332.7404 14.586 9987.3369 -245474.9688)">
		<stop  offset="0" style="stop-color:#B477FF"/>
		<stop  offset="1" style="stop-color:#7BF7F7"/>
	</linearGradient>
	<path id="Elipse_164" style="fill:url(#Elipse_164_00000006686638476889754300000007850978147048811146_);" d="M43.1,225.3
		c3.7-85.1,81.2-150.9,173.1-146.8s163.3,76.3,159.6,161.4c-3.7,85.1-81.2,150.9-173.1,146.8S39.3,310.4,43.1,225.3z"/>
	<ellipse id="Elipse_165" class="st2" cx="200.4" cy="221.5" rx="130.7" ry="123.4"/>
	<g id="Grupo_665" transform="translate(58.821 82.054)" class="st3">
		<path id="Trazado_546" class="st4" d="M197.9,150.4c0,13.6-0.5,27.3-1.6,40.8c-1.1,13.6-2.8,27.1-5.2,40.5
			c-2.3,13.5-5.8,26.7-10.4,39.6c-2.3,6.5-5.4,12.7-9,18.5c-1.9,2.9-4.2,5.6-6.8,7.9c-1.4,1.2-2.9,2.1-4.5,2.9
			c-1.7,0.8-3.5,1.2-5.3,1.2c-1.8,0-3.6-0.3-5.3-1c-1.7-0.7-3.2-1.6-4.6-2.7c-2.7-2.2-5-4.9-7-7.8c-3.7-5.8-6.8-12-9.1-18.4
			c-4.8-12.8-8-26.2-10.5-39.6c-4.9-26.8-6.9-54.1-7.2-81.4c0-13.6,0.6-27.2,1.6-40.8s2.6-27.1,4.9-40.6c2.1-13.5,5.4-26.8,9.8-39.7
			c2.2-6.5,5.2-12.7,8.8-18.5c1.9-2.9,4.1-5.6,6.8-7.8c1.4-1.1,2.9-2,4.5-2.7c1.6-0.7,3.4-1,5.2-0.9c1.8,0.1,3.5,0.5,5.1,1.2
			c1.6,0.7,3.1,1.6,4.4,2.8c2.6,2.2,5,4.8,6.9,7.7c3.8,5.7,7,11.8,9.5,18.2c4.9,12.7,8.7,25.9,11.3,39.3c2.6,13.4,4.6,26.9,5.8,40.5
			C197.2,123.2,197.8,136.8,197.9,150.4L197.9,150.4z M194.6,150.4c0-13.5-0.4-27.1-1.6-40.6c-1-13.5-2.8-26.9-5.2-40.3
			c-2.3-13.3-5.8-26.4-10.5-39.1c-2.3-6.3-5.4-12.4-9-18c-1.8-2.8-4-5.3-6.6-7.5c-2.4-2.2-5.6-3.6-8.9-3.8c-3.3,0-6.5,1.3-8.9,3.5
			c-2.5,2.2-4.7,4.8-6.4,7.7c-3.5,5.8-6.2,11.9-8.3,18.4c-4.1,12.9-7.2,26.1-9.1,39.5c-4,26.8-5.3,53.9-5.1,81
			c-0.1,27,1.6,54.2,6.1,80.9c2.3,13.3,5.3,26.6,9.9,39.3c2.2,6.3,5.1,12.4,8.7,18.1c1.8,2.8,4,5.3,6.5,7.4c2.4,2.1,5.5,3.4,8.7,3.4
			c1.6-0.1,3.1-0.5,4.6-1.1c1.5-0.7,2.8-1.6,4-2.7c2.5-2.2,4.6-4.8,6.4-7.6c3.5-5.7,6.4-11.8,8.6-18.2c4.4-12.8,7.7-25.9,9.8-39.3
			c2.3-13.3,3.8-26.8,4.8-40.3S194.6,164,194.6,150.4L194.6,150.4L194.6,150.4z"/>
		<path id="Trazado_547" class="st4" d="M266.7,150.4c-0.1,17.6-2.5,35.2-7.1,52.1c-4.8,17-12.2,33.1-22,47.8
			c-9.8,14.6-22.4,27.5-37.3,36.8c-7.5,4.7-15.5,8.4-23.9,10.9c-17,5.1-35.1,5.1-52.1,0c-8.4-2.5-16.5-6.2-24-10.9
			c-15-9.3-27.5-22.2-37.4-36.8c-9.8-14.7-17.2-30.8-22-47.8c-2.4-8.5-4.2-17.1-5.3-25.9c-2.4-17.5-2.4-35.2,0-52.7
			c1.2-8.7,3-17.4,5.4-25.8c4.8-17,12.3-33.1,22.1-47.7c9.9-14.5,22.4-27.4,37.4-36.7c30.4-19.6,69.4-19.6,99.8,0.1
			c14.9,9.3,27.4,22.2,37.3,36.7c9.8,14.6,17.2,30.7,22,47.7C264.2,115.3,266.6,132.8,266.7,150.4L266.7,150.4L266.7,150.4z
			 M262.9,150.4c0.1-17.3-2.2-34.5-6.6-51.2c-4.4-16.7-11.5-32.7-20.8-47.2c-9.5-14.5-21.5-27.3-36.1-36.7
			C192,10.6,184.2,7,175.9,4.4c-16.6-5.2-34.5-5.2-51.1,0c-8.3,2.6-16.1,6.2-23.4,10.9c-14.5,9.4-26.6,22.3-36,36.8
			c-9.3,14.6-16.3,30.5-20.7,47.2c-2.2,8.3-3.9,16.8-5,25.4c-2.2,17.1-2.2,34.4,0,51.6c1.1,8.5,2.8,17,5,25.3
			c4.4,16.7,11.4,32.6,20.8,47.1c9.4,14.5,21.4,27.3,36,36.7c7.3,4.6,15.1,8.3,23.4,10.9c16.6,5.2,34.4,5.3,50.9,0
			c8.2-2.5,16.1-6.2,23.4-10.8c14.6-9.3,26.6-22.2,36.1-36.6c9.4-14.5,16.4-30.5,20.9-47.2C260.6,184.9,262.9,167.7,262.9,150.4
			L262.9,150.4L262.9,150.4z"/>
		<path id="Trazado_548" class="st4" d="M15.5,90.5c11.6-0.2,23.1-0.3,34.7-0.5l34.7-0.3c11.6-0.1,23.1-0.1,34.7-0.1l34.7-0.1
			l34.7,0.1c11.6,0.1,23.1,0,34.7,0.1l34.7,0.3c11.6,0.2,23.1,0.3,34.7,0.5c0.1,0,0.2,0.1,0.1,0.2c0,0.1-0.1,0.1-0.1,0.1
			c-11.6,0.2-23.1,0.3-34.7,0.5l-34.7,0.3c-11.6,0.1-23.1,0.1-34.7,0.1L154.3,92l-34.7-0.1c-11.6,0-23.1,0-34.7-0.1l-34.7-0.3
			C38.6,91.3,27,91.2,15.5,91c-0.1,0-0.2-0.1-0.2-0.2S15.3,90.5,15.5,90.5L15.5,90.5z"/>
		<path id="Trazado_549" class="st4" d="M55.7,32.4c8.2-0.2,16.4-0.3,24.6-0.5l24.6-0.3c16.4-0.2,32.9-0.2,49.3-0.2
			s32.9,0.1,49.3,0.2l24.6,0.3c8.2,0.2,16.4,0.3,24.6,0.5c0.1,0,0.2,0.1,0.2,0.2c0,0.1-0.1,0.2-0.2,0.2c-8.2,0.2-16.4,0.3-24.6,0.5
			l-24.6,0.3c-16.4,0.2-32.9,0.2-49.3,0.2s-32.9,0-49.3-0.2l-24.6-0.3c-8.2-0.2-16.4-0.2-24.6-0.5c-0.1,0-0.2-0.1-0.2-0.2l0,0
			C55.5,32.5,55.6,32.4,55.7,32.4L55.7,32.4z"/>
		<path id="Trazado_550" class="st4" d="M3.4,148.7c12.6-0.2,25.1-0.3,37.7-0.5l37.7-0.3c12.6-0.1,25.1-0.1,37.7-0.1l37.7-0.1
			l37.7,0.1c12.6,0.1,25.1,0,37.7,0.1l37.7,0.3c12.6,0.2,25.1,0.3,37.7,0.5c0.1,0,0.2,0.1,0.2,0.2l0,0c0,0.1-0.1,0.2-0.2,0.2
			c-12.6,0.2-25.1,0.3-37.7,0.5l-37.7,0.3c-12.6,0.1-25.1,0.1-37.7,0.1l-37.7,0.1l-37.7-0.1c-12.6,0-25.1,0-37.7-0.1l-37.7-0.3
			c-12.6-0.1-25.2-0.2-37.7-0.5c-0.1,0-0.2-0.1-0.2-0.2l0,0C3.2,148.8,3.3,148.7,3.4,148.7L3.4,148.7z"/>
		<path id="Trazado_551" class="st4" d="M15.5,206.8c11.6-0.2,23.1-0.3,34.7-0.5l34.7-0.3c11.6-0.1,23.1-0.1,34.7-0.1l34.7-0.1
			l34.7,0.1c11.6,0,23.1,0,34.7,0.1l34.7,0.3c11.6,0.2,23.1,0.3,34.7,0.5c0.1,0,0.2,0.1,0.2,0.2l0,0c0,0.1-0.1,0.2-0.2,0.2
			c-11.6,0.2-23.1,0.3-34.7,0.5l-34.7,0.3c-11.6,0.1-23.1,0.1-34.7,0.1l-34.7,0.1l-34.7-0.1c-11.6,0-23.1,0-34.7-0.1l-34.7-0.3
			c-11.6-0.1-23.1-0.2-34.7-0.5c-0.1,0-0.2-0.1-0.2-0.2C15.3,206.9,15.4,206.8,15.5,206.8L15.5,206.8z"/>
		<path id="Trazado_552" class="st4" d="M257.8,266.1H60.7c-0.5,0-0.9-0.4-0.9-0.9c0-0.5,0.4-0.9,0.9-0.9h197.1
			c0.5,0,0.9,0.4,0.9,0.9C258.7,265.7,258.3,266,257.8,266.1L257.8,266.1L257.8,266.1z"/>
	</g>
	<path id="Trazado_554" class="st4" d="M297.2,385.6c0.3-0.1,0.5-0.1,0.8-0.1c0.7,0.1,1.4,0.2,2.1,0.4c0.8,0.1,1.3,0.8,1.2,1.6
		s-0.8,1.3-1.6,1.2h0c-0.8-0.1-1.5-0.2-2.2-0.4c-0.8-0.1-1.2-0.9-1.1-1.6C296.5,386.2,296.7,385.8,297.2,385.6L297.2,385.6z"/>
	
		<linearGradient id="Trazado_568_00000049223011608610885620000006355572143140201908_" gradientUnits="userSpaceOnUse" x1="-675.3444" y1="-45.7005" x2="-676.1843" y2="-45.2605" gradientTransform="matrix(71.68 0 0 77.76 56443.0195 -722.4504)">
		<stop  offset="0" style="stop-color:#F9B776"/>
		<stop  offset="1" style="stop-color:#F47960"/>
	</linearGradient>
	<path id="Trazado_568" style="fill:url(#Trazado_568_00000049223011608610885620000006355572143140201908_);" d="M326.1,154.5
		c-0.1,0-38-66.5-43.2-72.8c-0.9-1.1-2.2-1.6-3.5-1.4l-10.6,1.3l-12.5,27l20.7-12.1c-2.1,14.2,24.6,35.3,33.7,43
		c0.9,0.8,1,2.1,0.2,3c0,0-0.1,0.1-0.1,0.1l-3.6,3.8c5.6,5.8,12.8,9.9,20.7,11.8L326.1,154.5L326.1,154.5z"/>
	<path id="Trazado_569" class="st6" d="M309.4,144.2c-1.4,0.5-2.5,1.5-3.1,2.8c-0.4,1,0,2.1,0.9,2.7c3.8,2.8,16.5,11.6,22.4,13.4
		c0.4,0.1,0.7-0.1,0.8-0.5c0-0.1,0-0.2,0-0.3c-0.3-1.4-1.3-4.1-4.4-8l0.3,0.6c0.2,0.4,0,0.9-0.4,1.1c-0.2,0.1-0.5,0.1-0.8,0
		C321.2,153.8,313.2,149,309.4,144.2L309.4,144.2z"/>
	
		<linearGradient id="Trazado_570_00000144315909123098470560000002947381563355439024_" gradientUnits="userSpaceOnUse" x1="-643.1901" y1="-50.2891" x2="-639.7902" y2="-51.7691" gradientTransform="matrix(60.2 0 0 86.89 47314.6992 -716.2273)">
		<stop  offset="0" style="stop-color:#F9B776"/>
		<stop  offset="1" style="stop-color:#F47960"/>
	</linearGradient>
	<path id="Trazado_570" style="fill:url(#Trazado_570_00000144315909123098470560000002947381563355439024_);" d="M311.3,170.8
		c-0.1,0-5.8-13.8-5.8-13.8c-4-23-11.3-45.3-21.7-66.2c-0.6-1.2-1.8-2-3.2-2.1l-10.6-0.9l-17.6,23.9L275,104
		c-4.9,13.5,17,39.5,24.3,48.9c0.7,0.9,0.6,2.2-0.3,2.9c0,0-0.1,0.1-0.1,0.1l-4.4,3c4.3,6.9,10.5,12.3,17.9,15.7L311.3,170.8
		L311.3,170.8z"/>
	<path id="Trazado_571" class="st6" d="M297,157.4c-1.5,0.2-2.8,1-3.6,2.1c-0.6,0.9-0.4,2.1,0.3,2.9c3.2,3.5,13.8,14.7,19.2,17.6
		c0.3,0.2,0.7,0,0.9-0.3c0-0.1,0.1-0.2,0.1-0.3c0-1.4-0.4-4.2-2.7-8.8l0.2,0.6c0.1,0.4-0.1,0.9-0.6,1c-0.3,0.1-0.5,0-0.7-0.2
		C306.7,169.1,299.9,162.8,297,157.4L297,157.4z"/>
	<path id="Trazado_572" class="st8" d="M220.1,82.8c0,0-9.6,14.3-10.4,20.8s2.7,8.8,12.7,9.6c30,2.5,44.7-6.5,44.7-6.5
		c2-13.1,3.5-16.4,20.6-23.5c0,0-21.7,1.7-26,0S220.1,82.8,220.1,82.8L220.1,82.8z"/>
	
		<linearGradient id="Trazado_573_00000182518227870743236470000000123917461102310832_" gradientUnits="userSpaceOnUse" x1="-788.0702" y1="6.4156" x2="-787.3702" y2="7.0256" gradientTransform="matrix(65.67 0 0 72.85 51600.3086 -797.7597)">
		<stop  offset="0" style="stop-color:#2B3582"/>
		<stop  offset="1" style="stop-color:#150E42"/>
	</linearGradient>
	<path id="Trazado_573" style="fill:url(#Trazado_573_00000182518227870743236470000000123917461102310832_);" d="M253.9,4
		c0,0-10.1,1.4-12.5,4.8c-2,2.7-9.5,0.6-12.1,6.3c-1.3,2.9-4.4,4.6-7.6,4.1c-7.9-1.3-20.8-1.2-26.9,11.2c-4.7,9.5-0.9,15,4.1,18
		c3.6,2.2,4.9,6.9,2.9,10.6c-2,3.5-2.3,8.3,3.1,13.9c12.2,12.6,35.5-8.7,35.5-8.7l18-44.7L253.9,4L253.9,4z"/>
	<path id="Trazado_574" class="st4" d="M204.9,56.9c0,0,0.1,0,0.1,0c1.3-0.9,2.1-2.4,2.2-4c0.1-1.1-0.4-2.8-2.6-4.2
		c-0.7-0.4-1.4-0.8-2.1-1.2c-1.3-0.5-2.4-1.3-3.4-2.3c-1.3-1.6-2.1-3.5-2.4-5.5c-0.5-3.4,0-6.9,1.6-10.1c4.3-7.8,17.2-7.5,25-7.4
		h0.1c5.3,0.1,6.8-2.4,8.6-5.6l0.2-0.4c1.9-3.3,6.8-3.6,6.9-3.6c0.1,0,0.2-0.1,0.2-0.2l0,0c0-0.1-0.1-0.2-0.2-0.2
		c-0.2,0-5.2,0.3-7.1,3.8l-0.2,0.4c-1.8,3.2-3.1,5.6-8.2,5.5h-0.1c-7.8-0.2-20.8-0.5-25.3,7.5c-1.6,3.2-2.1,6.8-1.6,10.3
		c0.3,2,1.1,4,2.4,5.6c1,1,2.2,1.8,3.5,2.3c0.7,0.3,1.4,0.7,2.1,1.2c1.7,1.1,2.5,2.4,2.4,3.9c-0.1,1.5-0.9,2.8-2.1,3.7
		c-0.1,0-0.1,0.2-0.1,0.2C204.8,56.8,204.8,56.9,204.9,56.9L204.9,56.9z"/>
	<path id="Trazado_575" class="st6" d="M246.1,80.9c0,0,11.2-10.7,16.7-17.7c3-3.8,3.9-8.9,2.5-13.5c-2.5-8.5-7-17.3-7.4-18.6
		c-0.6-2.1-13.2-2-13.2-2s-24.7,16-34.4,43.2l10.9,3.4c0,0,6.5-10.8,12.8-17.7c0,0-11,14.6-11.4,20.5L246.1,80.9L246.1,80.9z"/>
	
		<linearGradient id="Trazado_576_00000033364780709447294650000001014923780043354546_" gradientUnits="userSpaceOnUse" x1="-875.9018" y1="59.079" x2="-874.9017" y2="59.079" gradientTransform="matrix(59.62 0 0 13.78 46809.2305 -734.9993)">
		<stop  offset="0" style="stop-color:#F9B776"/>
		<stop  offset="1" style="stop-color:#F47960"/>
	</linearGradient>
	<path id="Trazado_576" style="fill:url(#Trazado_576_00000033364780709447294650000001014923780043354546_);" d="M267.5,85.1
		l-8.4-9.2l-9.7,2.6c0,0-11.3,1.8-17.8,0l-6.5-1.8l-14.7-4.6l-2.3,6.5c-0.6,1.7,0,3.5,1.4,4.5c1.2,0.9,2.4,1.6,3.7,2.3
		c1.9,0.8,44.5,0.3,44.5,0.3L267.5,85.1L267.5,85.1z"/>
	
		<linearGradient id="Trazado_577_00000142859150801327833080000005371999379792434056_" gradientUnits="userSpaceOnUse" x1="-752.0585" y1="87.4199" x2="-751.8785" y2="86.3399" gradientTransform="matrix(15.85 0 0 19.75 12051.1904 -790.6201)">
		<stop  offset="0" style="stop-color:#F9B776"/>
		<stop  offset="1" style="stop-color:#F47960"/>
	</linearGradient>
	<path id="Trazado_577" style="fill:url(#Trazado_577_00000142859150801327833080000005371999379792434056_);" d="M253.4,13.9
		L245,29.6c0.6,3.4,9.2,3.5,10.5,1.5c0.1-0.2,0.2-0.4,0.3-0.7l5.1-10.5c0.2-1-2.6-4.5-3.5-5l-3.4-1.8
		C252.7,12.5,258.1,12.4,253.4,13.9L253.4,13.9z"/>
	
		<linearGradient id="Trazado_578_00000059998960092009759320000014672892396565604274_" gradientUnits="userSpaceOnUse" x1="-794.1068" y1="103.5173" x2="-792.5468" y2="101.2373" gradientTransform="matrix(17.52 0 0 21.47 13385.2197 -793.9696)">
		<stop  offset="0" style="stop-color:#F9B776"/>
		<stop  offset="1" style="stop-color:#F47960"/>
	</linearGradient>
	<path id="Trazado_578" style="fill:url(#Trazado_578_00000059998960092009759320000014672892396565604274_);" d="M270.5,10.2
		c0,0,1,5.3-3.2,12.1s-8.3,6.4-10.4,4s-4.6-6.4-3.5-13.1S269.1,3.4,270.5,10.2L270.5,10.2z"/>
	
		<linearGradient id="Trazado_579_00000101067000630829909950000004751699580428930234_" gradientUnits="userSpaceOnUse" x1="-823.3793" y1="-203.2891" x2="-822.8693" y2="-201.0491" gradientTransform="matrix(26.95 0 0 15.42 20880.1113 -807.5302)">
		<stop  offset="0" style="stop-color:#2B3582"/>
		<stop  offset="1" style="stop-color:#150E42"/>
	</linearGradient>
	<path id="Trazado_579" style="fill:url(#Trazado_579_00000101067000630829909950000004751699580428930234_);" d="M258.4,13.9
		c0,0,6.8-8.9,11.9-1.1l-0.1,2.7c0,0,6.7-0.3,6-6.5s-6.2-10.5-13.9-8.3c-7.6,2.1-12.1,4.5-12.9,9.8s3.5,4.4,3.5,4.4s1.6-3.6,3.7-3.9
		c2-0.2,1.3,2.6,1.3,2.6L258.4,13.9L258.4,13.9z"/>
	
		<linearGradient id="Trazado_580_00000042729500030528727320000006233919930606436486_" gradientUnits="userSpaceOnUse" x1="-994.0548" y1="568.4977" x2="-987.6448" y2="561.0777" gradientTransform="matrix(4.29 0 0 6.58 2868.6199 -796.4899)">
		<stop  offset="0" style="stop-color:#F9B776"/>
		<stop  offset="1" style="stop-color:#F47960"/>
	</linearGradient>
	<path id="Trazado_580" style="fill:url(#Trazado_580_00000042729500030528727320000006233919930606436486_);" d="M256.9,13.6
		c0,0,3.5-4.5,0.3-5.5s-3.1,4.4-2.9,6.5L256.9,13.6z"/>
	<path id="Trazado_581" class="st4" d="M274.9,11.1c0,0,0.1,0,0.1-0.1c1.4-1.9-0.9-3.7-0.9-3.7c0-0.1-0.1-0.1-0.2,0s0,0.1,0,0.2
		c0.1,0.1,2.1,1.7,0.9,3.4C274.7,11,274.7,11.1,274.9,11.1L274.9,11.1C274.8,11.1,274.8,11.1,274.9,11.1z"/>
	
		<linearGradient id="Trazado_582_00000061445871180152519020000006339312642801518766_" gradientUnits="userSpaceOnUse" x1="-768.5277" y1="205.2456" x2="-769.2677" y2="207.6855" gradientTransform="matrix(42.25 0 0 3.51 33029.3398 -715.6099)">
		<stop  offset="0" style="stop-color:#2B3582"/>
		<stop  offset="1" style="stop-color:#150E42"/>
	</linearGradient>
	<path id="Trazado_582" style="fill:url(#Trazado_582_00000061445871180152519020000006339312642801518766_);" d="M239.6,88.7
		L239.6,88.7l38.8-0.1c1,0.1,1.8-0.7,1.8-1.6s-0.7-1.8-1.6-1.8c-0.1,0-0.1,0-0.2,0l-38.7,0c-1,0-1.7,0.8-1.7,1.8
		C238,87.9,238.7,88.6,239.6,88.7L239.6,88.7L239.6,88.7z"/>
	
		<linearGradient id="Trazado_583_00000005235072239535122290000012157338208554402711_" gradientUnits="userSpaceOnUse" x1="-762.1658" y1="20.9528" x2="-757.0858" y2="20.2828" gradientTransform="matrix(55.29 0 0 35.14 43420.0195 -748.1003)">
		<stop  offset="0" style="stop-color:#2B3582"/>
		<stop  offset="1" style="stop-color:#150E42"/>
	</linearGradient>
	<path id="Trazado_583" style="fill:url(#Trazado_583_00000005235072239535122290000012157338208554402711_);" d="M313.3,53.5H281
		c-2.4,0-4.5,1.4-5.6,3.5l-14.9,31.6h40.1c1.5,0,2.9-0.9,3.5-2.3l11.6-29.3c0.5-1.3-0.1-2.8-1.4-3.3
		C313.9,53.6,313.6,53.5,313.3,53.5L313.3,53.5z"/>
	
		<linearGradient id="Trazado_584_00000153691899596590487490000002890371070891341726_" gradientUnits="userSpaceOnUse" x1="-1157.8254" y1="625.967" x2="-1159.6554" y2="627.8571" gradientTransform="matrix(5.49 0 0 8.01 3859.0999 -738.8703)">
		<stop  offset="0" style="stop-color:#53D8FF"/>
		<stop  offset="1" style="stop-color:#3840F7"/>
	</linearGradient>
	<path id="Trazado_584" style="fill:url(#Trazado_584_00000153691899596590487490000002890371070891341726_);" d="M290.5,69.8
		c-0.7,2.2-0.2,4.3,1.2,4.7s3-1,3.7-3.2s0.2-4.3-1.2-4.7S291.2,67.6,290.5,69.8z"/>
	
		<linearGradient id="Trazado_585_00000168796430794938446870000010731486729952789641_" gradientUnits="userSpaceOnUse" x1="-771.1862" y1="19.3435" x2="-771.7862" y2="21.2735" gradientTransform="matrix(40.6 0 0 25.97 31526.75 -560.6102)">
		<stop  offset="0" style="stop-color:#2B3582"/>
		<stop  offset="1" style="stop-color:#150E42"/>
	</linearGradient>
	<path id="Trazado_585" style="fill:url(#Trazado_585_00000168796430794938446870000010731486729952789641_);" d="M54.2,245.1
		c-0.1,0.2-7.9,6-7.9,6s1.7,12.3,8.7,17.2c7.7,5.4,18.5-4.4,18.5-4.4s8.6,2,13.2-15.9c1.1-4.1-5-4.5-12.3-3.7
		C64.9,245.1,54.2,245.1,54.2,245.1L54.2,245.1z"/>
	<path id="Trazado_586" class="st19" d="M39.6,287.1c3-2.1,6.4-3.7,10-4.6c1.3-0.4,8.6,1.8,13.1,1.6c6.2-0.1,12.4-2.9,17.5-1.7
		s9.2,2.9,11.5,4.6c7.1,5.1,11.3,14.5,13.9,23.9c-3.1,3.1-6.8,5.5-10.9,7.2l-1.2,45.5l-26.9,13.8l-30.7-15.4l1.1-44.5
		c0,0-9.8-4.5-10.5-6.2S31,293,39.6,287.1L39.6,287.1z"/>
	
		<linearGradient id="Trazado_587_00000041277694619153715620000010182999084667021203_" gradientUnits="userSpaceOnUse" x1="-761.7832" y1="15.5287" x2="-759.6432" y2="17.9487" gradientTransform="matrix(23.84 0 0 51.12 18180.1406 -495.4076)">
		<stop  offset="0" style="stop-color:#C4421B"/>
		<stop  offset="1" style="stop-color:#5C0E16"/>
	</linearGradient>
	<path id="Trazado_587" style="fill:url(#Trazado_587_00000041277694619153715620000010182999084667021203_);" d="M27,311
		c0,0-13.1,36.2,16.7,51.1c6.2-0.8,3.8-11.1,3.8-11.1s-12.9-2.9-9.1-33.1C34.9,315,27,311,27,311L27,311z"/>
	
		<linearGradient id="Trazado_588_00000142876052700597649410000004773885491028373949_" gradientUnits="userSpaceOnUse" x1="-821.1346" y1="-49.5364" x2="-818.8646" y2="-47.1264" gradientTransform="matrix(22.51 0 0 51.12 17183.7188 -495.4076)">
		<stop  offset="0" style="stop-color:#C4421B"/>
		<stop  offset="1" style="stop-color:#5C0E16"/>
	</linearGradient>
	<path id="Trazado_588" style="fill:url(#Trazado_588_00000142876052700597649410000004773885491028373949_);" d="M104.9,311
		c0,0,9,37.8-16.7,51.1c-6.2-0.8-3.8-11.1-3.8-11.1s10.4-5.1,9.1-33.1C97,315,104.9,311,104.9,311L104.9,311z"/>
	
		<linearGradient id="Rect치ngulo_409_00000105408199223032425220000005565741345769504446_" gradientUnits="userSpaceOnUse" x1="-780.979" y1="19.9901" x2="-781.029" y2="22.6801" gradientTransform="matrix(58.99 0 0 39.84 46135.75 -477.5994)">
		<stop  offset="0" style="stop-color:#2B3582"/>
		<stop  offset="1" style="stop-color:#150E42"/>
	</linearGradient>
	<path id="Rect치ngulo_409" style="fill:url(#Rect치ngulo_409_00000105408199223032425220000005565741345769504446_);" d="
		M43.9,324.8h42.3c4.6,0,8.3,3.7,8.3,8.3v23.2c0,4.6-3.7,8.3-8.3,8.3H43.9c-4.6,0-8.3-3.7-8.3-8.3v-23.2
		C35.6,328.5,39.3,324.8,43.9,324.8z"/>
	<path id="Trazado_589" class="st6" d="M120.5,376.5c-6.8-1.5-22.3-0.7-22.3-0.7l-0.6,1.7l-1.1,8.5c0,0,14.9,2.7,22.2,2.7
		c0.7,0,1.4-0.1,2.1-0.3c0.2-0.2,0.4-0.4,0.7-0.6C124.4,384.4,123.5,379.4,120.5,376.5L120.5,376.5z"/>
	
		<linearGradient id="Trazado_590_00000166648176355975692770000002963438791575886752_" gradientUnits="userSpaceOnUse" x1="-621.2355" y1="66.8403" x2="-631.3655" y2="71.7502" gradientTransform="matrix(4.63 0 0 11.91 3008.6699 -427.5099)">
		<stop  offset="0" style="stop-color:#2B3582"/>
		<stop  offset="1" style="stop-color:#150E42"/>
	</linearGradient>
	<path id="Trazado_590" style="fill:url(#Trazado_590_00000166648176355975692770000002963438791575886752_);" d="M121.1,376.6
		l-0.7-0.2c3.1,2.9,3.9,7.9,0.8,11.3c-0.2,0.2-0.4,0.4-0.7,0.6C126.1,386.7,126.8,378.2,121.1,376.6z"/>
	
		<linearGradient id="Trazado_591_00000075872565358535239600000014576999300768190885_" gradientUnits="userSpaceOnUse" x1="-701.7889" y1="74.202" x2="-699.489" y2="61.092" gradientTransform="matrix(8.57 0 0 10.76 6113.2002 -429.8405)">
		<stop  offset="0" style="stop-color:#2B3582"/>
		<stop  offset="1" style="stop-color:#150E42"/>
	</linearGradient>
	<path id="Trazado_591" style="fill:url(#Trazado_591_00000075872565358535239600000014576999300768190885_);" d="M93.6,375.3
		l2.6,0.1c1.4,0.1,2.8,0.8,3.7,1.9c1,1.2,1.4,2.7,1.4,4.3c-0.1,1.2-0.6,2.4-1.4,3.3c-0.8,0.8-1.9,1.2-3.1,1.2l-4-0.3L93.6,375.3
		L93.6,375.3z"/>
	<path id="Trazado_592" class="st6" d="M4.8,375.6c6.8-1.3,22.4,0,22.4,0l0.6,1.8l0.8,8.6c0,0-14.9,2.2-22.2,2
		c-0.7,0-1.4-0.1-2.1-0.4c-0.2-0.2-0.4-0.4-0.6-0.6C0.6,383.4,1.6,378.5,4.8,375.6L4.8,375.6z"/>
	
		<linearGradient id="Trazado_593_00000027598666653423696320000011838259596630279042_" gradientUnits="userSpaceOnUse" x1="-628.5905" y1="47.3757" x2="-628.4005" y2="54.5757" gradientTransform="matrix(4.78 0 0 11.9 3004.47 -429.1597)">
		<stop  offset="0" style="stop-color:#2B3582"/>
		<stop  offset="1" style="stop-color:#150E42"/>
	</linearGradient>
	<path id="Trazado_593" style="fill:url(#Trazado_593_00000027598666653423696320000011838259596630279042_);" d="M4.1,375.8
		c0.2,0,0.4-0.1,0.7-0.1c-3.1,2.8-4.1,7.8-1.1,11.2c0.2,0.2,0.4,0.5,0.6,0.6C-1.2,385.7-1.6,377.2,4.1,375.8z"/>
	
		<linearGradient id="Trazado_594_00000012445447599254411260000003770807490743824021_" gradientUnits="userSpaceOnUse" x1="-696.6198" y1="75.6217" x2="-677.5297" y2="74.3016" gradientTransform="matrix(8.46 0 0 10.65 5953.3398 -427.3901)">
		<stop  offset="0" style="stop-color:#2B3582"/>
		<stop  offset="1" style="stop-color:#150E42"/>
	</linearGradient>
	<path id="Trazado_594" style="fill:url(#Trazado_594_00000012445447599254411260000003770807490743824021_);" d="M31.6,375.3
		l-2.6,0c-1.5,0-2.8,0.7-3.8,1.8c-1,1.2-1.5,2.7-1.5,4.2c0,1.2,0.5,2.4,1.4,3.3c0.8,0.8,1.9,1.3,3,1.3l4.1-0.2L31.6,375.3
		L31.6,375.3z"/>
	
		<linearGradient id="Trazado_595_00000047759349644259161600000011941818702956284583_" gradientUnits="userSpaceOnUse" x1="-785.8784" y1="17.2484" x2="-786.0784" y2="19.8383" gradientTransform="matrix(94.14 0 0 44.09 74070.2031 -462.8201)">
		<stop  offset="0" style="stop-color:#A737D5"/>
		<stop  offset="1" style="stop-color:#49E1EF"/>
	</linearGradient>
	<path id="Trazado_595" style="fill:url(#Trazado_595_00000047759349644259161600000011941818702956284583_);" d="M122.3,349.7
		c-3.1-7.1-10.6-8.2-16.9-4.9c-0.1,0.1-40.5,20.8-76.1,29.9c1,3.3,1.6,6.7,1.7,10.2c0,0.8,0,1.5,0,2.2c27.3-1.4,56.9-10.5,82.4-18.5
		C121.2,366,125.8,357.5,122.3,349.7L122.3,349.7z"/>
	
		<linearGradient id="Trazado_596_00000138531750354395375760000007254140451162421648_" gradientUnits="userSpaceOnUse" x1="-785.8038" y1="18.6038" x2="-784.9937" y2="19.1838" gradientTransform="matrix(89.13 0 0 44.2 70065.2578 -464.2295)">
		<stop  offset="0" style="stop-color:#A737D5"/>
		<stop  offset="1" style="stop-color:#49E1EF"/>
	</linearGradient>
	<path id="Trazado_596" style="fill:url(#Trazado_596_00000138531750354395375760000007254140451162421648_);" d="M93.8,385.4
		c-0.1-3.8,0.7-7.6,2.3-11c0.1-0.1,0.1-0.3,0.2-0.5c-2-0.6-4.7-1.5-8.1-2.6c-21.8-7.3-42.8-16.5-63-27.4c-7.1-3.9-15.3-1.3-17.6,7.2
		c-2.1,7.5,2.4,14,9.2,16.3c20.4,6.8,9.8,4.9,16.4,7.1c17.9,5.5,40.1,10.6,60.6,11.9C93.8,386,93.8,385.7,93.8,385.4L93.8,385.4z"/>
	
		<linearGradient id="Trazado_597_00000008107358995039117250000001060526856858777784_" gradientUnits="userSpaceOnUse" x1="-768.4586" y1="36.323" x2="-768.4786" y2="33.773" gradientTransform="matrix(30.56 0 0 23.26 23549.3301 -532.2106)">
		<stop  offset="0" style="stop-color:#C4421B"/>
		<stop  offset="1" style="stop-color:#5C0E16"/>
	</linearGradient>
	<path id="Trazado_597" style="fill:url(#Trazado_597_00000008107358995039117250000001060526856858777784_);" d="M49.6,282.4
		c1.9,7.1,8.5,11.9,15.9,11.5c13.4-0.2,14.7-11.6,14.7-11.6l-8.8-1.9l-0.7-9.8l-13.2,1l-0.2,9.3L49.6,282.4L49.6,282.4z"/>
	
		<linearGradient id="Trazado_598_00000099663496228109531080000006532293199894583210_" gradientUnits="userSpaceOnUse" x1="-765.115" y1="15.5833" x2="-765.035" y2="14.1933" gradientTransform="matrix(27.43 0 0 37.11 21064.541 -561.5598)">
		<stop  offset="0" style="stop-color:#C4421B"/>
		<stop  offset="1" style="stop-color:#5C0E16"/>
	</linearGradient>
	<path id="Trazado_598" style="fill:url(#Trazado_598_00000099663496228109531080000006532293199894583210_);" d="M59.3,243
		c0,0-15.1,29.3,2.8,36.4c12.7,5,20.6-19.5,18.2-26.1c-3.7-10.2-6.1-9-6.1-9L59.3,243L59.3,243z"/>
	
		<linearGradient id="Trazado_599_00000048493819364964452990000001677694218893475990_" gradientUnits="userSpaceOnUse" x1="-771.3738" y1="15.1879" x2="-772.0438" y2="16.8679" gradientTransform="matrix(41.07 0 0 33.34 31900.6191 -572.701)">
		<stop  offset="0" style="stop-color:#2B3582"/>
		<stop  offset="1" style="stop-color:#150E42"/>
	</linearGradient>
	<path id="Trazado_599" style="fill:url(#Trazado_599_00000048493819364964452990000001677694218893475990_);" d="M84,240.3
		c7.5,2.1,1.1,18.3-10.2,14.4s-15.7-3.8-17.4-0.7s-2.1,14.1-5.9,8.6c-4.2-6-6.5-17.9-1.4-21.8c4.6-3.4,5.6-8.8,11.1-8.6
		c7.3,0.2,12.9-3,16.2-0.6C80.2,234.4,78.5,238.8,84,240.3L84,240.3z"/>
	
		<linearGradient id="Trazado_600_00000062874921153238217570000014468436121943344262_" gradientUnits="userSpaceOnUse" x1="-610.1323" y1="106.755" x2="-609.3524" y2="98.295" gradientTransform="matrix(4.26 0 0 9.54 2644.5701 -550.4698)">
		<stop  offset="0" style="stop-color:#C4421B"/>
		<stop  offset="1" style="stop-color:#5C0E16"/>
	</linearGradient>
	<path id="Trazado_600" style="fill:url(#Trazado_600_00000062874921153238217570000014468436121943344262_);" d="M55.7,256.6
		c0,0-3.2-3.5-3.8,0.7c-0.5,4.2,1.1,9.6,3.1,6.6S55.7,256.6,55.7,256.6z"/>
	<path id="Trazado_601" class="st4" d="M70.7,341.3c0.4,3-1.2,5.8-4.2,6.2c-3,0.5-5.8-1.6-6.3-4.7l0,0c-0.5-3,0.9-6,4-6.5
		C67.4,336,70.2,338.2,70.7,341.3L70.7,341.3z"/>
	<path id="Trazado_602" class="st4" d="M184.2,181.7v11.5h20.7v2.8c1-1.1,2.2-2.1,3.5-2.9c1.2-0.6,2.4-0.8,3.8-0.8
		c2.1,0.1,4.2,0.7,6,1.9l-3.3,6.7c-1.1-0.9-2.6-1.4-4-1.5c-4,0-5.9,3-5.9,9v16.3h-7.3V200h-13.4v24.7h-7.3V200h-8.2v-6.8h8.2v-11.5
		h-13.1v49.7h88.4v-49.6L184.2,181.7L184.2,181.7z M244,204.2c-1.2-1.6-2.7-3-4.5-4.2c-1.4-0.8-3-1.2-4.6-1.2
		c-2.6-0.1-5.1,1-6.8,2.9c-1.8,2-2.8,4.6-2.7,7.2c-0.1,2.7,0.8,5.3,2.6,7.3c1.7,1.9,4.2,2.9,6.8,2.9c1.6,0,3.2-0.4,4.6-1.1
		c1.8-1.1,3.3-2.6,4.6-4.3v9.6c-2.7,1.5-5.8,2.3-8.9,2.3c-4.5,0.1-8.9-1.6-12.2-4.7c-3.2-3.1-5-7.4-4.9-11.8
		c-0.1-4.5,1.7-8.8,5-11.9c3.2-3.2,7.6-4.9,12.2-4.9c3.1,0,6.1,0.8,8.8,2.2L244,204.2L244,204.2z"/>
	<g>
		<path class="st4" d="M178.8,243.1l-2.9,1.7c-0.5-0.9-1-1.5-1.5-1.8c-0.5-0.3-1.1-0.5-1.9-0.5c-1,0-1.8,0.3-2.4,0.8
			c-0.6,0.5-1,1.2-1,2.1c0,1.1,0.9,2.1,2.5,2.8l2.3,0.9c1.9,0.8,3.3,1.7,4.1,2.8c0.9,1.1,1.3,2.4,1.3,4.1c0,2.1-0.7,3.9-2.1,5.3
			c-1.4,1.4-3.2,2.1-5.4,2.1c-2,0-3.7-0.6-5-1.8c-1.3-1.2-2.1-2.9-2.4-5.1l3.6-0.8c0.2,1.4,0.4,2.3,0.9,2.8c0.7,1,1.8,1.5,3.2,1.5
			c1.1,0,2-0.4,2.7-1.1s1.1-1.7,1.1-2.8c0-0.4-0.1-0.9-0.2-1.2s-0.3-0.7-0.6-1c-0.3-0.3-0.6-0.6-1-0.9s-0.9-0.5-1.5-0.8l-2.2-0.9
			c-3.2-1.4-4.8-3.3-4.8-5.9c0-1.8,0.7-3.2,2-4.4c1.3-1.2,3-1.8,5-1.8C175.2,239.2,177.3,240.5,178.8,243.1L178.8,243.1z"/>
		<path class="st4" d="M186.4,271H183v-22.7h3.4v1.6c1.3-1.3,2.9-2,4.6-2c2,0,3.7,0.8,5,2.2c1.3,1.5,2,3.4,2,5.6s-0.7,4-2,5.5
			c-1.3,1.5-3,2.2-4.9,2.2c-1.7,0-3.3-0.7-4.6-2.1L186.4,271L186.4,271z M194.5,255.7c0-1.4-0.4-2.6-1.1-3.4
			c-0.8-0.9-1.8-1.3-2.9-1.3c-1.2,0-2.3,0.4-3,1.3c-0.8,0.9-1.2,2-1.2,3.4s0.4,2.5,1.2,3.4c0.8,0.9,1.8,1.3,3,1.3
			c1.2,0,2.1-0.4,2.9-1.3C194.1,258.1,194.5,257,194.5,255.7L194.5,255.7z"/>
		<path class="st4" d="M200.9,255.5c0-2.1,0.8-3.9,2.3-5.4s3.4-2.2,5.6-2.2s4.1,0.8,5.6,2.2c1.5,1.5,2.3,3.3,2.3,5.5
			c0,2.2-0.8,4.1-2.3,5.5c-1.5,1.5-3.4,2.2-5.6,2.2s-4.1-0.8-5.5-2.3C201.6,259.6,200.9,257.8,200.9,255.5L200.9,255.5z
			 M204.4,255.6c0,1.5,0.4,2.6,1.2,3.5c0.8,0.9,1.9,1.3,3.2,1.3s2.4-0.4,3.2-1.3c0.8-0.9,1.2-2,1.2-3.4s-0.4-2.6-1.2-3.4
			c-0.8-0.9-1.9-1.3-3.2-1.3s-2.4,0.4-3.2,1.3C204.8,253.1,204.4,254.2,204.4,255.6L204.4,255.6z"/>
		<path class="st4" d="M220.2,248.2h3.4v1.3c0.6-0.6,1.2-1.1,1.7-1.3c0.5-0.2,1.1-0.4,1.8-0.4c0.9,0,1.8,0.3,2.8,0.9l-1.6,3.1
			c-0.6-0.5-1.3-0.7-1.9-0.7c-1.9,0-2.8,1.4-2.8,4.2v7.6h-3.4L220.2,248.2L220.2,248.2z"/>
		<path class="st4" d="M236.4,251.4V263H233v-11.5h-1.4v-3.2h1.4v-5.4h3.4v5.4h2.6v3.2L236.4,251.4L236.4,251.4z"/>
		<path class="st4" d="M249.9,250.8l-2.8,1.5c-0.4-0.9-1-1.4-1.6-1.4c-0.3,0-0.6,0.1-0.8,0.3c-0.2,0.2-0.3,0.5-0.3,0.8
			c0,0.6,0.6,1.1,2,1.7c1.8,0.8,3,1.5,3.6,2.1c0.6,0.6,0.9,1.5,0.9,2.6c0,1.4-0.5,2.6-1.6,3.6c-1,0.9-2.2,1.4-3.7,1.4
			c-2.5,0-4.2-1.2-5.2-3.6l2.9-1.3c0.4,0.7,0.7,1.1,0.9,1.3c0.4,0.4,0.9,0.6,1.5,0.6c1.1,0,1.7-0.5,1.7-1.6c0-0.6-0.4-1.2-1.3-1.7
			c-0.3-0.2-0.7-0.3-1-0.5c-0.3-0.2-0.7-0.3-1-0.5c-1-0.5-1.7-1-2.1-1.4c-0.5-0.6-0.8-1.4-0.8-2.4c0-1.3,0.4-2.3,1.3-3.2
			c0.9-0.8,2-1.2,3.3-1.2C247.5,247.8,248.9,248.8,249.9,250.8L249.9,250.8z"/>
	</g>
	<g>
		<g>
			<g>
				<g>
					<path class="st33" d="M345.1,317.5c-0.9,0-1.8-0.3-2.5-0.9c-0.9-0.8-1.5-1.9-1.5-3.1v-41.8c0-2.2,1.8-4,4-4h39.1
						c2.1,0,4,1,5.3,2.6c1.3,1.7,1.7,3.8,1.2,5.8l-4.6,17.8c-2.5,9.5-9.9,16.8-19.3,19.2c-0.1,0-0.1,0-0.2,0l-20.8,4.2
						C345.6,317.4,345.4,317.5,345.1,317.5L345.1,317.5L345.1,317.5z M349.1,275.7v32.9l15.9-3.2c6.6-1.7,11.8-6.9,13.5-13.5
						l4.2-16.2H349.1L349.1,275.7z"/>
					<path class="st33" d="M325.6,317.5c-0.3,0-0.5,0-0.8-0.1l-20.8-4.2c-0.1,0-0.1,0-0.2,0c-9.5-2.4-16.9-9.8-19.3-19.2l-4.6-17.8
						c-0.5-2-0.1-4.1,1.2-5.8c1.3-1.7,3.2-2.6,5.3-2.6h39.1c2.2,0,4,1.8,4,4v41.8c0,1.2-0.5,2.3-1.5,3.1
						C327.4,317.1,326.5,317.5,325.6,317.5L325.6,317.5L325.6,317.5z M305.8,305.3l15.9,3.2v-32.9h-33.5l4.2,16.2
						C294,298.5,299.1,303.6,305.8,305.3L305.8,305.3z"/>
				</g>
				<g>
					<g>
						<path class="st34" d="M349,347.9c-10.4-3.4-17.6-14.1-18-26.4c0.4-1.9,0.6-3.9,0.6-6V302h-2.9v13.6c0,12.6-8.4,23.8-20.5,27.3
							v8.2h43.3v-2.3L349,347.9L349,347.9z"/>
						<path class="st33" d="M359.9,342.1c-10.7-3.1-18-12.8-18-23.9V302h-13.1v13.6c0,2-0.2,4-0.6,6c0.4,12.3,7.6,22.9,18,26.4
							l2.5,0.8v2.3h13.8v-8.2L359.9,342.1L359.9,342.1z"/>
						<path class="st35" d="M354.6,342.8h-51.1c-2,0-3.6,1.6-3.6,3.6v18.1h58.3v-18.1C358.2,344.4,356.6,342.8,354.6,342.8
							L354.6,342.8L354.6,342.8z"/>
						<path class="st34" d="M367.2,342.8h-14.4c2,0,3.6,1.6,3.6,3.6v18.1h14.4v-18.1C370.8,344.4,369.2,342.8,367.2,342.8z"/>
					</g>
					<path class="st35" d="M353.5,283.3v-20.2h-48.1v19.5c0,16,8.7,30.8,22.7,38.6c1,0.6,2.1,1,3.2,1.3
						C345,314.3,353.5,299.4,353.5,283.3L353.5,283.3L353.5,283.3z"/>
					<path class="st34" d="M350.9,263.1v19.5c0,16-8.7,30.8-22.7,38.6l-0.1,0.1c4.5,2.5,10,2.5,14.6-0.1c14-7.8,22.7-22.6,22.7-38.6
						v-19.5H350.9z"/>
					<path class="st34" d="M365.4,367.5v-2.3c0-2.2-1.8-4-4-4h-64.7c-2.2,0-4,1.8-4,4s1.8,4,4,4h66.8L365.4,367.5L365.4,367.5z"/>
					<path class="st33" d="M374,361.2h-14.5c2.2,0,4,1.8,4,4v4H374c2.2,0,4-1.8,4-4S376.2,361.2,374,361.2L374,361.2z"/>
					<path class="st34" d="M361.4,262.9v-3.2l-3.1-1.6h-55.5c-2.6,0-4.8,2.1-4.8,4.8s2.1,4.8,4.8,4.8h53.9
						C359.2,267.7,361.4,265.5,361.4,262.9L361.4,262.9z"/>
					<path class="st33" d="M368,258.2h-9.7v4.8c0,2.6-2.1,4.8-4.8,4.8H368c2.6,0,4.8-2.1,4.8-4.8S370.6,258.2,368,258.2z"/>
				</g>
			</g>
			<path class="st36" d="M356.4,354.1h-42c-0.9,0-1.7-0.8-1.7-1.7s0.8-1.7,1.7-1.7h42c0.9,0,1.7,0.8,1.7,1.7
				S357.3,354.1,356.4,354.1z"/>
		</g>
		<path class="st37" d="M336.7,279.3l2.5,6.9c0.2,0.5,0.7,0.9,1.2,0.9l7.3,0.3c1.3,0,1.8,1.7,0.8,2.5l-5.8,4.5
			c-0.4,0.4-0.6,0.9-0.5,1.5l2,7c0.4,1.2-1,2.2-2.1,1.5l-6.1-4.1c-0.5-0.3-1.1-0.3-1.5,0l-6.1,4.1c-1.1,0.7-2.5-0.3-2.1-1.5l2-7
			c0.1-0.5,0-1.1-0.5-1.5l-5.8-4.5c-1-0.8-0.5-2.4,0.8-2.5l7.3-0.3c0.6,0,1.1-0.4,1.2-0.9l2.5-6.9
			C334.5,278.1,336.2,278.1,336.7,279.3L336.7,279.3L336.7,279.3z"/>
	</g>
</g>
</svg>
