<svg xmlns="http://www.w3.org/2000/svg" width="90.49" height="103.529" viewBox="0 0 90.49 103.529">
  <g id="icon_participa" transform="translate(-32.241 0)">
    <g id="Grupo_1146" data-name="Grupo 1146" transform="translate(32.241 0)">
      <path id="Trazado_1884" data-name="Trazado 1884" d="M361.722.019a17.579,17.579,0,0,0-8.98,3.4l-.573,2.592,2.108,1.933,3.516-.205a9.935,9.935,0,0,1,4.265-1.357c2.307-.122,4.443.916,6.532,3.173,2.352,2.541,2.748,5.661,2.145,8.789l.459,2.761L373.9,23.44l2.2-.64c2.963-8.62.24-14.245-2.84-17.573-3.406-3.68-7.291-5.432-11.545-5.207Z" transform="translate(-287.478 0)" fill="#71aa52"/>
      <g id="Grupo_1145" data-name="Grupo 1145" transform="translate(61.868 3.419)">
        <g id="Grupo_1144" data-name="Grupo 1144">
          <g id="Grupo_1142" data-name="Grupo 1142" transform="translate(19.946 14.924)">
            <path id="Trazado_1885" data-name="Trazado 1885" d="M441.949,99.217a33.008,33.008,0,0,0,1.716-4.047l-5.372-4.456a20.558,20.558,0,0,1-1.441,4.423v4.184H441.9Z" transform="translate(-436.852 -90.714)" fill="#68994b"/>
          </g>
          <g id="Grupo_1143" data-name="Grupo 1143">
            <path id="Trazado_1886" data-name="Trazado 1886" d="M338.209,19.71v4.1h4.94a19.265,19.265,0,0,1,3.6-2.631L341.6,16.908a28.644,28.644,0,0,0-3.326,2.733Z" transform="translate(-338.209 -16.908)" fill="#68994b"/>
          </g>
        </g>
      </g>
      <path id="Trazado_1887" data-name="Trazado 1887" d="M207.527,70.672s-4.6-9.434.422-16.758a.62.62,0,0,1,.276-.2.839.839,0,0,1,.929.175l9.188,9.188-2.227,6-6.088,2.31Z" transform="translate(-170.548 -42.798)" fill="#ffc265"/>
      <path id="Trazado_1888" data-name="Trazado 1888" d="M201.416,53.874a.814.814,0,0,0-.35.223c-8.579,9.4-1,20.56-1,20.56h2.92l.161-3.081C201.641,68.286,197.8,60.033,201.416,53.874Z" transform="translate(-163.664 -42.98)" fill="#ffb541"/>
      <path id="Trazado_1889" data-name="Trazado 1889" d="M61.151,294.081c-3.543-3.209-9.981-2.64-10.6-2.577-.032,0-.162,5.5,3.563,8.872s9.833-.394,9.833-.394A9.574,9.574,0,0,0,61.151,294.081Z" transform="translate(-46.838 -232.498)" fill="#aee295"/>
      <path id="Trazado_1890" data-name="Trazado 1890" d="M121,294.081c3.543-3.209,9.981-2.64,10.6-2.577.032,0,.162,5.5-3.563,8.872s-9.833-.394-9.833-.394A9.573,9.573,0,0,1,121,294.081Z" transform="translate(-100.827 -232.498)" fill="#aee295"/>
      <path id="Trazado_1891" data-name="Trazado 1891" d="M77.145,291.818l-.049-.005a9.566,9.566,0,0,1-2.791,5.9c-3.552,3.217-10.155,2.577-10.745,2.577s-7.193.64-10.745-2.577a9.565,9.565,0,0,1-2.791-5.9l-.049.005s-.886,6.274,2.839,9.648c2.657,2.406,6.939,2.688,9.179,2.652v9.371a1.565,1.565,0,0,0,3.131,0v-9.371c2.24.036,6.523-.246,9.18-2.652C78.032,298.092,77.145,291.818,77.145,291.818Z" transform="translate(-46.316 -232.807)" fill="#98db7c"/>
      <path id="Trazado_1892" data-name="Trazado 1892" d="M73.257,433.738l2.81,1.937-2.344,10.613a4.175,4.175,0,0,1-4.077,3.274H54.34a4.175,4.175,0,0,1-4.077-3.275l-2.344-10.613,2.81-1.937H73.257Z" transform="translate(-44.749 -346.034)" fill="#dd8858"/>
      <path id="Trazado_1893" data-name="Trazado 1893" d="M73.625,414.519H43.817v2.066h0l.83,3.757H72.795l.83-3.757h0Z" transform="translate(-41.476 -330.701)" fill="#d97f4a"/>
      <path id="Trazado_1894" data-name="Trazado 1894" d="M64.974,394.364H34a1.756,1.756,0,0,1-1.756-1.756v-.889A1.756,1.756,0,0,1,34,389.963H64.974a1.756,1.756,0,0,1,1.756,1.756v.889A1.756,1.756,0,0,1,64.974,394.364Z" transform="translate(-32.241 -311.11)" fill="#ffc265"/>
      <path id="Trazado_1895" data-name="Trazado 1895" d="M64.974,400.473H34a1.756,1.756,0,0,1-1.756-1.756v3.506A1.756,1.756,0,0,0,34,403.979H64.974a1.756,1.756,0,0,0,1.756-1.756v-3.506A1.756,1.756,0,0,1,64.974,400.473Z" transform="translate(-32.241 -318.094)" fill="#ffb541"/>
      <path id="Trazado_1896" data-name="Trazado 1896" d="M163.8,207.606l-27.7-6.309-1.6-2.1-2.066-2.085,2.506-2.671,19.55-2.5,8.152,5.171,3.676,9.09Z" transform="translate(-112.18 -153.128)" fill="#71aa52"/>
      <path id="Trazado_1897" data-name="Trazado 1897" d="M106.884,193.875l1.062-2.718.44-4.755s-1.167-3.631-6.94-4.525a1.047,1.047,0,0,0-1.206.929l-1.092,11.176.838,2.3Z" transform="translate(-85.619 -145.091)" fill="#ffc265"/>
      <path id="Trazado_1898" data-name="Trazado 1898" d="M98.137,230.646l-.252,2.575a1.045,1.045,0,0,0,.948,1.141c1.871.169,5.784.086,7.788-3.155l1.914-1.284-1.6-2.1C104.263,231.713,98.763,230.768,98.137,230.646Z" transform="translate(-84.608 -181.754)" fill="#ffb541"/>
      <path id="Trazado_1899" data-name="Trazado 1899" d="M141.106,231.207l36.223,8.549.226-3.147-4.316-1.784-31.819-7Z" transform="translate(-119.093 -181.754)" fill="#68994b"/>
      <path id="Trazado_1900" data-name="Trazado 1900" d="M276.593,61.979,258.431,80.141l-1.458,1.48a6.372,6.372,0,0,1-9.409-.438L227.449,56.838l-.01-3.716,22.39-22.39,26.326,21.837A6.371,6.371,0,0,1,276.593,61.979Z" transform="translate(-187.969 -24.518)" fill="#aee295"/>
      <path id="Trazado_1901" data-name="Trazado 1901" d="M237.165,167.825,215.327,141.5l-3.079,3.064,21.837,26.326a6.372,6.372,0,0,0,9.409.438l2.817-2.817a6.372,6.372,0,0,1-9.147-.685Z" transform="translate(-175.85 -112.887)" fill="#98db7c"/>
    </g>
  </g>
</svg>
