<svg xmlns="http://www.w3.org/2000/svg" width="90.13" height="90.337" viewBox="0 0 90.13 90.337">
  <g id="icon_ingresa" transform="translate(-1.236 -1.002)">
    <path id="Trazado_1872" data-name="Trazado 1872" d="M48.206,57.018H33.841a3.115,3.115,0,0,1-2.724-1.6l-4.325-7.788A3.115,3.115,0,0,1,29.515,43H49.93a3.115,3.115,0,0,1,3.04,3.791l-1.73,7.788A3.115,3.115,0,0,1,48.206,57.018Z" transform="translate(14.189 23.416)" fill="#80624b"/>
    <path id="Trazado_1873" data-name="Trazado 1873" d="M86.457,40.058a3.374,3.374,0,0,0-4.579-1.308l-3.551,2.009-13.5,7.632a3.455,3.455,0,0,0,.249-1.277A3.377,3.377,0,0,0,62.237,43.8l-3.956-.639L27.473,38.174a13.968,13.968,0,0,0-6.931.639L12.1,42.457,9,52.02l3.115,9.922a4.648,4.648,0,0,1,2.944-.078l31.7,8.582A6.23,6.23,0,0,0,52.378,69.4L85.6,44.342a3.386,3.386,0,0,0,.857-4.283ZM50.789,56.319a3.132,3.132,0,0,1-3.053-.016L38.36,50.478H61.131Z" transform="translate(4.488 20.626)" fill="#eebd91"/>
    <path id="Trazado_1874" data-name="Trazado 1874" d="M35.219,4.41C26.956-.558,12.627,1.13,7.432,1.965A1.713,1.713,0,0,0,6.093,4.206C7.806,9.2,13.055,22.69,21.319,27.666c10.227,6.16,21.628,5.947,25.468-.467S45.446,10.57,35.219,4.41Z" transform="translate(2.816 0)" fill="#90cf4a"/>
    <path id="Trazado_1875" data-name="Trazado 1875" d="M48.5,16.56c6.123-3.738,16.736-2.461,20.585-1.835a1.282,1.282,0,0,1,.992,1.681c-1.268,3.746-5.159,13.862-11.28,17.6-7.57,4.615-16.016,4.448-18.864-.361s1-12.465,8.567-17.085Z" transform="translate(21.213 7.247)" fill="#90cf4a"/>
    <rect id="Rectángulo_580" data-name="Rectángulo 580" width="14.987" height="28.211" rx="2" transform="translate(1.236 58.512)" fill="#346d92"/>
    <path id="Trazado_1876" data-name="Trazado 1876" d="M8.673,44.115H5.558a1.558,1.558,0,1,1,0-3.115H8.673a1.558,1.558,0,1,1,0,3.115Z" transform="translate(1.701 22.301)" fill="#295474"/>
    <path id="Trazado_1877" data-name="Trazado 1877" d="M8.673,54.115H5.558a1.558,1.558,0,1,1,0-3.115H8.673a1.558,1.558,0,1,1,0,3.115Z" transform="translate(1.701 27.877)" fill="#295474"/>
    <path id="Trazado_1878" data-name="Trazado 1878" d="M57.251,44.016a3.2,3.2,0,0,1-.234,1.028,3.344,3.344,0,0,1-.732,1.106,3.389,3.389,0,0,1-2.305.981h-.654l-28.768-.016a1.558,1.558,0,1,1,0-3.115Z" transform="translate(12.294 23.974)" fill="#e2ac7f"/>
    <g id="Grupo_1141" data-name="Grupo 1141" transform="translate(17.623 5.864)">
      <path id="Trazado_1879" data-name="Trazado 1879" d="M17.739,19.055a12.031,12.031,0,0,1-2.439-.224,1.558,1.558,0,1,1,.673-3.042,10.149,10.149,0,0,0,7.511-1.656,10.1,10.1,0,0,0-2.078-7.439A1.559,1.559,0,0,1,23.777,4.67a13.135,13.135,0,0,1,2.648,10.649,1.558,1.558,0,0,1-.5.844,12.446,12.446,0,0,1-8.18,2.892Z" transform="translate(-10.303 -4.123)" fill="#7dbd29"/>
      <path id="Trazado_1880" data-name="Trazado 1880" d="M24.27,20.953a9.533,9.533,0,0,1-1.9-.174,1.557,1.557,0,1,1,.67-3.042,7.278,7.278,0,0,0,5.188-1.079,7.336,7.336,0,0,0-1.5-5.115A1.558,1.558,0,0,1,29.1,9.525a10.269,10.269,0,0,1,2.073,8.325,1.558,1.558,0,0,1-.5.843,9.725,9.725,0,0,1-6.4,2.26Z" transform="translate(-6.364 -1.418)" fill="#7dbd29"/>
      <path id="Trazado_1881" data-name="Trazado 1881" d="M52.3,26.094a6.564,6.564,0,0,1-4.352-1.558,1.558,1.558,0,0,1-.5-.841A7.082,7.082,0,0,1,48.853,18a1.56,1.56,0,0,1,2.382,2.017,4.12,4.12,0,0,0-.81,2.492,3.813,3.813,0,0,0,2.492.431,1.558,1.558,0,1,1,.687,3.039,6.26,6.26,0,0,1-1.3.112Z" transform="translate(8.236 3.308)" fill="#7dbd29"/>
      <path id="Trazado_1882" data-name="Trazado 1882" d="M47.038,28.424a5.7,5.7,0,0,1-3.746-1.339,1.567,1.567,0,0,1-.5-.843,5.948,5.948,0,0,1,1.2-4.874,1.558,1.558,0,0,1,2.383,2.008,3.086,3.086,0,0,0-.59,1.66,2.877,2.877,0,0,0,1.665.238,1.558,1.558,0,1,1,.688,3.039A5.206,5.206,0,0,1,47.038,28.424Z" transform="translate(5.645 5.183)" fill="#7dbd29"/>
      <path id="Trazado_1883" data-name="Trazado 1883" d="M78.513,26.23,55.991,39.968c-.343.187-6.417,3.536-6.417,13.286v7.1l-3.115-.5V36.12c0-8.006-3.427-9.75-3.458-9.766a1.826,1.826,0,0,0-.171-.078L12.41,7.96a1.565,1.565,0,1,1,1.62-2.679l30.341,18.27c.935.452,5.2,3.037,5.2,12.569v5.872a14.685,14.685,0,0,1,4.891-4.751L76.893,23.567a1.559,1.559,0,1,1,1.62,2.663Z" transform="translate(-11.655 -3.604)" fill="#7dbd29"/>
    </g>
  </g>
</svg>
