<svg xmlns="http://www.w3.org/2000/svg" width="89.754" height="89.755" viewBox="0 0 89.754 89.755">
  <g id="icon_recibe" transform="translate(-3 -3)">
    <g id="Grupo_1171" data-name="Grupo 1171" transform="translate(3 3)">
      <g id="Grupo_1148" data-name="Grupo 1148">
        <path id="Trazado_1902" data-name="Trazado 1902" d="M27.475,38.642V34H12l2.994,8.982a7.233,7.233,0,0,0,6.862,4.946,5.869,5.869,0,0,1,4.09,1.761A15.383,15.383,0,0,0,36.76,54.117v-6.19A9.284,9.284,0,0,1,27.475,38.642Z" transform="translate(1.927 13.972)" fill="#edb88e"/>
        <path id="Trazado_1903" data-name="Trazado 1903" d="M36.76,47.927v6.19a15.258,15.258,0,0,1-4.642-.712V51.394A1.909,1.909,0,0,0,30.2,49.475a1.907,1.907,0,0,1-1.7-1.052,4.967,4.967,0,0,0-3.234-2.6,16.468,16.468,0,0,0-7.954,0l-.356.093c-.031,0-.046.015-.077.031a7.2,7.2,0,0,1-1.888-2.971L12,34H27.475v4.642a9.292,9.292,0,0,0,9.285,9.285Z" transform="translate(1.927 13.972)" fill="#da9367"/>
        <path id="Trazado_1904" data-name="Trazado 1904" d="M48.927,34l-3.42,2.775a3.561,3.561,0,0,0-1.317,2.857,3.56,3.56,0,0,1-3.559,3.654H35v6.19h5.351a8.867,8.867,0,0,0,7.932-4.9,8.853,8.853,0,0,1,1.662-2.306l3.624-3.624Z" transform="translate(14.52 13.972)" fill="#edb88e"/>
        <path id="Trazado_1905" data-name="Trazado 1905" d="M53.57,38.642l-3.621,3.621a9.056,9.056,0,0,0-1.671,2.306,8.158,8.158,0,0,1-.82,1.315l-3.172-1.052a5.284,5.284,0,0,1-3.729,1.547.71.71,0,0,0-.712.712.635.635,0,0,0,.015.17l.557,2.213H35v-6.19h5.633a3.573,3.573,0,0,0,3.559-3.575v-.077a3.6,3.6,0,0,1,1.315-2.863L48.927,34Z" transform="translate(14.52 13.972)" fill="#da9367"/>
        <path id="Trazado_1906" data-name="Trazado 1906" d="M48.5,62.007V30H33.022V60.3A11.116,11.116,0,0,1,24.96,70.99a11.1,11.1,0,0,0-4.807,2.829L16,77.972H27.814a14.869,14.869,0,0,0,9.279-3.251,6.366,6.366,0,0,1,3.972-1.391A5.215,5.215,0,0,1,45.4,75.651a5.215,5.215,0,0,0,4.338,2.321h9.59L54.2,73.865a15.184,15.184,0,0,1-5.7-11.858Z" transform="translate(4.117 11.782)" fill="#f9dbaf"/>
        <path id="Trazado_1907" data-name="Trazado 1907" d="M48.268,71.324a6.033,6.033,0,0,0-4.209-3.216A6.029,6.029,0,0,1,39.212,62.2V43.927a12.367,12.367,0,0,0,9.285-4.22V30H33.022V60.3A11.116,11.116,0,0,1,24.96,70.99a11.1,11.1,0,0,0-4.807,2.829L16,77.972H27.814a14.869,14.869,0,0,0,9.279-3.251,6.366,6.366,0,0,1,3.972-1.391A5.215,5.215,0,0,1,45.4,75.651a5.215,5.215,0,0,0,4.338,2.321h9.59l-5.517-1.838a9.593,9.593,0,0,1-5.545-4.81Z" transform="translate(4.117 11.782)" fill="#edb88e"/>
        <path id="Trazado_1908" data-name="Trazado 1908" d="M29.548,63.117a1.547,1.547,0,0,1-1.094-2.642,10.7,10.7,0,0,0,2.932-9.683,14.152,14.152,0,0,1-.291-2.818V44.547a1.547,1.547,0,1,1,3.095,0v3.428a10.648,10.648,0,0,0,.209,2.1,13.835,13.835,0,0,1-3.757,12.587,1.543,1.543,0,0,1-1.094.453Z" transform="translate(10.687 18.9)" fill="#da9367"/>
        <path id="Trazado_1909" data-name="Trazado 1909" d="M33.547,44.285A1.546,1.546,0,0,1,32,42.737v-6.19a1.547,1.547,0,0,1,3.095,0v6.19A1.546,1.546,0,0,1,33.547,44.285Z" transform="translate(12.877 14.52)" fill="#da9367"/>
        <path id="Trazado_1910" data-name="Trazado 1910" d="M92.754,43.235a9.286,9.286,0,0,0-7.346-9.079A10.787,10.787,0,0,0,73.983,18.628a7.694,7.694,0,0,0-11.51-8.307,7.63,7.63,0,0,0-8.319-4.079A7.7,7.7,0,0,0,40.89,7.465a8.491,8.491,0,0,0-12.312,3.517A10.81,10.81,0,0,0,21.168,26.4a10.83,10.83,0,0,0-8.7,8.692,9.283,9.283,0,0,0-4.828,8.146c0,.215.017.426.032.636A7.735,7.735,0,0,0,10.737,58.71a7.654,7.654,0,0,0,3.629-.942A7.653,7.653,0,0,0,25.9,57.5,10.807,10.807,0,0,0,41.064,51.47a7.69,7.69,0,0,0,14.285-1.684,10.771,10.771,0,0,0,4.909,1.185c.227,0,.449-.02.672-.034a7.717,7.717,0,0,0,13.253,7.733,7.658,7.658,0,0,0,4.646,1.586,7.738,7.738,0,0,0,7.737-7.737c0-.178-.04-.345-.053-.52A9.281,9.281,0,0,0,92.754,43.235Z" transform="translate(-3 -3)" fill="#52b788"/>
        <g id="Grupo_1147" data-name="Grupo 1147" transform="translate(0.001 8.2)">
          <path id="Trazado_1911" data-name="Trazado 1911" d="M92.579,42.053a7.69,7.69,0,0,1-6.014,2.923,7.52,7.52,0,0,1-.862-.05,13.153,13.153,0,0,0-6.88.944,7.668,7.668,0,0,1-4.3.559,7.786,7.786,0,0,1-6.3-5.8,7.649,7.649,0,0,1,.447-4.977c-.223.014-.444.034-.672.034h-.063a9.62,9.62,0,0,0-6.923,2.43A7.672,7.672,0,0,1,53.081,39.9a7.785,7.785,0,0,0-7.614,1.058A10.686,10.686,0,0,1,35.24,42.875a7.553,7.553,0,0,1-5.625.022A7.763,7.763,0,0,1,24.9,37.578a7.651,7.651,0,0,1,.054-3.946,6.74,6.74,0,0,0-.011-3.87,6.064,6.064,0,0,1-.275-1.807A6.166,6.166,0,0,1,28,22.493a5.363,5.363,0,0,1-.238-1.5,5.3,5.3,0,0,1,.037-.63A7.876,7.876,0,0,0,27,15.506,6.142,6.142,0,0,1,27.865,8.3a10.769,10.769,0,0,0-6.7,15.2,10.83,10.83,0,0,0-8.7,8.692,9.283,9.283,0,0,0-4.828,8.146c0,.215.017.426.032.636a7.723,7.723,0,0,0,.794,14.484,7.473,7.473,0,0,0,5.9-.588A7.651,7.651,0,0,0,25.9,54.6a10.807,10.807,0,0,0,15.167-6.031,7.69,7.69,0,0,0,14.285-1.684,10.771,10.771,0,0,0,4.909,1.185c.227,0,.449-.02.672-.034a7.649,7.649,0,0,0-.447,4.977,7.786,7.786,0,0,0,6.3,5.8,7.7,7.7,0,0,0,7.4-3.039,7.658,7.658,0,0,0,4.646,1.586,7.738,7.738,0,0,0,7.737-7.737c0-.178-.04-.345-.053-.52a9.288,9.288,0,0,0,6.068-7.046Z" transform="translate(-3 -8.299)" fill="#40916c"/>
          <path id="Trazado_1912" data-name="Trazado 1912" d="M51.047,29a4.4,4.4,0,0,0-1.857.421A4.4,4.4,0,0,0,47.333,29,4.275,4.275,0,0,0,43,33.212c0,2.327,1.941,6.62,4.333,6.62a4.4,4.4,0,0,0,1.857-.421,4.4,4.4,0,0,0,1.857.421c2.392,0,4.333-4.293,4.333-6.62A4.275,4.275,0,0,0,51.047,29Z" transform="translate(18.899 3.035)" fill="#40916c"/>
          <path id="Trazado_1913" data-name="Trazado 1913" d="M43.541,17a3.915,3.915,0,0,0-1.625.361A3.915,3.915,0,0,0,40.291,17,3.7,3.7,0,0,0,36.5,20.61c0,1.995,1.7,5.675,3.791,5.675a3.915,3.915,0,0,0,1.625-.361,3.915,3.915,0,0,0,1.625.361c2.094,0,3.791-3.68,3.791-5.675A3.7,3.7,0,0,0,43.541,17Z" transform="translate(15.34 -3.535)" fill="#40916c"/>
          <path id="Trazado_1914" data-name="Trazado 1914" d="M34.541,27a3.915,3.915,0,0,0-1.625.361A3.915,3.915,0,0,0,31.291,27,3.7,3.7,0,0,0,27.5,30.61c0,1.995,1.7,5.675,3.791,5.675a3.915,3.915,0,0,0,1.625-.361,3.915,3.915,0,0,0,1.625.361c2.094,0,3.791-3.68,3.791-5.675A3.7,3.7,0,0,0,34.541,27Z" transform="translate(10.413 1.94)" fill="#40916c"/>
          <path id="Trazado_1915" data-name="Trazado 1915" d="M26.047,16a4.4,4.4,0,0,0-1.857.421A4.4,4.4,0,0,0,22.333,16,4.275,4.275,0,0,0,18,20.212c0,2.327,1.941,6.62,4.333,6.62a4.4,4.4,0,0,0,1.857-.421,4.4,4.4,0,0,0,1.857.421c2.392,0,4.333-4.293,4.333-6.62A4.275,4.275,0,0,0,26.047,16Z" transform="translate(5.212 -4.083)" fill="#40916c"/>
        </g>
      </g>
      <g id="Grupo_1170" data-name="Grupo 1170" transform="translate(3.095 11.335)">
        <g id="Grupo_1151" data-name="Grupo 1151" transform="translate(68.09 60.352)">
          <g id="Grupo_1149" data-name="Grupo 1149" transform="translate(6.19)">
            <path id="Trazado_1916" data-name="Trazado 1916" d="M54.891,56.272l-1.521.288-.288-1.521a4.642,4.642,0,0,1,3.7-5.425l1.521-.288.288,1.521A4.642,4.642,0,0,1,54.891,56.272Z" transform="translate(-53 -49.325)" fill="#bbefc1"/>
            <path id="Trazado_1917" data-name="Trazado 1917" d="M58.567,50.431l-.067-.348c-.5,2.047-3.066,3.825-5.179,4.226l-.283.054c.011.088.006.173.023.262l.288,1.52,1.521-.288a4.644,4.644,0,0,0,3.7-5.425Z" transform="translate(-52.979 -48.91)" fill="#95d5b2"/>
          </g>
          <path id="Trazado_1918" data-name="Trazado 1918" d="M55.19,58.737a1.546,1.546,0,0,1-1.547-1.548,3.1,3.1,0,0,0-3.095-3.095,1.547,1.547,0,1,1,0-3.095,6.2,6.2,0,0,1,6.19,6.19A1.546,1.546,0,0,1,55.19,58.737Z" transform="translate(-49 -48.408)" fill="#95d5b2"/>
          <g id="Grupo_1150" data-name="Grupo 1150" transform="translate(0 7.235)">
            <path id="Trazado_1919" data-name="Trazado 1919" d="M57.047,54a4.4,4.4,0,0,0-1.857.421A4.4,4.4,0,0,0,53.333,54,4.275,4.275,0,0,0,49,58.212c0,2.327,1.941,6.62,4.333,6.62a4.4,4.4,0,0,0,1.857-.421,4.4,4.4,0,0,0,1.857.421c2.392,0,4.333-4.293,4.333-6.62A4.275,4.275,0,0,0,57.047,54Z" transform="translate(-49 -54)" fill="#ff7373"/>
            <path id="Trazado_1920" data-name="Trazado 1920" d="M60.872,60.584c-.73,2.046-2.166,4.1-3.825,4.1a4.368,4.368,0,0,1-1.857-.421,4.368,4.368,0,0,1-1.857.421c-2.389,0-4.333-4.3-4.333-6.62a4.191,4.191,0,0,1,2.488-3.8,1.016,1.016,0,0,0-.012.193,6.713,6.713,0,0,0,6.809,6.62,7.063,7.063,0,0,0,2.587-.494Z" transform="translate(-49 -53.855)" fill="#ef5350"/>
          </g>
        </g>
        <g id="Grupo_1154" data-name="Grupo 1154" transform="translate(61.9 20.117)">
          <g id="Grupo_1152" data-name="Grupo 1152" transform="translate(6.19)">
            <path id="Trazado_1921" data-name="Trazado 1921" d="M50.891,30.272l-1.521.288-.288-1.521a4.642,4.642,0,0,1,3.7-5.425l1.521-.288.288,1.521A4.642,4.642,0,0,1,50.891,30.272Z" transform="translate(-49 -23.325)" fill="#bbefc1"/>
            <path id="Trazado_1922" data-name="Trazado 1922" d="M54.567,24.431l-.067-.348c-.5,2.047-3.066,3.825-5.179,4.226l-.283.054c.011.088.006.173.023.262l.288,1.52,1.521-.288a4.644,4.644,0,0,0,3.7-5.425Z" transform="translate(-48.979 -22.91)" fill="#95d5b2"/>
          </g>
          <path id="Trazado_1923" data-name="Trazado 1923" d="M51.19,32.737a1.546,1.546,0,0,1-1.547-1.547,3.1,3.1,0,0,0-3.095-3.095,1.547,1.547,0,0,1,0-3.095,6.2,6.2,0,0,1,6.19,6.19A1.546,1.546,0,0,1,51.19,32.737Z" transform="translate(-45 -22.408)" fill="#95d5b2"/>
          <g id="Grupo_1153" data-name="Grupo 1153" transform="translate(0 7.235)">
            <path id="Trazado_1924" data-name="Trazado 1924" d="M53.047,28a4.4,4.4,0,0,0-1.857.421A4.4,4.4,0,0,0,49.333,28,4.275,4.275,0,0,0,45,32.212c0,2.327,1.941,6.62,4.333,6.62a4.4,4.4,0,0,0,1.857-.421,4.4,4.4,0,0,0,1.857.421c2.392,0,4.333-4.293,4.333-6.62A4.275,4.275,0,0,0,53.047,28Z" transform="translate(-45 -28)" fill="#ff7373"/>
            <path id="Trazado_1925" data-name="Trazado 1925" d="M56.872,34.584c-.73,2.046-2.166,4.1-3.825,4.1a4.368,4.368,0,0,1-1.857-.421,4.368,4.368,0,0,1-1.857.421c-2.389,0-4.333-4.3-4.333-6.62a4.191,4.191,0,0,1,2.488-3.8,1.016,1.016,0,0,0-.012.193,6.713,6.713,0,0,0,6.809,6.62,7.063,7.063,0,0,0,2.587-.494Z" transform="translate(-45 -27.855)" fill="#ef5350"/>
          </g>
        </g>
        <g id="Grupo_1157" data-name="Grupo 1157" transform="translate(21.665)">
          <g id="Grupo_1155" data-name="Grupo 1155" transform="translate(6.19)">
            <path id="Trazado_1926" data-name="Trazado 1926" d="M24.891,17.272l-1.521.288-.288-1.521a4.642,4.642,0,0,1,3.7-5.425l1.521-.288.288,1.521A4.642,4.642,0,0,1,24.891,17.272Z" transform="translate(-23 -10.325)" fill="#bbefc1"/>
            <path id="Trazado_1927" data-name="Trazado 1927" d="M28.567,11.431l-.067-.348c-.5,2.047-3.066,3.825-5.179,4.226l-.283.054c.011.088.006.173.023.262l.288,1.52,1.521-.288a4.644,4.644,0,0,0,3.7-5.425Z" transform="translate(-22.979 -9.91)" fill="#95d5b2"/>
          </g>
          <path id="Trazado_1928" data-name="Trazado 1928" d="M25.19,19.737a1.546,1.546,0,0,1-1.547-1.547,3.1,3.1,0,0,0-3.095-3.095,1.547,1.547,0,0,1,0-3.095,6.2,6.2,0,0,1,6.19,6.19A1.546,1.546,0,0,1,25.19,19.737Z" transform="translate(-19 -9.408)" fill="#95d5b2"/>
          <g id="Grupo_1156" data-name="Grupo 1156" transform="translate(0 7.235)">
            <path id="Trazado_1929" data-name="Trazado 1929" d="M27.047,15a4.4,4.4,0,0,0-1.857.421A4.4,4.4,0,0,0,23.333,15,4.275,4.275,0,0,0,19,19.212c0,2.327,1.941,6.62,4.333,6.62a4.4,4.4,0,0,0,1.857-.421,4.4,4.4,0,0,0,1.857.421c2.392,0,4.333-4.293,4.333-6.62A4.275,4.275,0,0,0,27.047,15Z" transform="translate(-19 -15)" fill="#ff7373"/>
            <path id="Trazado_1930" data-name="Trazado 1930" d="M30.872,21.584c-.73,2.046-2.166,4.1-3.825,4.1a4.368,4.368,0,0,1-1.857-.421,4.368,4.368,0,0,1-1.857.421c-2.389,0-4.333-4.3-4.333-6.62a4.191,4.191,0,0,1,2.488-3.8,1.016,1.016,0,0,0-.012.193,6.713,6.713,0,0,0,6.809,6.62A7.063,7.063,0,0,0,30.872,21.584Z" transform="translate(-19 -14.855)" fill="#ef5350"/>
          </g>
        </g>
        <g id="Grupo_1160" data-name="Grupo 1160" transform="translate(0 61.9)">
          <g id="Grupo_1158" data-name="Grupo 1158" transform="translate(6.19)">
            <path id="Trazado_1931" data-name="Trazado 1931" d="M10.891,57.272,9.37,57.56l-.288-1.521a4.642,4.642,0,0,1,3.7-5.425l1.521-.288.288,1.521A4.642,4.642,0,0,1,10.891,57.272Z" transform="translate(-9 -50.325)" fill="#bbefc1"/>
            <path id="Trazado_1932" data-name="Trazado 1932" d="M14.567,51.431l-.067-.348c-.5,2.047-3.066,3.825-5.179,4.226l-.283.054c.011.088.006.173.023.262l.288,1.52,1.521-.288a4.644,4.644,0,0,0,3.7-5.425Z" transform="translate(-8.979 -49.91)" fill="#95d5b2"/>
          </g>
          <path id="Trazado_1933" data-name="Trazado 1933" d="M11.19,59.737A1.546,1.546,0,0,1,9.642,58.19a3.1,3.1,0,0,0-3.095-3.095,1.547,1.547,0,1,1,0-3.095,6.2,6.2,0,0,1,6.19,6.19A1.546,1.546,0,0,1,11.19,59.737Z" transform="translate(-5 -49.408)" fill="#95d5b2"/>
          <g id="Grupo_1159" data-name="Grupo 1159" transform="translate(0.774 7.235)">
            <path id="Trazado_1934" data-name="Trazado 1934" d="M12.541,55a3.915,3.915,0,0,0-1.625.361A3.915,3.915,0,0,0,9.291,55,3.7,3.7,0,0,0,5.5,58.61c0,1.995,1.7,5.675,3.791,5.675a3.915,3.915,0,0,0,1.625-.361,3.915,3.915,0,0,0,1.625.361c2.094,0,3.791-3.68,3.791-5.675A3.7,3.7,0,0,0,12.541,55Z" transform="translate(-5.5 -55)" fill="#ff7373"/>
            <path id="Trazado_1935" data-name="Trazado 1935" d="M15.888,60.644c-.639,1.753-1.9,3.517-3.347,3.517a3.9,3.9,0,0,1-1.625-.361,3.9,3.9,0,0,1-1.625.361C7.2,64.161,5.5,60.478,5.5,58.487a3.592,3.592,0,0,1,2.177-3.261.859.859,0,0,0-.011.166,5.818,5.818,0,0,0,5.958,5.675A6.3,6.3,0,0,0,15.888,60.644Z" transform="translate(-5.5 -54.876)" fill="#ef5350"/>
          </g>
        </g>
        <g id="Grupo_1163" data-name="Grupo 1163" transform="translate(7.737 21.665)">
          <g id="Grupo_1161" data-name="Grupo 1161" transform="translate(6.19)">
            <path id="Trazado_1936" data-name="Trazado 1936" d="M15.891,31.272l-1.521.288-.288-1.521a4.642,4.642,0,0,1,3.7-5.425l1.521-.288.288,1.521a4.642,4.642,0,0,1-3.7,5.425Z" transform="translate(-14 -24.325)" fill="#bbefc1"/>
            <path id="Trazado_1937" data-name="Trazado 1937" d="M19.567,25.431l-.067-.348c-.5,2.047-3.066,3.825-5.179,4.226l-.283.054c.011.088.006.173.023.262l.288,1.52,1.521-.288a4.644,4.644,0,0,0,3.7-5.425Z" transform="translate(-13.979 -23.91)" fill="#95d5b2"/>
          </g>
          <path id="Trazado_1938" data-name="Trazado 1938" d="M16.19,33.737a1.546,1.546,0,0,1-1.547-1.547,3.1,3.1,0,0,0-3.095-3.095,1.547,1.547,0,0,1,0-3.095,6.2,6.2,0,0,1,6.19,6.19A1.546,1.546,0,0,1,16.19,33.737Z" transform="translate(-10 -23.408)" fill="#95d5b2"/>
          <g id="Grupo_1162" data-name="Grupo 1162" transform="translate(0.774 7.235)">
            <path id="Trazado_1939" data-name="Trazado 1939" d="M17.541,29a3.915,3.915,0,0,0-1.625.361A3.915,3.915,0,0,0,14.291,29,3.7,3.7,0,0,0,10.5,32.61c0,1.993,1.7,5.675,3.791,5.675a3.915,3.915,0,0,0,1.625-.361,3.915,3.915,0,0,0,1.625.361c2.094,0,3.791-3.68,3.791-5.675A3.7,3.7,0,0,0,17.541,29Z" transform="translate(-10.5 -29)" fill="#ff7373"/>
            <path id="Trazado_1940" data-name="Trazado 1940" d="M20.888,34.644c-.639,1.753-1.9,3.517-3.347,3.517a3.9,3.9,0,0,1-1.625-.361,3.9,3.9,0,0,1-1.625.361c-2.091,0-3.791-3.683-3.791-5.675a3.592,3.592,0,0,1,2.177-3.261.859.859,0,0,0-.011.166,5.818,5.818,0,0,0,5.958,5.675A6.3,6.3,0,0,0,20.888,34.644Z" transform="translate(-10.5 -28.876)" fill="#ef5350"/>
          </g>
        </g>
        <g id="Grupo_1166" data-name="Grupo 1166" transform="translate(35.592 17.022)">
          <g id="Grupo_1164" data-name="Grupo 1164" transform="translate(6.19)">
            <path id="Trazado_1941" data-name="Trazado 1941" d="M33.891,28.272l-1.521.288-.288-1.521a4.642,4.642,0,0,1,3.7-5.425l1.521-.288.288,1.521A4.642,4.642,0,0,1,33.891,28.272Z" transform="translate(-32 -21.325)" fill="#bbefc1"/>
            <path id="Trazado_1942" data-name="Trazado 1942" d="M37.567,22.431l-.067-.348c-.5,2.047-3.066,3.825-5.179,4.226l-.283.054c.011.088.006.173.023.262l.288,1.52,1.521-.288a4.644,4.644,0,0,0,3.7-5.425Z" transform="translate(-31.979 -20.91)" fill="#95d5b2"/>
          </g>
          <path id="Trazado_1943" data-name="Trazado 1943" d="M34.19,30.737a1.546,1.546,0,0,1-1.547-1.547,3.1,3.1,0,0,0-3.095-3.095,1.547,1.547,0,1,1,0-3.095,6.2,6.2,0,0,1,6.19,6.19A1.546,1.546,0,0,1,34.19,30.737Z" transform="translate(-28 -20.408)" fill="#95d5b2"/>
          <g id="Grupo_1165" data-name="Grupo 1165" transform="translate(0.774 7.235)">
            <path id="Trazado_1944" data-name="Trazado 1944" d="M35.541,26a3.915,3.915,0,0,0-1.625.361A3.915,3.915,0,0,0,32.291,26,3.7,3.7,0,0,0,28.5,29.61c0,1.995,1.7,5.675,3.791,5.675a3.915,3.915,0,0,0,1.625-.361,3.915,3.915,0,0,0,1.625.361c2.094,0,3.791-3.68,3.791-5.675A3.7,3.7,0,0,0,35.541,26Z" transform="translate(-28.5 -26)" fill="#ff7373"/>
            <path id="Trazado_1945" data-name="Trazado 1945" d="M38.888,31.644c-.639,1.753-1.9,3.517-3.347,3.517a3.9,3.9,0,0,1-1.625-.361,3.9,3.9,0,0,1-1.625.361c-2.091,0-3.791-3.683-3.791-5.675a3.592,3.592,0,0,1,2.177-3.261.859.859,0,0,0-.011.166,5.818,5.818,0,0,0,5.958,5.675,6.3,6.3,0,0,0,2.264-.422Z" transform="translate(-28.5 -25.876)" fill="#ef5350"/>
          </g>
        </g>
        <g id="Grupo_1169" data-name="Grupo 1169" transform="translate(49.52 1.547)">
          <g id="Grupo_1167" data-name="Grupo 1167" transform="translate(6.19)">
            <path id="Trazado_1946" data-name="Trazado 1946" d="M42.891,18.272l-1.521.288-.288-1.521a4.642,4.642,0,0,1,3.7-5.425l1.521-.288.288,1.521a4.642,4.642,0,0,1-3.7,5.425Z" transform="translate(-41 -11.325)" fill="#bbefc1"/>
            <path id="Trazado_1947" data-name="Trazado 1947" d="M46.567,12.431l-.067-.348c-.5,2.047-3.066,3.825-5.179,4.226l-.283.054c.011.088.006.173.023.262l.288,1.52,1.521-.288a4.644,4.644,0,0,0,3.7-5.425Z" transform="translate(-40.979 -10.91)" fill="#95d5b2"/>
          </g>
          <path id="Trazado_1948" data-name="Trazado 1948" d="M43.19,20.737a1.546,1.546,0,0,1-1.547-1.547,3.1,3.1,0,0,0-3.095-3.095,1.547,1.547,0,0,1,0-3.095,6.2,6.2,0,0,1,6.19,6.19A1.546,1.546,0,0,1,43.19,20.737Z" transform="translate(-37 -10.408)" fill="#95d5b2"/>
          <g id="Grupo_1168" data-name="Grupo 1168" transform="translate(0.774 7.235)">
            <path id="Trazado_1949" data-name="Trazado 1949" d="M44.541,16a3.915,3.915,0,0,0-1.625.361A3.915,3.915,0,0,0,41.291,16,3.7,3.7,0,0,0,37.5,19.61c0,1.995,1.7,5.675,3.791,5.675a3.915,3.915,0,0,0,1.625-.361,3.915,3.915,0,0,0,1.625.361c2.094,0,3.791-3.68,3.791-5.675A3.7,3.7,0,0,0,44.541,16Z" transform="translate(-37.5 -16)" fill="#ff7373"/>
            <path id="Trazado_1950" data-name="Trazado 1950" d="M47.888,21.644c-.639,1.753-1.9,3.517-3.347,3.517a3.9,3.9,0,0,1-1.625-.361,3.9,3.9,0,0,1-1.625.361c-2.091,0-3.791-3.683-3.791-5.675a3.592,3.592,0,0,1,2.177-3.261.859.859,0,0,0-.011.166,5.818,5.818,0,0,0,5.958,5.675,6.3,6.3,0,0,0,2.264-.422Z" transform="translate(-37.5 -15.876)" fill="#ef5350"/>
          </g>
        </g>
      </g>
    </g>
  </g>
</svg>
