<svg id="_002-business-and-trade" data-name="002-business-and-trade" xmlns="http://www.w3.org/2000/svg" width="38.757" height="38.47" viewBox="0 0 38.757 38.47">
  <path id="Trazado_2468" data-name="Trazado 2468" d="M14.938,24.224H1.211A1.212,1.212,0,0,1,0,23.012V1.212A1.211,1.211,0,0,1,1.458.026L15.535,2.975a2.813,2.813,0,0,1,2.229,2.761V21.4A2.829,2.829,0,0,1,14.938,24.224Z" transform="translate(20.993 14.246)" fill="#90a4ae"/>
  <path id="Trazado_2469" data-name="Trazado 2469" d="M1.211,0V24H8.478V1.523Z" transform="translate(22.205 14.474)" fill="#7d8f97"/>
  <path id="Trazado_2470" data-name="Trazado 2470" d="M21.042,2.732,3.294.036A2.862,2.862,0,0,0,1,.665,2.888,2.888,0,0,0,0,2.829V36.855A1.62,1.62,0,0,0,1.615,38.47H6.863V29.992a2.819,2.819,0,0,1,2.826-2.826h4.037a2.819,2.819,0,0,1,2.826,2.826V38.47h6.863V5.526a2.828,2.828,0,0,0-2.374-2.794Z" transform="translate(0 0)" fill="#607d8b"/>
  <path id="Trazado_2471" data-name="Trazado 2471" d="M9.689,2.826V11.3H0V2.826A2.819,2.819,0,0,1,2.826,0H6.863A2.819,2.819,0,0,1,9.689,2.826Z" transform="translate(6.863 27.166)" fill="#eceff1"/>
  <path id="Trazado_2472" data-name="Trazado 2472" d="M2.839,0A2.844,2.844,0,0,0,1,.665,2.888,2.888,0,0,0,0,2.829V36.855A1.62,1.62,0,0,0,1.615,38.47H6.863V29.992a2.819,2.819,0,0,1,2.826-2.826h2.019V1.315L3.294.036A2.884,2.884,0,0,0,2.839,0Z" transform="translate(0 0)" fill="#546d79"/>
  <path id="Trazado_2473" data-name="Trazado 2473" d="M4.845,0H2.826A2.819,2.819,0,0,0,0,2.826V11.3H4.845Z" transform="translate(6.863 27.166)" fill="#cdd0d2"/>
  <g id="Grupo_1605" data-name="Grupo 1605" transform="translate(5.248 6.576)">
    <path id="Trazado_2474" data-name="Trazado 2474" d="M3.633,2.422H1.211A1.211,1.211,0,1,1,1.211,0H3.633a1.211,1.211,0,1,1,0,2.422Z" transform="translate(0 4.845)" fill="#eceff1"/>
    <path id="Trazado_2475" data-name="Trazado 2475" d="M3.633,2.422H1.211A1.211,1.211,0,0,1,1.211,0H3.633a1.211,1.211,0,1,1,0,2.422Z" transform="translate(8.074 4.845)" fill="#eceff1"/>
    <path id="Trazado_2476" data-name="Trazado 2476" d="M3.633,2.422H1.211A1.211,1.211,0,0,1,1.211,0H3.633a1.211,1.211,0,0,1,0,2.422Z" transform="translate(0 9.689)" fill="#eceff1"/>
    <path id="Trazado_2477" data-name="Trazado 2477" d="M3.633,2.422H1.211A1.211,1.211,0,0,1,1.211,0H3.633a1.211,1.211,0,1,1,0,2.422Z" transform="translate(8.074 9.689)" fill="#eceff1"/>
    <path id="Trazado_2478" data-name="Trazado 2478" d="M3.633,2.422H1.211A1.211,1.211,0,0,1,1.211,0H3.633a1.211,1.211,0,0,1,0,2.422Z" transform="translate(0 14.534)" fill="#eceff1"/>
    <path id="Trazado_2479" data-name="Trazado 2479" d="M3.633,2.422H1.211A1.211,1.211,0,0,1,1.211,0H3.633a1.211,1.211,0,0,1,0,2.422Z" transform="translate(8.074 14.534)" fill="#eceff1"/>
    <path id="Trazado_2480" data-name="Trazado 2480" d="M3.633,2.422H1.211A1.211,1.211,0,1,1,1.211,0H3.633a1.211,1.211,0,1,1,0,2.422Z" transform="translate(23.012 19.782)" fill="#eceff1"/>
    <path id="Trazado_2481" data-name="Trazado 2481" d="M3.633,2.422H1.211A1.211,1.211,0,1,1,1.211,0H3.633a1.211,1.211,0,1,1,0,2.422Z" transform="translate(23.012 24.627)" fill="#eceff1"/>
    <path id="Trazado_2482" data-name="Trazado 2482" d="M3.633,2.422H1.211A1.211,1.211,0,0,1,1.211,0H3.633a1.211,1.211,0,0,1,0,2.422Z" fill="#eceff1"/>
    <path id="Trazado_2483" data-name="Trazado 2483" d="M3.633,2.422H1.211A1.211,1.211,0,0,1,1.211,0H3.633a1.211,1.211,0,1,1,0,2.422Z" transform="translate(8.074 0)" fill="#eceff1"/>
    <path id="Trazado_2484" data-name="Trazado 2484" d="M3.633,2.422H1.211A1.211,1.211,0,1,1,1.211,0H3.633a1.211,1.211,0,0,1,0,2.422Z" transform="translate(23.012 14.938)" fill="#eceff1"/>
  </g>
  <path id="Trazado_2485" data-name="Trazado 2485" d="M4.845,0H0A1.212,1.212,0,0,0,1.211,1.211H3.633A1.212,1.212,0,0,0,4.845,0Z" transform="translate(5.248 7.787)" fill="#cdd0d2"/>
  <path id="Trazado_2486" data-name="Trazado 2486" d="M4.845,0H0A1.212,1.212,0,0,0,1.211,1.211H3.633A1.212,1.212,0,0,0,4.845,0Z" transform="translate(13.323 7.787)" fill="#cdd0d2"/>
  <path id="Trazado_2487" data-name="Trazado 2487" d="M4.845,0H0A1.212,1.212,0,0,0,1.211,1.211H3.633A1.212,1.212,0,0,0,4.845,0Z" transform="translate(5.248 12.632)" fill="#cdd0d2"/>
  <path id="Trazado_2488" data-name="Trazado 2488" d="M4.845,0H0A1.212,1.212,0,0,0,1.211,1.211H3.633A1.212,1.212,0,0,0,4.845,0Z" transform="translate(13.323 12.632)" fill="#cdd0d2"/>
  <path id="Trazado_2489" data-name="Trazado 2489" d="M4.845,0H0A1.212,1.212,0,0,0,1.211,1.211H3.633A1.212,1.212,0,0,0,4.845,0Z" transform="translate(5.248 17.476)" fill="#cdd0d2"/>
  <path id="Trazado_2490" data-name="Trazado 2490" d="M4.845,0H0A1.212,1.212,0,0,0,1.211,1.211H3.633A1.212,1.212,0,0,0,4.845,0Z" transform="translate(13.323 17.476)" fill="#cdd0d2"/>
  <path id="Trazado_2491" data-name="Trazado 2491" d="M4.845,0H0A1.212,1.212,0,0,0,1.211,1.211H3.633A1.212,1.212,0,0,0,4.845,0Z" transform="translate(5.248 22.321)" fill="#cdd0d2"/>
  <path id="Trazado_2492" data-name="Trazado 2492" d="M4.845,0H0A1.212,1.212,0,0,0,1.211,1.211H3.633A1.212,1.212,0,0,0,4.845,0Z" transform="translate(13.323 22.321)" fill="#cdd0d2"/>
  <path id="Trazado_2493" data-name="Trazado 2493" d="M4.845,0H0A1.212,1.212,0,0,0,1.211,1.211H3.633A1.212,1.212,0,0,0,4.845,0Z" transform="translate(28.26 22.725)" fill="#cdd0d2"/>
  <path id="Trazado_2494" data-name="Trazado 2494" d="M4.845,0H0A1.212,1.212,0,0,0,1.211,1.211H3.633A1.212,1.212,0,0,0,4.845,0Z" transform="translate(28.26 27.569)" fill="#cdd0d2"/>
  <path id="Trazado_2495" data-name="Trazado 2495" d="M4.845,0H0A1.212,1.212,0,0,0,1.211,1.211H3.633A1.212,1.212,0,0,0,4.845,0Z" transform="translate(28.26 32.414)" fill="#cdd0d2"/>
</svg>
