<svg id="_005-gamer" data-name="005-gamer" xmlns="http://www.w3.org/2000/svg" width="44.59" height="45.232" viewBox="0 0 44.59 45.232">
  <g id="Grupo_1611" data-name="Grupo 1611" transform="translate(0 0)">
    <path id="Trazado_2548" data-name="Trazado 2548" d="M42.053,23.029a.645.645,0,0,1-.112-.009.678.678,0,0,1-.558-.78l.392-2.349a8.62,8.62,0,0,0-8.5-10.034H22.336a8.621,8.621,0,0,0-8.5,10.034l.391,2.347a.678.678,0,1,1-1.338.223L12.5,20.113A9.977,9.977,0,0,1,22.336,8.5H33.271a9.977,9.977,0,0,1,9.841,11.614l-.391,2.348A.678.678,0,0,1,42.053,23.029Z" transform="translate(-10.054 -7.725)" fill="#e8e8ee"/>
    <path id="Trazado_2549" data-name="Trazado 2549" d="M43.279,99.693V94.473a6.715,6.715,0,0,0-4.743-6.419L31.527,85.9H24.252l-7.01,2.154A6.715,6.715,0,0,0,12.5,94.473v5.219Z" transform="translate(-10.14 -55.138)" fill="#3ea7fb"/>
    <path id="Trazado_2550" data-name="Trazado 2550" d="M18.276,100.195a.679.679,0,0,1-.627-.936,5.015,5.015,0,0,1,1.86-2.273.678.678,0,1,1,.754,1.127A3.663,3.663,0,0,0,18.9,99.774.679.679,0,0,1,18.276,100.195Z" transform="translate(-13.263 -61.859)" fill="#0f89cc"/>
    <path id="Trazado_2551" data-name="Trazado 2551" d="M39.222,72.9H49.3v6.586a3.487,3.487,0,0,1-3.487,3.487h-3.1a3.487,3.487,0,0,1-3.487-3.487Z" transform="translate(-26.509 -47.175)" fill="#e38d89"/>
    <path id="Trazado_2552" data-name="Trazado 2552" d="M44.418,31.963a3.356,3.356,0,0,0-2.94-3.329V22.567H20.5v6.067a3.355,3.355,0,0,0,0,6.658v.244a10.491,10.491,0,1,0,20.982,0v-.244A3.356,3.356,0,0,0,44.418,31.963Z" transform="translate(-13.238 -16.342)" fill="#fab29a"/>
    <path id="Trazado_2553" data-name="Trazado 2553" d="M44.976,15.454v4.318c-4.214-.157-14.41-2-16.957-4.64a13.684,13.684,0,0,1-7.981,4.639V15.454A8.954,8.954,0,0,1,28.993,6.5h7.029A8.954,8.954,0,0,1,44.976,15.454Z" transform="translate(-14.757 -6.5)" fill="#537980"/>
    <g id="Grupo_1608" data-name="Grupo 1608" transform="translate(8.327 40.39)">
      <path id="Trazado_2554" data-name="Trazado 2554" d="M28.58,115.593a.678.678,0,0,1-.678-.678v-3.487a.678.678,0,0,1,1.356,0v3.487A.678.678,0,0,1,28.58,115.593Z" transform="translate(-27.902 -110.75)" fill="#0f89cc"/>
      <path id="Trazado_2555" data-name="Trazado 2555" d="M73.72,115.593a.678.678,0,0,1-.678-.678v-3.487a.678.678,0,0,1,1.356,0v3.487A.678.678,0,0,1,73.72,115.593Z" transform="translate(-55.553 -110.75)" fill="#0f89cc"/>
    </g>
    <g id="Grupo_1610" data-name="Grupo 1610" transform="translate(0 11.61)">
      <path id="Trazado_2556" data-name="Trazado 2556" d="M32.545,58.643H23.617a5.333,5.333,0,0,1-5.327-5.327V47.9a.678.678,0,1,1,1.356,0v5.412a3.975,3.975,0,0,0,3.971,3.971h8.928a.678.678,0,1,1,0,1.356Z" transform="translate(-13.687 -43.057)" fill="#e8e8ee"/>
      <path id="Trazado_2557" data-name="Trazado 2557" d="M8.733,41.826H9.57v5.54H8.733a2.325,2.325,0,0,1-2.325-2.325v-.891A2.325,2.325,0,0,1,8.733,41.826Z" transform="translate(-6.408 -39.749)" fill="#0f89cc"/>
      <path id="Trazado_2558" data-name="Trazado 2558" d="M16.954,46.154l-2.432-.363a1.627,1.627,0,0,1-1.336-1.646V38.48a1.627,1.627,0,0,1,1.336-1.646l2.432-.363a.8.8,0,0,1,.881.822v8.039a.8.8,0,0,1-.881.823Z" transform="translate(-10.56 -36.466)" fill="#3ea7fb"/>
      <path id="Trazado_2559" data-name="Trazado 2559" d="M2.325,0h.837V5.54H2.325A2.325,2.325,0,0,1,0,3.216V2.325A2.325,2.325,0,0,1,2.325,0Z" transform="translate(35.5 7.617) rotate(180)" fill="#0f89cc"/>
      <g id="Grupo_1609" data-name="Grupo 1609" transform="translate(15.425)">
        <path id="Trazado_2560" data-name="Trazado 2560" d="M80.138,46.154l2.432-.363a1.627,1.627,0,0,0,1.336-1.646V38.48a1.627,1.627,0,0,0-1.336-1.646l-2.432-.363a.795.795,0,0,0-.882.822v8.039a.795.795,0,0,0,.882.823Z" transform="translate(-66.457 -36.466)" fill="#3ea7fb"/>
        <rect id="Rect치ngulo_714" data-name="Rect치ngulo 714" width="4.649" height="2.325" rx="1.162" transform="translate(0 13.746)" fill="#3ea7fb"/>
      </g>
    </g>
  </g>
  <g id="Grupo_1612" data-name="Grupo 1612" transform="translate(20.306 22.277)">
    <rect id="Rect치ngulo_715" data-name="Rect치ngulo 715" width="24.285" height="16.812" rx="3" fill="#e8e8ee"/>
    <ellipse id="Elipse_213" data-name="Elipse 213" cx="1.743" cy="1.743" rx="1.743" ry="1.743" transform="translate(10.399 5.5)" fill="#d6d6d6"/>
    <path id="Trazado_2561" data-name="Trazado 2561" d="M85.66,99.5h3.487v7.71H85.66Z" transform="translate(-75.261 -85.746)" fill="#d6d6d6"/>
    <path id="Trazado_2562" data-name="Trazado 2562" d="M75.936,115.5h9.247a1.447,1.447,0,0,1,1.447,1.447v.877H74.489v-.877a1.447,1.447,0,0,1,1.447-1.447Z" transform="translate(-68.418 -95.547)" fill="#e8e8ee"/>
  </g>
</svg>
