<svg xmlns="http://www.w3.org/2000/svg" width="46.77" height="46.77" viewBox="0 0 46.77 46.77">
  <g id="Multiplayer-Gamer-Computer-Player-Team" transform="translate(0)">
    <path id="Trazado_2578" data-name="Trazado 2578" d="M53.149,13.692H51.59V10.574a7.015,7.015,0,0,0-14.031,0v3.118H36V10.574a8.574,8.574,0,0,1,17.149,0Z" transform="translate(-9.497 -2)" fill="#ff9811"/>
    <path id="Trazado_2579" data-name="Trazado 2579" d="M53.708,34.158v2.416H35V34.158a5.3,5.3,0,0,1,.047-.7,4.708,4.708,0,0,1,2.728-3.571L42.015,28a2.338,2.338,0,1,0,4.677,0l4.24,1.886a4.708,4.708,0,0,1,2.728,3.57A5.3,5.3,0,0,1,53.708,34.158Z" transform="translate(-9.276 -7.733)" fill="#3d9ae2"/>
    <path id="Trazado_2580" data-name="Trazado 2580" d="M48.677,25v2.338a2.338,2.338,0,1,1-4.677,0V25Z" transform="translate(-11.261 -7.072)" fill="#ffc477"/>
    <path id="Trazado_2581" data-name="Trazado 2581" d="M48.677,25v1.808a5.424,5.424,0,0,1-4.677,0V25Z" transform="translate(-11.261 -7.072)" fill="#ffb655"/>
    <ellipse id="Elipse_216" data-name="Elipse 216" cx="2.369" cy="1.895" rx="2.369" ry="1.895" transform="translate(26.856 9.797)" fill="#cc7400"/>
    <path id="Trazado_2582" data-name="Trazado 2582" d="M50.913,14.559v3.118a5.456,5.456,0,1,1-10.913,0V14.559h4.677L47.795,13l1.559,1.559Z" transform="translate(-10.379 -4.426)" fill="#ffc477"/>
    <path id="Trazado_2583" data-name="Trazado 2583" d="M50.874,12.833a5.463,5.463,0,0,1,.039.624H49.354L47.795,11.9l-3.118,1.559H40a5.455,5.455,0,0,1,10.874-.624Z" transform="translate(-10.379 -3.323)" fill="#57565c"/>
    <path id="Trazado_2584" data-name="Trazado 2584" d="M43,17h1.559v1.559H43Z" transform="translate(-11.041 -5.308)" fill="#ee8700"/>
    <path id="Trazado_2585" data-name="Trazado 2585" d="M49,17h1.559v1.559H49Z" transform="translate(-12.364 -5.308)" fill="#ee8700"/>
    <path id="Trazado_2586" data-name="Trazado 2586" d="M54.015,22.456H47V20.9h7.015V17h1.559v3.9A1.559,1.559,0,0,1,54.015,22.456Z" transform="translate(-11.923 -5.308)" fill="#ff9811"/>
    <path id="Trazado_2587" data-name="Trazado 2587" d="M57.107,16.338a2.338,2.338,0,0,1-2.338,2.338,2.183,2.183,0,0,1-.818-.156,5.462,5.462,0,0,0,.039-.624V14.779a5.462,5.462,0,0,0-.039-.624A2.183,2.183,0,0,1,54.768,14a2.338,2.338,0,0,1,2.338,2.338Z" transform="translate(-13.455 -4.646)" fill="#cc7400"/>
    <path id="Trazado_2588" data-name="Trazado 2588" d="M23.149,13.692H21.59V10.574a7.015,7.015,0,0,0-14.031,0v3.118H6V10.574a8.574,8.574,0,0,1,17.149,0Z" transform="translate(-2.882 -2)" fill="#ff9811"/>
    <path id="Trazado_2589" data-name="Trazado 2589" d="M23.708,34.158v2.416H5V34.158a5.3,5.3,0,0,1,.047-.7,4.708,4.708,0,0,1,2.728-3.571L12.015,28a2.338,2.338,0,1,0,4.677,0l4.24,1.886a4.708,4.708,0,0,1,2.728,3.57A5.3,5.3,0,0,1,23.708,34.158Z" transform="translate(-2.661 -7.733)" fill="#3d9ae2"/>
    <path id="Trazado_2590" data-name="Trazado 2590" d="M20.913,57v3.118H10V57H20.913Z" transform="translate(-3.764 -14.128)" fill="#acabb1"/>
    <path id="Trazado_2591" data-name="Trazado 2591" d="M18.677,25v2.338a2.338,2.338,0,1,1-4.677,0V25Z" transform="translate(-4.646 -7.072)" fill="#ffc477"/>
    <path id="Trazado_2592" data-name="Trazado 2592" d="M18.677,25v1.808a5.424,5.424,0,0,1-4.677,0V25Z" transform="translate(-4.646 -7.072)" fill="#ffb655"/>
    <ellipse id="Elipse_217" data-name="Elipse 217" cx="2.369" cy="1.895" rx="2.369" ry="1.895" transform="translate(3.165 9.797)" fill="#cc7400"/>
    <path id="Trazado_2593" data-name="Trazado 2593" d="M20.913,14.559v3.118a5.456,5.456,0,1,1-10.913,0V14.559h4.677L17.795,13l1.559,1.559Z" transform="translate(-3.764 -4.426)" fill="#ffc477"/>
    <path id="Trazado_2594" data-name="Trazado 2594" d="M20.874,12.833a5.466,5.466,0,0,1,.039.624H19.354L17.795,11.9l-3.118,1.559H10a5.455,5.455,0,0,1,10.874-.624Z" transform="translate(-3.764 -3.323)" fill="#57565c"/>
    <rect id="Rect치ngulo_718" data-name="Rect치ngulo 718" width="22.743" height="14.214" rx="2" transform="translate(0.323 25.907)" fill="#acabb1"/>
    <path id="Trazado_2595" data-name="Trazado 2595" d="M14,47v7.795h4.677V47Z" transform="translate(-4.646 -11.923)" fill="#d8d7da"/>
    <path id="Trazado_2596" data-name="Trazado 2596" d="M50.913,57v3.118H40V57H50.913Z" transform="translate(-10.379 -14.128)" fill="#acabb1"/>
    <rect id="Rect치ngulo_719" data-name="Rect치ngulo 719" width="21.795" height="14.214" rx="2" transform="translate(24.013 25.907)" fill="#acabb1"/>
    <path id="Trazado_2597" data-name="Trazado 2597" d="M44,47v7.795h4.677V47Z" transform="translate(-11.261 -11.923)" fill="#d8d7da"/>
    <path id="Trazado_2598" data-name="Trazado 2598" d="M13,17h1.559v1.559H13Z" transform="translate(-4.425 -5.308)" fill="#ee8700"/>
    <path id="Trazado_2599" data-name="Trazado 2599" d="M19,17h1.559v1.559H19Z" transform="translate(-5.748 -5.308)" fill="#ee8700"/>
    <path id="Trazado_2600" data-name="Trazado 2600" d="M2,60H48.77v1.559H2Z" transform="translate(-2 -14.789)" fill="#787680"/>
    <path id="Trazado_2601" data-name="Trazado 2601" d="M24.015,22.456H17V20.9h7.015V17h1.559v3.9A1.559,1.559,0,0,1,24.015,22.456Z" transform="translate(-5.307 -5.308)" fill="#ff9811"/>
    <path id="Trazado_2602" data-name="Trazado 2602" d="M27.107,16.338a2.338,2.338,0,0,1-2.338,2.338,2.183,2.183,0,0,1-.818-.156,5.466,5.466,0,0,0,.039-.624V14.779a5.466,5.466,0,0,0-.039-.624A2.183,2.183,0,0,1,24.768,14,2.338,2.338,0,0,1,27.107,16.338Z" transform="translate(-6.84 -4.646)" fill="#cc7400"/>
  </g>
</svg>
