<svg id="_004-viewers" data-name="004-viewers" xmlns="http://www.w3.org/2000/svg" width="46.77" height="46.77" viewBox="0 0 46.77 46.77">
  <path id="Trazado_2530" data-name="Trazado 2530" d="M47.442,400.08l-2.74,1.973H32.37a1.357,1.357,0,0,1-1.37-1.37v-2.832a6.851,6.851,0,1,1,13.7,0Z" transform="translate(-28.168 -355.283)" fill="#a8ebfa"/>
  <path id="Trazado_2531" data-name="Trazado 2531" d="M115.591,400.08l-2.74,1.973H106V391a6.83,6.83,0,0,1,6.851,6.851Z" transform="translate(-96.317 -355.283)" fill="#76e2f8"/>
  <g id="Grupo_1607" data-name="Grupo 1607">
    <path id="Trazado_2532" data-name="Trazado 2532" d="M46.77,1.37V23.385a1.357,1.357,0,0,1-1.37,1.37H1.37A1.357,1.357,0,0,1,0,23.385V1.37A1.357,1.357,0,0,1,1.37,0H45.4A1.357,1.357,0,0,1,46.77,1.37Z" fill="#47568c"/>
    <path id="Trazado_2533" data-name="Trazado 2533" d="M279.385,1.37V23.385a1.357,1.357,0,0,1-1.37,1.37H256V0h22.015A1.357,1.357,0,0,1,279.385,1.37Z" transform="translate(-232.615)" fill="#29376d"/>
    <path id="Trazado_2534" data-name="Trazado 2534" d="M30,30H71.289V49.274H30Z" transform="translate(-27.26 -27.26)" fill="#a8ebfa"/>
    <path id="Trazado_2535" data-name="Trazado 2535" d="M256,30h20.644V49.274H256Z" transform="translate(-232.615 -27.26)" fill="#76e2f8"/>
  </g>
  <path id="Trazado_2536" data-name="Trazado 2536" d="M215.111,301a4.111,4.111,0,1,0,4.111,4.111A4.1,4.1,0,0,0,215.111,301Z" transform="translate(-191.726 -273.505)" fill="#c86e59"/>
  <path id="Trazado_2537" data-name="Trazado 2537" d="M365.111,301a4.111,4.111,0,1,0,4.111,4.111A4.1,4.1,0,0,0,365.111,301Z" transform="translate(-328.024 -273.505)" fill="#ffbfab"/>
  <path id="Trazado_2538" data-name="Trazado 2538" d="M206.194,80.241l-8.221-4.111a1.4,1.4,0,0,0-1.315.055A1.426,1.426,0,0,0,196,77.364v8.221a1.426,1.426,0,0,0,.658,1.178,1.325,1.325,0,0,0,1.315.055l8.221-4.111a1.375,1.375,0,0,0,0-2.467Z" transform="translate(-178.096 -69.051)" fill="#f2f2fc"/>
  <path id="Trazado_2539" data-name="Trazado 2539" d="M261.481,100.29a1.4,1.4,0,0,1-.767,1.233L256,103.88V96.7l4.713,2.357A1.4,1.4,0,0,1,261.481,100.29Z" transform="translate(-232.615 -87.867)" fill="#e2d9fb"/>
  <path id="Trazado_2540" data-name="Trazado 2540" d="M65.111,301a4.111,4.111,0,1,0,4.111,4.111A4.1,4.1,0,0,0,65.111,301Z" transform="translate(-55.428 -273.505)" fill="#ffbfab"/>
  <path id="Trazado_2541" data-name="Trazado 2541" d="M194.7,397.851v4.2H181v-4.2a6.851,6.851,0,1,1,13.7,0Z" transform="translate(-164.466 -355.283)" fill="#fed843"/>
  <path id="Trazado_2542" data-name="Trazado 2542" d="M317.442,397.851v2.832a1.357,1.357,0,0,1-1.37,1.37H303.74L301,400.217l2.74-2.366a6.851,6.851,0,1,1,13.7,0Z" transform="translate(-273.505 -355.283)" fill="#ffa4ff"/>
  <path id="Trazado_2543" data-name="Trazado 2543" d="M256,309.221V301a4.111,4.111,0,0,1,0,8.221Z" transform="translate(-232.615 -273.505)" fill="#a34f3e"/>
  <path id="Trazado_2544" data-name="Trazado 2544" d="M262.851,397.851v4.2H256V391a6.83,6.83,0,0,1,6.851,6.851Z" transform="translate(-232.615 -355.283)" fill="#ff9100"/>
  <path id="Trazado_2545" data-name="Trazado 2545" d="M106,309.221V301a4.111,4.111,0,1,1,0,8.221Z" transform="translate(-96.317 -273.505)" fill="#f89580"/>
  <path id="Trazado_2546" data-name="Trazado 2546" d="M406,309.221V301a4.111,4.111,0,0,1,0,8.221Z" transform="translate(-368.913 -273.505)" fill="#f89580"/>
  <path id="Trazado_2547" data-name="Trazado 2547" d="M412.851,397.851v2.832a1.357,1.357,0,0,1-1.37,1.37H406V391a6.83,6.83,0,0,1,6.851,6.851Z" transform="translate(-368.913 -355.283)" fill="#ff80ac"/>
</svg>
