<svg id="_003-calendar" data-name="003-calendar" xmlns="http://www.w3.org/2000/svg" width="40.832" height="45.399" viewBox="0 0 40.832 45.399">
  <path id="Trazado_2496" data-name="Trazado 2496" d="M65.832,52.74v7.034H25V52.74A2.741,2.741,0,0,1,27.74,50H63.092a2.741,2.741,0,0,1,2.74,2.74Z" transform="translate(-25 -45.433)" fill="#fd646f"/>
  <path id="Trazado_2497" data-name="Trazado 2497" d="M85.029,50v5.115a.914.914,0,0,1-.913.913h-4.2A.914.914,0,0,1,79,55.115V50Z" transform="translate(-74.067 -45.433)" fill="#fc4755"/>
  <path id="Trazado_2498" data-name="Trazado 2498" d="M342.029,50v5.115a.914.914,0,0,1-.913.913h-4.2a.914.914,0,0,1-.913-.913V50Z" transform="translate(-307.591 -45.433)" fill="#fc4755"/>
  <path id="Trazado_2499" data-name="Trazado 2499" d="M26.462,53.47v9.457H25V55.893A2.737,2.737,0,0,1,26.462,53.47Z" transform="translate(-25 -48.586)" fill="#fc4755"/>
  <g id="Grupo_1606" data-name="Grupo 1606" transform="translate(7.034 19.806)">
    <path id="Trazado_2500" data-name="Trazado 2500" d="M102.457,216.82h4.7a.457.457,0,0,1,.457.457v4.7a.457.457,0,0,1-.457.457h-4.7a.457.457,0,0,1-.457-.457v-4.7A.457.457,0,0,1,102.457,216.82Z" transform="translate(-102 -216.82)" fill="#e6e6e6"/>
    <path id="Trazado_2501" data-name="Trazado 2501" d="M102.457,293.27h4.7a.457.457,0,0,1,.457.457v4.7a.457.457,0,0,1-.457.457h-4.7a.457.457,0,0,1-.457-.457v-4.7A.457.457,0,0,1,102.457,293.27Z" transform="translate(-102 -286.286)" fill="#e6e6e6"/>
    <path id="Trazado_2502" data-name="Trazado 2502" d="M102.457,369.73h4.7a.457.457,0,0,1,.457.457v4.7a.457.457,0,0,1-.457.457h-4.7a.457.457,0,0,1-.457-.457v-4.7A.457.457,0,0,1,102.457,369.73Z" transform="translate(-102 -355.762)" fill="#e6e6e6"/>
    <path id="Trazado_2503" data-name="Trazado 2503" d="M178.907,216.82h4.8a.457.457,0,0,1,.457.457v4.7a.457.457,0,0,1-.457.457h-4.8a.457.457,0,0,1-.457-.457v-4.7A.457.457,0,0,1,178.907,216.82Z" transform="translate(-171.467 -216.82)" fill="#e6e6e6"/>
    <path id="Trazado_2504" data-name="Trazado 2504" d="M178.907,293.27h4.8a.457.457,0,0,1,.457.457v4.7a.457.457,0,0,1-.457.457h-4.8a.457.457,0,0,1-.457-.457v-4.7A.457.457,0,0,1,178.907,293.27Z" transform="translate(-171.467 -286.286)" fill="#e6e6e6"/>
    <path id="Trazado_2505" data-name="Trazado 2505" d="M178.907,369.73h4.8a.457.457,0,0,1,.457.457v4.7a.457.457,0,0,1-.457.457h-4.8a.457.457,0,0,1-.457-.457v-4.7A.457.457,0,0,1,178.907,369.73Z" transform="translate(-171.467 -355.762)" fill="#e6e6e6"/>
    <path id="Trazado_2506" data-name="Trazado 2506" d="M256.457,216.82h4.8a.457.457,0,0,1,.457.457v4.7a.457.457,0,0,1-.457.457h-4.8a.457.457,0,0,1-.457-.457v-4.7A.457.457,0,0,1,256.457,216.82Z" transform="translate(-241.933 -216.82)" fill="#e6e6e6"/>
    <path id="Trazado_2507" data-name="Trazado 2507" d="M256.457,293.27h4.8a.457.457,0,0,1,.457.457v4.7a.457.457,0,0,1-.457.457h-4.8a.457.457,0,0,1-.457-.457v-4.7A.457.457,0,0,1,256.457,293.27Z" transform="translate(-241.933 -286.286)" fill="#e6e6e6"/>
    <path id="Trazado_2508" data-name="Trazado 2508" d="M256.457,369.73h4.8a.457.457,0,0,1,.457.457v4.7a.457.457,0,0,1-.457.457h-4.8a.457.457,0,0,1-.457-.457v-4.7A.457.457,0,0,1,256.457,369.73Z" transform="translate(-241.933 -355.762)" fill="#e6e6e6"/>
    <path id="Trazado_2509" data-name="Trazado 2509" d="M339.163,217.277v4.7a.457.457,0,0,1-.457.457h-4.7a.457.457,0,0,1-.457-.457v-4.7a.457.457,0,0,1,.457-.457h4.7A.457.457,0,0,1,339.163,217.277Z" transform="translate(-312.399 -216.82)" fill="#e6e6e6"/>
    <path id="Trazado_2510" data-name="Trazado 2510" d="M334.007,293.27h4.7a.457.457,0,0,1,.457.457v4.7a.457.457,0,0,1-.457.457h-4.7a.457.457,0,0,1-.457-.457v-4.7A.457.457,0,0,1,334.007,293.27Z" transform="translate(-312.399 -286.286)" fill="#e6e6e6"/>
    <path id="Trazado_2511" data-name="Trazado 2511" d="M334.007,369.73h4.7a.457.457,0,0,1,.457.457v4.7a.457.457,0,0,1-.457.457h-4.7a.457.457,0,0,1-.457-.457v-4.7A.457.457,0,0,1,334.007,369.73Z" transform="translate(-312.399 -355.762)" fill="#e6e6e6"/>
  </g>
  <path id="Trazado_2512" data-name="Trazado 2512" d="M25,150v28.957a2.74,2.74,0,0,0,2.74,2.74H63.092a2.74,2.74,0,0,0,2.74-2.74V150Z" transform="translate(-25 -136.298)" fill="#f5f5f5"/>
  <path id="Trazado_2513" data-name="Trazado 2513" d="M99.567.913V8.221a.914.914,0,0,1-.913.913h-2.74A.914.914,0,0,1,95,8.221V.913A.914.914,0,0,1,95.913,0h2.74A.914.914,0,0,1,99.567.913Z" transform="translate(-88.606)" fill="#50758d"/>
  <path id="Trazado_2514" data-name="Trazado 2514" d="M102,216.82h5.613v5.613H102Z" transform="translate(-94.966 -197.014)" fill="#ffac5c"/>
  <path id="Trazado_2515" data-name="Trazado 2515" d="M333.55,216.82h5.613v5.613H333.55Z" transform="translate(-305.365 -197.014)" fill="#ffac5c"/>
  <path id="Trazado_2516" data-name="Trazado 2516" d="M178.45,216.82h5.714v5.613H178.45Z" transform="translate(-164.433 -197.014)" fill="#ffac5c"/>
  <path id="Trazado_2517" data-name="Trazado 2517" d="M102,293.27h5.613v5.614H102Z" transform="translate(-94.966 -266.481)" fill="#ffac5c"/>
  <path id="Trazado_2518" data-name="Trazado 2518" d="M333.55,293.27h5.613v5.614H333.55Z" transform="translate(-305.365 -266.481)" fill="#e6e6e6"/>
  <path id="Trazado_2519" data-name="Trazado 2519" d="M178.45,293.27h5.714v5.614H178.45Z" transform="translate(-164.433 -266.481)" fill="#ffac5c"/>
  <path id="Trazado_2520" data-name="Trazado 2520" d="M102,369.73h5.613v5.613H102Z" transform="translate(-94.966 -335.956)" fill="#e6e6e6"/>
  <path id="Trazado_2521" data-name="Trazado 2521" d="M333.55,369.73h5.613v5.613H333.55Z" transform="translate(-305.365 -335.956)" fill="#e6e6e6"/>
  <path id="Trazado_2522" data-name="Trazado 2522" d="M178.45,369.73h5.714v5.613H178.45Z" transform="translate(-164.433 -335.956)" fill="#e6e6e6"/>
  <path id="Trazado_2523" data-name="Trazado 2523" d="M256,216.82h5.714v5.613H256Z" transform="translate(-234.899 -197.014)" fill="#ffac5c"/>
  <path id="Trazado_2524" data-name="Trazado 2524" d="M256,293.27h5.714v5.614H256Z" transform="translate(-234.899 -266.481)" fill="#ffac5c"/>
  <path id="Trazado_2525" data-name="Trazado 2525" d="M256,369.73h5.714v5.613H256Z" transform="translate(-234.899 -335.956)" fill="#e6e6e6"/>
  <path id="Trazado_2526" data-name="Trazado 2526" d="M356.567.913V8.221a.914.914,0,0,1-.913.913h-2.74A.914.914,0,0,1,352,8.221V.913A.914.914,0,0,1,352.913,0h2.74A.914.914,0,0,1,356.567.913Z" transform="translate(-322.13)" fill="#50758d"/>
  <path id="Trazado_2527" data-name="Trazado 2527" d="M25,150v28.957a2.74,2.74,0,0,0,2.74,2.74h1.012A2.738,2.738,0,0,1,26.507,179V151.938a.73.73,0,0,1,.685-.477h38.64V150Z" transform="translate(-25 -136.298)" fill="#e6e6e6"/>
  <path id="Trazado_2528" data-name="Trazado 2528" d="M97.375,9.135H95.913A.914.914,0,0,1,95,8.221V.913A.914.914,0,0,1,95.913,0h.548V8.221A.914.914,0,0,0,97.375,9.135Z" transform="translate(-88.606)" fill="#2b597f"/>
  <path id="Trazado_2529" data-name="Trazado 2529" d="M354.375,9.135h-1.462A.914.914,0,0,1,352,8.221V.913A.914.914,0,0,1,352.913,0h.548V8.221A.914.914,0,0,0,354.375,9.135Z" transform="translate(-322.13)" fill="#2b597f"/>
</svg>
