<svg id="_001-people" data-name="001-people" xmlns="http://www.w3.org/2000/svg" width="104.464" height="104.464" viewBox="0 0 104.464 104.464">
  <g id="Grupo_1599" data-name="Grupo 1599">
    <g id="Grupo_1574" data-name="Grupo 1574" transform="translate(25.325 36.726)">
      <g id="Grupo_1573" data-name="Grupo 1573" transform="translate(0)">
        <g id="Grupo_1569" data-name="Grupo 1569" transform="translate(23.847)">
          <path id="Trazado_2393" data-name="Trazado 2393" d="M241,180h6.121v24.892H241Z" transform="translate(-241 -180)" fill="#3630a2"/>
        </g>
        <path id="Trazado_2394" data-name="Trazado 2394" d="M256,180h3.061v24.892H256Z" transform="translate(-229.093 -180)" fill="#2e2654"/>
        <g id="Grupo_1572" data-name="Grupo 1572" transform="translate(0 25.917)">
          <g id="Grupo_1570" data-name="Grupo 1570" transform="translate(0 0)">
            <path id="Trazado_2395" data-name="Trazado 2395" d="M0,0H24.191V6.121H0Z" transform="matrix(0.955, -0.297, 0.297, 0.955, 0, 7.185)" fill="#3630a2"/>
          </g>
          <g id="Grupo_1571" data-name="Grupo 1571" transform="translate(28.95 0.045)">
            <path id="Trazado_2396" data-name="Trazado 2396" d="M0,0H6.121V24.191H0Z" transform="matrix(0.297, -0.955, 0.955, 0.297, 0, 5.845)" fill="#2e2654"/>
          </g>
        </g>
      </g>
      <circle id="Elipse_212" data-name="Elipse 212" cx="7.651" cy="7.651" r="7.651" transform="translate(19.256 20.301)" fill="#aa80f9"/>
    </g>
    <g id="Grupo_1582" data-name="Grupo 1582" transform="translate(0 61.617)">
      <g id="Grupo_1581" data-name="Grupo 1581">
        <g id="Grupo_1580" data-name="Grupo 1580">
          <g id="Grupo_1579" data-name="Grupo 1579">
            <g id="Grupo_1578" data-name="Grupo 1578">
              <g id="Grupo_1577" data-name="Grupo 1577">
                <g id="Grupo_1575" data-name="Grupo 1575" transform="translate(0 20.403)">
                  <path id="Trazado_2397" data-name="Trazado 2397" d="M35.706,424.443H3.06A3.061,3.061,0,0,1,0,421.383V417.3A15.32,15.32,0,0,1,15.3,402h8.161a15.32,15.32,0,0,1,15.3,15.3v4.081A3.061,3.061,0,0,1,35.706,424.443Z" transform="translate(0 -402)" fill="#ffef4a"/>
                </g>
                <path id="Trazado_2398" data-name="Trazado 2398" d="M95,424.443h16.322a3.061,3.061,0,0,0,3.06-3.06V417.3a15.32,15.32,0,0,0-15.3-15.3H95Z" transform="translate(-75.617 -381.597)" fill="#ffcb00"/>
                <g id="Grupo_1576" data-name="Grupo 1576" transform="translate(7.141)">
                  <path id="Trazado_2399" data-name="Trazado 2399" d="M47.242,326.484a12.242,12.242,0,1,1,12.242-12.242A12.256,12.256,0,0,1,47.242,326.484Z" transform="translate(-35 -302)" fill="#ffd7aa"/>
                </g>
              </g>
            </g>
          </g>
        </g>
        <path id="Trazado_2400" data-name="Trazado 2400" d="M95,302v24.484A12.242,12.242,0,0,0,95,302Z" transform="translate(-75.617 -302)" fill="#ffc58f"/>
      </g>
    </g>
    <g id="Grupo_1590" data-name="Grupo 1590" transform="translate(65.698 61.617)">
      <g id="Grupo_1589" data-name="Grupo 1589">
        <g id="Grupo_1588" data-name="Grupo 1588">
          <g id="Grupo_1587" data-name="Grupo 1587">
            <g id="Grupo_1586" data-name="Grupo 1586">
              <g id="Grupo_1585" data-name="Grupo 1585">
                <g id="Grupo_1583" data-name="Grupo 1583" transform="translate(0 20.403)">
                  <path id="Trazado_2401" data-name="Trazado 2401" d="M357.705,424.443H325.06a3.061,3.061,0,0,1-3.06-3.06V417.3A15.32,15.32,0,0,1,337.3,402h8.161a15.32,15.32,0,0,1,15.3,15.3v4.081A3.061,3.061,0,0,1,357.705,424.443Z" transform="translate(-322 -402)" fill="#bceaf9"/>
                </g>
                <path id="Trazado_2402" data-name="Trazado 2402" d="M417,424.443h16.323a3.061,3.061,0,0,0,3.06-3.06V417.3a15.32,15.32,0,0,0-15.3-15.3H417Z" transform="translate(-397.617 -381.597)" fill="#7dd5f4"/>
                <g id="Grupo_1584" data-name="Grupo 1584" transform="translate(7.141)">
                  <path id="Trazado_2403" data-name="Trazado 2403" d="M369.242,326.484a12.242,12.242,0,1,1,12.242-12.242A12.256,12.256,0,0,1,369.242,326.484Z" transform="translate(-357 -302)" fill="#ffd7aa"/>
                </g>
              </g>
            </g>
          </g>
        </g>
        <path id="Trazado_2404" data-name="Trazado 2404" d="M417,302v24.484A12.242,12.242,0,0,0,417,302Z" transform="translate(-397.617 -302)" fill="#ffc58f"/>
      </g>
    </g>
    <g id="Grupo_1598" data-name="Grupo 1598" transform="translate(32.849)">
      <g id="Grupo_1597" data-name="Grupo 1597">
        <g id="Grupo_1596" data-name="Grupo 1596">
          <g id="Grupo_1595" data-name="Grupo 1595">
            <g id="Grupo_1594" data-name="Grupo 1594">
              <g id="Grupo_1593" data-name="Grupo 1593">
                <g id="Grupo_1591" data-name="Grupo 1591" transform="translate(0 20.403)">
                  <path id="Trazado_2405" data-name="Trazado 2405" d="M196.705,122.443H164.06a3.061,3.061,0,0,1-3.06-3.06V115.3A15.32,15.32,0,0,1,176.3,100h8.161a15.32,15.32,0,0,1,15.3,15.3v4.081A3.061,3.061,0,0,1,196.705,122.443Z" transform="translate(-161 -100)" fill="#d8c3ff"/>
                </g>
                <path id="Trazado_2406" data-name="Trazado 2406" d="M256,122.443h16.323a3.061,3.061,0,0,0,3.06-3.06V115.3a15.32,15.32,0,0,0-15.3-15.3H256Z" transform="translate(-236.617 -79.597)" fill="#aa80f9"/>
                <g id="Grupo_1592" data-name="Grupo 1592" transform="translate(7.141)">
                  <path id="Trazado_2407" data-name="Trazado 2407" d="M208.242,24.484a12.242,12.242,0,1,1,12.242-12.242A12.256,12.256,0,0,1,208.242,24.484Z" transform="translate(-196)" fill="#ffd7aa"/>
                </g>
              </g>
            </g>
          </g>
        </g>
        <path id="Trazado_2408" data-name="Trazado 2408" d="M256,0V24.484A12.242,12.242,0,1,0,256,0Z" transform="translate(-236.617)" fill="#ffc58f"/>
      </g>
    </g>
  </g>
  <path id="Trazado_2409" data-name="Trazado 2409" d="M256,279.5v15.3a7.651,7.651,0,1,0,0-15.3Z" transform="translate(-203.768 -222.473)" fill="#4531d3"/>
</svg>
