<svg xmlns="http://www.w3.org/2000/svg" width="88" height="87.977" viewBox="0 0 88 87.977">
  <g id="_003-worldwide" data-name="003-worldwide" transform="translate(0 -0.067)">
    <g id="Grupo_1601" data-name="Grupo 1601" transform="translate(3.423 3.253)">
      <path id="Trazado_2440" data-name="Trazado 2440" d="M309.778,35.946l-4.552,3.035-7.587-1.517-4.552-1.517-6.069,1.517-4.552-1.517,3.035-6.069h6.069l5.948-2.974A43.46,43.46,0,0,1,309.778,35.946Z" transform="translate(-237.339 -25.477)" fill="#4531d3"/>
      <path id="Trazado_2441" data-name="Trazado 2441" d="M57.455,23l-1.517,4.552-4.552,1.517-4.552,7.587-7.587,4.552L28.625,42.73v4.552l3.035,3.035v6.069l-4.552-3.035-4.552-3.035-2.64-7.936A43.975,43.975,0,0,1,44.042,18.6l4.309,2.883Z" transform="translate(-19.916 -18.604)" fill="#4531d3"/>
      <path id="Trazado_2442" data-name="Trazado 2442" d="M102.454,225.6l-1.517,7.587-6.069,6.069v4.552L88.8,248.358v7.587l-4.552-1.517-3.035-7.587V231.667l-7.587-1.517L70.59,224.08v-4.552l3.035-3.035,4.552-4.552,3.035,6.069H91.833l4.552,7.587Z" transform="translate(-61.88 -178.711)" fill="#4531d3"/>
      <path id="Trazado_2443" data-name="Trazado 2443" d="M308.993,117.607a43.96,43.96,0,0,1-2.428,46.841l-4.1-4.1v-6.069l-3.035-6.069-3.035-6.069v-6.069l-4.552-3.035-6.069,1.517L275.156,130l-1.517-10.621,4.552-4.552h9.1l3.035,4.552,9.1,1.517,9.1-3.035Z" transform="translate(-230.03 -98.291)" fill="#4531d3"/>
    </g>
    <path id="Trazado_2444" data-name="Trazado 2444" d="M53.1,15.24l6.069-1.517,4.552,1.517,7.587,1.517,4.552-3.035a43.334,43.334,0,0,1,6.525,8.846l-.455.258-9.1,3.035-9.1-1.517-3.035-4.552h-9.1l-4.552,4.552,1.517,10.621,10.621,4.552L65.24,38l4.552,3.035V47.1l3.035,6.069,3.035,6.069v6.069l4.1,4.1A44,44,0,0,1,3.423,27.03l2.64,7.936L10.615,38l4.552,3.035-3.035,3.035v4.552l3.035,6.069,7.587,1.517V71.382l3.035,7.587,4.552,1.517V72.9l6.069-4.552V63.795l6.069-6.069L44,50.139H37.928l-4.552-7.587H22.754l-3.035-6.069-4.552,4.552V34.965l-3.035-3.034V27.379l10.621-1.517,7.587-4.552,4.552-7.587,4.552-1.517,1.517-4.552-9.1-1.517L27.549,3.253A44.006,44.006,0,0,1,63.6,4.679L57.653,7.653H51.584l-3.035,6.069Z" transform="translate(0 0)" fill="#d3bcff"/>
  </g>
</svg>
