<svg id="_002-care" data-name="002-care" xmlns="http://www.w3.org/2000/svg" width="97.241" height="104.464" viewBox="0 0 97.241 104.464">
  <path id="Trazado_2410" data-name="Trazado 2410" d="M302.395,41.641a5.149,5.149,0,1,1-5.149-5.149A5.149,5.149,0,0,1,302.395,41.641Zm0,0" transform="translate(-232.501 -29.047)" fill="#f7b594"/>
  <path id="Trazado_2411" data-name="Trazado 2411" d="M298.489,41.641a5.137,5.137,0,0,1,1.954-4.035,5.149,5.149,0,1,0,0,8.07A5.136,5.136,0,0,1,298.489,41.641Zm0,0" transform="translate(-232.501 -29.047)" fill="#f0a479"/>
  <path id="Trazado_2412" data-name="Trazado 2412" d="M144.332,41.641a5.148,5.148,0,1,1-5.148-5.149A5.148,5.148,0,0,1,144.332,41.641Zm0,0" transform="translate(-106.688 -29.047)" fill="#f7b594"/>
  <path id="Trazado_2413" data-name="Trazado 2413" d="M140.426,41.641a5.139,5.139,0,0,1,1.953-4.035,5.149,5.149,0,1,0,0,8.07A5.138,5.138,0,0,1,140.426,41.641Zm0,0" transform="translate(-106.688 -29.047)" fill="#f0a479"/>
  <path id="Trazado_2414" data-name="Trazado 2414" d="M289.831,86.961a9.928,9.928,0,0,0-6.259,2.208,10.952,10.952,0,0,1,.674,3.791v10.387a1.466,1.466,0,0,1-1.465,1.466h14.7a1.18,1.18,0,0,0,1.18-1.18V95.79A8.829,8.829,0,0,0,289.831,86.961Zm0,0" transform="translate(-225.085 -69.218)" fill="#00aaf0"/>
  <path id="Trazado_2415" data-name="Trazado 2415" d="M282.781,104.814h8.05a7.791,7.791,0,0,0,.14-1.466V92.961a17.179,17.179,0,0,0-1.076-6l-.065,0a9.927,9.927,0,0,0-6.259,2.208,10.952,10.952,0,0,1,.674,3.791v10.387A1.466,1.466,0,0,1,282.781,104.814Zm0,0" transform="translate(-225.085 -69.218)" fill="#059adb"/>
  <path id="Trazado_2416" data-name="Trazado 2416" d="M130.41,103.348V92.961a10.933,10.933,0,0,1,.674-3.791,9.929,9.929,0,0,0-6.259-2.208A8.829,8.829,0,0,0,116,95.79v7.843a1.181,1.181,0,0,0,1.18,1.18h14.7A1.466,1.466,0,0,1,130.41,103.348Zm0,0" transform="translate(-92.329 -69.218)" fill="#ffc850"/>
  <path id="Trazado_2417" data-name="Trazado 2417" d="M122.3,103.633V95.79a8.832,8.832,0,0,1,5.771-8.285,10.41,10.41,0,0,0-3.248-.544A8.829,8.829,0,0,0,116,95.79v7.843a1.18,1.18,0,0,0,1.18,1.18h6.306A1.181,1.181,0,0,1,122.3,103.633Zm0,0" transform="translate(-92.329 -69.218)" fill="#feb644"/>
  <path id="Trazado_2418" data-name="Trazado 2418" d="M219.759,6.391A6.391,6.391,0,1,1,213.368,0,6.391,6.391,0,0,1,219.759,6.391Zm0,0" transform="translate(-164.747 0)" fill="#f7b594"/>
  <path id="Trazado_2419" data-name="Trazado 2419" d="M213.368,6.391a6.385,6.385,0,0,1,3.2-5.534,6.391,6.391,0,1,0-3.2,11.925,6.362,6.362,0,0,0,3.2-.857A6.387,6.387,0,0,1,213.368,6.391Zm0,0" transform="translate(-164.747)" fill="#f0a479"/>
  <path id="Trazado_2420" data-name="Trazado 2420" d="M195.542,62.648a10.96,10.96,0,0,0-10.96,10.96V84a1.464,1.464,0,0,0,1.465,1.465h18.991A1.465,1.465,0,0,0,206.5,84V73.609A10.96,10.96,0,0,0,195.542,62.648Zm0,0" transform="translate(-146.922 -49.866)" fill="#d665d3"/>
  <path id="Trazado_2421" data-name="Trazado 2421" d="M190.888,84V73.609a10.963,10.963,0,0,1,7.807-10.5,10.961,10.961,0,0,0-14.113,10.5V84a1.465,1.465,0,0,0,1.465,1.466h6.306A1.466,1.466,0,0,1,190.888,84Zm0,0" transform="translate(-146.922 -49.866)" fill="#c64ac6"/>
  <path id="Trazado_2422" data-name="Trazado 2422" d="M397.122,120.949a2.771,2.771,0,0,1,.12,1.492l1.251-1.379a2.818,2.818,0,0,0,.738-1.893v-15.61a4.758,4.758,0,0,1,.771-2.6,5.3,5.3,0,0,0-5.2-1.019,4.879,4.879,0,0,0-3.123,6.293Zm0,0" transform="translate(-311.53 -79.326)" fill="#f0a479"/>
  <path id="Trazado_2423" data-name="Trazado 2423" d="M396.988,106.236a4.836,4.836,0,0,1,2.186-5.868,5.315,5.315,0,0,0-4.37-.425,4.879,4.879,0,0,0-3.123,6.293l5.441,14.712a2.771,2.771,0,0,1,.12,1.492l1.251-1.379a2.817,2.817,0,0,0,.738-1.893V112.3Zm0,0" transform="translate(-311.53 -79.325)" fill="#e5966e"/>
  <path id="Trazado_2424" data-name="Trazado 2424" d="M291.4,139.85,303,123.886a15.72,15.72,0,0,0,3.123-9.4V99.656a5.018,5.018,0,0,0-5.024-5.039,4.929,4.929,0,0,0-4.834,4.928v15.61a2.884,2.884,0,0,1-.708,1.893l-5.641,6.484a.186.186,0,0,1-.319-.177,5.422,5.422,0,0,0-1.47-5.681,5.563,5.563,0,0,0-7.656.292l-15.329,15.847a9.659,9.659,0,0,0-2.716,6.715V155.92h23.223A31.968,31.968,0,0,1,291.4,139.85Zm0,0" transform="translate(-208.886 -75.312)" fill="#f7b594"/>
  <g id="Grupo_1600" data-name="Grupo 1600" transform="translate(8.769 20.334)">
    <path id="Trazado_2425" data-name="Trazado 2425" d="M268.735,240.464V225.073a9.656,9.656,0,0,1,2.717-6.715l15.329-15.847a5.392,5.392,0,0,1,.838-.7,5.6,5.6,0,0,0-7.144.7l-15.329,15.847a9.657,9.657,0,0,0-2.717,6.715v15.391h6.306Zm0,0" transform="translate(-217.655 -180.19)" fill="#f0a479"/>
    <path id="Trazado_2426" data-name="Trazado 2426" d="M332.387,231.856a1.458,1.458,0,0,0,2.53.991l10.64-11.506a.185.185,0,0,1-.271-.214,5.448,5.448,0,0,0-.1-3.677l-12.408,13.417A1.456,1.456,0,0,0,332.387,231.856Zm0,0" transform="translate(-273.339 -193.416)" fill="#f0a479"/>
    <path id="Trazado_2427" data-name="Trazado 2427" d="M45.86,120.949a2.781,2.781,0,0,0-.121,1.492l-1.25-1.379a2.814,2.814,0,0,1-.738-1.893v-15.61a4.757,4.757,0,0,0-.771-2.6,5.3,5.3,0,0,1,5.2-1.019,4.879,4.879,0,0,1,3.123,6.293Zm0,0" transform="translate(-42.98 -99.659)" fill="#f0a479"/>
  </g>
  <path id="Trazado_2428" data-name="Trazado 2428" d="M48.178,99.944a5.3,5.3,0,0,0-5.2,1.019,4.759,4.759,0,0,1,.771,2.6v15.61a2.816,2.816,0,0,0,.738,1.893l1.25,1.379a2.781,2.781,0,0,1,.121-1.492L48.06,115V103.559a4.727,4.727,0,0,0-.261-1.551,1.524,1.524,0,0,1,.8-1.885l.014-.006C48.475,100.054,48.328,100,48.178,99.944Zm0,0" transform="translate(-34.211 -79.326)" fill="#e5966e"/>
  <path id="Trazado_2429" data-name="Trazado 2429" d="M14.727,139.85l-11.6-15.965A15.724,15.724,0,0,1,0,114.482V99.656a5.018,5.018,0,0,1,5.024-5.039,4.93,4.93,0,0,1,4.834,4.928v15.61a2.884,2.884,0,0,0,.708,1.893l5.641,6.484a.186.186,0,0,0,.319-.176A5.423,5.423,0,0,1,18,117.674a5.564,5.564,0,0,1,7.656.292l15.329,15.847a9.66,9.66,0,0,1,2.716,6.715v15.392H20.475A31.968,31.968,0,0,0,14.727,139.85Zm0,0" transform="translate(0 -75.312)" fill="#f7b594"/>
  <path id="Trazado_2430" data-name="Trazado 2430" d="M21.034,139.85,9.428,123.886a15.724,15.724,0,0,1-3.123-9.4V99.656a5.1,5.1,0,0,1,1.8-3.877,4.909,4.909,0,0,0-3.084-1.162A5.018,5.018,0,0,0,0,99.656v14.826a15.719,15.719,0,0,0,3.123,9.4l11.6,15.965a31.962,31.962,0,0,1,5.748,16.07h6.306A31.967,31.967,0,0,0,21.034,139.85Zm0,0" transform="translate(0 -75.312)" fill="#f0a479"/>
  <path id="Trazado_2431" data-name="Trazado 2431" d="M92.838,231.856a1.459,1.459,0,0,1-2.53.991l-10.64-11.506a.185.185,0,0,0,.271-.214,5.447,5.447,0,0,1,.1-3.677L92.45,230.867A1.455,1.455,0,0,1,92.838,231.856Zm0,0" transform="translate(-63.413 -173.083)" fill="#f0a479"/>
  <path id="Trazado_2432" data-name="Trazado 2432" d="M111,431.609v14.177a2.225,2.225,0,0,1-2.226,2.225H80.585a2.225,2.225,0,0,1-2.225-2.225V431.609Zm0,0" transform="translate(-62.372 -343.548)" fill="#aa80f9"/>
  <path id="Trazado_2433" data-name="Trazado 2433" d="M84.665,445.786V431.609H78.359v14.177a2.225,2.225,0,0,0,2.225,2.225H86.89A2.225,2.225,0,0,1,84.665,445.786Zm0,0" transform="translate(-62.372 -343.548)" fill="#9366e6"/>
  <path id="Trazado_2434" data-name="Trazado 2434" d="M80.585,393.02h28.187A2.225,2.225,0,0,1,111,395.245v6.069H78.359v-6.069A2.225,2.225,0,0,1,80.585,393.02Zm0,0" transform="translate(-62.372 -312.831)" fill="#e4eaf8"/>
  <path id="Trazado_2435" data-name="Trazado 2435" d="M86.89,393.02H80.585a2.225,2.225,0,0,0-2.225,2.225v6.069h6.306v-6.069A2.225,2.225,0,0,1,86.89,393.02Zm0,0" transform="translate(-62.372 -312.831)" fill="#d8dce5"/>
  <path id="Trazado_2436" data-name="Trazado 2436" d="M270.915,431.609v14.177a2.225,2.225,0,0,1-2.225,2.225H240.5a2.225,2.225,0,0,1-2.225-2.225V431.609Zm0,0" transform="translate(-189.661 -343.548)" fill="#aa80f9"/>
  <path id="Trazado_2437" data-name="Trazado 2437" d="M244.587,445.786V431.609h-6.306v14.177a2.225,2.225,0,0,0,2.225,2.225h6.306A2.225,2.225,0,0,1,244.587,445.786Zm0,0" transform="translate(-189.665 -343.548)" fill="#9366e6"/>
  <path id="Trazado_2438" data-name="Trazado 2438" d="M240.506,393.02h28.187a2.225,2.225,0,0,1,2.225,2.225v6.069H238.281v-6.069A2.225,2.225,0,0,1,240.506,393.02Zm0,0" transform="translate(-189.665 -312.831)" fill="#e4eaf8"/>
  <path id="Trazado_2439" data-name="Trazado 2439" d="M246.809,393.02H240.5a2.226,2.226,0,0,0-2.225,2.225v6.069h6.306v-6.069A2.226,2.226,0,0,1,246.809,393.02Zm0,0" transform="translate(-189.661 -312.831)" fill="#d8dce5"/>
</svg>
