<svg id="_001-instagram" data-name="001-instagram" xmlns="http://www.w3.org/2000/svg" width="37.003" height="37.004" viewBox="0 0 37.003 37.004">
  <g id="Grupo_1423" data-name="Grupo 1423">
    <g id="Grupo_1422" data-name="Grupo 1422">
      <path id="Trazado_2343" data-name="Trazado 2343" d="M27.757,0H9.256A9.279,9.279,0,0,0,0,9.251v18.5A9.279,9.279,0,0,0,9.256,37h18.5a9.279,9.279,0,0,0,9.251-9.251V9.251A9.279,9.279,0,0,0,27.757,0Zm6.167,27.753a6.174,6.174,0,0,1-6.167,6.167H9.256a6.175,6.175,0,0,1-6.167-6.167V9.251A6.174,6.174,0,0,1,9.256,3.084h18.5a6.173,6.173,0,0,1,6.167,6.167Z" transform="translate(-0.005)" fill="#ea82de"/>
    </g>
  </g>
  <g id="Grupo_1425" data-name="Grupo 1425" transform="translate(26.212 6.167)">
    <g id="Grupo_1424" data-name="Grupo 1424">
      <ellipse id="Elipse_208" data-name="Elipse 208" cx="2.313" cy="2.313" rx="2.313" ry="2.313" fill="#ea82de"/>
    </g>
  </g>
  <g id="Grupo_1427" data-name="Grupo 1427" transform="translate(9.251 9.251)">
    <g id="Grupo_1426" data-name="Grupo 1426">
      <path id="Trazado_2344" data-name="Trazado 2344" d="M111.656,102.4a9.251,9.251,0,1,0,9.251,9.251A9.25,9.25,0,0,0,111.656,102.4Zm0,15.419a6.168,6.168,0,1,1,6.167-6.168A6.168,6.168,0,0,1,111.656,117.819Z" transform="translate(-102.405 -102.4)" fill="#ea82de"/>
    </g>
  </g>
</svg>
