<svg xmlns="http://www.w3.org/2000/svg" width="12.556" height="12.553" viewBox="0 0 12.556 12.553">
  <path id="instagram-brands" d="M6.2,34.883A3.218,3.218,0,1,0,9.423,38.1,3.213,3.213,0,0,0,6.2,34.883Zm0,5.311A2.092,2.092,0,1,1,8.3,38.1,2.1,2.1,0,0,1,6.2,40.194Zm4.1-5.442A.751.751,0,1,1,9.554,34,.749.749,0,0,1,10.305,34.751Zm2.132.762a3.715,3.715,0,0,0-1.014-2.63,3.739,3.739,0,0,0-2.63-1.014c-1.036-.059-4.143-.059-5.179,0A3.734,3.734,0,0,0,.983,32.88a3.727,3.727,0,0,0-1.014,2.63c-.059,1.036-.059,4.143,0,5.179A3.715,3.715,0,0,0,.983,43.32a3.744,3.744,0,0,0,2.63,1.014c1.036.059,4.143.059,5.179,0a3.715,3.715,0,0,0,2.63-1.014,3.739,3.739,0,0,0,1.014-2.63C12.5,39.653,12.5,36.55,12.437,35.513ZM11.1,41.8A2.118,2.118,0,0,1,9.9,42.995a13.835,13.835,0,0,1-3.7.252,13.943,13.943,0,0,1-3.7-.252A2.118,2.118,0,0,1,1.311,41.8a13.834,13.834,0,0,1-.252-3.7,13.942,13.942,0,0,1,.252-3.7A2.118,2.118,0,0,1,2.5,33.208a13.835,13.835,0,0,1,3.7-.252,13.942,13.942,0,0,1,3.7.252A2.118,2.118,0,0,1,11.1,34.4a13.834,13.834,0,0,1,.252,3.7A13.826,13.826,0,0,1,11.1,41.8Z" transform="translate(0.075 -31.825)" fill="#44a04a"/>
</svg>
