<svg id="_002-linkedin" data-name="002-linkedin" xmlns="http://www.w3.org/2000/svg" width="37.034" height="37.004" viewBox="0 0 37.034 37.004">
  <g id="Grupo_1428" data-name="Grupo 1428" transform="translate(0)">
    <path id="Trazado_2345" data-name="Trazado 2345" d="M27.724.2H9.28A9.3,9.3,0,0,0,0,9.48V27.953A9.294,9.294,0,0,0,9.28,37.2H27.753a9.3,9.3,0,0,0,9.28-9.28V9.48A9.344,9.344,0,0,0,27.724.2ZM12.335,30.156H7.048V14.884h5.286ZM9.662,12.535a2.7,2.7,0,1,1,2.7-2.7A2.733,2.733,0,0,1,9.662,12.535ZM29.985,30.156H25.55v-7.4c0-1.791-.235-4.082-2.673-4.082-2.5,0-2.907,1.938-2.907,3.965v7.518H15.565V14.884h4.112V16.94h.117c.646-1.175,2.144-2.085,4.493-2.085,4.846,0,5.7,2.79,5.7,6.931v8.37Z" transform="translate(0 -0.2)" fill="#ea82de"/>
  </g>
</svg>
