<svg xmlns="http://www.w3.org/2000/svg" width="85.132" height="47.807" viewBox="0 0 85.132 47.807">
  <path id="Isotipo" d="M-2227.954,223.01v11.035h19.9v2.706a13.354,13.354,0,0,1,3.422-2.768,7.849,7.849,0,0,1,3.608-.778,11.308,11.308,0,0,1,5.786,1.8l-3.2,6.408a6.688,6.688,0,0,0-3.889-1.431q-5.723,0-5.723,8.648v15.71h-7V240.577h-12.9v23.766h-7V240.577h-7.87v-6.533h7.87V223.01h-12.612v47.807h85.132V223.01Zm57.65,21.642a17.066,17.066,0,0,0-4.293-4.013,8.361,8.361,0,0,0-4.386-1.12,8.646,8.646,0,0,0-6.563,2.768,9.712,9.712,0,0,0-2.614,6.937,9.93,9.93,0,0,0,2.52,7,8.494,8.494,0,0,0,6.5,2.738,8.887,8.887,0,0,0,4.448-1.089,17.617,17.617,0,0,0,4.386-4.106v9.239a18.381,18.381,0,0,1-8.523,2.209,16.308,16.308,0,0,1-11.759-4.542,15.156,15.156,0,0,1-4.728-11.354,15.359,15.359,0,0,1,4.791-11.448,16.206,16.206,0,0,1,11.758-4.666,17.57,17.57,0,0,1,8.461,2.146Z" transform="translate(2247.566 -223.01)" fill="#008944"/>
</svg>
