<svg version="1.2" xmlns="http://www.w3.org/2000/svg" viewBox="0 0 378 79" width="378" height="79">
	<title>logo-footer-white-svg</title>
	<style>
		.s0 { fill: #ffffff } 
	</style>
	<g id="&lt;Group&gt;">
		<g id="&lt;Group&gt;">
			<g id="&lt;Group&gt;">
				<path id="&lt;Compound Path&gt;" fill-rule="evenodd" class="s0" d="m137.8 0.8v75.8h-134.9v-75.8h20v17.5h-12.5v10.4h12.5v37.6h11.1v-37.6h20.4v37.6h11.1v-24.9q0-13.7 9.1-13.7 3 0 6.1 2.3l5.1-10.2q-4.8-2.8-9.2-2.8-3.3 0-5.7 1.2-2.3 1.2-5.4 4.4v-4.3h-31.5v-17.5zm-12.5 19.6q-6.3-3.4-13.4-3.4-11 0-18.6 7.4-7.6 7.4-7.6 18.1 0 10.7 7.5 18 7.5 7.2 18.6 7.2 6.8 0 13.5-3.5v-14.7q-4 4.9-6.9 6.6-3.1 1.7-7.1 1.7-6.2 0-10.3-4.4-4-4.3-4-11 0-6.7 4.2-11 4.1-4.4 10.4-4.4 4 0 6.9 1.8 3 1.7 6.8 6.3z"/>
			</g>
		</g>
		<g id="&lt;Group&gt;">
			<path id="&lt;Compound Path&gt;" class="s0" d="m167.2 68.8h-3.6v2.2h3.5v1.2h-3.5v3.1h3.6v1.3h-5v-9.1h5z"/>
			<path id="&lt;Compound Path&gt;" class="s0" d="m177.9 68.8l-1.1 0.7q-0.4-0.5-0.6-0.7-0.3-0.2-0.8-0.2-0.6 0-0.9 0.3-0.4 0.4-0.4 0.8 0 0.7 1 1.1l0.9 0.4q1.1 0.4 1.6 1.1 0.5 0.6 0.5 1.5 0 1.3-0.8 2.1-0.9 0.8-2.1 0.8-1.2 0-2-0.7-0.7-0.7-0.9-1.9l1.4-0.4q0.1 0.8 0.3 1.2 0.4 0.5 1.2 0.5 0.7 0 1.1-0.4 0.4-0.4 0.4-1.1 0-0.2-0.1-0.5 0-0.2-0.2-0.4-0.1-0.1-0.4-0.3-0.2-0.2-0.6-0.3l-0.8-0.4q-1.9-0.8-1.9-2.3 0-1 0.8-1.7 0.8-0.7 1.9-0.7 1.6 0 2.5 1.5z"/>
			<path id="&lt;Compound Path&gt;" fill-rule="evenodd" class="s0" d="m184.8 72.9v3.7h-1.3v-9.1h1.5q1.1 0 1.7 0.2 0.6 0.1 1.1 0.6 0.7 0.7 0.7 1.9 0 1.2-0.8 1.9-0.8 0.8-2.2 0.8zm0-1.3h0.5q1.8 0 1.8-1.4 0-1.4-1.9-1.4h-0.4z"/>
			<path id="&lt;Compound Path&gt;" fill-rule="evenodd" class="s0" d="m193.2 72q0-1.9 1.4-3.3 1.4-1.4 3.4-1.4 1.9 0 3.3 1.4 1.4 1.4 1.4 3.3 0 2-1.4 3.4-1.4 1.3-3.4 1.3-1.8 0-3.2-1.2-1.5-1.3-1.5-3.5zm1.4 0q0 1.5 1 2.5 1 0.9 2.3 0.9 1.4 0 2.4-0.9 1-1 1-2.5 0-1.4-1-2.4-0.9-1-2.4-1-1.4 0-2.4 1-0.9 1-0.9 2.4z"/>
			<path id="&lt;Compound Path&gt;" fill-rule="evenodd" class="s0" d="m211.2 72.7l2.8 3.9h-1.7l-2.6-3.8h-0.2v3.8h-1.4v-9.1h1.6q1.8 0 2.6 0.7 0.9 0.7 0.9 2 0 0.9-0.6 1.6-0.5 0.7-1.4 0.9zm-1.7-1h0.4q1.9 0 1.9-1.5 0-1.4-1.9-1.4h-0.4z"/>
			<path id="&lt;Compound Path&gt;" class="s0" d="m221.5 68.8v7.8h-1.3v-7.8h-2.1v-1.3h5.5v1.3z"/>
			<path id="&lt;Compound Path&gt;" class="s0" d="m233.7 68.8l-1.2 0.7q-0.3-0.5-0.5-0.7-0.3-0.2-0.8-0.2-0.6 0-0.9 0.3-0.4 0.4-0.4 0.8 0 0.7 1 1.1l0.9 0.4q1.1 0.4 1.6 1.1 0.5 0.6 0.5 1.5 0 1.3-0.8 2.1-0.9 0.8-2.1 0.8-1.2 0-2-0.7-0.7-0.7-0.9-1.9l1.4-0.4q0.1 0.8 0.3 1.2 0.4 0.5 1.2 0.5 0.7 0 1.1-0.4 0.4-0.4 0.4-1.1 0-0.2-0.1-0.5 0-0.2-0.2-0.4-0.1-0.1-0.4-0.3-0.2-0.2-0.6-0.3l-0.9-0.4q-1.8-0.8-1.8-2.3 0-1 0.8-1.7 0.7-0.7 1.9-0.7 1.6 0 2.5 1.5z"/>
			<path id="&lt;Compound Path&gt;" class="s0" d="m249.2 68.8v7.8h-1.4v-7.8h-2.1v-1.3h5.5v1.3z"/>
			<path id="&lt;Compound Path&gt;" fill-rule="evenodd" class="s0" d="m255.7 72q0-1.9 1.4-3.3 1.4-1.4 3.4-1.4 1.9 0 3.3 1.4 1.4 1.4 1.4 3.3 0 2-1.4 3.4-1.4 1.3-3.4 1.3-1.8 0-3.2-1.2-1.5-1.3-1.5-3.5zm1.4 0q0 1.5 1 2.5 1 0.9 2.3 0.9 1.4 0 2.4-0.9 1-1 1-2.5 0-1.4-1-2.4-0.9-1-2.4-1-1.4 0-2.3 1-1 1-1 2.4z"/>
			<path id="&lt;Compound Path&gt;" class="s0" d="m272 67.5v5.5q0 1.1 0.3 1.7 0.6 0.7 1.6 0.7 1.1 0 1.7-0.7 0.3-0.6 0.3-1.7v-5.5h1.4v5.8q0 1.5-0.9 2.4-1 1-2.5 1-1.4 0-2.4-1-0.9-0.9-0.9-2.4v-5.8z"/>
			<path id="&lt;Compound Path&gt;" fill-rule="evenodd" class="s0" d="m286.2 72.7l2.9 3.9h-1.7l-2.6-3.8h-0.3v3.8h-1.3v-9.1h1.6q1.8 0 2.6 0.7 0.9 0.7 0.9 2 0 0.9-0.6 1.6-0.5 0.7-1.5 0.9zm-1.7-1h0.5q1.9 0 1.9-1.5 0-1.4-1.9-1.4h-0.5z"/>
			<path id="&lt;Compound Path&gt;" class="s0" d="m294.1 76.6v-9.7l6.6 6.9v-6.3h1.4v9.6l-6.6-6.9v6.4z"/>
			<path id="&lt;Compound Path&gt;" fill-rule="evenodd" class="s0" d="m313.3 74.4h-3.9l-1 2.2h-1.5l4.5-9.7 4.3 9.7h-1.5zm-0.5-1.3l-1.4-3.1-1.4 3.1z"/>
			<path id="&lt;Compound Path&gt;" class="s0" d="m320.3 76.6l1.9-9.8 3.1 7.1 3.2-7.1 1.7 9.8h-1.4l-0.9-5.5-2.6 5.9-2.7-5.9-0.9 5.5z"/>
			<path id="&lt;Compound Path&gt;" class="s0" d="m340.8 68.8h-3.6v2.2h3.5v1.2h-3.5v3.1h3.6v1.3h-5v-9.1h5z"/>
			<path id="&lt;Compound Path&gt;" class="s0" d="m346.3 76.6v-9.7l6.6 6.9v-6.3h1.4v9.6l-6.6-6.9v6.4z"/>
			<path id="&lt;Compound Path&gt;" class="s0" d="m362.7 68.8v7.8h-1.4v-7.8h-2.1v-1.3h5.6v1.3z"/>
			<path id="&lt;Compound Path&gt;" class="s0" d="m374.8 68.8l-1.1 0.7q-0.3-0.5-0.6-0.7-0.3-0.2-0.8-0.2-0.5 0-0.9 0.3-0.4 0.4-0.4 0.8 0 0.7 1 1.1l0.9 0.4q1.1 0.4 1.6 1.1 0.5 0.6 0.5 1.5 0 1.3-0.8 2.1-0.8 0.8-2.1 0.8-1.2 0-1.9-0.7-0.8-0.7-1-1.9l1.4-0.4q0.1 0.8 0.3 1.2 0.5 0.5 1.3 0.5 0.6 0 1-0.4 0.5-0.4 0.5-1.1 0-0.2-0.1-0.5-0.1-0.2-0.2-0.4-0.2-0.1-0.4-0.3-0.3-0.2-0.6-0.3l-0.9-0.4q-1.9-0.8-1.9-2.3 0-1 0.8-1.7 0.8-0.7 2-0.7 1.5 0 2.4 1.5z"/>
		</g>
		<g id="&lt;Group&gt;">
			<path id="&lt;Compound Path&gt;" class="s0" d="m189.2 10.2l-5 2.9q-1.4-2.4-2.7-3.1-1.3-0.9-3.4-0.9-2.6 0-4.3 1.5-1.7 1.4-1.7 3.6 0 3 4.5 4.8l4 1.7q5 2 7.3 4.9 2.3 2.9 2.3 7.1 0 5.6-3.7 9.3-3.8 3.7-9.4 3.7-5.3 0-8.8-3.1-3.4-3.2-4.3-8.9l6.3-1.4q0.4 3.6 1.5 5 1.9 2.6 5.5 2.6 2.9 0 4.8-1.9 1.9-1.9 1.9-4.9 0-1.2-0.3-2.2-0.4-1-1.1-1.8-0.7-0.8-1.8-1.6-1.1-0.7-2.6-1.4l-4-1.6q-8.4-3.5-8.4-10.4 0-4.6 3.6-7.7 3.5-3.1 8.7-3.1 7.1 0 11.1 6.9z"/>
			<path id="&lt;Compound Path&gt;" fill-rule="evenodd" class="s0" d="m202.5 59h-6v-39.8h6v2.8q3.5-3.5 8-3.5 5.3 0 8.8 3.9 3.5 3.9 3.5 9.8 0 5.8-3.5 9.7-3.5 3.8-8.7 3.8-4.5 0-8.1-3.6zm14.2-26.8q0-3.7-2.1-6-2-2.4-5.1-2.4-3.3 0-5.3 2.3-2 2.3-2 6 0 3.6 2 6 2 2.3 5.3 2.3 3.1 0 5.1-2.4 2.1-2.3 2.1-5.8z"/>
			<path id="&lt;Compound Path&gt;" fill-rule="evenodd" class="s0" d="m227.8 31.9q0-5.6 4-9.5 4-3.9 9.8-3.9 5.8 0 9.8 3.9 4 4 4 9.7 0 5.8-4 9.7-4.1 3.9-9.9 3.9-5.8 0-9.7-4-4-3.9-4-9.8zm6.1 0.1q0 3.9 2.1 6.1 2.1 2.3 5.6 2.3 3.5 0 5.6-2.3 2.1-2.2 2.1-6 0-3.7-2.1-6-2.2-2.3-5.6-2.3-3.4 0-5.6 2.3-2.1 2.3-2.1 5.9z"/>
			<path id="&lt;Compound Path&gt;" class="s0" d="m261.7 19.2h5.9v2.3q1.7-1.7 2.9-2.4 1.3-0.6 3.1-0.6 2.4 0 4.9 1.5l-2.7 5.5q-1.7-1.3-3.3-1.3-4.9 0-4.9 7.4v13.4h-5.9z"/>
			<path id="&lt;Compound Path&gt;" class="s0" d="m290 24.7v20.3h-5.9v-20.3h-2.6v-5.5h2.6v-9.5h5.9v9.5h4.7v5.5z"/>
			<path id="&lt;Compound Path&gt;" class="s0" d="m313.7 23.6l-4.9 2.6q-1.2-2.4-2.9-2.4-0.8 0-1.4 0.6-0.6 0.5-0.6 1.3 0 1.5 3.5 3 4.7 2 6.3 3.7 1.7 1.8 1.7 4.7 0 3.7-2.8 6.2-2.6 2.4-6.4 2.4-6.5 0-9.2-6.3l5.1-2.4q1 1.9 1.6 2.4 1.1 1 2.6 1 3 0 3-2.8 0-1.6-2.3-2.9-0.9-0.5-1.8-0.9-0.9-0.4-1.9-0.9-2.6-1.2-3.6-2.5-1.4-1.6-1.4-4.2 0-3.3 2.3-5.5 2.4-2.2 5.8-2.2 4.9 0 7.3 5.1z"/>
		</g>
	</g>
</svg>