<svg id="logo_trc_footer" xmlns="http://www.w3.org/2000/svg" xmlns:xlink="http://www.w3.org/1999/xlink" width="190.145" height="40.507" viewBox="0 0 190.145 40.507">
  <defs>
    <clipPath id="clip-path">
      <rect id="Rectángulo_490" data-name="Rectángulo 490" width="190.145" height="40.507" fill="none"/>
    </clipPath>
  </defs>
  <g id="Grupo_892" data-name="Grupo 892" clip-path="url(#clip-path)">
    <path id="Trazado_1269" data-name="Trazado 1269" d="M16.617,0V9.349h16.86v2.293a11.321,11.321,0,0,1,2.9-2.346,6.652,6.652,0,0,1,3.058-.659,9.58,9.58,0,0,1,4.9,1.529L41.621,15.6a5.665,5.665,0,0,0-3.295-1.212q-4.85,0-4.85,7.327V35.022h-5.93V14.885H16.617V35.022h-5.93V14.885H4.019V9.349h6.668V0H0V40.507H72.132V0ZM65.464,18.337a14.465,14.465,0,0,0-3.637-3.4,7.083,7.083,0,0,0-3.716-.949,7.326,7.326,0,0,0-5.561,2.346,8.228,8.228,0,0,0-2.214,5.878,8.412,8.412,0,0,0,2.135,5.93,7.2,7.2,0,0,0,5.509,2.32,7.53,7.53,0,0,0,3.769-.923,14.935,14.935,0,0,0,3.716-3.479v7.828a15.576,15.576,0,0,1-7.222,1.871,13.818,13.818,0,0,1-9.963-3.848,12.841,12.841,0,0,1-4.006-9.62,13.014,13.014,0,0,1,4.059-9.7,13.732,13.732,0,0,1,9.963-3.953,14.889,14.889,0,0,1,7.169,1.818Z" fill="#fff"/>
    <path id="Trazado_1270" data-name="Trazado 1270" d="M313.006,23.608l6.213,8.552h-3.7l-5.732-8.214h-.546V32.16h-3.028V12.092h3.548q3.977,0,5.745,1.495a5.492,5.492,0,0,1,1.949,4.393,5.7,5.7,0,0,1-1.222,3.665,5.448,5.448,0,0,1-3.223,1.963m-3.769-2.3h.962q4.3,0,4.3-3.288,0-3.08-4.185-3.08h-1.079Z" transform="translate(-220.808 -8.72)" fill="#fff"/>
    <path id="Trazado_1271" data-name="Trazado 1271" d="M370.111,44.767h-9.072a3.845,3.845,0,0,0,1.014,2.482,3.091,3.091,0,0,0,2.3.91,2.994,2.994,0,0,0,1.806-.52,7.4,7.4,0,0,0,1.6-1.924l2.47,1.378a9.829,9.829,0,0,1-1.209,1.67,6.422,6.422,0,0,1-1.365,1.144,5.469,5.469,0,0,1-1.573.657,7.671,7.671,0,0,1-1.832.208,5.958,5.958,0,0,1-4.549-1.82,6.824,6.824,0,0,1-1.716-4.861,7.013,7.013,0,0,1,1.664-4.861,6.34,6.34,0,0,1,8.864-.052,7.005,7.005,0,0,1,1.612,4.9Zm-3-2.392a2.8,2.8,0,0,0-2.95-2.339,3.031,3.031,0,0,0-1,.162,2.869,2.869,0,0,0-.852.468,2.971,2.971,0,0,0-.656.734,3.4,3.4,0,0,0-.416.975Z" transform="translate(-258.144 -26.967)" fill="#fff"/>
    <path id="Trazado_1272" data-name="Trazado 1272" d="M418.066,39.906l-2.417,1.287q-.572-1.17-1.417-1.17a.975.975,0,0,0-.689.267.892.892,0,0,0-.286.682q0,.728,1.689,1.443a10.078,10.078,0,0,1,3.133,1.845,3.16,3.16,0,0,1,.806,2.275,3.987,3.987,0,0,1-1.352,3.067,4.847,4.847,0,0,1-7.681-1.937l2.5-1.157a5.413,5.413,0,0,0,.793,1.157,1.807,1.807,0,0,0,1.273.494q1.482,0,1.482-1.352,0-.78-1.144-1.456-.442-.221-.884-.429t-.9-.429a5.488,5.488,0,0,1-1.793-1.248,3.073,3.073,0,0,1-.663-2.041,3.609,3.609,0,0,1,1.131-2.729,3.965,3.965,0,0,1,2.807-1.079,3.83,3.83,0,0,1,3.613,2.508" transform="translate(-295.546 -26.968)" fill="#fff"/>
    <path id="Trazado_1273" data-name="Trazado 1273" d="M454.579,57.3h-2.924V37.749h2.924v1.378A5.412,5.412,0,0,1,458.5,37.4a5.473,5.473,0,0,1,4.3,1.924,6.945,6.945,0,0,1,1.716,4.822,6.839,6.839,0,0,1-1.7,4.744,5.547,5.547,0,0,1-8.24.1Zm6.954-13.14a4.372,4.372,0,0,0-.988-2.963,3.193,3.193,0,0,0-2.521-1.157,3.34,3.34,0,0,0-2.612,1.118,4.237,4.237,0,0,0-1,2.937,4.327,4.327,0,0,0,1,2.937,3.284,3.284,0,0,0,2.6,1.131,3.169,3.169,0,0,0,2.508-1.144,4.151,4.151,0,0,0,1.014-2.859" transform="translate(-325.691 -26.968)" fill="#fff"/>
    <rect id="Rectángulo_487" data-name="Rectángulo 487" width="2.924" height="21.952" transform="translate(141.925 1.488)" fill="#fff"/>
    <path id="Trazado_1274" data-name="Trazado 1274" d="M542.634,44.767h-9.072a3.845,3.845,0,0,0,1.014,2.482,3.09,3.09,0,0,0,2.3.91,3,3,0,0,0,1.807-.52,7.4,7.4,0,0,0,1.6-1.924l2.47,1.378a9.844,9.844,0,0,1-1.209,1.67,6.417,6.417,0,0,1-1.365,1.144,5.466,5.466,0,0,1-1.573.657,7.67,7.67,0,0,1-1.832.208,5.957,5.957,0,0,1-4.549-1.82,6.824,6.824,0,0,1-1.716-4.861,7.013,7.013,0,0,1,1.664-4.861,6.34,6.34,0,0,1,8.864-.052,7,7,0,0,1,1.612,4.9Zm-3-2.392a2.8,2.8,0,0,0-2.95-2.339,3.029,3.029,0,0,0-1,.162,2.87,2.87,0,0,0-.852.468,2.971,2.971,0,0,0-.656.734,3.386,3.386,0,0,0-.416.975Z" transform="translate(-382.551 -26.967)" fill="#fff"/>
    <path id="Trazado_1275" data-name="Trazado 1275" d="M585.453,37.749h2.937v1.17a4.794,4.794,0,0,1,3.457-1.521,4.367,4.367,0,0,1,3.444,1.391,5.7,5.7,0,0,1,1.066,3.86v7.759H593.42V43.338a4.639,4.639,0,0,0-.52-2.586,2.1,2.1,0,0,0-1.846-.728,2.257,2.257,0,0,0-2.066.962,6.616,6.616,0,0,0-.6,3.314v6.109h-2.937Z" transform="translate(-422.173 -26.968)" fill="#fff"/>
    <path id="Trazado_1276" data-name="Trazado 1276" d="M645.574,5.335h2.937V27.287h-2.937V25.962a5.456,5.456,0,0,1-3.912,1.69,5.57,5.57,0,0,1-4.315-1.9,7.055,7.055,0,0,1-1.7-4.835,6.821,6.821,0,0,1,1.7-4.731,5.468,5.468,0,0,1,8.227-.091Zm-6.94,15.584a4.408,4.408,0,0,0,.975,2.963,3.192,3.192,0,0,0,2.521,1.157,3.355,3.355,0,0,0,2.625-1.118,4.327,4.327,0,0,0,1-2.937,4.328,4.328,0,0,0-1-2.937,3.309,3.309,0,0,0-2.6-1.131,3.233,3.233,0,0,0-2.521,1.144,4.216,4.216,0,0,0-1,2.86" transform="translate(-458.366 -3.847)" fill="#fff"/>
    <path id="Trazado_1277" data-name="Trazado 1277" d="M304.95,126.23h1.627v-1.476h.569v3.773h-.569v-1.761H304.95v1.761h-.569v-3.773h.569Z" transform="translate(-219.49 -89.961)" fill="#fff"/>
    <path id="Trazado_1278" data-name="Trazado 1278" d="M323.645,124.755v2.272a1.25,1.25,0,0,0,.159.711.849.849,0,0,0,1.337,0,1.23,1.23,0,0,0,.159-.711v-2.272h.569v2.429a1.358,1.358,0,0,1-.372.982,1.436,1.436,0,0,1-2.05,0,1.359,1.359,0,0,1-.371-.982v-2.429Z" transform="translate(-232.972 -89.961)" fill="#fff"/>
    <path id="Trazado_1279" data-name="Trazado 1279" d="M341.4,127.795l.794-4.056,1.295,2.932,1.341-2.932.713,4.056h-.584l-.364-2.277-1.117,2.451-1.085-2.453-.406,2.279Z" transform="translate(-246.182 -89.229)" fill="#fff"/>
    <path id="Trazado_1280" data-name="Trazado 1280" d="M365.754,127h-1.615l-.42.916h-.613l1.867-4.009,1.8,4.009h-.623Zm-.232-.535-.559-1.283-.586,1.283Z" transform="translate(-261.837 -89.349)" fill="#fff"/>
    <path id="Trazado_1281" data-name="Trazado 1281" d="M383.483,127.864v-4.029l2.751,2.878v-2.622h.569v4l-2.751-2.871v2.641Z" transform="translate(-276.531 -89.298)" fill="#fff"/>
    <path id="Trazado_1282" data-name="Trazado 1282" d="M417.543,124.768v.674a1.579,1.579,0,0,0-1.021-.413,1.3,1.3,0,0,0-.98.418,1.409,1.409,0,0,0-.4,1.017,1.375,1.375,0,0,0,.4,1,1.323,1.323,0,0,0,.982.408,1.208,1.208,0,0,0,.51-.1,1.494,1.494,0,0,0,.243-.132,2.864,2.864,0,0,0,.265-.2v.687a2.058,2.058,0,0,1-1.026.276,1.893,1.893,0,0,1-1.381-.564,1.871,1.871,0,0,1-.569-1.373,1.937,1.937,0,0,1,.476-1.285,1.9,1.9,0,0,1,1.517-.691,1.928,1.928,0,0,1,.982.276" transform="translate(-298.946 -89.772)" fill="#fff"/>
    <path id="Trazado_1283" data-name="Trazado 1283" d="M434.448,127h-1.615l-.42.916H431.8l1.866-4.009,1.8,4.009h-.623Zm-.232-.535-.56-1.283-.586,1.283Z" transform="translate(-311.372 -89.349)" fill="#fff"/>
    <path id="Trazado_1284" data-name="Trazado 1284" d="M452.746,126.995v1.532h-.569v-3.773h.645a2.918,2.918,0,0,1,.716.066.962.962,0,0,1,.43.249,1.073,1.073,0,0,1,.325.8,1.034,1.034,0,0,1-.347.821,1.374,1.374,0,0,1-.936.3Zm0-.528h.212q.784,0,.784-.6,0-.584-.809-.584h-.188Z" transform="translate(-326.066 -89.961)" fill="#fff"/>
    <rect id="Rectángulo_488" data-name="Rectángulo 488" width="0.57" height="3.773" transform="translate(130.356 34.793)" fill="#fff"/>
    <path id="Trazado_1285" data-name="Trazado 1285" d="M478.249,125.29v3.237h-.569V125.29h-.867v-.535h2.3v.535Z" transform="translate(-343.832 -89.962)" fill="#fff"/>
    <path id="Trazado_1286" data-name="Trazado 1286" d="M493.522,127h-1.615l-.42.916h-.613l1.866-4.009,1.8,4.009h-.623Zm-.232-.535-.559-1.283-.587,1.283Z" transform="translate(-353.972 -89.349)" fill="#fff"/>
    <path id="Trazado_1287" data-name="Trazado 1287" d="M511.821,124.755v3.237h1.109v.535h-1.679v-3.773Z" transform="translate(-368.666 -89.961)" fill="#fff"/>
    <path id="Trazado_1288" data-name="Trazado 1288" d="M537.463,125.127,537,125.4a.8.8,0,0,0-.247-.293.576.576,0,0,0-.315-.078.582.582,0,0,0-.393.134.417.417,0,0,0-.156.332q0,.276.41.445l.376.154a1.608,1.608,0,0,1,.672.453,1.022,1.022,0,0,1,.212.656,1.152,1.152,0,0,1-.347.86,1.192,1.192,0,0,1-.867.342,1.16,1.16,0,0,1-.811-.291,1.337,1.337,0,0,1-.393-.819l.576-.127a.985.985,0,0,0,.137.459.65.65,0,0,0,.956.066.618.618,0,0,0,.176-.452.634.634,0,0,0-.031-.2.515.515,0,0,0-.1-.168.765.765,0,0,0-.168-.144,1.591,1.591,0,0,0-.244-.128l-.364-.151a1.048,1.048,0,0,1-.775-.958.909.909,0,0,1,.325-.711,1.175,1.175,0,0,1,.809-.288,1.129,1.129,0,0,1,1.019.635" transform="translate(-385.894 -89.772)" fill="#fff"/>
    <path id="Trazado_1289" data-name="Trazado 1289" d="M551.139,126.441a1.849,1.849,0,0,1,.584-1.369,1.923,1.923,0,0,1,1.4-.571,1.973,1.973,0,0,1,1.962,1.962,1.855,1.855,0,0,1-.581,1.38,1.994,1.994,0,0,1-2.722.064,1.854,1.854,0,0,1-.64-1.466m.574.007a1.364,1.364,0,0,0,.42,1.029,1.392,1.392,0,0,0,1.967-.007,1.465,1.465,0,0,0,0-2.023,1.407,1.407,0,0,0-1.986,0,1.36,1.36,0,0,0-.406,1" transform="translate(-397.429 -89.778)" fill="#fff"/>
    <path id="Trazado_1290" data-name="Trazado 1290" d="M573.953,124.755v3.237h1.109v.535h-1.679v-3.773Z" transform="translate(-413.47 -89.961)" fill="#fff"/>
    <path id="Trazado_1291" data-name="Trazado 1291" d="M587.444,124.755v2.272a1.251,1.251,0,0,0,.159.711.849.849,0,0,0,1.337,0,1.228,1.228,0,0,0,.159-.711v-2.272h.569v2.429a1.359,1.359,0,0,1-.371.982,1.437,1.437,0,0,1-2.05,0,1.358,1.358,0,0,1-.372-.982v-2.429Z" transform="translate(-423.198 -89.961)" fill="#fff"/>
    <path id="Trazado_1292" data-name="Trazado 1292" d="M605.685,125.29v3.237h-.57V125.29h-.867v-.535h2.3v.535Z" transform="translate(-435.727 -89.962)" fill="#fff"/>
    <rect id="Rectángulo_489" data-name="Rectángulo 489" width="0.57" height="3.773" transform="translate(172.876 34.793)" fill="#fff"/>
    <path id="Trazado_1293" data-name="Trazado 1293" d="M630.013,126.441a1.849,1.849,0,0,1,.584-1.369,1.923,1.923,0,0,1,1.4-.571,1.973,1.973,0,0,1,1.962,1.962,1.855,1.855,0,0,1-.581,1.38,1.994,1.994,0,0,1-2.722.064,1.853,1.853,0,0,1-.64-1.466m.575.007a1.364,1.364,0,0,0,.42,1.029,1.392,1.392,0,0,0,1.967-.007,1.465,1.465,0,0,0,.005-2.023,1.407,1.407,0,0,0-1.987,0,1.361,1.361,0,0,0-.405,1" transform="translate(-454.306 -89.778)" fill="#fff"/>
    <path id="Trazado_1294" data-name="Trazado 1294" d="M652.257,127.864v-4.029l2.751,2.878v-2.622h.569v4l-2.751-2.871v2.641Z" transform="translate(-470.346 -89.298)" fill="#fff"/>
    <path id="Trazado_1295" data-name="Trazado 1295" d="M674.588,125.127l-.462.274a.8.8,0,0,0-.247-.293.576.576,0,0,0-.315-.078.583.583,0,0,0-.394.134.417.417,0,0,0-.156.332q0,.276.411.445l.376.154a1.607,1.607,0,0,1,.672.453,1.021,1.021,0,0,1,.212.656,1.151,1.151,0,0,1-.347.86,1.191,1.191,0,0,1-.867.342,1.16,1.16,0,0,1-.811-.291,1.337,1.337,0,0,1-.393-.819l.576-.127a.985.985,0,0,0,.137.459.65.65,0,0,0,.955.066.617.617,0,0,0,.176-.452.632.632,0,0,0-.03-.2.515.515,0,0,0-.1-.168.761.761,0,0,0-.167-.144,1.589,1.589,0,0,0-.244-.128l-.364-.151a1.048,1.048,0,0,1-.775-.958.91.91,0,0,1,.325-.711,1.175,1.175,0,0,1,.809-.288,1.129,1.129,0,0,1,1.019.635" transform="translate(-484.775 -89.772)" fill="#fff"/>
  </g>
</svg>
