<svg version="1.2" xmlns="http://www.w3.org/2000/svg" viewBox="0 0 1126 1126" width="500" height="500"><defs><linearGradient id="P" gradientUnits="userSpaceOnUse"/><linearGradient id="g1" x2="1" href="#P" gradientTransform="matrix(524.897,0,0,997.242,249.929,34.451)"><stop stop-color="#e448c2"/><stop offset=".99" stop-color="#723bcd"/></linearGradient><linearGradient id="g2" x2="1" href="#P" gradientTransform="matrix(513.406,0,0,419.82,243.148,593.65)"><stop stop-color="#e448c2"/><stop offset=".99" stop-color="#723bcd"/></linearGradient><linearGradient id="g3" x2="1" href="#P" gradientTransform="matrix(35.534,0,0,35.534,327.28,669.744)"><stop stop-color="#e448c2"/><stop offset="1" stop-color="#723bcd"/></linearGradient><clipPath clipPathUnits="userSpaceOnUse" id="cp1"><path d="m250.27 601.08c5.23-8.23 11.4-15.91 19-22.73l5.74-421.35c8.43 34.3 280.45 55.67 491.9 94.49 1.36-44.56-145.95-49.89-364.36-83.02-252.69-28.81 2.64-127.01-19.52-135.09-85.44 39.51-127.04 39.51-127.46 119.89-5.2 162.58-7.54 312.5-5.3 447.81z"/></clipPath></defs><style>.a{fill:#ccd2ff;stroke:#ef14da;stroke-miterlimit:10;stroke-width:2}.b{fill:none;stroke:#aabdf7;stroke-miterlimit:10;stroke-width:2}.c{fill:#fafafa}.d{fill:#aabdf7}.e{fill:#ccd2ff}.f{fill:url(#g1)}.g{fill:#fff}.h{fill:#0d004e}.i{fill:#f8f9fd}.j{fill:#271c8b}.k{fill:#a3b3ff}.l{fill:#99aaeb}.m{fill:#8b81df}.n{fill:#a2b2ff}.o{fill:url(#g2)}.p{fill:#ebaddb}.q{fill:url(#g3)}.r{fill:#4e30c6}</style><path class="a" d=""/><path class="b" d=""/><path class="b" d=""/><path  d="m208.1 882.1c0-45.6 8-745.7 8-745.7 0-29.6 13.2-63.6 43.7-80.5 30.6-16.9 65.7-33.1 92.1-44 18.4-7.5 36.6-7.1 53-5.3 27.3 3 37.5 29.5 37.5 29.5 0 0 436.4 48.7 466.6 58.6 24.2 7.9 51.8 41.8 51.8 89.9 0 58.5 0 383.7 0 383.7 0 22.1-4.1 44-12.2 64.7l-140.2 282.5c0 0-258.1-98.3-321.4-101.8-63.3-3.5-278.9 68.4-278.9 68.4z"/><path class="c" d="m451.4 76.3l-104.8 47.4c-0.8 0.4-0.7 1.6 0.3 1.7 0 0 323.6 47.4 377.5 55.5 46.8 7 69.2 22.7 82.5 49.6 4.4 9 8.8 32.1 9.8 53.9l-4 386.9c0 9.3-4.3 149.7-4.3 149.7 0.8 1.5 3 1.4 3.7-0.2 0 0 74.1-126 85.3-156.2 12.6-34 22.6-58.4 22.6-73.5l2-393.2c0-48.6-19.6-69.5-65.7-74.9-43.4-5-384.7-49.8-384.7-49.8-6.9-0.9-13.9 0.2-20.2 3.1z"/><path class="d" d="m922 185.5l-111.6 54.9c0 0.4 0.2 0.6 0.3 1.5 0.1 0.6 1.5 6.4 2.8 14.6 2.2 13.1 3.2 26.5 3.1 39.8l-3.9 375 42.2 50.5c0 0 33.3-37.4 42.5-57.2 9.2-19.9 22.6-86.3 22.6-86.3z"/><path class="e" d=""/><path class="f" d="m633.3 1031.7c-64.5 0-74.6-78.2-117.6-155.7-2.4-4.2-7.1-5.1-8.9-6.3l-46.2-9c-4.6-0.9-9.4 0.7-12.5 4.3-33 38.1-85.8 148.9-163.4 107-32.8-17.7-31.7-82.9-32-110.6-0.4-27.7-9.8-708.5 8.3-748.9 17-38 94.3-67.3 117.3-77 3.1-1.3 6.6-1.4 9.8-0.2 11.2 4.3 11.3 20.1 0.2 24.5-38.6 15.5-100.7 31.9-98.4 66.7 2.4 36.2 118 39.9 236.1 59.6 92.1 15.3 185.5 29.3 221.4 42.9 15.8 6 27.4 26.6 27.4 84.6 0 240.2-5.3 387.8-5.3 494.8 0 130.6-38.7 223.3-136.2 223.3z"/><path  d="m318.4 355.6c0 36.8 29.9 66.7 66.7 66.7 36.9 0 66.8-29.9 66.8-66.7 0-36.9-29.9-66.7-66.8-66.7-36.8 0-66.7 29.8-66.7 66.7z"/><path class="g" d="m354.9 328c0 21.2 17.1 38.4 38.3 38.4 21.2 0 38.4-17.2 38.4-38.4 0-21.2-17.2-38.4-38.4-38.4-21.2 0-38.3 17.2-38.3 38.4z"/><path  d="m599.9 384c0 36.9 29.8 66.7 66.7 66.7 36.8 0 66.7-29.8 66.7-66.7 0-36.8-29.9-66.7-66.7-66.7-36.9 0-66.7 29.9-66.7 66.7z"/><path class="g" d="m636.3 356.5c0 21.2 17.2 38.3 38.4 38.3 21.2 0 38.4-17.1 38.4-38.3 0-21.2-17.2-38.4-38.4-38.4-21.2 0-38.4 17.2-38.4 38.4z"/><path  d="m528.7 526.4q-5 0-10.4-0.6c-32.6-3.7-52.8-22.1-57-51.9-1.5-11 6.2-21.1 17.1-22.6 10.9-1.5 21.1 6.1 22.6 17.1 1.1 7.8 3.6 15.6 21.8 17.6 22.9 2.6 26.6-8.5 28.2-13.3 3.5-10.4 14.9-16.1 25.3-12.5 10.5 3.5 16.1 14.8 12.6 25.3-8.8 26.1-30.9 40.9-60.2 40.9z"/><path class="h" d="m917.5 1068.7c0-28.4-169.3-51.4-378.1-51.4-208.8 0-378.1 23-378.1 51.4 0 28.4 169.3 51.4 378.1 51.4 208.8 0 378.1-23 378.1-51.4z"/><path  d="m258.2 590.6c6.6-8 20.2-24.1 43.3-34.7 24.9-11.4 60.1-10 71.5-8.5 36.9 5.1 113.5 21.2 168.7 32.8 133.5 28 226.7 58.7 226.7 58.7 20.3 9.3 52.2 25.1 74.3 59.4 6.1 9.4 14.7 25.2 21.1 55.7 0 0 32.4 123.4-49.5 236.6-8.6 11.8-25.8 28.7-31.5 32.3-23.5 14.9-41.8 1.9-41.8 1.9 0 0-12.5 9.5-24.6 19-25.4 20.1-58.7 24.7-73 24.8-5.9 0-58.6 3.7-88-35.9-33.9-45.7-69.3-122.6-69.3-122.6-4.5-2.1-12.8-5.9-22.3-3.7 0 0-19.7 32.2-39.6 55.7-1.8 2-31.5 45.2-83 53.2-51.9 8.2-91-24.5-94.1-27.2-21.3-18.3-32.1-42-40.9-76.8-35.4-140.4 11.1-271.3 52-320.7z"/><path class="i" d="m297.5 978.4c26.4 6.1 50.9-3.3 58.4-9.1 48.4-37.4 90.4-110.1 90.4-110.1 24.9 1.6 58.6 13.1 62.3 15.9 0 0 18.9 53.3 48.6 98.8 5.9 9.1 40.8 61.9 85.8 62.2 47.7 0.4 75.1-47.5 84.9-78.1 25.1-78.6 69.4-156.2 43.5-241.2-3.5-11.5-11.6-30.2-33.2-45.7-42.3-30.5-104.6-34.3-220.5-61-70.7-16.3-106-25.9-167.8-38-19.1-3.7-34.3 1.8-49.4 12.2-47.9 33-69.9 104.4-78.2 184.5-4.2 40.4-1 86.8 8.2 137.4 5.2 28.8 24.1 62.4 67 72.2z"/><path class="j" d="m779.9 664.5c10.1-3.5 82.1 68.3 63.5 187.7-13.8 88.5-82.2 150.5-91.2 145.2-7.8-4.7 27-59.8 45-149.8 27.9-139.6-26.1-180-17.3-183.1z"/><path  d="m165.8 912.7c-13.5 0-26.9-2.8-38.9-8-40.9-17.9-52.5-59.7-59.5-84.6-21.7-78.2 9-143.6 13.9-156.6 17.9-48 90.8-122 134.5-122 0 0 0.9 55.6 0.9 82.2 0 18.1-0.6 99.6-0.6 113.6 0 8.3 0.4 25.3 1.3 30.4 0.6 0.5 1.7 1.2 4 2.8 7.6 5.2 15.8 14.8 23.2 35.1 9.8 26.7 2.9 59.3-17.1 81.1-15.3 16.8-37.2 26-61.7 26z"/><path class="i" d="m182.1 613c2 1.1 4 4.2 0 41.4-4.3 39.4-8.3 52.5-9.8 80.7-1.5 28.1-2.1 42.3 5.6 54 10.3 15.5 23.8 14.7 29.4 30.1 4.9 13.5 0.6 30.1-9.1 40.7-15 16.5-40.2 15.1-55.4 8.4-23.6-10.3-31-36.8-37.2-58.9-18.4-66.1 8.1-122 11.3-128.3 19.3-39.3 54.6-73.8 65.2-68.1z"/><path class="k" d="m771.4 716.8c45.6 99.5-76.5 430.6-186.9 292.6 98.3 48.7 150.9-105 186.9-292.6z"/><path class="l" d="m105.6 809.9c6.2 22.1 13.6 48.6 37.2 58.9 15.2 6.7 41.7 9.2 55.4-8.4 7.1-9 8.5-14.3 9.5-17.6-12.5 21.8-36 15.6-53.3 7-59.7-29.2-31.6-158.3-41.5-159.1-7.8 19.5-22.1 66-7.3 119.2z"/><path class="m" d="m856.8 770.8c1.1-42.4 2.8-100 2.8-106.4l0.4-386.2c0-78.8 6.9-103.3-46.9-112.5-37.3-6.4-268.2-39.8-342.7-52.3l12.6-6.8q4.5-2.4 9.4-2.4 1.4 0 2.9 0.2c8.8 1.4 303.9 46.1 335.6 49.9 40.4 4.9 47.3 31.2 48.5 63.6l-2.3 524.8"/><path  d="m914.2 579.4c-30.7 9.3-8.2 72.3-59.3 142.4-39.5 54.1-78.9 52.4-93.8 103.2-0.9 3.3-16.4 59.2 15.5 91.4 25.1 25.4 65.1 21.2 74.7 20.2 93.1-9.8 194.1-134.5 169.7-243.3-14.7-65.5-74.7-123.6-106.8-113.9z"/><path class="i" d="m835.9 897.8c-8.2 0-23.1-1.2-31.1-9.3-12-12.1-8.9-40.5-5.5-52.4 4.3-15 10.5-20.2 29.4-34.3 16.6-12.5 37.4-28 58.2-56.6 32.9-45 40.4-87.7 45.3-115.9 0.3-1.5 0.6-3.1 0.9-4.8 16.7 12.7 41.2 42.1 49.2 77.5 8.6 38.3-3.3 83.7-32.6 124.5-28.2 39.3-68.4 67-102.5 70.6-2.4 0.2-6.4 0.7-11.3 0.7q0 0 0 0z"/><path class="n" d="m949.7 799.4c-28.2 39.3-68.4 67-102.5 70.5-2.4 0.3-6.4 0.7-11.3 0.7q0 0 0 0c-8.2 0-23.1-1.2-31.1-9.3-3.9-3.9-6.1-9.4-7.4-15.6-2.1 13.7-2.2 34 7.4 43.6 8 8.1 22.9 9.3 31.1 9.3q0 0 0 0c4.9 0 8.9-0.4 11.3-0.6 34.1-3.6 74.3-31.3 102.5-70.6 26.4-36.8 38.7-77.2 34.5-112.9-3 28-14.8 57.5-34.5 84.9z"/><path class="k" d="m433.7 835.7l12.6 23.5c-21 41.6-55.8 80.8-90.4 110.1-44.2 23.8-66.6 8.1-90.4-5 49.8 24.9 106.3-22.7 168.2-128.6z"/><path class="o" d="m643.2 1013.5c-24.6-0.2-50.7-27-67-52-27.9-42.7-46.1-93.4-46.3-94l-2.2-6.3-5.4-4.1c-9.4-7.2-48.7-18.9-74.5-20.5l-14.1-0.9-7 12.2c-0.4 0.6-40.5 69.3-84.6 103.5-2.4 1.6-13.2 6.3-27 6.3q0 0 0 0c-4.3 0-8.6-0.5-12.6-1.4-37.6-8.6-47.3-40.7-49.7-54.1-9.1-50.3-11.8-94.3-8-131 9-86.5 32.1-143 68.6-168.2 9.4-6.6 16.8-9.3 24.7-9.3 2.4 0 4.9 0.2 7.4 0.7 42.1 8.2 71.7 15.2 109.2 24.2 16.7 4 35.7 8.5 57.9 13.6 33.3 7.7 62 13.4 87.3 18.5 59.5 11.9 98.8 19.8 125.1 38.8 12.3 8.9 20.4 20 24.7 33.9 18.2 59.7-3 116.7-25.4 177-6.2 16.5-12.5 33.6-18 50.7-2 6.4-21.1 62.4-62.8 62.4z"/><path  d="m633.2 711.6c0 15.1-12.2 27.4-27.3 27.4-15.1 0-27.3-12.3-27.3-27.4 0-15 12.2-27.3 27.3-27.3 15.1 0 27.3 12.3 27.3 27.3z"/><path  d="m713.1 739c0 15-12.3 27.3-27.4 27.3-15 0-27.3-12.3-27.3-27.3 0-15.1 12.3-27.4 27.3-27.4 15.1 0 27.4 12.3 27.4 27.4z"/><path  d="m735.4 807.6c0 15-12.3 27.3-27.4 27.3-15 0-27.3-12.3-27.3-27.3 0-15.1 12.3-27.4 27.3-27.4 15.1 0 27.4 12.3 27.4 27.4z"/><path class="p" d="m526.2 735.1q-3 0-5.9-0.9l-10.4-3c-10.8-3.1-16.8-14-13.6-24.3 2.6-8.1 10.7-13.8 19.6-13.8q3 0 5.9 0.9l10.4 3c10.8 3.1 16.8 14.1 13.6 24.3-2.6 8.1-10.7 13.8-19.6 13.8z"/><path class="p" d="m459.3 768.3q-3 0-5.9-0.8l-10.4-3.1c-10.8-3.1-16.9-14-13.6-24.3 2.6-8.1 10.6-13.8 19.5-13.8q3.1 0.1 6 0.9l10.4 3c10.7 3.2 16.8 14.1 13.5 24.3-2.6 8.2-10.6 13.8-19.5 13.8z"/><path class="p" d="m466.6 719.3q-3.1 0-6-0.8l-10.4-3.1c-10.7-3.1-16.8-14-13.5-24.3 2.6-8.1 10.6-13.7 19.5-13.7q3 0 5.9 0.8l10.5 3c10.7 3.2 16.8 14.1 13.5 24.4-2.6 8.1-10.6 13.7-19.5 13.7z"/><path  d="m464.5 708.3l-12.8-3.9c-7.3-2.2-11.4-10-9.2-17.3 2.2-7.3 10-11.4 17.3-9.2l12.8 4c7.3 2.2 11.4 10 9.2 17.2-2.2 7.3-10 11.4-17.3 9.2z"/><path  d="m523.4 724.1l-12.8-3.9c-7.3-2.3-11.4-10-9.2-17.3 2.2-7.3 10-11.4 17.3-9.2l12.8 3.9c7.3 2.3 11.4 10 9.2 17.3-2.2 7.3-10 11.4-17.3 9.2z"/><path class="p" d="m519 784.1q-3.1 0-6-0.9l-10.4-3c-10.7-3.1-16.8-14-13.5-24.3 2.6-8.1 10.6-13.8 19.5-13.8q3 0 5.9 0.9l10.5 3c10.7 3.1 16.8 14 13.5 24.3-2.6 8.1-10.6 13.8-19.5 13.8z"/><path  d="m457.3 757.3l-12.9-3.9c-7.2-2.3-11.4-10-9.2-17.3 2.3-7.3 10-11.4 17.3-9.2l12.9 4c7.2 2.2 11.4 9.9 9.1 17.2-2.2 7.3-10 11.4-17.2 9.2z"/><path  d="m516.2 773.1l-12.9-3.9c-7.2-2.3-11.4-10-9.2-17.3 2.3-7.3 10-11.4 17.3-9.2l12.9 3.9c7.2 2.3 11.4 10 9.1 17.3-2.2 7.3-10 11.4-17.2 9.2z"/><path  d="m344.2 742.1c18.6 5.7 18-19.5 20.9-29.3 9.8-1.4 35.4 3.9 36.1-10.5 4.5-32.7 2.6-29.9-31.2-35.3l4-31.9c1.3-8.3-3.3-11.5-15.2-13.6-12-2-21.9-2.5-23.6 7.2 0 0-6.5 31.6-6.5 31.6-34.2-3.8-34.9-7-41.1 25.4-4.1 13.9 22.1 15.8 31 19.7-2.7 28.9-9.5 31 25.6 36.7z"/><path class="q" d="m362.8 687.5c0 9.8-7.9 17.8-17.8 17.8-9.8 0-17.7-8-17.7-17.8 0-9.8 7.9-17.8 17.7-17.8 9.9 0 17.8 8 17.8 17.8z"/><path  d="m360.4 849.8c-38.9 0-70.5-31.6-70.5-70.4 0-38.9 31.6-70.5 70.5-70.5 38.8 0 70.4 31.6 70.4 70.5 0 38.8-31.6 70.4-70.4 70.4z"/><path class="i" d="m400.4 779.4c0 22.1-17.9 40-40 40-22.2 0-40.1-17.9-40.1-40 0-22.2 17.9-40.1 40.1-40.1 22.1 0 40 17.9 40 40.1z"/><path class="l" d="m395.4 760.5c1.9 4.6 2.9 9.6 2.9 14.8 0 22.1-18 40.1-40.1 40.1-14.6 0-27.4-7.9-34.4-19.6 5.9 14.8 20.4 25.3 37.2 25.3 22.2 0 40.1-18 40.1-40.1 0-7.5-2.1-14.5-5.7-20.5z"/><path  d="m591.5 896.1c-38.8 0-70.5-31.6-70.5-70.4 0-38.9 31.7-70.5 70.5-70.5 38.9 0 70.5 31.6 70.5 70.5 0 38.8-31.6 70.4-70.5 70.4z"/><path class="i" d="m631.6 825.7c0 22.1-17.9 40-40.1 40-22.1 0-40.1-17.9-40.1-40 0-22.2 18-40.1 40.1-40.1 22.2 0 40.1 17.9 40.1 40.1z"/><path class="l" d="m626.6 806.6c1.9 4.6 2.9 9.6 2.9 14.8 0 22.1-17.9 40.1-40.1 40.1-14.6 0-27.3-7.9-34.3-19.6 5.9 14.8 20.3 25.3 37.2 25.3 22.1 0 40-18 40-40.1 0-7.5-2.1-14.5-5.7-20.5z"/><path class="r" d="m394 895.9c-40.6 69.6-123.9 107.2-143.3-5.9 23.9 35.4 95.3 47.4 143.3 5.9z"/><path class="r" d="m555.9 924.8c68.5 143.9 136.8 98.3 163-15.7-20.2 88.1-127.4 55.4-163 15.7z"/><g clip-path="url(#cp1)"></g></svg>