<svg id="ranking2" xmlns="http://www.w3.org/2000/svg" xmlns:xlink="http://www.w3.org/1999/xlink" width="28.374" height="41.061" viewBox="0 0 28.374 41.061">
  <defs>
    <linearGradient id="linear-gradient" x1="0.5" x2="0.5" y2="1" gradientUnits="objectBoundingBox">
      <stop offset="0" stop-color="#ba973b"/>
      <stop offset="0.123" stop-color="#a57d24"/>
      <stop offset="0.262" stop-color="#f1dd80"/>
      <stop offset="0.367" stop-color="#f1dd80"/>
      <stop offset="0.471" stop-color="#d9bf63"/>
      <stop offset="0.599" stop-color="#c2a247"/>
      <stop offset="0.725" stop-color="#b28d33"/>
      <stop offset="0.85" stop-color="#a88128"/>
      <stop offset="0.969" stop-color="#a57d24"/>
    </linearGradient>
    <linearGradient id="linear-gradient-2" x1="0.5" y1="0.341" x2="0.5" y2="1.178" xlink:href="#linear-gradient"/>
    <linearGradient id="linear-gradient-4" x1="0.5" y1="0.331" x2="0.5" y2="1.149" xlink:href="#linear-gradient"/>
    <linearGradient id="linear-gradient-5" x1="0" y1="0.5" x2="1" y2="0.5" xlink:href="#linear-gradient"/>
  </defs>
  <text id="_2" data-name="2" transform="translate(13.642 20.625)" fill="#ba973b" font-size="16" font-family="HelveticaNeue-Bold, Helvetica Neue" font-weight="700"><tspan x="-4" y="0">2</tspan></text>
  <g id="Grupo_482" data-name="Grupo 482" transform="translate(0 0)">
    <path id="Trazado_487" data-name="Trazado 487" d="M414.186,186.5,411.82,180.1l-2.978-8.061c-.082.052-.164.1-.247.155l.637,1.725,3.822,10.348.763,2.065L410,184.649a.146.146,0,0,0-.2.051l-1.825,3.783-2.265-6.132-3.137-8.494h-.013c-.1,0-.2,0-.294-.007l.857,2.32,3.822,10.348.875,2.368c.039.1.2.155.262.034l1.911-3.962,4,1.757a.146.146,0,0,0,.079.01.13.13,0,0,0,.138-.128A.109.109,0,0,0,414.186,186.5Z" transform="translate(-388.373 -147.93)" fill="url(#linear-gradient)"/>
    <path id="Trazado_488" data-name="Trazado 488" d="M359.215,174.162a11.682,11.682,0,0,1-6.159-1.745L347.708,186.9l4.143-1.819,1.966,4.076,5.538-14.994C359.308,174.159,359.262,174.162,359.215,174.162Z" transform="translate(-345.028 -148.234)" fill="url(#linear-gradient-2)"/>
    <path id="Trazado_489" data-name="Trazado 489" d="M358.646,173.858h-.013l-.826,2.236-3.822,10.348-.754,2.042-1.825-3.783a.147.147,0,0,0-.2-.051l-3.821,1.677,2.274-6.155,2.948-7.983c-.083-.05-.165-.1-.247-.155l-.666,1.8-3.822,10.348-.855,2.316a.11.11,0,0,0-.026.1.13.13,0,0,0,.138.129.146.146,0,0,0,.079-.01l4-1.757,1.911,3.962c.059.121.223.071.262-.034l2.386-6.458,3.168-8.578C358.843,173.853,358.745,173.858,358.646,173.858Z" transform="translate(-344.46 -147.93)" fill="url(#linear-gradient)"/>
    <g id="Grupo_481" data-name="Grupo 481" transform="translate(0 0)">
      <g id="Grupo_477" data-name="Grupo 477" transform="translate(0.143 0.143)">
        <path id="Trazado_490" data-name="Trazado 490" d="M403.155,174.162c-.047,0-.094,0-.141,0l5.538,14.994,1.966-4.076,4.143,1.819-5.348-14.479A11.682,11.682,0,0,1,403.155,174.162Z" transform="translate(-389.111 -148.378)" fill="url(#linear-gradient-4)"/>
        <path id="Trazado_491" data-name="Trazado 491" d="M363.416,72.019A2.847,2.847,0,0,0,363.051,71a4.277,4.277,0,0,1-.616-1.043,1.77,1.77,0,0,1,.089-1.185c.163-.365.467-.639.64-1a2.935,2.935,0,0,0-1.54-3.958,1.822,1.822,0,0,1-1.224-1.682c0-.352.089-.688.057-1.043a2.895,2.895,0,0,0-2.306-2.6c-.77-.148-1.538.186-2.257-.226s-.814-1.261-1.337-1.855a2.9,2.9,0,0,0-4.06-.256,1.838,1.838,0,0,1-2.332-.123,2.9,2.9,0,0,0-4.139.682c-.2.282-.285.61-.453.9a1.761,1.761,0,0,1-.916.775,2.052,2.052,0,0,1-.985.074,3,3,0,0,0-1.3.1,2.944,2.944,0,0,0-1.76,1.576,2.88,2.88,0,0,0-.26,1.2,5.216,5.216,0,0,1,.033,1.151,1.777,1.777,0,0,1-.544.945,4.844,4.844,0,0,1-1,.542,2.932,2.932,0,0,0-1.036,4.056,3.721,3.721,0,0,1,.583.992,1.765,1.765,0,0,1-.155,1.311c-.169.308-.423.553-.574.874a2.984,2.984,0,0,0-.29,1.19,2.949,2.949,0,0,0,.8,2.074c.531.568,1.366.66,1.855,1.252.582.7.267,1.421.354,2.229a2.923,2.923,0,0,0,1.22,2.067,3.088,3.088,0,0,0,2.214.471,1.808,1.808,0,0,1,1.881,1.092,3.057,3.057,0,0,0,1.474,1.655,2.924,2.924,0,0,0,2.284.108c.768-.293,1.272-1,2.175-.887.8.1,1.313.811,2.1.993a2.894,2.894,0,0,0,3.046-1.14c.226-.315.319-.684.522-1.008a1.909,1.909,0,0,1,2.02-.773,2.9,2.9,0,0,0,3.171-2.894,5.861,5.861,0,0,1-.045-1.088,1.779,1.779,0,0,1,.605-1.05,5.486,5.486,0,0,1,.953-.5,2.884,2.884,0,0,0,.914-.819A2.922,2.922,0,0,0,363.416,72.019Zm-14.009,9.208a11.74,11.74,0,1,1,11.74-11.74A11.74,11.74,0,0,1,349.406,81.227Z" transform="translate(-335.362 -55.443)" fill="url(#linear-gradient-5)"/>
        <g id="Grupo_476" data-name="Grupo 476" transform="translate(3.444 3.445)">
          <path id="Trazado_492" data-name="Trazado 492" d="M362.721,93.406a10.6,10.6,0,1,1,10.6-10.6A10.612,10.612,0,0,1,362.721,93.406Zm0-20.912a10.313,10.313,0,1,0,10.313,10.313A10.324,10.324,0,0,0,362.721,72.493Z" transform="translate(-352.122 -72.207)" fill="url(#linear-gradient-5)"/>
        </g>
      </g>
      <g id="Grupo_480" data-name="Grupo 480" transform="translate(0 0)">
        <g id="Grupo_478" data-name="Grupo 478" transform="translate(2.304 2.305)">
          <path id="Trazado_493" data-name="Trazado 493" d="M357.759,89.726a11.883,11.883,0,1,1,11.883-11.883A11.9,11.9,0,0,1,357.759,89.726Zm0-23.48a11.6,11.6,0,1,0,11.6,11.6A11.61,11.61,0,0,0,357.759,66.246Z" transform="translate(-345.876 -65.96)" fill="url(#linear-gradient)"/>
        </g>
        <g id="Grupo_479" data-name="Grupo 479">
          <path id="Trazado_494" data-name="Trazado 494" d="M351.833,83.121a3.119,3.119,0,0,1-.708-.081,3.225,3.225,0,0,1-1.028-.508,2.525,2.525,0,0,0-1.053-.483,1.942,1.942,0,0,0-1.338.456,4.112,4.112,0,0,1-.767.423,3.074,3.074,0,0,1-2.4-.112A3.149,3.149,0,0,1,343,81.09a1.672,1.672,0,0,0-1.736-1.008,3.234,3.234,0,0,1-2.311-.5,3.069,3.069,0,0,1-1.279-2.169,4.737,4.737,0,0,1,0-.753,1.805,1.805,0,0,0-.318-1.4,2.606,2.606,0,0,0-.9-.615,3.158,3.158,0,0,1-.949-.63,3.082,3.082,0,0,1-.835-2.176,3.121,3.121,0,0,1,.3-1.247,3,3,0,0,1,.323-.5,3.285,3.285,0,0,0,.255-.378,1.631,1.631,0,0,0,.143-1.2,2.041,2.041,0,0,0-.363-.658c-.068-.094-.138-.19-.2-.3a3.076,3.076,0,0,1,1.087-4.258c.125-.07.253-.126.377-.18a2.1,2.1,0,0,0,.6-.343,1.638,1.638,0,0,0,.5-.868,2.116,2.116,0,0,0,0-.685,4.107,4.107,0,0,1-.033-.436,3.04,3.04,0,0,1,.273-1.258,3.086,3.086,0,0,1,1.846-1.653,3.143,3.143,0,0,1,1.364-.107,1.937,1.937,0,0,0,.919-.066,1.61,1.61,0,0,0,.841-.711,3.872,3.872,0,0,0,.178-.373,3.045,3.045,0,0,1,.282-.544,3.044,3.044,0,0,1,4.343-.714,1.657,1.657,0,0,0,2.157.125,3.046,3.046,0,0,1,4.256.274,3.7,3.7,0,0,1,.5.813,2.161,2.161,0,0,0,.8,1.012,2.185,2.185,0,0,0,1.273.182,3.8,3.8,0,0,1,.939.028,3.039,3.039,0,0,1,2.422,2.724,3.169,3.169,0,0,1-.025.632,4.02,4.02,0,0,0-.031.425,1.7,1.7,0,0,0,1.137,1.55,3.179,3.179,0,0,1,1.718,1.79,2.99,2.99,0,0,1-.1,2.361,3.124,3.124,0,0,1-.327.507,2.684,2.684,0,0,0-.311.49,1.619,1.619,0,0,0-.082,1.089,2.067,2.067,0,0,0,.366.662c.079.109.161.222.235.346A3,3,0,0,1,363,71.443h0a3.053,3.053,0,0,1-1.5,3.129,3.989,3.989,0,0,1-.376.178,2.145,2.145,0,0,0-.555.306,1.635,1.635,0,0,0-.556.966,2.14,2.14,0,0,0,.013.631,3.829,3.829,0,0,1,.034.432,3.045,3.045,0,0,1-3.328,3.038,1.74,1.74,0,0,0-1.884.706,3.5,3.5,0,0,0-.222.441,3.115,3.115,0,0,1-.306.574,3.019,3.019,0,0,1-2.486,1.277Zm-2.962-1.369a1.7,1.7,0,0,1,.208.013,2.778,2.778,0,0,1,1.174.527,2.966,2.966,0,0,0,.936.468,2.751,2.751,0,0,0,2.9-1.084,2.9,2.9,0,0,0,.277-.524,3.706,3.706,0,0,1,.241-.477,2.061,2.061,0,0,1,2.155-.839,2.758,2.758,0,0,0,3.013-2.751,3.533,3.533,0,0,0-.032-.4,2.393,2.393,0,0,1-.011-.714,1.921,1.921,0,0,1,.654-1.135,2.4,2.4,0,0,1,.626-.35,3.793,3.793,0,0,0,.349-.165,2.767,2.767,0,0,0,1.361-2.835,2.711,2.711,0,0,0-.346-.971c-.067-.113-.145-.221-.221-.325a2.315,2.315,0,0,1-.411-.754,1.906,1.906,0,0,1,.1-1.282,2.925,2.925,0,0,1,.343-.543,2.892,2.892,0,0,0,.3-.461,2.706,2.706,0,0,0,.095-2.137,2.89,2.89,0,0,0-1.562-1.627,1.962,1.962,0,0,1-1.31-1.814,4.216,4.216,0,0,1,.033-.455,2.909,2.909,0,0,0,.025-.575,2.752,2.752,0,0,0-2.191-2.468,3.581,3.581,0,0,0-.87-.023,2.441,2.441,0,0,1-1.432-.219,2.412,2.412,0,0,1-.909-1.131,3.5,3.5,0,0,0-.464-.753,2.76,2.76,0,0,0-3.861-.241,1.971,1.971,0,0,1-2.51-.119,2.7,2.7,0,0,0-4.189,1.143,4.163,4.163,0,0,1-.192.4,1.9,1.9,0,0,1-.991.838,2.2,2.2,0,0,1-1.051.082,2.73,2.73,0,0,0-2.916,1.593,2.754,2.754,0,0,0-.247,1.138,3.818,3.818,0,0,0,.031.406,2.378,2.378,0,0,1,0,.776,1.927,1.927,0,0,1-.588,1.022,2.344,2.344,0,0,1-.676.393c-.123.054-.239.1-.352.167a2.789,2.789,0,0,0-.984,3.855c.061.1.128.19.193.28a2.292,2.292,0,0,1,.407.75,1.921,1.921,0,0,1-.167,1.418,3.533,3.533,0,0,1-.276.411,2.736,2.736,0,0,0-.294.456,2.836,2.836,0,0,0-.277,1.133,2.794,2.794,0,0,0,.758,1.972,2.9,2.9,0,0,0,.868.569,2.864,2.864,0,0,1,.993.69,2.082,2.082,0,0,1,.383,1.6,4.51,4.51,0,0,0,0,.709,2.781,2.781,0,0,0,1.16,1.966,2.911,2.911,0,0,0,2.118.446,1.954,1.954,0,0,1,2.025,1.177,2.885,2.885,0,0,0,1.4,1.583,2.785,2.785,0,0,0,2.172.1,3.871,3.871,0,0,0,.714-.4A2.389,2.389,0,0,1,348.872,81.752Zm-.02-.936a11.883,11.883,0,1,1,11.883-11.883A11.9,11.9,0,0,1,348.852,80.816Zm0-23.48a11.6,11.6,0,1,0,11.6,11.6A11.61,11.61,0,0,0,348.852,57.336Z" transform="translate(-334.665 -54.745)" fill="url(#linear-gradient)"/>
        </g>
      </g>
    </g>
  </g>
</svg>
