<svg id="icon_organizaciones" xmlns="http://www.w3.org/2000/svg" width="45.029" height="48.485" viewBox="0 0 45.029 48.485">
  <path id="Trazado_1869" data-name="Trazado 1869" d="M53.642,19.708a.867.867,0,0,0-.861-.771A3.63,3.63,0,0,0,50,20.159c-2.009,2.244-1.626,6.812-1.551,7.538v.841c-3,.14-3.73,1.064-4.933,2.961A23.274,23.274,0,0,1,41.8,33.933l-4.568,3.128C36.7,37.478,32,41.22,32,44.1a23.124,23.124,0,0,0,.615,5.351,8.307,8.307,0,0,1,.251,1.576v2.6a.866.866,0,0,0,1.732,0v-2.6a9.476,9.476,0,0,0-.29-1.941,21.584,21.584,0,0,1-.576-4.986c0-1.541,2.8-4.3,4.521-5.645l4.627-3.166a.885.885,0,0,0,.178-.163,24.5,24.5,0,0,0,1.923-2.7c.942-1.485,1.288-2.031,3.278-2.151a27.769,27.769,0,0,1-1.4,4.666c-.559.539-2.8,2.705-4.235,4.24a.866.866,0,0,0,1.263,1.185c1.589-1.7,4.271-4.272,4.3-4.3a.871.871,0,0,0,.194-.277,31.1,31.1,0,0,0,1.792-6.264c.017-.1.011-1.685.012-1.876,0-1.258-.374-4.682,1.11-6.337a1.864,1.864,0,0,1,.727-.515l.755,6.8c-.1.968-.861,8.406-.854,9.51a17.135,17.135,0,0,1-2.9,3.021c-2.955,2.724-6.633,6.115-6.633,9.168v4.33a.866.866,0,0,0,1.732,0V49.3c0-2.294,3.512-5.531,6.076-7.894,2.329-2.147,3.449-3.225,3.449-4.229,0-.941.622-7.17.862-9.49.016-.178.04.264-.869-7.977Z" transform="translate(-9.486 -6.003)" fill="#aa80f9"/>
  <path id="Trazado_1870" data-name="Trazado 1870" d="M6.872,19.708a.867.867,0,0,1,.861-.771,3.63,3.63,0,0,1,2.779,1.222c2.009,2.244,1.626,6.812,1.551,7.538v.841c3,.14,3.73,1.064,4.933,2.961a23.275,23.275,0,0,0,1.719,2.435l4.568,3.128c.536.417,5.232,4.159,5.232,7.043a23.125,23.125,0,0,1-.615,5.351,8.307,8.307,0,0,0-.251,1.576v2.6a.866.866,0,0,1-1.732,0v-2.6a9.476,9.476,0,0,1,.29-1.941,21.584,21.584,0,0,0,.576-4.986c0-1.541-2.8-4.3-4.521-5.645l-4.627-3.166a.885.885,0,0,1-.178-.163,24.5,24.5,0,0,1-1.923-2.7c-.942-1.485-1.288-2.031-3.278-2.151a27.768,27.768,0,0,0,1.4,4.666c.559.539,2.8,2.705,4.235,4.24a.866.866,0,0,1-1.263,1.185c-1.589-1.7-4.271-4.272-4.3-4.3a.871.871,0,0,1-.194-.277,31.1,31.1,0,0,1-1.792-6.264c-.017-.1-.011-1.685-.012-1.876,0-1.258.374-4.682-1.11-6.337a1.864,1.864,0,0,0-.727-.515l-.755,6.8c.1.968.861,8.406.854,9.51a17.135,17.135,0,0,0,2.9,3.021c2.955,2.724,6.633,6.115,6.633,9.168v4.33a.866.866,0,0,1-1.732,0V49.3c0-2.294-3.512-5.531-6.076-7.894-2.328-2.147-3.447-3.224-3.447-4.228,0-.941-.622-7.17-.862-9.49-.017-.179-.042.263.867-7.978Z" transform="translate(-6 -6.003)" fill="#aa80f9"/>
  <path id="Trazado_1871" data-name="Trazado 1871" d="M16,17.855A13.855,13.855,0,1,0,29.854,4,13.907,13.907,0,0,0,16,17.855Zm25.933-.866h-4.31a23.137,23.137,0,0,0-.745-5.2h3.458A12.008,12.008,0,0,1,41.932,16.989Zm-1.6,6.927H36.879a23.137,23.137,0,0,0,.745-5.2h4.31A12.032,12.032,0,0,1,40.337,23.916Zm-22.562-5.2h4.31a23.138,23.138,0,0,0,.745,5.2H19.372a12,12,0,0,1-1.6-5.2Zm6.04,0h5.173v5.2H24.64a21.179,21.179,0,0,1-.825-5.2Zm5.173,6.927v4.185c-1.472-.443-2.79-1.982-3.73-4.185Zm1.732,4.185V25.648h3.73C33.51,27.851,32.192,29.39,30.72,29.833Zm0-5.917v-5.2h5.173a21.179,21.179,0,0,1-.825,5.2Zm5.173-6.927H30.72v-5.2h4.348A21.179,21.179,0,0,1,35.893,16.989ZM30.72,10.061V5.876c1.472.443,2.79,1.982,3.73,4.185ZM28.988,5.876v4.185h-3.73C26.2,7.859,27.516,6.32,28.988,5.876Zm0,5.917v5.2H23.815a21.179,21.179,0,0,1,.825-5.2Zm-6.9,5.2H17.775a12.02,12.02,0,0,1,1.6-5.2h3.458A23.136,23.136,0,0,0,22.084,16.989Zm-1.5,8.659h2.792a13.175,13.175,0,0,0,1.853,3.407,12.179,12.179,0,0,1-4.645-3.407Zm13.9,3.407a13.135,13.135,0,0,0,1.853-3.407h2.792A12.179,12.179,0,0,1,34.481,29.055Zm4.645-18.994H36.334a13.175,13.175,0,0,0-1.853-3.407A12.179,12.179,0,0,1,39.126,10.061Zm-13.9-3.407a13.15,13.15,0,0,0-1.854,3.407H20.581A12.189,12.189,0,0,1,25.226,6.654Z" transform="translate(-7.341 -4)" fill="#aa80f9"/>
</svg>
