<svg xmlns="http://www.w3.org/2000/svg" width="42.218" height="49.249" viewBox="0 0 42.218 49.249">
  <path id="icon_campañas" d="M55.35,8.544a2.893,2.893,0,0,0-4.534,3.524c-2.241,8.308-3.287,9.243-7.561,13.06-1.523,1.36-3.418,3.052-5.9,5.531a2.777,2.777,0,0,0,0,3.921l6.828,6.828a2.779,2.779,0,0,0,3.312.461l7,7a1.33,1.33,0,0,0,.952.381,1.558,1.558,0,0,0,.231-.017A1.857,1.857,0,0,0,56.7,48.7l2.436-2.436a1.557,1.557,0,0,0,.167-2.206L55.54,40.291a5.5,5.5,0,0,0-.6-6.229c2.855-3.1,4.476-4.148,11.754-6.111a2.893,2.893,0,0,0,3.523-4.534ZM45.274,40.32l-6.828-6.828a1.237,1.237,0,0,1,0-1.745c1.711-1.711,3.142-3.044,4.364-4.152l8.36,8.36c-1.108,1.222-2.441,2.653-4.152,4.364a1.237,1.237,0,0,1-1.745,0Zm12.777,4.856-2.436,2.436a.394.394,0,0,1-.115.082l-6.841-6.841c.977-.989,1.825-1.881,2.577-2.69l6.9,6.9a.389.389,0,0,1-.082.115Zm-3.661-6.034-2.114-2.114c.494-.545.944-1.048,1.362-1.516l.261-.292a3.967,3.967,0,0,1,.492,3.923Zm-1.9-4.656-.289.323-8.245-8.245.323-.289c4.273-3.815,5.565-4.969,7.761-12.856L65.347,26.725c-7.887,2.2-9.041,3.489-12.856,7.761ZM69.134,26.42a1.356,1.356,0,0,1-1.915,0L52.346,11.548a1.354,1.354,0,0,1,1.915-1.915L69.134,24.505A1.356,1.356,0,0,1,69.134,26.42ZM66.964,11.8a.77.77,0,0,1,0-1.088l4.223-4.223a.77.77,0,0,1,1.088,1.088L68.052,11.8a.769.769,0,0,1-1.088,0Zm11.8,10.359a.77.77,0,0,1-.77.77H72.024a.77.77,0,0,1,0-1.539H78A.77.77,0,0,1,78.766,22.162ZM55.835,6.742V.77a.77.77,0,0,1,1.539,0V6.742a.77.77,0,0,1-1.539,0Z" transform="translate(-36.548 0)" fill="#aa80f9"/>
</svg>
