<svg id="icon_user" xmlns="http://www.w3.org/2000/svg" width="48.485" height="48.485" viewBox="0 0 48.485 48.485">
  <path id="Trazado_1861" data-name="Trazado 1861" d="M166,114.523A8.523,8.523,0,1,0,174.523,106,8.532,8.532,0,0,0,166,114.523Zm15.152,0a6.629,6.629,0,1,1-6.629-6.629A6.636,6.636,0,0,1,181.152,114.523Z" transform="translate(-150.28 -95.962)" fill="#aa80f9"/>
  <ellipse id="Elipse_183" data-name="Elipse 183" cx="0.764" cy="1.146" rx="0.764" ry="1.146" transform="translate(41.052 7.433)" fill="#aa80f9"/>
  <path id="Trazado_1862" data-name="Trazado 1862" d="M24.243,48.485A24.254,24.254,0,0,0,44.978,11.668a.947.947,0,1,0-1.619.983,22.377,22.377,0,0,1-4.295,28.323,15.155,15.155,0,0,0-29.644,0A22.353,22.353,0,0,1,24.243,1.894a22.139,22.139,0,0,1,13.7,4.687.947.947,0,0,0,1.162-1.5A24.266,24.266,0,0,0,7.1,7.1,24.248,24.248,0,0,0,24.243,48.485Zm0-17.614A13.2,13.2,0,0,1,37.379,42.331a22.38,22.38,0,0,1-26.272,0A13.192,13.192,0,0,1,24.243,30.871Z" transform="translate(0 0)" fill="#aa80f9"/>
</svg>
