<svg xmlns="http://www.w3.org/2000/svg" xmlns:xlink="http://www.w3.org/1999/xlink" width="295.867" height="294.663" viewBox="0 0 295.867 294.663">
  <defs>
    <linearGradient id="linear-gradient" x1="0.5" x2="0.5" y2="1" gradientUnits="objectBoundingBox">
      <stop offset="0" stop-color="#0fb382"/>
      <stop offset="1" stop-color="#a9e95b"/>
    </linearGradient>
    <linearGradient id="linear-gradient-2" x1="1" y1="0.5" x2="0" y2="0.5" xlink:href="#linear-gradient"/>
    <linearGradient id="linear-gradient-3" x1="0.108" y1="0.114" x2="3.349" y2="2.455" gradientUnits="objectBoundingBox">
      <stop offset="0" stop-color="#fff"/>
      <stop offset="1" stop-color="#e9effd"/>
    </linearGradient>
    <linearGradient id="linear-gradient-5" x1="1" y1="0.5" x2="0" y2="0.5" xlink:href="#linear-gradient"/>
    <linearGradient id="linear-gradient-6" x1="0.826" y1="-0.919" x2="-0.483" y2="4.845" xlink:href="#linear-gradient-3"/>
    <linearGradient id="linear-gradient-7" x1="-0.1" y1="2.352" x2="1.276" y2="-1.791" gradientUnits="objectBoundingBox">
      <stop offset="0" stop-color="#53d8ff"/>
      <stop offset="1" stop-color="#3840f7"/>
    </linearGradient>
    <linearGradient id="linear-gradient-8" x1="1.446" y1="1.437" x2="-0.056" y2="0.059" gradientUnits="objectBoundingBox">
      <stop offset="0" stop-color="#febbba"/>
      <stop offset="1" stop-color="#ff928e"/>
    </linearGradient>
    <linearGradient id="linear-gradient-9" x1="-6.787" y1="-2.961" x2="-5.864" y2="-3.706" xlink:href="#linear-gradient-8"/>
    <linearGradient id="linear-gradient-10" x1="-28.054" y1="-12.999" x2="-24.511" y2="-16.079" xlink:href="#linear-gradient-8"/>
    <linearGradient id="linear-gradient-11" x1="-0.419" y1="1.181" x2="0.841" y2="0.404" gradientUnits="objectBoundingBox">
      <stop offset="0" stop-color="#aa80f9"/>
      <stop offset="1" stop-color="#6165d7"/>
    </linearGradient>
    <linearGradient id="linear-gradient-12" x1="0.508" y1="1.436" x2="0.53" y2="3.771" gradientUnits="objectBoundingBox">
      <stop offset="0" stop-color="#aa80f9"/>
      <stop offset="0.875" stop-color="#6165d7"/>
      <stop offset="1" stop-color="#6165d7"/>
    </linearGradient>
    <linearGradient id="linear-gradient-13" x1="3.788" y1="7.919" x2="1.459" y2="2.602" xlink:href="#linear-gradient-11"/>
    <linearGradient id="linear-gradient-14" x1="113.048" y1="25.669" x2="105.365" y2="22.504" xlink:href="#linear-gradient-8"/>
    <linearGradient id="linear-gradient-15" x1="42.573" y1="12.637" x2="39.708" y2="11.104" xlink:href="#linear-gradient-8"/>
    <linearGradient id="linear-gradient-16" x1="128.327" y1="-11.17" x2="128.856" y2="-13.697" xlink:href="#linear-gradient-8"/>
  </defs>
  <g id="ilus_nuestriompacto" transform="translate(0)">
    <g id="Capa_1" data-name="Capa 1" transform="translate(0)">
      <path id="Trazado_2131" data-name="Trazado 2131" d="M12.319,199.771c29.764,69.541,108.287,99.413,169.826,94.321,16.8-1.393,50.606-4.188,77-29.151,50.69-47.935,42.882-148.136-5.657-207.13C247.255,50.214,204-.683,136.6-.01c-49.368.5-84.005,28.375-88.2,31.85A135.965,135.965,0,0,0,20.76,63.193C-4.1,102.062-6.273,156.311,12.319,199.771Z" transform="translate(2.167 0.017)" fill="#9cdfbc"/>
      <path id="Trazado_2132" data-name="Trazado 2132" d="M552.832,202.809s.955-40.311-17.609-51.1S481.356,134.191,480.034,76.3c-.8-33.885-1.612-48.7-2.178-55.161a3.814,3.814,0,0,1,4.507-4.085c17.585,3.312,74.7,16.944,86.681,55.933C583.245,119.206,552.832,202.809,552.832,202.809Z" transform="translate(-467.196 -10.215)" fill="url(#linear-gradient)"/>
      <path id="Trazado_2133" data-name="Trazado 2133" d="M515.465,57.3c19.3,17.215,41.62,47.684,53.516,78.149,1.525,5.02,5.992,15.7,7.931,34.669,1.736,15.822.872,32.543-1.226,43.611a1.29,1.29,0,0,1-1.509,1.023,1.313,1.313,0,0,1-1.031-1.481,177.186,177.186,0,0,0-4.1-63.7c-7.023-26.073-22.693-51.359-38.889-72.8l-1.668-2.11C515.939,58.542,513.3,58.422,514.469,57.3a.74.74,0,0,1,1,0Z" transform="translate(-486.698 -34.365)" fill="#fff"/>
      <path id="Trazado_2134" data-name="Trazado 2134" d="M608.7,383.2c1.429-.948-1.919-9.468-2.2-10.706q-1.592-6.856-2.691-13.815c-3.882-24.469-3.929-55.129-17.872-66.941-11.6-9.834-51.076-3.627-63.991-1.266a1.939,1.939,0,0,0-.9,3.388c6.195,5.2,19.445,17.474,22.9,29.84,4.551,16.3,20.046,26.675,33.921,29.462,8.759,1.772,16.375,4.336,21.59,12.043,2.787,4.129,3.794,13.934,6.9,16.809C607.6,383.164,608.313,383.458,608.7,383.2Z" transform="translate(-520.352 -172.348)" fill="url(#linear-gradient-2)"/>
      <path id="Trazado_2135" data-name="Trazado 2135" d="M535.069,314c16.479.693,34.167,8.209,43.145,22.3l.856,1.354c1.955,3.153,13.047,25.584,19.206,44.192a.442.442,0,0,1-.279.557.45.45,0,0,1-.553-.263c-4.292-10.5-10.455-23.82-15.368-33.777-5.263-10.869-8.946-18.226-20.954-25.277a66.972,66.972,0,0,0-26.1-8.361.358.358,0,0,1-.318-.4.362.362,0,0,1,.362-.322Z" transform="translate(-515.311 -188.981)" fill="url(#linear-gradient-3)"/>
      <path id="Trazado_2136" data-name="Trazado 2136" d="M31.306,166.12s9.257-35.433,28.176-40.211,51.414-1.827,67.065-52.043c9.165-29.4,13.6-42.13,15.714-47.632a3.464,3.464,0,0,0-2.91-4.694c-16.188-1.513-69.485-3.91-89.73,27.14C25.668,85.491,31.306,166.12,31.306,166.12Z" transform="translate(141.142 -12.495)" fill="url(#linear-gradient)"/>
      <path id="Trazado_2137" data-name="Trazado 2137" d="M167.877,49.373c-21.169,10.2-48.289,31.217-66.308,54.846-2.588,4-9.157,12.207-15.611,28.291-5.474,13.381-8.91,28.2-9.846,38.392a1.17,1.17,0,0,0,1.059,1.274,1.194,1.194,0,0,0,1.274-1.035,160.824,160.824,0,0,1,19.508-54.587C110.63,95.54,130.64,77.385,150.161,62.722l1.991-1.425c14.994-10.945,17.331-10.383,16.59-11.661A.673.673,0,0,0,167.877,49.373Z" transform="translate(96.706 -29.671)" fill="#fff"/>
      <path id="Trazado_2138" data-name="Trazado 2138" d="M82.28,350.372c-2.5.446,28.741-21.845,48.938-65.13,9.515-20.4,17.239-47.162,32.368-53.986,12.6-5.685,45.518,9.623,56.208,14.918a1.76,1.76,0,0,1-.064,3.185c-6.712,2.994-21.356,10.391-27.471,20.324-8.054,13.1-24.182,18.27-37,17.247s-20.241-.577-31.7,17.12S89.386,349.1,82.28,350.372Z" transform="translate(42.393 -138.43)" fill="url(#linear-gradient-5)"/>
      <path id="Trazado_2139" data-name="Trazado 2139" d="M200.474,271.9c-14.564-3.523-31.894-1.389-43.265,8.679l-1.079.963c-2.5,2.265-17.8,19.074-27.837,33.769a.4.4,0,0,0,.657.466c6.37-8.1,15.1-18.183,21.877-25.651,7.318-8.174,12.378-13.676,24.632-16.825a60.743,60.743,0,0,1,24.883-.772.322.322,0,0,0,.131-.629Z" transform="translate(44.115 -162.688)" fill="url(#linear-gradient-6)"/>
      <path id="Trazado_2140" data-name="Trazado 2140" d="M479.5,178.52s-12.342,29.266-43.293,32.547l.82,5.395s40.438,7.011,61.809-28.5Z" transform="translate(-376.64 -107.439)" fill="url(#linear-gradient-7)"/>
      <path id="Trazado_2141" data-name="Trazado 2141" d="M375.361,216.988s12.883-51.414-14.751-94.8a3.281,3.281,0,0,0-2.918-1.521c-6.513.319-28.872,3.062-54.026,24.963,0,0,26.436,22.407,29.613,72.459C333.279,218.083,357.776,219.134,375.361,216.988Z" transform="translate(-203.391 -72.616)" fill="#016631"/>
      <path id="Trazado_2142" data-name="Trazado 2142" d="M417.281,97.28l13.079,14.46a3.42,3.42,0,0,1-.048,4.694c-2.182,2.321-6.048,5.319-11.1,4.746a5.247,5.247,0,0,1-3.914-2.488l-7.927-13.361Z" transform="translate(-297.585 -58.543)" fill="url(#linear-gradient-8)"/>
      <path id="Trazado_2143" data-name="Trazado 2143" d="M439.62,62.692s1.33,24.286,12,25.588,11.243-22.59,11.243-22.59S452.619,44.263,439.62,62.692Z" transform="translate(-342.02 -33.224)" fill="url(#linear-gradient-9)"/>
      <path id="Trazado_2144" data-name="Trazado 2144" d="M436.072,90.876s-.374-7.517,3.914-6.06c5.522,1.883-1.425,7.823-1.425,7.823Z" transform="translate(-319.86 -50.929)" fill="url(#linear-gradient-10)"/>
      <path id="Trazado_2145" data-name="Trazado 2145" d="M459.875,55.692s1.656,4.993,0,3.862-2.986-13.4-10.387-9.647S428.259,55.939,431.3,41.67s11.617-1.963,23.816-5.271,10.59,8.269,9.328,10.351c3.583,1.756,3.328,6.191,0,8.938C463.462,54.964,461.531,53.172,459.875,55.692Z" transform="translate(-342.707 -20.817)" fill="#00441f"/>
      <path id="Trazado_2146" data-name="Trazado 2146" d="M510.234,60.692a.154.154,0,0,0,.028-.307,6.47,6.47,0,0,1-3.937-2.787c-1.194-1.943-1.318-4.59-.362-7.863a.153.153,0,1,0-.295-.084c-.987,3.36-.852,6.091.4,8.114A6.661,6.661,0,0,0,510.21,60.7Z" transform="translate(-415.585 -29.81)" fill="#91b3fa"/>
      <path id="Trazado_2147" data-name="Trazado 2147" d="M274.82,122.063s42.6,41.517,32.014,53.684-45.749,27.073-45.749,27.073l1.119-8.158s30.091-22.785,26.221-26.408c-2.015-1.875-8.337-7.963-13.935-13.389a26.25,26.25,0,0,1-6.657-27.471C269.337,123.13,271.555,120.279,274.82,122.063Z" transform="translate(-116.601 -73.134)" fill="#008944"/>
      <path id="Trazado_2148" data-name="Trazado 2148" d="M18.02,486.911c85.57-46.6,175.3-43.277,268.848,3.527a5.848,5.848,0,0,0,8.46-5.239V411.446a16.646,16.646,0,0,0-8.067-14.265c-93.325-56.088-185.456-56.3-273.367.446a18.477,18.477,0,0,0-8.432,15.284l-.872,65.906a9.085,9.085,0,0,0,13.429,8.094Z" transform="translate(-1.288 -213.713)" fill="url(#linear-gradient-11)"/>
      <path id="Trazado_2149" data-name="Trazado 2149" d="M26.845,490.618c84.057-44.726,172.195-41.533,264.095,3.388a5.743,5.743,0,0,0,8.309-5.032V418.215a15.9,15.9,0,0,0-7.927-13.688c-91.673-53.847-182.176-54.054-268.514.406A17.645,17.645,0,0,0,14.523,419.6l-.872,63.251C13.559,489.516,20.849,493.807,26.845,490.618Z" transform="translate(-8.815 -219.144)" fill="url(#linear-gradient-12)"/>
      <path id="Trazado_2150" data-name="Trazado 2150" d="M305.6,425.58l9.412,9.555a3.185,3.185,0,0,1,.856,2.819l-2.532,13.17a3.185,3.185,0,0,0,4.531,3.412l11.992-5.972a3.185,3.185,0,0,1,2.95.06l11.741,6.474a3.185,3.185,0,0,0,4.662-3.245l-1.991-13.262a3.185,3.185,0,0,1,.967-2.787l9.786-9.157a3.185,3.185,0,0,0-1.648-5.438l-13.226-2.19a3.185,3.185,0,0,1-2.353-1.784L335.053,405.1a3.185,3.185,0,0,0-5.681-.111l-6.175,11.9a3.185,3.185,0,0,1-2.417,1.684l-13.305,1.664a3.185,3.185,0,0,0-1.875,5.343Z" transform="translate(-184.411 -242.725)" fill="#e8d256"/>
      <path id="Trazado_2151" data-name="Trazado 2151" d="M319.075,474.632a6.152,6.152,0,0,1,1.967.685l7.668,4.232a2.389,2.389,0,0,0,3.535-2.46l-1.31-8.659a6.231,6.231,0,0,1,1.9-5.478l6.39-5.972a2.389,2.389,0,0,0-1.246-4.121l-4.415-.729-.112.669,4.415.733a1.716,1.716,0,0,1,.892,2.95l-6.39,5.972a6.924,6.924,0,0,0-2.11,6.079l1.306,8.659a1.72,1.72,0,0,1-2.528,1.764l-7.668-4.232a6.976,6.976,0,0,0-2.182-.76Z" transform="translate(-171.168 -272.118)" fill="#fff" opacity="0.62"/>
      <path id="Trazado_2152" data-name="Trazado 2152" d="M360.851,457.365a2.413,2.413,0,0,0,3.316,1.278l5.972-3-.3-.609-5.992,3a1.72,1.72,0,0,1-2.456-1.863l1.648-8.6a6.979,6.979,0,0,0-1.863-6.159l-6.131-6.231a1.72,1.72,0,0,1,1.011-2.914l8.687-1.087a6.908,6.908,0,0,0,5.279-3.675l4.033-7.779a1.72,1.72,0,0,1,3.081.06l3.726,7.931a6.9,6.9,0,0,0,1.593,2.158l.458-.5a6.212,6.212,0,0,1-1.429-1.947l-3.719-7.927a2.389,2.389,0,0,0-4.3-.088l-4.029,7.775a6.227,6.227,0,0,1-4.777,3.312l-8.687,1.1a2.389,2.389,0,0,0-1.409,4.069L360.7,441.9a6.287,6.287,0,0,1,1.68,5.554l-1.648,8.6A2.389,2.389,0,0,0,360.851,457.365Z" transform="translate(-227.921 -251.637)" fill="#fff" opacity="0.62"/>
      <rect id="Rectángulo_625" data-name="Rectángulo 625" width="2.652" height="0.681" transform="translate(162.295 180.67) rotate(-170.6)" fill="#fff" opacity="0.62"/>
      <path id="Trazado_2153" data-name="Trazado 2153" d="M164,443.3l6.406,11.781a3.161,3.161,0,0,1,.04,2.946l-6.071,11.944a3.185,3.185,0,0,0,3.408,4.547l13.178-2.437a3.185,3.185,0,0,1,2.819.872l9.491,9.468a3.185,3.185,0,0,0,5.383-1.831l1.74-13.3a3.185,3.185,0,0,1,1.7-2.389l11.944-6.1a3.185,3.185,0,0,0-.08-5.685l-12.107-5.761a3.185,3.185,0,0,1-1.776-2.381l-2.114-13.242a3.185,3.185,0,0,0-5.43-1.68l-9.213,9.746a3.185,3.185,0,0,1-2.787.951l-13.246-2.078A3.185,3.185,0,0,0,164,443.3Z" transform="translate(14.977 -258.244)" fill="#e8d256"/>
      <path id="Trazado_2154" data-name="Trazado 2154" d="M178.513,504.131a6.314,6.314,0,0,1,1.7,1.194l6.2,6.183a2.389,2.389,0,0,0,4.077-1.389l1.139-8.683a6.211,6.211,0,0,1,3.34-4.738l7.8-3.981a2.389,2.389,0,0,0-.064-4.3l-4.041-1.923-.291.613,4.041,1.923a1.72,1.72,0,0,1,.044,3.086l-7.8,3.981a6.916,6.916,0,0,0-3.707,5.259l-1.139,8.683a1.72,1.72,0,0,1-2.918,1l-6.2-6.183a6.98,6.98,0,0,0-1.887-1.338Z" transform="translate(20.709 -292.798)" fill="#fff" opacity="0.62"/>
      <path id="Trazado_2155" data-name="Trazado 2155" d="M208.778,477.121a2.413,2.413,0,0,0,2.835,2.142l6.585-1.226-.123-.669-6.589,1.226a1.72,1.72,0,0,1-1.847-2.468l3.981-7.811a6.983,6.983,0,0,0-.092-6.434l-4.184-7.692a1.72,1.72,0,0,1,1.776-2.52l8.655,1.358a6.9,6.9,0,0,0,6.087-2.074l6.024-6.37a1.72,1.72,0,0,1,2.946.912l1.382,8.647a6.96,6.96,0,0,0,.928,2.516l.581-.358a6.159,6.159,0,0,1-.836-2.265l-1.382-8.647a2.389,2.389,0,0,0-4.113-1.27l-6.024,6.37a6.231,6.231,0,0,1-5.506,1.883L211.223,451a2.389,2.389,0,0,0-2.48,3.52l4.184,7.692a6.286,6.286,0,0,1,.08,5.8l-3.961,7.807A2.388,2.388,0,0,0,208.778,477.121Z" transform="translate(-24.84 -266.835)" fill="#fff" opacity="0.62"/>
      <rect id="Rectángulo_626" data-name="Rectángulo 626" width="2.652" height="0.681" transform="translate(219.079 194.308) rotate(-154.55)" fill="#fff" opacity="0.62"/>
      <path id="Trazado_2156" data-name="Trazado 2156" d="M20.676,487.256l6.41,11.781a3.185,3.185,0,0,1,.04,2.95L21.055,513.93a3.185,3.185,0,0,0,3.408,4.551l13.182-2.46a3.161,3.161,0,0,1,2.815.872l9.5,9.479a3.185,3.185,0,0,0,5.379-1.831l1.74-13.3a3.185,3.185,0,0,1,1.7-2.389l11.944-6.1a3.185,3.185,0,0,0-.08-5.681L58.53,491.3a3.157,3.157,0,0,1-1.772-2.357l-2.13-13.262a3.185,3.185,0,0,0-5.426-1.68l-9.225,9.734a3.185,3.185,0,0,1-2.787.952l-13.246-2.078a3.185,3.185,0,0,0-3.269,4.642Z" transform="translate(215.361 -284.701)" fill="#e8d256"/>
      <path id="Trazado_2157" data-name="Trazado 2157" d="M35.178,548.085a6.271,6.271,0,0,1,1.7,1.194l6.2,6.191a2.389,2.389,0,0,0,4.077-1.385l1.135-8.691a6.239,6.239,0,0,1,3.344-4.742l7.8-3.981a2.389,2.389,0,0,0-.06-4.308l-4.041-1.923-.291.617,4.041,1.923a1.72,1.72,0,0,1,.044,3.082l-7.8,3.981a6.908,6.908,0,0,0-3.707,5.255L46.493,554a1.72,1.72,0,0,1-2.918.991l-6.2-6.183a6.881,6.881,0,0,0-1.887-1.334Z" transform="translate(221.108 -319.25)" fill="#fff" opacity="0.62"/>
      <path id="Trazado_2158" data-name="Trazado 2158" d="M65.462,521.065a2.428,2.428,0,0,0,.47,1.222,2.389,2.389,0,0,0,2.361.92l6.589-1.226-.127-.669-6.581,1.226a1.72,1.72,0,0,1-1.847-2.468l3.981-7.807a6.983,6.983,0,0,0-.092-6.434l-4.184-7.7a1.72,1.72,0,0,1,1.776-2.52l8.651,1.358A6.907,6.907,0,0,0,82.55,494.9l6.024-6.37a1.72,1.72,0,0,1,2.946.908l1.382,8.651a6.868,6.868,0,0,0,.928,2.512l.581-.354a6.183,6.183,0,0,1-.836-2.265l-1.382-8.651a2.389,2.389,0,0,0-4.113-1.27l-6.024,6.37a6.227,6.227,0,0,1-5.522,1.871l-8.651-1.358a2.389,2.389,0,0,0-2.48,3.519l4.184,7.692a6.3,6.3,0,0,1,.08,5.8l-3.981,7.807A2.424,2.424,0,0,0,65.462,521.065Z" transform="translate(175.54 -293.281)" fill="#fff" opacity="0.62"/>
      <rect id="Rectángulo_627" data-name="Rectángulo 627" width="2.652" height="0.681" transform="translate(276.144 211.809) rotate(-154.55)" fill="#fff" opacity="0.62"/>
      <path id="Trazado_2159" data-name="Trazado 2159" d="M593.51,508.914l12.513,4.817a3.161,3.161,0,0,1,1.943,2.218l3.125,13.039a3.185,3.185,0,0,0,5.542,1.258l8.452-10.411a3.153,3.153,0,0,1,2.707-1.162l13.369,1.055a3.185,3.185,0,0,0,2.91-4.881l-7.294-11.251a3.157,3.157,0,0,1-.267-2.938l5.136-12.386a3.185,3.185,0,0,0-3.747-4.276l-12.955,3.46a3.185,3.185,0,0,1-2.871-.653l-10.192-8.715a3.185,3.185,0,0,0-5.223,2.241l-.717,13.389a3.185,3.185,0,0,1-1.509,2.536l-11.422,7a3.185,3.185,0,0,0,.5,5.661Z" transform="translate(-584.196 -287.293)" fill="url(#linear-gradient-13)"/>
      <path id="Trazado_2160" data-name="Trazado 2160" d="M455.93,452.85l11.685,6.541a3.185,3.185,0,0,1,1.593,2.472l1.246,13.349a3.185,3.185,0,0,0,5.307,2.03l9.842-9.109a3.185,3.185,0,0,1,2.847-.768l13.083,2.942a3.185,3.185,0,0,0,3.583-4.423l-5.626-12.171a3.185,3.185,0,0,1,.151-2.946l6.84-11.546a3.185,3.185,0,0,0-3.1-4.778l-13.314,1.593a3.185,3.185,0,0,1-2.755-1.055l-8.858-10.069a3.185,3.185,0,0,0-5.486,1.477l-2.6,13.138a3.161,3.161,0,0,1-1.855,2.293l-12.31,5.315a3.185,3.185,0,0,0-.267,5.713Z" transform="translate(-391.913 -255.101)" fill="#e8d256"/>
      <path id="Trazado_2161" data-name="Trazado 2161" d="M467.111,485.721a6.206,6.206,0,0,1,2.082.112l8.544,1.919a2.389,2.389,0,0,0,2.7-3.348l-3.671-7.963a6.219,6.219,0,0,1,.295-5.793l4.467-7.521a2.389,2.389,0,0,0-2.349-3.607l-4.459.53.08.673,4.443-.53a1.7,1.7,0,0,1,1.644.772,1.676,1.676,0,0,1,.04,1.812l-4.467,7.537a6.9,6.9,0,0,0-.33,6.426l3.675,7.963a1.72,1.72,0,0,1-1.939,2.389l-8.528-1.911a6.822,6.822,0,0,0-2.309-.123Z" transform="translate(-371.948 -276.554)" fill="#fff" opacity="0.62"/>
      <path id="Trazado_2162" data-name="Trazado 2162" d="M517.824,480.262a2.389,2.389,0,0,0,3.539.3l4.913-4.555-.462-.5-4.917,4.551a1.716,1.716,0,0,1-2.878-1.1l-.8-8.719a7,7,0,0,0-3.511-5.395l-7.644-4.272a1.716,1.716,0,0,1,.155-3.078l8.018-3.472a6.892,6.892,0,0,0,4.041-5l1.7-8.592a1.72,1.72,0,0,1,2.978-.8l5.785,6.577a6.9,6.9,0,0,0,2.122,1.628l.3-.609a6.171,6.171,0,0,1-1.915-1.469l-5.785-6.577a2.389,2.389,0,0,0-4.156,1.119l-1.7,8.592a6.235,6.235,0,0,1-3.647,4.511l-8.038,3.472a2.389,2.389,0,0,0-.223,4.3l7.644,4.272a6.3,6.3,0,0,1,3.185,4.865l.8,8.719A2.388,2.388,0,0,0,517.824,480.262Z" transform="translate(-436.15 -263.829)" fill="#fff" opacity="0.62"/>
      <rect id="Rectángulo_628" data-name="Rectángulo 628" width="0.681" height="2.652" transform="matrix(-0.119, -0.993, 0.993, -0.119, 100.232, 184.497)" fill="#fff" opacity="0.62"/>
      <path id="Trazado_2163" data-name="Trazado 2163" d="M366.865,214.61l23,11.327a6.052,6.052,0,0,1,3.316,4.559l3.715,25.365a6.056,6.056,0,0,0,10.331,3.348l17.872-18.37a6.06,6.06,0,0,1,5.359-1.748l25.269,4.316a6.056,6.056,0,0,0,6.37-8.795L450.15,211.918a6.048,6.048,0,0,1,0-5.637l11.908-22.693a6.056,6.056,0,0,0-6.39-8.783l-25.261,4.352a6.06,6.06,0,0,1-5.363-1.736l-17.916-18.342a6.056,6.056,0,0,0-10.327,3.364l-3.655,25.365a6.059,6.059,0,0,1-3.312,4.563l-22.976,11.363a6.06,6.06,0,0,0,.008,10.877Z" transform="translate(-311.634 -94.639)" fill="#e8d256"/>
      <path id="Trazado_2164" data-name="Trazado 2164" d="M387.54,270.763a11.944,11.944,0,0,1,3.981,0l16.5,2.819a4.59,4.59,0,0,0,4.833-6.661l-7.8-14.814a11.908,11.908,0,0,1,0-11.088l7.779-14.826a4.59,4.59,0,0,0-4.845-6.653l-8.428,1.453.223,1.282,8.428-1.453a3.289,3.289,0,0,1,3.468,4.778L403.9,240.421a13.206,13.206,0,0,0,0,12.3l7.8,14.81a3.285,3.285,0,0,1-3.46,4.778l-16.5-2.815a13.172,13.172,0,0,0-4.419,0Z" transform="translate(-271.718 -132.088)" fill="#fff" opacity="0.62"/>
      <path id="Trazado_2165" data-name="Trazado 2165" d="M486.837,264.992a4.645,4.645,0,0,0,2.082,1.386,4.567,4.567,0,0,0,4.718-1.166l8.922-9.185-.936-.908-8.934,9.177a3.285,3.285,0,0,1-5.606-1.815l-2.421-16.566a13.345,13.345,0,0,0-7.238-9.953l-15.017-7.4a3.289,3.289,0,0,1,0-5.9l15.009-7.421a13.206,13.206,0,0,0,7.218-9.953l2.389-16.57a3.289,3.289,0,0,1,5.606-1.827l11.693,11.98a13.137,13.137,0,0,0,4.22,2.9l.514-1.194a11.943,11.943,0,0,1-3.8-2.616l-11.693-11.98a4.586,4.586,0,0,0-7.823,2.548l-2.389,16.57a11.9,11.9,0,0,1-6.509,8.974L461.83,221.5a4.586,4.586,0,0,0,0,8.229l15.017,7.4a12.027,12.027,0,0,1,6.521,8.97l2.421,16.562a4.645,4.645,0,0,0,1.047,2.333Z" transform="translate(-396.037 -111.1)" fill="#fff" opacity="0.62"/>
      <rect id="Rectángulo_629" data-name="Rectángulo 629" width="1.302" height="5.068" transform="translate(123.069 91.045) rotate(-99.78)" fill="#fff" opacity="0.62"/>
      <path id="Trazado_2166" data-name="Trazado 2166" d="M370.709,294.181s.179-3.508,1.087-5.132-1.194-1.991-2.245-.474-1.788,5.753-1.788,5.753S369.578,295.4,370.709,294.181Z" transform="translate(-222.566 -173.1)" fill="url(#linear-gradient-14)"/>
      <path id="Trazado_2167" data-name="Trazado 2167" d="M374.57,305.993a2.078,2.078,0,0,0,3.547,0c1.194-1.991,3.03-5.148,3.364-6.8.51-2.512.856-5.872-2.48-6.505a39.492,39.492,0,0,0-7.668-.43s-1.1,3.086,1.636,3.1l-2.078.892s-.82,2.5,1.688,2.042l-2.186,1.429s0,2.333,1.991,1.676C373.806,300.893,373.292,303.926,374.57,305.993Z" transform="translate(-233.403 -175.874)" fill="url(#linear-gradient-15)"/>
      <path id="Trazado_2168" data-name="Trazado 2168" d="M563.313,250.7c6.569-3.185,9.077-3.141,11.844-.725l-4.662,3.647a3.042,3.042,0,0,0-.649,3.981c.713,1.473-.581,3.559-2.719,4.248-1.565.5-3.07.123-4.467-1.839l-1.23-2.417C561.792,255.821,561.37,252.122,563.313,250.7Z" transform="translate(-502.811 -149.398)" fill="url(#linear-gradient-16)"/>
    </g>
  </g>
</svg>
