<svg id="icon_acciones" xmlns="http://www.w3.org/2000/svg" width="48.485" height="48.485" viewBox="0 0 48.485 48.485">
  <g id="Grupo_1130" data-name="Grupo 1130" transform="translate(4.341 2.695)">
    <g id="Grupo_1129" data-name="Grupo 1129">
      <path id="Trazado_1863" data-name="Trazado 1863" d="M29.456,11.055a.868.868,0,0,0-.782-.429c-1.264.048-7.662.339-9.414,1.36a4.329,4.329,0,1,0,4.359,7.48c1.751-1.02,5.159-6.443,5.824-7.519A.867.867,0,0,0,29.456,11.055Zm-6.707,6.915a2.6,2.6,0,0,1-2.615-4.488c.874-.509,4.237-.869,6.943-1.039C25.593,14.711,23.622,17.46,22.749,17.969Z" transform="translate(-17.113 -10.624)" fill="#aa80f9"/>
    </g>
  </g>
  <g id="Grupo_1132" data-name="Grupo 1132" transform="translate(7.359 7.792)">
    <g id="Grupo_1131" data-name="Grupo 1131">
      <path id="Trazado_1864" data-name="Trazado 1864" d="M45.68,30.72A16.667,16.667,0,1,0,62.347,47.387,16.686,16.686,0,0,0,45.68,30.72Zm0,31.6A14.935,14.935,0,1,1,60.615,47.387,14.952,14.952,0,0,1,45.68,62.322Z" transform="translate(-29.013 -30.72)" fill="#aa80f9"/>
    </g>
  </g>
  <g id="Grupo_1134" data-name="Grupo 1134" transform="translate(7.986 10.138)">
    <g id="Grupo_1133" data-name="Grupo 1133">
      <path id="Trazado_1865" data-name="Trazado 1865" d="M41.536,45.077c-1.045-1.044-1.356-2.909-1.433-4.29a.866.866,0,0,0-1.32-.688,16.649,16.649,0,0,0-7.265,9.545.866.866,0,0,0,.652,1.088c2.107.446,2.376.94,2.378.945A2.838,2.838,0,0,0,36.6,53.322a2.584,2.584,0,0,0,.414.033A4.293,4.293,0,0,0,39.936,51.9c.193-.192.4-.385.6-.579,1.051-.99,2.243-2.113,2.265-3.6A3.7,3.7,0,0,0,41.536,45.077Zm-2.184,4.986c-.219.206-.436.41-.64.615a2.445,2.445,0,0,1-1.829.935A1.144,1.144,0,0,1,36.1,50.9a3.914,3.914,0,0,0-2.638-1.638,14.9,14.9,0,0,1,5.073-6.9A7.021,7.021,0,0,0,40.312,46.3a2.094,2.094,0,0,1,.762,1.392C41.062,48.452,40.193,49.271,39.352,50.063Z" transform="translate(-31.484 -39.969)" fill="#aa80f9"/>
    </g>
  </g>
  <g id="Grupo_1136" data-name="Grupo 1136" transform="translate(14.664 23.505)">
    <g id="Grupo_1135" data-name="Grupo 1135">
      <path id="Trazado_1866" data-name="Trazado 1866" d="M68.613,96.81a5.245,5.245,0,0,0-2.58-3.436A6.294,6.294,0,0,0,61.1,93c-2.581.861-3.975,2.014-2.948,5.1a3.4,3.4,0,0,0,3.145,2.542,4.564,4.564,0,0,1,1.29.359c.417.208.3,2.35-.434,4.552a.867.867,0,0,0,.385,1.021,4.657,4.657,0,0,0,2.118.609,2.5,2.5,0,0,0,.975-.186,2.409,2.409,0,0,0,1.384-1.761,20.136,20.136,0,0,1,.876-2.582A8.617,8.617,0,0,0,68.613,96.81Zm-2.335,5.2a21.844,21.844,0,0,0-.945,2.8c-.119.476-.312.559-.375.585a1.517,1.517,0,0,1-.93-.06c.494-1.745,1.126-4.993-.668-5.89A6.118,6.118,0,0,0,61.6,98.93c-.978-.172-1.424-.251-1.8-1.384-.584-1.751-.306-2.185,1.853-2.9a4.53,4.53,0,0,1,3.553.251,3.509,3.509,0,0,1,1.733,2.338C67.409,99.136,66.935,100.343,66.278,102.014Z" transform="translate(-57.812 -92.665)" fill="#aa80f9"/>
    </g>
  </g>
  <g id="Grupo_1138" data-name="Grupo 1138" transform="translate(22.96 10.069)">
    <g id="Grupo_1137" data-name="Grupo 1137">
      <path id="Trazado_1867" data-name="Trazado 1867" d="M107.061,47.908a16.8,16.8,0,0,0-6.854-8.085.865.865,0,0,0-1.054.122c-4.036,3.947-4.386,5.325-4.2,6.152a1.39,1.39,0,0,0,.951,1.012C97.236,47.55,98.319,48,99,48.3a2.416,2.416,0,0,1-2.019,1.126c-4.13,0-6.466.077-6.466,1.666,0,.74.7,1.392,2.713,3.066a18.709,18.709,0,0,1,2.1,1.9c.1,1.139,1.1,4.505,1.845,5.246a3.485,3.485,0,0,0,2.36.968,2.822,2.822,0,0,0,.757-.1c.793-.22,1.843-.9,2.336-2.87a18.662,18.662,0,0,0,.463-3.426c.1-1.552.187-2.161.684-2.41.586-.293,1.563-1.117,3.274-4.873A.868.868,0,0,0,107.061,47.908Zm-4.065,4c-1.433.717-1.533,2.237-1.638,3.847a16.873,16.873,0,0,1-.415,3.118c-.161.643-.485,1.446-1.119,1.622a1.659,1.659,0,0,1-1.419-.413,15.139,15.139,0,0,1-1.356-4.2c0-.739-.7-1.391-2.711-3.065-.535-.446-1.258-1.048-1.715-1.488a34.4,34.4,0,0,1,4.361-.182A4.41,4.41,0,0,0,101,48.161a.867.867,0,0,0-.434-1.049,33.879,33.879,0,0,0-3.862-1.562c.162-.407.784-1.5,3.168-3.884a15.069,15.069,0,0,1,5.436,6.545C103.809,51.432,103.077,51.872,103,51.913Z" transform="translate(-90.516 -39.698)" fill="#aa80f9"/>
    </g>
  </g>
  <g id="Grupo_1140" data-name="Grupo 1140" transform="translate(0)">
    <g id="Grupo_1139" data-name="Grupo 1139">
      <path id="Trazado_1868" data-name="Trazado 1868" d="M24.243,0a.866.866,0,1,0,0,1.731A22.512,22.512,0,1,1,7.985,8.673a.866.866,0,0,0-1.251-1.2A24.242,24.242,0,1,0,24.243,0Z" fill="#aa80f9"/>
    </g>
  </g>
</svg>
