<svg xmlns="http://www.w3.org/2000/svg" xmlns:xlink="http://www.w3.org/1999/xlink" width="370.86" height="379.918" viewBox="0 0 370.86 379.918">
  <defs>
    <linearGradient id="linear-gradient" x1="-4.033" y1="-1.274" x2="-3.643" y2="0.929" gradientUnits="objectBoundingBox">
      <stop offset="0" stop-color="#0fb382"/>
      <stop offset="1" stop-color="#a9e95b"/>
    </linearGradient>
    <clipPath id="clip-path">
      <path id="Trazado_2181" data-name="Trazado 2181" d="M2018.5,1805.958c1.844,14.339,3.127,29.012,4.891,43.458,7.951,2.178,17.373,4.544,21.034-5.051,5.092-13.35,30.068-14.139,41.454-12.281,14.085,2.3,44.969,4.45,42.283-16.357-2.232-17.319-10.477-27.1,9.715-33.97s30.148-19.645,24.856-38.447c-5.573-19.778,16.785-40.946,1.484-55.793-26.647-25.872-59.442,22.411-62.863,51.584s-17.988,19.979-37.579,22.144c-26.741,2.967-9.622,30.375-21.048,39.877C2033.775,1808.563,2028.336,1805.864,2018.5,1805.958Z" transform="translate(-2018.5 -1680.145)"/>
    </clipPath>
    <clipPath id="clip-path-2">
      <path id="Trazado_2183" data-name="Trazado 2183" d="M1992.343,1463.036q-15.535-5.212-30.91-11.132c-.2.12.454-23.627,13.618-33.8,25.939-19.6,15.074-43.325,13.136-56.568-3.528-18.816,3.728-39.623,22.424-32.14,18.295,6.842,28.13-31.578,30.242-62.154-.174-15.1,16.771-30.335,31.244-31.926,14.834-1.978,27.2,9.715,26.273,39.583.468,34.852-27.756,50.768-39.89,66.03-11.92,14.981,6.508,32.126-12.9,43.806-16.451,10.531-35.908,16.731-32.34,34.291C2017.025,1436.429,2013.056,1449.405,1992.343,1463.036Z" transform="translate(-1961.407 -1235.106)"/>
    </clipPath>
    <linearGradient id="linear-gradient-2" x1="0" y1="0.5" x2="1" y2="0.5" xlink:href="#linear-gradient"/>
    <linearGradient id="linear-gradient-3" x1="0" y1="0.5" x2="1" y2="0.5" xlink:href="#linear-gradient"/>
    <clipPath id="clip-path-4">
      <path id="Trazado_2197" data-name="Trazado 2197" d="M824.434,1486.793c.334-5.546,6.936-44.1-1.737-54.136-9.876-11.439-19.885-8.018-19.9-22.063-.027-21.943-15.235-43.352-42.911-27.983-27.315,15.168-9.515,94.107,11.519,111.947,15.341,21.088,28.05,24.349,25.765,54.5C795.582,1570.155,823.2,1507.627,824.434,1486.793Z" transform="translate(-745.972 -1377.398)"/>
    </clipPath>
    <linearGradient id="linear-gradient-4" x1="2.643" y1="-1.347" x2="3.573" y2="-0.212" xlink:href="#linear-gradient"/>
    <clipPath id="clip-path-5">
      <path id="Trazado_2203" data-name="Trazado 2203" d="M606.962,1968.119c-12.589,8.325-26.767,17.814-37.966.708-9.328-14.246-14.86-24.188-34.451-25.658s-35.881-14.259-31.592-33.4c4.517-20.126-15.261-44.006-.588-59.829,25.565-27.583,48.283,18.856,56.368,45.182s23.734,12.415,40.853,9.461C622.958,1900.566,617.132,1961.384,606.962,1968.119Z" transform="translate(-496.853 -1841.483)"/>
    </clipPath>
    <linearGradient id="linear-gradient-5" x1="0.028" y1="1.88" x2="0.159" y2="0.745" gradientUnits="objectBoundingBox">
      <stop offset="0" stop-color="#ffc444"/>
      <stop offset="0.129" stop-color="#fdb946"/>
      <stop offset="0.167" stop-color="#fdb647"/>
      <stop offset="0.996" stop-color="#f36f56"/>
    </linearGradient>
    <linearGradient id="linear-gradient-6" x1="0.386" y1="1.019" x2="0.693" y2="-0.375" gradientUnits="objectBoundingBox">
      <stop offset="0" stop-color="#a737d5"/>
      <stop offset="1" stop-color="#49e1ef"/>
    </linearGradient>
    <linearGradient id="linear-gradient-7" x1="0.176" y1="-0.145" x2="0.251" y2="5.107" gradientUnits="objectBoundingBox">
      <stop offset="0" stop-color="#febbba"/>
      <stop offset="1" stop-color="#ff928e"/>
    </linearGradient>
    <linearGradient id="linear-gradient-8" x1="0.509" y1="0.828" x2="0.6" y2="4.143" xlink:href="#linear-gradient-6"/>
    <linearGradient id="linear-gradient-9" x1="0.497" y1="0.086" x2="0.558" y2="3.461" gradientUnits="objectBoundingBox">
      <stop offset="0.004" stop-color="#6165d7"/>
      <stop offset="1" stop-color="#aa80f9"/>
    </linearGradient>
    <linearGradient id="linear-gradient-10" x1="-4.672" y1="4.231" x2="1.587" y2="-0.284" xlink:href="#linear-gradient-9"/>
    <linearGradient id="linear-gradient-11" x1="-2.789" y1="2.873" x2="3.469" y2="-1.642" xlink:href="#linear-gradient-9"/>
    <linearGradient id="linear-gradient-12" x1="0.14" y1="-0.153" x2="1.4" y2="2.132" gradientUnits="objectBoundingBox">
      <stop offset="0" stop-color="#ffc41c"/>
      <stop offset="1" stop-color="#f8904f"/>
    </linearGradient>
    <linearGradient id="linear-gradient-13" x1="0.14" y1="-0.153" x2="1.4" y2="2.132" xlink:href="#linear-gradient-12"/>
    <linearGradient id="linear-gradient-15" x1="0.323" y1="0.806" x2="0.794" y2="0.313" xlink:href="#linear-gradient-6"/>
    <linearGradient id="linear-gradient-16" x1="0.504" y1="1.152" x2="0.491" y2="-1.816" gradientUnits="objectBoundingBox">
      <stop offset="0" stop-color="#aa80f9"/>
      <stop offset="0.996" stop-color="#6165d7"/>
    </linearGradient>
    <linearGradient id="linear-gradient-17" x1="0.502" y1="1.273" x2="0.497" y2="0.374" gradientUnits="objectBoundingBox">
      <stop offset="0" stop-color="#ab316d"/>
      <stop offset="1" stop-color="#792d3d"/>
    </linearGradient>
    <linearGradient id="linear-gradient-18" x1="0.444" y1="0.849" x2="0.577" y2="-0.356" xlink:href="#linear-gradient-17"/>
    <linearGradient id="linear-gradient-19" x1="0.422" y1="1.318" x2="0.875" y2="-2.768" xlink:href="#linear-gradient-17"/>
    <linearGradient id="linear-gradient-20" x1="0.402" y1="1.532" x2="0.854" y2="-2.553" xlink:href="#linear-gradient-17"/>
    <linearGradient id="linear-gradient-21" x1="0.426" y1="0.687" x2="0.694" y2="-0.203" gradientUnits="objectBoundingBox">
      <stop offset="0" stop-color="#311944"/>
      <stop offset="1" stop-color="#6b3976"/>
    </linearGradient>
    <linearGradient id="linear-gradient-22" x1="0.464" y1="0.589" x2="0.756" y2="-0.579" xlink:href="#linear-gradient-21"/>
    <linearGradient id="linear-gradient-23" x1="0.83" y1="-0.065" x2="0.567" y2="0.477" xlink:href="#linear-gradient-17"/>
    <linearGradient id="linear-gradient-24" x1="0.829" y1="-0.076" x2="0.567" y2="0.473" xlink:href="#linear-gradient-17"/>
    <linearGradient id="linear-gradient-25" x1="0.578" y1="1.482" x2="0.439" y2="0.103" gradientUnits="objectBoundingBox">
      <stop offset="0.004" stop-color="#e38ddd"/>
      <stop offset="1" stop-color="#9571f6"/>
    </linearGradient>
    <linearGradient id="linear-gradient-26" x1="0.526" y1="1.047" x2="0.469" y2="0.006" xlink:href="#linear-gradient-7"/>
    <linearGradient id="linear-gradient-27" x1="0.482" y1="0.924" x2="0.511" y2="0.053" xlink:href="#linear-gradient-7"/>
    <linearGradient id="linear-gradient-28" x1="0.463" y1="1.71" x2="0.573" y2="-1.835" xlink:href="#linear-gradient-7"/>
    <linearGradient id="linear-gradient-29" x1="0.46" y1="1.795" x2="0.569" y2="-1.749" xlink:href="#linear-gradient-7"/>
    <linearGradient id="linear-gradient-30" x1="0.889" y1="-0.809" x2="0.338" y2="1.269" xlink:href="#linear-gradient-6"/>
    <linearGradient id="linear-gradient-31" x1="0.528" y1="0.732" x2="0.743" y2="1.643" xlink:href="#linear-gradient-7"/>
    <linearGradient id="linear-gradient-32" x1="0.501" y1="0.37" x2="0.463" y2="2.574" xlink:href="#linear-gradient-7"/>
    <linearGradient id="linear-gradient-33" x1="1.342" y1="0.329" x2="1.166" y2="8.187" xlink:href="#linear-gradient-7"/>
    <linearGradient id="linear-gradient-34" x1="0.529" y1="-0.396" x2="0.327" y2="6.723" xlink:href="#linear-gradient-7"/>
    <linearGradient id="linear-gradient-35" y1="0.5" x2="1" y2="0.5" gradientUnits="objectBoundingBox">
      <stop offset="0" stop-color="#444b8c"/>
      <stop offset="0.996" stop-color="#3e4177"/>
    </linearGradient>
    <linearGradient id="linear-gradient-36" x1="0.855" y1="-13.15" x2="0.543" y2="-1.427" gradientUnits="objectBoundingBox">
      <stop offset="0" stop-color="#ffc444"/>
      <stop offset="0.996" stop-color="#f36f56"/>
    </linearGradient>
    <linearGradient id="linear-gradient-37" x1="32.73" y1="-2.672" x2="33.005" y2="2.002" gradientUnits="objectBoundingBox">
      <stop offset="0" stop-color="#444b8c"/>
      <stop offset="0.996" stop-color="#26264f"/>
    </linearGradient>
    <linearGradient id="linear-gradient-38" x1="0.5" y1="0.663" x2="0.5" y2="-0.547" xlink:href="#linear-gradient-37"/>
  </defs>
  <g id="ilu_nuestrapropuesta_home" transform="translate(-467.473 -391.76)">
    <g id="Grupo_1356" data-name="Grupo 1356" transform="translate(467.473 391.76)">
      <path id="Trazado_2174" data-name="Trazado 2174" d="M832.879,632.608c-10.049-65.8-51.263-146.639-132.688-155.1,0,0-61.82-7.524-122.758,3.875-36.175,6.762-67.887,26.9-87.946,55.833a121.11,121.11,0,0,0-18.642,97.862c5.279,21.85,8.86,44.461,7.871,66.912-1.711,39.075-.722,75.558,37.2,98.851C549.783,821.65,592.4,840,633.052,843.219c27.623,2.178,58.613-1.35,85.247-8.539C853.994,798.037,842.928,698.411,832.879,632.608Z" transform="translate(-467.473 -463.94)" fill="#45c481" opacity="0.37"/>
      <g id="Grupo_1319" data-name="Grupo 1319" transform="translate(207.274 172.175)">
        <g id="Grupo_1318" data-name="Grupo 1318">
          <path id="Trazado_2175" data-name="Trazado 2175" d="M2064.568,1846.965c-2-.655-5.773-3.835-6.415-5.065-4.276-8.219-13.283-23.079-10.9-32.581.4-1.617,8.032-1.764,9.341-3.074,4.837-1.27,6.588-1.4,10.6-4.878,11.827-10.223-5.706-36.937,21.142-40.091,19.671-2.312,34.157,7.043,37.592-22.17s36.215-77.442,62.876-51.584c15.3,14.834-7.069,36.015-1.483,55.793,5.305,18.8-4.65,31.578-24.856,38.447s-11.947,16.638-9.716,33.97c2.673,20.821-28.157,18.6-42.309,16.37C2099.02,1830.3,2068.791,1833.4,2064.568,1846.965Z" transform="translate(-2043.066 -1680.153)" fill="url(#linear-gradient)"/>
          <g id="Grupo_1317" data-name="Grupo 1317">
            <g id="Grupo_1316" data-name="Grupo 1316" opacity="0.8" clip-path="url(#clip-path)">
              <path id="Trazado_2176" data-name="Trazado 2176" d="M2090.52,1807.659l-.12-.454a171.134,171.134,0,0,0,85.848-55.272c21.676-25.725,36.817-58.065,43.779-93.532l.468.094c-6.976,35.547-22.157,67.968-43.873,93.746A171.712,171.712,0,0,1,2090.52,1807.659Z" transform="translate(-2080.792 -1661.306)" fill="#fcfdfe"/>
              <path id="Trazado_2177" data-name="Trazado 2177" d="M2364.154,2657.692l-.053-.468c19.711-2.085,49.232,3.648,65.8,12.776l-.227.414C2413.171,2661.314,2383.784,2655.607,2364.154,2657.692Z" transform="translate(-2317.915 -2526.28)" fill="#fcfdfe"/>
              <path id="Trazado_2178" data-name="Trazado 2178" d="M2187.054,2333.365l-.254-.4c8.753-5.345,14.473-14.9,17-28.424,1.844-9.916,1.964-21.689.361-34.986l.468-.053c1.617,13.35,1.5,25.177-.361,35.133C2201.714,2318.277,2195.927,2327.953,2187.054,2333.365Z" transform="translate(-2164.309 -2190.741)" fill="#fcfdfe"/>
              <path id="Trazado_2179" data-name="Trazado 2179" d="M2755.767,2265.828l-.267-.387c16-10.931,36.362-10.811,50.635-8.793l-.066.468C2791.889,2255.11,2771.644,2254.99,2755.767,2265.828Z" transform="translate(-2657.01 -2178.689)" fill="#fcfdfe"/>
              <path id="Trazado_2180" data-name="Trazado 2180" d="M2874.241,1706.021l-.468-.12c2.392-9.047,4.423-27.97-8.874-52.974l.428-.227C2878.7,1677.85,2876.66,1696.907,2874.241,1706.021Z" transform="translate(-2751.79 -1656.368)" fill="#fcfdfe"/>
            </g>
          </g>
        </g>
      </g>
      <g id="Grupo_1323" data-name="Grupo 1323" transform="translate(199.644 112.702)">
        <g id="Grupo_1322" data-name="Grupo 1322">
          <g id="Grupo_1320" data-name="Grupo 1320" clip-path="url(#clip-path-2)">
            <path id="Trazado_2182" data-name="Trazado 2182" d="M1992.343,1463.036q-15.535-5.212-30.91-11.132c-.2.12.454-23.627,13.618-33.8,25.939-19.6,15.074-43.325,13.136-56.568-3.461-18.789,3.434-37.244,21.408-34.318,20.005,2.86,29.494-29.4,31.258-59.976-.174-15.1,16.771-30.335,31.244-31.926,14.833-1.978,27.195,9.715,26.273,39.583.468,34.852-27.756,50.769-39.89,66.03-11.92,14.981,6.508,32.126-12.9,43.806-16.451,10.531-35.908,16.731-32.34,34.291C2017.025,1436.429,2013.056,1449.405,1992.343,1463.036Z" transform="translate(-1961.407 -1235.106)" fill="url(#linear-gradient-2)"/>
          </g>
          <g id="Grupo_1321" data-name="Grupo 1321" opacity="0.8" clip-path="url(#clip-path-2)">
            <path id="Trazado_2184" data-name="Trazado 2184" d="M2080.9,1405.621c.04-.2,18.923-47.067,44.942-91.287,3.8-7.23,7.8-14.5,11.693-21.516,10.4-18.8,21.155-38.26,28.184-58.266,7.858-22.371,10.25-43.365,7.283-64.172l.561-.08c2.967,20.9.575,41.975-7.31,64.426-7.056,20.059-17.814,39.53-28.224,58.359-3.889,7.016-7.9,14.286-11.693,21.516-24.87,42.269-44.381,89.389-44.888,91.127Z" transform="translate(-2064.931 -1178.961)" fill="#beb8f2"/>
            <path id="Trazado_2185" data-name="Trazado 2185" d="M2650.247,1534.5l-.347-.441c14.219-11.052,31.886-27.222,41.374-35.908,7.657-7.016,7.684-7,7.978-6.9l-.187.535.094-.267.08.267c-.374.187-3.555,3.1-7.59,6.789C2682.16,1507.249,2664.479,1523.433,2650.247,1534.5Z" transform="translate(-2557.892 -1457.003)" fill="#beb8f2"/>
            <path id="Trazado_2186" data-name="Trazado 2186" d="M2592.425,1395.1c.254-15.5-4.169-26.527-7.925-33.035-4.1-7.123-8.432-10.784-9.021-11h0a.19.19,0,0,0,.147-.013l-.227-.521c.16-.067.321,0,.575.174,3.7,2.472,17.453,17.239,17.012,44.407Z" transform="translate(-2493.348 -1335.087)" fill="#beb8f2"/>
            <path id="Trazado_2187" data-name="Trazado 2187" d="M2206.805,1982.1c4.183-13.738,3.622-29.44-1.684-46.639a132.484,132.484,0,0,0-11.787-26.794,9.316,9.316,0,0,1-.534-.976l.534-.187c.027.08.24.454.495.882a132.94,132.94,0,0,1,11.84,26.914c5.345,17.319,5.907,33.115,1.684,46.973Z" transform="translate(-2161.877 -1817.644)" fill="#beb8f2"/>
            <path id="Trazado_2188" data-name="Trazado 2188" d="M2354.614,2262.117l-.414-.374c16.451-18.322,43.592-14.954,43.9-14.847h0l.16.294-.241.24-.04-.281-.067.267C2397.645,2247.363,2370.971,2243.889,2354.614,2262.117Z" transform="translate(-2301.708 -2111.416)" fill="#beb8f2"/>
            <path id="Trazado_2189" data-name="Trazado 2189" d="M2049.823,2647.286c1.323-6.067,1-16.878-8.018-33.89-.508-.949-.508-.949-.454-1.1l.267.093.268-.067c.027.067.2.414.414.8,9.087,17.172,9.408,28.117,8.072,34.278Z" transform="translate(-2030.648 -2428.257)" fill="#beb8f2"/>
            <path id="Trazado_2190" data-name="Trazado 2190" d="M2141.308,2674.934l-.508-.254c2.191-4.423,9.141-12.6,31.137-17.747.307-.067.494-.12.561-.134l.16.535c-.08.027-.281.067-.6.147C2150.3,2662.573,2143.446,2670.591,2141.308,2674.934Z" transform="translate(-2116.827 -2466.81)" fill="#beb8f2"/>
          </g>
        </g>
      </g>
      <g id="Grupo_1332" data-name="Grupo 1332" transform="translate(3.888 131.717)">
        <g id="Grupo_1331" data-name="Grupo 1331">
          <g id="Grupo_1330" data-name="Grupo 1330">
            <g id="Grupo_1326" data-name="Grupo 1326" transform="translate(33.33)">
              <path id="Trazado_2192" data-name="Trazado 2192" d="M796.989,1547.87c-.588,4.891-1.63,8.86-2.432,13.618,20.046-5.479,40.372-7.083,60.7-12.6-18.014-20.326-32.621-27.836-30.87-59.281.829-14.753,6.775-43.592-1.7-56.021-9.662-14.166-19.925-7.885-19.9-22.4.053-22.678-15.248-43.432-42.884-28.184-27.275,15.047-9.582,93.946,11.56,112.054C786.365,1514.047,800.076,1522.292,796.989,1547.87Z" transform="translate(-745.99 -1377.724)" fill="url(#linear-gradient-3)"/>
              <g id="Grupo_1325" data-name="Grupo 1325">
                <g id="Grupo_1324" data-name="Grupo 1324" opacity="0.8" clip-path="url(#clip-path-4)">
                  <path id="Trazado_2193" data-name="Trazado 2193" d="M870.251,1442.815c-3.06-7.029-6.709-13.9-10.237-20.553l-1.336-2.512c-2.833-5.345-5.265-10.17-7.417-14.433-1.216-2.406-2.352-4.664-3.475-6.856-3.408-6.628-5.813-11.279-7.029-13.617-.428-.815-.708-1.363-.829-1.6-9.421-18.335-15.488-46.719-18.749-61.981-.347-1.657-.668-3.127-.949-4.4a315.7,315.7,0,0,0-22.531-65.6l.361-.16a315.965,315.965,0,0,1,22.558,65.682c.281,1.27.588,2.74.949,4.4,3.261,15.235,9.314,43.592,18.709,61.874.12.241.4.775.829,1.6,1.216,2.339,3.622,6.989,7.029,13.618,1.123,2.192,2.272,4.464,3.474,6.855,2.152,4.263,4.584,9.087,7.417,14.433l1.336,2.512c3.528,6.655,7.19,13.537,10.25,20.58Z" transform="translate(-790.787 -1267.978)" fill="#fcfdfe"/>
                  <path id="Trazado_2194" data-name="Trazado 2194" d="M1169.86,1805.493c-5.653-12.415-7.3-29.266-4.744-48.751a171.833,171.833,0,0,1,13.8-48.042l.361.16A171.511,171.511,0,0,0,1165.5,1756.8c-2.539,19.4-.909,36.189,4.7,48.537Z" transform="translate(-1108.09 -1664.426)" fill="#fcfdfe"/>
                  <path id="Trazado_2195" data-name="Trazado 2195" d="M977.587,1412.78l-.388-.013c.494-11.787,2.472-23.573,4.383-34.986,1.31-7.8,2.673-15.876,3.541-23.881l.388.04c-.869,8.018-2.232,16.09-3.541,23.908C980.06,1389.247,978.082,1401.02,977.587,1412.78Z" transform="translate(-946.299 -1357.04)" fill="#fcfdfe"/>
                  <path id="Trazado_2196" data-name="Trazado 2196" d="M789.77,1876.881c-9.3-13.51-27.89-27.382-39.77-29.694l.08-.388c11.974,2.325,30.67,16.264,40.024,29.854Z" transform="translate(-749.462 -1784.071)" fill="#fcfdfe"/>
                </g>
              </g>
            </g>
            <g id="Grupo_1329" data-name="Grupo 1329" transform="translate(0 61.921)">
              <path id="Trazado_2198" data-name="Trazado 2198" d="M558.5,1894.121c7.844,24.055,21.449,17.119,39.209,9.007-.494,23.56-.094,46.519.374,69.825-11.96,5.252-20.633,8.793-29.24-4.544-9.729-15.074-14.834-24.095-34.532-25.805s-35.895-14.152-31.618-33.449c4.5-20.3-15.3-43.739-.6-59.842C527.736,1821.249,550.334,1869.064,558.5,1894.121Z" transform="translate(-496.568 -1840.754)" fill="url(#linear-gradient-4)"/>
              <g id="Grupo_1328" data-name="Grupo 1328" transform="translate(0.038 0.097)">
                <g id="Grupo_1327" data-name="Grupo 1327" opacity="0.8" clip-path="url(#clip-path-5)">
                  <path id="Trazado_2199" data-name="Trazado 2199" d="M653.851,1937.988c-20.126-7.056-36.71-13.5-51.544-26.607-14.192-12.548-22.09-26.914-26.38-48.042-2.232-10.958-5.065-18.549-9.127-28.892l.361-.147c4.076,10.357,6.909,17.974,9.154,28.959,4.276,21.048,12.134,35.347,26.26,47.828,14.78,13.056,31.324,19.484,51.41,26.527Z" transform="translate(-557.452 -1835.26)" fill="#fcfdfe"/>
                  <path id="Trazado_2200" data-name="Trazado 2200" d="M1061.734,2725.18l-.334-.214a67.766,67.766,0,0,1,12.99-15.1,43.708,43.708,0,0,1,8.419-5.466l.187.347a43.2,43.2,0,0,0-8.352,5.412A67.636,67.636,0,0,0,1061.734,2725.18Z" transform="translate(-985.956 -2589.083)" fill="#fcfdfe"/>
                  <path id="Trazado_2201" data-name="Trazado 2201" d="M521.834,2440.8l-.134-.374c17.707-6.04,35.868-6.4,51.156-1.016l-.134.374C557.528,2434.429,539.46,2434.79,521.834,2440.8Z" transform="translate(-518.38 -2356.222)" fill="#fcfdfe"/>
                  <path id="Trazado_2202" data-name="Trazado 2202" d="M686.1,1810.129c-.441-1.857.241-17.8,1.029-32.113.788-14.366,1.817-29.828,2.192-30.817l.374.134c-.321.842-1.283,14.62-2.165,30.71-.775,14.286-1.47,30.188-1.029,32.006Z" transform="translate(-660.689 -1759.8)" fill="#fcfdfe"/>
                </g>
              </g>
            </g>
          </g>
        </g>
      </g>
      <g id="Grupo_1336" data-name="Grupo 1336" transform="translate(31.894 126.919)">
        <g id="Grupo_1333" data-name="Grupo 1333" transform="translate(0 2.98)">
          <path id="Trazado_2204" data-name="Trazado 2204" d="M1320.53,1375.752l-.094-1.149a11.736,11.736,0,0,0-12.508-10.784,13.025,13.025,0,0,0-8.753,4.209l-34.959,38.1a41.577,41.577,0,0,1-17.613,11.386l-3.207,1.056a41.5,41.5,0,0,1-14.059,2.085l-51.3-1.283,42.4-17.2a10.307,10.307,0,0,0,5.693-13.377l-.575-1.43a10.314,10.314,0,0,0-11.079-6.348c-16.758,2.486-55.219,8.3-71.723,11.72-15.876,3.3-38.1,33.128-48.537,48.336a33.458,33.458,0,0,0-5.92,18.816,22.565,22.565,0,0,0,10.21,19.057l3.635,2.379a36.387,36.387,0,0,0,22.932,5.813l102.459-8.593a46.378,46.378,0,0,0,33.115-18.228l57.276-75.638A13.052,13.052,0,0,0,1320.53,1375.752Z" transform="translate(-1037.225 -1363.79)" fill="url(#linear-gradient-5)"/>
          <path id="Trazado_2205" data-name="Trazado 2205" d="M803.514,1954.493l-46.225-54.15a5.441,5.441,0,0,0-7.671-.6l-41.574,35.494a5.441,5.441,0,0,0-.6,7.671l46.238,54.149a5.441,5.441,0,0,0,7.671.6l41.574-35.494A5.453,5.453,0,0,0,803.514,1954.493Z" transform="translate(-706.138 -1826.989)" fill="url(#linear-gradient-6)"/>
        </g>
        <g id="Grupo_1334" data-name="Grupo 1334" transform="translate(2.486)">
          <path id="Trazado_2206" data-name="Trazado 2206" d="M1339.13,1353.452l-.094-1.149a11.736,11.736,0,0,0-12.508-10.785,13.026,13.026,0,0,0-8.753,4.209l-34.959,38.1a41.58,41.58,0,0,1-17.613,11.386l-3.207,1.056a41.49,41.49,0,0,1-14.059,2.085l-51.3-1.283,42.4-17.2a10.306,10.306,0,0,0,5.693-13.377l-.575-1.43a10.313,10.313,0,0,0-11.078-6.348c-16.758,2.486-55.219,8.3-71.723,11.72-15.876,3.3-38.1,33.129-48.537,48.336a33.458,33.458,0,0,0-5.92,18.816,22.565,22.565,0,0,0,10.21,19.057l3.635,2.379a36.386,36.386,0,0,0,22.932,5.813l102.459-8.593a46.378,46.378,0,0,0,33.115-18.228l57.276-75.638A13.052,13.052,0,0,0,1339.13,1353.452Z" transform="translate(-1055.826 -1341.49)" fill="url(#linear-gradient-7)"/>
          <path id="Trazado_2207" data-name="Trazado 2207" d="M821.512,1939.764l-41.574,35.494a5.441,5.441,0,0,1-7.671-.6l-46.225-54.15a5.441,5.441,0,0,1,.6-7.671l2.539-2.165,39.049-33.329a5.441,5.441,0,0,1,7.671.6l4.771,5.6,37.512,43.873,2.392,2.74h0l1.55,1.884A5.519,5.519,0,0,1,821.512,1939.764Z" transform="translate(-724.738 -1804.603)" fill="url(#linear-gradient-8)"/>
        </g>
        <path id="Trazado_2208" data-name="Trazado 2208" d="M821.512,2164.293l-41.574,35.494a5.441,5.441,0,0,1-7.671-.6l-46.225-54.15a5.441,5.441,0,0,1,.6-7.671l2.539-2.165c1.751,5.532,6.04,10.624,16.892,8.793,22.1-3.729,23.333,9.341,33.035,14.593,11.76,6.375,28.932-2.526,41.454-3.916h0l1.55,1.884A5.52,5.52,0,0,1,821.512,2164.293Z" transform="translate(-722.252 -2029.131)" opacity="0.4" fill="url(#linear-gradient-9)"/>
        <g id="Grupo_1335" data-name="Grupo 1335" transform="translate(53.516 122.466)">
          <circle id="Elipse_198" data-name="Elipse 198" cx="5.867" cy="5.867" r="5.867" transform="translate(22.224)" fill="url(#linear-gradient-10)"/>
          <circle id="Elipse_199" data-name="Elipse 199" cx="5.867" cy="5.867" r="5.867" transform="translate(0 15.742)" fill="url(#linear-gradient-11)"/>
        </g>
      </g>
      <g id="Grupo_1339" data-name="Grupo 1339" transform="translate(108.321 0)">
        <g id="Grupo_1337" data-name="Grupo 1337">
          <circle id="Elipse_200" data-name="Elipse 200" cx="49.218" cy="49.218" r="49.218" transform="translate(0 69.605) rotate(-45)" fill="#fff"/>
          <circle id="Elipse_201" data-name="Elipse 201" cx="43.726" cy="43.726" r="43.726" transform="translate(25.88 25.877)" fill="url(#linear-gradient-12)"/>
        </g>
        <g id="Grupo_1338" data-name="Grupo 1338" transform="translate(52.166 42.435)">
          <path id="Trazado_2209" data-name="Trazado 2209" d="M1681.777,763.637v-6a34.879,34.879,0,0,1-13.377-3.261l2.392-9.582a31.468,31.468,0,0,0,13.31,3.328c3.528,0,6.187-.8,6.187-2.993,0-1.991-2.071-3.127-7.591-4.464-7.791-1.857-13.912-5.4-13.912-12.655,0-6.455,4.664-11.386,12.99-12.789V709.3h7.925v5.466a31.687,31.687,0,0,1,11.252,2.258l-2.325,9.261a28.676,28.676,0,0,0-11.519-2.526c-4.263,0-5.332,1.4-5.332,2.726,0,1.67,2.86,2.993,8.793,4.664,9.248,2.526,12.709,6.254,12.709,12.856,0,6.321-4.731,11.653-13.577,13.056v6.588h-7.925Z" transform="translate(-1668.4 -709.3)" fill="#fff"/>
        </g>
      </g>
      <g id="Grupo_1342" data-name="Grupo 1342" transform="translate(41.648 71.439)">
        <g id="Grupo_1340" data-name="Grupo 1340" transform="translate(0 0)">
          <circle id="Elipse_202" data-name="Elipse 202" cx="33.569" cy="33.569" r="33.569" transform="translate(0 47.474) rotate(-45)" fill="#fff"/>
          <circle id="Elipse_203" data-name="Elipse 203" cx="29.828" cy="29.828" r="29.828" transform="translate(17.65 17.649)" fill="url(#linear-gradient-13)"/>
        </g>
        <g id="Grupo_1341" data-name="Grupo 1341" transform="translate(35.571 28.954)">
          <path id="Trazado_2210" data-name="Trazado 2210" d="M1054.427,1180.057v-4.089a23.591,23.591,0,0,1-9.127-2.232l1.63-6.535a21.465,21.465,0,0,0,9.087,2.272c2.406,0,4.223-.548,4.223-2.045,0-1.363-1.4-2.138-5.185-3.047-5.305-1.27-9.488-3.675-9.488-8.633,0-4.41,3.181-7.764,8.86-8.713V1143h5.4v3.728a21.141,21.141,0,0,1,7.671,1.55l-1.59,6.307a19.733,19.733,0,0,0-7.858-1.724c-2.9,0-3.635.949-3.635,1.858,0,1.136,1.951,2.045,6,3.181,6.308,1.724,8.673,4.263,8.673,8.767,0,4.316-3.221,7.951-9.261,8.9v4.49Z" transform="translate(-1045.3 -1143)" fill="#fff"/>
        </g>
      </g>
      <g id="Grupo_1345" data-name="Grupo 1345" transform="translate(221.265 51.501)">
        <g id="Grupo_1343" data-name="Grupo 1343" transform="translate(0 0)">
          <circle id="Elipse_204" data-name="Elipse 204" cx="33.569" cy="33.569" r="33.569" transform="translate(0 47.474) rotate(-45)" fill="#fff"/>
          <circle id="Elipse_205" data-name="Elipse 205" cx="29.828" cy="29.828" r="29.828" transform="translate(17.654 17.648)" fill="url(#linear-gradient-13)"/>
        </g>
        <g id="Grupo_1344" data-name="Grupo 1344" transform="translate(35.574 28.954)">
          <path id="Trazado_2211" data-name="Trazado 2211" d="M2398.527,1030.857v-4.089a23.6,23.6,0,0,1-9.127-2.232l1.631-6.535a21.409,21.409,0,0,0,9.087,2.272c2.406,0,4.223-.548,4.223-2.045,0-1.363-1.4-2.138-5.185-3.047-5.305-1.27-9.488-3.675-9.488-8.633,0-4.41,3.18-7.764,8.86-8.713V993.8h5.4v3.728a21.14,21.14,0,0,1,7.671,1.55l-1.59,6.308a19.731,19.731,0,0,0-7.858-1.724c-2.9,0-3.635.949-3.635,1.858,0,1.136,1.951,2.045,6,3.181,6.308,1.724,8.673,4.263,8.673,8.767,0,4.316-3.221,7.951-9.261,8.9v4.49Z" transform="translate(-2389.4 -993.8)" fill="#fff"/>
        </g>
      </g>
      <g id="Grupo_1348" data-name="Grupo 1348" transform="translate(46.594 223.366)">
        <g id="Grupo_1347" data-name="Grupo 1347">
          <path id="Trazado_2212" data-name="Trazado 2212" d="M817.576,2586.7c-4.183-10.878,1.724-28.719,5.439-36.8,10.838-23.56,30.736-24.362,47.053-25.017,16.023-.642,31.5-1.256,42.817,16.812,7.4,11.813,14.192,33.476,9.662,45.009-4.771,12.134-18.014,2.726-49.526,2.566C838.37,2589.075,822.8,2600.287,817.576,2586.7Z" transform="translate(-816.138 -2462.976)" fill="url(#linear-gradient-15)"/>
          <path id="Trazado_2213" data-name="Trazado 2213" d="M1123.067,2532.337c0,2.967-7.243,6.521-16.183,6.521s-16.183-3.555-16.183-6.521,7.243-1.644,16.183-1.644S1123.067,2529.371,1123.067,2532.337Z" transform="translate(-1054.009 -2467.966)" fill="url(#linear-gradient-16)"/>
          <path id="Trazado_2214" data-name="Trazado 2214" d="M1125.454,2390c-2.459,0,3.221,17.293-5.72,19.658a.982.982,0,0,0-.214,1.817c2.405,1.3,6.9,2.954,14.272,2.954a18.111,18.111,0,0,0,10.116-3.034.986.986,0,0,0-.107-1.7c-2.753-1.417-6.588-5.947-5.439-19.257Z" transform="translate(-1078.526 -2346.328)" fill="url(#linear-gradient-17)"/>
          <path id="Trazado_2215" data-name="Trazado 2215" d="M1111.3,2171.11c.04.214.775,16,4.383,23.881,1.029,2.258,6.174,1.991,9.488,1.724,2.887-.241,7.417.815,8.686-1.176,5.118-8.018,4.25-27.85,4.25-27.85s-2.619-6.6-13.39-6.415A14.068,14.068,0,0,0,1111.3,2171.11Z" transform="translate(-1071.856 -2148.165)" fill="url(#linear-gradient-18)"/>
          <path id="Trazado_2216" data-name="Trazado 2216" d="M1087.234,2279.064s-2.245-2.619-4.37-2.966-3.5,5.145-.615,8.726,6.241.615,6.241.615Z" transform="translate(-1045.263 -2247.634)" fill="url(#linear-gradient-19)"/>
          <path id="Trazado_2217" data-name="Trazado 2217" d="M1286.256,2279.064s2.245-2.619,4.37-2.966,3.5,5.145.615,8.726-6.241.615-6.241.615Z" transform="translate(-1222.343 -2247.634)" fill="url(#linear-gradient-20)"/>
          <path id="Trazado_2218" data-name="Trazado 2218" d="M1085.847,2094.435c.281.521.615,1,.829.949.909-.241-2.606-9.1.628-12.214,1.67-1.6,3.555-.147,10.4-.454,6.9-.307,8.66-1.965,10.744-.7,1.9,1.149,3.595,4.437,2.192,14.179.388-.094.789-.187,1.176-.267a9.993,9.993,0,0,1,.708-6.468,7.11,7.11,0,0,0,1.283-3.835c-.04-1.069-.4-1.122-.454-1.991-.174-2.566,2.753-3.261,2.9-5.786.107-1.951-1.577-2.392-1.27-4.437.267-1.738,1.577-2.058,1.363-3.314-.227-1.35-1.978-2.352-3.221-2.713s-1.711.04-2.459-.468c-1.189-.828-.615-2.285-1.483-2.833-1.537-.962-4.584,2.887-6.562,1.938-1.189-.588-.735-2.312-1.791-2.74-2.045-.815-5.653,4.918-7.109,4.156-.695-.361-.027-1.764-1-2.78a4.034,4.034,0,0,0-5.145.067c-1.162,1.189-.174,2.606-1.417,4.116-1.109,1.35-2.392.8-3.648,1.884-2.125,1.844-1.39,6.014-1.123,7.5.909,5.118,3.742,6.161,3.114,9.648a7.716,7.716,0,0,0-.267,3.341A7,7,0,0,0,1085.847,2094.435Z" transform="translate(-1045.641 -2063.205)" fill="url(#linear-gradient-21)"/>
          <g id="Grupo_1346" data-name="Grupo 1346" transform="translate(35.4 7.844)" opacity="0.3">
            <path id="Trazado_2219" data-name="Trazado 2219" d="M1112.032,2134.221c-.254-2.512,1.7-3.688,1.376-5.492a4.392,4.392,0,0,0-3.434-3.02c-3.274-.588-5.385,4.223-8.646,3.7-2.512-.4-2.232-3.448-5.078-4.664-4.5-1.938-9.221,3.969-12.214,2.339-.9-.494-1.8-1.751-1.871-5.185-1.711,1.964-1.042,5.76-.788,7.163.909,5.118,3.742,6.16,3.114,9.648a7.717,7.717,0,0,0-.267,3.341,6.755,6.755,0,0,0,1.617,3.207c.281.521.615,1,.829.949.909-.24-2.606-9.1.628-12.214,1.671-1.6,3.555-.147,10.4-.454,6.9-.308,8.66-1.965,10.744-.7,1.9,1.149,3.595,4.437,2.192,14.179.388-.094.788-.187,1.176-.267a9.995,9.995,0,0,1,.708-6.468c.2-.387.468-.815.695-1.3a11.222,11.222,0,0,0-.495-2.726A12.04,12.04,0,0,1,1112.032,2134.221Z" transform="translate(-1081.032 -2121.9)" fill="url(#linear-gradient-22)"/>
          </g>
        </g>
      </g>
      <g id="Grupo_1351" data-name="Grupo 1351" transform="translate(224.549 221.316)">
        <g id="Grupo_1350" data-name="Grupo 1350">
          <g id="Grupo_1349" data-name="Grupo 1349">
            <path id="Trazado_2220" data-name="Trazado 2220" d="M2178.31,2138.234c-21.97-3.555-26.821-6.014-29.066-10.517-3.247-6.535-.882-17.132,4.677-23.654,4.891-5.72,11-6.855,10.811-10.824-.147-3.261-4.33-3.688-7.4-9.823-.9-1.791-2.633-5.265-1.871-9.448,1.109-6.134,6.762-9.354,7.216-9.6,5.92-3.247,9.3.481,13.765-2.432,5.6-3.648,3.06-11.319,8.3-13.551,3.822-1.617,8.7.949,9.983,1.617,4.25,2.232,3.809,4.5,7.4,5.88,4.223,1.63,6.241-.962,11.145.067,4.063.855,7,3.648,9.395,6.468,5.4,6.348,2.713,10.116,6.7,17.947,5.613,11.025,14.112,9.756,15.609,18.616.789,4.637-1.229,6.735.321,13.818,1.056,4.8,2.365,5.653,2.606,8.473.668,8.112-9.047,15.194-10.851,16.451C2225.551,2145.664,2209.648,2143.3,2178.31,2138.234Z" transform="translate(-2147.771 -2047.865)" fill="url(#linear-gradient-23)"/>
            <path id="Trazado_2221" data-name="Trazado 2221" d="M2214.136,2125.054c-14.807-1.069-24.8,12.281-28.759,8.954-3.742-3.14,6.842-13.751,3.221-26.153-3.555-12.174-17.466-14.7-16.357-21.555,1.243-7.751,19.9-9.769,19.458-15.5-.254-3.381-6.869-4.089-8.178-9.448a8.3,8.3,0,0,1,.134-4.25c-3.622,2.846-1.978,9.5-7.07,12.829-4.463,2.913-7.844-.815-13.764,2.432-.454.254-6.121,3.475-7.217,9.6-.762,4.183.976,7.657,1.871,9.448,3.074,6.134,7.257,6.548,7.4,9.823.174,3.969-5.92,5.092-10.811,10.824-5.573,6.521-7.938,17.105-4.677,23.654,2.245,4.5,7.083,6.962,29.066,10.517,31.338,5.065,47.24,7.43,58.76-.481,4.477-3.073,9.742-8.325,10.878-13.016a13.176,13.176,0,0,1-6.548,3.328C2231.923,2137.763,2227.486,2126.016,2214.136,2125.054Z" transform="translate(-2147.889 -2055.866)" opacity="0.7" fill="url(#linear-gradient-24)"/>
          </g>
          <path id="Trazado_2222" data-name="Trazado 2222" d="M2180.954,2558.885c-3.3-8.112-1.283-20.754-.869-23.427a50.163,50.163,0,0,1,6.976-19.137c9.756-15.729,24.656-15.582,35.948-15.462,5.6.053,11.412-.053,18.522,2.472a50.517,50.517,0,0,1,10.424,5.332c14.339,9.983,25.725,42.657,14.1,54.871-7.39,7.751-14.94-2.3-47.441,2.125-12.936,1.764-26.487,4.811-34.491-2.138A11.988,11.988,0,0,1,2180.954,2558.885Z" transform="translate(-2174.909 -2440.305)" fill="url(#linear-gradient-25)"/>
          <path id="Trazado_2223" data-name="Trazado 2223" d="M2391.915,2358.1s2.379,17.065-9.675,20.446a1.854,1.854,0,0,0-.762,3.141l14.86,13.965a2.212,2.212,0,0,0,3.154-.134l13.484-14.9a1.864,1.864,0,0,0-.735-2.994c-4.33-1.59-12.081-6.227-10.45-18.709Z" transform="translate(-2349.735 -2316.641)" fill="url(#linear-gradient-26)"/>
          <path id="Trazado_2224" data-name="Trazado 2224" d="M2408.09,2196.418c0,.187,3.247,16.838,11.586,16.838,7.9,0,10.9-12.268,11.88-17.988.107-.976.214-1.951.307-2.927a6.121,6.121,0,0,1-3.461.107,5.425,5.425,0,0,1-3.5-2.606c-.949-2.112.8-3.782-.2-5.626a4.159,4.159,0,0,0-2.619-1.817c.588.869,1.738,2.793,1.083,4.544-.441,1.176-1.657,2.312-4.37,2.993C2411.043,2191.888,2408.01,2192.636,2408.09,2196.418Z" transform="translate(-2373.301 -2164.421)" fill="url(#linear-gradient-27)"/>
          <path id="Trazado_2225" data-name="Trazado 2225" d="M2392.292,2288.4s-4.3-3.635-4.677-1.4c-.775,4.637,2.9,7.2,4.891,5.813S2392.292,2288.4,2392.292,2288.4Z" transform="translate(-2355.471 -2254.416)" fill="url(#linear-gradient-28)"/>
          <path id="Trazado_2226" data-name="Trazado 2226" d="M2558.277,2288.4s4.3-3.635,4.677-1.4c.775,4.637-2.9,7.2-4.891,5.813S2558.277,2288.4,2558.277,2288.4Z" transform="translate(-2502.506 -2254.416)" fill="url(#linear-gradient-29)"/>
        </g>
      </g>
      <g id="Grupo_1355" data-name="Grupo 1355" transform="translate(107.896 200.724)">
        <g id="Grupo_1353" data-name="Grupo 1353">
          <g id="Grupo_1352" data-name="Grupo 1352">
            <path id="Trazado_2227" data-name="Trazado 2227" d="M1355.924,2621.5c-51.477.4-69.531,7.176-77.71-3.982-7.524-10.263-1.3-47.134,7.684-57.49,14.192-16.371,36.977-17.172,68.155-18.041,29.32-.815,47.387-1.323,61.646,11.319,13.337,11.813,21.849,52.573,13.551,63.918C1421.539,2627.75,1405.075,2621.122,1355.924,2621.5Z" transform="translate(-1274.854 -2455.049)" fill="url(#linear-gradient-30)"/>
            <path id="Trazado_2228" data-name="Trazado 2228" d="M1764.07,2368.9s3.314,23.827-1.27,26.112l13.043,14.206,13.2-16.825s-5-3.755-3.675-23.48h-21.3Z" transform="translate(-1697.593 -2305.406)" fill="url(#linear-gradient-31)"/>
            <path id="Trazado_2229" data-name="Trazado 2229" d="M1707.091,2060.455c-.468.641-6.588,30.669,14.593,33.81s22.117-19.056,21.836-28.465-9.956-12.829-15.5-13.5S1708.761,2058.2,1707.091,2060.455Z" transform="translate(-1648.311 -2031.078)" fill="url(#linear-gradient-32)"/>
            <path id="Trazado_2230" data-name="Trazado 2230" d="M1667.709,2226.328s-1.056-4.9-4.691-1.844,2.138,11.185,6.9,10.851Z" transform="translate(-1610.159 -2179.418)" fill="url(#linear-gradient-33)"/>
            <path id="Trazado_2231" data-name="Trazado 2231" d="M1967.152,2211.706c-.615.414-2.352,11.934-2.352,11.934s3.06.361,5.265-3.782S1973.353,2207.523,1967.152,2211.706Z" transform="translate(-1872.598 -2168.217)" fill="url(#linear-gradient-34)"/>
            <path id="Trazado_2232" data-name="Trazado 2232" d="M1654.661,1915.252c-2.232-3.7-7.871-1.951-9.515-5.519-1.376-2.994,1.871-5.813.12-8.406-1.457-2.165-5.025-2.111-5.653-2.1-4.811.067-5.92,3.889-9.355,3.8-4.2-.107-4.356-5.84-9.9-8.245-5.372-2.339-13.243-.428-16.411,3.956-2.472,3.408-.374,5.92-3.608,10.3-2.232,3.02-4.2,3.154-5.305,6.094-1.042,2.766-.334,5.412.214,7.377,1.323,4.7,3.769,6.775,7.484,11.773a82.134,82.134,0,0,1,6.294,9.929,113.621,113.621,0,0,1,3.7,11.854c1.189,4.677,1.123,5.626,2.232,7.15,3.822,5.225,12.562,4.717,16.237,4.517,4.209-.24,9.461-.548,12.094-4.21,1.43-1.978,1.243-3.769,1.577-8.553a118.624,118.624,0,0,1,1.831-14.005,43.845,43.845,0,0,1,1.724-5.947c1.537-4.089,3.127-4.744,4.864-8.98C1654.688,1922.655,1656.478,1918.272,1654.661,1915.252Zm-17.533,31.966c-2.606.708-4.356.067-7.885-.134-7.056-.4-9.288,2.9-12.629,1.443-1.39-.6-4.6-2.3-5.279-5.546a26.336,26.336,0,0,1-.214-8.326c.548-4.076,1.189-8.767,4.45-10.851,4.731-3.02,10.784,2.178,15.114-1.189a7.858,7.858,0,0,0,2.633-4.731c.962.334,8.633,3.114,11.453,11.306a18.351,18.351,0,0,1-.107,11.987C1643.074,1943.6,1640.643,1946.269,1637.128,1947.218Z" transform="translate(-1551.781 -1893.773)" fill="url(#linear-gradient-35)"/>
            <path id="Trazado_2233" data-name="Trazado 2233" d="M1799.99,2328.464a17.411,17.411,0,0,0,11.412-.321c.481-.187.882.334.481.628a10.582,10.582,0,0,1-6.642,2.218,13.716,13.716,0,0,1-5.653-1.857C1799.148,2328.878,1799.5,2328.317,1799.99,2328.464Z" transform="translate(-1729.29 -2270.061)" fill="url(#linear-gradient-36)"/>
          </g>
        </g>
        <g id="Grupo_1354" data-name="Grupo 1354" transform="translate(68.923 96.516)">
          <path id="Trazado_2234" data-name="Trazado 2234" d="M1816.7,2616.935s2.365,8.379,4.758,8.54a40.53,40.53,0,0,1,4.129.481l2.659-9.956C1828.246,2615.986,1823.93,2618.579,1816.7,2616.935Z" transform="translate(-1813.212 -2616)" fill="url(#linear-gradient-37)"/>
          <path id="Trazado_2235" data-name="Trazado 2235" d="M1798.11,2684.6l-7.51,50.448,8.018,6.722,10.972-7.23-6.615-49.165Z" transform="translate(-1790.6 -2675.433)" fill="url(#linear-gradient-38)"/>
        </g>
      </g>
    </g>
  </g>
</svg>
