<svg xmlns="http://www.w3.org/2000/svg" xmlns:xlink="http://www.w3.org/1999/xlink" width="386.208" height="383.481" viewBox="0 0 386.208 383.481">
  <defs>
    <linearGradient id="linear-gradient" y1="0.5" x2="1" y2="0.5" gradientUnits="objectBoundingBox">
      <stop offset="0" stop-color="#0fb382"/>
      <stop offset="1" stop-color="#a9e95b"/>
    </linearGradient>
    <linearGradient id="linear-gradient-2" y1="0.5" x2="1" y2="0.5" gradientUnits="objectBoundingBox">
      <stop offset="0" stop-color="#a737d5"/>
      <stop offset="1" stop-color="#49e1ef"/>
    </linearGradient>
    <linearGradient id="linear-gradient-3" x1="0" y1="0.5" x2="1" y2="0.5" xlink:href="#linear-gradient"/>
    <linearGradient id="linear-gradient-4" x1="0" y1="0.5" x2="1" y2="0.5" xlink:href="#linear-gradient"/>
    <linearGradient id="linear-gradient-5" x1="0" y1="0.5" x2="1" y2="0.5" xlink:href="#linear-gradient-2"/>
    <linearGradient id="linear-gradient-6" x1="0" y1="0.5" x2="1" y2="0.5" xlink:href="#linear-gradient"/>
    <linearGradient id="linear-gradient-7" x1="0" y1="0.5" x2="1" y2="0.5" xlink:href="#linear-gradient-2"/>
    <linearGradient id="linear-gradient-8" x1="0" y1="0.5" x2="1" y2="0.5" xlink:href="#linear-gradient"/>
    <linearGradient id="linear-gradient-9" x1="0" y1="0.5" x2="1" y2="0.5" xlink:href="#linear-gradient"/>
    <linearGradient id="linear-gradient-10" x1="0" y1="0.5" x2="1" y2="0.5" xlink:href="#linear-gradient"/>
    <linearGradient id="linear-gradient-11" x1="0" y1="0.5" x2="1" y2="0.5" xlink:href="#linear-gradient-2"/>
    <clipPath id="clip-path">
      <path id="Trazado_2099" data-name="Trazado 2099" d="M2066.693,1948.58c-25.505,5.408-52.615-5.63-67.775-24.759-6.169-7.787-31.439-34.953-33.639-45.326-7.607-35.879,42.519-60.721,78.412-68.328s75.991,16.958,83.6,52.837c3.389,16.017-11.121,48.6-18.313,61.966C2100.055,1941.54,2086.569,1944.362,2066.693,1948.58Z" transform="translate(-1964.506 -1808.781)"/>
    </clipPath>
    <linearGradient id="linear-gradient-12" x1="-11.226" y1="-0.339" x2="-12.274" y2="0.95" gradientUnits="objectBoundingBox">
      <stop offset="0" stop-color="#febbba"/>
      <stop offset="1" stop-color="#ff928e"/>
    </linearGradient>
    <linearGradient id="linear-gradient-13" x1="2.139" y1="-1.069" x2="1.519" y2="-0.421" gradientUnits="objectBoundingBox">
      <stop offset="0" stop-color="#09005d"/>
      <stop offset="1" stop-color="#1a0f91"/>
    </linearGradient>
    <linearGradient id="linear-gradient-14" x1="0.847" y1="0.14" x2="0.107" y2="1.142" xlink:href="#linear-gradient-2"/>
    <linearGradient id="linear-gradient-15" x1="4.261" y1="-1.088" x2="4.451" y2="-2.009" xlink:href="#linear-gradient-12"/>
    <linearGradient id="linear-gradient-16" x1="2.882" y1="-1.762" x2="4.166" y2="-0.623" xlink:href="#linear-gradient-12"/>
    <linearGradient id="linear-gradient-17" x1="5.37" y1="-4.05" x2="3.526" y2="-2.093" xlink:href="#linear-gradient-13"/>
    <linearGradient id="linear-gradient-18" x1="6.307" y1="-8.503" x2="9.738" y2="-4.409" xlink:href="#linear-gradient-12"/>
    <linearGradient id="linear-gradient-19" x1="-22.293" y1="1.047" x2="-19.159" y2="-1.146" xlink:href="#linear-gradient-12"/>
    <linearGradient id="linear-gradient-20" x1="0" y1="0.5" x2="1" y2="0.5" xlink:href="#linear-gradient-2"/>
    <clipPath id="clip-path-2">
      <path id="Trazado_2118" data-name="Trazado 2118" d="M769.275,2112.935c-26.363,5.588-54.386-5.823-70.071-25.6-6.376-8.05-26.128-34.676-28.4-45.4-7.87-37.1,37.581-64.207,74.677-72.077s78.564,17.511,86.434,54.607c3.513,16.557-2.683,50.845-10.125,64.649C812.568,2106.268,789.815,2108.578,769.275,2112.935Z" transform="translate(-669.909 -1968.425)"/>
    </clipPath>
    <linearGradient id="linear-gradient-21" x1="-31.219" y1="0.501" x2="-29.494" y2="0.501" gradientUnits="objectBoundingBox">
      <stop offset="0" stop-color="#a22b25"/>
      <stop offset="1" stop-color="#c0423c"/>
    </linearGradient>
    <linearGradient id="linear-gradient-22" x1="2.281" y1="-1.017" x2="1.535" y2="-0.346" gradientUnits="objectBoundingBox">
      <stop offset="0" stop-color="#4f52ff"/>
      <stop offset="1" stop-color="#4042e2"/>
    </linearGradient>
    <linearGradient id="linear-gradient-23" x1="0.205" y1="0.873" x2="1.655" y2="-1.427" xlink:href="#linear-gradient-2"/>
    <linearGradient id="linear-gradient-24" x1="13.734" y1="0.372" x2="13.71" y2="-0.739" xlink:href="#linear-gradient-21"/>
    <linearGradient id="linear-gradient-25" x1="-8.265" y1="-95.303" x2="-7.523" y2="-94.18" xlink:href="#linear-gradient-21"/>
    <linearGradient id="linear-gradient-26" x1="59.333" y1="3.772" x2="60.214" y2="4.602" xlink:href="#linear-gradient-13"/>
    <linearGradient id="linear-gradient-27" x1="-33.965" y1="-378.754" x2="-31.043" y2="-374.309" xlink:href="#linear-gradient-21"/>
    <linearGradient id="linear-gradient-28" x1="0.222" y1="0.803" x2="2.798" y2="-1.962" xlink:href="#linear-gradient-2"/>
    <linearGradient id="linear-gradient-29" x1="6.634" y1="-0.394" x2="7.069" y2="1.886" xlink:href="#linear-gradient-21"/>
    <linearGradient id="linear-gradient-30" x1="13.077" y1="-3.766" x2="14.054" y2="2.657" xlink:href="#linear-gradient-21"/>
    <linearGradient id="linear-gradient-31" x1="-61.535" y1="0.5" x2="-60.535" y2="0.5" xlink:href="#linear-gradient-21"/>
    <linearGradient id="linear-gradient-32" x1="0" y1="0.5" x2="1" y2="0.5" xlink:href="#linear-gradient-2"/>
    <clipPath id="clip-path-3">
      <path id="Trazado_2130" data-name="Trazado 2130" d="M1491.941,743.245c24.454,4.758,125.826,5.049,140.612-13.583,6.017-7.58-42.339-27.262-40.195-37.373,7.414-34.953-14.44-62.519-49.393-69.933s-71.191,7.552-78.605,42.5c-3.306,15.588-7.013,44.3,0,57.318C1473.061,738.321,1472.521,739.469,1491.941,743.245Z" transform="translate(-1460.373 -620.503)"/>
    </clipPath>
    <linearGradient id="linear-gradient-33" x1="1.056" y1="0.069" x2="-0.027" y2="1.029" xlink:href="#linear-gradient-2"/>
    <linearGradient id="linear-gradient-34" x1="14.34" y1="5.758" x2="15.339" y2="5.758" xlink:href="#linear-gradient-12"/>
    <linearGradient id="linear-gradient-35" x1="0" y1="0.5" x2="1" y2="0.5" xlink:href="#linear-gradient-2"/>
    <linearGradient id="linear-gradient-36" x1="-34.783" y1="0.5" x2="-33.783" y2="0.5" xlink:href="#linear-gradient-12"/>
    <linearGradient id="linear-gradient-37" x1="-16.853" y1="0.5" x2="-15.853" y2="0.5" xlink:href="#linear-gradient-12"/>
    <linearGradient id="linear-gradient-38" x1="3.89" y1="-0.557" x2="0.972" y2="0.329" xlink:href="#linear-gradient-2"/>
    <linearGradient id="linear-gradient-39" x1="-114.75" y1="0.412" x2="-105.67" y2="1.041" xlink:href="#linear-gradient-2"/>
    <linearGradient id="linear-gradient-40" x1="83.698" y1="0.175" x2="82.381" y2="1.493" xlink:href="#linear-gradient-12"/>
    <linearGradient id="linear-gradient-41" x1="-22.415" y1="-0.149" x2="-22.88" y2="1.601" xlink:href="#linear-gradient-13"/>
    <linearGradient id="linear-gradient-42" x1="276.418" y1="2.701" x2="279.867" y2="0.456" xlink:href="#linear-gradient-12"/>
  </defs>
  <g id="ilus_essocial_home" transform="translate(-458.945 -460.728)">
    <path id="Trazado_2077" data-name="Trazado 2077" d="M802.59,790.715A147.779,147.779,0,0,1,776.7,811.739c-67.056,44.773-143.711,31.868-167.4,27.456-38.231-7.123-70.514-12.13-98.246-37.193-63.017-56.931-59.946-175.689-11.8-249.26,5.712-8.728,53.791-79.988,130.612-90.03,1.881-.249,3.278-.387,4.509-.512,11.881-1.259,85.521-7.9,145.578,42.408a179.352,179.352,0,0,1,35.257,40C862.094,617.045,862.246,729.233,802.59,790.715Z" transform="translate(-3.836 -0.424)" fill="#45c481" opacity="0.37"/>
    <g id="Grupo_1261" data-name="Grupo 1261" transform="translate(724.202 468.638)">
      <path id="Trazado_2078" data-name="Trazado 2078" d="M2798.6,1739.38l-3.4-1.494,12.407-28.286,3.4,1.494Z" transform="translate(-2737.315 -1544.771)" fill="url(#linear-gradient)"/>
      <g id="Grupo_1259" data-name="Grupo 1259" transform="translate(43.129 95.498)">
        <path id="Trazado_2079" data-name="Trazado 2079" d="M2688.57,1251.482l.775,4.523a3.6,3.6,0,0,0,2.974,2.946l3.6.595a3.029,3.029,0,0,1,2.227,1.687,32.256,32.256,0,0,0,3.914,6.21,3.01,3.01,0,0,1,.553,2.739l-1.023,3.5a3.607,3.607,0,0,0,1.383,3.956l3.749,2.656a3.616,3.616,0,0,0,4.191-.014l2.96-2.13a3.036,3.036,0,0,1,2.766-.387,32.7,32.7,0,0,0,7.165,1.632,3.026,3.026,0,0,1,2.324,1.535l1.757,3.2a3.615,3.615,0,0,0,3.776,1.826l4.523-.775a3.6,3.6,0,0,0,2.946-2.974l.595-3.6a3.031,3.031,0,0,1,1.688-2.227,32.244,32.244,0,0,0,6.21-3.914,3.01,3.01,0,0,1,2.739-.553l3.5,1.024a3.607,3.607,0,0,0,3.956-1.383l2.656-3.748a3.616,3.616,0,0,0-.014-4.191l-2.13-2.96a3.036,3.036,0,0,1-.387-2.766,32.669,32.669,0,0,0,1.632-7.165,3.026,3.026,0,0,1,1.536-2.324l3.195-1.757a3.615,3.615,0,0,0,1.826-3.776l-.775-4.523a3.6,3.6,0,0,0-2.974-2.946l-3.6-.595a3.03,3.03,0,0,1-2.227-1.687,32.259,32.259,0,0,0-3.914-6.21,3.01,3.01,0,0,1-.553-2.739l1.024-3.5a3.607,3.607,0,0,0-1.383-3.956l-3.748-2.656a3.616,3.616,0,0,0-4.191.014l-2.96,2.13a3.036,3.036,0,0,1-2.766.387,32.686,32.686,0,0,0-7.165-1.632,3.026,3.026,0,0,1-2.324-1.535l-1.757-3.2a3.615,3.615,0,0,0-3.776-1.826l-4.523.775a3.6,3.6,0,0,0-2.946,2.974l-.595,3.6a3.029,3.029,0,0,1-1.687,2.227,32.252,32.252,0,0,0-6.21,3.914,3.01,3.01,0,0,1-2.739.553l-3.5-1.023a3.607,3.607,0,0,0-3.956,1.383l-2.656,3.748a3.616,3.616,0,0,0,.014,4.191l2.13,2.96a3.036,3.036,0,0,1,.387,2.766,32.672,32.672,0,0,0-1.632,7.165,3.025,3.025,0,0,1-1.535,2.324l-3.2,1.757A3.615,3.615,0,0,0,2688.57,1251.482Zm12.1-2.462a26.736,26.736,0,1,1,28.493,24.855A26.738,26.738,0,0,1,2700.673,1249.02Z" transform="translate(-2688.517 -1208.348)" fill="url(#linear-gradient-2)"/>
      </g>
      <path id="Trazado_2080" data-name="Trazado 2080" d="M2798.727,952.971,2787.8,903.7l3.624-.8,10.927,49.268Z" transform="translate(-2730.938 -849.651)" fill="url(#linear-gradient-3)"/>
      <path id="Trazado_2081" data-name="Trazado 2081" d="M2377.115,785.8l-.415-3.693,36.142-4.011.415,3.693Z" transform="translate(-2376.7 -742.113)" fill="url(#linear-gradient-4)"/>
      <g id="Grupo_1260" data-name="Grupo 1260" transform="translate(30.889)">
        <path id="Trazado_2082" data-name="Trazado 2082" d="M2600.057,549.783l.567,3.347a2.691,2.691,0,0,0,2.2,2.185l2.656.443a2.237,2.237,0,0,1,1.646,1.245,23.415,23.415,0,0,0,2.891,4.592,2.224,2.224,0,0,1,.415,2.019l-.761,2.587a2.64,2.64,0,0,0,1.023,2.918l2.766,1.964a2.659,2.659,0,0,0,3.1-.014l2.186-1.577a2.207,2.207,0,0,1,2.047-.277,23.566,23.566,0,0,0,5.3,1.2,2.238,2.238,0,0,1,1.715,1.134l1.3,2.365a2.647,2.647,0,0,0,2.78,1.342l3.347-.567a2.691,2.691,0,0,0,2.186-2.2l.442-2.656a2.238,2.238,0,0,1,1.245-1.646,23.4,23.4,0,0,0,4.592-2.891,2.224,2.224,0,0,1,2.019-.415l2.587.761a2.64,2.64,0,0,0,2.918-1.024l1.964-2.766a2.659,2.659,0,0,0-.014-3.1l-1.577-2.185a2.2,2.2,0,0,1-.277-2.047,23.556,23.556,0,0,0,1.2-5.3,2.237,2.237,0,0,1,1.134-1.715l2.365-1.3a2.648,2.648,0,0,0,1.342-2.78l-.567-3.347a2.691,2.691,0,0,0-2.2-2.185l-2.656-.443a2.238,2.238,0,0,1-1.646-1.245,23.391,23.391,0,0,0-2.891-4.592,2.224,2.224,0,0,1-.415-2.019l.76-2.587a2.639,2.639,0,0,0-1.023-2.918l-2.766-1.964a2.659,2.659,0,0,0-3.1.014l-2.186,1.577a2.207,2.207,0,0,1-2.047.277,23.566,23.566,0,0,0-5.3-1.2,2.238,2.238,0,0,1-1.715-1.134l-1.3-2.365a2.648,2.648,0,0,0-2.78-1.342l-3.347.567a2.691,2.691,0,0,0-2.186,2.2l-.442,2.656a2.238,2.238,0,0,1-1.245,1.646,23.4,23.4,0,0,0-4.592,2.891,2.225,2.225,0,0,1-2.02.415l-2.586-.761a2.64,2.64,0,0,0-2.918,1.024l-1.964,2.766a2.659,2.659,0,0,0,.014,3.1l1.577,2.2a2.207,2.207,0,0,1,.277,2.047,23.532,23.532,0,0,0-1.2,5.3,2.237,2.237,0,0,1-1.134,1.715l-2.365,1.3A2.618,2.618,0,0,0,2600.057,549.783Zm8.949-1.826a19.756,19.756,0,1,1,21.052,18.368A19.747,19.747,0,0,1,2609.006,547.958Z" transform="translate(-2600.018 -517.918)" fill="url(#linear-gradient-5)"/>
      </g>
    </g>
    <g id="Grupo_1264" data-name="Grupo 1264" transform="translate(473.245 460.728)">
      <path id="Trazado_2083" data-name="Trazado 2083" d="M1216.836,871.61,1171.8,858.069l1.065-3.569,45.05,13.541Z" transform="translate(-1087.5 -800.035)" fill="url(#linear-gradient-6)"/>
      <g id="Grupo_1263" data-name="Grupo 1263" transform="translate(0 0)">
        <g id="Grupo_1262" data-name="Grupo 1262">
          <path id="Trazado_2084" data-name="Trazado 2084" d="M564.081,491.4,562.5,496.8a4.423,4.423,0,0,0,1.687,4.841l3.638,2.573a3.717,3.717,0,0,1,1.549,3.043,39.228,39.228,0,0,0,.982,8.935,3.7,3.7,0,0,1-.858,3.306l-3,3.306a4.415,4.415,0,0,0-.595,5.09l2.7,4.924a4.414,4.414,0,0,0,4.62,2.227l4.4-.761a3.667,3.667,0,0,1,3.25,1.065,39.121,39.121,0,0,0,7.013,5.63,3.673,3.673,0,0,1,1.729,2.932l.221,4.454A4.428,4.428,0,0,0,593,552.386l5.394,1.577a4.423,4.423,0,0,0,4.841-1.687l2.573-3.638a3.717,3.717,0,0,1,3.043-1.549,39.235,39.235,0,0,0,8.935-.982,3.7,3.7,0,0,1,3.306.858l3.306,3a4.415,4.415,0,0,0,5.09.595l4.924-2.7a4.414,4.414,0,0,0,2.227-4.62l-.761-4.4a3.667,3.667,0,0,1,1.065-3.25,39.116,39.116,0,0,0,5.629-7.013,3.673,3.673,0,0,1,2.932-1.729l4.454-.221a4.428,4.428,0,0,0,4.025-3.168l1.577-5.394a4.423,4.423,0,0,0-1.687-4.841l-3.638-2.573a3.717,3.717,0,0,1-1.549-3.043,39.232,39.232,0,0,0-.982-8.935,3.7,3.7,0,0,1,.858-3.306l3-3.306a4.415,4.415,0,0,0,.595-5.09l-2.7-4.924a4.414,4.414,0,0,0-4.62-2.227l-4.4.761a3.667,3.667,0,0,1-3.25-1.065,39.116,39.116,0,0,0-7.013-5.629,3.673,3.673,0,0,1-1.729-2.932l-.221-4.454a4.428,4.428,0,0,0-3.167-4.025l-5.38-1.577a4.423,4.423,0,0,0-4.841,1.687l-2.573,3.638a3.717,3.717,0,0,1-3.043,1.549,39.229,39.229,0,0,0-8.935.982,3.7,3.7,0,0,1-3.306-.858l-3.306-3a4.415,4.415,0,0,0-5.09-.595l-4.924,2.7a4.414,4.414,0,0,0-2.227,4.62l.761,4.4a3.667,3.667,0,0,1-1.065,3.25,39.116,39.116,0,0,0-5.629,7.013,3.673,3.673,0,0,1-2.932,1.729l-4.454.221A4.4,4.4,0,0,0,564.081,491.4Zm14.648,3.762a32.707,32.707,0,1,1,18.05,42.588A32.7,32.7,0,0,1,578.728,495.165Z" transform="translate(-562.328 -460.728)" fill="url(#linear-gradient-7)"/>
        </g>
      </g>
    </g>
    <g id="Grupo_1265" data-name="Grupo 1265" transform="translate(519.294 516.288)">
      <path id="Trazado_2085" data-name="Trazado 2085" d="M895.335,865.2a2.239,2.239,0,0,1,3.624-2.241c16.792,14.247,57.553,57.4,51.91,136.67-7.1,99.45,15.3,134.485,42.034,155.2,0,0-35.713-8.59-59.7-44.068C874.338,1023.624,904.879,902.555,895.335,865.2Z" transform="translate(-895.26 -862.418)" fill="url(#linear-gradient-8)"/>
      <path id="Trazado_2086" data-name="Trazado 2086" d="M995.108,1096.866c2.559,10.9,4.9,21.854,6.833,32.864q2.988,16.515,4.966,33.168c1.272,11.107,2.338,22.227,2.918,33.376.636,11.148.788,22.31.913,33.514.18,11.2.3,22.49,1.577,33.791a113.439,113.439,0,0,0,8.507,33.1c1.148,2.614,2.365,5.228,3.707,7.732,1.3,2.531,2.711,5.007,4.177,7.469a120.267,120.267,0,0,0,9.821,14.025,121.824,121.824,0,0,0,25.16,23.071,2.167,2.167,0,0,0,2.517-3.527h0c-2.227-1.632-4.44-3.292-6.556-5.048-1.079-.858-2.116-1.757-3.167-2.642-1.023-.927-2.075-1.812-3.057-2.766a112.66,112.66,0,0,1-11.2-12.061,124.882,124.882,0,0,1-17-28.148,109.421,109.421,0,0,1-5.325-15.533,125.3,125.3,0,0,1-3-16.211c-1.328-10.969-1.535-22.144-1.8-33.334s-.636-22.463-1.452-33.68q-.581-8.423-1.48-16.805c-.277-2.794-.622-5.588-.94-8.382q-.539-4.191-1.12-8.354-2.407-16.7-5.823-33.2c-2.338-10.982-4.966-21.909-8.022-32.712a.593.593,0,0,0-1.148.291Z" transform="translate(-981.285 -1063.824)" fill="#fff"/>
    </g>
    <g id="Grupo_1267" data-name="Grupo 1267" transform="translate(458.945 563.919)">
      <g id="Grupo_1266" data-name="Grupo 1266" transform="translate(0 0)">
        <path id="Trazado_2087" data-name="Trazado 2087" d="M554.847,1451.683a5.626,5.626,0,0,1-8.755,3.25c-17.926-12.836-65.341-53.681-69.988-129.644-3.942-64.151-12.158-98.551-16.985-113.917a3.527,3.527,0,0,1,5.45-3.9C494.887,1229.63,588.057,1310.766,554.847,1451.683Z" transform="translate(-458.945 -1206.777)" fill="url(#linear-gradient-9)"/>
        <path id="Trazado_2088" data-name="Trazado 2088" d="M742.3,1876.843a.785.785,0,0,1-.249.166,1.552,1.552,0,0,1-2.116-.609c-.47-.858-47.691-86.3-57.194-175.247a1.558,1.558,0,1,1,3.1-.332c9.433,88.315,56.35,173.227,56.82,174.071A1.546,1.546,0,0,1,742.3,1876.843Z" transform="translate(-651.775 -1631.286)" fill="#fff"/>
      </g>
    </g>
    <path id="Trazado_2089" data-name="Trazado 2089" d="M1103.5,1155.185,1235.011,918l76.448,208.83ZM1233.808,933.6l-118.316,213.367,187.087-25.505Z" transform="translate(-555.403 -394.024)" fill="url(#linear-gradient-10)"/>
    <g id="Grupo_1272" data-name="Grupo 1272" transform="translate(667.189 638.887)">
      <circle id="Elipse_191" data-name="Elipse 191" cx="69.435" cy="69.435" r="69.435" transform="translate(21.867 18.855)" fill="#fff"/>
      <g id="Grupo_1269" data-name="Grupo 1269" transform="translate(0.121)">
        <g id="Grupo_1268" data-name="Grupo 1268">
          <path id="Trazado_2090" data-name="Trazado 2090" d="M1966.047,1826.78l-.65,10.429a8.216,8.216,0,0,0,5.035,8.092l7.663,3.2a6.817,6.817,0,0,1,4.039,4.883,72.721,72.721,0,0,0,5.422,15.8,6.866,6.866,0,0,1-.194,6.349l-4.094,7.22a8.211,8.211,0,0,0,.982,9.475l6.916,7.843a8.211,8.211,0,0,0,9.281,2.158l7.677-3.167a6.883,6.883,0,0,1,6.321.595,73.6,73.6,0,0,0,14.994,7.358,6.848,6.848,0,0,1,4.343,4.62l2.213,7.995a8.2,8.2,0,0,0,7.386,6l10.429.65a8.216,8.216,0,0,0,8.092-5.035l3.2-7.663a6.816,6.816,0,0,1,4.882-4.039,72.718,72.718,0,0,0,15.8-5.422,6.866,6.866,0,0,1,6.349.194l7.22,4.094a8.21,8.21,0,0,0,9.475-.982l7.829-6.916a8.211,8.211,0,0,0,2.158-9.281l-3.167-7.677a6.883,6.883,0,0,1,.595-6.321,73.6,73.6,0,0,0,7.358-14.993,6.848,6.848,0,0,1,4.62-4.343l7.995-2.213a8.2,8.2,0,0,0,6-7.386l.65-10.429a8.216,8.216,0,0,0-5.035-8.091l-7.663-3.2a6.817,6.817,0,0,1-4.039-4.882,72.724,72.724,0,0,0-5.422-15.8,6.866,6.866,0,0,1,.194-6.349l4.094-7.22a8.211,8.211,0,0,0-.982-9.475l-6.916-7.843a8.211,8.211,0,0,0-9.281-2.158l-7.677,3.167a6.883,6.883,0,0,1-6.321-.595,73.6,73.6,0,0,0-14.994-7.359,6.848,6.848,0,0,1-4.343-4.62l-2.213-7.995a8.2,8.2,0,0,0-7.386-6l-10.429-.65a8.216,8.216,0,0,0-8.092,5.035l-3.195,7.663a6.817,6.817,0,0,1-4.883,4.039,72.73,72.73,0,0,0-15.8,5.422,6.865,6.865,0,0,1-6.349-.194l-7.22-4.094a8.21,8.21,0,0,0-9.475.982l-7.842,6.916a8.21,8.21,0,0,0-2.158,9.281l3.167,7.677a6.883,6.883,0,0,1-.595,6.321,73.6,73.6,0,0,0-7.358,14.994,6.848,6.848,0,0,1-4.62,4.343l-7.995,2.213A8.183,8.183,0,0,0,1966.047,1826.78Zm28.078.858a60.794,60.794,0,1,1,50.071,69.891A60.793,60.793,0,0,1,1994.125,1827.638Z" transform="translate(-1965.381 -1748.781)" fill="url(#linear-gradient-11)"/>
        </g>
      </g>
      <g id="Grupo_1271" data-name="Grupo 1271" transform="translate(0 8.299)">
        <g id="Grupo_1270" data-name="Grupo 1270" clip-path="url(#clip-path)">
          <path id="Trazado_2091" data-name="Trazado 2091" d="M2086.051,2154.359a.988.988,0,0,1,1.84-.042c1.286,3.071,4.122,8.354,8.852,9.751.235.069.47.138.691.221a2.32,2.32,0,0,0-.54-2.033c-1.66-1.95.484-5.187.484-5.187a6.516,6.516,0,0,0,2.642,3.915,6.316,6.316,0,0,1,2.227,6.86c-1.245,9.738-3.306,22.67,12.006,30.015s31.951-21.494,31.951-21.494l-5.961,32.643s-13.873,13.2-33.639-.429-10.885-38.189-10.885-38.189S2081.472,2166.628,2086.051,2154.359Z" transform="translate(-2068.458 -2106.001)" fill="url(#linear-gradient-12)"/>
          <path id="Trazado_2092" data-name="Trazado 2092" d="M2487.561,1881.488s-6.418-17.9,15.284-15.671c0,0,10.028-2.96,11.757,6.639,0,0,7.151,3.513,3.361,12.49,0,0,18.659-10.042,29.365,6.072s4.039,26.557-3.887,30.056a8.264,8.264,0,0,1,4.883,10.471c-2.213,7.967-17.525,15.3-28.134,7.289,0,0-26.432,6.93-28.286-12.116,0,0-13.513-6.5-2.365-23.846C2500.728,1885.527,2487.561,1881.488,2487.561,1881.488Z" transform="translate(-2413.12 -1857.557)" fill="url(#linear-gradient-13)"/>
          <path id="Trazado_2093" data-name="Trazado 2093" d="M2456.05,2276.727c4.08-1.8,16.128-5.7,29.226,3.651a7.307,7.307,0,0,1,3,6.985c-1.687,12.006-5.7,47.346,3.458,61.26,0,0-11.065,15.782-26.529,6.128,0,0-9.737-26.626-19.489-37.636-6.736-7.594,5.146-32.352,8.188-38.341A4.4,4.4,0,0,1,2456.05,2276.727Z" transform="translate(-2377.404 -2209.972)" fill="url(#linear-gradient-14)"/>
          <path id="Trazado_2094" data-name="Trazado 2094" d="M2546.377,2114s8.493,16.944,9.945,24.7a13.5,13.5,0,0,1-13.721-.47s-2.9-17.621-4.3-20.665Z" transform="translate(-2458.935 -2071.783)" fill="url(#linear-gradient-15)"/>
          <path id="Trazado_2095" data-name="Trazado 2095" d="M2468.449,1942.271s-13.514,25.008-2.877,30.43,20.264-12.338,20.264-12.338,2.227-13.029-2.282-16.792S2468.449,1942.271,2468.449,1942.271Z" transform="translate(-2392.75 -1923.125)" fill="url(#linear-gradient-16)"/>
          <path id="Trazado_2096" data-name="Trazado 2096" d="M2512.1,1895.526s-7.3,2.725-7.939,6.266,11.508,5.228,14.814,4.966l4.385,13.417s6.21-13.915,2.158-21S2512.1,1895.526,2512.1,1895.526Z" transform="translate(-2429.494 -1882.812)" fill="url(#linear-gradient-17)"/>
          <path id="Trazado_2097" data-name="Trazado 2097" d="M2613,2037.3s5.45-8.188,8.59-3.693-4.689,9.157-7.843,7.151Z" transform="translate(-2523.302 -2001.344)" fill="url(#linear-gradient-18)"/>
          <path id="Trazado_2098" data-name="Trazado 2098" d="M2700.972,2327.278s22.117,14.122,29.946,36.239-26.1,28.839-26.1,28.839-5.3-4.606-10.581-2.061-1.563-9,4.9-9.779,4.108,4.7,12.725-.581c8.382-5.145,12.324-18.3-12.753-34.33a10.369,10.369,0,0,1-3.513-3.707C2689.783,2331.344,2692.369,2323.626,2700.972,2327.278Z" transform="translate(-2591.136 -2254.77)" fill="url(#linear-gradient-19)"/>
        </g>
      </g>
    </g>
    <g id="Grupo_1279" data-name="Grupo 1279" transform="translate(481.966 660.755)">
      <circle id="Elipse_192" data-name="Elipse 192" cx="74.345" cy="74.345" r="74.345" transform="translate(17.389 16.144)" fill="#fff"/>
      <g id="Grupo_1273" data-name="Grupo 1273" transform="translate(0 0)">
        <path id="Trazado_2100" data-name="Trazado 2100" d="M626.078,1987.456l-.678,10.775a8.482,8.482,0,0,0,5.2,8.354l7.912,3.292a7.06,7.06,0,0,1,4.177,5.049,75.2,75.2,0,0,0,5.6,16.335,7.087,7.087,0,0,1-.207,6.556l-4.232,7.469a8.481,8.481,0,0,0,1.01,9.793l7.137,8.105a8.466,8.466,0,0,0,9.585,2.227l7.939-3.264a7.064,7.064,0,0,1,6.529.622,76.471,76.471,0,0,0,15.505,7.607,7.058,7.058,0,0,1,4.482,4.786l2.282,8.271a8.494,8.494,0,0,0,7.635,6.21l10.775.678a8.483,8.483,0,0,0,8.354-5.2l3.292-7.912a7.06,7.06,0,0,1,5.049-4.177,75.187,75.187,0,0,0,16.335-5.6,7.088,7.088,0,0,1,6.556.208l7.469,4.232a8.481,8.481,0,0,0,9.793-1.01l8.105-7.137a8.467,8.467,0,0,0,2.227-9.585l-3.264-7.94a7.063,7.063,0,0,1,.622-6.528,76.474,76.474,0,0,0,7.607-15.505,7.058,7.058,0,0,1,4.786-4.481l8.271-2.282a8.494,8.494,0,0,0,6.21-7.635l.678-10.775a8.482,8.482,0,0,0-5.2-8.354l-7.912-3.292a7.06,7.06,0,0,1-4.177-5.049,75.186,75.186,0,0,0-5.6-16.335,7.088,7.088,0,0,1,.208-6.556l4.232-7.469a8.481,8.481,0,0,0-1.01-9.793l-7.137-8.105a8.467,8.467,0,0,0-9.585-2.227l-7.939,3.264a7.063,7.063,0,0,1-6.529-.622,76.474,76.474,0,0,0-15.505-7.607,7.059,7.059,0,0,1-4.482-4.786l-2.282-8.271a8.494,8.494,0,0,0-7.635-6.21l-10.775-.678a8.483,8.483,0,0,0-8.354,5.2l-3.292,7.912a7.061,7.061,0,0,1-5.049,4.177,75.188,75.188,0,0,0-16.335,5.6,7.088,7.088,0,0,1-6.556-.208l-7.469-4.233a8.481,8.481,0,0,0-9.793,1.01l-8.105,7.137a8.466,8.466,0,0,0-2.227,9.585l3.264,7.939a7.063,7.063,0,0,1-.622,6.528,76.474,76.474,0,0,0-7.607,15.505,7.059,7.059,0,0,1-4.786,4.481l-8.271,2.282A8.444,8.444,0,0,0,626.078,1987.456Zm29.033.885a62.846,62.846,0,1,1,51.772,72.242A62.861,62.861,0,0,1,655.111,1988.341Z" transform="translate(-625.384 -1906.884)" fill="url(#linear-gradient-20)"/>
      </g>
      <g id="Grupo_1278" data-name="Grupo 1278" transform="translate(6.159 8.512)">
        <g id="Grupo_1277" data-name="Grupo 1277" clip-path="url(#clip-path-2)">
          <path id="Trazado_2101" data-name="Trazado 2101" d="M1542.479,2807.9c3.652,2.946,8.05,4.066,13.2,1.411l2.338,5.283s-2.338,11.7-14.081,12.753a14.424,14.424,0,0,1-3.458-.125C1535.024,2818.758,1539.063,2811.732,1542.479,2807.9Z" transform="translate(-1417.76 -2691.787)" fill="url(#linear-gradient-21)"/>
          <path id="Trazado_2102" data-name="Trazado 2102" d="M1431.9,2655.19l5.6-33.39c.221.346,4.758,18.534,13.721,25.754-3.416,3.818-7.455,10.844-2.005,19.337C1439.729,2665.411,1431.9,2655.19,1431.9,2655.19Z" transform="translate(-1326.504 -2531.427)" fill="url(#linear-gradient-22)"/>
          <path id="Trazado_2103" data-name="Trazado 2103" d="M1097.42,2473.39s20.651-6.888,47.29-3.071c2.78.4,9.973,15.408,8.908,25.838-1.812,17.663-11.453,47.29-11.8,47.387-11.107,2.946-47.719.457-47.719.457Z" transform="translate(-1035.427 -2399.906)" fill="url(#linear-gradient-23)"/>
          <path id="Trazado_2104" data-name="Trazado 2104" d="M1265.3,2284.406l1.148,17.884a3.914,3.914,0,0,0,2.7,3.527c3.472,1.024,10.042,2.268,16.487-.318a2.552,2.552,0,0,0,1.383-3.14L1278.5,2275Z" transform="translate(-1182.948 -2232.596)" fill="url(#linear-gradient-24)"/>
          <g id="Grupo_1274" data-name="Grupo 1274" transform="translate(67.429 10.798)">
            <path id="Trazado_2105" data-name="Trazado 2105" d="M1243.542,2144.2s9.6,9.682,12.31,15.657,5.574,9.433-1.024,13.417-13.915,2.766-19.5-2.075c0,0-8.7-7.428-9.06-11.7S1243.542,2144.2,1243.542,2144.2Z" transform="translate(-1216.737 -2130.686)" fill="url(#linear-gradient-25)"/>
            <path id="Trazado_2106" data-name="Trazado 2106" d="M1176.714,2081.7l.9-.346s-6.612-6.127-3.9-8.7,14.523-10.18,15.519-15.8c.968-5.422-3.61-10.166-7.787-10.36a.523.523,0,0,0-.526.457l-.083.678a.517.517,0,0,1-.927.249.513.513,0,0,0-.913.207c-.318,1.688-1.757,4.786-7.455,8.313-8.092,4.993-12.49,10.761-10.291,16.847a.513.513,0,0,1-.595.678c-.8-.138-1.9.069-2.822,1.77-1.618,2.946,1.4,7.787,8.313,10.042a.506.506,0,0,1,.277.775c-.705,1-1.563,3.015,2.877,3.555,4.537.553,6.681-.54,7.441-1.079a.5.5,0,0,0,.166-.636l-2.407-5.214a.508.508,0,0,1,.277-.692Z" transform="translate(-1157.406 -2046.495)" fill="url(#linear-gradient-26)"/>
            <path id="Trazado_2107" data-name="Trazado 2107" d="M1252.743,2281.94s-4.827-6.694-7.344-3.306,4.965,7.663,7.759,6.9Z" transform="translate(-1232.785 -2245.701)" fill="url(#linear-gradient-27)"/>
          </g>
          <g id="Grupo_1275" data-name="Grupo 1275" transform="translate(40.542 73.484)">
            <path id="Trazado_2108" data-name="Trazado 2108" d="M984.634,2551.14c-1.12-7.884,7.054-19.489,10.429-23.887a7.294,7.294,0,0,0,1.521-4.385c.1-11.176-4.592-18.341-12.1-23.168,0,0-27.276,31.785-20.333,56.226a20.22,20.22,0,0,0,3.389,6.847C968.617,2553.575,979.267,2551.569,984.634,2551.14Z" transform="translate(-963.018 -2499.7)" fill="url(#linear-gradient-28)"/>
            <path id="Trazado_2109" data-name="Trazado 2109" d="M1116.537,2717.662l-1.037-.124c.885-7.732,7.663-17.29,10.553-21.038l.83.636C1124.048,2700.829,1117.381,2710.193,1116.537,2717.662Z" transform="translate(-1094.409 -2669.279)" fill="#7d97f4"/>
            <path id="Trazado_2110" data-name="Trazado 2110" d="M1012.917,2872.693a7.248,7.248,0,0,1-.207-1.093c-5.367.429-16.017,2.435-17.11,11.646,12.172,16.1,45.727,10.291,45.727,10.291v-6.266S1015.559,2882.486,1012.917,2872.693Z" transform="translate(-991.093 -2820.16)" fill="url(#linear-gradient-29)"/>
          </g>
          <path id="Trazado_2111" data-name="Trazado 2111" d="M1302.9,2975.746s1.826-12.518,13.679-7.538c8.921,3.735,8.05,6.861,8.05,6.861Z" transform="translate(-1215.347 -2828.912)" fill="url(#linear-gradient-30)"/>
          <g id="Grupo_1276" data-name="Grupo 1276" transform="translate(114.491 84.523)">
            <path id="Trazado_2112" data-name="Trazado 2112" d="M1535.632,2622.3l-5.975,36.391a1.661,1.661,0,0,1-1.176,1.328c-2.268.636-8.022,1.867-13.679-.069a2.263,2.263,0,0,1-1.48-1.771L1507,2621.5Z" transform="translate(-1505.708 -2615.692)" fill="#91b3fa"/>
            <path id="Trazado_2113" data-name="Trazado 2113" d="M1545.2,2583.671l-1.37-3.043a.911.911,0,0,0-.733-.525c-2.656-.222-14.855-1.176-22.85-.069a1.4,1.4,0,0,0-1.079.83l-1.065,2.545Z" transform="translate(-1515.273 -2579.51)" fill="#7d97f4"/>
            <path id="Trazado_2114" data-name="Trazado 2114" d="M1528.647,2603.9l.249,2.5a1.08,1.08,0,0,1-1.01,1.2c-4.62.318-22.324,1.342-29.517-.955a1.041,1.041,0,0,1-.678-1.245l.332-1.287a1.627,1.627,0,0,1,1.577-1.217l28.037.083A1.01,1.01,0,0,1,1528.647,2603.9Z" transform="translate(-1497.659 -2599.665)" fill="#91b3fa"/>
            <path id="Trazado_2115" data-name="Trazado 2115" d="M1538.9,2686.3s-16.391,2.628-25.492,0l-.138-.8-.484.511a1.09,1.09,0,0,0-.277.927l2.67,14.523s11.48,2.752,21.826.18l2.587-14.7a1.416,1.416,0,0,0-.263-1.148l-.291-.387Z" transform="translate(-1510.439 -2670.753)" fill="#7d97f4"/>
            <path id="Trazado_2116" data-name="Trazado 2116" d="M1535.9,2714.948a.319.319,0,0,1-.3-.318l.249-13.278a.311.311,0,1,1,.622.014l-.249,13.278a.31.31,0,0,1-.318.3Zm-3.14-.042a.319.319,0,0,1-.3-.318l.249-13.14a.31.31,0,0,1,.318-.3.319.319,0,0,1,.3.318l-.249,13.14a.31.31,0,0,1-.318.3Zm6.28-.138a.319.319,0,0,1-.3-.318l.249-13.306a.294.294,0,0,1,.318-.3.31.31,0,0,1,.3.318l-.249,13.306a.31.31,0,0,1-.318.3Zm-10-.083a.319.319,0,0,1-.3-.318l.235-12.932a.34.34,0,0,1,.318-.3.319.319,0,0,1,.3.318l-.235,12.933a.329.329,0,0,1-.318.3Zm12.476-.221a.32.32,0,0,1-.3-.318l.291-13.25a.3.3,0,0,1,.318-.3.319.319,0,0,1,.3.318l-.291,13.251a.3.3,0,0,1-.318.3Zm-16.072-.526-.941-12.835a.31.31,0,0,1,.29-.332.3.3,0,0,1,.332.291l.941,12.835a.309.309,0,0,1-.291.332h-.027A.3.3,0,0,1,1525.443,2713.938Zm17.912.194a.3.3,0,0,1-.277-.332l1.12-13.251a.331.331,0,0,1,.332-.29.3.3,0,0,1,.276.332l-1.12,13.25a.314.314,0,0,1-.3.291Zm-20.36-.623-1.618-12.988a.313.313,0,0,1,.622-.069l1.618,12.988a.3.3,0,0,1-.277.346h-.042A.338.338,0,0,1,1522.994,2713.51Z" transform="translate(-1518.092 -2683.483)" fill="#fff"/>
          </g>
          <path id="Trazado_2117" data-name="Trazado 2117" d="M1650.006,2743.387s-5.049-3.112-8.4-.76c-3.181,2.24,2.006,15.754,3.873,17.082S1653.741,2750.538,1650.006,2743.387Z" transform="translate(-1506.338 -2634.784)" fill="url(#linear-gradient-31)"/>
        </g>
      </g>
    </g>
    <g id="Grupo_1286" data-name="Grupo 1286" transform="translate(577.487 462.727)">
      <circle id="Elipse_193" data-name="Elipse 193" cx="69.435" cy="69.435" r="69.435" transform="translate(17.002 17.306)" fill="#fff"/>
      <g id="Grupo_1281" data-name="Grupo 1281" transform="translate(0)">
        <g id="Grupo_1280" data-name="Grupo 1280">
          <path id="Trazado_2119" data-name="Trazado 2119" d="M1482.348,543.925l-7.787-2.144a6.7,6.7,0,0,1-4.509-4.232,71.586,71.586,0,0,0-7.165-14.606,6.705,6.705,0,0,1-.581-6.155l3.084-7.483a7.977,7.977,0,0,0-2.1-9.032l-7.635-6.736a7.98,7.98,0,0,0-9.226-.954l-7.026,4a6.691,6.691,0,0,1-6.183.194,72.527,72.527,0,0,0-15.395-5.284,6.7,6.7,0,0,1-4.758-3.942l-3.112-7.455a7.979,7.979,0,0,0-7.87-4.9l-10.152.636a7.989,7.989,0,0,0-7.206,5.851l-2.144,7.787a6.7,6.7,0,0,1-4.233,4.509,71.586,71.586,0,0,0-14.606,7.165,6.705,6.705,0,0,1-6.155.581l-7.483-3.084a7.978,7.978,0,0,0-9.032,2.1l-6.736,7.635a7.98,7.98,0,0,0-.954,9.226l4,7.026a6.691,6.691,0,0,1,.194,6.183,72.521,72.521,0,0,0-5.284,15.395,6.7,6.7,0,0,1-3.942,4.758l-7.455,3.112a7.979,7.979,0,0,0-4.9,7.87l.636,10.152a7.988,7.988,0,0,0,5.851,7.206l7.787,2.144a6.7,6.7,0,0,1,4.509,4.233,71.586,71.586,0,0,0,7.165,14.606,6.7,6.7,0,0,1,.581,6.155l-3.084,7.483a7.978,7.978,0,0,0,2.1,9.032l7.635,6.736a7.98,7.98,0,0,0,9.226.954l7.026-4a6.691,6.691,0,0,1,6.183-.194,72.535,72.535,0,0,0,15.395,5.284,6.7,6.7,0,0,1,4.758,3.942l3.112,7.455a7.979,7.979,0,0,0,7.87,4.9l10.152-.636a7.989,7.989,0,0,0,7.206-5.851l2.144-7.787a6.7,6.7,0,0,1,4.233-4.509,71.589,71.589,0,0,0,14.606-7.165,6.705,6.705,0,0,1,6.155-.581l7.483,3.084a7.977,7.977,0,0,0,9.032-2.1l6.736-7.635a7.98,7.98,0,0,0,.954-9.226l-4-7.026a6.692,6.692,0,0,1-.194-6.183,72.53,72.53,0,0,0,5.284-15.395,6.7,6.7,0,0,1,3.942-4.758l7.455-3.112a7.979,7.979,0,0,0,4.9-7.87l-.636-10.152A7.978,7.978,0,0,0,1482.348,543.925Zm-70.279,76.1a59.217,59.217,0,1,1,48.77-68.079A59.223,59.223,0,0,1,1412.07,620.026Z" transform="translate(-1315.978 -475.178)" fill="url(#linear-gradient-32)"/>
        </g>
      </g>
      <g id="Grupo_1285" data-name="Grupo 1285" transform="translate(19.972 20.101)">
        <g id="Grupo_1284" data-name="Grupo 1284" clip-path="url(#clip-path-3)">
          <path id="Trazado_2120" data-name="Trazado 2120" d="M1922.4,1018.1s25.589,46.281,62.256,49.628l1.95,5.519s-50.527,9.862-76.406-31.757Z" transform="translate(-1847.981 -963.106)" fill="url(#linear-gradient-33)"/>
          <path id="Trazado_2121" data-name="Trazado 2121" d="M2440.9,1356.775a3.545,3.545,0,0,1,3.043-5.131h.387c4.315.166,8.686-.5,10.3-1.6a1.143,1.143,0,0,1,1.632.29c.443.719.1,1.95-4,3.735,0,0,9.046,3.527,16.335.069,7.1-3.375-3.154,14.5-24.759,5.92a4.726,4.726,0,0,1-2.49-2.31Z" transform="translate(-2304.955 -1248.944)" fill="url(#linear-gradient-34)"/>
          <path id="Trazado_2122" data-name="Trazado 2122" d="M1667.593,1058.162s23.721-64.995,5.049-79.753c0,0-28-4.523-48.342,3.209l2.324,59.6C1626.61,1041.2,1641.548,1067.471,1667.593,1058.162Z" transform="translate(-1601.626 -927.772)" fill="url(#linear-gradient-35)"/>
          <path id="Trazado_2123" data-name="Trazado 2123" d="M1775.326,787.762s-3.638,8.838-4.565,15.782a4.7,4.7,0,0,1-3.873,3.984c-4.343.719-11.549,1.12-15.934-2.877a3.29,3.29,0,0,1-.858-3.527c1.812-5.049,11.19-26.1,16.308-29.323Z" transform="translate(-1709.857 -750.873)" fill="url(#linear-gradient-36)"/>
          <g id="Grupo_1282" data-name="Grupo 1282" transform="translate(7.242 53.832)">
            <path id="Trazado_2124" data-name="Trazado 2124" d="M1582.086,1356.8v.111c-.083,11,14.786,12.047,14.786,12.047s4.246-7.068,9.71-7.3,13.029,8.659,13.029,8.659l-12.1,1.936s-23.085,13.845-38.908-2.6C1571.38,1359.4,1578.047,1357.173,1582.086,1356.8Z" transform="translate(-1560.872 -1308.79)" fill="url(#linear-gradient-37)"/>
            <path id="Trazado_2125" data-name="Trazado 2125" d="M1528.148,1009.7c14.994,5.311,12.822,17.1,12.822,17.1s-6.916,19.89-7.04,30.914c-4.025.373-10.692,2.6-13.486,12.849-.374-.387-.747-.788-1.12-1.217C1500.43,1047.433,1528.148,1009.7,1528.148,1009.7Z" transform="translate(-1512.73 -1009.7)" fill="url(#linear-gradient-38)"/>
            <path id="Trazado_2126" data-name="Trazado 2126" d="M1662.478,1176.428a.584.584,0,0,0,.581-.581c.1-8.576,4.371-22.629,6.2-28.286a.582.582,0,1,0-1.106-.36c-1.854,5.7-6.155,19.9-6.252,28.631a.571.571,0,0,0,.581.595Z" transform="translate(-1641.264 -1127.837)" fill="url(#linear-gradient-39)"/>
          </g>
          <g id="Grupo_1283" data-name="Grupo 1283" transform="translate(49.297 -0.506)">
            <path id="Trazado_2127" data-name="Trazado 2127" d="M1894.526,690.862c0,.443-9.82,27.8-9.82,27.8L1869.2,712.73l5.45-27.317S1894.526,683.5,1894.526,690.862Z" transform="translate(-1861.949 -675.737)" fill="url(#linear-gradient-40)"/>
            <path id="Trazado_2128" data-name="Trazado 2128" d="M1835.639,633.174l-4,14.15a1.849,1.849,0,0,0-.083.553c0,1.148.291,5.132,4.329,4.592,3.665-.484,7.026-.885,9.17.125a2.077,2.077,0,0,1,1.065,2.559,89.562,89.562,0,0,1-5.588,12.6,2.051,2.051,0,0,1-2.642.844,66.1,66.1,0,0,1-13.292-7.815,2.081,2.081,0,0,1-.733-1.978c.678-3.624,2.7-14.634,2.794-17.787.083-2.96-3.237-5.228-4.7-6.072a2.024,2.024,0,0,1-.954-1.273c-.456-1.909-.844-6.224,4.661-7.179a2.06,2.06,0,0,0,1.674-2.448c-.47-2.282-.318-5.643,4.011-6.874,4.4-1.259,7.165,1.4,8.576,3.43a2.048,2.048,0,0,0,2.545.678,1.608,1.608,0,0,1,1.826.332,2.018,2.018,0,0,0,2.96-.456,6.138,6.138,0,0,1,7.566-2.5c7,2.268,6.667,10.346,4.108,14.731s-10.028,1.508-13.555-1.411c-2.683-2.213-6.764-.885-8.576-.124A2.058,2.058,0,0,0,1835.639,633.174Z" transform="translate(-1820.214 -616.845)" fill="url(#linear-gradient-41)"/>
            <path id="Trazado_2129" data-name="Trazado 2129" d="M1822.6,756.883s3.361-7.939.622-10.4-6.57-1.618-6.446,4.509C1816.948,758.612,1822.6,756.883,1822.6,756.883Z" transform="translate(-1816.779 -727.442)" fill="url(#linear-gradient-42)"/>
          </g>
        </g>
      </g>
    </g>
  </g>
</svg>
