<svg xmlns="http://www.w3.org/2000/svg" xmlns:xlink="http://www.w3.org/1999/xlink" width="391.482" height="380.599" viewBox="0 0 391.482 380.599">
  <defs>
    <clipPath id="clip-path">
      <circle id="Elipse_206" data-name="Elipse 206" cx="162.556" cy="162.556" r="162.556"/>
    </clipPath>
    <linearGradient id="linear-gradient" y1="0.5" x2="1" y2="0.5" gradientUnits="objectBoundingBox">
      <stop offset="0" stop-color="#0fb382"/>
      <stop offset="1" stop-color="#a9e95b"/>
    </linearGradient>
    <linearGradient id="linear-gradient-2" x1="-23.509" y1="0.501" x2="1" y2="0.501" gradientUnits="objectBoundingBox">
      <stop offset="0" stop-color="#aa80f9"/>
      <stop offset="0.996" stop-color="#6165d7"/>
    </linearGradient>
    <linearGradient id="linear-gradient-3" x1="-0.049" y1="0.5" x2="1.063" y2="0.5" xlink:href="#linear-gradient-2"/>
    <linearGradient id="linear-gradient-4" x1="-0.001" y1="0.501" x2="22.503" y2="0.501" xlink:href="#linear-gradient-2"/>
    <linearGradient id="linear-gradient-5" x1="-20.502" y1="0.499" x2="0.998" y2="0.499" xlink:href="#linear-gradient-2"/>
    <linearGradient id="linear-gradient-6" x1="-0.02" y1="0.5" x2="1.075" y2="0.5" xlink:href="#linear-gradient-2"/>
    <linearGradient id="linear-gradient-7" x1="0.002" y1="0.5" x2="30.905" y2="0.5" xlink:href="#linear-gradient-2"/>
    <linearGradient id="linear-gradient-8" x1="0" y1="0.5" x2="1" y2="0.5" xlink:href="#linear-gradient-2"/>
    <linearGradient id="linear-gradient-9" y1="0.5" x2="1" y2="0.5" gradientUnits="objectBoundingBox">
      <stop offset="0.1" stop-color="#311944"/>
      <stop offset="0.685" stop-color="#6d2f66"/>
      <stop offset="1" stop-color="#893976"/>
    </linearGradient>
    <linearGradient id="linear-gradient-10" x1="0.869" y1="-0.737" x2="0.041" y2="2.037" gradientUnits="objectBoundingBox">
      <stop offset="0" stop-color="#a737d5"/>
      <stop offset="1" stop-color="#49e1ef"/>
    </linearGradient>
    <linearGradient id="linear-gradient-11" x1="0" y1="0.5" x2="1" y2="0.5" xlink:href="#linear-gradient-9"/>
    <linearGradient id="linear-gradient-12" x1="0.869" y1="-0.737" x2="0.041" y2="2.037" gradientUnits="objectBoundingBox">
      <stop offset="0" stop-color="#ff9085"/>
      <stop offset="1" stop-color="#fb6fbb"/>
    </linearGradient>
    <linearGradient id="linear-gradient-13" x1="0" y1="0.5" x2="1" y2="0.5" xlink:href="#linear-gradient-9"/>
    <linearGradient id="linear-gradient-14" x1="0.869" y1="-0.737" x2="0.041" y2="2.037" xlink:href="#linear-gradient-10"/>
    <linearGradient id="linear-gradient-15" x1="0.5" y1="0.668" x2="0.489" y2="1.688" gradientUnits="objectBoundingBox">
      <stop offset="0" stop-color="#ffc444"/>
      <stop offset="0.996" stop-color="#f36f56"/>
    </linearGradient>
    <clipPath id="clip-path-3">
      <path id="Trazado_2266" data-name="Trazado 2266" d="M2325.3,2035.095c7.1-6.674,16.461-17.521,20.688-32.84,5.546-20.09-2.623-30.244-1.74-64.253.558-21.5,1.156-36.51,11.989-44.543,8.5-6.293,22.238-7.557,30.6-1.74,6.946,4.839,10.969,15.142,12.206,22.5,1.006,5.994.2,10.344,3.67,13.511,3.534,3.221,7.354,1.386,10.657,3.779,6.7,4.839,2.841,20.906,2.216,23.5-6.946,28.885-33.52,48.39-45.223,56.763A180.854,180.854,0,0,1,2325.3,2035.095Z" transform="translate(-2325.3 -1887.977)"/>
    </clipPath>
    <linearGradient id="linear-gradient-16" x1="1.24" y1="0.203" x2="0.489" y2="0.597" xlink:href="#linear-gradient-12"/>
    <clipPath id="clip-path-4">
      <path id="Trazado_2271" data-name="Trazado 2271" d="M2102.3,2395.225c19.111,7.612,44.53,14.585,72.055,13.131,7.028-.367,50.416-2.651,52.618-21.15.775-6.511-4.213-9.542-3.33-18.269,1.047-10.344,8.726-12.723,17.331-22.754,5.138-5.994,20.158-23.529,12.383-39.528-4.649-9.556-17.222-18.133-28.695-19.791-16.828-2.419-28,10.521-46.514,32.745-16.42,19.71-16.637,26.03-28.708,40.017C2140.482,2370.01,2125.992,2383.453,2102.3,2395.225Z" transform="translate(-2102.3 -2286.574)"/>
    </clipPath>
    <linearGradient id="linear-gradient-17" x1="0.5" y1="0.665" x2="0.489" y2="1.681" gradientUnits="objectBoundingBox">
      <stop offset="0.004" stop-color="#e38ddd"/>
      <stop offset="1" stop-color="#9571f6"/>
    </linearGradient>
    <clipPath id="clip-path-5">
      <path id="Trazado_2277" data-name="Trazado 2277" d="M795.554,2035.095c-7.1-6.674-16.461-17.521-20.688-32.84-5.546-20.09,2.623-30.244,1.74-64.253-.557-21.5-1.155-36.51-11.989-44.543-8.5-6.293-22.238-7.557-30.6-1.74-6.946,4.839-10.969,15.142-12.206,22.5-1.006,5.994-.2,10.344-3.67,13.511-3.534,3.221-7.354,1.386-10.657,3.779-6.7,4.839-2.841,20.906-2.216,23.5,6.946,28.885,33.52,48.39,45.223,56.763A180.853,180.853,0,0,0,795.554,2035.095Z" transform="translate(-703.599 -1887.977)"/>
    </clipPath>
    <linearGradient id="linear-gradient-18" x1="0.947" y1="0.26" x2="0.458" y2="0.517" xlink:href="#linear-gradient-2"/>
    <clipPath id="clip-path-6">
      <path id="Trazado_2282" data-name="Trazado 2282" d="M628.828,2395.225c-19.111,7.612-44.53,14.585-72.055,13.131-7.027-.367-50.416-2.651-52.618-21.15-.775-6.511,4.214-9.542,3.33-18.269-1.047-10.344-8.727-12.723-17.331-22.754-5.138-5.994-20.158-23.529-12.383-39.528,4.649-9.556,17.222-18.133,28.694-19.791,16.828-2.419,28,10.521,46.514,32.745,16.42,19.71,16.638,26.03,28.708,40.017C590.659,2370.01,605.136,2383.453,628.828,2395.225Z" transform="translate(-475.58 -2286.574)"/>
    </clipPath>
    <clipPath id="clip-path-7">
      <path id="Trazado_2342" data-name="Trazado 2342" d="M943.97,1720.3a1.247,1.247,0,0,1-.381.843,2.765,2.765,0,0,1-.285.272c-2.936,2.433-15.482,4.662-34.689,6.457-7.952.748-17.045,1.4-27.077,1.984-18.581,1.06-40.371,1.821-64.049,2.148-9.216.136-18.731.2-28.45.2-25.174,0-48.961-.462-69.976-1.278-39.337-1.536-69.01-4.309-80.156-7.666a21.6,21.6,0,0,1-2.338-.829c-.136-.054-.258-.109-.381-.163-1.373-.639-2.08-1.291-2.08-1.957,0-.557.517-1.115,1.5-1.658.109-.054.218-.122.326-.177a6.136,6.136,0,0,1,.666-.3c.014,0,.027-.014.041-.014-17.779-4.227-70.859-223.465,152.388-223.465C996.125,1494.686,943.97,1713.734,943.97,1720.3Z" transform="translate(-618.175 -1494.7)"/>
    </clipPath>
    <linearGradient id="linear-gradient-19" x1="1.146" y1="-0.106" x2="0.664" y2="0.339" gradientUnits="objectBoundingBox">
      <stop offset="0" stop-color="#444b8c"/>
      <stop offset="0.996" stop-color="#3e4177"/>
    </linearGradient>
    <linearGradient id="linear-gradient-20" x1="1.532" y1="-0.129" x2="0.879" y2="0.321" xlink:href="#linear-gradient-19"/>
    <linearGradient id="linear-gradient-21" x1="0.85" y1="-0.029" x2="0.421" y2="0.593" xlink:href="#linear-gradient-19"/>
    <linearGradient id="linear-gradient-22" x1="1.036" y1="-1.562" x2="0.57" y2="0.027" xlink:href="#linear-gradient-19"/>
    <linearGradient id="linear-gradient-23" x1="0.896" y1="-1.482" x2="0.444" y2="0.646" xlink:href="#linear-gradient-19"/>
    <linearGradient id="linear-gradient-24" x1="0.482" y1="1.135" x2="0.553" y2="-0.391" gradientUnits="objectBoundingBox">
      <stop offset="0.004" stop-color="#e38ddd"/>
      <stop offset="0.706" stop-color="#ac79ef"/>
      <stop offset="1" stop-color="#9571f6"/>
    </linearGradient>
    <linearGradient id="linear-gradient-25" x1="0.546" y1="2.277" x2="0.466" y2="-0.301" gradientUnits="objectBoundingBox">
      <stop offset="0" stop-color="#febbba"/>
      <stop offset="1" stop-color="#ff928e"/>
    </linearGradient>
    <linearGradient id="linear-gradient-26" x1="1.37" y1="-0.084" x2="0.248" y2="0.448" xlink:href="#linear-gradient-19"/>
    <linearGradient id="linear-gradient-28" x1="0.466" y1="1.115" x2="0.636" y2="-2.519" xlink:href="#linear-gradient-25"/>
    <linearGradient id="linear-gradient-29" x1="0.542" y1="0.926" x2="0.457" y2="0.016" gradientUnits="objectBoundingBox">
      <stop offset="0" stop-color="#311944"/>
      <stop offset="1" stop-color="#6b3976"/>
    </linearGradient>
    <linearGradient id="linear-gradient-30" x1="0.537" y1="0.926" x2="0.45" y2="-0.015" xlink:href="#linear-gradient-29"/>
    <linearGradient id="linear-gradient-31" x1="0.491" y1="0.11" x2="0.52" y2="1.312" xlink:href="#linear-gradient-15"/>
    <linearGradient id="linear-gradient-32" x1="0.488" y1="1.059" x2="0.527" y2="-0.191" gradientUnits="objectBoundingBox">
      <stop offset="0" stop-color="#ab316d"/>
      <stop offset="1" stop-color="#792d3d"/>
    </linearGradient>
    <linearGradient id="linear-gradient-33" x1="0.469" y1="0.844" x2="0.545" y2="-0.103" xlink:href="#linear-gradient-32"/>
    <linearGradient id="linear-gradient-34" x1="0.409" y1="1.581" x2="0.755" y2="-1.922" xlink:href="#linear-gradient-32"/>
    <linearGradient id="linear-gradient-35" x1="0.43" y1="1.37" x2="0.776" y2="-2.133" xlink:href="#linear-gradient-32"/>
    <linearGradient id="linear-gradient-36" x1="0.494" y1="1.209" x2="0.544" y2="-2.318" xlink:href="#linear-gradient-15"/>
    <linearGradient id="linear-gradient-37" x1="0.53" y1="1.122" x2="0.5" y2="0.52" xlink:href="#linear-gradient-2"/>
    <linearGradient id="linear-gradient-38" x1="0.504" y1="1.151" x2="0.491" y2="-1.816" xlink:href="#linear-gradient-2"/>
    <linearGradient id="linear-gradient-39" x1="0.503" y1="1.274" x2="0.497" y2="0.374" xlink:href="#linear-gradient-32"/>
    <linearGradient id="linear-gradient-40" x1="0.444" y1="0.849" x2="0.576" y2="-0.356" xlink:href="#linear-gradient-32"/>
    <linearGradient id="linear-gradient-41" x1="0.422" y1="1.32" x2="0.874" y2="-2.77" xlink:href="#linear-gradient-32"/>
    <linearGradient id="linear-gradient-42" x1="0.403" y1="1.535" x2="0.854" y2="-2.555" xlink:href="#linear-gradient-32"/>
    <linearGradient id="linear-gradient-43" x1="0.426" y1="0.687" x2="0.694" y2="-0.202" xlink:href="#linear-gradient-29"/>
    <linearGradient id="linear-gradient-44" x1="0.464" y1="0.59" x2="0.756" y2="-0.578" xlink:href="#linear-gradient-29"/>
    <linearGradient id="linear-gradient-45" x1="0.861" y1="-0.692" x2="0.29" y2="1.037" xlink:href="#linear-gradient-12"/>
    <linearGradient id="linear-gradient-46" x1="0.478" y1="1.967" x2="0.509" y2="-0.575" gradientUnits="objectBoundingBox">
      <stop offset="0" stop-color="#311944"/>
      <stop offset="0.555" stop-color="#6f2b60"/>
      <stop offset="1" stop-color="#a03976"/>
    </linearGradient>
    <linearGradient id="linear-gradient-47" x1="0.488" y1="1.206" x2="0.511" y2="0.092" xlink:href="#linear-gradient-25"/>
    <linearGradient id="linear-gradient-48" x1="0.433" y1="0.96" x2="0.562" y2="-0.09" xlink:href="#linear-gradient-25"/>
    <linearGradient id="linear-gradient-49" x1="1.084" y1="1.99" x2="1.688" y2="-1.759" xlink:href="#linear-gradient-25"/>
    <linearGradient id="linear-gradient-50" x1="0.288" y1="1.66" x2="0.983" y2="-1.734" xlink:href="#linear-gradient-25"/>
    <linearGradient id="linear-gradient-51" x1="0" y1="0.5" x2="1" y2="0.5" xlink:href="#linear-gradient-19"/>
    <linearGradient id="linear-gradient-52" x1="0.855" y1="-13.234" x2="0.543" y2="-1.434" xlink:href="#linear-gradient-15"/>
    <linearGradient id="linear-gradient-53" y1="0.5" x2="1" y2="0.5" gradientUnits="objectBoundingBox">
      <stop offset="0" stop-color="#40447e"/>
      <stop offset="0.996" stop-color="#3c3b6b"/>
    </linearGradient>
    <linearGradient id="linear-gradient-54" x1="0" y1="0.5" x2="1" y2="0.5" xlink:href="#linear-gradient-53"/>
    <linearGradient id="linear-gradient-55" x1="0.552" y1="1.522" x2="0.459" y2="0.096" xlink:href="#linear-gradient-12"/>
    <linearGradient id="linear-gradient-56" x1="0.526" y1="1.047" x2="0.469" y2="0.006" xlink:href="#linear-gradient-25"/>
    <linearGradient id="linear-gradient-57" x1="0.482" y1="0.924" x2="0.511" y2="0.054" xlink:href="#linear-gradient-25"/>
    <linearGradient id="linear-gradient-58" x1="0.461" y1="1.714" x2="0.571" y2="-1.835" xlink:href="#linear-gradient-15"/>
    <linearGradient id="linear-gradient-59" x1="0.46" y1="1.799" x2="0.57" y2="-1.749" xlink:href="#linear-gradient-15"/>
    <linearGradient id="linear-gradient-60" x1="0" y1="0.5" x2="1" y2="0.5" xlink:href="#linear-gradient-2"/>
    <linearGradient id="linear-gradient-61" x1="0.4" y1="0.098" x2="0.729" y2="2.291" xlink:href="#linear-gradient-2"/>
    <linearGradient id="linear-gradient-62" x1="0" y1="0.5" x2="1" y2="0.5" xlink:href="#linear-gradient-19"/>
    <linearGradient id="linear-gradient-63" x1="0.498" y1="0.902" x2="0.564" y2="-0.639" xlink:href="#linear-gradient-25"/>
    <linearGradient id="linear-gradient-64" x1="0.396" y1="0.966" x2="1.059" y2="-1.302" xlink:href="#linear-gradient-25"/>
    <linearGradient id="linear-gradient-65" x1="-0.144" y1="2.395" x2="3.053" y2="-7.893" xlink:href="#linear-gradient-15"/>
    <linearGradient id="linear-gradient-66" x1="0.181" y1="1.67" x2="3.378" y2="-8.618" xlink:href="#linear-gradient-15"/>
    <linearGradient id="linear-gradient-67" x1="0" y1="0.5" x2="1" y2="0.5" xlink:href="#linear-gradient-19"/>
    <linearGradient id="linear-gradient-68" x1="0" y1="0.5" x2="0.999" y2="0.5" xlink:href="#linear-gradient-19"/>
    <linearGradient id="linear-gradient-69" x1="0.373" y1="3.568" x2="0.977" y2="-0.181" xlink:href="#linear-gradient-15"/>
    <linearGradient id="linear-gradient-70" x1="0.289" y1="1.661" x2="0.983" y2="-1.735" xlink:href="#linear-gradient-15"/>
    <linearGradient id="linear-gradient-71" x1="0.836" y1="-0.951" x2="0.361" y2="1.374" xlink:href="#linear-gradient-12"/>
    <linearGradient id="linear-gradient-72" x1="0.478" y1="1.967" x2="0.509" y2="-0.575" xlink:href="#linear-gradient-46"/>
    <linearGradient id="linear-gradient-73" x1="0.488" y1="1.206" x2="0.511" y2="0.092" xlink:href="#linear-gradient-25"/>
    <linearGradient id="linear-gradient-74" x1="0.407" y1="0.958" x2="0.569" y2="-0.089" xlink:href="#linear-gradient-25"/>
    <linearGradient id="linear-gradient-75" x1="0" y1="0.499" x2="1" y2="0.499" xlink:href="#linear-gradient-19"/>
  </defs>
  <g id="ilus_essustentable_nuestraprop_home" transform="translate(-414.97 -454.963)">
    <g id="Grupo_1411" data-name="Grupo 1411" transform="translate(414.97 454.963)">
      <path id="Trazado_2236" data-name="Trazado 2236" d="M616.8,455.049c-100.219-2.95-187.023,69.758-200.14,165.179-14.34,104.324,64.579,198.182,161.7,213.216,120.8,18.7,237.955-89.481,227.434-206.841C797.868,538.2,718.677,458.067,616.8,455.049Z" transform="translate(-414.97 -454.963)" fill="#45c481" opacity="0.37"/>
      <g id="Grupo_1382" data-name="Grupo 1382" transform="translate(34.108 20.775)">
        <g id="Grupo_1361" data-name="Grupo 1361">
          <g id="Grupo_1359" data-name="Grupo 1359" clip-path="url(#clip-path)">
            <path id="Trazado_2237" data-name="Trazado 2237" d="M979.776,758.222a163.368,163.368,0,0,1-29.483,93.736c-.068.109-.34.218-.34.326h0c-29.1,42.641-78.974,70.275-134.922,70.275a98.207,98.207,0,0,1-13.443-.829h0c-.014,0-.027.272-.041.272-2.2-.177-4.391-.272-6.565-.53-.775-.1-1.55-.122-2.324-.231-.68-.1-1.359-.15-2.039-.258-.6-.082-1.183-.163-1.767-.258a3.916,3.916,0,0,0-.394-.054c-1.441-.231-2.868-.489-4.3-.761h-.027a165.13,165.13,0,0,1-126.29-210.457c.748-2.42,1.672-4.8,2.3-7.163h0c1.862-3.942,3.1-7.816,4.812-11.608.693-1.522,1.454-3.031,2.175-4.526a165.617,165.617,0,0,1,13.96-23.42c.476-.666.979-1.332,1.468-2,1.944-2.651,3.983-5.247,6.09-7.775,3.153-3.792,6.484-7.449,9.963-10.929a165.618,165.618,0,0,1,30.162-23.923q5.1-3.16,10.439-5.94a162.026,162.026,0,0,1,27.077-11.173A165.523,165.523,0,0,1,967,693.67c2.379,5.573,3.983,11.3,6.47,17.154h0c0,.027-.285.041-.272.068A164.37,164.37,0,0,1,979.776,758.222Z" transform="translate(-652.68 -595.53)" fill="url(#linear-gradient)"/>
            <g id="Grupo_1358" data-name="Grupo 1358" transform="translate(5.165 4.241)">
              <path id="Trazado_2238" data-name="Trazado 2238" d="M1761.4,3011.7Z" transform="translate(-1617.656 -2689.185)" fill="#fff"/>
              <path id="Trazado_2239" data-name="Trazado 2239" d="M897.149,852.965c-3.534,4.975-14.463,11.364-7.041,23.923,7.354,12.519-.517,14.87-5.573,13.7-5.084-1.155-20.878-1.808-18.241,5.369s7.15,9.882,1.359,12.655-8.237,9.977-14.15,19.913c-5.886,9.95-19.859,1.346-15.713,11.323s7.354,9.012,6.959,15.958c-.1,1.9,1.183,3.874,2.9,5.736-2.2-.177-4.418-.408-6.62-.68-.775-.1-1.549-.19-2.324-.3l-2.039-.285c-.6-.082-1.183-.177-1.767-.272-.136-.027-.1-.041-.231-.068-1.414-.231-2.148-.489-4.01-.761h0c-1.237-1.183-.462-2.447-.272-3.833,1.849-12.832-15.863-21.653-18.826-30.638-2.922-8.971-.041-14.313-.707-21.748-.693-7.422,1.74-17.263-2.542-23.515-4.268-6.225-21.49-8.319-24.766-20.892-3.3-12.546,4.377-31.331,7.354-34.539,2.95-3.194-14.259-17.752-22.442-18.214-8.224-.5-4.934-17.059-18.826-14.531-13.933,2.447-38.943-5.328-33.778-13.688,4.268-6.892,11.431-22.075-11.948-28.844.748-2.419,1.672-4.8,2.3-7.163h0c1.862-3.942,3.1-7.816,4.812-11.608.693-1.522,1.454-3.031,2.175-4.526a165.62,165.62,0,0,1,13.96-23.42c.476-.666.979-1.332,1.468-2,1.957-2.651,4-5.247,6.09-7.775,3.154-3.792,6.484-7.449,9.964-10.929a165.624,165.624,0,0,1,30.162-23.923c4.635,3.249,9.923,5.247,14.49,2.786,11.2-6.266,3.82-7.231-.775-7.462a5.834,5.834,0,0,1-3.276-1.251,162.039,162.039,0,0,1,27.077-11.173c-.693,6.321-9.284,16.474-2.963,15.237,7.354-1.4,10.358-21.273,15.754-14.667,5.478,6.633-5.994,15.319,4.785,10.29,10.793-4.989,12.233-16.121,24.249-10.7,12.084,5.478,10.983,11.975,14.354,11.336s14.218,6.674,7.653,12.668c-6.633,6.022-12.709-1.645-22.646-3.969-9.95-2.284-9.705,5.845-14.272,7.707-4.649,1.794-27.1-9.053-32.609.748-5.573,9.719-7.938,16.515.326,16.257,8.264-.231,8.794-2.365,8.142,3.738s.843,10.684,8.332,4.934c7.462-5.736,5.79-11.336,11.622-8.6s6.524.258,12.736-4.241,14.368-4.975,16.5,5.138-1.522,12.383-12.424,12.9-12.152-2.909-15.632,6.212c-3.453,9.134-17.9,20.851-30.57,25.677s-17.616,11.989-17.317,21.64-4.458,19.859-7.639,11.894c-3.194-7.993-12.138-21.449-21.259-12.451-9.148,9.012-25.051,24.943-7.476,27.852,17.548,2.963,8.387-13.47,17.263-10.181,8.849,3.3-5.614,10.562.313,13.171,5.926,2.637,8.414,1.4,8.373,9.488s1.971,15.917,9.161,12.492,16.434-19.247,26.832-9.882c10.412,9.393,9.678,8.169,15.142,5.437s8.944,5.451,11.173,9.189,11.01-.082,18.133,11.01,9.9,13.076,18.01,9.08,11.418-1.02,13.525,4.581,7.1.122,9.5,7.53C901.811,849.132,900.669,847.976,897.149,852.965Z" transform="translate(-703.9 -639.002)" fill="#fff"/>
              <g id="Grupo_1357" data-name="Grupo 1357" transform="translate(211.955 30.38)">
                <path id="Trazado_2240" data-name="Trazado 2240" d="M2325.05,911.679c-5.75-12.329,22.727-10.942,27.756-10,5.057.843,16.937-8.441,18.446-12.75,1.55-4.35,4.092-2.284,13.1-2.406,9.012-.1,1.047-2.134-8.863-5.4s-1.441-3.589-10.562-10.793c-3.928-3.154-2.692-5.831-.068-7.829a165,165,0,0,1,48.037,63.519,3.35,3.35,0,0,0-.843-.149c-6.307-.041-7.693-13.987-10.942-16.692-3.208-2.7.095,7.666.87,11.921s-1.726.68-4.866,4.594-8.862,4-9.379-1.889-4.662-11.622-13.049-14.3-15.645-.476-22.469,2.148C2345.439,914.248,2330.841,923.926,2325.05,911.679Z" transform="translate(-2315.987 -862.5)" fill="#fff"/>
                <path id="Trazado_2241" data-name="Trazado 2241" d="M2343.769,1489.5c.571-4.227,1.5-8.6-.272-10.208-4.3-3.983-5.233-14.857-3.752-20.362s13.063-5.206,5.206-14.368c-7.884-9.189-14.979-20.1-11.676-26.343s2.311-6.688-3.9-6.647-8.931.313-15.115-5.219c-6.185-5.6-14.708,13.212-37.992-1.876-23.285-15.237-10.032-40.9-1.305-40.968,8.781-.15,19.044-4.581,11.839-15.292-7.177-10.752,4.037-12.274,9.515-9.827,5.491,2.419,15.224-4.078,25.133-7,9.936-2.909,9.5,13.28,15.02,16.515,5.546,3.249,15.958.666,21.354-4.513,3.86-3.7,4.7.612,8.523,4.717a165.069,165.069,0,0,1-22.578,141.392Z" transform="translate(-2263.221 -1267.352)" fill="#fff"/>
                <path id="Trazado_2242" data-name="Trazado 2242" d="M2509.883,908.6c0-.014,7.259-3.289,4.635-8.563s-6.742-21.463-9.76-16.366c-3.045,5.124,1.441,15.061.462,19.356S2504.2,909.592,2509.883,908.6Z" transform="translate(-2470.997 -879.946)" fill="#fff"/>
                <path id="Trazado_2243" data-name="Trazado 2243" d="M2437.681,983.655c-.109-1.7.965-8.6-4.472-8.387.013-.014-7.857,3.276-3.262,8.862C2434.582,989.676,2437.8,985.354,2437.681,983.655Z" transform="translate(-2406.04 -959.935)" fill="#fff"/>
              </g>
            </g>
          </g>
          <g id="Grupo_1360" data-name="Grupo 1360" clip-path="url(#clip-path)">
            <path id="Trazado_2244" data-name="Trazado 2244" d="M982.711,760.529a163.193,163.193,0,0,1-29.265,93.736.646.646,0,0,0-.122.326h0a164.1,164.1,0,0,1-135.139,70.139,101.465,101.465,0,0,1-13.661-.965h0c-.014,0-.027.408-.041.408-2.2-.177-4.39-.2-6.565-.476-.775-.1-1.55-.1-2.324-.2-.68-.1-1.359-.136-2.039-.245-.6-.082-1.183-.15-1.767-.245-.136-.027-.258-.027-.394-.054-1.441-.231-2.868-.476-4.3-.761h-.027A164.756,164.756,0,0,1,654.5,778.349a142.913,142.913,0,0,0,107.424,92.771h.014c1.237.625,2.46.489,3.711.693.109.014.231.054.34.068.5.082,1.006.163,1.522.245.584.1,1.169.163,1.767.245.666.1,1.332.15,2,.231,1.876.231,3.765.666,5.668.816.014,0,.027.177.041.177h0c3.874,0,7.721.313,11.676.313a141.923,141.923,0,0,0,116.585-61.018c0-.1.15-.217.218-.326a142.174,142.174,0,0,0,19.424-121.845c0-.027-.054-.054-.054-.068h0a97.163,97.163,0,0,0-5.288-14.816A142.37,142.37,0,0,0,833.463,596.6a165.478,165.478,0,0,1,136.376,99.363c2.379,5.573,3.9,11.3,6.375,17.154h0c0,.027-.19.041-.19.068A164.1,164.1,0,0,1,982.711,760.529Z" transform="translate(-656.05 -598.122)" fill="#d8dee8" opacity="0.5"/>
          </g>
        </g>
        <g id="Grupo_1372" data-name="Grupo 1372" transform="translate(95.406 47.724)">
          <g id="Grupo_1370" data-name="Grupo 1370">
            <g id="Grupo_1365" data-name="Grupo 1365">
              <g id="Grupo_1362" data-name="Grupo 1362" transform="translate(165.453 35.015)">
                <path id="Trazado_2245" data-name="Trazado 2245" d="M2590.073,1222.891a1.916,1.916,0,0,1-1.278-.476c-.014-.014-1.047-.9-3-2.365a1.971,1.971,0,1,1,2.365-3.153c2.066,1.55,3.154,2.474,3.194,2.515a1.979,1.979,0,0,1,.218,2.787A1.947,1.947,0,0,1,2590.073,1222.891Z" transform="translate(-2585.003 -1216.503)" fill="url(#linear-gradient-2)"/>
              </g>
              <g id="Grupo_1363" data-name="Grupo 1363" transform="translate(11.431)">
                <path id="Trazado_2246" data-name="Trazado 2246" d="M1601.248,993.208a1.994,1.994,0,0,1-1.087-.326c-2.175-1.441-4.458-2.882-6.783-4.268a1.972,1.972,0,0,1,2.026-3.385c2.379,1.427,4.716,2.9,6.946,4.377a1.974,1.974,0,0,1,.558,2.732A2.04,2.04,0,0,1,1601.248,993.208Zm-13.919-8.332a2.122,2.122,0,0,1-.938-.231c-2.338-1.264-4.744-2.487-7.15-3.656a1.973,1.973,0,0,1,1.726-3.548c2.447,1.2,4.907,2.447,7.3,3.738a1.973,1.973,0,0,1,.8,2.678A2.027,2.027,0,0,1,1587.329,984.876Zm-14.6-7.082a2.048,2.048,0,0,1-.788-.163c-2.447-1.06-4.948-2.08-7.435-3.031a1.979,1.979,0,1,1,1.414-3.7c2.542.979,5.084,2.012,7.585,3.1a1.964,1.964,0,0,1,1.02,2.6A1.929,1.929,0,0,1,1572.73,977.794Zm-15.142-5.8a1.687,1.687,0,0,1-.625-.109c-2.528-.843-5.111-1.645-7.666-2.379a1.979,1.979,0,0,1,1.088-3.806c2.61.748,5.247,1.563,7.83,2.42a1.99,1.99,0,0,1-.625,3.874Zm-103.726-1.971a1.978,1.978,0,0,1-.557-3.874c2.623-.775,5.274-1.509,7.911-2.161a1.975,1.975,0,1,1,.951,3.833c-2.569.639-5.179,1.346-7.734,2.107A1.789,1.789,0,0,1,1453.862,970.019ZM1542,967.531a1.861,1.861,0,0,1-.462-.054c-2.6-.612-5.233-1.183-7.843-1.672a1.978,1.978,0,0,1,.734-3.888c2.664.5,5.369,1.074,8.02,1.713a1.977,1.977,0,0,1-.448,3.9Zm-72.409-1.414a1.977,1.977,0,0,1-.381-3.915c2.678-.53,5.4-1.006,8.074-1.414a1.972,1.972,0,1,1,.584,3.9c-2.623.394-5.274.856-7.9,1.373A1.173,1.173,0,0,1,1469.589,966.118Zm56.478-1.59a1.737,1.737,0,0,1-.272-.014c-2.637-.367-5.315-.68-7.965-.924a1.973,1.973,0,0,1,.367-3.928c2.705.245,5.451.571,8.142.951a1.966,1.966,0,0,1-.272,3.915Zm-40.438-.815a1.976,1.976,0,0,1-.19-3.942c2.719-.272,5.464-.489,8.183-.625a1.974,1.974,0,1,1,.218,3.942c-2.651.136-5.342.34-7.992.612A1.325,1.325,0,0,1,1485.628,963.712Zm24.29-.693c-.027,0-.054-.041-.1-.041-2.447-.109-4.907-.2-7.354-.2h-.666a1.938,1.938,0,0,1-1.971-1.93,1.958,1.958,0,0,1,1.971-1.944l.666.041h.014c2.487,0,5.029.027,7.517.136a1.974,1.974,0,0,1,1.889,2.052A1.946,1.946,0,0,1,1509.918,963.019Z" transform="translate(-1451.889 -958.9)" fill="url(#linear-gradient-3)"/>
              </g>
              <g id="Grupo_1364" data-name="Grupo 1364" transform="translate(0 9.652)">
                <path id="Trazado_2247" data-name="Trazado 2247" d="M1369.764,1035.194a1.978,1.978,0,0,1-.68-3.833c1.251-.462,2.515-.911,3.752-1.346a1.977,1.977,0,0,1,1.291,3.738c-1.223.421-2.46.87-3.684,1.319A2.057,2.057,0,0,1,1369.764,1035.194Z" transform="translate(-1367.792 -1029.907)" fill="url(#linear-gradient-4)"/>
              </g>
            </g>
            <g id="Grupo_1369" data-name="Grupo 1369" transform="translate(11.153 47.574)">
              <g id="Grupo_1366" data-name="Grupo 1366" transform="translate(161.314 0.901)">
                <path id="Trazado_2248" data-name="Trazado 2248" d="M2642.492,1319.966a2.432,2.432,0,0,1-.313-.027c-.013,0-1.373-.218-3.806-.476a1.975,1.975,0,1,1,.421-3.928c2.555.272,3.955.5,4.023.5a1.967,1.967,0,0,1,1.631,2.256A1.993,1.993,0,0,1,2642.492,1319.966Z" transform="translate(-2636.608 -1315.525)" fill="url(#linear-gradient-5)"/>
              </g>
              <g id="Grupo_1367" data-name="Grupo 1367" transform="translate(4.822)">
                <path id="Trazado_2249" data-name="Trazado 2249" d="M1487.287,1390.727a1.946,1.946,0,0,1-.87-.2,1.989,1.989,0,0,1-.9-2.651c1.169-2.352,2.406-4.689,3.67-6.946a1.975,1.975,0,0,1,3.439,1.944c-1.237,2.188-2.433,4.472-3.575,6.755A1.962,1.962,0,0,1,1487.287,1390.727Zm7.6-13.5a1.89,1.89,0,0,1-1.06-.313,1.966,1.966,0,0,1-.612-2.719c1.414-2.216,2.881-4.4,4.4-6.511a1.977,1.977,0,0,1,3.208,2.311c-1.468,2.039-2.909,4.173-4.268,6.321A2,2,0,0,1,1494.885,1377.23Zm9.026-12.573a2.017,2.017,0,0,1-1.237-.435,1.966,1.966,0,0,1-.286-2.773c1.645-2.039,3.371-4.037,5.125-5.953a1.972,1.972,0,1,1,2.909,2.664c-1.7,1.862-3.371,3.806-4.975,5.777A2.015,2.015,0,0,1,1503.911,1364.656Zm10.453-11.432a1.971,1.971,0,0,1-1.373-3.385c1.876-1.822,3.82-3.6,5.8-5.3a1.976,1.976,0,1,1,2.583,2.99c-1.917,1.645-3.82,3.385-5.627,5.138A2.049,2.049,0,0,1,1514.364,1353.225Zm11.744-10.1a2,2,0,0,1-1.577-.775,1.976,1.976,0,0,1,.381-2.773c2.066-1.577,4.227-3.113,6.4-4.567a1.979,1.979,0,0,1,2.2,3.289c-2.107,1.414-4.2,2.909-6.212,4.431A2,2,0,0,1,1526.108,1343.125Zm12.859-8.631a1.972,1.972,0,0,1-1.006-3.67c2.229-1.318,4.554-2.6,6.878-3.792a1.976,1.976,0,0,1,1.821,3.507c-2.27,1.169-4.513,2.406-6.688,3.7A2.053,2.053,0,0,1,1538.966,1334.494Zm13.769-7.109a2,2,0,0,1-1.808-1.169,1.976,1.976,0,0,1,.992-2.61c2.365-1.06,4.8-2.08,7.245-3.031a1.975,1.975,0,1,1,1.427,3.684c-2.379.924-4.758,1.917-7.055,2.95A1.861,1.861,0,0,1,1552.736,1327.385Zm14.449-5.6a1.982,1.982,0,0,1-.625-3.86c2.46-.816,4.975-1.59,7.5-2.284a1.975,1.975,0,0,1,1.06,3.806c-2.46.693-4.934,1.441-7.326,2.229A1.933,1.933,0,0,1,1567.185,1321.785Zm14.925-4.186a1.976,1.976,0,0,1-.435-3.9c2.515-.584,5.1-1.115,7.68-1.59a1.97,1.97,0,0,1,.72,3.874c-2.515.462-5.043.992-7.5,1.563A1.855,1.855,0,0,1,1582.11,1317.6Zm15.251-2.827a1.974,1.974,0,0,1-.285-3.928c2.555-.367,5.179-.68,7.775-.951a1.974,1.974,0,0,1,.394,3.928c-2.556.258-5.111.571-7.626.924A1.362,1.362,0,0,1,1597.361,1314.771Zm15.428-1.577a1.973,1.973,0,0,1-.122-3.942c2.6-.163,5.233-.272,7.829-.34a1.978,1.978,0,0,1,.1,3.956c-2.556.054-5.138.163-7.68.326Zm23.271-.068h-.109c-2.5-.136-5.084-.231-7.666-.272a1.978,1.978,0,1,1,.068-3.956c2.637.041,5.274.136,7.829.286a1.984,1.984,0,0,1,1.862,2.08A2.011,2.011,0,0,1,1636.059,1313.126Z" transform="translate(-1485.318 -1308.899)" fill="url(#linear-gradient-6)"/>
              </g>
              <g id="Grupo_1368" data-name="Grupo 1368" transform="translate(0 84.925)">
                <path id="Trazado_2250" data-name="Trazado 2250" d="M1451.821,1941.267a1.835,1.835,0,0,1-.748-.15,1.978,1.978,0,0,1-1.088-2.569c.5-1.237,1.02-2.474,1.55-3.684a1.972,1.972,0,0,1,3.616,1.577c-.516,1.183-1.019,2.392-1.509,3.6A1.943,1.943,0,0,1,1451.821,1941.267Z" transform="translate(-1449.842 -1933.68)" fill="url(#linear-gradient-7)"/>
              </g>
            </g>
          </g>
          <g id="Grupo_1371" data-name="Grupo 1371" transform="translate(194.51 57.371)">
            <path id="Trazado_2251" data-name="Trazado 2251" d="M2835.476,1443.733a1.528,1.528,0,0,1-.435-.054,1.976,1.976,0,0,1-1.482-2.365l.041-.177a1.971,1.971,0,0,1,3.847.856l-.041.19A2,2,0,0,1,2835.476,1443.733Zm1.454-7.952a1.845,1.845,0,0,1-.272-.013,1.978,1.978,0,0,1-1.686-2.229,69.794,69.794,0,0,0,.653-7.653,1.979,1.979,0,0,1,3.956.122,77.8,77.8,0,0,1-.693,8.074A1.964,1.964,0,0,1,2836.93,1435.781Zm.394-15.74a1.971,1.971,0,0,1-1.957-1.767,43.147,43.147,0,0,0-1.414-7.395,1.979,1.979,0,0,1,3.806-1.087,47,47,0,0,1,1.55,8.061,1.971,1.971,0,0,1-1.753,2.175A1.39,1.39,0,0,1,2837.324,1420.041Zm-4.4-15.033a1.967,1.967,0,0,1-1.74-1.047,32.8,32.8,0,0,0-4.187-6.13,1.976,1.976,0,1,1,2.99-2.583,37.138,37.138,0,0,1,4.69,6.864,1.97,1.97,0,0,1-.816,2.664A1.993,1.993,0,0,1,2832.92,1405.007Zm-10.221-11.839a1.9,1.9,0,0,1-1.169-.394,38.809,38.809,0,0,0-6.443-3.847,1.97,1.97,0,0,1,1.685-3.561,42.9,42.9,0,0,1,7.109,4.241,1.977,1.977,0,0,1-1.182,3.562Zm-14.177-6.8a2.363,2.363,0,0,1-.53-.068,38.775,38.775,0,0,0-7.367-1.386,1.976,1.976,0,0,1-1.849-2.093,1.956,1.956,0,0,1,2.08-1.849,43.168,43.168,0,0,1,8.21,1.536,1.989,1.989,0,0,1,1.373,2.433A2.019,2.019,0,0,1,2808.521,1386.371Z" transform="translate(-2798.771 -1380.971)" fill="url(#linear-gradient-8)"/>
          </g>
        </g>
        <g id="Grupo_1375" data-name="Grupo 1375" transform="translate(249.237 71)">
          <g id="Grupo_1373" data-name="Grupo 1373">
            <path id="Trazado_2252" data-name="Trazado 2252" d="M2552.1,1154.925a28.491,28.491,0,0,1-26.22,28.083,24.43,24.43,0,0,1-26.384-24.725,28.488,28.488,0,0,1,26.384-28.1A24.428,24.428,0,0,1,2552.1,1154.925Z" transform="translate(-2499.5 -1130.137)" fill="url(#linear-gradient-9)"/>
          </g>
          <g id="Grupo_1374" data-name="Grupo 1374" transform="translate(2.202)">
            <path id="Trazado_2253" data-name="Trazado 2253" d="M2568.3,1154.925a28.491,28.491,0,0,1-26.22,28.083,24.43,24.43,0,0,1-26.384-24.725,28.488,28.488,0,0,1,26.384-28.1A24.428,24.428,0,0,1,2568.3,1154.925Z" transform="translate(-2515.7 -1130.137)" fill="url(#linear-gradient-10)"/>
            <path id="Trazado_2254" data-name="Trazado 2254" d="M2619.33,1236.534a3.036,3.036,0,0,1-2.786-1.4l-9.909-15.917a3.4,3.4,0,0,1,1.115-4.567,3.141,3.141,0,0,1,4.472.843l6.878,11.051,9.066-18.473a3.394,3.394,0,0,1,4.364-1.7,3.119,3.119,0,0,1,1.414,4.3l-11.73,23.9a3.553,3.553,0,0,1-2.787,1.971C2619.4,1236.521,2619.371,1236.534,2619.33,1236.534Z" transform="translate(-2593.871 -1195.775)" fill="#fff"/>
          </g>
        </g>
        <g id="Grupo_1378" data-name="Grupo 1378" transform="translate(89.332 155.574)">
          <g id="Grupo_1376" data-name="Grupo 1376">
            <path id="Trazado_2255" data-name="Trazado 2255" d="M1375.7,1777.125a28.491,28.491,0,0,1-26.22,28.083,24.43,24.43,0,0,1-26.384-24.725,28.478,28.478,0,0,1,26.384-28.1A24.427,24.427,0,0,1,1375.7,1777.125Z" transform="translate(-1323.1 -1752.337)" fill="url(#linear-gradient-11)"/>
          </g>
          <g id="Grupo_1377" data-name="Grupo 1377" transform="translate(2.202)">
            <path id="Trazado_2256" data-name="Trazado 2256" d="M1391.9,1777.125a28.491,28.491,0,0,1-26.22,28.083,24.43,24.43,0,0,1-26.384-24.725,28.478,28.478,0,0,1,26.384-28.1A24.427,24.427,0,0,1,1391.9,1777.125Z" transform="translate(-1339.3 -1752.337)" fill="url(#linear-gradient-12)"/>
            <path id="Trazado_2257" data-name="Trazado 2257" d="M1442.93,1858.635a3.036,3.036,0,0,1-2.786-1.4l-9.909-15.917a3.4,3.4,0,0,1,1.115-4.567,3.141,3.141,0,0,1,4.472.843l6.878,11.051,9.067-18.472a3.393,3.393,0,0,1,4.363-1.7,3.119,3.119,0,0,1,1.414,4.3l-11.73,23.9a3.552,3.552,0,0,1-2.786,1.971Z" transform="translate(-1417.471 -1817.888)" fill="#fff"/>
          </g>
        </g>
        <g id="Grupo_1381" data-name="Grupo 1381" transform="translate(60.773 34.232)">
          <g id="Grupo_1379" data-name="Grupo 1379">
            <path id="Trazado_2258" data-name="Trazado 2258" d="M1165.6,884.425a28.491,28.491,0,0,1-26.22,28.083A24.43,24.43,0,0,1,1113,887.782a28.478,28.478,0,0,1,26.383-28.1A24.427,24.427,0,0,1,1165.6,884.425Z" transform="translate(-1113 -859.637)" fill="url(#linear-gradient-13)"/>
          </g>
          <g id="Grupo_1380" data-name="Grupo 1380" transform="translate(2.202)">
            <path id="Trazado_2259" data-name="Trazado 2259" d="M1181.8,884.425a28.491,28.491,0,0,1-26.22,28.083,24.43,24.43,0,0,1-26.384-24.725,28.478,28.478,0,0,1,26.384-28.1A24.427,24.427,0,0,1,1181.8,884.425Z" transform="translate(-1129.2 -859.637)" fill="url(#linear-gradient-14)"/>
            <path id="Trazado_2260" data-name="Trazado 2260" d="M1232.744,965.935a3.036,3.036,0,0,1-2.786-1.4l-9.923-15.917a3.4,3.4,0,0,1,1.115-4.567,3.141,3.141,0,0,1,4.472.843l6.878,11.051,9.066-18.473a3.393,3.393,0,0,1,4.363-1.7,3.119,3.119,0,0,1,1.414,4.3l-11.73,23.9a3.553,3.553,0,0,1-2.786,1.971Z" transform="translate(-1207.285 -925.189)" fill="#fff"/>
          </g>
        </g>
      </g>
      <g id="Grupo_1389" data-name="Grupo 1389" transform="translate(229.355 194.786)">
        <g id="Grupo_1385" data-name="Grupo 1385" transform="translate(30.312)">
          <g id="Grupo_1384" data-name="Grupo 1384">
            <path id="Trazado_2261" data-name="Trazado 2261" d="M2325.3,2035.095c7.1-6.674,16.461-17.521,20.688-32.84,5.546-20.09-2.623-30.244-1.74-64.253.558-21.5,1.156-36.51,11.989-44.543,8.5-6.293,22.238-7.557,30.6-1.74,6.946,4.839,10.969,15.142,12.206,22.5,1.006,5.994.2,10.344,3.67,13.511,3.534,3.221,7.354,1.386,10.657,3.779,6.7,4.839,2.841,20.906,2.216,23.5-6.946,28.885-33.52,48.39-45.223,56.763A180.854,180.854,0,0,1,2325.3,2035.095Z" transform="translate(-2325.3 -1887.977)" fill="url(#linear-gradient-15)"/>
            <g id="Grupo_1383" data-name="Grupo 1383" opacity="0.5" clip-path="url(#clip-path-3)">
              <path id="Trazado_2262" data-name="Trazado 2262" d="M2263.84,1990.59l-.34-.9c39.242-14.966,51.489-34.594,54.86-48.431,2.243-9.216,1.427-18.772.313-32.011a179.7,179.7,0,0,0-3.887-24.521c-1.835-8.563-3.289-15.333-2.3-25.16a74.678,74.678,0,0,1,9.732-29.469l.829.476a73.778,73.778,0,0,0-9.61,29.089c-.979,9.678.462,16.379,2.284,24.861a180.373,180.373,0,0,1,3.915,24.63c1.087,12.818,1.944,22.958-.326,32.324-2.922,11.989-10.9,22.863-23.719,32.337C2286.92,1980.232,2276.25,1985.859,2263.84,1990.59Z" transform="translate(-2271.9 -1837.967)" fill="#fff"/>
              <path id="Trazado_2263" data-name="Trazado 2263" d="M2481.136,2046.073l-.49-.218a50.554,50.554,0,0,1-14.218-10.412,52.45,52.45,0,0,1-14.83-36.075l.951-.027a51.51,51.51,0,0,0,14.558,35.423,50.947,50.947,0,0,0,13.43,9.977c5.777-19.071,16.026-31.06,23.624-37.761,8.332-7.354,15.414-10.154,15.482-10.181l.354.9a57.919,57.919,0,0,0-15.238,10.031c-7.571,6.688-17.793,18.677-23.475,37.829Z" transform="translate(-2434.432 -1982.008)" fill="#fff"/>
              <path id="Trazado_2264" data-name="Trazado 2264" d="M2386.22,2191.163l-.191-.285a145.076,145.076,0,0,0-16-18.989c-8.89-8.7-29.727-11.7-29.931-11.744l.136-.951a95.48,95.48,0,0,1,11.758,2.61c8.591,2.488,14.884,5.641,18.718,9.393a146.562,146.562,0,0,1,15.917,18.853c21.789-6.865,45.006-57.919,45.236-58.449l.871.394a256.748,256.748,0,0,1-14.585,27c-11.581,18.513-22.2,29.306-31.59,32.079Z" transform="translate(-2338.088 -2098.485)" fill="#fff"/>
              <path id="Trazado_2265" data-name="Trazado 2265" d="M2428.771,2465.91l.476-.829c5.559-9.678,4.73-19.832-2.46-30.19a55.8,55.8,0,0,0-12.587-12.764l.544-.789a57.619,57.619,0,0,1,12.832,13.008c7.1,10.235,8.115,20.716,2.963,30.367,6.334-.966,43.144-7.571,67.841-33.466l27.4-28.749.693.666-27.4,28.749c-27.213,28.531-68.943,33.846-69.364,33.9Z" transform="translate(-2402.116 -2332.562)" fill="#fff"/>
            </g>
          </g>
        </g>
        <g id="Grupo_1388" data-name="Grupo 1388" transform="translate(0 54.18)">
          <g id="Grupo_1387" data-name="Grupo 1387">
            <path id="Trazado_2267" data-name="Trazado 2267" d="M2102.3,2395.225c19.111,7.612,44.53,14.585,72.055,13.131,7.028-.367,50.416-2.651,52.618-21.15.775-6.511-4.213-9.542-3.33-18.269,1.047-10.344,8.726-12.723,17.331-22.754,5.138-5.994,20.158-23.529,12.383-39.528-4.649-9.556-17.222-18.133-28.695-19.791-16.828-2.419-28,10.521-46.514,32.745-16.42,19.71-16.637,26.03-28.708,40.017C2140.482,2370.01,2125.992,2383.453,2102.3,2395.225Z" transform="translate(-2102.3 -2286.574)" fill="url(#linear-gradient-16)"/>
            <g id="Grupo_1386" data-name="Grupo 1386" opacity="0.5" clip-path="url(#clip-path-4)">
              <path id="Trazado_2268" data-name="Trazado 2268" d="M1557.651,2283.718a114.378,114.378,0,0,1-15.523-1.061c-21.245-2.9-41.607-11.4-60.529-25.269l.571-.775c18.785,13.77,39,22.211,60.094,25.093,28.083,3.833,56.355-2.854,84.03-19.859,28.817-17.725,49.777-42.206,62.268-59.618,8.645-12.057,13.783-27.131,15.251-44.829l.952.081c-1.482,17.875-6.674,33.112-15.428,45.3-12.546,17.494-33.588,42.07-62.54,59.876C1604,2276.663,1580.814,2283.718,1557.651,2283.718Z" transform="translate(-1565.97 -2174.958)" fill="#fff"/>
              <path id="Trazado_2269" data-name="Trazado 2269" d="M2776.646,2339.591l-.136-.407a84.758,84.758,0,0,1-3.14-20.824c-.326-11.024,1.4-27.063,11.458-40.86l.775.557c-17.833,24.454-9.447,56.424-8.305,60.42,50.878-10.562,62.255-40.9,64.539-49.953.068-.286.095-.381.122-.462l.9.354c-.014.054-.041.163-.1.34-2.324,9.229-13.905,40.153-65.694,50.755Z" transform="translate(-2682.121 -2278.733)" fill="#fff"/>
              <path id="Trazado_2270" data-name="Trazado 2270" d="M2592.41,2365.912c-11.309,0-26.547-2.882-44.734-13.253l-.218-.122-.013-.258c-.014-.272-1.781-28.069,13.1-59.1l15.007-31.277.856.408-15.006,31.277c-14.014,29.225-13.158,55.526-13.022,58.367,12.927,7.34,32.541,15.374,52.971,12.356,12.288-1.821,19.125-6.851,19.193-6.905l.571.761c-.286.217-7.068,5.206-19.573,7.068A58.446,58.446,0,0,1,2592.41,2365.912Z" transform="translate(-2486.876 -2265.254)" fill="#fff"/>
            </g>
          </g>
        </g>
      </g>
      <g id="Grupo_1396" data-name="Grupo 1396" transform="translate(8.239 194.786)">
        <g id="Grupo_1392" data-name="Grupo 1392" transform="translate(30.994)">
          <g id="Grupo_1391" data-name="Grupo 1391">
            <path id="Trazado_2272" data-name="Trazado 2272" d="M795.554,2035.095c-7.1-6.674-16.461-17.521-20.688-32.84-5.546-20.09,2.623-30.244,1.74-64.253-.557-21.5-1.155-36.51-11.989-44.543-8.5-6.293-22.238-7.557-30.6-1.74-6.946,4.839-10.969,15.142-12.206,22.5-1.006,5.994-.2,10.344-3.67,13.511-3.534,3.221-7.354,1.386-10.657,3.779-6.7,4.839-2.841,20.906-2.216,23.5,6.946,28.885,33.52,48.39,45.223,56.763A180.853,180.853,0,0,0,795.554,2035.095Z" transform="translate(-703.599 -1887.977)" fill="url(#linear-gradient-17)"/>
            <g id="Grupo_1390" data-name="Grupo 1390" opacity="0.5" clip-path="url(#clip-path-5)">
              <path id="Trazado_2273" data-name="Trazado 2273" d="M1063.083,1990.676a133.3,133.3,0,0,1-31.725-16.76c-12.818-9.474-20.811-20.348-23.72-32.337-2.284-9.365-1.427-19.492-.326-32.324a178.275,178.275,0,0,1,3.915-24.63c1.821-8.482,3.262-15.183,2.284-24.861a73.709,73.709,0,0,0-9.61-29.089l.829-.476a74.674,74.674,0,0,1,9.732,29.469c.992,9.828-.462,16.6-2.3,25.16a179.809,179.809,0,0,0-3.887,24.508c-1.128,13.239-1.944,22.8.313,32.011,3.371,13.837,15.618,33.465,54.86,48.431Z" transform="translate(-963.081 -1838.053)" fill="#fff"/>
              <path id="Trazado_2274" data-name="Trazado 2274" d="M789.362,2046.074l-.15-.517c-5.682-19.152-15.9-31.141-23.475-37.829A57.928,57.928,0,0,0,750.5,1997.7l.353-.9c.068.027,7.15,2.827,15.482,10.181,7.612,6.715,17.847,18.69,23.624,37.76a51.7,51.7,0,0,0,27.987-45.4l.951.027a52.449,52.449,0,0,1-14.83,36.075,50.551,50.551,0,0,1-14.218,10.412Z" transform="translate(-744.125 -1982.008)" fill="#fff"/>
              <path id="Trazado_2275" data-name="Trazado 2275" d="M730.214,2191.163l-.34-.1c-9.393-2.773-20.009-13.565-31.59-32.079a255.047,255.047,0,0,1-14.585-27l.87-.394c.231.517,23.447,51.571,45.237,58.449a147.5,147.5,0,0,1,15.917-18.853c3.833-3.751,10.127-6.918,18.717-9.393a95.505,95.505,0,0,1,11.758-2.61l.136.951c-.2.027-21.042,3.045-29.931,11.744a147.423,147.423,0,0,0-16,18.989Z" transform="translate(-686.405 -2098.485)" fill="#fff"/>
              <path id="Trazado_2276" data-name="Trazado 2276" d="M562.818,2465.824l-.951-.109c-.421-.054-42.151-5.355-69.364-33.9l-27.4-28.749.693-.666,27.4,28.749c24.7,25.908,61.507,32.5,67.841,33.465-5.152-9.651-4.132-20.131,2.963-30.366a57.294,57.294,0,0,1,12.832-13.008l.544.788a56.454,56.454,0,0,0-12.6,12.791c-7.177,10.344-7.993,20.5-2.447,30.162Z" transform="translate(-497.519 -2332.476)" fill="#fff"/>
            </g>
          </g>
        </g>
        <g id="Grupo_1395" data-name="Grupo 1395" transform="translate(0 54.18)">
          <g id="Grupo_1394" data-name="Grupo 1394">
            <path id="Trazado_2278" data-name="Trazado 2278" d="M628.828,2395.225c-19.111,7.612-44.53,14.585-72.055,13.131-7.027-.367-50.416-2.651-52.618-21.15-.775-6.511,4.214-9.542,3.33-18.269-1.047-10.344-8.727-12.723-17.331-22.754-5.138-5.994-20.158-23.529-12.383-39.528,4.649-9.556,17.222-18.133,28.694-19.791,16.828-2.419,28,10.521,46.514,32.745,16.42,19.71,16.638,26.03,28.708,40.017C590.659,2370.01,605.136,2383.453,628.828,2395.225Z" transform="translate(-475.58 -2286.574)" fill="url(#linear-gradient-18)"/>
            <g id="Grupo_1393" data-name="Grupo 1393" opacity="0.5" clip-path="url(#clip-path-6)">
              <path id="Trazado_2279" data-name="Trazado 2279" d="M729.2,2283.718c-23.176,0-46.351-7.055-69.133-21.056-28.953-17.806-49.994-42.382-62.54-59.876-8.754-12.193-13.946-27.444-15.428-45.3l.951-.081c1.468,17.7,6.593,32.772,15.251,44.829,12.505,17.412,33.452,41.906,62.268,59.618,27.675,17,55.934,23.692,84.03,19.859,21.082-2.882,41.295-11.323,60.094-25.093l.571.775c-18.921,13.865-39.283,22.36-60.528,25.269A114.732,114.732,0,0,1,729.2,2283.718Z" transform="translate(-567.621 -2174.958)" fill="#fff"/>
              <path id="Trazado_2280" data-name="Trazado 2280" d="M486.71,2339.591l-.421-.082c-51.788-10.589-63.383-41.526-65.694-50.755a1.946,1.946,0,0,0-.1-.34l.9-.354a3.355,3.355,0,0,1,.122.462c2.284,9.066,13.661,39.391,64.538,49.953,1.142-4,9.515-35.98-8.305-60.42l.775-.557c10.059,13.8,11.785,29.823,11.459,40.86a84.736,84.736,0,0,1-3.14,20.824Z" transform="translate(-427.987 -2278.733)" fill="#fff"/>
              <path id="Trazado_2281" data-name="Trazado 2281" d="M644.108,2366a60.5,60.5,0,0,1-9.134-.666c-12.505-1.862-19.288-6.864-19.574-7.068l.571-.761c.068.054,6.919,5.084,19.193,6.905,11.309,1.672,29.659.87,52.971-12.356.136-2.854.992-29.156-13.022-58.367l-14.993-31.277.856-.408,15.006,31.277c14.884,31.032,13.117,58.829,13.1,59.1l-.014.258-.217.123C670.654,2363.13,655.417,2366,644.108,2366Z" transform="translate(-596.395 -2265.34)" fill="#fff"/>
            </g>
          </g>
        </g>
      </g>
      <g id="Grupo_1410" data-name="Grupo 1410" transform="translate(27.621 141.329)">
        <g id="Grupo_1409" data-name="Grupo 1409" clip-path="url(#clip-path-7)">
          <g id="Grupo_1398" data-name="Grupo 1398" transform="translate(153.419 34.176)">
            <path id="Trazado_2283" data-name="Trazado 2283" d="M2104.865,1765.426c-3.276-1.849-3.521-6.1-3.616-7.775-.231-3.969,1.21-10.439,5.423-11.4,3.4-.775,6.5,2.488,6.878,2.9,3.888,4.2,2.012,10.235,1.808,10.861-.462,1.414-1.414,4.309-4.35,5.614A7.433,7.433,0,0,1,2104.865,1765.426Z" transform="translate(-2053.058 -1746.128)" fill="url(#linear-gradient-19)"/>
            <g id="Grupo_1397" data-name="Grupo 1397" transform="translate(48.169 0.254)" opacity="0.3">
              <path id="Trazado_2284" data-name="Trazado 2284" d="M2111.028,1758.711c-1.9-2.8-5.314-2.5-6.334-4.88-.5-1.2-.38-2.99,1.523-5.831-3.86,1.319-5.179,7.435-4.961,11.268.1,1.686.34,5.94,3.616,7.775a7.347,7.347,0,0,0,6.157.177c.123-.054.259-.122.367-.177C2112.292,1764.107,2112.578,1761.008,2111.028,1758.711Z" transform="translate(-2101.232 -1748)" fill="url(#linear-gradient-20)"/>
            </g>
            <path id="Trazado_2285" data-name="Trazado 2285" d="M1980.054,1947.061s-6.538-46.868-3.724-63.342,18.092-19.777,24.657-19.941,19.682,4.431,20.675,23.91-8.985,60.474-8.985,60.474Z" transform="translate(-1944.531 -1847.783)" fill="url(#linear-gradient-21)"/>
            <path id="Trazado_2286" data-name="Trazado 2286" d="M1999.007,2089.3c10.249.951,14.082-8.142,23.516-7.245a13.74,13.74,0,0,1,3.018.625c.163-1.849.285-3.643.353-5.342a14.122,14.122,0,0,0-3.371-.748c-9.42-.91-13.267,8.2-23.516,7.245-8.359-.775-11.037-7.313-18.377-6.334a12.966,12.966,0,0,0-5.029,1.835c.013,1.726.054,3.534.122,5.383a12.9,12.9,0,0,1,4.907-1.754C1987.969,2081.989,1990.661,2088.527,1999.007,2089.3Z" transform="translate(-1944.508 -2031.618)" fill="#fff" opacity="0.3"/>
            <path id="Trazado_2287" data-name="Trazado 2287" d="M2004.208,2249.212c-7.653-.775-10.113-7.313-16.828-6.334a10.937,10.937,0,0,0-3.48,1.156c1.318,15.536,3.3,29.768,3.3,29.768l32.636,1.128s3.915-16.066,6.593-32.854c-.231-.041-.462-.068-.693-.1C2017.121,2241.056,2013.6,2250.163,2004.208,2249.212Z" transform="translate(-1951.68 -2174.523)" opacity="0.8" fill="url(#linear-gradient-22)"/>
            <path id="Trazado_2288" data-name="Trazado 2288" d="M2019.358,2116.893c-8.631-.911-12.152,8.2-21.531,7.245-7.653-.775-10.113-7.313-16.828-6.334a11.179,11.179,0,0,0-4.5,1.753c.177,5.247.557,10.9,1.02,16.393a10.6,10.6,0,0,1,3.48-1.156c6.715-.979,9.175,5.56,16.828,6.334,9.393.951,12.9-8.142,21.531-7.245C2019.575,2133.911,2020.187,2116.974,2019.358,2116.893Z" transform="translate(-1945.286 -2066.44)" opacity="0.3" fill="url(#linear-gradient-23)"/>
            <path id="Trazado_2289" data-name="Trazado 2289" d="M1749.992,2367.2c-7.082-8.414-.965-26.125,6.579-36.2,12.587-16.828,33.751-18.5,44.639-19.356,11.69-.924,27.58-2.175,40.615,8.441,15.333,12.492,21.9,37.475,13.321,47.113-6.973,7.829-18.581-.449-51.571-.367C1770.177,2366.926,1756.965,2375.476,1749.992,2367.2Z" transform="translate(-1746.86 -2234.264)" fill="url(#linear-gradient-24)"/>
            <path id="Trazado_2290" data-name="Trazado 2290" d="M1986.235,2206.8c6.049-1.889,15.944-1.889,15.835-23.6,0,0,12.546-.177,13.022,0,.449.177-3.33,21.531,14.218,22.251a1.361,1.361,0,0,1,.544,2.46c-3.181,2.365-10.33,5.913-20.919,5.505-6.7-.258-14.34.87-22.74-4C1985.052,2208.755,1984.97,2207.192,1986.235,2206.8Z" transform="translate(-1952.9 -2123.722)" fill="url(#linear-gradient-25)"/>
            <path id="Trazado_2291" data-name="Trazado 2291" d="M2218.415,2054.656c-3.48-.72,2.719-30.162-.34-76.038-.639-9.515-1.509-17.344-2.175-22.618l11.323.979c4.323,13.878,9.991,39.2,3.1,68.888C2227.087,2039.826,2220.97,2055.186,2218.415,2054.656Z" transform="translate(-2152.145 -1927.473)" fill="url(#linear-gradient-26)"/>
            <path id="Trazado_2292" data-name="Trazado 2292" d="M2218.415,2054.656c-3.48-.72,2.719-30.162-.34-76.038-.639-9.515-1.509-17.344-2.175-22.618l11.323.979c4.323,13.878,9.991,39.2,3.1,68.888C2227.087,2039.826,2220.97,2055.186,2218.415,2054.656Z" transform="translate(-2152.145 -1927.473)" fill="url(#linear-gradient-26)"/>
            <path id="Trazado_2293" data-name="Trazado 2293" d="M2046.035,2000.228c0,2.9-1.319,24.059,14.857,24.059,14.789,0,13.5-15.469,13.063-23.23,0,0-.68-6.973-5.654-8.958,0,0,4.608,3.982,4.54,12.6,0,0-1.142-4.594-11.989-4.757s-13.1,4.757-13.1,4.757-1.917-8.292,3.6-12.6C2051.35,1992.1,2047.435,1993.31,2046.035,2000.228Z" transform="translate(-2005.347 -1958.666)" fill="url(#linear-gradient-28)"/>
          </g>
          <g id="Grupo_1401" data-name="Grupo 1401" transform="translate(63.747 9.582)">
            <g id="Grupo_1400" data-name="Grupo 1400">
              <path id="Trazado_2294" data-name="Trazado 2294" d="M1150.271,1654.405c-14.884,1.536-19.587,6.824-25.486,3.126-5.369-3.371-3.167-8.794-8.89-12.655-8.006-5.41-17.684,1.6-21.463-2.977-2.95-3.588,2.773-8.088,1.767-17.535-1.2-11.228-10.222-13.634-8.917-22.6.924-6.334,6.2-10.589,6.592-10.888,4.091-3.208,6.09-1.509,9.868-4.431,5.478-4.241,3.154-9.243,8.754-14.164.435-.381,5.994-5.138,11.853-3.86,4.54.992,4.472,4.553,8.278,5.505,6.837,1.7,10.684-8.822,19.22-8.727,6.756.068,7.014,6.674,15.251,8.278,10.126,1.971,17.548-6.525,21.517-3.113,2.542,2.188-.313,5.845,2.6,10,3.194,4.553,8.061,2.2,13.375,6.987,3.126,2.814,5.926,7.666,5.723,12.628-.19,4.934-3.194,6.144-2.542,10.521.652,4.268,3.711,4.445,4.486,8.536.87,4.608-1.957,10.018-5.723,12.94-5.165,4.01-9.8,1.59-12.682,5.614-2.148,3-.245,5.328-2.066,8.863-1.753,3.412-5.655,5.41-13.117,6.959C1165.685,1656.1,1162.6,1653.127,1150.271,1654.405Z" transform="translate(-1087.154 -1565.195)" fill="url(#linear-gradient-29)"/>
              <g id="Grupo_1399" data-name="Grupo 1399" transform="translate(0.014 3.1)" opacity="0.3">
                <path id="Trazado_2295" data-name="Trazado 2295" d="M1198.666,1649.4c-8.6-1.713-9.406-9.692-18.473-12.22-15.564-4.322-28.586,14.9-36.361,10.127-7.435-4.54,2.732-23.135-7.449-34.267-7.49-8.21-18.948-4.635-21.463-10.725-1.142-2.76-.272-7.109,6.008-14.313a17.716,17.716,0,0,0-8.332,3.969c-5.6,4.921-3.262,9.923-8.754,14.164-3.779,2.923-5.777,1.237-9.868,4.431-.381.3-5.668,4.554-6.592,10.888-1.3,8.971,7.721,11.377,8.917,22.6,1.006,9.447-4.717,13.946-1.767,17.535,3.779,4.581,13.443-2.42,21.463,2.977,5.723,3.86,3.521,9.3,8.89,12.655,5.9,3.7,10.6-1.591,25.486-3.126,12.329-1.278,15.414,1.7,28.409-.992,7.462-1.55,11.364-3.548,13.117-6.959,1.821-3.534-.082-5.872,2.066-8.863,2.868-4.023,7.517-1.59,12.682-5.614a15.8,15.8,0,0,0,3.643-4.092A18.619,18.619,0,0,1,1198.666,1649.4Z" transform="translate(-1087.254 -1588)" fill="url(#linear-gradient-30)"/>
              </g>
            </g>
            <path id="Trazado_2296" data-name="Trazado 2296" d="M1136.484,2321.475c5.057,7.925,29.184,40.887,63.41,40.493,34.485-.394,43.85-33.7,49.206-41.431,2.488-3.588,1.55-7.761-.245-15.686-1.223-5.41-3.6-16-12.424-23.257-10.82-8.917-25.949-8.414-41.173-7.925-15.917.517-37.9,1.237-50.1,15.007-8.536,9.623-9.406,22.374-9.515,24.25C1135.41,2317.37,1135.287,2319.586,1136.484,2321.475Z" transform="translate(-1128.92 -2177.174)" fill="url(#linear-gradient-31)"/>
            <path id="Trazado_2297" data-name="Trazado 2297" d="M1413.886,2089.7s2.039,23.556-14.476,28.259a2.335,2.335,0,0,0-.788,4.078c5.22,4.091,14.653,10.63,22.523,11.486,8.2.884,17.929-7.571,22.917-12.587a2.332,2.332,0,0,0-1.264-3.942c-7.068-1.264-19.723-6.307-18.418-26.384Z" transform="translate(-1355.513 -2018.405)" fill="url(#linear-gradient-32)"/>
            <path id="Trazado_2298" data-name="Trazado 2298" d="M1435.191,1870.786s-1.169,23.5,15.754,23.216,15.727-20.321,14.789-25.5c0,0,.122-13.647-11.16-12.465S1435.707,1860.755,1435.191,1870.786Z" transform="translate(-1387.868 -1816.442)" fill="url(#linear-gradient-33)"/>
            <path id="Trazado_2299" data-name="Trazado 2299" d="M1646.93,1984.615s1.618-6.144,4.975-3.1c4.866,4.417-5.505,9.433-5.505,9.433Z" transform="translate(-1570.383 -1924.195)" fill="url(#linear-gradient-34)"/>
            <path id="Trazado_2300" data-name="Trazado 2300" d="M1407.316,1984.615s-1.618-6.144-4.975-3.1c-4.866,4.417,5.5,9.433,5.5,9.433Z" transform="translate(-1358.376 -1924.195)" fill="url(#linear-gradient-35)"/>
            <path id="Trazado_2301" data-name="Trazado 2301" d="M1428.375,1845.618a.519.519,0,0,0,.979.027,16.584,16.584,0,0,1,14.259-10.82c8.5-.884,13.008,5.356,14.979,9.257a.956.956,0,0,0,1.808-.326c.571-5.655-.2-16.556-14.68-16.556C1427.464,1827.186,1426.962,1841.023,1428.375,1845.618Z" transform="translate(-1381.569 -1791.586)" fill="url(#linear-gradient-36)"/>
          </g>
          <g id="Grupo_1403" data-name="Grupo 1403" transform="translate(181.077 61.647)">
            <path id="Trazado_2302" data-name="Trazado 2302" d="M1952.234,2598.9c-5.519-9.134,2.27-24.1,7.177-30.883,14.286-19.777,40.534-20.443,62.064-20.987,21.137-.544,41.553-1.06,56.491,14.109,9.76,9.909,26.792,32.813,18.377,70.248-2.623,11.676-39.636,18.01-81.189,17.861C1969.415,2649.1,1959.112,2610.318,1952.234,2598.9Z" transform="translate(-1950.336 -2465.464)" fill="url(#linear-gradient-37)"/>
            <path id="Trazado_2303" data-name="Trazado 2303" d="M2349.081,2556.938c0,3.915-9.556,8.6-21.341,8.6s-21.341-4.7-21.341-8.6,9.556-2.161,21.341-2.161S2349.081,2553.023,2349.081,2556.938Z" transform="translate(-2258.001 -2471.987)" fill="url(#linear-gradient-38)"/>
            <path id="Trazado_2304" data-name="Trazado 2304" d="M2351.372,2372.3c-3.249,0,4.241,22.809-7.558,25.935a1.291,1.291,0,0,0-.285,2.392c3.167,1.713,9.094,3.888,18.826,3.888a24.1,24.1,0,0,0,13.348-4,1.3,1.3,0,0,0-.136-2.229c-3.643-1.876-8.686-7.83-7.177-25.405Z" transform="translate(-2289.489 -2314.657)" fill="url(#linear-gradient-39)"/>
            <path id="Trazado_2305" data-name="Trazado 2305" d="M2333.1,2088.562c.054.285,1.033,21.1,5.791,31.494,1.359,2.977,8.142,2.624,12.519,2.271,3.806-.313,9.773,1.073,11.458-1.55,6.756-10.562,5.614-36.741,5.614-36.741s-3.466-8.713-17.657-8.468S2333.1,2088.562,2333.1,2088.562Z" transform="translate(-2281.072 -2058.254)" fill="url(#linear-gradient-40)"/>
            <path id="Trazado_2306" data-name="Trazado 2306" d="M2301.941,2228.38s-2.977-3.452-5.763-3.915-4.622,6.783-.8,11.5,8.237.8,8.237.8Z" transform="translate(-2246.596 -2186.899)" fill="url(#linear-gradient-41)"/>
            <path id="Trazado_2307" data-name="Trazado 2307" d="M2559.872,2228.38s2.977-3.452,5.763-3.915,4.621,6.783.8,11.5-8.237.8-8.237.8Z" transform="translate(-2475.574 -2186.899)" fill="url(#linear-gradient-42)"/>
            <path id="Trazado_2308" data-name="Trazado 2308" d="M2300.1,1989.452c.38.68.8,1.319,1.087,1.251,1.2-.313-3.425-12.016.829-16.107,2.2-2.121,4.69-.19,13.715-.6,9.094-.408,11.418-2.583,14.164-.924,2.5,1.522,4.744,5.858,2.9,18.69.517-.122,1.033-.245,1.55-.353-.693-4.2.068-6.865.938-8.536.639-1.223,1.781-2.8,1.686-5.07-.054-1.414-.517-1.468-.6-2.623-.231-3.385,3.629-4.3,3.819-7.639.149-2.569-2.08-3.153-1.672-5.845.34-2.283,2.08-2.719,1.808-4.363-.3-1.781-2.623-3.113-4.241-3.575-1.658-.476-2.256.054-3.235-.625-1.577-1.087-.816-3.018-1.958-3.724-2.025-1.278-6.049,3.82-8.659,2.542-1.577-.761-.965-3.058-2.365-3.616-2.691-1.074-7.462,6.484-9.379,5.478-.924-.476-.027-2.324-1.318-3.67-1.509-1.59-5.138-1.59-6.8.1-1.536,1.563-.231,3.439-1.862,5.437-1.468,1.781-3.153,1.047-4.812,2.487-2.813,2.433-1.834,7.925-1.481,9.9,1.2,6.755,4.948,8.128,4.1,12.736a10.183,10.183,0,0,0-.354,4.418A9.323,9.323,0,0,0,2300.1,1989.452Z" transform="translate(-2247.075 -1948.229)" fill="url(#linear-gradient-43)"/>
            <g id="Grupo_1402" data-name="Grupo 1402" transform="translate(46.684 10.354)" opacity="0.3">
              <path id="Trazado_2309" data-name="Trazado 2309" d="M2334.685,2040.67c-.326-3.317,2.243-4.866,1.808-7.245-.354-1.9-2.5-3.616-4.526-3.983-4.309-.775-7.109,5.573-11.4,4.88-3.317-.53-2.95-4.54-6.7-6.158-5.94-2.555-12.152,5.233-16.107,3.072-1.183-.653-2.393-2.311-2.474-6.837-2.271,2.6-1.373,7.6-1.047,9.46,1.2,6.756,4.948,8.129,4.1,12.736a10.176,10.176,0,0,0-.354,4.418,9.067,9.067,0,0,0,2.134,4.241c.381.68.8,1.319,1.088,1.25,1.2-.312-3.425-12.016.829-16.107,2.2-2.121,4.689-.19,13.715-.6,9.094-.408,11.418-2.583,14.164-.924,2.5,1.522,4.744,5.858,2.9,18.69.517-.122,1.033-.245,1.55-.354-.693-4.2.068-6.864.938-8.536.258-.5.612-1.06.924-1.713a15.45,15.45,0,0,0-.652-3.6C2335.12,2041.894,2334.793,2041.744,2334.685,2040.67Z" transform="translate(-2293.781 -2024.4)" fill="url(#linear-gradient-44)"/>
            </g>
          </g>
          <g id="Grupo_1404" data-name="Grupo 1404" transform="translate(12.168 76.609)">
            <path id="Trazado_2310" data-name="Trazado 2310" d="M778.525,2733.57c-47.235.367-56.79-10.779-64.294-21.028-6.905-9.42-9.732-43.293-1.5-52.781,13.022-15.02,33.928-15.754,62.527-16.542,26.9-.748,43.47-1.21,56.559,10.385,12.234,10.833,20.049,30.991,12.424,41.4C837.177,2704.658,823.625,2733.23,778.525,2733.57Z" transform="translate(-707.692 -2563.43)" fill="url(#linear-gradient-45)"/>
            <path id="Trazado_2311" data-name="Trazado 2311" d="M1043.706,2631.107l-5.532,1.414a2.059,2.059,0,0,0-1.223,3.1c3.765,5.872,13.742,20.607,19.981,22.346,6.457,1.794,18.513-16.882,22.523-23.461a2.044,2.044,0,0,0-1.128-3.017l-4.051-1.291a26.587,26.587,0,0,0-10.276-1.169l-15.115,1.223A30.252,30.252,0,0,0,1043.706,2631.107Z" transform="translate(-991.916 -2551.372)" fill="url(#linear-gradient-46)"/>
            <path id="Trazado_2312" data-name="Trazado 2312" d="M1111.469,2487s3.045,21.857-1.169,23.95l11.961,13.036,12.125-15.441s-4.581-3.452-3.371-21.544Z" transform="translate(-1055.574 -2428.728)" fill="url(#linear-gradient-47)"/>
            <path id="Trazado_2313" data-name="Trazado 2313" d="M1060.131,2208.911c-.435.584-6.049,28.137,13.389,31.019s20.28-17.48,20.036-26.112-9.135-11.771-14.218-12.383S1061.667,2206.845,1060.131,2208.911Z" transform="translate(-1011.291 -2181.943)" fill="url(#linear-gradient-48)"/>
            <path id="Trazado_2314" data-name="Trazado 2314" d="M1024.742,2358.464s-.979-4.5-4.3-1.7,1.971,10.263,6.334,9.95Z" transform="translate(-977.031 -2315.402)" fill="url(#linear-gradient-49)"/>
            <path id="Trazado_2315" data-name="Trazado 2315" d="M1294.761,2345.233c-.557.381-2.161,10.942-2.161,10.942s2.8.326,4.839-3.466S1300.443,2341.386,1294.761,2345.233Z" transform="translate(-1213.095 -2305.311)" fill="url(#linear-gradient-50)"/>
            <path id="Trazado_2316" data-name="Trazado 2316" d="M1013.879,2078.024c-2.052-3.4-7.218-1.794-8.727-5.056-1.264-2.746,1.713-5.342.109-7.721-1.332-1.984-4.608-1.944-5.193-1.93-4.418.068-5.423,3.562-8.577,3.48-3.847-.1-4-5.356-9.08-7.572-4.934-2.148-12.152-.394-15.061,3.629-2.27,3.126-.34,5.437-3.3,9.461-2.039,2.773-3.847,2.9-4.866,5.6a10.585,10.585,0,0,0,.19,6.769c1.21,4.309,3.466,6.212,6.864,10.806a74.814,74.814,0,0,1,5.777,9.107,102.545,102.545,0,0,1,3.4,10.874c1.087,4.3,1.02,5.165,2.039,6.565,3.507,4.8,11.527,4.336,14.9,4.132,3.86-.218,8.672-.5,11.105-3.86,1.305-1.822,1.142-3.453,1.454-7.843a108.155,108.155,0,0,1,1.686-12.845,37.427,37.427,0,0,1,1.577-5.451c1.414-3.751,2.868-4.349,4.458-8.237C1013.893,2084.821,1015.537,2080.8,1013.879,2078.024Zm-16.094,29.333c-2.392.639-4,.068-7.245-.123-6.47-.367-8.523,2.664-11.581,1.332-1.278-.558-4.227-2.107-4.853-5.1a24.06,24.06,0,0,1-.2-7.639c.5-3.738,1.087-8.047,4.078-9.95,4.336-2.759,9.882,2,13.878-1.087a7.228,7.228,0,0,0,2.42-4.35c.884.3,7.925,2.868,10.507,10.371a16.924,16.924,0,0,1-.1,11A12.569,12.569,0,0,1,997.785,2107.358Z" transform="translate(-924.573 -2058.302)" fill="url(#linear-gradient-51)"/>
            <path id="Trazado_2317" data-name="Trazado 2317" d="M1143.923,2450.488a15.891,15.891,0,0,0,10.466-.3c.435-.163.816.313.449.571a9.644,9.644,0,0,1-6.089,2.025,12.793,12.793,0,0,1-5.193-1.7C1143.162,2450.868,1143.474,2450.351,1143.923,2450.488Z" transform="translate(-1084.154 -2396.892)" fill="url(#linear-gradient-52)"/>
          </g>
          <g id="Grupo_1405" data-name="Grupo 1405" transform="translate(113.335 89.108)">
            <path id="Trazado_2318" data-name="Trazado 2318" d="M1744.581,2260.4a37.137,37.137,0,0,1-5.07,19.193c-4.173,6.905-10.534,11.309-17.671,11.309a18.641,18.641,0,0,1-11.948-4.54c-6.484-5.369-10.793-14.993-10.793-25.962,0-16.855,10.181-30.5,22.741-30.5S1744.581,2243.561,1744.581,2260.4Z" transform="translate(-1665.508 -2219.074)" fill="url(#linear-gradient-53)"/>
            <path id="Trazado_2319" data-name="Trazado 2319" d="M1752.04,2490.24c-4.173,6.906-10.534,11.309-17.671,11.309a18.639,18.639,0,0,1-11.948-4.54c-4.526-4.621-8.482-11.472-8.822-21.449,0,0,9.311-5.329,14.734,1.889C1732.181,2482.574,1745.625,2485.225,1752.04,2490.24Z" transform="translate(-1678.037 -2429.706)" opacity="0.3" fill="url(#linear-gradient-54)"/>
            <path id="Trazado_2320" data-name="Trazado 2320" d="M1454.419,2764.812c-4.35-6.538-1.7-16.733-1.142-18.894a33.544,33.544,0,0,1,9.189-15.428c12.872-12.682,32.527-12.56,47.411-12.478,14.857.1,23.162.136,32.215,5.274,16.338,9.257,27.566,30.8,21.014,41.363-4.078,6.579-11.989,3.983-59.02,5.614C1473.612,2771.323,1459.883,2773.022,1454.419,2764.812Z" transform="translate(-1451.968 -2640.826)" fill="url(#linear-gradient-55)"/>
            <path id="Trazado_2321" data-name="Trazado 2321" d="M1728.142,2532.8s3.14,22.51-12.763,26.968a2.451,2.451,0,0,0-1.006,4.146l19.6,18.418a2.92,2.92,0,0,0,4.159-.163l17.793-19.655a2.447,2.447,0,0,0-.979-3.942c-5.709-2.107-15.931-8.21-13.783-24.684Z" transform="translate(-1678.035 -2480.802)" fill="url(#linear-gradient-56)"/>
            <path id="Trazado_2322" data-name="Trazado 2322" d="M1748.886,2323.3c0,.245,4.282,22.211,15.292,22.211,10.426,0,14.381-16.176,15.672-23.733.136-1.291.272-2.569.408-3.86a8.016,8.016,0,0,1-4.567.136c-.476-.136-3.507-.951-4.622-3.439-1.25-2.773,1.047-4.989-.258-7.408a5.494,5.494,0,0,0-3.453-2.406c.775,1.142,2.284,3.684,1.427,5.994-.571,1.55-2.175,3.045-5.75,3.956C1752.774,2317.346,1748.777,2318.324,1748.886,2323.3Z" transform="translate(-1708.525 -2283.793)" fill="url(#linear-gradient-57)"/>
            <path id="Trazado_2323" data-name="Trazado 2323" d="M1728.654,2442.315s-5.668-4.8-6.157-1.862c-1.033,6.117,3.819,9.488,6.443,7.667S1728.654,2442.315,1728.654,2442.315Z" transform="translate(-1685.602 -2400.186)" fill="url(#linear-gradient-58)"/>
            <path id="Trazado_2324" data-name="Trazado 2324" d="M1943.678,2442.315s5.668-4.8,6.158-1.862c1.033,6.117-3.82,9.488-6.443,7.667S1943.678,2442.315,1943.678,2442.315Z" transform="translate(-1875.642 -2400.186)" fill="url(#linear-gradient-59)"/>
            <path id="Trazado_2325" data-name="Trazado 2325" d="M1614.3,2238.738s.612-5.831-8.835-18.5-5.668-25.69-7.557-34.294c-.965-4.4-.639-13.81-3.806-21.953a21.551,21.551,0,0,0-12.736-12.369,22.35,22.35,0,0,0-17.956,1.128c-9.352,4.866-23.556,16.257-22.115,40.343.041.68.1,1.359.15,2.066,0,0-.816,22.741-13.239,33.873s-2.977,25.6,10.262,31.63a16.293,16.293,0,0,0,1.89.707C1556.912,2266.63,1616.04,2265.094,1614.3,2238.738Zm-43.918-18.282c-11.622,0-21.042-12.777-21.042-28.531s9.42-28.531,21.042-28.531,21.042,12.777,21.042,28.531S1581.99,2220.456,1570.382,2220.456Z" transform="translate(-1512.826 -2150.257)" fill="#fff"/>
            <path id="Trazado_2326" data-name="Trazado 2326" d="M1574.514,2524.982c-9.977.014-40.506,1.59-34.159,8.795a19.372,19.372,0,0,1-1.89-.707c-13.239-6.049-22.686-20.5-10.262-31.63s13.239-33.873,13.239-33.873c-.068-.693-.122-1.386-.15-2.066a1.585,1.585,0,0,1,.68.3c2.039,1.522,1.808,7.109,2,9.271.435,4.717.8,9.487,2.188,14.041.367,1.237.8,2.447,1.278,3.643a26.243,26.243,0,0,0,9.651,12.369c5.736,3.779,12.9,5.491,19.737,5.641C1600.925,2511.226,1585.171,2524.968,1574.514,2524.982Z" transform="translate(-1512.826 -2422.65)" opacity="0.1" fill="url(#linear-gradient-60)"/>
          </g>
          <g id="Grupo_1407" data-name="Grupo 1407" transform="translate(47.676 112.286)">
            <path id="Trazado_2327" data-name="Trazado 2327" d="M969.595,2927.236c-1.237-2.393-.625-5.927.6-13.022.6-3.507,3.357-19.546,10.358-29.578,13.28-19.043,43.456-18.771,60.325-18.622,20.049.177,40.6.367,55.051,15.958,12.166,13.13,19.274,36.4,10.344,47.316-8.591,10.507-24.114-.1-68.616.313C1000.233,2929.94,975.018,2937.756,969.595,2927.236Z" transform="translate(-968.918 -2791.875)" fill="url(#linear-gradient-61)"/>
            <path id="Trazado_2328" data-name="Trazado 2328" d="M1263.265,2805.1c-16.5-.041-34.267,7.49-33.9,13.171.38,5.954,20.647,9.8,35.083,9.909,13.443.095,33.424-2.95,33.982-8.794C1298.973,2813.621,1280.677,2805.14,1263.265,2805.1Z" transform="translate(-1193.958 -2739.265)" fill="url(#linear-gradient-62)"/>
            <path id="Trazado_2329" data-name="Trazado 2329" d="M1342.918,2683.3s4.282,28.055-11.418,30.461l22.945,5.124,19.179-5.355s-14.463-3.915-12.383-26.981Z" transform="translate(-1282.215 -2634.023)" fill="url(#linear-gradient-63)"/>
            <path id="Trazado_2330" data-name="Trazado 2330" d="M1392.122,2452.318c0,9.637-7.367,17.453-16.461,17.453s-16.461-7.816-16.461-17.453,7.367-28.219,16.461-28.219S1392.122,2442.667,1392.122,2452.318Z" transform="translate(-1306.15 -2410.055)" fill="url(#linear-gradient-64)"/>
            <path id="Trazado_2331" data-name="Trazado 2331" d="M1590.78,2599.594s3.9-2.922,5.913.136c2.814,4.3-6.293,8.672-6.293,8.672Z" transform="translate(-1505.923 -2560.606)" fill="url(#linear-gradient-65)"/>
            <path id="Trazado_2332" data-name="Trazado 2332" d="M1325.883,2599.594s-3.9-2.922-5.913.136c-2.814,4.3,6.293,8.672,6.293,8.672Z" transform="translate(-1271.786 -2560.606)" fill="url(#linear-gradient-66)"/>
            <path id="Trazado_2333" data-name="Trazado 2333" d="M1336.13,2366.029c-.775.177-6.13-10.249-4.282-20.5,3.412-18.812,27.77-26.954,29.387-24.25.829,1.386-3.779,6.579-2.651,8.115,1.06,1.455,5.927-2.161,6.837-.72.843,1.305-2.583,5.274-1.726,6.606.87,1.359,4.893-1.93,6.212-.435,1.876,2.134-4.091,11.187-1.631,14.544.829,1.142,1.808.49,2.759,1.7,2.637,3.357-1.115,13.362-2.759,13.09-1.25-.2-.1-6.171-3.575-12.125a17.248,17.248,0,0,0-5.206-5.573,24.978,24.978,0,0,0-7.381,4.091c-2.08,1.686-1.849,2.474-3.33,3.3-3.915,2.161-7.53-1.046-10,1.1-.788.68-1.088,1.944-1.686,4.458C1336.13,2363.569,1336.5,2365.948,1336.13,2366.029Z" transform="translate(-1282.183 -2320.775)" fill="url(#linear-gradient-67)"/>
            <g id="Grupo_1406" data-name="Grupo 1406" transform="translate(49.293 14.507)" opacity="0.3">
              <path id="Trazado_2334" data-name="Trazado 2334" d="M1358.237,2434.813c-3.548-1.455-3.82-5.954-7.517-6.946-7.123-1.9-14.354,12.56-16.366,11.105-.748-.543-.693-3.235,1.971-11.472a25.65,25.65,0,0,0-4.377,10.249c-1.848,10.235,3.507,20.674,4.282,20.5.353-.082-.014-2.46.979-6.565.6-2.515.9-3.779,1.685-4.459,2.46-2.147,6.09,1.074,10-1.1,1.482-.829,1.25-1.6,3.33-3.3a24.671,24.671,0,0,1,7.381-4.091,17.394,17.394,0,0,1,5.206,5.573c3.48,5.953,2.324,11.921,3.575,12.125,1.645.272,5.383-9.732,2.759-13.09-.938-1.21-1.917-.557-2.759-1.7-1.876-2.555,1.155-8.441,1.862-12.029C1364.326,2435.3,1360.629,2435.791,1358.237,2434.813Z" transform="translate(-1331.563 -2427.5)" fill="url(#linear-gradient-68)"/>
            </g>
          </g>
          <g id="Grupo_1408" data-name="Grupo 1408" transform="translate(158.661 114.492)">
            <path id="Trazado_2335" data-name="Trazado 2335" d="M2155.242,2635.063s-.979-4.5-4.3-1.7,1.971,10.262,6.334,9.95Z" transform="translate(-2100.358 -2592.287)" fill="url(#linear-gradient-69)"/>
            <path id="Trazado_2336" data-name="Trazado 2336" d="M2409.862,2623.773c-.558.381-2.161,10.942-2.161,10.942s2.8.326,4.839-3.466S2415.543,2619.94,2409.862,2623.773Z" transform="translate(-2323.115 -2583.879)" fill="url(#linear-gradient-70)"/>
            <path id="Trazado_2337" data-name="Trazado 2337" d="M1859.8,2977.522c-47.235.367-63.791,6.593-71.294-3.656-6.905-9.42-1.182-26.017,7.055-35.5,13.022-15.02,33.928-15.754,62.527-16.542,26.9-.748,43.469-1.21,56.559,10.385,12.234,10.833,20.05,30.991,12.424,41.4C1920,2983.258,1904.885,2977.169,1859.8,2977.522Z" transform="translate(-1785.421 -2842.043)" fill="url(#linear-gradient-71)"/>
            <path id="Trazado_2338" data-name="Trazado 2338" d="M2158.906,2909.707l-5.532,1.414a2.059,2.059,0,0,0-1.223,3.1c3.765,5.872,13.742,20.607,19.981,22.347,6.457,1.793,18.513-16.883,22.523-23.461a2.044,2.044,0,0,0-1.128-3.017l-4.051-1.291a26.583,26.583,0,0,0-10.276-1.169l-15.115,1.224A30.268,30.268,0,0,0,2158.906,2909.707Z" transform="translate(-2102.023 -2829.985)" fill="url(#linear-gradient-72)"/>
            <path id="Trazado_2339" data-name="Trazado 2339" d="M2226.669,2765.5s3.045,21.857-1.169,23.951l11.961,13.035,12.125-15.441s-4.581-3.452-3.371-21.545Z" transform="translate(-2165.681 -2707.255)" fill="url(#linear-gradient-73)"/>
            <path id="Trazado_2340" data-name="Trazado 2340" d="M2177.749,2487.5c-.435.585-4.73,37.652,14.707,40.533s18.976-27,18.718-35.626-9.134-11.772-14.218-12.383S2179.271,2485.42,2177.749,2487.5Z" transform="translate(-2123.815 -2460.545)" fill="url(#linear-gradient-74)"/>
            <path id="Trazado_2341" data-name="Trazado 2341" d="M2089.2,2374.518c.5-3.738,1.087-8.047,4.078-9.95,4.336-2.759,9.882,2,13.878-1.087a7.228,7.228,0,0,0,2.419-4.35c.884.3,7.925,2.868,10.507,10.371a16.686,16.686,0,0,1,.395,9.352c.163-.081.339-.177.5-.258.516-.272,1.02-.571,1.536-.856.231-.843.544-1.822.952-2.882,1.414-3.752,2.868-4.35,4.458-8.237,1.278-3.113,2.922-7.136,1.25-9.9-2.052-3.4-7.218-1.794-8.727-5.056-1.264-2.746,1.713-5.342.109-7.721-1.332-1.985-4.608-1.944-5.192-1.93-4.418.068-5.424,3.562-8.577,3.48-3.847-.1-4-5.356-9.08-7.571-4.934-2.148-12.152-.394-15.061,3.629-2.27,3.126-.34,5.437-3.3,9.46-2.039,2.773-3.847,2.9-4.866,5.6a10.585,10.585,0,0,0,.19,6.769c1.21,4.309,3.466,6.212,6.865,10.806.652.884,1.414,1.944,2.229,3.194,1.74.68,3.494,1.332,5.274,1.89A22.9,22.9,0,0,1,2089.2,2374.518Z" transform="translate(-2034.766 -2337.002)" fill="url(#linear-gradient-75)"/>
          </g>
        </g>
      </g>
    </g>
  </g>
</svg>
