<svg xmlns="http://www.w3.org/2000/svg" width="18.672" height="14.004" viewBox="0 0 18.672 14.004">
  <path id="PHOTO" d="M16.921,78H1.75A1.75,1.75,0,0,1,0,76.253V65.75A1.75,1.75,0,0,1,1.75,64H16.921a1.75,1.75,0,0,1,1.75,1.75v10.5A1.75,1.75,0,0,1,16.921,78ZM4.084,66.042a2.042,2.042,0,1,0,2.042,2.042A2.042,2.042,0,0,0,4.084,66.042ZM2.334,75.67h14V71.585l-3.191-3.191a.438.438,0,0,0-.619,0L7.585,73.336,5.561,71.311a.438.438,0,0,0-.619,0L2.334,73.919Z" transform="translate(0 -64)" fill="#b1c449"/>
</svg>
