<svg id="plus" xmlns="http://www.w3.org/2000/svg" width="101.557" height="103.682" viewBox="0 0 101.557 103.682">
  <path id="Trazado_3710" data-name="Trazado 3710" d="M131.487,733.9a8.559,8.559,0,0,1-8.569-8.569V717.31H102.923v8.022a8.569,8.569,0,1,1-17.138,0v-8.144A23.193,23.193,0,0,1,65,694.155C65,681.393,75.149,671,87.608,671h50.625c12.459,0,22.547,10.392,22.547,23.155a23.14,23.14,0,0,1-20.724,23.034v8.144A8.559,8.559,0,0,1,131.487,733.9Z" transform="translate(-62.137 -630.22)" fill="#fff" fill-rule="evenodd"/>
  <path id="Trazado_3711" data-name="Trazado 3711" d="M25.194,128.172a2.365,2.365,0,0,1-1.4-.425,2.4,2.4,0,0,1-.972-2.431l1.459-7.536-5.591-5.287A2.262,2.262,0,0,1,18.023,110a2.34,2.34,0,0,1,2.006-1.641l7.6-.972,3.282-6.989A2.479,2.479,0,0,1,33.095,99a2.347,2.347,0,0,1,2.188,1.4l3.282,6.989,7.658.972A2.34,2.34,0,0,1,48.228,110a2.492,2.492,0,0,1-.669,2.492l-5.591,5.287,1.4,7.536a2.473,2.473,0,0,1-.912,2.431,2.4,2.4,0,0,1-2.613.122l-6.746-3.646-6.685,3.646A2.135,2.135,0,0,1,25.194,128.172Z" transform="translate(-17.895 -92.983)" fill="#fcbe37" fill-rule="evenodd"/>
  <path id="Trazado_3712" data-name="Trazado 3712" d="M1211.148,128.172a2.063,2.063,0,0,1-1.155-.3l-6.746-3.646-6.685,3.646a2.418,2.418,0,0,1-3.586-2.553l1.458-7.536-5.591-5.287a2.37,2.37,0,0,1-.668-2.492,2.34,2.34,0,0,1,2.006-1.641l7.657-.972,3.221-6.989a2.459,2.459,0,0,1,4.436,0l3.221,6.989,7.658.972A2.341,2.341,0,0,1,1218.38,110a2.37,2.37,0,0,1-.669,2.492l-5.591,5.287,1.459,7.536a2.512,2.512,0,0,1-.972,2.431A2.423,2.423,0,0,1,1211.148,128.172Z" transform="translate(-1116.941 -92.983)" fill="#fcbe37" fill-rule="evenodd"/>
  <path id="Trazado_3713" data-name="Trazado 3713" d="M559.41,35.188a2.365,2.365,0,0,1-1.4-.425,2.4,2.4,0,0,1-.972-2.431l1.884-9.724L551.691,15.8a2.318,2.318,0,0,1-.668-2.492,2.5,2.5,0,0,1,2.006-1.7l9.845-1.215L567.067,1.4a2.459,2.459,0,0,1,4.436,0l4.193,8.995,9.845,1.215a2.5,2.5,0,0,1,2.006,1.7,2.433,2.433,0,0,1-.669,2.492l-7.232,6.807,1.884,9.724a2.4,2.4,0,0,1-.972,2.431,2.521,2.521,0,0,1-2.613.182l-8.691-4.8-8.691,4.8A2.466,2.466,0,0,1,559.41,35.188Z" transform="translate(-518.502 0)" fill="#fcab32" fill-rule="evenodd"/>
  <path id="Trazado_3714" data-name="Trazado 3714" d="M269.663,813.962h-6.807a2.826,2.826,0,1,1,0-5.652h6.807V801.5a2.826,2.826,0,1,1,5.652,0v6.807h6.807a2.826,2.826,0,1,1,0,5.652h-6.807v6.807a2.826,2.826,0,1,1-5.652,0Zm46.492-6.381a6.29,6.29,0,1,1,6.321-6.321A6.316,6.316,0,0,1,316.156,807.58Zm0,19.326a6.29,6.29,0,1,1,6.321-6.32A6.316,6.316,0,0,1,316.156,826.906Zm9.663-9.663a6.29,6.29,0,1,1,6.321-6.321A6.316,6.316,0,0,1,325.819,817.243Zm-19.326,0a6.29,6.29,0,1,1,6.321-6.321A6.316,6.316,0,0,1,306.493,817.243Z" transform="translate(-245.286 -746.684)" fill="#fbfbfb" fill-rule="evenodd"/>
  <g id="_490735256" transform="translate(16.355 49.957)">
    <path id="Trazado_3715" data-name="Trazado 3715" d="M297.818,903.7a1.219,1.219,0,0,0,1.215-1.215v-8.387h8.448a1.215,1.215,0,1,0,0-2.431h-8.448v-8.448a1.215,1.215,0,0,0-2.431,0v8.448h-8.387a1.215,1.215,0,1,0,0,2.431H296.6v8.387A1.219,1.219,0,0,0,297.818,903.7Z" transform="translate(-287 -878.353)" fill="#fcbe37" fill-rule="evenodd"/>
    <path id="Trazado_3716" data-name="Trazado 3716" d="M1111.679,831.3a4.649,4.649,0,1,0-4.68-4.68A4.643,4.643,0,0,0,1111.679,831.3Z" transform="translate(-1057.165 -822)" fill="#fcbe37" fill-rule="evenodd"/>
    <path id="Trazado_3717" data-name="Trazado 3717" d="M1111.679,1148.359a4.68,4.68,0,1,0,0-9.359,4.68,4.68,0,0,0,0,9.359Z" transform="translate(-1057.165 -1119.734)" fill="#fcbe37" fill-rule="evenodd"/>
    <path id="Trazado_3718" data-name="Trazado 3718" d="M1270.68,990.3a4.649,4.649,0,1,0-4.68-4.68A4.682,4.682,0,0,0,1270.68,990.3Z" transform="translate(-1206.502 -971.337)" fill="#fcbe37" fill-rule="evenodd"/>
    <path id="Trazado_3719" data-name="Trazado 3719" d="M952.68,990.3a4.649,4.649,0,1,0-4.68-4.68A4.643,4.643,0,0,0,952.68,990.3Z" transform="translate(-907.828 -971.337)" fill="#fcbe37" fill-rule="evenodd"/>
  </g>
</svg>
