<svg id="icon_store_home" xmlns="http://www.w3.org/2000/svg" width="56.494" height="54.037" viewBox="0 0 56.494 54.037">
  <g id="Grupo_1115" data-name="Grupo 1115" transform="translate(14.737 41.756)">
    <ellipse id="Elipse_177" data-name="Elipse 177" cx="6.14" cy="6.14" rx="6.14" ry="6.14" transform="translate(24.562 0)" fill="#006a35"/>
    <ellipse id="Elipse_178" data-name="Elipse 178" cx="6.14" cy="6.14" rx="6.14" ry="6.14" transform="translate(0 0)" fill="#006a35"/>
  </g>
  <path id="Trazado_1779" data-name="Trazado 1779" d="M131.692,75.086a1.228,1.228,0,0,0-.921-.415H86.559a1.228,1.228,0,0,0-1.2,1.474l4.912,24.562a1.33,1.33,0,0,0,1.366.982l36.843-4.912a1.228,1.228,0,0,0,1.056-1.066l2.456-19.65A1.227,1.227,0,0,0,131.692,75.086Z" transform="translate(-75.506 -67.302)" fill="#45c481"/>
  <g id="Grupo_1116" data-name="Grupo 1116" transform="translate(17.199 12.253)">
    <path id="Trazado_1780" data-name="Trazado 1780" d="M153.063,134.811a1.228,1.228,0,0,1-1.211-1.027L149.4,119.047a1.228,1.228,0,0,1,2.422-.4l2.456,14.737a1.228,1.228,0,0,1-1.009,1.412A1.181,1.181,0,0,1,153.063,134.811Z" transform="translate(-149.385 -117.59)" fill="#fafafa"/>
    <path id="Trazado_1781" data-name="Trazado 1781" d="M215.747,133.263a1.228,1.228,0,0,1-1.228-1.118l-1.228-13.509A1.228,1.228,0,0,1,214.4,117.3h.01a1.228,1.228,0,0,1,1.334,1.113h0l1.228,13.509a1.228,1.228,0,0,1-1.113,1.334h0Z" transform="translate(-205.928 -117.27)" fill="#fafafa"/>
    <path id="Trazado_1782" data-name="Trazado 1782" d="M278.561,132.074a1.228,1.228,0,0,1-1.228-1.228V118.565a1.228,1.228,0,1,1,2.456,0v12.281A1.228,1.228,0,0,1,278.561,132.074Z" transform="translate(-262.602 -117.309)" fill="#fafafa"/>
    <path id="Trazado_1783" data-name="Trazado 1783" d="M331.83,130.8h-.138a1.228,1.228,0,0,1-1.092-1.351v-.013l1.228-11.053a1.245,1.245,0,0,1,1.363-1.093,1.228,1.228,0,0,1,1.086,1.356h0L333.051,129.7A1.228,1.228,0,0,1,331.83,130.8Z" transform="translate(-309.73 -117.26)" fill="#fafafa"/>
    <path id="Trazado_1784" data-name="Trazado 1784" d="M385.231,129.4a1.228,1.228,0,0,1-1.191-1.525l2.456-9.825a1.228,1.228,0,0,1,2.4.539q-.006.028-.014.055l-2.456,9.825A1.228,1.228,0,0,1,385.231,129.4Z" transform="translate(-356.99 -117.096)" fill="#fafafa"/>
  </g>
  <path id="Trazado_1785" data-name="Trazado 1785" d="M50.352,49.969H22.005a8.621,8.621,0,0,1-8.43-6.909L7.59,13.126H1.228a1.228,1.228,0,1,1,0-2.456H8.6a1.228,1.228,0,0,1,1.2.982l6.185,30.924a6.158,6.158,0,0,0,6.02,4.937H50.352a1.228,1.228,0,0,1,0,2.456Z" transform="translate(0 -10.67)" fill="#006a35"/>
</svg>
