<svg id="icon_red_home" xmlns="http://www.w3.org/2000/svg" width="67.856" height="67.856" viewBox="0 0 67.856 67.856">
  <g id="Grupo_1100" data-name="Grupo 1100" transform="translate(0 31.94)">
    <path id="Trazado_1755" data-name="Trazado 1755" d="M23.193,255.579H1.988A1.988,1.988,0,0,1,0,253.591a12.59,12.59,0,0,1,25.181,0A1.988,1.988,0,0,1,23.193,255.579Z" transform="translate(0 -241)" fill="#ff6c6c"/>
  </g>
  <path id="Trazado_1756" data-name="Trazado 1756" d="M105.6,255.579a1.988,1.988,0,0,0,1.988-1.988A12.6,12.6,0,0,0,95,241v14.578Z" transform="translate(-82.41 -209.06)" fill="#ff405c"/>
  <g id="Grupo_1101" data-name="Grupo 1101" transform="translate(42.675 31.94)">
    <path id="Trazado_1757" data-name="Trazado 1757" d="M345.193,255.579H323.988A1.988,1.988,0,0,1,322,253.591a12.59,12.59,0,0,1,25.181,0A1.988,1.988,0,0,1,345.193,255.579Z" transform="translate(-322 -241)" fill="#a2e786"/>
  </g>
  <path id="Trazado_1758" data-name="Trazado 1758" d="M427.6,255.579a1.988,1.988,0,0,0,1.988-1.988A12.6,12.6,0,0,0,417,241v14.578Z" transform="translate(-361.734 -209.06)" fill="#45c481"/>
  <g id="Grupo_1102" data-name="Grupo 1102" transform="translate(5.301 21.338)">
    <path id="Trazado_1759" data-name="Trazado 1759" d="M47.289,175.578a7.289,7.289,0,1,1,7.289-7.289A7.3,7.3,0,0,1,47.289,175.578Z" transform="translate(-40 -161)" fill="#ffdecf"/>
  </g>
  <path id="Trazado_1760" data-name="Trazado 1760" d="M95,161v14.578A7.289,7.289,0,1,0,95,161Z" transform="translate(-82.41 -139.662)" fill="#ffcdbe"/>
  <g id="Grupo_1103" data-name="Grupo 1103" transform="translate(47.976 21.338)">
    <path id="Trazado_1761" data-name="Trazado 1761" d="M369.289,175.578a7.289,7.289,0,1,1,7.289-7.289A7.3,7.3,0,0,1,369.289,175.578Z" transform="translate(-362 -161)" fill="#ffdecf"/>
  </g>
  <path id="Trazado_1762" data-name="Trazado 1762" d="M417,161v14.578A7.289,7.289,0,1,0,417,161Z" transform="translate(-361.734 -139.662)" fill="#ffcdbe"/>
  <g id="Grupo_1104" data-name="Grupo 1104" transform="translate(21.338 10.603)">
    <path id="Trazado_1763" data-name="Trazado 1763" d="M184.193,94.578H162.988A1.988,1.988,0,0,1,161,92.591a12.591,12.591,0,1,1,25.181,0A1.988,1.988,0,0,1,184.193,94.578Z" transform="translate(-161 -80)" fill="#ffc477"/>
  </g>
  <path id="Trazado_1764" data-name="Trazado 1764" d="M266.6,94.578a1.988,1.988,0,0,0,1.988-1.988A12.6,12.6,0,0,0,256,80V94.578Z" transform="translate(-222.072 -69.397)" fill="#ff9f22"/>
  <g id="Grupo_1105" data-name="Grupo 1105" transform="translate(26.639)">
    <path id="Trazado_1765" data-name="Trazado 1765" d="M208.289,14.578a7.289,7.289,0,1,1,7.289-7.289A7.3,7.3,0,0,1,208.289,14.578Z" transform="translate(-201)" fill="#ffdecf"/>
  </g>
  <path id="Trazado_1766" data-name="Trazado 1766" d="M263.289,7.289A7.3,7.3,0,0,0,256,0V14.578A7.3,7.3,0,0,0,263.289,7.289Z" transform="translate(-222.072)" fill="#ffcdbe"/>
  <g id="Grupo_1106" data-name="Grupo 1106" transform="translate(21.338 53.278)">
    <path id="Trazado_1767" data-name="Trazado 1767" d="M184.193,416.579H162.988A1.988,1.988,0,0,1,161,414.591a12.591,12.591,0,0,1,25.181,0A1.988,1.988,0,0,1,184.193,416.579Z" transform="translate(-161 -402)" fill="#fff48b"/>
  </g>
  <path id="Trazado_1768" data-name="Trazado 1768" d="M268.591,414.591A12.6,12.6,0,0,0,256,402v14.578h10.6A1.988,1.988,0,0,0,268.591,414.591Z" transform="translate(-222.072 -348.722)" fill="#ffdd54"/>
  <g id="Grupo_1107" data-name="Grupo 1107" transform="translate(26.639 42.675)">
    <path id="Trazado_1769" data-name="Trazado 1769" d="M208.289,336.579a7.289,7.289,0,1,1,7.289-7.289A7.3,7.3,0,0,1,208.289,336.579Z" transform="translate(-201 -322)" fill="#ffdecf"/>
  </g>
  <path id="Trazado_1770" data-name="Trazado 1770" d="M263.289,329.289A7.3,7.3,0,0,0,256,322v14.578A7.3,7.3,0,0,0,263.289,329.289Z" transform="translate(-222.072 -279.325)" fill="#ffcdbe"/>
  <g id="Grupo_1108" data-name="Grupo 1108" transform="translate(50.495 50.495)">
    <path id="Trazado_1771" data-name="Trazado 1771" d="M386.964,395.579h-3.976a1.988,1.988,0,1,1,0-3.976h3.976a1.99,1.99,0,0,0,1.988-1.988v-6.627a1.988,1.988,0,0,1,3.976,0v6.627A5.971,5.971,0,0,1,386.964,395.579Z" transform="translate(-381 -381)" fill="#002659"/>
  </g>
  <g id="Grupo_1109" data-name="Grupo 1109" transform="translate(5.434 50.495)">
    <path id="Trazado_1772" data-name="Trazado 1772" d="M50.94,395.579H46.964A5.971,5.971,0,0,1,41,389.615v-6.627a1.988,1.988,0,1,1,3.976,0v6.627a1.99,1.99,0,0,0,1.988,1.988H50.94a1.988,1.988,0,0,1,0,3.976Z" transform="translate(-41 -381)" fill="#145481"/>
  </g>
  <g id="Grupo_1110" data-name="Grupo 1110" transform="translate(47.844 2.783)">
    <path id="Trazado_1773" data-name="Trazado 1773" d="M373.591,35.578a1.988,1.988,0,0,1-1.988-1.988V26.964a1.99,1.99,0,0,0-1.988-1.988h-6.627a1.988,1.988,0,1,1,0-3.976h6.627a5.971,5.971,0,0,1,5.964,5.964v6.627A1.988,1.988,0,0,1,373.591,35.578Z" transform="translate(-361 -21)" fill="#002659"/>
  </g>
  <g id="Grupo_1111" data-name="Grupo 1111" transform="translate(5.434 2.783)">
    <path id="Trazado_1774" data-name="Trazado 1774" d="M42.988,35.578A1.988,1.988,0,0,1,41,33.591V26.964A5.971,5.971,0,0,1,46.964,21h6.627a1.988,1.988,0,0,1,0,3.976H46.964a1.99,1.99,0,0,0-1.988,1.988v6.627A1.988,1.988,0,0,1,42.988,35.578Z" transform="translate(-41 -21)" fill="#145481"/>
  </g>
</svg>
