<svg id="icon_sust_home" xmlns="http://www.w3.org/2000/svg" width="69.005" height="69.045" viewBox="0 0 69.005 69.045">
  <path id="Trazado_1722" data-name="Trazado 1722" d="M95.325,148.781A22.662,22.662,0,1,0,72.662,171.5,22.692,22.692,0,0,0,95.325,148.781Zm0,0" transform="translate(-43.257 -109.059)" fill="#89c8fd"/>
  <path id="Trazado_1723" data-name="Trazado 1723" d="M196.1,126.059a22.76,22.76,0,0,0-3.422.258,22.735,22.735,0,0,1,0,44.93,22.719,22.719,0,1,0,3.422-45.187Zm0,0" transform="translate(-166.693 -109.059)" fill="#60b6ff"/>
  <g id="Grupo_1098" data-name="Grupo 1098" transform="translate(6.743 17.045)">
    <path id="Trazado_1724" data-name="Trazado 1724" d="M165.29,135.183c-3.491,2.188-6.11,5.688-4.146,9.626s6.328,2.406,10.364,1.859.982,11.923,3.382,14.986,9.164-3.063,8.51-7c-.969-5.83-1.309-7.876,6.546-12.032l.021-.008A22.687,22.687,0,0,0,169.655,126.4v.034S168.781,133,165.29,135.183Zm0,0" transform="translate(-145.573 -126.398)" fill="#baeb6c"/>
    <path id="Trazado_1725" data-name="Trazado 1725" d="M323.34,163.238l0,0Zm0,0" transform="translate(-286.479 -158.27)" fill="#baeb6c"/>
    <path id="Trazado_1726" data-name="Trazado 1726" d="M343.891,182.895h0Zm0,0" transform="translate(-304.258 -175.276)" fill="#baeb6c"/>
    <path id="Trazado_1727" data-name="Trazado 1727" d="M57.607,254.043c-1.048-1.6,1.855-5.359,2.509-8.2s-3.273-2.625-4.473-3.61-2.837-5.25-4.037-6.235l-.192-.151a22.785,22.785,0,0,0,7.822,26.223l.007-.476A10.46,10.46,0,0,0,57.607,254.043Zm0,0" transform="translate(-50 -221.085)" fill="#baeb6c"/>
    <path id="Trazado_1728" data-name="Trazado 1728" d="M318.331,335.378l-.014-.085a22.584,22.584,0,0,1-1.883,4.988C317.723,338.759,318.584,336.9,318.331,335.378Zm0,0" transform="translate(-280.504 -307.123)" fill="#baeb6c"/>
  </g>
  <path id="Trazado_1729" data-name="Trazado 1729" d="M226.9,126.4v.034s-.073.548-.26,1.379A22.732,22.732,0,0,1,241.2,146.988c1-1.37,2.833-2.7,5.986-4.366l.021-.008A22.687,22.687,0,0,0,226.9,126.4Zm0,0" transform="translate(-196.074 -109.353)" fill="#96d629"/>
  <path id="Trazado_1730" data-name="Trazado 1730" d="M29.374,138.395a29.649,29.649,0,0,1-4.837-.4A29.3,29.3,0,0,1,.4,104.31a1.026,1.026,0,1,1,2.025.335,27.252,27.252,0,0,0,53.776,8.88A27.251,27.251,0,0,0,33.753,82.2a1.026,1.026,0,1,1,.334-2.025,29.308,29.308,0,0,1-4.713,58.222Zm0,0" transform="translate(0 -69.349)" fill="#09a66d"/>
  <path id="Trazado_1731" data-name="Trazado 1731" d="M57.683,24.8C46.724,22.939,39.926,9.14,39.926,9.14S50.9-1.643,61.855.216,79.612,15.873,79.612,15.873,68.642,26.657,57.683,24.8Zm0,0" transform="translate(-34.542 0)" fill="#49cb5c"/>
  <path id="Trazado_1732" data-name="Trazado 1732" d="M162.749.218a17.008,17.008,0,0,0-6.2.156c10.5,2.358,16.979,15.5,16.979,15.5s-7.181,7.058-15.727,8.769c.258.058.517.111.779.156,10.959,1.859,21.929-8.925,21.929-8.925s-6.8-13.8-17.758-15.657Zm0,0" transform="translate(-135.436 -0.002)" fill="#07b128"/>
  <path id="Trazado_1733" data-name="Trazado 1733" d="M78.993,14.913,68.276,13.105,58.265.215a18.85,18.85,0,0,0-2.37.3L65.284,12.6,57.2,11.237l-6.9-8.921c-.647.292-1.276.6-1.882.923l5.793,7.495L40.855,8.478c-.6.524-.929.848-.929.848s.22.446.643,1.186l13.29,2.242-7.371,5.7c.475.489.972.972,1.493,1.441l8.633-6.675,8.555,1.443-11.635,9a17.09,17.09,0,0,0,2.238.864l12.152-9.4,10.724,1.809c.622-.542.965-.878.965-.878S79.4,15.629,78.993,14.913Zm0,0" transform="translate(-34.542 -0.186)" fill="#09a66d"/>
  <path id="Trazado_1734" data-name="Trazado 1734" d="M383.886,24.912c2.94-6.957,13.126-9.3,13.126-9.3s5.42,8.937,2.48,15.893-13.126,9.3-13.126,9.3S380.946,31.868,383.886,24.912Zm0,0" transform="translate(-331.361 -13.508)" fill="#49cb5c"/>
  <path id="Trazado_1735" data-name="Trazado 1735" d="M412.348,15.613a27.227,27.227,0,0,0-5.059,1.845c1.407,2.98,3.637,9.029,1.516,14.049-1.538,3.639-5.059,6.015-8.067,7.454.543,1.15.964,1.845.964,1.845s10.186-2.342,13.126-9.3S412.348,15.613,412.348,15.613Zm0,0" transform="translate(-346.697 -13.508)" fill="#07b128"/>
  <path id="Trazado_1736" data-name="Trazado 1736" d="M416.7,25.769l-7.833,3.286,5.143-12.3c-.368-.727-.623-1.146-.623-1.146s-.485.112-1.273.358L406.8,28.678l-3.3-8.11a14.136,14.136,0,0,0-1.563,1.608l3.735,9.19-3.508,8.387c.342.668.575,1.052.575,1.052s.527-.121,1.374-.39l3.623-8.66L416.7,28A14.708,14.708,0,0,0,416.7,25.769Zm0,0" transform="translate(-347.738 -13.508)" fill="#09a66d"/>
</svg>
