<svg id="icon_bienestar_home" xmlns="http://www.w3.org/2000/svg" width="74.664" height="72.693" viewBox="0 0 74.664 72.693">
  <path id="Trazado_1737" data-name="Trazado 1737" d="M74.664,26.39A19.726,19.726,0,0,0,54.889,6.759c-8.814,0-13.748,4.173-17.7,10.744C33.2,10.785,28.439,6.759,19.755,6.759A19.716,19.716,0,0,0,0,26.39c0,9.533,4.6,19.077,14.924,30.947l1.723-1.5c3.556,2.893,4.186,4.317,9.081,6.108a46.01,46.01,0,0,0,12.921,2.679,25.127,25.127,0,0,0,11.22-1.441,14.031,14.031,0,0,0,4.192-2.615,14.7,14.7,0,0,0,3.078-4.524c.92-1.891,1.707-4.148,3.323-5.572a20.233,20.233,0,0,1,2.833-1.822l2.068,1.518c6.26-8.531,9.3-16.31,9.3-23.78Z" transform="translate(0 -6.759)" fill="#ff5c5c"/>
  <path id="Trazado_1738" data-name="Trazado 1738" d="M272.668,6.759c-8.814,0-13.748,4.173-17.7,10.744l-.012-.019V64.511q.733.069,1.468.116a25.128,25.128,0,0,0,11.22-1.441,14.03,14.03,0,0,0,4.192-2.615,14.693,14.693,0,0,0,3.078-4.524c.92-1.891,1.707-4.148,3.323-5.572a20.235,20.235,0,0,1,2.833-1.822l2.068,1.518c6.26-8.531,9.3-16.31,9.3-23.78A19.726,19.726,0,0,0,272.668,6.759Z" transform="translate(-217.779 -6.759)" fill="#ff3838"/>
  <g id="Grupo_1099" data-name="Grupo 1099" transform="translate(13.59 25.164)">
    <path id="Trazado_1739" data-name="Trazado 1739" d="M217.771,184.784H212.3v-5.469h-4.375v5.469h-5.469v4.375h5.469v5.469H212.3v-5.469h5.469Z" transform="translate(-186.524 -179.315)" fill="#e4f3ff"/>
    <path id="Trazado_1740" data-name="Trazado 1740" d="M257.146,184.784v-5.469h-2.187v15.312h2.187v-5.469h5.469v-4.375Z" transform="translate(-231.368 -179.315)" fill="#c3dafd"/>
    <path id="Trazado_1741" data-name="Trazado 1741" d="M113.555,353.6c-13.008,0-21.847-9.871-20.158-22.877l.293-2.56a37.529,37.529,0,0,1,5.191-.45c13.093,0,21.86,9.921,20.178,22.875l-.294,2.556-1.693.222a26.943,26.943,0,0,1-3.517.234Z" transform="translate(-93.19 -306.076)" fill="#b6dc45"/>
    <path id="Trazado_1742" data-name="Trazado 1742" d="M185.461,416.216l-.944-.942h0l-10.524-10.508-3.091,3.1L182.36,419.3c.934-.086,1.259-.146,1.992-.237l.883-.885C185.3,417.619,185.449,416.32,185.461,416.216Z" transform="translate(-159.571 -371.888)" fill="#98b939"/>
    <path id="Trazado_1743" data-name="Trazado 1743" d="M243.09,315.792l-1.693-.222-.324-2.811c-2.124-16.338,8.882-28.849,25.445-28.849a44.066,44.066,0,0,1,6.13.512l.322,2.816C275.3,305.138,261.882,318.258,243.09,315.792Z" transform="translate(-219.284 -268.656)" fill="#45c481"/>
    <path id="Trazado_1744" data-name="Trazado 1744" d="M257.262,382.2l-14.6,14.582.316,2.743c1.489.192,1.91.261,2.78.348l14.6-14.577Z" transform="translate(-220.865 -352.613)" fill="#91d9a1"/>
  </g>
</svg>
