<svg id="icon_juego_home" xmlns="http://www.w3.org/2000/svg" width="81.008" height="81.008" viewBox="0 0 81.008 81.008">
  <path id="Trazado_1745" data-name="Trazado 1745" d="M23.8,37.859A26.118,26.118,0,0,1,0,11.866V7.12a7.12,7.12,0,0,1,14.24,0,2.375,2.375,0,0,0,2.373,2.373h4.9a2.373,2.373,0,1,1,0,4.747h-4.9a7.128,7.128,0,0,1-7.12-7.12,2.373,2.373,0,0,0-4.747,0v4.747A21.389,21.389,0,0,0,24.241,33.131a2.374,2.374,0,0,1-.445,4.728Z" transform="translate(0 0)" fill="#ffbe40"/>
  <path id="Trazado_1746" data-name="Trazado 1746" d="M346.2,35.717a2.377,2.377,0,0,1,2.141-2.587,21.252,21.252,0,0,0,19.336-21.264V7.12a2.373,2.373,0,0,0-4.747,0,7.128,7.128,0,0,1-7.12,7.12h-4.747a2.373,2.373,0,0,1,0-4.747h4.747a2.375,2.375,0,0,0,2.373-2.373,7.12,7.12,0,0,1,14.24,0v4.747a25.981,25.981,0,0,1-23.638,25.992,2.377,2.377,0,0,1-2.586-2.141Z" transform="translate(-291.415 0)" fill="#ff9f40"/>
  <path id="Trazado_1747" data-name="Trazado 1747" d="M161.5,0H123.373A2.372,2.372,0,0,0,121,2.373V26.106a21.309,21.309,0,0,0,14.24,20.069v18.22h14.24V46.174a21.453,21.453,0,0,0,14.4-20.069V2.373A2.372,2.372,0,0,0,161.5,0Z" transform="translate(-101.856 0)" fill="#ffdf40"/>
  <path id="Trazado_1748" data-name="Trazado 1748" d="M263.12,46.174a21.453,21.453,0,0,0,14.4-20.069V2.373A2.372,2.372,0,0,0,275.144,0H256V64.395h7.12Z" transform="translate(-215.496 0)" fill="#ffbe40"/>
  <path id="Trazado_1749" data-name="Trazado 1749" d="M203.017,69.374a2.374,2.374,0,0,0-1.917-1.615l-5.581-.811-2.5-5.057a2.469,2.469,0,0,0-4.255,0l-2.5,5.057-5.581.811a2.372,2.372,0,0,0-1.316,4.047l4.04,3.938-.953,5.558a2.372,2.372,0,0,0,3.442,2.5L190.9,81.18l4.992,2.621a2.372,2.372,0,0,0,3.442-2.5l-.953-5.558,4.04-3.938A2.373,2.373,0,0,0,203.017,69.374Z" transform="translate(-150.392 -51.074)" fill="#ffbe40"/>
  <path id="Trazado_1750" data-name="Trazado 1750" d="M263.492,83.621a2.372,2.372,0,0,0,.943-2.32l-.953-5.558,4.04-3.938a2.372,2.372,0,0,0-1.316-4.047l-5.581-.811-2.5-5.057A2.316,2.316,0,0,0,256,60.674V81.18l4.992,2.621A2.366,2.366,0,0,0,263.492,83.621Z" transform="translate(-215.497 -51.074)" fill="#ff9f40"/>
  <path id="Trazado_1751" data-name="Trazado 1751" d="M161.346,401.493h-2.373v-7.12A2.372,2.372,0,0,0,156.6,392H128.12a2.372,2.372,0,0,0-2.373,2.373v7.12h-2.373A2.372,2.372,0,0,0,121,403.866v4.747a2.372,2.372,0,0,0,2.373,2.373h37.972a2.372,2.372,0,0,0,2.373-2.373v-4.747A2.372,2.372,0,0,0,161.346,401.493Z" transform="translate(-101.856 -329.979)" fill="#4d6699"/>
  <path id="Trazado_1752" data-name="Trazado 1752" d="M277.359,408.613v-4.747a2.372,2.372,0,0,0-2.373-2.373h-2.373v-7.12A2.372,2.372,0,0,0,270.24,392H256v18.986h18.986A2.372,2.372,0,0,0,277.359,408.613Z" transform="translate(-215.496 -329.979)" fill="#404b80"/>
  <path id="Trazado_1753" data-name="Trazado 1753" d="M222.866,437h-9.493a2.373,2.373,0,0,0,0,4.747h9.493a2.373,2.373,0,1,0,0-4.747Z" transform="translate(-177.616 -367.859)" fill="#404b80"/>
  <path id="Trazado_1754" data-name="Trazado 1754" d="M263.12,439.373A2.372,2.372,0,0,0,260.747,437H256v4.747h4.747A2.372,2.372,0,0,0,263.12,439.373Z" transform="translate(-215.496 -367.859)" fill="#336"/>
</svg>
