<svg id="ilus_distribuimos_home" xmlns="http://www.w3.org/2000/svg" xmlns:xlink="http://www.w3.org/1999/xlink" width="351.888" height="350.455" viewBox="0 0 351.888 350.455">
  <defs>
    <linearGradient id="linear-gradient" x1="0.5" x2="0.5" y2="1" gradientUnits="objectBoundingBox">
      <stop offset="0" stop-color="#0fb382"/>
      <stop offset="1" stop-color="#a9e95b"/>
    </linearGradient>
    <linearGradient id="linear-gradient-2" x1="0" y1="0.5" x2="1" y2="0.5" xlink:href="#linear-gradient"/>
    <linearGradient id="linear-gradient-3" x1="0.892" y1="0.114" x2="-2.349" y2="2.455" gradientUnits="objectBoundingBox">
      <stop offset="0" stop-color="#fff"/>
      <stop offset="1" stop-color="#e9effd"/>
    </linearGradient>
    <linearGradient id="linear-gradient-5" x1="0" y1="0.5" x2="1" y2="0.5" xlink:href="#linear-gradient"/>
    <linearGradient id="linear-gradient-6" x1="0.174" y1="-0.919" x2="1.483" y2="4.845" xlink:href="#linear-gradient-3"/>
    <linearGradient id="linear-gradient-7" x1="1.1" y1="2.352" x2="-0.276" y2="-1.791" gradientUnits="objectBoundingBox">
      <stop offset="0" stop-color="#53d8ff"/>
      <stop offset="1" stop-color="#3840f7"/>
    </linearGradient>
    <linearGradient id="linear-gradient-8" x1="-0.446" y1="1.437" x2="1.056" y2="0.059" gradientUnits="objectBoundingBox">
      <stop offset="0" stop-color="#febbba"/>
      <stop offset="1" stop-color="#ff928e"/>
    </linearGradient>
    <linearGradient id="linear-gradient-9" x1="7.787" y1="-2.961" x2="6.864" y2="-3.706" xlink:href="#linear-gradient-8"/>
    <linearGradient id="linear-gradient-10" x1="29.054" y1="-12.999" x2="25.511" y2="-16.079" xlink:href="#linear-gradient-8"/>
    <linearGradient id="linear-gradient-11" x1="1.419" y1="1.181" x2="0.159" y2="0.404" gradientUnits="objectBoundingBox">
      <stop offset="0" stop-color="#aa80f9"/>
      <stop offset="1" stop-color="#6165d7"/>
    </linearGradient>
    <linearGradient id="linear-gradient-12" x1="0.492" y1="1.436" x2="0.47" y2="3.771" gradientUnits="objectBoundingBox">
      <stop offset="0" stop-color="#aa80f9"/>
      <stop offset="0.875" stop-color="#6165d7"/>
      <stop offset="1" stop-color="#6165d7"/>
    </linearGradient>
    <linearGradient id="linear-gradient-13" x1="-2.788" y1="7.919" x2="-0.459" y2="2.602" xlink:href="#linear-gradient-11"/>
    <linearGradient id="linear-gradient-14" x1="-112.048" y1="25.669" x2="-104.365" y2="22.504" xlink:href="#linear-gradient-8"/>
    <linearGradient id="linear-gradient-15" x1="-41.573" y1="12.637" x2="-38.708" y2="11.104" xlink:href="#linear-gradient-8"/>
    <linearGradient id="linear-gradient-16" x1="-127.327" y1="-11.17" x2="-127.856" y2="-13.697" xlink:href="#linear-gradient-8"/>
  </defs>
  <g id="Capa_1" data-name="Capa 1">
    <path id="Trazado_2131" data-name="Trazado 2131" d="M334.66,237.6c-35.4,82.708-128.79,118.236-201.981,112.18C112.7,348.122,72.491,344.8,41.1,315.108c-60.287-57.011-51-176.184,6.729-246.349C55.241,59.725,106.688-.809,186.853-.009c58.715.592,99.911,33.747,104.9,37.881a161.709,161.709,0,0,1,32.866,37.289C354.187,121.39,356.773,185.911,334.66,237.6Z" transform="translate(-0.002 0.017)" fill="#9cdfbc"/>
    <path id="Trazado_2132" data-name="Trazado 2132" d="M501.616,237.993s-1.136-47.943,20.943-60.775,64.066-20.834,65.638-89.693c.947-40.3,1.918-57.925,2.59-65.6a4.536,4.536,0,0,0-5.36-4.858C564.512,21,496.578,37.215,482.334,83.586,465.444,138.561,501.616,237.993,501.616,237.993Z" transform="translate(-251.579 -8.934)" fill="url(#linear-gradient)"/>
    <path id="Trazado_2133" data-name="Trazado 2133" d="M588.4,57.336c-22.956,20.475-49.5,56.712-63.649,92.946-1.813,5.971-7.126,18.671-9.432,41.233-2.064,18.817-1.037,38.7,1.458,51.868a1.534,1.534,0,0,0,1.795,1.217,1.562,1.562,0,0,0,1.226-1.761,210.735,210.735,0,0,1,4.872-75.762c8.353-31.01,26.99-61.083,46.253-86.582l1.984-2.51c14.93-19.172,18.069-19.315,16.677-20.65a.881.881,0,0,0-1.184,0Z" transform="translate(-270.731 -30.059)" fill="#fff"/>
    <path id="Trazado_2134" data-name="Trazado 2134" d="M520.772,401.539c-1.7-1.127,2.282-11.26,2.619-12.733q1.894-8.154,3.2-16.431c4.617-29.1,4.674-65.567,21.256-79.616,13.8-11.7,60.747-4.314,76.107-1.506a2.306,2.306,0,0,1,1.075,4.03c-7.368,6.184-23.126,20.782-27.236,35.49-5.412,19.386-23.841,31.725-40.343,35.04-10.417,2.107-19.475,5.157-25.678,14.324-3.315,4.91-4.513,16.573-8.211,19.992C522.079,401.492,521.232,401.842,520.772,401.539Z" transform="translate(-273.96 -150.76)" fill="url(#linear-gradient-2)"/>
    <path id="Trazado_2135" data-name="Trazado 2135" d="M609.905,314c-19.6.824-40.637,9.764-51.314,26.517l-1.018,1.61c-2.325,3.75-15.517,30.428-22.842,52.56a.526.526,0,0,0,.332.663.535.535,0,0,0,.658-.313c5.1-12.491,12.434-28.33,18.277-40.173,6.26-12.927,10.64-21.677,24.921-30.063a79.654,79.654,0,0,1,31.039-9.944.426.426,0,0,0,.379-.473.431.431,0,0,0-.431-.384Z" transform="translate(-281.516 -165.31)" fill="url(#linear-gradient-3)"/>
    <path id="Trazado_2136" data-name="Trazado 2136" d="M162.967,193.641s-11.009-42.143-33.51-47.825-61.149-2.173-79.763-61.9C38.793,48.95,33.513,33.812,31,27.268a4.12,4.12,0,0,1,3.461-5.583c19.253-1.8,82.642-4.65,106.72,32.279C169.672,97.745,162.967,193.641,162.967,193.641Z" transform="translate(-16.179 -10.928)" fill="url(#linear-gradient)"/>
    <path id="Trazado_2137" data-name="Trazado 2137" d="M77.278,49.385c25.177,12.131,57.432,37.128,78.863,65.231,3.078,4.759,10.891,14.518,18.566,33.648,6.511,15.915,10.6,33.539,11.71,45.661a1.392,1.392,0,0,1-1.26,1.515,1.421,1.421,0,0,1-1.515-1.231,191.275,191.275,0,0,0-23.2-64.923C145.365,104.293,121.566,82.7,98.35,65.262l-2.368-1.7C78.15,50.55,75.37,51.217,76.251,49.7A.8.8,0,0,1,77.278,49.385Z" transform="translate(-40.071 -25.953)" fill="#fff"/>
    <path id="Trazado_2138" data-name="Trazado 2138" d="M246.855,373.162c2.974.53-34.183-25.982-58.2-77.462-11.317-24.263-20.5-56.092-38.5-64.208-14.982-6.762-54.137,11.445-66.85,17.742a2.093,2.093,0,0,0,.076,3.788c7.983,3.561,25.4,12.359,32.672,24.173,9.579,15.579,28.761,21.729,44.008,20.513s24.073-.687,37.7,20.361S238.4,371.651,246.855,373.162Z" transform="translate(-43.246 -121.09)" fill="url(#linear-gradient-5)"/>
    <path id="Trazado_2139" data-name="Trazado 2139" d="M128.5,272.2c17.321-4.191,37.933-1.653,51.456,10.323l1.283,1.146c2.969,2.694,21.171,22.686,33.108,40.163a.479.479,0,0,1-.781.554c-7.576-9.631-17.956-21.625-26.019-30.508-8.7-9.721-14.721-16.265-29.3-20.011a72.244,72.244,0,0,0-29.594-.919.384.384,0,0,1-.156-.748Z" transform="translate(-67.509 -142.31)" fill="url(#linear-gradient-6)"/>
    <path id="Trazado_2140" data-name="Trazado 2140" d="M459.208,178.52s14.679,34.808,51.49,38.71l-.975,6.416s-48.095,8.339-73.513-33.894Z" transform="translate(-229.66 -93.981)" fill="url(#linear-gradient-7)"/>
    <path id="Trazado_2141" data-name="Trazado 2141" d="M307.233,235.227s-15.323-61.149,17.544-112.753a3.9,3.9,0,0,1,3.471-1.809c7.747.379,34.339,3.641,64.256,29.689,0,0-31.441,26.649-35.22,86.179C357.284,236.529,328.148,237.779,307.233,235.227Z" transform="translate(-159.877 -63.519)" fill="#016631"/>
    <path id="Trazado_2142" data-name="Trazado 2142" d="M424,97.28l-15.555,17.2a4.067,4.067,0,0,0,.057,5.583c2.595,2.761,7.193,6.326,13.206,5.644a6.241,6.241,0,0,0,4.655-2.959l9.428-15.891Z" transform="translate(-214.475 -51.209)" fill="url(#linear-gradient-8)"/>
    <path id="Trazado_2143" data-name="Trazado 2143" d="M467.264,64.109s-1.581,28.884-14.272,30.433S439.62,67.674,439.62,67.674,451.8,42.19,467.264,64.109Z" transform="translate(-231.456 -29.061)" fill="url(#linear-gradient-9)"/>
    <path id="Trazado_2144" data-name="Trazado 2144" d="M443.255,92.059s.445-8.94-4.655-7.207c-6.568,2.24,1.7,9.3,1.7,9.3Z" transform="translate(-229.584 -44.548)" fill="url(#linear-gradient-10)"/>
    <path id="Trazado_2145" data-name="Trazado 2145" d="M439.383,59.686s-1.97,5.938,0,4.593,3.551-15.943,12.354-11.473,25.248,7.174,21.635-9.8-13.817-2.334-28.326-6.269-12.6,9.835-11.094,12.311c-4.262,2.088-3.959,7.363,0,10.63C435.116,58.819,437.413,56.689,439.383,59.686Z" transform="translate(-226.848 -18.208)" fill="#00441f"/>
    <path id="Trazado_2146" data-name="Trazado 2146" d="M505.2,62.8a.183.183,0,0,1-.033-.365,7.7,7.7,0,0,0,4.683-3.315c1.42-2.311,1.567-5.46.431-9.352a.182.182,0,0,1,.35-.1c1.174,4,1.013,7.245-.474,9.65a7.922,7.922,0,0,1-4.929,3.495Z" transform="translate(-265.886 -26.075)" fill="#91b3fa"/>
    <path id="Trazado_2147" data-name="Trazado 2147" d="M301.17,122.165s-50.666,49.378-38.075,63.848,54.411,32.2,54.411,32.2l-1.331-9.7s-35.788-27.1-31.186-31.408c2.4-2.23,9.915-9.47,16.573-15.924a31.22,31.22,0,0,0,7.917-32.672C307.69,123.434,305.052,120.044,301.17,122.165Z" transform="translate(-137.459 -63.972)" fill="#008944"/>
    <path id="Trazado_2148" data-name="Trazado 2148" d="M334.4,511.87c-101.772-55.429-208.492-51.471-319.753,4.2A6.956,6.956,0,0,1,4.59,509.834V422.116a19.8,19.8,0,0,1,9.594-16.966c111-66.708,220.571-66.959,325.127.531a21.976,21.976,0,0,1,10.029,18.178l1.037,78.385A10.806,10.806,0,0,1,334.4,511.87Z" transform="translate(-2.417 -186.944)" fill="url(#linear-gradient-11)"/>
    <path id="Trazado_2149" data-name="Trazado 2149" d="M337.631,514.571c-99.972-53.194-204.8-49.4-314.1,4.03a6.83,6.83,0,0,1-9.882-5.985V428.458a18.908,18.908,0,0,1,9.428-16.279c109.031-64.042,216.669-64.289,319.355.483a20.986,20.986,0,0,1,9.854,17.444l1.037,75.227C353.432,513.259,344.762,518.364,337.631,514.571Z" transform="translate(-7.187 -191.695)" fill="url(#linear-gradient-12)"/>
    <path id="Trazado_2150" data-name="Trazado 2150" d="M368.19,429.8,357,441.164a3.788,3.788,0,0,0-1.018,3.352l3.012,15.664a3.788,3.788,0,0,1-5.389,4.058l-14.262-7.1a3.788,3.788,0,0,0-3.509.071l-13.964,7.7a3.788,3.788,0,0,1-5.545-3.859l2.368-15.773a3.788,3.788,0,0,0-1.151-3.315L305.9,431.069a3.788,3.788,0,0,1,1.96-6.468l15.73-2.6a3.788,3.788,0,0,0,2.8-2.121l6.771-14.437a3.788,3.788,0,0,1,6.757-.133l7.344,14.158a3.788,3.788,0,0,0,2.874,2l15.825,1.979a3.788,3.788,0,0,1,2.23,6.354Z" transform="translate(-160.437 -212.322)" fill="#e8d256"/>
    <path id="Trazado_2151" data-name="Trazado 2151" d="M343.965,478.893a7.317,7.317,0,0,0-2.339.814l-9.12,5.033a2.841,2.841,0,0,1-4.2-2.926l1.558-10.3A7.41,7.41,0,0,0,327.6,465l-7.6-7.1a2.841,2.841,0,0,1,1.482-4.9l5.251-.867.133.8-5.251.871a2.041,2.041,0,0,0-1.061,3.509l7.6,7.1a8.235,8.235,0,0,1,2.51,7.231l-1.553,10.3a2.046,2.046,0,0,0,3.007,2.1l9.12-5.033a8.3,8.3,0,0,1,2.595-.9Z" transform="translate(-167.99 -238.033)" fill="#fff" opacity="0.62"/>
    <path id="Trazado_2152" data-name="Trazado 2152" d="M380.087,464.8a2.869,2.869,0,0,1-3.944,1.52l-7.1-3.57.36-.724,7.126,3.57a2.046,2.046,0,0,0,2.922-2.216l-1.96-10.228a8.3,8.3,0,0,1,2.216-7.325l7.292-7.41a2.046,2.046,0,0,0-1.2-3.466l-10.332-1.293a8.215,8.215,0,0,1-6.279-4.37l-4.8-9.252a2.046,2.046,0,0,0-3.665.071l-4.432,9.432a8.2,8.2,0,0,1-1.894,2.566l-.545-.6a7.387,7.387,0,0,0,1.7-2.315l4.423-9.428a2.841,2.841,0,0,1,5.119-.1l4.792,9.248a7.406,7.406,0,0,0,5.682,3.94l10.332,1.307a2.841,2.841,0,0,1,1.676,4.839l-7.311,7.415a7.477,7.477,0,0,0-2,6.605l1.96,10.228A2.841,2.841,0,0,1,380.087,464.8Z" transform="translate(-186.299 -220.118)" fill="#fff" opacity="0.62"/>
    <rect id="Rectángulo_625" data-name="Rectángulo 625" width="3.154" height="0.81" transform="translate(158.731 214.08) rotate(-9.4)" fill="#fff" opacity="0.62"/>
    <path id="Trazado_2153" data-name="Trazado 2153" d="M225.176,445.993,217.557,460a3.76,3.76,0,0,0-.047,3.5l7.221,14.205a3.788,3.788,0,0,1-4.053,5.408L205,480.223a3.788,3.788,0,0,0-3.352,1.037l-11.289,11.26a3.788,3.788,0,0,1-6.4-2.178l-2.069-15.815a3.788,3.788,0,0,0-2.017-2.841l-14.205-7.259a3.788,3.788,0,0,1,.095-6.762l14.4-6.852a3.788,3.788,0,0,0,2.112-2.832l2.514-15.749a3.788,3.788,0,0,1,6.459-2l10.957,11.592a3.788,3.788,0,0,0,3.315,1.132l15.754-2.472a3.788,3.788,0,0,1,3.9,5.507Z" transform="translate(-86.154 -225.897)" fill="#e8d256"/>
    <path id="Trazado_2154" data-name="Trazado 2154" d="M208.93,507.471a7.51,7.51,0,0,0-2.022,1.42l-7.373,7.354a2.841,2.841,0,0,1-4.849-1.652l-1.354-10.327a7.387,7.387,0,0,0-3.973-5.635l-9.276-4.735a2.841,2.841,0,0,1,.076-5.119l4.806-2.287.346.729-4.806,2.287a2.046,2.046,0,0,0-.052,3.67l9.276,4.735a8.225,8.225,0,0,1,4.408,6.255l1.354,10.327a2.046,2.046,0,0,0,3.471,1.184l7.373-7.354a8.3,8.3,0,0,1,2.244-1.591Z" transform="translate(-93.986 -256.124)" fill="#fff" opacity="0.62"/>
    <path id="Trazado_2155" data-name="Trazado 2155" d="M242.864,483.515a2.87,2.87,0,0,1-3.371,2.548l-7.832-1.458.147-.8,7.837,1.458a2.046,2.046,0,0,0,2.2-2.936l-4.735-9.29a8.305,8.305,0,0,1,.109-7.652l4.977-9.148a2.046,2.046,0,0,0-2.112-3l-10.294,1.615a8.211,8.211,0,0,1-7.24-2.467l-7.164-7.576a2.046,2.046,0,0,0-3.5,1.084l-1.643,10.285a8.278,8.278,0,0,1-1.1,2.993l-.691-.426a7.326,7.326,0,0,0,.994-2.694l1.643-10.285a2.841,2.841,0,0,1,4.891-1.51l7.164,7.576a7.41,7.41,0,0,0,6.549,2.24l10.275-1.634a2.841,2.841,0,0,1,2.95,4.186l-4.977,9.148a7.477,7.477,0,0,0-.095,6.9l4.711,9.286A2.841,2.841,0,0,1,242.864,483.515Z" transform="translate(-109.742 -233.412)" fill="#fff" opacity="0.62"/>
    <rect id="Rectángulo_626" data-name="Rectángulo 626" width="3.154" height="0.81" transform="translate(90.98 230.368) rotate(-25.45)" fill="#fff" opacity="0.62"/>
    <path id="Trazado_2156" data-name="Trazado 2156" d="M81.85,489.948l-7.624,14.011a3.788,3.788,0,0,0-.047,3.509L81.4,521.673a3.788,3.788,0,0,1-4.053,5.412l-15.678-2.926a3.76,3.76,0,0,0-3.348,1.037L47.028,536.47a3.788,3.788,0,0,1-6.4-2.178l-2.069-15.815a3.788,3.788,0,0,0-2.022-2.841l-14.205-7.259a3.788,3.788,0,0,1,.095-6.757l14.4-6.856a3.755,3.755,0,0,0,2.107-2.8l2.533-15.773a3.788,3.788,0,0,1,6.454-2l10.971,11.577a3.788,3.788,0,0,0,3.315,1.132l15.754-2.472a3.788,3.788,0,0,1,3.888,5.521Z" transform="translate(-10.692 -249.041)" fill="#e8d256"/>
    <path id="Trazado_2157" data-name="Trazado 2157" d="M65.6,551.426a7.461,7.461,0,0,0-2.022,1.42L56.2,560.21a2.841,2.841,0,0,1-4.849-1.648L50,548.225a7.42,7.42,0,0,0-3.978-5.639l-9.271-4.735a2.841,2.841,0,0,1,.071-5.123l4.806-2.287.346.734-4.806,2.287a2.046,2.046,0,0,0-.052,3.665l9.276,4.735a8.215,8.215,0,0,1,4.408,6.25l1.335,10.346a2.046,2.046,0,0,0,3.471,1.179l7.373-7.354a8.183,8.183,0,0,1,2.244-1.586Z" transform="translate(-18.522 -279.263)" fill="#fff" opacity="0.62"/>
    <path id="Trazado_2158" data-name="Trazado 2158" d="M99.529,527.459a2.888,2.888,0,0,1-.559,1.454,2.841,2.841,0,0,1-2.808,1.094l-7.837-1.458.152-.8,7.827,1.458a2.046,2.046,0,0,0,2.2-2.936l-4.735-9.286a8.305,8.305,0,0,1,.109-7.652l4.977-9.153a2.046,2.046,0,0,0-2.112-3L86.451,498.8a8.215,8.215,0,0,1-7.245-2.467l-7.164-7.576a2.046,2.046,0,0,0-3.5,1.08l-1.643,10.289a8.168,8.168,0,0,1-1.1,2.988l-.691-.421A7.354,7.354,0,0,0,66.094,500l1.643-10.289a2.841,2.841,0,0,1,4.891-1.51l7.164,7.576A7.406,7.406,0,0,0,86.361,498l10.289-1.615a2.841,2.841,0,0,1,2.95,4.186l-4.977,9.148a7.491,7.491,0,0,0-.095,6.9l4.735,9.286A2.883,2.883,0,0,1,99.529,527.459Z" transform="translate(-34.275 -256.546)" fill="#fff" opacity="0.62"/>
    <rect id="Rectángulo_627" data-name="Rectángulo 627" width="3.154" height="0.81" transform="translate(23.109 251.182) rotate(-25.45)" fill="#fff" opacity="0.62"/>
    <path id="Trazado_2159" data-name="Trazado 2159" d="M652.233,514.891l-14.882,5.729a3.76,3.76,0,0,0-2.311,2.637l-3.717,15.508a3.788,3.788,0,0,1-6.591,1.5L614.679,527.88a3.75,3.75,0,0,0-3.22-1.383l-15.9,1.255a3.788,3.788,0,0,1-3.461-5.805l8.675-13.381a3.755,3.755,0,0,0,.317-3.495L594.98,490.34a3.788,3.788,0,0,1,4.456-5.086l15.408,4.115a3.788,3.788,0,0,0,3.414-.777l12.122-10.365a3.788,3.788,0,0,1,6.212,2.666l.852,15.924a3.788,3.788,0,0,0,1.795,3.016l13.585,8.324a3.788,3.788,0,0,1-.592,6.733Z" transform="translate(-311.424 -251.308)" fill="url(#linear-gradient-13)"/>
    <path id="Trazado_2160" data-name="Trazado 2160" d="M514.922,458.34l-13.9,7.78a3.788,3.788,0,0,0-1.894,2.94l-1.482,15.877a3.788,3.788,0,0,1-6.312,2.415l-11.705-10.834a3.788,3.788,0,0,0-3.386-.914l-15.56,3.5a3.788,3.788,0,0,1-4.262-5.261l6.691-14.475a3.788,3.788,0,0,0-.18-3.5L454.8,442.132a3.788,3.788,0,0,1,3.689-5.682l15.834,1.894a3.788,3.788,0,0,0,3.277-1.255l10.536-11.975a3.788,3.788,0,0,1,6.525,1.757l3.1,15.626a3.76,3.76,0,0,0,2.207,2.727l14.641,6.321a3.788,3.788,0,0,1,.317,6.795Z" transform="translate(-239.174 -223.149)" fill="#e8d256"/>
    <path id="Trazado_2161" data-name="Trazado 2161" d="M484.593,490.686a7.384,7.384,0,0,0-2.477.133L471.955,493.1a2.841,2.841,0,0,1-3.215-3.982l4.366-9.47a7.4,7.4,0,0,0-.35-6.89l-5.313-8.945a2.841,2.841,0,0,1,2.794-4.29l5.3.63-.095.8-5.284-.63a2.017,2.017,0,0,0-1.956.919,1.994,1.994,0,0,0-.047,2.154l5.313,8.964a8.211,8.211,0,0,1,.393,7.642l-4.371,9.47a2.046,2.046,0,0,0,2.306,2.841l10.143-2.273a8.112,8.112,0,0,1,2.746-.147Z" transform="translate(-245.887 -241.914)" fill="#fff" opacity="0.62"/>
    <path id="Trazado_2162" data-name="Trazado 2162" d="M520.347,488.2a2.841,2.841,0,0,1-4.21.36l-5.843-5.417.549-.592,5.848,5.412a2.041,2.041,0,0,0,3.424-1.307l.947-10.37a8.32,8.32,0,0,1,4.176-6.416l9.091-5.081a2.041,2.041,0,0,0-.185-3.66L524.608,457a8.2,8.2,0,0,1-4.806-5.952l-2.027-10.218a2.046,2.046,0,0,0-3.542-.947l-6.88,7.822a8.21,8.21,0,0,1-2.524,1.937l-.36-.724a7.34,7.34,0,0,0,2.278-1.747l6.88-7.822a2.841,2.841,0,0,1,4.943,1.331l2.022,10.218a7.415,7.415,0,0,0,4.337,5.365l9.56,4.129a2.841,2.841,0,0,1,.265,5.109l-9.091,5.081a7.486,7.486,0,0,0-3.788,5.786l-.947,10.37A2.841,2.841,0,0,1,520.347,488.2Z" transform="translate(-265.598 -230.783)" fill="#fff" opacity="0.62"/>
    <rect id="Rectángulo_628" data-name="Rectángulo 628" width="0.81" height="3.154" transform="matrix(0.119, -0.993, 0.993, 0.119, 229.546, 219.056)" fill="#fff" opacity="0.62"/>
    <path id="Trazado_2163" data-name="Trazado 2163" d="M477.565,225.47l-27.35,13.471a7.2,7.2,0,0,0-3.944,5.422l-4.418,30.167a7.2,7.2,0,0,1-12.288,3.982l-21.256-21.848a7.207,7.207,0,0,0-6.373-2.079l-30.054,5.133a7.2,7.2,0,0,1-7.576-10.46l14.205-26.99a7.193,7.193,0,0,0,0-6.7l-14.163-26.99a7.2,7.2,0,0,1,7.6-10.446l30.044,5.175a7.207,7.207,0,0,0,6.378-2.065l21.308-21.815a7.2,7.2,0,0,1,12.283,4l4.347,30.167a7.207,7.207,0,0,0,3.94,5.426l27.326,13.514a7.207,7.207,0,0,1-.009,12.936Z" transform="translate(-191.366 -82.784)" fill="#e8d256"/>
    <path id="Trazado_2164" data-name="Trazado 2164" d="M418.054,280.474a14.206,14.206,0,0,0-4.735,0l-19.627,3.352a5.46,5.46,0,0,1-5.748-7.922l9.281-17.619a14.163,14.163,0,0,0,0-13.187l-9.252-17.634a5.46,5.46,0,0,1,5.763-7.912l10.024,1.728-.265,1.525-10.024-1.728a3.911,3.911,0,0,0-4.124,5.682l9.252,17.629a15.706,15.706,0,0,1,0,14.632l-9.276,17.615a3.907,3.907,0,0,0,4.115,5.682l19.627-3.348a15.667,15.667,0,0,1,5.256,0Z" transform="translate(-203.919 -115.542)" fill="#fff" opacity="0.62"/>
    <path id="Trazado_2165" data-name="Trazado 2165" d="M485.7,280.213a5.525,5.525,0,0,1-2.476,1.648,5.431,5.431,0,0,1-5.611-1.387L467,269.549l1.113-1.08,10.626,10.914a3.906,3.906,0,0,0,6.667-2.159l2.879-19.7a15.872,15.872,0,0,1,8.608-11.838l17.861-8.8a3.911,3.911,0,0,0,0-7.013L496.9,221.047a15.706,15.706,0,0,1-8.585-11.838L485.474,189.5a3.911,3.911,0,0,0-6.667-2.173L464.9,201.577a15.624,15.624,0,0,1-5.019,3.452l-.611-1.421a14.2,14.2,0,0,0,4.522-3.111L477.7,186.249a5.455,5.455,0,0,1,9.3,3.03l2.841,19.708a14.158,14.158,0,0,0,7.742,10.673l17.851,8.826a5.455,5.455,0,0,1,0,9.787l-17.861,8.8a14.3,14.3,0,0,0-7.756,10.668l-2.879,19.7a5.525,5.525,0,0,1-1.245,2.775Z" transform="translate(-241.801 -97.183)" fill="#fff" opacity="0.62"/>
    <rect id="Rectángulo_629" data-name="Rectángulo 629" width="1.548" height="6.028" transform="translate(199.576 107.26) rotate(-80.22)" fill="#fff" opacity="0.62"/>
    <path id="Trazado_2166" data-name="Trazado 2166" d="M369.319,295.425s-.213-4.172-1.293-6.1,1.421-2.368,2.671-.564,2.126,6.842,2.126,6.842S370.664,296.879,369.319,295.425Z" transform="translate(-193.624 -151.418)" fill="url(#linear-gradient-14)"/>
    <path id="Trazado_2167" data-name="Trazado 2167" d="M379,308.6a2.472,2.472,0,0,1-4.219,0c-1.421-2.368-3.6-6.123-4-8.092-.606-2.988-1.018-6.984,2.95-7.737a46.968,46.968,0,0,1,9.12-.511s1.307,3.67-1.946,3.689l2.472,1.061s.975,2.969-2.008,2.429l2.6,1.7s0,2.775-2.368,1.993C379.91,302.534,380.52,306.142,379,308.6Z" transform="translate(-195.009 -153.844)" fill="url(#linear-gradient-15)"/>
    <path id="Trazado_2168" data-name="Trazado 2168" d="M575.517,251.173c-7.813-3.788-10.8-3.736-14.087-.862l5.545,4.337a3.619,3.619,0,0,1,.772,4.735c-.848,1.752.691,4.233,3.234,5.052,1.861.592,3.651.147,5.313-2.188l1.463-2.874C577.326,257.257,577.828,252.858,575.517,251.173Z" transform="translate(-295.587 -130.685)" fill="url(#linear-gradient-16)"/>
  </g>
</svg>
