<svg version="1.2" xmlns="http://www.w3.org/2000/svg" viewBox="0 0 613 70" width="613" height="70"><style>.a{fill:#323d90}.b{fill:#e770a7}.c{fill:#f39549}.d{fill:#5cc4ef}.e{fill:#bbd374}</style><path class="a" d="m36 30.3q-3.4-0.9-5.6-2.4l2.8-6.2q2 1.3 4.7 2.1 2.6 0.8 5.2 0.8 4.8 0 4.8-2.4 0-1.3-1.4-1.9-1.3-0.6-4.4-1.3-3.4-0.7-5.7-1.6-2.2-0.8-3.8-2.6-1.7-1.9-1.7-5 0-2.7 1.5-4.9 1.5-2.2 4.5-3.5 3-1.3 7.3-1.3 2.9 0 5.8 0.7 2.8 0.6 5 1.9l-2.6 6.3q-4.3-2.3-8.3-2.3-2.5 0-3.6 0.7-1.2 0.8-1.2 2 0 1.2 1.4 1.8 1.3 0.6 4.4 1.2 3.4 0.7 5.6 1.6 2.3 0.8 3.9 2.6 1.7 1.8 1.7 4.9 0 2.7-1.5 4.9-1.5 2.2-4.5 3.5-3 1.3-7.3 1.3-3.6 0-7-0.9z"/><path  d="m5.8 61.1c1.6 0 3-0.5 4-1.6l-0.8-0.7c-0.8 0.9-1.9 1.3-3.1 1.3-2.6 0-4.6-1.9-4.6-4.5 0-2.5 2-4.4 4.6-4.4 1.2 0 2.3 0.3 3.1 1.2l0.8-0.7c-1-1-2.4-1.6-4-1.6-3.2 0-5.6 2.4-5.6 5.5 0 3.2 2.4 5.5 5.6 5.5zm6.7-10c0.5 0 0.8-0.3 0.8-0.8 0-0.4-0.3-0.7-0.8-0.7-0.4 0-0.8 0.3-0.8 0.8 0 0.4 0.4 0.7 0.8 0.7zm-0.5 9.9h1.1v-8.1h-1.1zm11.2-4c0-2.5-1.7-4.1-4-4.1-2.2 0-3.9 1.7-3.9 4.1 0 2.4 1.7 4.1 4.2 4.1 1.3 0 2.4-0.5 3.2-1.3l-0.7-0.7c-0.6 0.7-1.5 1-2.4 1-1.8 0-3.1-1.1-3.2-2.8h6.7c0-0.1 0.1-0.2 0.1-0.3zm-4-3.2c1.6 0 2.8 1.1 2.9 2.7h-5.7c0.1-1.6 1.3-2.7 2.8-2.7zm10.3-0.9c-1.4 0-2.5 0.5-3.1 1.5v-1.5h-1v8.1h1.1v-4.2c0-1.9 1.1-3 2.8-3 1.5 0 2.4 0.9 2.4 2.6v4.6h1.1v-4.7c0-2.3-1.3-3.4-3.3-3.4zm9.7 8.2c1.4 0 2.5-0.6 3.2-1.6l-0.9-0.6c-0.5 0.9-1.4 1.2-2.3 1.2-1.8 0-3.1-1.2-3.1-3.1 0-1.9 1.3-3.2 3.1-3.2 0.9 0 1.8 0.4 2.3 1.2l0.9-0.5c-0.7-1.1-1.8-1.6-3.2-1.6-2.4 0-4.2 1.7-4.2 4.1 0 2.4 1.8 4.1 4.2 4.1zm5.8-9.9c0.5 0 0.8-0.4 0.8-0.8 0-0.5-0.3-0.8-0.8-0.8-0.4 0-0.8 0.4-0.8 0.8 0 0.4 0.4 0.8 0.8 0.8zm-0.5 9.8h1.1v-8.1h-1.1zm7-8.1c-1.3 0-2.5 0.4-3.3 1.1l0.5 0.8c0.6-0.6 1.6-1 2.6-1 1.6 0 2.3 0.8 2.3 2.2v0.5h-2.5c-2.4 0-3.2 1-3.2 2.2 0 1.4 1.2 2.4 3 2.4 1.3 0 2.3-0.5 2.8-1.3v1.2h1v-5c0-2.1-1.2-3.1-3.2-3.1zm-0.4 7.3c-1.3 0-2.1-0.5-2.1-1.5 0-0.8 0.5-1.4 2.1-1.4h2.5v1.3c-0.4 1.1-1.3 1.6-2.5 1.6zm8.8 0.9c2.1 0 3.3-0.9 3.3-2.3 0-3.1-5.2-1.5-5.2-3.6 0-0.8 0.6-1.4 2.1-1.4 0.8 0 1.6 0.2 2.3 0.7l0.5-0.9c-0.7-0.4-1.8-0.7-2.8-0.7-2.1 0-3.2 1-3.2 2.3 0 3.2 5.2 1.5 5.2 3.6 0 0.8-0.6 1.3-2.2 1.3-1.1 0-2.2-0.4-2.8-0.9l-0.5 0.9c0.6 0.6 1.9 1 3.3 1zm11.2 2.9h1c-1.2-2.1-1.7-4.5-1.7-7.2 0-2.7 0.5-5.1 1.7-7.2h-1c-1.1 1.8-1.8 4.4-1.8 7.2 0 2.8 0.7 5.3 1.8 7.2zm6.4-2.9c2.8 0 4-1.3 4-2.9 0-3.9-6.6-2.2-6.6-5.1 0-1.1 0.9-2 2.8-2 1 0 2.1 0.3 3 0.9l0.4-0.9c-0.9-0.6-2.2-0.9-3.4-0.9-2.7 0-3.9 1.3-3.9 2.9 0 4 6.6 2.2 6.6 5.1 0 1.1-0.9 1.9-2.9 1.9-1.4 0-2.8-0.5-3.6-1.3l-0.4 0.9c0.8 0.8 2.4 1.4 4 1.4zm6.4 2.9c1.1-1.9 1.8-4.4 1.8-7.2 0-2.8-0.7-5.4-1.8-7.2h-1c1.2 2.1 1.7 4.5 1.7 7.2 0 2.7-0.5 5.1-1.7 7.2z"/><path class="b" d="m167.3 7.1h-9.5v-7h27.8v7h-9.5v24.1h-8.8z"/><path  d="m122.4 61h1.2v-9.8h3.7v-1h-8.7v1h3.8zm12.7-4c0-2.5-1.6-4.1-3.9-4.1-2.3 0-3.9 1.7-3.9 4.1 0 2.4 1.7 4.1 4.2 4.1 1.3 0 2.4-0.5 3.1-1.3l-0.6-0.7c-0.6 0.7-1.5 1-2.5 1-1.7 0-3-1.1-3.1-2.8h6.7c0-0.1 0-0.2 0-0.3zm-3.9-3.2c1.6 0 2.8 1.1 2.9 2.7h-5.7c0.1-1.6 1.3-2.7 2.8-2.7zm9.5 7.3c1.4 0 2.5-0.6 3.2-1.6l-0.8-0.6c-0.6 0.9-1.4 1.2-2.4 1.2-1.7 0-3-1.2-3-3.1 0-1.9 1.3-3.2 3-3.2 1 0 1.8 0.4 2.4 1.2l0.8-0.5c-0.7-1.1-1.8-1.6-3.2-1.6-2.4 0-4.1 1.7-4.1 4.1 0 2.4 1.7 4.1 4.1 4.1zm9.5-8.2c-1.4 0-2.5 0.5-3.1 1.5v-1.5h-1.1v8.1h1.1v-4.2c0-1.9 1.1-2.9 2.9-2.9 1.5 0 2.4 0.8 2.4 2.5v4.6h1.1v-4.7c0-2.3-1.4-3.4-3.3-3.4zm9.6 8.2c2.3 0 4.1-1.7 4.1-4.1 0-2.4-1.8-4.1-4.1-4.1-2.4 0-4.1 1.7-4.1 4.1 0 2.4 1.7 4.1 4.1 4.1zm0-1c-1.7 0-3-1.2-3-3.1 0-1.9 1.3-3.2 3-3.2 1.7 0 3 1.3 3 3.2 0 1.9-1.3 3.1-3 3.1zm6.3 0.9h1.1v-11.4h-1.1zm7.5 0.1c2.3 0 4.1-1.7 4.1-4.1 0-2.4-1.8-4.1-4.1-4.1-2.4 0-4.2 1.7-4.2 4.1 0 2.4 1.8 4.1 4.2 4.1zm0-1c-1.8 0-3.1-1.2-3.1-3.1 0-1.9 1.3-3.2 3.1-3.2 1.7 0 3 1.3 3 3.2 0 1.9-1.3 3.1-3 3.1zm12.7-7.2v1.6c-0.6-1.1-1.8-1.6-3.2-1.6-2.3 0-4 1.5-4 3.9 0 2.3 1.7 3.9 4 3.9 1.4 0 2.5-0.5 3.2-1.6v1.1c0 2-1 2.9-3 2.9-1.2 0-2.4-0.4-3.2-1.1l-0.5 0.8c0.8 0.8 2.3 1.3 3.7 1.3 2.7 0 4.1-1.3 4.1-4.1v-7.1zm-3.1 6.8c-1.8 0-3.1-1.2-3.1-2.9 0-1.8 1.3-3 3.1-3 1.8 0 3.1 1.2 3.1 3 0 1.7-1.3 2.9-3.1 2.9zm6.7-8h1.1l2.5-1.9h-1.5zm0.5 9.3h1.1v-8.1h-1.1zm7-8.1c-1.3 0-2.5 0.4-3.3 1.1l0.5 0.8c0.6-0.6 1.6-1 2.6-1 1.6 0 2.3 0.8 2.3 2.2v0.5h-2.5c-2.4 0-3.2 1-3.2 2.2 0 1.4 1.2 2.4 3 2.4 1.3 0 2.3-0.5 2.8-1.3v1.2h1v-5c0-2.1-1.2-3.1-3.2-3.1zm-0.4 7.3c-1.3 0-2.1-0.6-2.1-1.5 0-0.8 0.5-1.4 2.1-1.4h2.5v1.3c-0.4 1-1.3 1.6-2.5 1.6zm12.5 3.8h1c-1.2-2.1-1.7-4.5-1.7-7.2 0-2.7 0.5-5.1 1.7-7.2h-1c-1.2 1.8-1.8 4.4-1.8 7.2 0 2.8 0.6 5.3 1.8 7.2zm5.3-3h1.1v-9.8h3.8v-0.9h-8.7v0.9h3.8zm6.6 3c1.2-1.8 1.8-4.3 1.8-7.2 0-2.8-0.6-5.3-1.8-7.2h-1c1.2 2.1 1.7 4.5 1.7 7.2 0 2.8-0.5 5.1-1.7 7.2z"/><path class="c" d="m319.8 24.4v6.8h-24.9v-31.1h24.4v6.8h-15.7v5.3h13.8v6.5h-13.8v5.7z"/><path  d="m257.9 61h1.1v-10.8h-1.1zm8.5-8.1c-1.4 0-2.5 0.6-3 1.5v-1.5h-1.1v8.1h1.1v-4.2c0-1.9 1.1-2.9 2.8-2.9 1.6 0 2.5 0.8 2.5 2.6v4.5h1.1v-4.7c0-2.3-1.4-3.4-3.4-3.4zm12.8 0v1.6c-0.7-1.1-1.8-1.6-3.2-1.6-2.3 0-4.1 1.6-4.1 3.9 0 2.3 1.8 3.9 4.1 3.9 1.3 0 2.5-0.5 3.2-1.5v1c0 2-1 2.9-3 2.9-1.3 0-2.4-0.4-3.2-1.1l-0.6 0.9c0.9 0.8 2.3 1.2 3.8 1.2 2.7 0 4-1.3 4-4v-7.2zm-3 6.9c-1.8 0-3.1-1.3-3.1-3 0-1.8 1.3-3 3.1-3 1.7 0 3 1.2 3 3 0 1.7-1.3 3-3 3zm14.2-2.8c0-2.4-1.6-4.1-3.9-4.1-2.3 0-4 1.7-4 4.1 0 2.4 1.8 4.1 4.3 4.1 1.3 0 2.4-0.4 3.1-1.3l-0.6-0.7c-0.6 0.7-1.5 1-2.5 1-1.8 0-3-1.1-3.2-2.8h6.8c0-0.1 0-0.2 0-0.3zm-3.9-3.2c1.6 0 2.7 1.1 2.9 2.7h-5.8c0.2-1.6 1.3-2.7 2.9-2.7zm10.3-0.9c-1.4 0-2.5 0.6-3.1 1.5v-1.5h-1.1v8.1h1.1v-4.2c0-1.9 1.1-2.9 2.9-2.9 1.5 0 2.4 0.8 2.4 2.6v4.5h1.1v-4.7c0-2.3-1.4-3.4-3.3-3.4zm6.8-1.7c0.5 0 0.8-0.4 0.8-0.8 0-0.4-0.4-0.8-0.8-0.8-0.4 0-0.8 0.4-0.8 0.8 0 0.4 0.4 0.8 0.8 0.8zm-0.6 9.8h1.1v-8.1h-1.1zm11.2-4c0-2.4-1.6-4.1-3.9-4.1-2.3 0-3.9 1.7-3.9 4.1 0 2.4 1.7 4.1 4.2 4.1 1.3 0 2.4-0.4 3.1-1.3l-0.6-0.7c-0.6 0.7-1.5 1.1-2.5 1.1-1.7 0-3-1.2-3.1-2.9h6.7c0-0.1 0-0.2 0-0.3zm-3.9-3.2c1.6 0 2.8 1.1 2.9 2.7h-5.7c0.1-1.6 1.3-2.7 2.8-2.7zm7.2 0.7v-1.5h-1v8h1.1v-4.1c0-1.9 1-3 2.7-3 0.1 0 0.2 0.1 0.2 0.1v-1.1c-1.4 0-2.5 0.6-3 1.6zm4.6-2.8h1l2.5-1.9h-1.4zm0.4 9.3h1.1v-8h-1.1zm7-8.2c-1.3 0-2.5 0.4-3.3 1.1l0.5 0.8c0.6-0.6 1.6-0.9 2.7-0.9 1.5 0 2.3 0.7 2.3 2.1v0.5h-2.6c-2.3 0-3.1 1-3.1 2.3 0 1.4 1.1 2.3 2.9 2.3 1.4 0 2.3-0.5 2.8-1.3v1.3h1.1v-5.1c0-2-1.2-3.1-3.3-3.1zm-0.4 7.4c-1.3 0-2-0.6-2-1.6 0-0.8 0.5-1.4 2-1.4h2.6v1.3c-0.5 1.1-1.4 1.7-2.6 1.7zm12.5 3.7h1.1c-1.3-2.1-1.8-4.4-1.8-7.2 0-2.7 0.5-5 1.8-7.2h-1.1c-1.1 1.9-1.8 4.4-1.8 7.2 0 2.9 0.7 5.4 1.8 7.2zm4.6-3.9v-4h5.5v-1h-5.5v-3.8h6.2v-1h-7.4v10.8h7.7v-1zm9 3.9c1.2-1.8 1.8-4.3 1.8-7.2 0-2.8-0.6-5.3-1.8-7.2h-1c1.2 2.2 1.7 4.5 1.7 7.2 0 2.8-0.5 5.1-1.7 7.2z"/><path fill-rule="evenodd" class="d" d="m429 25.2h-13.1l-2.5 6h-8.9l13.7-31.1h8.7l13.7 31.1h-9.1zm-2.6-6.5l-4-9.9-4 9.9z"/><path  d="m399.7 61h1.2l-5-10.8h-1.1l-4.9 10.8h1.2l1.3-2.9h6zm-6.9-3.8l2.6-5.8 2.6 5.8zm10.6-2.7v-1.6h-1v8.1h1.1v-4.1c0-1.9 1-3 2.7-3 0.1 0 0.2 0 0.3 0v-1c-1.5 0-2.6 0.5-3.1 1.6zm9.3 5.2c-0.3 0.3-0.8 0.5-1.2 0.5-0.9 0-1.4-0.6-1.4-1.5v-4.8h2.4v-1h-2.4v-1.7h-1.1v1.7h-1.5v1h1.5v4.8c0 1.5 0.8 2.4 2.3 2.4 0.7 0 1.3-0.2 1.8-0.6zm9.1-2.7c0-2.5-1.7-4.1-3.9-4.1-2.3 0-4 1.7-4 4.1 0 2.4 1.7 4.1 4.3 4.1 1.2 0 2.4-0.5 3.1-1.3l-0.6-0.7c-0.7 0.7-1.5 1-2.5 1-1.8 0-3.1-1.1-3.2-2.8h6.8c0-0.1 0-0.2 0-0.3zm-3.9-3.2c1.5 0 2.7 1.1 2.8 2.7h-5.7c0.1-1.6 1.3-2.7 2.9-2.7zm8.3 7.3c2.1 0 3.3-0.9 3.3-2.3 0-3.1-5.2-1.5-5.2-3.7 0-0.7 0.6-1.3 2.1-1.3 0.8 0 1.7 0.2 2.4 0.7l0.4-0.9c-0.6-0.4-1.8-0.7-2.8-0.7-2.1 0-3.2 0.9-3.2 2.3 0 3.2 5.2 1.5 5.2 3.6 0 0.8-0.6 1.3-2.1 1.3-1.2 0-2.3-0.4-2.9-0.9l-0.5 0.9c0.7 0.6 1.9 1 3.3 1zm11.2 2.9h1.1c-1.2-2.1-1.8-4.5-1.8-7.2 0-2.7 0.6-5.1 1.8-7.2h-1.1c-1.1 1.8-1.8 4.4-1.8 7.2 0 2.8 0.7 5.3 1.8 7.2zm11.5-3h1.2l-4.9-10.8h-1.2l-4.9 10.8h1.2l1.3-2.9h6zm-6.9-3.8l2.6-5.7 2.6 5.7zm9.8 6.8c1.1-1.8 1.8-4.4 1.8-7.2 0-2.8-0.7-5.3-1.8-7.2h-1.1c1.2 2.1 1.8 4.5 1.8 7.2 0 2.8-0.6 5.1-1.8 7.2z"/><path class="e" d="m570 31.2l-0.1-16.5-8 13.4h-3.9l-8-12.9v16h-8.1v-31.1h7.2l11 18 10.6-18h7.3v31.1z"/><path  d="m498.5 50.2l-4.6 8-4.7-8h-0.9v10.8h1.1v-8.6l4.2 7.2h0.5l4.3-7.2v8.6h1v-10.8zm7.1 2.7c-1.3 0-2.5 0.4-3.3 1l0.5 0.9c0.6-0.6 1.6-1 2.7-1 1.5 0 2.3 0.8 2.3 2.1v0.5h-2.6c-2.3 0-3.1 1.1-3.1 2.3 0 1.4 1.1 2.4 2.9 2.4 1.4 0 2.3-0.5 2.8-1.4v1.3h1.1v-5c0-2.1-1.2-3.1-3.3-3.1zm-0.4 7.3c-1.3 0-2-0.6-2-1.5 0-0.8 0.5-1.5 2-1.5h2.6v1.4c-0.5 1-1.4 1.6-2.6 1.6zm10.5-0.5c-0.3 0.3-0.8 0.4-1.2 0.4-0.9 0-1.4-0.5-1.4-1.4v-4.9h2.5v-0.9h-2.5v-1.8h-1.1v1.8h-1.4v0.9h1.4v4.9c0 1.5 0.9 2.4 2.4 2.4 0.6 0 1.3-0.2 1.7-0.6zm9.1-2.8c0-2.4-1.6-4.1-3.9-4.1-2.3 0-4 1.7-4 4.1 0 2.4 1.8 4.2 4.3 4.2 1.3 0 2.4-0.5 3.1-1.4l-0.6-0.7c-0.6 0.7-1.5 1.1-2.5 1.1-1.7 0-3-1.1-3.2-2.8h6.8c0-0.1 0-0.3 0-0.4zm-3.9-3.1c1.6 0 2.7 1.1 2.9 2.7h-5.8c0.2-1.6 1.3-2.7 2.9-2.7zm16.2-1c-1.4 0-2.6 0.7-3.2 1.7-0.5-1.1-1.5-1.7-2.8-1.7-1.4 0-2.4 0.6-3 1.6v-1.5h-1.1v8.1h1.1v-4.3c0-1.8 1.1-2.9 2.7-2.9 1.5 0 2.4 0.9 2.4 2.6v4.6h1.1v-4.3c0-1.8 1-2.9 2.7-2.9 1.4 0 2.3 0.9 2.3 2.6v4.6h1.1v-4.7c0-2.3-1.3-3.5-3.3-3.5zm11.7-3.1h-1.5l-2.1 2h1.1zm-2.6 3c-1.3 0-2.5 0.4-3.3 1.1l0.5 0.8c0.7-0.5 1.6-0.9 2.7-0.9 1.5 0 2.3 0.7 2.3 2.1v0.5h-2.6c-2.3 0-3.1 1.1-3.1 2.3 0 1.4 1.1 2.4 2.9 2.4 1.4 0 2.3-0.5 2.8-1.4v1.3h1.1v-5c0-2.1-1.2-3.2-3.3-3.2zm-0.4 7.4c-1.3 0-2-0.6-2-1.5 0-0.8 0.5-1.5 2-1.5h2.6v1.4c-0.4 1-1.4 1.6-2.6 1.6zm10.5-0.5c-0.3 0.3-0.7 0.4-1.2 0.4-0.9 0-1.4-0.5-1.4-1.4v-4.9h2.5v-0.9h-2.5v-1.8h-1.1v1.8h-1.4v0.9h1.4v4.9c0 1.5 0.9 2.4 2.4 2.4 0.6 0 1.3-0.2 1.7-0.6zm2.9-8.6c0.5 0 0.8-0.3 0.8-0.8 0-0.4-0.3-0.7-0.8-0.7-0.4 0-0.8 0.3-0.8 0.7 0 0.5 0.4 0.8 0.8 0.8zm-0.5 9.9h1.1v-8.1h-1.1zm7.5 0.1c1.3 0 2.5-0.6 3.1-1.6l-0.8-0.6c-0.5 0.8-1.4 1.2-2.3 1.2-1.8 0-3.1-1.3-3.1-3.2 0-1.8 1.3-3.1 3.1-3.1 0.9 0 1.8 0.4 2.3 1.2l0.8-0.6c-0.6-1-1.8-1.6-3.1-1.6-2.5 0-4.2 1.7-4.2 4.1 0 2.5 1.7 4.2 4.2 4.2zm8.1-8.3c-1.3 0-2.5 0.4-3.3 1.1l0.5 0.8c0.7-0.5 1.6-0.9 2.7-0.9 1.5 0 2.3 0.7 2.3 2.1v0.5h-2.6c-2.3 0-3.1 1.1-3.1 2.3 0 1.4 1.1 2.4 2.9 2.4 1.4 0 2.3-0.5 2.8-1.4v1.3h1.1v-5c0-2.1-1.2-3.2-3.3-3.2zm-0.4 7.4c-1.3 0-2-0.6-2-1.5 0-0.8 0.5-1.5 2-1.5h2.6v1.4c-0.5 1-1.4 1.6-2.6 1.6zm8.8 0.9c2.1 0 3.3-0.9 3.3-2.3 0-3.1-5.2-1.5-5.2-3.7 0-0.8 0.6-1.3 2.1-1.3 0.8 0 1.7 0.2 2.4 0.7l0.5-0.9c-0.7-0.5-1.9-0.8-2.9-0.8-2.1 0-3.2 1-3.2 2.3 0 3.2 5.2 1.6 5.2 3.7 0 0.8-0.6 1.3-2.1 1.3-1.2 0-2.2-0.4-2.9-0.9l-0.5 0.9c0.7 0.5 2 1 3.3 1zm7.2 2.9h1.1c-1.3-2.1-1.8-4.5-1.8-7.2 0-2.8 0.5-5.1 1.8-7.2h-1.1c-1.1 1.8-1.8 4.3-1.8 7.2 0 2.8 0.7 5.3 1.8 7.2zm13.7-13.8l-4.6 8-4.7-8h-1v10.8h1.1v-8.6l4.3 7.2h0.5l4.2-7.2v8.6h1.1v-10.8zm4.4 13.8c1.1-1.9 1.8-4.4 1.8-7.2 0-2.9-0.7-5.4-1.8-7.2h-1.1c1.3 2.1 1.8 4.4 1.8 7.2 0 2.7-0.5 5.1-1.8 7.2z"/></svg>