<svg xmlns="http://www.w3.org/2000/svg" width="20.41" height="14.287" viewBox="0 0 20.41 14.287">
  <path id="users-solid" d="M3.062,38.123a2.041,2.041,0,1,0-2.041-2.041A2.043,2.043,0,0,0,3.062,38.123Zm14.287,0a2.041,2.041,0,1,0-2.041-2.041A2.043,2.043,0,0,0,17.349,38.123Zm1.021,1.021H16.328a2.035,2.035,0,0,0-1.438.593,4.665,4.665,0,0,1,2.4,3.489h2.1a1.019,1.019,0,0,0,1.021-1.021V41.185A2.043,2.043,0,0,0,18.369,39.144Zm-8.164,0a3.572,3.572,0,1,0-3.572-3.572A3.57,3.57,0,0,0,10.205,39.144Zm2.449,1.021H12.39a4.931,4.931,0,0,1-4.369,0H7.756a3.675,3.675,0,0,0-3.674,3.674v.918a1.531,1.531,0,0,0,1.531,1.531H14.8a1.531,1.531,0,0,0,1.531-1.531v-.918A3.675,3.675,0,0,0,12.654,40.164ZM5.52,39.737a2.035,2.035,0,0,0-1.438-.593H2.041A2.043,2.043,0,0,0,0,41.185v1.021a1.019,1.019,0,0,0,1.021,1.021h2.1a4.677,4.677,0,0,1,2.4-3.489Z" transform="translate(0 -32)" fill="#b1c449"/>
</svg>
