<svg xmlns="http://www.w3.org/2000/svg" width="20.037" height="20.037" viewBox="0 0 20.037 20.037">
  <g id="Grupo_289" data-name="Grupo 289" transform="translate(0.25 0.25)">
    <g id="Grupo_230" data-name="Grupo 230" transform="translate(0)">
      <path id="Trazado_338" data-name="Trazado 338" d="M34.921,9.994l.019.145-.217.045-.029.309h.26l.346-.033.179-.213-.19-.074-.1-.12L35.029,9.8l-.075-.358-.294.06-.082.126V9.77l.141.1Z" transform="translate(-20.685 -5.648)" fill="#b1c449" stroke="#b1c449" stroke-width="0.5"/>
      <path id="Trazado_339" data-name="Trazado 339" d="M33.951,10.712l.016-.194-.172-.074-.241.056-.179.287v.186h.209Z" transform="translate(-19.965 -6.248)" fill="#b1c449" stroke="#b1c449" stroke-width="0.5"/>
      <path id="Trazado_340" data-name="Trazado 340" d="M22,13.155l-.053.137h-.257v.133h.061s0,.028.009.065l.158-.013.1-.061.026-.123.127-.011.05-.1-.117-.024Z" transform="translate(-12.974 -7.868)" fill="#b1c449" stroke="#b1c449" stroke-width="0.5"/>
      <path id="Trazado_341" data-name="Trazado 341" d="M20.8,13.6l-.01.13.186-.016.019-.13-.112-.088Z" transform="translate(-12.435 -8.075)" fill="#b1c449" stroke="#b1c449" stroke-width="0.5"/>
      <path id="Trazado_342" data-name="Trazado 342" d="M19.535,9.667c0-.286-.017-.569-.044-.849a9.709,9.709,0,0,0-.646-2.66c-.025-.062-.048-.125-.074-.187a9.78,9.78,0,0,0-1.832-2.831c-.05-.054-.1-.107-.152-.159-.144-.15-.293-.3-.446-.436a9.749,9.749,0,0,0-13.184.041A9.884,9.884,0,0,0,2.038,3.807a9.764,9.764,0,1,0,16.428,10.4,9.675,9.675,0,0,0,.8-2.151c.046-.192.086-.384.121-.579a9.769,9.769,0,0,0,.152-1.708C19.537,9.735,19.535,9.7,19.535,9.667ZM17.7,5.763l.057-.063c.074.144.144.291.21.44l-.092,0L17.7,6.16Zm-1.411-1.7,0-.436q.23.244.443.5l-.176.262-.615-.006L15.9,4.255ZM4.5,2.974V2.958h.2l.017-.067h.32v.14l-.092.123H4.5V2.974Zm.313.436s.2-.033.213-.033,0,.2,0,.2L4.585,3.6,4.5,3.5Zm13.5,3.878H17.6l-.436-.324-.458.045v.28h-.145l-.157-.112-.794-.2V6.461l-1.006.078-.312.168h-.4l-.2-.02-.485.269v.507l-.991.715.082.305h.2l-.053.291-.141.052-.008.76.857.976h.373l.022-.059h.67l.193-.179h.38l.209.209.567.059-.075.753.629,1.11-.331.633.023.3.261.26v.717l.342.46v.6h.3A8.961,8.961,0,0,1,1.519,6.26V5.98l.321-.389q.167-.315.358-.615l.014.163-.372.452c-.115.218-.223.44-.321.669v.51l.372.179v.709l.357.61.29.045L2.577,8.1l-.343-.529-.067-.514h.2l.085.529.5.723-.128.233.315.482.782.194V9.095l.313.045-.03.223.246.045.38.1.536.611.685.052.067.559-.469.328-.022.5-.067.305.678.849.052.291s.246.067.276.067.551.395.551.395V15l.186.052-.127.708.313.417-.058.7.413.727.531.464.534.01.052-.172-.392-.33.023-.164.07-.2.015-.2L8.409,17l-.134-.168.22-.212.03-.16-.246-.07.014-.149.35-.053.533-.256.179-.328.559-.715-.127-.559.172-.3.514.016.346-.274.112-1.079.384-.487.067-.313-.35-.112L10.8,11.4l-.79-.008-.626-.239-.03-.446-.209-.365-.566-.008-.327-.513-.29-.142-.015.157-.529.031L7.226,9.6l-.552-.112-.454.525L5.5,9.893l-.052-.806L4.931,9l.209-.4-.06-.227-.686.458-.432-.053-.154-.337L3.9,8.1l.238-.438.548-.277H5.746l0,.323.38.177-.03-.551.274-.276L6.92,6.69l.038-.256.551-.574L8.1,5.536l-.052-.043.4-.374.145.039.067.084L8.8,5.075l.037-.016-.165-.023-.168-.056V4.818L8.6,4.746h.2l.09.039.078.157.095-.014V4.913l.027.009.275-.042L9.4,4.746l.157.039v.145l-.145.1h0l.021.16.5.153V5.35l.115-.01.008-.216-.395-.18-.022-.1L9.96,4.73l.014-.313-.342-.209L9.609,3.68,9.14,3.91H8.969l.045-.4-.639-.151-.264.2v.609l-.475.151-.19.4-.207.033V4.239l-.447-.062-.223-.145L6.478,3.7l.8-.468.391-.119.039.263.218-.011.017-.132L8.17,3.2l0-.046-.1-.041-.022-.14.28-.024L8.5,2.777l.009-.013h0l.051-.053.589-.074.26.221-.683.364.869.2.113-.29h.38l.134-.253-.268-.067V2.5l-.842-.373-.581.067-.328.172.023.417-.343-.052L7.835,2.5l.328-.3-.6-.03L7.4,2.22l-.074.2.223.038L7.5,2.682l-.38.022-.059.149-.551.015a1.51,1.51,0,0,0-.037-.313l.432-.008.328-.321-.179-.09-.238.231-.4-.023-.238-.328H5.676l-.529.395h.485l.044.142-.126.117.536.015.082.194-.6-.023L5.535,2.71l-.38-.082-.2-.112-.452,0a8.939,8.939,0,0,1,11.185.524l-.106.19-.413.162-.174.189.04.221.213.03.129.321.368-.148.061.43h-.111l-.3-.045-.335.056-.324.458-.464.073-.067.4.2.046-.057.255-.46-.092-.422.092-.09.235.073.493.248.116.416,0,.281-.025.086-.223.439-.57.289.059.284-.257.053.2.7.472-.086.115-.315-.017.121.172.194.043.227-.095,0-.274.1-.051-.081-.086-.467-.26L15.8,5.378h.388l.124.123.334.288.014.348.346.369L17.138,6l.24-.131.045.413.234.257.467-.008q.136.349.243.711ZM5.328,4.438l.235-.112.212.051L5.7,4.662l-.229.073Zm1.245.671v.184H6.037l-.2-.056.05-.129L6.144,5H6.5v.106Zm.247.257v.179l-.134.086-.167.031v-.3Zm-.151-.073V5.081l.184.168Zm.084.43V5.9l-.128.129H6.34l.045-.2.135-.012.028-.067Zm-.71-.357h.3L5.96,5.9,5.8,5.813l.034-.223Zm1.213.3v.174H6.971l-.078-.113V5.562h.022Zm-.263-.239.081-.085.137.085-.11.09ZM18.464,7.74l.028-.033c.012.051.024.1.035.153Z" fill="#b1c449" stroke="#b1c449" stroke-width="0.5"/>
      <path id="Trazado_343" data-name="Trazado 343" d="M3.782,14.3v.28c.1-.228.205-.451.321-.669Z" transform="translate(-2.262 -8.324)" fill="#b1c449" stroke="#b1c449" stroke-width="0.5"/>
    </g>
  </g>
</svg>
