<svg version="1.2" xmlns="http://www.w3.org/2000/svg" viewBox="0 0 190 190" width="190" height="190"><style>.a{fill:#26224f}.b{fill:#fff}</style><path class="a" d="m0 95.2c0-52.3 42.4-94.7 94.7-94.7 52.3 0 94.6 42.4 94.6 94.7 0 52.2-42.3 94.6-94.6 94.6-52.3 0-94.7-42.4-94.7-94.6z"/><path fill-rule="evenodd" class="b" d="m83.5 82.9v30.3h-53.9v-30.3h8v7h-5v4.2h5v15h4.4v-15h8.2v15h4.4v-9.9q0-5.5 3.6-5.5 1.2 0 2.5 0.9l2-4.1q-1.9-1.1-3.6-1.1-1.4 0-2.3 0.5-1 0.5-2.2 1.8v-1.8h-12.6v-7zm-5 7.9q-2.5-1.4-5.4-1.4-4.4 0-7.4 3-3 2.9-3 7.2 0 4.3 2.9 7.2 3 2.9 7.5 2.9 2.7 0 5.4-1.4v-5.9q-1.6 2-2.8 2.6-1.2 0.7-2.8 0.7-2.5 0-4.1-1.7-1.6-1.7-1.6-4.4 0-2.7 1.6-4.4 1.7-1.8 4.2-1.8 1.6 0 2.8 0.7 1.2 0.7 2.7 2.6z"/><path class="b" d="m104.1 89.7l-2 1.2q-0.6-1-1.1-1.3-0.5-0.3-1.4-0.3-1 0-1.7 0.6-0.6 0.5-0.6 1.4 0 1.2 1.7 1.9l1.7 0.7q2 0.8 2.9 2 0.9 1.1 0.9 2.8 0 2.3-1.5 3.7-1.5 1.5-3.8 1.5-2.1 0-3.5-1.2-1.3-1.3-1.7-3.6l2.5-0.5q0.2 1.4 0.6 2 0.8 1 2.2 1 1.2 0 2-0.8 0.7-0.7 0.7-1.9 0-0.5-0.1-0.9-0.1-0.4-0.4-0.7-0.3-0.4-0.7-0.7-0.5-0.2-1.1-0.5l-1.6-0.7q-3.3-1.4-3.3-4.1 0-1.9 1.4-3.1 1.4-1.3 3.5-1.3 2.8 0 4.4 2.8z"/><path fill-rule="evenodd" class="b" d="m109.4 109.2h-2.4v-15.9h2.4v1.1q1.4-1.4 3.2-1.4 2.1 0 3.5 1.6 1.4 1.5 1.4 3.9 0 2.3-1.4 3.9-1.3 1.5-3.4 1.5-1.9 0-3.3-1.4zm5.7-10.7q0-1.5-0.8-2.5-0.8-0.9-2.1-0.9-1.3 0-2.1 0.9-0.8 0.9-0.8 2.4 0 1.5 0.8 2.4 0.8 0.9 2.1 0.9 1.3 0 2.1-0.9 0.8-0.9 0.8-2.3z"/><path fill-rule="evenodd" class="b" d="m119.6 98.4q0-2.2 1.6-3.8 1.6-1.6 3.9-1.6 2.3 0 3.9 1.6 1.6 1.6 1.6 3.9 0 2.3-1.6 3.9-1.6 1.5-4 1.5-2.3 0-3.9-1.6-1.5-1.5-1.5-3.9zm2.4 0q0 1.6 0.8 2.5 0.9 0.9 2.3 0.9 1.4 0 2.2-0.9 0.8-0.9 0.8-2.4 0-1.5-0.8-2.4-0.9-0.9-2.2-0.9-1.4 0-2.3 0.9-0.8 0.9-0.8 2.3z"/><path class="b" d="m133.1 93.3h2.4v0.9q0.6-0.7 1.1-0.9 0.6-0.3 1.3-0.3 0.9 0 1.9 0.6l-1.1 2.2q-0.6-0.5-1.3-0.5-1.9 0-1.9 3v5.3h-2.4z"/><path class="b" d="m144.4 95.5v8.1h-2.3v-8.1h-1.1v-2.2h1.1v-3.8h2.3v3.8h1.9v2.2z"/><path class="b" d="m153.9 95.1l-2 1q-0.4-0.9-1.1-0.9-0.3 0-0.6 0.2-0.2 0.2-0.2 0.5 0 0.6 1.4 1.2 1.9 0.8 2.5 1.5 0.7 0.7 0.7 1.9 0 1.5-1.1 2.5-1.1 0.9-2.6 0.9-2.6 0-3.7-2.5l2.1-1q0.4 0.8 0.6 1 0.4 0.4 1 0.4 1.3 0 1.3-1.1 0-0.6-1-1.2-0.3-0.2-0.7-0.3-0.4-0.2-0.7-0.4-1.1-0.5-1.5-1-0.5-0.7-0.5-1.7 0-1.3 0.9-2.2 0.9-0.9 2.3-0.9 2 0 2.9 2.1z"/></svg>